<?xml version="1.0" standalone="no"?>
<!DOCTYPE svg PUBLIC "-//W3C//DTD SVG 1.1//EN" "http://www.w3.org/Graphics/SVG/1.1/DTD/svg11.dtd" >
<svg xmlns="http://www.w3.org/2000/svg" xmlns:xlink="http://www.w3.org/1999/xlink" version="1.1">
<metadata></metadata>
<defs>
<font id="barlow_semi_condensedXBd" horiz-adv-x="502" >
<font-face units-per-em="1000" ascent="800" descent="-200" />
<missing-glyph horiz-adv-x="200" />
<glyph horiz-adv-x="0" />
<glyph horiz-adv-x="333" />
<glyph unicode="&#xd;" horiz-adv-x="200" />
<glyph unicode=" "  horiz-adv-x="200" />
<glyph unicode="&#x09;" horiz-adv-x="200" />
<glyph unicode="&#xa0;" horiz-adv-x="200" />
<glyph unicode="!" horiz-adv-x="324" d="M108 244q-12 0 -12 12l-17 432q0 12 12 12h142q12 0 12 -12l-17 -432q0 -12 -12 -12h-108zM160 1q-43 0 -70.5 28t-27.5 68q0 39 30 67.5t68 28.5q39 0 69 -28.5t30 -67.5q0 -40 -28 -68t-71 -28z" />
<glyph unicode="&#x22;" horiz-adv-x="389" d="M39 465q-11 0 -13 12l-15 210q-1 12 11 12h134q12 0 11 -12l-16 -210q-2 -12 -13 -12h-99zM252 465q-11 0 -13 12l-15 210q-2 12 11 12h134q13 0 11 -12l-16 -210q-2 -12 -13 -12h-99z" />
<glyph unicode="#" horiz-adv-x="661" d="M629 407q0 -12 -12 -12h-69q-6 0 -6 -5l-11 -78q0 -5 4 -5h46q12 0 12 -12l-1 -117q0 -12 -12 -12h-67q-6 0 -6 -5l-17 -119q-1 -11 -13 -11h-142q-12 0 -11 13l17 117q0 5 -4 5h-70q-6 0 -6 -5l-17 -119q-1 -11 -13 -11h-142q-12 0 -11 13l17 117q0 5 -4 5h-47 q-12 0 -12 12v117q0 12 12 12h69q6 0 6 5l11 78q0 5 -4 5h-46q-12 0 -12 12v118q0 12 12 12h67q6 0 6 5l18 120q1 11 13 11l142 -1q12 0 11 -13l-17 -117q0 -5 4 -5h69q6 0 6 5l18 120q1 11 13 11l142 -1q12 0 11 -13l-17 -117q0 -5 4 -5h47q12 0 12 -12v-118zM359 307 q6 0 6 5l11 78q0 5 -4 5h-70q-6 0 -6 -5l-11 -78q0 -5 4 -5h70z" />
<glyph unicode="$" horiz-adv-x="505" d="M479 197q0 -81 -45.5 -134.5t-127.5 -66.5q-5 -2 -5 -6l2 -49q0 -12 -12 -12h-83q-12 0 -12 12l2 51q0 4 -5 6q-76 13 -118.5 61t-42.5 119v42q0 12 12 12h140q12 0 12 -12v-19q0 -29 16.5 -48t45.5 -19q27 0 42 16.5t15 39.5t-22 38.5t-67 36.5t-73 41 q-57 40 -90.5 86.5t-33.5 114.5q0 77 43.5 129t120.5 66q5 2 5 6l-1 60q0 12 12 12h80q12 0 12 -12l-1 -58q0 -4 5 -6q80 -13 125.5 -64t45.5 -128v-33q0 -12 -12 -12h-140q-12 0 -12 12v17q0 30 -16 50t-46 20q-26 0 -42 -15.5t-16 -40.5q0 -13 6 -23.5t20.5 -20.5t28 -17 t39 -20t43.5 -23q79 -46 114.5 -93.5t35.5 -115.5z" />
<glyph unicode="%" horiz-adv-x="789" d="M205 381q-68 0 -115.5 48t-47.5 116t47.5 115.5t115.5 47.5q67 0 114.5 -48t47.5 -115q0 -68 -47.5 -116t-114.5 -48zM158 0q-15 0 -8 14l370 678q5 8 15 8h92q15 0 8 -14l-370 -678q-5 -8 -15 -8h-92zM205 465q32 0 54 23.5t22 56.5t-22 56t-54 23t-54.5 -23t-22.5 -56 t22.5 -56.5t54.5 -23.5zM588 -8q-68 0 -115.5 48t-47.5 116t47.5 115.5t115.5 47.5q67 0 114.5 -47.5t47.5 -115.5t-47 -116t-115 -48zM588 76q32 0 54 23t22 57q0 32 -22.5 55.5t-53.5 23.5t-54 -23.5t-23 -55.5q0 -34 22.5 -57t54.5 -23z" />
<glyph unicode="&#x26;" horiz-adv-x="673" d="M635 15q5 -6 2.5 -10.5t-9.5 -4.5h-157q-9 0 -15 7l-27 30q-2 3 -7 1q-84 -47 -180 -47q-95 0 -154.5 46t-59.5 136q0 115 113 188q4 4 1 7q-45 56 -59 85.5t-14 62.5q0 87 56.5 139.5t150.5 52.5q95 0 156 -53.5t61 -139.5q0 -108 -118 -183q-5 -3 -2 -7q49 -57 64 -75 q4 -4 8 0q34 41 52 75q6 11 17 5l105 -60q10 -7 4 -16q-38 -70 -82 -120q-3 -3 0 -6q16 -20 48 -58t46 -55zM280 558q-21 0 -33 -12.5t-12 -32.5q0 -21 37 -69q3 -4 7 -1q48 33 48 69q0 21 -13 33.5t-34 12.5zM270 132q26 5 52 18q6 4 1 7q-3 3 -13 15t-17 19l-50 57 q-3 4 -7 1q-39 -28 -42 -62q-2 -27 18.5 -44t57.5 -11z" />
<glyph unicode="'" horiz-adv-x="185" d="M39 466q-11 0 -13 12l-15 210q-1 12 11 12h142q14 0 12 -12l-17 -211q-2 -11 -13 -11h-107z" />
<glyph unicode="(" horiz-adv-x="360" d="M144 -87q-10 0 -14 7q-129 169 -129 415q0 248 129 415q4 7 14 7h139q7 0 9.5 -4t-1.5 -10q-104 -195 -104 -408t104 -408q4 -6 1.5 -10t-9.5 -4h-139z" />
<glyph unicode=")" horiz-adv-x="360" d="M230 -80q-4 -7 -14 -7h-139q-7 0 -9.5 4t1.5 10q104 195 104 408t-104 408q-4 6 -1.5 10t9.5 4h139q10 0 14 -7q129 -167 129 -415q0 -246 -129 -415z" />
<glyph unicode="*" horiz-adv-x="381" d="M156 395q-12 0 -12 12l1 75q0 7 -6 3l-69 -40q-10 -7 -17 5l-34 62q-7 12 5 17l72 39q4 3 0 6l-72 37q-12 5 -5 17l34 64q7 12 17 5l69 -40q6 -4 6 3l-1 74q0 12 12 12h69q12 0 12 -12l-1 -74q0 -7 6 -3l68 40q10 7 17 -5l35 -64q7 -12 -5 -17l-72 -37q-5 -3 0 -6l72 -39 q12 -5 5 -17l-35 -64q-6 -11 -16 -5l-69 42q-6 4 -6 -3l1 -75q0 -12 -12 -12h-69z" />
<glyph unicode="+" horiz-adv-x="459" d="M424 369q12 0 12 -12v-109q0 -12 -12 -12h-123q-5 0 -5 -5v-123q0 -12 -12 -12h-109q-12 0 -12 12v123q0 5 -5 5h-123q-12 0 -12 12v109q0 12 12 12h123q5 0 5 5v123q0 12 12 12h109q12 0 12 -12v-123q0 -5 5 -5h123z" />
<glyph unicode="," horiz-adv-x="244" d="M41 -105q-14 0 -12 13l25 240q1 11 12 11h123q14 0 11 -13l-59 -241q-3 -10 -14 -10h-86z" />
<glyph unicode="-" horiz-adv-x="376" d="M35 219q-12 0 -12 12v118q0 12 12 12h306q12 0 12 -12v-118q0 -12 -12 -12h-306z" />
<glyph unicode="." horiz-adv-x="277" d="M136 -6q-43 0 -71 28t-28 69q0 39 30.5 67t68.5 28t68.5 -28t30.5 -67q0 -41 -28 -69t-71 -28z" />
<glyph unicode="/" horiz-adv-x="452" d="M28 0q-15 0 -10 14l252 676q3 10 14 10h140q15 0 10 -14l-251 -676q-3 -10 -14 -10h-141z" />
<glyph unicode="0" horiz-adv-x="511" d="M255 -12q-103 0 -164.5 61t-61.5 164v274q0 102 61.5 162.5t164.5 60.5q104 0 165.5 -60.5t61.5 -162.5v-274q0 -103 -61.5 -164t-165.5 -61zM255 131q28 0 44.5 19.5t16.5 53.5v290q0 34 -16.5 53.5t-44.5 19.5t-44 -19.5t-16 -53.5v-290q0 -34 16 -53.5t44 -19.5z" />
<glyph unicode="1" horiz-adv-x="311" d="M104 697q8 3 15 3h146q12 0 12 -12v-676q0 -12 -12 -12h-142q-12 0 -12 12v531q0 4 -5 4l-78 -9q-13 -2 -13 12v105q0 10 10 13z" />
<glyph unicode="2" horiz-adv-x="510" d="M43 0q-12 0 -12 12v116q0 9 6 15q125 134 201 227q71 86 71 135q0 28 -15.5 44.5t-41.5 16.5q-25 0 -41 -16.5t-16 -42.5v-34q0 -12 -12 -12h-144q-12 0 -12 12v50q5 83 69 134t160 51q100 0 160.5 -57t60.5 -145t-75 -184q-29 -38 -156 -174q-6 -6 2 -6h226q12 0 12 -12 v-118q0 -12 -12 -12h-431z" />
<glyph unicode="3" d="M457 333q16 -46 16 -104q0 -71 -27 -123q-24 -54 -75 -84t-122 -30q-85 0 -144 43.5t-73 115.5q-8 31 -10 69q0 12 12 12h143q12 0 12 -12q2 -24 6 -41q12 -45 54 -45q20 0 34.5 12t19.5 32q7 30 7 63q0 37 -7 59q-16 47 -54 47q-21 0 -44 -17q-9 -7 -17 1l-72 81 q-8 10 1 17l140 123q6 6 -2 6h-205q-12 0 -12 12v118q0 12 12 12h405q12 0 12 -12v-121q0 -9 -6 -15l-118 -113q-5 -5 2 -6q83 -11 112 -100z" />
<glyph unicode="4" horiz-adv-x="565" d="M527 322q12 0 12 -12v-125q0 -12 -12 -12h-38q-5 0 -5 -5v-156q0 -12 -12 -12h-142q-12 0 -12 12v156q0 5 -5 5h-282q-12 0 -12 12v98q0 6 3 15l149 393q3 9 14 9h152q15 0 10 -14l-134 -358q-1 -6 4 -6h96q5 0 5 5v99q0 12 12 12h142q12 0 12 -12v-99q0 -5 5 -5h38z" />
<glyph unicode="5" horiz-adv-x="498" d="M438 374q38 -60 38 -150q0 -80 -36 -138q-56 -93 -188 -93q-82 0 -138.5 39t-74.5 112q-6 21 -9 45q-2 12 12 12h145q10 0 12 -11q2 -10 4 -15q12 -40 49 -40q40 0 49 41q7 23 7 46q0 28 -7 48q-12 36 -49 36q-36 0 -50 -28q-4 -9 -14 -9h-146q-12 0 -12 12v407 q0 12 12 12h408q12 0 12 -12v-118q0 -12 -12 -12h-249q-5 0 -5 -5v-127q0 -7 6 -3q39 27 88 27q100 0 148 -76z" />
<glyph unicode="6" horiz-adv-x="498" d="M432 370q44 -59 44 -146q0 -83 -38 -138q-53 -93 -186 -93q-126 0 -183 92q-39 55 -39 131l-1 310q0 83 60 132.5t159 49.5q95 0 154.5 -49.5t59.5 -131.5v-35q0 -12 -12 -12h-142q-12 0 -12 12v17q0 24 -14 39.5t-34 15.5q-23 0 -37.5 -15.5t-14.5 -39.5v-88q0 -7 6 -3 q35 31 88 31q96 0 142 -79zM301 176q7 19 7 51q0 39 -10 59q-13 32 -46 32q-31 0 -46 -31q-10 -20 -10 -60q0 -31 7 -52q11 -40 49 -40q37 0 49 41z" />
<glyph unicode="7" horiz-adv-x="463" d="M100 0q-15 0 -10 14l186 538q2 6 -4 6h-121q-5 0 -5 -5v-40q0 -12 -12 -12h-110q-12 0 -12 12l1 175q0 12 12 12h416q12 0 12 -12v-122q0 -9 -2 -15l-188 -541q-3 -10 -13 -10h-150z" />
<glyph unicode="8" horiz-adv-x="498" d="M450 307q21 -45 21 -101q0 -51 -19 -94q-24 -55 -78 -87.5t-126 -32.5q-70 0 -123.5 31.5t-79.5 88.5q-19 44 -19 95q0 55 21 99q16 35 48 57q4 3 0 7q-28 20 -46 55q-20 40 -20 89q0 57 25 101q27 47 78.5 73t116.5 26q70 0 122 -27.5t78 -82.5q20 -42 20 -91 q0 -48 -21 -88q-18 -31 -48 -54q-4 -4 0 -7q33 -21 50 -57zM199 532q-6 -16 -6 -36q0 -26 7 -41q13 -38 49 -38q37 0 50 38q7 17 7 41q0 21 -6 36q-13 40 -51 40q-39 0 -50 -40zM297 171q9 19 9 49q0 25 -6 43q-13 42 -51 42q-39 0 -50 -42q-6 -19 -6 -43q0 -27 8 -48 q11 -38 48 -38q35 0 48 37z" />
<glyph unicode="9" horiz-adv-x="487" d="M457 484l1 -310q0 -83 -60 -132.5t-159 -49.5q-95 0 -154.5 49.5t-59.5 131.5v35q0 12 12 12h142q12 0 12 -12v-17q0 -24 14 -39.5t34 -15.5q23 0 37.5 15.5t14.5 39.5v88q0 7 -6 3q-35 -31 -88 -31q-96 0 -142 79q-44 59 -44 146q0 83 38 138q53 93 186 93 q126 0 183 -92q39 -55 39 -131zM235 382q31 0 46 31q10 20 10 60q0 31 -7 52q-11 40 -49 40q-37 0 -49 -41q-7 -19 -7 -51q0 -39 10 -59q13 -32 46 -32z" />
<glyph unicode=":" horiz-adv-x="335" d="M169 326q-43 0 -70.5 28t-27.5 68q0 39 30 67.5t68 28.5q39 0 69 -28.5t30 -67.5q0 -40 -28 -68t-71 -28zM169 2q-43 0 -70.5 28t-27.5 68t30 68t68 28q39 0 69 -28t30 -68t-28 -68t-71 -28z" />
<glyph unicode=";" horiz-adv-x="282" d="M141 301q-43 0 -70.5 28t-27.5 69q0 39 30 67.5t68 28.5q39 0 69 -28.5t30 -67.5q0 -40 -28 -68.5t-71 -28.5zM63 -104q-13 0 -12 12l19 239q2 11 13 11h123q14 0 11 -13l-56 -239q-3 -10 -13 -10h-85z" />
<glyph unicode="&#x3c;" horiz-adv-x="459" d="M436 46q0 -16 -14 -9l-390 172q-9 5 -9 14v122q0 9 9 14l390 172q14 7 14 -9v-132q0 -10 -9 -14l-231 -89q-6 -3 0 -6l231 -88q9 -4 9 -14v-133z" />
<glyph unicode="=" horiz-adv-x="459" d="M35 325q-12 0 -12 12v109q0 12 12 12h389q12 0 12 -12v-109q0 -12 -12 -12h-389zM35 143q-12 0 -12 12v109q0 12 12 12h389q12 0 12 -12v-109q0 -12 -12 -12h-389z" />
<glyph unicode="&#x3e;" horiz-adv-x="459" d="M37 37q-14 -7 -14 9v133q0 10 9 14l231 88q6 3 0 6l-231 89q-9 4 -9 14v132q0 16 14 9l390 -172q9 -5 9 -14v-122q0 -9 -9 -14z" />
<glyph unicode="?" d="M165 229q-12 0 -12 12v24q0 34 12 61.5t30 44.5t39 33.5t39 29t30 30t12 37.5q0 27 -16.5 42.5t-45.5 15.5q-32 0 -50 -17.5t-18 -45.5v-11q0 -11 -12 -11l-142 6q-12 0 -12 9v7q0 95 66 154.5t172 59.5q103 0 164.5 -55.5t61.5 -145.5q0 -46 -17 -81t-41 -55.5 t-48.5 -37.5t-41.5 -36.5t-17 -43.5v-14q0 -12 -12 -12h-141zM242 -4q-37 0 -63.5 26t-26.5 62q0 37 27 63.5t64 26.5q36 0 63.5 -26.5t27.5 -62.5q0 -37 -27 -63t-65 -26z" />
<glyph unicode="@" horiz-adv-x="784" d="M436 670q158 0 247.5 -98t70.5 -256q-13 -101 -64.5 -156.5t-135.5 -55.5q-69 0 -107 38q-4 4 -7 0q-35 -39 -112 -39q-46 0 -74.5 29t-32.5 80q-3 23 3 80q5 39 15 70q31 112 126 112q42 0 67 -22q6 -4 6 0v5q1 11 13 11h86q12 0 11 -13l-23 -169q-4 -37 7.5 -58 t35.5 -21q28 0 45.5 29.5t23.5 78.5q14 120 -43 187t-166 67t-190 -79t-97 -201q-16 -124 45.5 -194.5t158.5 -70.5q77 0 134 39q12 7 17 -3l42 -62q6 -10 -3 -17q-89 -62 -209 -62q-141 0 -228.5 106t-66.5 268q22 169 137 273t268 104zM363 196q28 0 40 33q8 28 12 59 q3 38 3 58q0 15 -9 24t-23 9q-31 0 -41 -33q-9 -25 -12 -61q-6 -43 -3 -56q3 -33 33 -33z" />
<glyph unicode="A" horiz-adv-x="605" d="M424 0q-11 0 -13 11l-20 88q-1 4 -5 4h-168q-4 0 -5 -4l-21 -89q-3 -10 -13 -10h-147q-13 0 -10 13l179 677q3 10 14 10h175q11 0 14 -10l179 -677q3 -13 -10 -13h-149zM244 237q-2 -6 5 -6h107q6 0 5 5l-54 245q-1 6 -4 3l-2 -3z" />
<glyph unicode="B" horiz-adv-x="547" d="M517 199q1 -98 -63 -148.5t-166 -50.5h-234q-12 0 -12 12v676q0 12 12 12h217q235 0 235 -195q0 -96 -70 -140q-6 -3 -1 -6q81 -51 82 -160zM213 558q-5 0 -5 -5v-127q0 -5 5 -5h59q72 0 72 68q0 33 -19 51t-53 18h-59zM281 143q33 0 51.5 19.5t18.5 55.5q0 35 -18 55 t-51 20h-69q-5 0 -5 -5v-140q0 -5 5 -5h68z" />
<glyph unicode="C" horiz-adv-x="539" d="M271 -8q-108 0 -173.5 62.5t-65.5 165.5v262q0 103 65.5 164.5t173.5 61.5t173.5 -60t65.5 -160v-4q0 -13 -12 -13l-142 -6q-12 0 -12 11v14q0 34 -20 55t-53 21t-53 -21t-20 -55v-280q0 -34 20 -55t53 -21t53 21t20 55v14q0 11 12 11l142 -6q12 0 12 -8v-7 q0 -100 -65.5 -161t-173.5 -61z" />
<glyph unicode="D" horiz-adv-x="549" d="M54 0q-12 0 -12 12v676q0 12 12 12h223q107 0 172.5 -57t65.5 -151v-284q0 -94 -65.5 -151t-172.5 -57h-223zM208 147q0 -5 5 -5l66 1q30 0 49.5 23t20.5 62v245q0 38 -19.5 61.5t-51.5 23.5h-65q-5 0 -5 -5v-406z" />
<glyph unicode="E" horiz-adv-x="509" d="M483 570q0 -12 -12 -12h-258q-5 0 -5 -5v-125q0 -5 5 -5h156q12 0 12 -12v-118q0 -12 -12 -12h-156q-5 0 -5 -5v-129q0 -5 5 -5h258q12 0 12 -12v-118q0 -12 -12 -12h-417q-12 0 -12 12v676q0 12 12 12h417q12 0 12 -12v-118z" />
<glyph unicode="F" horiz-adv-x="492" d="M482 570q0 -12 -12 -12h-257q-5 0 -5 -5v-125q0 -5 5 -5h155q12 0 12 -12v-118q0 -12 -12 -12h-155q-5 0 -5 -5v-264q0 -12 -12 -12h-142q-12 0 -12 12v676q0 12 12 12h416q12 0 12 -12v-118z" />
<glyph unicode="G" horiz-adv-x="539" d="M271 -8q-107 0 -173 62t-66 164v264q0 102 65.5 164t173.5 62q106 0 172.5 -60t66.5 -154v-21q0 -12 -12 -12h-142q-12 0 -12 12v19q0 32 -19.5 53t-53.5 21q-33 0 -53 -22.5t-20 -58.5v-270q0 -36 22 -58.5t55 -22.5q32 0 51.5 19.5t19.5 52.5v46q0 5 -5 5h-64 q-12 0 -12 12v108q0 12 12 12h221q12 0 12 -12v-161q0 -102 -65.5 -163t-173.5 -61z" />
<glyph unicode="H" horiz-adv-x="551" d="M347 688q0 12 12 12h142q12 0 12 -12v-676q0 -12 -12 -12h-142q-12 0 -12 12v264q0 5 -5 5h-129q-5 0 -5 -5v-264q0 -12 -12 -12h-142q-12 0 -12 12v676q0 12 12 12h142q12 0 12 -12v-260q0 -5 5 -5h129q5 0 5 5v260z" />
<glyph unicode="I" horiz-adv-x="250" d="M54 0q-12 0 -12 12v676q0 12 12 12h142q12 0 12 -12v-676q0 -12 -12 -12h-142z" />
<glyph unicode="J" horiz-adv-x="528" d="M248 -8q-106 0 -170.5 59t-64.5 155v52q0 12 12 12h142q12 0 12 -12v-52q0 -32 19 -52t50 -20q32 0 52 20t20 52v482q0 12 12 12h142q12 0 12 -12v-482q0 -96 -65.5 -155t-172.5 -59z" />
<glyph unicode="K" horiz-adv-x="568" d="M54 0q-12 0 -12 12v676q0 12 12 12h142q12 0 12 -12v-243q0 -4 2 -4.5t4 2.5l153 249q4 8 14 8h156q16 0 8 -14l-180 -292q-1 -3 0 -7l189 -373q6 -14 -9 -14h-155q-10 0 -14 9l-125 250q-4 6 -7 0l-34 -54q-2 -4 -2 -6v-187q0 -12 -12 -12h-142z" />
<glyph unicode="L" horiz-adv-x="505" d="M54 0q-12 0 -12 12v676q0 12 12 12h142q12 0 12 -12v-541q0 -5 5 -5h262q12 0 12 -12v-118q0 -12 -12 -12h-421z" />
<glyph unicode="M" horiz-adv-x="633" d="M53 0q-12 0 -12 12v676q0 12 12 12h139q10 0 15 -8l106 -188q3 -5 6 0l107 188q5 8 15 8h139q12 0 12 -12v-676q0 -12 -12 -12h-142q-12 0 -12 12v410q0 4 -2 4t-4 -3l-73 -128q-5 -8 -15 -8h-32q-10 0 -15 8l-72 130q-4 5 -6 -1v-412q0 -12 -12 -12h-142z" />
<glyph unicode="N" horiz-adv-x="588" d="M55 0q-12 0 -12 12v676q0 12 12 12h144q10 0 14 -9l163 -362q4 -5 6 1l-1 358q0 12 12 12h140q12 0 12 -12v-676q0 -12 -12 -12h-145q-10 0 -14 9l-163 366q-1 3 -3.5 2.5t-2.5 -4.5l2 -361q0 -12 -12 -12h-140z" />
<glyph unicode="O" horiz-adv-x="550" d="M275 -10q-110 0 -176.5 64t-66.5 170v252q0 105 66.5 168.5t176.5 63.5t176.5 -63.5t66.5 -168.5v-252q0 -106 -66.5 -170t-176.5 -64zM275 133q35 0 56 23.5t21 61.5v262q0 38 -21.5 62t-55.5 24q-35 0 -56 -23.5t-21 -62.5v-262q0 -38 21 -61.5t56 -23.5z" />
<glyph unicode="P" horiz-adv-x="536" d="M304 700q96 0 154.5 -61t58.5 -160q0 -97 -58.5 -156t-154.5 -59h-94q-5 0 -5 -5v-247q0 -12 -12 -12h-142q-12 0 -12 12v676q0 12 12 12h253zM276 395q34 0 55 21.5t21 58.5q0 38 -21 60.5t-55 22.5h-66q-5 0 -5 -5v-153q0 -5 5 -5h66z" />
<glyph unicode="Q" horiz-adv-x="534" d="M266 708q106 0 171.5 -65t65.5 -172v-248q0 -80 -40 -137.5t-109 -80.5q-4 -1 -4 -5v-80q0 -12 -12 -12h-142q-12 0 -12 12v80q0 4 -4 5q-70 23 -109.5 80.5t-39.5 137.5v248q0 107 64.5 172t170.5 65zM197 484v-268q0 -37 19 -59.5t50 -22.5q32 0 51.5 22.5t19.5 59.5 v268q0 37 -19.5 59.5t-51.5 22.5q-31 0 -50 -22.5t-19 -59.5z" />
<glyph unicode="R" horiz-adv-x="548" d="M365 0q-10 0 -13 10l-94 265q-2 4 -5 4h-40q-5 0 -5 -5v-262q0 -12 -12 -12h-142q-12 0 -12 12v676q0 12 12 12h256q94 0 151.5 -60t57.5 -157q0 -63 -27 -110t-75 -71q-4 -1 -2 -6l109 -282q5 -14 -10 -14h-149zM213 558q-5 0 -5 -5v-142q0 -5 5 -5h70q32 0 51.5 20.5 t19.5 54.5q0 36 -19.5 56.5t-51.5 20.5h-70z" />
<glyph unicode="S" horiz-adv-x="525" d="M265 -8q-106 0 -170.5 55.5t-64.5 145.5v27q0 12 12 12h139q12 0 12 -12v-19q0 -28 22 -47.5t57 -19.5q31 0 47 16t16 39q0 14 -5 24.5t-24.5 23.5t-31 19t-51.5 26q-42 20 -68 35.5t-59.5 43.5t-50 65t-16.5 83q0 90 64 144.5t165 54.5q105 0 171 -58t66 -152v-19 q0 -12 -12 -12h-139q-12 0 -12 12v17q0 29 -21 49.5t-57 20.5q-29 0 -45 -15t-16 -41q0 -28 23.5 -46.5t93.5 -53.5q6 -4 38 -21.5t40.5 -23t33 -22.5t33.5 -29t22.5 -31t18 -40.5t4.5 -47.5q0 -92 -64.5 -147.5t-170.5 -55.5z" />
<glyph unicode="T" horiz-adv-x="537" d="M504 700q12 0 12 -12v-119q0 -12 -12 -12h-150q-5 0 -5 -5v-540q0 -12 -12 -12h-142q-12 0 -12 12v540q0 5 -5 5h-144q-12 0 -12 12v119q0 12 12 12h470z" />
<glyph unicode="U" horiz-adv-x="551" d="M276 -8q-107 0 -172.5 63t-65.5 166v467q0 12 12 12h142q12 0 12 -12v-475q0 -35 20 -57t52 -22t51.5 22t19.5 57v475q0 12 12 12h142q12 0 12 -12v-467q0 -104 -65 -166.5t-172 -62.5z" />
<glyph unicode="V" horiz-adv-x="570" d="M207 0q-11 0 -14 10l-172 677q-3 13 11 13h154q11 0 13 -11l86 -427q1 -3 3 -3t3 3l84 427q1 11 13 11h150q14 0 11 -13l-174 -677q-3 -10 -14 -10h-154z" />
<glyph unicode="W" horiz-adv-x="783" d="M185 0q-10 0 -13 10l-162 677q-3 13 11 13h149q12 0 13 -11l66 -347q1 -3 3 -3t3 3l64 347q1 11 13 11h123q11 0 13 -11l70 -348q1 -3 3 -2.5t3 3.5l61 347q1 11 13 11h145q14 0 11 -13l-149 -676q-2 -11 -13 -11h-135q-12 0 -13 11l-69 365q-1 3 -3 3t-3 -3l-60 -365 q-1 -11 -13 -11h-131z" />
<glyph unicode="X" horiz-adv-x="568" d="M34 0q-15 0 -9 14l161 333q1 3 0 6l-161 333q-6 14 9 14h150q10 0 14 -9l83 -187q3 -6 6 0l84 187q4 9 14 9h149q15 0 9 -14l-161 -333q-1 -3 0 -6l161 -333q6 -14 -9 -14h-148q-10 0 -14 9l-85 187q-3 6 -6 0l-84 -187q-4 -9 -14 -9h-149z" />
<glyph unicode="Y" horiz-adv-x="564" d="M210 2q-12 0 -12 12v241q0 3 -1 6l-173 425q-5 14 9 14h153q10 0 13 -10l80 -237q1 -3 3 -3t3 3l80 237q3 10 13 10h152q14 0 9 -14l-174 -425q-1 -3 -1 -6v-241q0 -12 -12 -12h-142z" />
<glyph unicode="Z" horiz-adv-x="489" d="M34 0q-12 0 -12 12v126q0 8 4 15l255 399q3 6 -3 6h-244q-12 0 -12 12v118q0 12 12 12h418q12 0 12 -12v-126q0 -8 -4 -15l-256 -399q-3 -6 3 -6h245q12 0 12 -12v-118q0 -12 -12 -12h-418z" />
<glyph unicode="[" horiz-adv-x="395" d="M44 -156q-12 0 -12 12v942q0 12 12 12h239q12 0 12 -12v-119q0 -12 -12 -12h-80q-5 0 -5 -5v-670q0 -5 5 -5h80q12 0 12 -12v-119q0 -12 -12 -12h-239z" />
<glyph unicode="\" horiz-adv-x="452" d="M434 14q5 -14 -10 -14h-141q-11 0 -14 10l-251 676q-5 14 10 14h140q11 0 14 -10z" />
<glyph unicode="]" horiz-adv-x="395" d="M363 -144q0 -12 -12 -12h-239q-12 0 -12 12v119q0 12 12 12h80q5 0 5 5v670q0 5 -5 5h-80q-12 0 -12 12v119q0 12 12 12h239q12 0 12 -12v-942z" />
<glyph unicode="^" horiz-adv-x="456" d="M37 294q-14 0 -9 14l127 382q3 10 13 10h118q10 0 13 -10l129 -382q5 -14 -9 -14h-115q-11 0 -14 10l-59 214q-1 3 -3 3t-3 -3l-59 -214q-3 -10 -14 -10h-115z" />
<glyph unicode="_" horiz-adv-x="487" d="M25 0q-12 0 -12 12v100q0 12 12 12h437q12 0 12 -12v-100q0 -12 -12 -12h-437z" />
<glyph unicode="`" horiz-adv-x="256" d="M235 586q7 -14 -8 -14h-113q-8 0 -14 7l-76 101q-5 6 -2.5 10.5t9.5 4.5h133q10 0 15 -8z" />
<glyph unicode="a" horiz-adv-x="496" d="M243 525q97 0 159 -48t62 -122v-343q0 -12 -12 -12h-142q-12 0 -12 12v28q0 9 -6 1q-36 -48 -116 -49q-69 0 -113.5 35t-44.5 117q0 87 52.5 124t153.5 37h69q5 0 5 5v22q0 23 -14.5 37t-39.5 14q-38 0 -48 -31q-3 -11 -13 -10l-145 9q-12 1 -12 11q5 73 65 118t152 45z M232 113q27 0 46.5 15.5t19.5 40.5v30q0 5 -5 5h-45q-62 0 -62 -48q0 -20 12.5 -31.5t33.5 -11.5z" />
<glyph unicode="b" horiz-adv-x="508" d="M469 366q9 -41 9 -99q0 -68 -9 -110q-35 -165 -157 -165q-67 0 -103 40q-6 6 -6 -2v-18q0 -12 -12 -12h-142q-12 0 -12 12v676q0 12 12 12h142q12 0 12 -12v-199q0 -8 6 -2q34 38 102 38q127 0 158 -159zM307 187q5 29 5 73q0 51 -6 74q-11 49 -49 49q-39 0 -49 -50 q-4 -22 -4 -73q0 -50 4 -73q10 -53 49 -53q41 0 50 53z" />
<glyph unicode="c" horiz-adv-x="494" d="M253 -8q-89 0 -146 43.5t-71 120.5q-9 45 -9 104q0 57 9 104q14 74 71.5 117.5t145.5 43.5q85 0 143 -42t72 -113q2 -10 4 -32q1 -11 -11 -13l-141 -14q-10 -1 -12 8v6l-3 16q-10 42 -53 42q-42 0 -53 -47q-5 -25 -5 -76q0 -56 6 -81q10 -45 52 -45q45 0 52 45q2 10 2 15 q2 13 13 11l141 -12q12 -2 11 -13q0 -9 -2 -23q-11 -78 -69 -121.5t-147 -43.5z" />
<glyph unicode="d" horiz-adv-x="508" d="M305 688q0 12 12 12h142q12 0 12 -12v-676q0 -12 -12 -12h-142q-12 0 -12 12v18q0 8 -6 2q-36 -40 -103 -40q-122 0 -157 165q-9 42 -9 110q0 58 9 99q31 159 158 159q68 0 102 -38q6 -6 6 2v199zM300 187q4 23 4 73q0 51 -4 73q-10 50 -49 50q-38 0 -49 -49 q-6 -23 -6 -74q0 -44 5 -73q9 -53 50 -53q39 0 49 53z" />
<glyph unicode="e" horiz-adv-x="500" d="M265 134q42 1 61 38q4 10 15 8l117 -22q12 -3 9 -14q-20 -71 -75 -111.5t-134 -40.5q-82 0 -138.5 42.5t-75.5 110.5q-15 51 -15 126q0 39 4 67q11 89 66.5 138.5t153.5 49.5q194 0 218 -204q5 -50 5 -97q0 -12 -12 -12h-264q-5 0 -5 -5q2 -20 4 -27q5 -22 22 -35t44 -12 zM250 383q-40 0 -50 -46q-2 -9 -4 -27q-2 -5 4 -5h103q5 0 5 5q-2 18 -4 26q-9 47 -54 47z" />
<glyph unicode="f" horiz-adv-x="351" d="M319 517q12 0 12 -12v-101q0 -12 -12 -12h-71q-5 0 -5 -5v-375q0 -12 -12 -12h-142q-12 0 -12 12v375q0 5 -5 5h-41q-12 0 -12 12v101q0 12 12 12h41q5 0 5 5v29q0 88 49.5 121t161.5 29h20q12 0 12 -12v-92q0 -12 -12 -12h-19q-46 -3 -46 -48v-15q0 -5 5 -5h71z" />
<glyph unicode="g" horiz-adv-x="507" d="M307 505q0 12 12 12h142q12 0 12 -12v-461q0 -141 -89 -200t-251 -42q-12 0 -12 12l4 122q0 13 13 11q89 -11 129 14t40 91q-4 -4 -7 -8q-34 -40 -97 -40q-66 0 -111 37.5t-58 114.5q-8 28 -8 105q0 73 9 107q1 2 1 6q12 71 54.5 111t109.5 40q65 0 101 -45q2 -3 4 -2 t2 4v23zM303 185q4 29 4 76q0 49 -5 76q-8 46 -52 46q-39 0 -49 -45q-8 -37 -8 -78q0 -42 6 -75q10 -45 52 -45q44 0 52 45z" />
<glyph unicode="h" d="M312 525q74 0 116 -47.5t42 -132.5v-333q0 -12 -12 -12h-142q-12 0 -12 12v309q0 28 -13.5 45t-36.5 17q-24 0 -38 -16.5t-14 -45.5v-309q0 -12 -12 -12h-142q-12 0 -12 12v676q0 12 12 12h142q12 0 12 -12v-211q0 -3 2.5 -3.5t4.5 2.5q35 49 103 49z" />
<glyph unicode="i" horiz-adv-x="251" d="M125 551q-42 0 -68.5 26t-26.5 69t26.5 69t68.5 26q43 0 69.5 -26t26.5 -69t-26.5 -69t-69.5 -26zM54 0q-12 0 -12 12v493q0 12 12 12h142q12 0 12 -12v-493q0 -12 -12 -12h-142z" />
<glyph unicode="j" horiz-adv-x="241" d="M123 550q-42 0 -69 27.5t-27 67.5q0 39 29 67t67 28t67 -28t29 -67q0 -40 -27 -67.5t-69 -27.5zM-55 -202q-12 0 -12 12v116q0 13 13 11q54 -2 74 16t20 61v491q0 12 12 12h142q12 0 12 -12v-490q0 -64 -9 -101.5t-36.5 -67t-79 -40t-136.5 -8.5z" />
<glyph unicode="k" horiz-adv-x="505" d="M48 0q-12 0 -12 12v676q0 12 12 12h142q12 0 12 -12v-309q0 -3 2 -4t4 2l88 132q5 8 14 8h154q17 0 8 -15l-121 -173q-2 -3 0 -7l136 -308q6 -14 -9 -14h-148q-11 0 -14 10l-72 192q-2 5 -7 1l-33 -51q-2 -4 -2 -6v-134q0 -12 -12 -12h-142z" />
<glyph unicode="l" horiz-adv-x="237" d="M47 0q-12 0 -12 12v676q0 12 12 12h142q12 0 12 -12v-676q0 -12 -12 -12h-142z" />
<glyph unicode="m" horiz-adv-x="763" d="M578 525q74 0 113 -47t39 -133v-333q0 -12 -12 -12h-141q-12 0 -12 12v309q0 28 -13 45t-35 17q-23 0 -36.5 -17t-13.5 -45v-309q0 -12 -12 -12h-142q-12 0 -12 12v309q0 28 -13 45t-36 17t-37 -17t-14 -45v-309q0 -12 -12 -12h-141q-12 0 -12 12v493q0 12 12 12h141 q12 0 12 -12v-28q0 -3 2 -4t4 2q39 50 108 50q91 0 130 -73q3 -5 8 3q39 70 125 70z" />
<glyph unicode="n" d="M312 525q74 0 116 -47.5t42 -132.5v-333q0 -12 -12 -12h-142q-12 0 -12 12v309q0 28 -13.5 45t-36.5 17q-24 0 -38 -16.5t-14 -45.5v-309q0 -12 -12 -12h-142q-12 0 -12 12v493q0 12 12 12h142q12 0 12 -12v-28q0 -3 2.5 -3.5t4.5 2.5q35 49 103 49z" />
<glyph unicode="o" horiz-adv-x="505" d="M253 -8q-93 0 -151 46.5t-69 128.5q-6 39 -6 92q0 59 7 95q11 79 69 125t150 46t149.5 -46t68.5 -124q7 -38 7 -95q0 -47 -5 -90q-11 -83 -69 -130.5t-151 -47.5zM253 134q22 0 36.5 15.5t19.5 41.5q3 33 3 69q0 26 -4 68q-4 26 -18.5 40.5t-36.5 14.5q-23 0 -37.5 -15 t-18.5 -40q-3 -21 -3 -68q0 -48 2 -69q5 -26 19.5 -41.5t37.5 -15.5z" />
<glyph unicode="p" horiz-adv-x="510" d="M471 360q9 -42 9 -110q0 -58 -9 -99q-31 -159 -158 -159q-68 0 -102 38q-6 6 -6 -2v-199q0 -12 -12 -12h-142q-12 0 -12 12v676q0 12 12 12h142q12 0 12 -12v-18q0 -8 6 -2q36 40 103 40q122 0 157 -165zM308 183q6 23 6 74q0 44 -5 73q-9 53 -50 53q-39 0 -49 -53 q-4 -23 -4 -73q0 -51 4 -73q10 -50 49 -50q38 0 49 49z" />
<glyph unicode="q" horiz-adv-x="510" d="M305 505q0 12 12 12h142q12 0 12 -12v-676q0 -12 -12 -12h-142q-12 0 -12 12v199q0 8 -6 2q-34 -38 -102 -38q-127 0 -158 159q-9 41 -9 99q0 68 9 110q35 165 157 165q67 0 103 -40q6 -6 6 2v18zM300 184q4 22 4 73q0 50 -4 73q-10 53 -49 53q-41 0 -50 -53 q-5 -29 -5 -73q0 -51 6 -74q11 -49 49 -49q39 0 49 50z" />
<glyph unicode="r" horiz-adv-x="363" d="M299 524q28 0 50 -12q7 -5 5 -15l-22 -140q-1 -11 -14 -8q-31 8 -59 0q-24 -5 -40.5 -24.5t-16.5 -47.5v-265q0 -12 -12 -12h-142q-12 0 -12 12v493q0 12 12 12h142q12 0 12 -12v-32q0 -5 2 -5t3 2q32 54 92 54z" />
<glyph unicode="s" horiz-adv-x="468" d="M239 -8q-98 0 -157 43.5t-59 113.5v8q0 12 12 12h135q12 0 12 -6v-7q0 -18 16 -29.5t40 -11.5q21 0 33.5 9t12.5 23q0 17 -18 25.5t-56.5 18t-60.5 18.5q-120 46 -120 149q0 77 56 122t148 45q94 0 151 -47.5t57 -125.5q0 -11 -12 -11h-131q-12 0 -12 8v8q0 17 -14 28 t-36 11q-21 0 -34.5 -10t-13.5 -25q0 -11 6.5 -18.5t20 -13t26.5 -9.5t34 -9.5t34 -9.5q65 -21 103.5 -54.5t38.5 -95.5q0 -75 -57.5 -117t-154.5 -42z" />
<glyph unicode="t" horiz-adv-x="343" d="M323 405q0 -12 -12 -12h-71q-5 0 -5 -5v-196q0 -48 41 -48h22q12 0 12 -12v-117q0 -12 -12 -12q-40 -2 -58 -2q-83 0 -123.5 26t-40.5 99v262q0 5 -5 5h-45q-12 0 -12 12v100q0 12 12 12h45q5 0 5 5v116q0 12 12 12h135q12 0 12 -12v-116q0 -5 5 -5h71q12 0 12 -12v-100z " />
<glyph unicode="u" d="M300 505q0 12 12 12h142q12 0 12 -12v-493q0 -12 -12 -12h-142q-12 0 -12 12v24q0 9 -6 1q-34 -45 -106 -45q-68 0 -111.5 42.5t-43.5 124.5v346q0 12 12 12h142q12 0 12 -12v-309q0 -29 13 -45t37 -16q21 0 34.5 12.5t16.5 35.5v322z" />
<glyph unicode="v" horiz-adv-x="496" d="M169 0q-11 0 -14 10l-138 494q-3 13 10 13h155q12 0 13 -11l50 -268q1 -3 3 -3t3 3l50 268q1 11 13 11l155 -1q13 0 10 -13l-137 -493q-3 -10 -14 -10h-159z" />
<glyph unicode="w" horiz-adv-x="720" d="M156 0q-11 0 -14 10l-126 494q-3 13 11 13h140q12 0 13 -11l47 -267q1 -3 3 -3t3 3l49 267q1 11 13 11h125q12 0 13 -11l52 -267q1 -3 3 -3t3 3l50 267q1 11 13 11l139 -1q14 0 11 -13l-127 -493q-3 -10 -14 -10h-142q-11 0 -13 11l-50 224q-1 6 -4 3q-2 -1 -2 -3 l-44 -224q-1 -11 -13 -11h-139z" />
<glyph unicode="x" horiz-adv-x="511" d="M26 0q-15 0 -8 14l136 242q2 3 0 6l-136 241q-7 14 8 14h153q11 0 15 -9l56 -105q3 -4 6 1l55 104q5 9 15 9h159q15 0 8 -14l-136 -241q-1 -3 0 -6l136 -242q7 -14 -8 -14h-154q-9 0 -14 9l-56 107q-3 4 -6 0l-57 -107q-4 -9 -14 -9h-158z" />
<glyph unicode="y" horiz-adv-x="481" d="M42 -199q-7 0 -7 12v112q0 12 5 12h5q59 0 84 12t28 48q0 3 -1 6l-142 501q-3 13 10 13h152q12 0 13 -11l49 -268q1 -3 3 -3t3 3l48 268q1 11 13 11l152 -1q13 0 10 -13l-148 -513q-18 -57 -34 -88t-45.5 -56.5t-75 -35t-116.5 -9.5h-6z" />
<glyph unicode="z" horiz-adv-x="421" d="M29 0q-12 0 -12 12v130q0 9 5 14l172 205q4 6 -3 6h-156q-12 0 -12 12v126q0 12 12 12h349q12 0 12 -12v-130q0 -8 -6 -14l-179 -205q-5 -6 3 -6h177q12 0 12 -12v-126q0 -12 -12 -12h-362z" />
<glyph unicode="{" horiz-adv-x="386" d="M243 -156q-65 0 -101 33.5t-36 93.5v203q0 83 -62 89q-12 1 -12 13v106q0 12 12 13q62 6 62 88v200q0 60 36 93.5t101 33.5h99q12 0 12 -12v-119q0 -12 -12 -12h-20q-21 0 -35.5 -16.5t-14.5 -42.5v-149q0 -97 -59 -127q-6 -3 0 -6q59 -30 59 -127v-153q0 -26 14.5 -42.5 t35.5 -16.5h20q12 0 12 -12v-119q0 -12 -12 -12h-99z" />
<glyph unicode="|" horiz-adv-x="209" d="M33 -80q-12 0 -12 12v816q0 12 12 12h142q12 0 12 -12v-816q0 -12 -12 -12h-142z" />
<glyph unicode="}" horiz-adv-x="386" d="M143 -156h-99q-12 0 -12 12v119q0 12 12 12h20q21 0 35.5 16.5t14.5 42.5v153q0 97 59 127q6 3 0 6q-59 30 -59 127v149q0 26 -14.5 42.5t-35.5 16.5h-20q-12 0 -12 12v119q0 12 12 12h99q65 0 101 -33.5t36 -93.5v-200q0 -82 62 -88q12 -1 12 -13v-106q0 -12 -12 -13 q-62 -6 -62 -89v-203q0 -60 -36 -93.5t-101 -33.5z" />
<glyph unicode="~" horiz-adv-x="523" d="M345 191q-37 0 -79 25q-4 2 -14.5 8t-16 9t-14.5 7t-17 5.5t-16 1.5q-36 0 -61 -35q-8 -10 -17 -4l-78 51q-9 6 -6 16q17 49 59.5 82t92.5 33q38 0 80 -25q54 -32 75 -32q30 0 54 35q7 10 16 4l88 -55q9 -6 5 -16q-21 -47 -62.5 -78.5t-88.5 -31.5z" />
<glyph unicode="&#xa1;" horiz-adv-x="324" d="M160 708q43 0 71 -28t28 -68q0 -39 -30 -67.5t-69 -28.5q-38 0 -68 28.5t-30 67.5q0 40 27.5 68t70.5 28zM96 453q0 12 12 12h108q12 0 12 -12l17 -432q0 -12 -12 -12h-142q-12 0 -12 12z" />
<glyph unicode="&#xa2;" horiz-adv-x="494" d="M304 269q2 10 2 15q2 13 13 11l141 -12q12 -2 11 -13q0 -9 -2 -23q-9 -62 -48.5 -103t-101.5 -55q-5 -2 -5 -6l3 -69q0 -12 -11 -12h-115q-11 0 -11 12l4 71q0 5 -4 6q-122 31 -144 155q-9 45 -9 104q0 57 9 104q11 57 48.5 96.5t95.5 55.5q4 1 4 6l-4 72q0 12 11 12h115 q11 0 11 -12l-3 -70q0 -5 4 -6q60 -14 99.5 -52.5t50.5 -95.5q2 -10 4 -32q1 -11 -11 -13l-141 -14q-10 -1 -12 8v6l-3 16q-10 42 -53 42q-42 0 -53 -47q-5 -25 -5 -76q0 -56 6 -81q10 -45 52 -45q45 0 52 45z" />
<glyph unicode="&#xa3;" horiz-adv-x="568" d="M282 234q0 -53 -28 -86q-4 -6 3 -6h277q12 0 12 -12v-118q0 -12 -12 -12h-446q-12 0 -12 12v121q0 8 7 15q33 28 33 86v41q0 5 -5 5h-57q-12 0 -12 12v109q0 12 12 12h57q5 0 5 5v64q0 105 56.5 164.5t152.5 61.5q86 2 141.5 -43.5t77.5 -128.5q3 -12 -10 -14l-135 -18 q-11 -2 -14 9q-14 53 -52 53q-51 -2 -51 -78v-70q0 -5 5 -5h153q12 0 12 -12v-109q0 -12 -12 -12h-153q-5 0 -5 -5v-41z" />
<glyph unicode="&#xa4;" horiz-adv-x="590" d="M520 304q0 -53 -23 -99q-1 -5 1 -7l67 -67q9 -9 0 -17l-88 -77q-9 -9 -17 0l-62 61q-3 2 -7 1q-47 -22 -99 -22q-50 0 -95 20q-5 1 -7 -1l-60 -59q-8 -9 -17 0l-88 77q-9 8 0 17l63 62q2 2 1 7q-26 47 -26 104q0 53 23 99q2 4 -1 7l-66 66q-9 8 0 17l88 77q9 8 17 0 l61 -61q3 -3 7 -1q46 23 100 23q55 0 103 -25q5 -2 7 1l64 63q8 8 17 0l88 -77q9 -9 0 -17l-71 -70q-2 -2 -1 -7q21 -43 21 -95zM204 304q0 -35 26 -61t62 -26q35 0 60.5 25.5t26.5 61.5q-1 36 -26.5 61.5t-60.5 25.5q-36 0 -62 -25.5t-26 -61.5z" />
<glyph unicode="&#xa5;" horiz-adv-x="609" d="M554 700q14 0 9 -14l-142 -347q-2 -6 4 -6h84q12 0 12 -12v-66q0 -12 -12 -12h-116q-5 0 -5 -5v-34q0 -5 5 -5h116q12 0 12 -12v-66q0 -12 -12 -12h-116q-5 0 -5 -5v-90q0 -12 -12 -12h-142q-12 0 -12 12v90q0 5 -5 5h-116q-12 0 -12 12v66q0 12 12 12h116q5 0 5 5v34 q0 5 -5 5h-116q-12 0 -12 12v66q0 12 12 12h84q6 0 4 6l-141 347q-5 14 9 14h153q10 0 13 -10l80 -237q1 -3 3 -3t3 3l80 237q3 10 13 10h152z" />
<glyph unicode="&#xa6;" horiz-adv-x="209" d="M33 394q-12 0 -12 12v342q0 12 12 12h142q12 0 12 -12v-342q0 -12 -12 -12h-142zM33 -80q-12 0 -12 12v341q0 12 12 12h142q12 0 12 -12v-341q0 -12 -12 -12h-142z" />
<glyph unicode="&#xa7;" horiz-adv-x="483" d="M240 -205q-94 0 -149.5 46t-57.5 123l-1 30q0 12 12 12h142q12 0 12 -11v-11q0 -21 13 -34t33 -13t33 12t13 30q0 22 -23.5 38.5t-79.5 42.5q-9 4 -13 6q-94 44 -124 98q-19 34 -19 80q0 55 29 95q19 25 52 44q7 3 1 7q-84 61 -84 143q0 75 60 125t154 50q92 0 150.5 -49 t59.5 -129v-19q0 -12 -12 -12h-142q-12 0 -12 9v9q0 21 -13 35t-33 14t-32.5 -12.5t-12.5 -31.5t14 -34t30 -23t50 -23q99 -43 132 -80q36 -39 36 -98q0 -48 -24 -90q-25 -42 -61 -58q-7 -2 0 -6q43 -31 63 -63.5t20 -78.5q0 -79 -61 -126t-155 -47zM245 202q26 0 38 18 q9 12 9 32t-10 33q-14 17 -38 17q-25 0 -39 -19q-8 -12 -8 -32q0 -19 9 -32q12 -17 39 -17z" />
<glyph unicode="&#xa8;" horiz-adv-x="374" d="M92 560q-35 0 -57 22t-22 57t22 57t57 22t56.5 -22t21.5 -57t-21.5 -57t-56.5 -22zM283 560q-35 0 -57 22t-22 57t22 57t57 22t56.5 -22t21.5 -57t-21.5 -57t-56.5 -22z" />
<glyph unicode="&#xa9;" horiz-adv-x="787" d="M393 -8q-156 0 -258.5 103t-102.5 260q0 151 102.5 252t258.5 101t259 -101t103 -252q0 -157 -103 -260t-259 -103zM393 82q117 0 193.5 77t76.5 196q0 113 -76.5 188t-193.5 75t-193 -75t-76 -188q0 -119 76 -196t193 -77zM395 178q-53 0 -84.5 30t-31.5 79v128 q0 50 31.5 79t84.5 29t85 -28.5t32 -76.5q0 -9 -12 -9l-62 -3q-12 0 -12 7v7q0 14 -8.5 22.5t-22.5 8.5q-13 0 -21.5 -8.5t-8.5 -22.5v-139q0 -14 8 -22.5t22 -8.5q31 0 31 31v2q0 12 12 12l62 -3q12 0 12 -4v-4q0 -48 -32 -77t-85 -29z" />
<glyph unicode="&#xaa;" horiz-adv-x="315" d="M149 568h41q5 0 5 5v10q0 19 -11.5 30.5t-30.5 11.5q-26 0 -37 -18q0 -1 -1 -3t-1 -3q-3 -7 -12 -7l-73 4q-13 0 -11 13q4 42 41 69.5t92 27.5q61 0 100.5 -31.5t39.5 -80.5v-221q0 -12 -12 -12h-72q-12 0 -12 10v2q0 8 -6 2q-23 -20 -65 -20q-49 0 -82 24.5t-33 78.5 q0 108 140 108zM143 434q22 0 37 12t15 29v14q0 5 -5 5h-34q-49 0 -49 -32q0 -28 36 -28zM9 300q0 12 12 12h266q12 0 12 -12v-51q0 -12 -12 -12h-266q-12 0 -12 12v51z" />
<glyph unicode="&#xab;" horiz-adv-x="476" d="M260 121q7 -14 -9 -14h-114q-9 0 -14 9l-80 157q-5 8 0 16l80 157q5 9 14 9h114q16 0 9 -14l-82 -157q-1 -3 0 -6zM431 121q7 -14 -9 -14h-114q-10 0 -14 9l-80 157q-5 8 0 16l80 157q4 9 14 9h114q16 0 9 -14l-82 -157q-1 -3 0 -6z" />
<glyph unicode="&#xac;" horiz-adv-x="459" d="M23 356q0 12 12 12h389q12 0 12 -12v-207q0 -12 -12 -12h-109q-12 0 -12 12v81q0 5 -5 5h-263q-12 0 -12 12v109z" />
<glyph unicode="&#xad;" horiz-adv-x="376" d="M35 219q-12 0 -12 12v118q0 12 12 12h306q12 0 12 -12v-118q0 -12 -12 -12h-306z" />
<glyph unicode="&#xae;" horiz-adv-x="438" d="M219 709q88 0 147 -57t59 -142q0 -91 -58.5 -150t-147.5 -59t-147.5 59t-58.5 150q0 85 59 142t147 57zM219 363q62 0 102.5 41t40.5 106q0 59 -41 98t-102 39t-101.5 -39t-40.5 -98q0 -65 40 -106t102 -41zM292 540q0 -32 -23 -47q-5 -2 -3 -6l20 -59q5 -14 -9 -14h-31 q-10 0 -13 10l-17 55q-2 4 -4 4q-4 0 -4 -5v-52q0 -12 -12 -12h-28q-12 0 -12 12v163q0 12 12 12h63q27 0 44 -17t17 -44zM213 557q-5 0 -5 -5v-26q0 -5 5 -5h10q17 0 17 18t-17 18h-10z" />
<glyph unicode="&#xaf;" horiz-adv-x="291" d="M25 574q-12 0 -12 12v87q0 12 12 12h241q12 0 12 -12v-87q0 -12 -12 -12h-241z" />
<glyph unicode="&#xb0;" horiz-adv-x="367" d="M183 465q-71 0 -120.5 50t-49.5 123q0 71 49.5 120.5t120.5 49.5q72 0 121.5 -49.5t49.5 -120.5q0 -73 -49.5 -123t-121.5 -50zM183 573q27 0 45 18.5t18 46.5t-18 46.5t-45 18.5q-26 0 -44.5 -18.5t-18.5 -46.5t18.5 -46.5t44.5 -18.5z" />
<glyph unicode="&#xb1;" horiz-adv-x="459" d="M296 478q0 -5 5 -5h123q12 0 12 -12v-109q0 -12 -12 -12h-123q-5 0 -5 -5v-123q0 -12 -12 -12h-109q-12 0 -12 12v123q0 5 -5 5h-123q-12 0 -12 12v109q0 12 12 12h123q5 0 5 5v123q0 12 12 12h109q12 0 12 -12v-123zM35 3q-12 0 -12 12v109q0 12 12 12h389q12 0 12 -12 v-109q0 -12 -12 -12h-389z" />
<glyph unicode="&#xb2;" horiz-adv-x="311" d="M33 407q-12 0 -12 12v69q0 9 6 15q85 89 118 128q42 49 42 77q0 34 -31 34q-14 0 -23 -9t-9 -24v-15q0 -12 -12 -12h-82q-12 0 -12 12v26q4 52 42 82t97 30q62 0 99 -33.5t37 -92.5q0 -49 -37 -102q-9 -12 -87 -101q-6 -6 2 -6h115q12 0 12 -12v-66q0 -12 -12 -12h-253z " />
<glyph unicode="&#xb3;" horiz-adv-x="307" d="M285 602q8 -27 8 -58q0 -30 -5 -47q-11 -45 -44 -70.5t-85 -25.5q-51 0 -86.5 26.5t-44.5 69.5q-4 16 -6 37q0 12 12 12h81q11 0 13 -12q0 -10 3 -18q9 -25 28 -25t27 21q5 14 5 39q0 28 -6 43q-8 18 -26 18q-12 0 -24 -9q-9 -6 -17 2l-39 45q-8 10 1 17l76 63q6 6 -3 6 h-109q-12 0 -12 12v66q0 12 12 12h233q12 0 12 -12v-69q0 -9 -6 -15l-56 -52q-2 -1 -2 -3.5t3 -3.5q41 -17 57 -69z" />
<glyph unicode="&#xb4;" horiz-adv-x="256" d="M29 572q-15 0 -8 14l56 101q5 8 15 8h133q7 0 9.5 -4.5t-2.5 -10.5l-76 -101q-6 -7 -14 -7h-113z" />
<glyph unicode="&#xb5;" horiz-adv-x="505" d="M303 505q0 12 12 12h142q12 0 12 -12v-493q0 -12 -12 -12h-142q-12 0 -12 12v24q0 8 -6 2q-30 -41 -90 -46q-5 0 -5 -5v-175q0 -12 -12 -12h-142q-12 0 -12 12v693q0 12 12 12h142q12 0 12 -12v-309q0 -29 13 -45t37 -16q21 0 34.5 12.5t16.5 35.5v322z" />
<glyph unicode="&#xb6;" horiz-adv-x="586" d="M249 700h287q12 0 12 -12v-876q0 -12 -12 -12h-105q-12 0 -12 12v758q0 5 -5 5h-62q-5 0 -5 -5v-758q0 -12 -12 -12h-105q-12 0 -12 12v435q0 4 -5 6q-88 11 -141 70.5t-53 151.5q0 101 62 163t168 62z" />
<glyph unicode="&#xb7;" horiz-adv-x="198" d="M97 -6q-43 0 -71 28t-28 69q0 39 30.5 67t68.5 28t68.5 -28t30.5 -67q0 -41 -28 -69t-71 -28z" />
<glyph unicode="&#xb8;" horiz-adv-x="171" d="M13 -184q-11 3 -9 14l8 60q1 11 15 8q29 -9 37 18q8 30 -41 69q-7 6 -5.5 10.5t9.5 4.5h79q8 0 12 -4q3 -1 4 -4q62 -58 46 -122q-7 -28 -27 -44t-44.5 -18.5t-45.5 0t-38 8.5z" />
<glyph unicode="&#xb9;" horiz-adv-x="179" d="M47 824q5 3 15 3h85q12 0 12 -12v-396q0 -12 -12 -12h-81q-12 0 -12 12v312q0 5 -5 5l-18 -1q-12 0 -12 12v53q0 10 9 14z" />
<glyph unicode="&#xba;" horiz-adv-x="328" d="M164 358q-57 0 -93.5 27.5t-46.5 78.5q-6 30 -6 69q0 41 6 70q9 49 46 77t94 28q55 0 91.5 -28t45.5 -77q8 -32 8 -69q0 -38 -8 -70q-10 -50 -46 -78t-91 -28zM164 448q26 0 34 32q5 21 5 53q0 31 -4 52q-8 33 -36 33q-27 0 -36 -33q-4 -20 -4 -52q0 -30 4 -53 q8 -32 37 -32zM31 237q-12 0 -12 12v52q0 12 12 12h269q12 0 12 -12v-52q0 -12 -12 -12h-269z" />
<glyph unicode="&#xbb;" horiz-adv-x="476" d="M58 107q-16 0 -9 14l82 157q1 3 0 6l-82 157q-7 14 9 14h114q10 0 14 -9l80 -157q5 -8 0 -16l-80 -157q-4 -9 -14 -9h-114zM229 107q-16 0 -9 14l82 157q1 3 0 6l-82 157q-7 14 9 14h114q9 0 14 -9l80 -157q5 -8 0 -16l-80 -157q-5 -9 -14 -9h-114z" />
<glyph unicode="&#xbc;" horiz-adv-x="783" d="M159 292q0 -12 -12 -12h-81q-12 0 -12 12v312q0 5 -5 5l-18 -1q-12 0 -12 12v53q0 9 9 14l19 9q10 4 15 4h85q12 0 12 -12v-396zM476 692q4 8 15 8h91q17 0 9 -14l-393 -678q-4 -8 -15 -8h-91q-17 0 -9 14zM756 197q12 0 12 -12v-71q0 -12 -12 -12h-15q-5 0 -5 -5v-85 q0 -12 -12 -12h-82q-12 0 -12 12v85q0 5 -5 5h-164q-12 0 -12 12v56q0 6 3 15l86 226q3 9 14 9h85q15 0 10 -14l-74 -203q-1 -6 4 -6h48q5 0 5 5v50q0 12 12 12h82q12 0 12 -12v-50q0 -5 5 -5h15z" />
<glyph unicode="&#xbd;" horiz-adv-x="751" d="M159 292q0 -12 -12 -12h-81q-12 0 -12 12v312q0 5 -5 5l-18 -1q-12 0 -12 12v53q0 9 9 14l19 9q10 4 15 4h85q12 0 12 -12v-396zM476 692q4 8 15 8h91q17 0 9 -14l-393 -678q-4 -8 -15 -8h-91q-17 0 -9 14zM609 96q-6 -6 2 -6h115q12 0 12 -12v-66q0 -12 -12 -12h-253 q-12 0 -12 12v69q0 9 6 15q85 89 118 128q42 49 42 77q0 34 -31 34q-14 0 -23 -9t-9 -24v-15q0 -12 -12 -12h-82q-12 0 -12 12v26q4 52 42 82t97 30q62 0 99 -33.5t37 -92.5q0 -49 -37 -102q-9 -12 -87 -101z" />
<glyph unicode="&#xbe;" horiz-adv-x="867" d="M288 372q-11 -45 -44 -70.5t-85 -25.5q-51 0 -86.5 26.5t-44.5 69.5q-4 16 -6 37q0 12 12 12h81q11 0 13 -12q0 -11 3 -18q9 -25 28 -25t27 21q5 14 5 39q0 28 -6 43q-8 18 -26 18q-12 0 -24 -9q-9 -6 -17 2l-39 45q-8 10 1 17l76 63q6 6 -3 6h-109q-12 0 -12 12v66 q0 12 12 12h233q12 0 12 -12v-69q0 -9 -6 -15l-56 -52q-2 -2 -1.5 -4t2.5 -3q41 -17 57 -69q8 -27 8 -58q0 -29 -5 -47zM560 692q4 8 15 8h91q17 0 9 -14l-393 -678q-4 -8 -15 -8h-91q-17 0 -9 14zM840 197q12 0 12 -12v-71q0 -12 -12 -12h-15q-5 0 -5 -5v-85q0 -12 -12 -12 h-82q-12 0 -12 12v85q0 5 -5 5h-164q-12 0 -12 12v56q0 6 3 15l86 226q3 9 14 9h85q15 0 10 -14l-74 -203q-1 -6 4 -6h48q5 0 5 5v50q0 12 12 12h82q12 0 12 -12v-50q0 -5 5 -5h15z" />
<glyph unicode="&#xbf;" d="M260 504q37 0 63.5 -26t26.5 -62q0 -37 -27 -63.5t-64 -26.5q-36 0 -63.5 26.5t-27.5 62.5q0 37 27 63t65 26zM337 271q12 0 12 -12v-24q0 -34 -12 -61.5t-30 -44.5t-39 -33.5t-39 -29t-30 -30t-12 -37.5q0 -27 16.5 -42.5t45.5 -15.5q32 0 50 17.5t18 45.5v11 q0 11 12 11l142 -6q12 0 12 -8v-8q0 -95 -66 -154.5t-172 -59.5q-103 0 -164.5 55.5t-61.5 145.5q0 46 17 81t41.5 55.5t48.5 37.5t41 36.5t17 43.5v14q0 12 12 12h141z" />
<glyph unicode="&#xc0;" horiz-adv-x="605" d="M367 769q7 -14 -8 -14h-113q-8 0 -14 7l-76 101q-5 6 -2.5 10.5t9.5 4.5h133q10 0 15 -8zM424 0q-11 0 -13 11l-20 88q-1 4 -5 4h-168q-4 0 -5 -4l-21 -89q-3 -10 -13 -10h-147q-13 0 -10 13l179 677q3 10 14 10h175q11 0 14 -10l179 -677q3 -13 -10 -13h-149zM244 237 q-2 -6 5 -6h107q6 0 5 5l-54 245q-1 6 -4 3l-2 -3z" />
<glyph unicode="&#xc1;" horiz-adv-x="605" d="M429 878q7 0 9.5 -4.5t-2.5 -10.5l-76 -101q-6 -7 -14 -7h-113q-15 0 -8 14l56 101q5 8 15 8h133zM424 0q-11 0 -13 11l-20 88q-1 4 -5 4h-168q-4 0 -5 -4l-21 -89q-3 -10 -13 -10h-147q-13 0 -10 13l179 677q3 10 14 10h175q11 0 14 -10l179 -677q3 -13 -10 -13h-149z M244 237q-2 -6 5 -6h107q6 0 5 5l-54 245q-1 6 -4 3l-2 -3z" />
<glyph unicode="&#xc2;" horiz-adv-x="605" d="M304 815q-3 5 -6 0l-29 -53q-5 -8 -15 -8h-103q-7 0 -9.5 4.5t1.5 10.5l71 105q5 8 14 8h143q9 0 14 -8l74 -105q9 -15 -8 -15h-103q-10 0 -15 8zM424 0q-11 0 -13 11l-20 88q-1 4 -5 4h-168q-4 0 -5 -4l-21 -89q-3 -10 -13 -10h-147q-13 0 -10 13l179 677q3 10 14 10 h175q11 0 14 -10l179 -677q3 -13 -10 -13h-149zM244 237q-2 -6 5 -6h107q6 0 5 5l-54 245q-1 6 -4 3l-2 -3z" />
<glyph unicode="&#xc3;" horiz-adv-x="605" d="M270 791q-21 0 -35 -20q-6 -11 -16 -4l-52 37q-8 6 -5 16q27 76 95 76q31 0 66 -23q25 -17 44 -17q20 0 34 19q7 10 16 4l51 -35q9 -6 5 -16q-36 -74 -103 -74q-25 0 -61 21q-28 16 -39 16zM424 0q-11 0 -13 11l-20 88q-1 4 -5 4h-168q-4 0 -5 -4l-21 -89q-3 -10 -13 -10 h-147q-13 0 -10 13l179 677q3 10 14 10h175q11 0 14 -10l179 -677q3 -13 -10 -13h-149zM244 237q-2 -6 5 -6h107q6 0 5 5l-54 245q-1 6 -4 3l-2 -3z" />
<glyph unicode="&#xc4;" horiz-adv-x="605" d="M208 743q-35 0 -57 22t-22 57t22 57t57 22t56.5 -22t21.5 -57t-21.5 -57t-56.5 -22zM399 743q-35 0 -57 22t-22 57t22 57t57 22t56.5 -22t21.5 -57t-21.5 -57t-56.5 -22zM424 0q-11 0 -13 11l-20 88q-1 4 -5 4h-168q-4 0 -5 -4l-21 -89q-3 -10 -13 -10h-147q-13 0 -10 13 l179 677q3 10 14 10h175q11 0 14 -10l179 -677q3 -13 -10 -13h-149zM244 237q-2 -6 5 -6h107q6 0 5 5l-54 245q-1 6 -4 3l-2 -3z" />
<glyph unicode="&#xc5;" horiz-adv-x="605" d="M302 740q-49 0 -82 33t-33 81t33 81t82 33q48 0 81 -33t33 -81t-33 -81t-81 -33zM302 897q-17 0 -29 -12.5t-12 -30.5q0 -17 12 -29t29 -12t29 12t12 29q0 18 -12 30.5t-29 12.5zM424 0q-11 0 -13 11l-20 88q-1 4 -5 4h-168q-4 0 -5 -4l-21 -89q-3 -10 -13 -10h-147 q-13 0 -10 13l179 677q3 10 14 10h175q11 0 14 -10l179 -677q3 -13 -10 -13h-149zM244 237q-2 -6 5 -6h107q6 0 5 5l-54 245q-1 6 -4 3l-2 -3z" />
<glyph unicode="&#xc6;" horiz-adv-x="877" d="M850 570q0 -12 -12 -12h-256q-5 0 -5 -5v-125q0 -5 5 -5h154q12 0 12 -12v-118q0 -12 -12 -12h-154q-5 0 -5 -5v-129q0 -5 5 -5h256q12 0 12 -12v-118q0 -12 -12 -12h-415q-12 0 -12 12v86q0 5 -5 5h-161q-4 0 -6 -4l-38 -90q-4 -9 -14 -9h-154q-15 0 -9 14l307 677 q4 9 14 9h493q12 0 12 -12v-118zM297 237q-2 -6 4 -6h105q5 0 5 5v251q0 4 -2 4t-4 -3z" />
<glyph unicode="&#xc7;" horiz-adv-x="539" d="M510 480q0 -9 -12 -9l-142 -6q-12 0 -12 11v14q0 34 -20 55t-53 21t-53 -21t-20 -55v-280q0 -34 20 -55t53 -21t53 21t20 55v14q0 11 12 11l142 -6q12 0 12 -8v-7q0 -87 -50 -145.5t-136 -72.5q-6 -2 -2 -6q49 -56 34 -111q-7 -28 -27 -44t-44.5 -18.5t-45.5 0t-38 8.5 q-11 3 -9 14l8 60q1 11 15 8q29 -9 37 18q8 30 -44 72l-6 3q-79 18 -124.5 76.5t-45.5 143.5v262q0 103 65.5 164.5t173.5 61.5t173.5 -60t65.5 -160v-8z" />
<glyph unicode="&#xc8;" horiz-adv-x="509" d="M327 782q7 -14 -8 -14h-113q-8 0 -14 7l-76 101q-5 6 -2.5 10.5t9.5 4.5h133q10 0 15 -8zM483 570q0 -12 -12 -12h-258q-5 0 -5 -5v-125q0 -5 5 -5h156q12 0 12 -12v-118q0 -12 -12 -12h-156q-5 0 -5 -5v-129q0 -5 5 -5h258q12 0 12 -12v-118q0 -12 -12 -12h-417 q-12 0 -12 12v676q0 12 12 12h417q12 0 12 -12v-118z" />
<glyph unicode="&#xc9;" horiz-adv-x="509" d="M389 891q7 0 9.5 -4.5t-2.5 -10.5l-76 -101q-6 -7 -14 -7h-113q-15 0 -8 14l56 101q5 8 15 8h133zM483 570q0 -12 -12 -12h-258q-5 0 -5 -5v-125q0 -5 5 -5h156q12 0 12 -12v-118q0 -12 -12 -12h-156q-5 0 -5 -5v-129q0 -5 5 -5h258q12 0 12 -12v-118q0 -12 -12 -12h-417 q-12 0 -12 12v676q0 12 12 12h417q12 0 12 -12v-118z" />
<glyph unicode="&#xca;" horiz-adv-x="509" d="M264 828q-3 4 -6 0l-29 -53q-5 -8 -15 -8h-103q-7 0 -9.5 4.5t1.5 10.5l71 105q5 8 14 8h143q9 0 14 -8l74 -105q9 -15 -8 -15h-103q-10 0 -15 8zM483 570q0 -12 -12 -12h-258q-5 0 -5 -5v-125q0 -5 5 -5h156q12 0 12 -12v-118q0 -12 -12 -12h-156q-5 0 -5 -5v-129 q0 -5 5 -5h258q12 0 12 -12v-118q0 -12 -12 -12h-417q-12 0 -12 12v676q0 12 12 12h417q12 0 12 -12v-118z" />
<glyph unicode="&#xcb;" horiz-adv-x="509" d="M168 756q-35 0 -57 22t-22 57t22 57t57 22t56.5 -22t21.5 -57t-21.5 -57t-56.5 -22zM359 756q-35 0 -57 22t-22 57t22 57t57 22t56.5 -22t21.5 -57t-21.5 -57t-56.5 -22zM483 570q0 -12 -12 -12h-258q-5 0 -5 -5v-125q0 -5 5 -5h156q12 0 12 -12v-118q0 -12 -12 -12h-156 q-5 0 -5 -5v-129q0 -5 5 -5h258q12 0 12 -12v-118q0 -12 -12 -12h-417q-12 0 -12 12v676q0 12 12 12h417q12 0 12 -12v-118z" />
<glyph unicode="&#xcc;" horiz-adv-x="250" d="M190 782q7 -14 -8 -14h-113q-8 0 -14 7l-76 101q-5 6 -2.5 10.5t9.5 4.5h133q10 0 15 -8zM54 0q-12 0 -12 12v676q0 12 12 12h142q12 0 12 -12v-676q0 -12 -12 -12h-142z" />
<glyph unicode="&#xcd;" horiz-adv-x="250" d="M56 768q-15 0 -8 14l56 101q5 8 15 8h133q7 0 9.5 -4.5t-2.5 -10.5l-76 -101q-6 -7 -14 -7h-113zM54 0q-12 0 -12 12v676q0 12 12 12h142q12 0 12 -12v-676q0 -12 -12 -12h-142z" />
<glyph unicode="&#xce;" horiz-adv-x="250" d="M-26 767q-7 0 -9.5 4.5t1.5 10.5l71 105q5 8 14 8h143q9 0 14 -8l74 -105q9 -15 -8 -15h-103q-10 0 -15 8l-29 53q-3 4 -6 0l-29 -53q-5 -8 -15 -8h-103zM54 0q-12 0 -12 12v676q0 12 12 12h142q12 0 12 -12v-676q0 -12 -12 -12h-142z" />
<glyph unicode="&#xcf;" horiz-adv-x="250" d="M31 756q-35 0 -57 22t-22 57t22 57t57 22t56.5 -22t21.5 -57t-21.5 -57t-56.5 -22zM222 756q-35 0 -57 22t-22 57t22 57t57 22t56.5 -22t21.5 -57t-21.5 -57t-56.5 -22zM54 0q-12 0 -12 12v676q0 12 12 12h142q12 0 12 -12v-676q0 -12 -12 -12h-142z" />
<glyph unicode="&#xd0;" horiz-adv-x="585" d="M313 700q107 0 172.5 -57t65.5 -151v-284q0 -94 -65.5 -151t-172.5 -57h-223q-12 0 -12 12v295q0 5 -5 5h-19q-12 0 -12 12v78q0 12 12 12h19q5 0 5 5v269q0 12 12 12h223zM385 228v245q0 38 -19.5 61.5t-51.5 23.5h-65q-5 0 -5 -5v-134q0 -5 5 -5h46q12 0 12 -12v-78 q0 -12 -12 -12h-46q-5 0 -5 -5v-160q0 -5 5 -5l66 1q30 0 49.5 23t20.5 62z" />
<glyph unicode="&#xd1;" horiz-adv-x="588" d="M356 767q-25 0 -61 21q-28 16 -39 16q-21 0 -35 -20q-6 -11 -16 -4l-52 37q-8 6 -5 16q27 76 95 76q31 0 66 -23q25 -17 44 -17q20 0 34 19q7 10 16 4l51 -35q10 -7 1 -23q-36 -67 -99 -67zM55 0q-12 0 -12 12v676q0 12 12 12h144q10 0 14 -9l163 -362q4 -5 6 1l-1 358 q0 12 12 12h140q12 0 12 -12v-676q0 -12 -12 -12h-145q-10 0 -14 9l-163 366q-1 3 -3.5 2.5t-2.5 -4.5l2 -361q0 -12 -12 -12h-140z" />
<glyph unicode="&#xd2;" horiz-adv-x="550" d="M340 776q7 -14 -8 -14h-113q-8 0 -14 7l-76 101q-5 6 -2.5 10.5t9.5 4.5h133q10 0 15 -8zM275 -10q-110 0 -176.5 64t-66.5 170v252q0 105 66.5 168.5t176.5 63.5t176.5 -63.5t66.5 -168.5v-252q0 -106 -66.5 -170t-176.5 -64zM275 133q35 0 56 23.5t21 61.5v262 q0 38 -21.5 62t-55.5 24q-35 0 -56 -23.5t-21 -62.5v-262q0 -38 21 -61.5t56 -23.5z" />
<glyph unicode="&#xd3;" horiz-adv-x="550" d="M206 762q-15 0 -8 14l56 101q5 8 15 8h133q7 0 9.5 -4.5t-2.5 -10.5l-76 -101q-6 -7 -14 -7h-113zM275 -10q-110 0 -176.5 64t-66.5 170v252q0 105 66.5 168.5t176.5 63.5t176.5 -63.5t66.5 -168.5v-252q0 -106 -66.5 -170t-176.5 -64zM275 133q35 0 56 23.5t21 61.5v262 q0 38 -21.5 62t-55.5 24q-35 0 -56 -23.5t-21 -62.5v-262q0 -38 21 -61.5t56 -23.5z" />
<glyph unicode="&#xd4;" horiz-adv-x="550" d="M124 761q-7 0 -9.5 4.5t1.5 10.5l71 105q5 8 14 8h143q9 0 14 -8l74 -105q9 -15 -8 -15h-103q-10 0 -15 8l-29 53q-3 4 -6 0l-29 -53q-5 -8 -15 -8h-103zM275 -10q-110 0 -176.5 64t-66.5 170v252q0 105 66.5 168.5t176.5 63.5t176.5 -63.5t66.5 -168.5v-252 q0 -106 -66.5 -170t-176.5 -64zM275 133q35 0 56 23.5t21 61.5v262q0 38 -21.5 62t-55.5 24q-35 0 -56 -23.5t-21 -62.5v-262q0 -38 21 -61.5t56 -23.5z" />
<glyph unicode="&#xd5;" horiz-adv-x="550" d="M343 761q-25 0 -61 21q-28 16 -39 16q-21 0 -35 -20q-6 -11 -16 -4l-52 37q-8 6 -5 16q27 76 95 76q31 0 66 -23q25 -17 44 -17q20 0 34 19q7 10 16 4l51 -35q10 -7 1 -23q-36 -67 -99 -67zM275 -10q-110 0 -176.5 64t-66.5 170v252q0 105 66.5 168.5t176.5 63.5 t176.5 -63.5t66.5 -168.5v-252q0 -106 -66.5 -170t-176.5 -64zM275 133q35 0 56 23.5t21 61.5v262q0 38 -21.5 62t-55.5 24q-35 0 -56 -23.5t-21 -62.5v-262q0 -38 21 -61.5t56 -23.5z" />
<glyph unicode="&#xd6;" horiz-adv-x="550" d="M181 750q-35 0 -57 22t-22 57t22 57t57 22t56.5 -22t21.5 -57t-21.5 -57t-56.5 -22zM372 750q-35 0 -57 22t-22 57t22 57t57 22t56.5 -22t21.5 -57t-21.5 -57t-56.5 -22zM275 -10q-110 0 -176.5 64t-66.5 170v252q0 105 66.5 168.5t176.5 63.5t176.5 -63.5t66.5 -168.5 v-252q0 -106 -66.5 -170t-176.5 -64zM275 133q35 0 56 23.5t21 61.5v262q0 38 -21.5 62t-55.5 24q-35 0 -56 -23.5t-21 -62.5v-262q0 -38 21 -61.5t56 -23.5z" />
<glyph unicode="&#xd7;" horiz-adv-x="432" d="M400 418q8 -8 0 -16l-87 -87q-4 -4 0 -8l87 -87q8 -8 0 -16l-78 -78q-8 -8 -16 0l-87 87q-4 4 -8 0l-87 -87q-8 -8 -16 0l-78 78q-8 8 0 16l87 87q4 4 0 8l-87 87q-8 8 0 16l78 78q8 8 16 0l87 -87q4 -4 8 0l87 87q8 8 16 0z" />
<glyph unicode="&#xd8;" horiz-adv-x="556" d="M456 647q-2 -4 1 -7q63 -63 63 -164v-252q0 -106 -66.5 -170t-176.5 -64q-67 0 -118 24q-5 2 -6 -2l-18 -37q-5 -9 -14 -9h-54q-15 0 -9 14l35 75q2 4 -1 7q-58 64 -58 162v252q0 105 66.5 168.5t176.5 63.5q63 0 112 -21q5 -2 6 2l18 37q5 9 14 9h55q15 0 9 -14z M200 480v-187q0 -4 2 -4.5t4 2.5l120 252q2 4 -1 7q-21 16 -48 16q-35 0 -56 -23.5t-21 -62.5zM277 133q35 0 56 23.5t21 61.5v201q0 4 -2 4.5t-4 -2.5l-124 -261q-2 -4 0 -7q20 -20 53 -20z" />
<glyph unicode="&#xd9;" horiz-adv-x="551" d="M341 782q7 -14 -8 -14h-113q-8 0 -14 7l-76 101q-5 6 -2.5 10.5t9.5 4.5h133q10 0 15 -8zM276 -8q-107 0 -172.5 63t-65.5 166v467q0 12 12 12h142q12 0 12 -12v-475q0 -35 20 -57t52 -22t51.5 22t19.5 57v475q0 12 12 12h142q12 0 12 -12v-467q0 -104 -65 -166.5 t-172 -62.5z" />
<glyph unicode="&#xda;" horiz-adv-x="551" d="M207 768q-15 0 -8 14l56 101q5 8 15 8h133q7 0 9.5 -4.5t-2.5 -10.5l-76 -101q-6 -7 -14 -7h-113zM276 -8q-107 0 -172.5 63t-65.5 166v467q0 12 12 12h142q12 0 12 -12v-475q0 -35 20 -57t52 -22t51.5 22t19.5 57v475q0 12 12 12h142q12 0 12 -12v-467 q0 -104 -65 -166.5t-172 -62.5z" />
<glyph unicode="&#xdb;" horiz-adv-x="551" d="M125 767q-7 0 -9.5 4.5t1.5 10.5l71 105q5 8 14 8h143q9 0 14 -8l74 -105q9 -15 -8 -15h-103q-10 0 -15 8l-29 53q-3 4 -6 0l-29 -53q-5 -8 -15 -8h-103zM276 -8q-107 0 -172.5 63t-65.5 166v467q0 12 12 12h142q12 0 12 -12v-475q0 -35 20 -57t52 -22t51.5 22t19.5 57 v475q0 12 12 12h142q12 0 12 -12v-467q0 -104 -65 -166.5t-172 -62.5z" />
<glyph unicode="&#xdc;" horiz-adv-x="551" d="M182 756q-35 0 -57 22t-22 57t22 57t57 22t56.5 -22t21.5 -57t-21.5 -57t-56.5 -22zM373 756q-35 0 -57 22t-22 57t22 57t57 22t56.5 -22t21.5 -57t-21.5 -57t-56.5 -22zM276 -8q-107 0 -172.5 63t-65.5 166v467q0 12 12 12h142q12 0 12 -12v-475q0 -35 20 -57t52 -22 t51.5 22t19.5 57v475q0 12 12 12h142q12 0 12 -12v-467q0 -104 -65 -166.5t-172 -62.5z" />
<glyph unicode="&#xdd;" horiz-adv-x="564" d="M213 755q-15 0 -8 14l56 101q5 8 15 8h133q7 0 9.5 -4.5t-2.5 -10.5l-76 -101q-6 -7 -14 -7h-113zM210 2q-12 0 -12 12v241q0 3 -1 6l-173 425q-5 14 9 14h153q10 0 13 -10l80 -237q1 -3 3 -3t3 3l80 237q3 10 13 10h152q14 0 9 -14l-174 -425q-1 -3 -1 -6v-241 q0 -12 -12 -12h-142z" />
<glyph unicode="&#xde;" horiz-adv-x="529" d="M297 567q95 0 154.5 -61t59.5 -159q0 -95 -60.5 -154t-153.5 -59h-87q-5 0 -5 -5v-117q0 -12 -12 -12h-142q-12 0 -12 12v676q0 12 12 12h142q12 0 12 -12v-116q0 -5 5 -5h87zM269 266q35 0 55.5 20t20.5 58q0 39 -20.5 59.5t-55.5 20.5h-59q-5 0 -5 -5v-148q0 -5 5 -5 h59z" />
<glyph unicode="&#xdf;" horiz-adv-x="544" d="M49 1q-12 0 -12 12v462q0 111 60 172t169 61t172.5 -52.5t64.5 -141.5q0 -87 -64 -129q-6 -3 -1 -6q77 -51 77 -170q0 -100 -65 -154.5t-190 -54.5h-10q-12 0 -12 12v117q0 12 12 12l22 1q37 0 58 22.5t21 62.5q0 41 -20 63t-56 23h-22q-12 0 -12 12v105q0 12 12 12h23 q28 0 45.5 17.5t16.5 45.5q0 28 -16 45t-49 17q-29 0 -49.5 -19t-20.5 -52v-484q0 -12 -12 -12z" />
<glyph unicode="&#xe0;" horiz-adv-x="496" d="M310 594q7 -14 -8 -14h-113q-8 0 -14 7l-76 101q-5 6 -2.5 10.5t9.5 4.5h133q10 0 15 -8zM243 525q97 0 159 -48t62 -122v-343q0 -12 -12 -12h-142q-12 0 -12 12v28q0 9 -6 1q-36 -48 -116 -49q-69 0 -113.5 35t-44.5 117q0 87 52.5 124t153.5 37h69q5 0 5 5v22 q0 23 -14.5 37t-39.5 14q-38 0 -48 -31q-3 -11 -13 -10l-145 9q-12 1 -12 11q5 73 65 118t152 45zM232 113q27 0 46.5 15.5t19.5 40.5v30q0 5 -5 5h-45q-62 0 -62 -48q0 -20 12.5 -31.5t33.5 -11.5z" />
<glyph unicode="&#xe1;" horiz-adv-x="496" d="M372 703q7 0 9.5 -4.5t-2.5 -10.5l-76 -101q-6 -7 -14 -7h-113q-15 0 -8 14l56 101q5 8 15 8h133zM243 525q97 0 159 -48t62 -122v-343q0 -12 -12 -12h-142q-12 0 -12 12v28q0 9 -6 1q-36 -48 -116 -49q-69 0 -113.5 35t-44.5 117q0 87 52.5 124t153.5 37h69q5 0 5 5v22 q0 23 -14.5 37t-39.5 14q-38 0 -48 -31q-3 -11 -13 -10l-145 9q-12 1 -12 11q5 73 65 118t152 45zM232 113q27 0 46.5 15.5t19.5 40.5v30q0 5 -5 5h-45q-62 0 -62 -48q0 -20 12.5 -31.5t33.5 -11.5z" />
<glyph unicode="&#xe2;" horiz-adv-x="496" d="M94 579q-7 0 -9.5 4.5t1.5 10.5l71 105q5 8 14 8h143q9 0 14 -8l74 -105q9 -15 -8 -15h-103q-10 0 -15 8l-29 53q-3 4 -6 0l-29 -53q-5 -8 -15 -8h-103zM243 525q97 0 159 -48t62 -122v-343q0 -12 -12 -12h-142q-12 0 -12 12v28q0 9 -6 1q-36 -48 -116 -49 q-69 0 -113.5 35t-44.5 117q0 87 52.5 124t153.5 37h69q5 0 5 5v22q0 23 -14.5 37t-39.5 14q-38 0 -48 -31q-3 -11 -13 -10l-145 9q-12 1 -12 11q5 73 65 118t152 45zM232 113q27 0 46.5 15.5t19.5 40.5v30q0 5 -5 5h-45q-62 0 -62 -48q0 -20 12.5 -31.5t33.5 -11.5z" />
<glyph unicode="&#xe3;" horiz-adv-x="496" d="M313 579q-25 0 -61 21q-28 16 -39 16q-21 0 -35 -20q-6 -11 -16 -4l-52 37q-8 6 -5 16q27 76 95 76q31 0 66 -23q25 -17 44 -17q20 0 34 19q7 10 16 4l51 -35q10 -7 1 -23q-36 -67 -99 -67zM243 525q97 0 159 -48t62 -122v-343q0 -12 -12 -12h-142q-12 0 -12 12v28 q0 9 -6 1q-36 -48 -116 -49q-69 0 -113.5 35t-44.5 117q0 87 52.5 124t153.5 37h69q5 0 5 5v22q0 23 -14.5 37t-39.5 14q-38 0 -48 -31q-3 -11 -13 -10l-145 9q-12 1 -12 11q5 73 65 118t152 45zM232 113q27 0 46.5 15.5t19.5 40.5v30q0 5 -5 5h-45q-62 0 -62 -48 q0 -20 12.5 -31.5t33.5 -11.5z" />
<glyph unicode="&#xe4;" horiz-adv-x="496" d="M151 568q-35 0 -57 22t-22 57t22 57t57 22t56.5 -22t21.5 -57t-21.5 -57t-56.5 -22zM342 568q-35 0 -57 22t-22 57t22 57t57 22t56.5 -22t21.5 -57t-21.5 -57t-56.5 -22zM243 525q97 0 159 -48t62 -122v-343q0 -12 -12 -12h-142q-12 0 -12 12v28q0 9 -6 1 q-36 -48 -116 -49q-69 0 -113.5 35t-44.5 117q0 87 52.5 124t153.5 37h69q5 0 5 5v22q0 23 -14.5 37t-39.5 14q-38 0 -48 -31q-3 -11 -13 -10l-145 9q-12 1 -12 11q5 73 65 118t152 45zM232 113q27 0 46.5 15.5t19.5 40.5v30q0 5 -5 5h-45q-62 0 -62 -48q0 -20 12.5 -31.5 t33.5 -11.5z" />
<glyph unicode="&#xe5;" horiz-adv-x="496" d="M245 565q-49 0 -82 33t-33 81t33 81t82 33q48 0 81 -33t33 -81t-33 -81t-81 -33zM245 638q17 0 29 12t12 29q0 18 -12 30.5t-29 12.5t-29 -12.5t-12 -30.5q0 -17 12 -29t29 -12zM243 525q97 0 159 -48t62 -122v-343q0 -12 -12 -12h-142q-12 0 -12 12v28q0 9 -6 1 q-36 -48 -116 -49q-69 0 -113.5 35t-44.5 117q0 87 52.5 124t153.5 37h69q5 0 5 5v22q0 23 -14.5 37t-39.5 14q-38 0 -48 -31q-3 -11 -13 -10l-145 9q-12 1 -12 11q5 73 65 118t152 45zM232 113q27 0 46.5 15.5t19.5 40.5v30q0 5 -5 5h-45q-62 0 -62 -48q0 -20 12.5 -31.5 t33.5 -11.5z" />
<glyph unicode="&#xe6;" horiz-adv-x="770" d="M197 -8q-36 0 -66 7.5t-56.5 24t-41.5 48.5t-15 76q0 82 52 118.5t152 36.5h70q5 0 5 5v23q0 24 -14.5 38t-39.5 14q-40 0 -50 -30q-3 -11 -13 -10l-144 10q-12 2 -11 13q5 70 65 114.5t144 44.5q93 0 147 -58q4 -4 7 0q52 58 143 58q79 0 137 -45t70 -118q9 -61 9 -144 q0 -12 -12 -12h-259q-5 0 -5 -5q0 -9 1 -17q9 -49 69 -49q43 0 67 33q6 10 16 5l101 -43q11 -5 7 -15q-45 -123 -190 -123q-58 0 -101 20t-57 48q-4 6 -4 3q-16 -30 -66 -50.5t-117 -20.5zM470 308q0 -5 5 -5h99q5 0 5 5l-3 28q-4 21 -17.5 34t-34.5 13q-20 0 -34 -13 t-17 -34q-3 -14 -3 -28zM233 110q25 0 44.5 15.5t19.5 40.5v35q0 5 -5 5h-45q-29 0 -45.5 -13t-16.5 -37q0 -21 13 -33.5t35 -12.5z" />
<glyph unicode="&#xe7;" horiz-adv-x="494" d="M304 179q2 10 2 15q2 13 13 11l141 -12q12 -2 11 -13q0 -9 -2 -23q-10 -64 -50.5 -105t-105.5 -55q-8 0 -2 -6q50 -55 35 -112q-7 -28 -27 -44t-44.5 -18.5t-45.5 0t-38 8.5q-11 3 -9 14l8 60q1 11 15 8q29 -9 37 18q8 29 -41 70l-6 3q-65 12 -106.5 53t-52.5 105 q-9 45 -9 104q0 57 9 104q14 74 71.5 117.5t145.5 43.5q85 0 143 -42t72 -113q2 -10 4 -32q1 -11 -11 -13l-141 -14q-10 -1 -12 8v6l-3 16q-10 42 -53 42q-42 0 -53 -47q-5 -25 -5 -76q0 -56 6 -81q10 -45 52 -45q45 0 52 45z" />
<glyph unicode="&#xe8;" horiz-adv-x="500" d="M315 595q7 -14 -8 -14h-113q-8 0 -14 7l-76 101q-5 6 -2.5 10.5t9.5 4.5h133q10 0 15 -8zM265 134q42 1 61 38q4 10 15 8l117 -22q12 -3 9 -14q-20 -71 -75 -111.5t-134 -40.5q-82 0 -138.5 42.5t-75.5 110.5q-15 51 -15 126q0 39 4 67q11 89 66.5 138.5t153.5 49.5 q194 0 218 -204q5 -50 5 -97q0 -12 -12 -12h-264q-5 0 -5 -5q2 -20 4 -27q5 -22 22 -35t44 -12zM250 383q-40 0 -50 -46q-2 -9 -4 -27q-2 -5 4 -5h103q5 0 5 5q-2 18 -4 26q-9 47 -54 47z" />
<glyph unicode="&#xe9;" horiz-adv-x="500" d="M377 704q7 0 9.5 -4.5t-2.5 -10.5l-76 -101q-6 -7 -14 -7h-113q-15 0 -8 14l56 101q5 8 15 8h133zM265 134q42 1 61 38q4 10 15 8l117 -22q12 -3 9 -14q-20 -71 -75 -111.5t-134 -40.5q-82 0 -138.5 42.5t-75.5 110.5q-15 51 -15 126q0 39 4 67q11 89 66.5 138.5 t153.5 49.5q194 0 218 -204q5 -50 5 -97q0 -12 -12 -12h-264q-5 0 -5 -5q2 -20 4 -27q5 -22 22 -35t44 -12zM250 383q-40 0 -50 -46q-2 -9 -4 -27q-2 -5 4 -5h103q5 0 5 5q-2 18 -4 26q-9 47 -54 47z" />
<glyph unicode="&#xea;" horiz-adv-x="500" d="M252 641q-3 5 -6 0l-29 -53q-5 -8 -15 -8h-103q-7 0 -9.5 4.5t1.5 10.5l71 105q5 8 14 8h143q9 0 14 -8l74 -105q9 -15 -8 -15h-103q-10 0 -15 8zM265 134q42 1 61 38q4 10 15 8l117 -22q12 -3 9 -14q-20 -71 -75 -111.5t-134 -40.5q-82 0 -138.5 42.5t-75.5 110.5 q-15 51 -15 126q0 39 4 67q11 89 66.5 138.5t153.5 49.5q194 0 218 -204q5 -50 5 -97q0 -12 -12 -12h-264q-5 0 -5 -5q2 -20 4 -27q5 -22 22 -35t44 -12zM250 383q-40 0 -50 -46q-2 -9 -4 -27q-2 -5 4 -5h103q5 0 5 5q-2 18 -4 26q-9 47 -54 47z" />
<glyph unicode="&#xeb;" horiz-adv-x="500" d="M156 569q-35 0 -57 22t-22 57t22 57t57 22t56.5 -22t21.5 -57t-21.5 -57t-56.5 -22zM347 569q-35 0 -57 22t-22 57t22 57t57 22t56.5 -22t21.5 -57t-21.5 -57t-56.5 -22zM265 134q42 1 61 38q4 10 15 8l117 -22q12 -3 9 -14q-20 -71 -75 -111.5t-134 -40.5 q-82 0 -138.5 42.5t-75.5 110.5q-15 51 -15 126q0 39 4 67q11 89 66.5 138.5t153.5 49.5q194 0 218 -204q5 -50 5 -97q0 -12 -12 -12h-264q-5 0 -5 -5q2 -20 4 -27q5 -22 22 -35t44 -12zM250 383q-40 0 -50 -46q-2 -9 -4 -27q-2 -5 4 -5h103q5 0 5 5q-2 18 -4 26 q-9 47 -54 47z" />
<glyph unicode="&#xec;" horiz-adv-x="238" d="M181 598q7 -14 -8 -14h-113q-8 0 -14 7l-76 101q-5 6 -2.5 10.5t9.5 4.5h133q10 0 15 -8zM47 0q-12 0 -12 12v493q0 12 12 12h142q12 0 12 -12v-493q0 -12 -12 -12h-142z" />
<glyph unicode="&#xed;" horiz-adv-x="238" d="M47 584q-15 0 -8 14l56 101q5 8 15 8h133q7 0 9.5 -4.5t-2.5 -10.5l-76 -101q-6 -7 -14 -7h-113zM47 0q-12 0 -12 12v493q0 12 12 12h142q12 0 12 -12v-493q0 -12 -12 -12h-142z" />
<glyph unicode="&#xee;" horiz-adv-x="238" d="M-35 583q-7 0 -9.5 4.5t1.5 10.5l71 105q5 8 14 8h143q9 0 14 -8l74 -105q9 -15 -8 -15h-103q-10 0 -15 8l-29 53q-3 4 -6 0l-29 -53q-5 -8 -15 -8h-103zM47 0q-12 0 -12 12v493q0 12 12 12h142q12 0 12 -12v-493q0 -12 -12 -12h-142z" />
<glyph unicode="&#xef;" horiz-adv-x="238" d="M22 572q-35 0 -57 22t-22 57t22 57t57 22t56.5 -22t21.5 -57t-21.5 -57t-56.5 -22zM213 572q-35 0 -57 22t-22 57t22 57t57 22t56.5 -22t21.5 -57t-21.5 -57t-56.5 -22zM47 0q-12 0 -12 12v493q0 12 12 12h142q12 0 12 -12v-493q0 -12 -12 -12h-142z" />
<glyph unicode="&#xf0;" horiz-adv-x="501" d="M460 343q8 -53 8 -107q0 -42 -9 -89q-14 -72 -70 -113.5t-144 -41.5q-87 0 -144 41.5t-70 113.5q-9 36 -9 89q0 47 9 89q6 53 42.5 89.5t89.5 44.5q66 16 111 -2q3 -1 4 0t0 4q-10 27 -31 64q-2 5 -6 3l-90 -22q-11 -3 -15 9l-13 53q-3 11 9 15l61 15q7 2 2 7 q-33 46 -61 80q-5 6 -3 10.5t10 4.5h142q10 0 14 -7q7 -11 20.5 -28.5t19.5 -25.5q2 -5 6 -3l80 20q11 3 15 -9l12 -55q3 -12 -8 -15l-51 -13q-6 -2 -3 -7q62 -108 72 -214zM295 171q6 31 6 63q0 30 -6 61q-5 20 -18 32.5t-32 12.5q-41 0 -51 -45q-6 -33 -6 -61q0 -21 6 -63 q10 -46 51 -46q40 0 50 46z" />
<glyph unicode="&#xf1;" d="M225 609q-21 0 -35 -20q-7 -12 -16 -4l-51 37q-8 6 -5 16q27 76 94 76q30 0 65 -23q25 -17 44 -17t33 19q6 11 16 4l50 -35q9 -6 5 -16q-18 -38 -45.5 -56t-56.5 -18q-24 0 -60 21q-28 16 -38 16zM312 525q74 0 116 -47.5t42 -132.5v-333q0 -12 -12 -12h-142 q-12 0 -12 12v309q0 28 -13.5 45t-36.5 17q-24 0 -38 -16.5t-14 -45.5v-309q0 -12 -12 -12h-142q-12 0 -12 12v493q0 12 12 12h142q12 0 12 -12v-28q0 -3 2.5 -3.5t4.5 2.5q35 49 103 49z" />
<glyph unicode="&#xf2;" horiz-adv-x="505" d="M318 594q7 -14 -8 -14h-113q-8 0 -14 7l-76 101q-5 6 -2.5 10.5t9.5 4.5h133q10 0 15 -8zM253 -8q-93 0 -151 46.5t-69 128.5q-6 39 -6 92q0 59 7 95q11 79 69 125t150 46t149.5 -46t68.5 -124q7 -38 7 -95q0 -47 -5 -90q-11 -83 -69 -130.5t-151 -47.5zM253 134 q22 0 36.5 15.5t19.5 41.5q3 33 3 69q0 26 -4 68q-4 26 -18.5 40.5t-36.5 14.5q-23 0 -37.5 -15t-18.5 -40q-3 -21 -3 -68q0 -48 2 -69q5 -26 19.5 -41.5t37.5 -15.5z" />
<glyph unicode="&#xf3;" horiz-adv-x="505" d="M184 580q-15 0 -8 14l56 101q5 8 15 8h133q7 0 9.5 -4.5t-2.5 -10.5l-76 -101q-6 -7 -14 -7h-113zM253 -8q-93 0 -151 46.5t-69 128.5q-6 39 -6 92q0 59 7 95q11 79 69 125t150 46t149.5 -46t68.5 -124q7 -38 7 -95q0 -47 -5 -90q-11 -83 -69 -130.5t-151 -47.5zM253 134 q22 0 36.5 15.5t19.5 41.5q3 33 3 69q0 26 -4 68q-4 26 -18.5 40.5t-36.5 14.5q-23 0 -37.5 -15t-18.5 -40q-3 -21 -3 -68q0 -48 2 -69q5 -26 19.5 -41.5t37.5 -15.5z" />
<glyph unicode="&#xf4;" horiz-adv-x="505" d="M102 579q-7 0 -9.5 4.5t1.5 10.5l71 105q5 8 14 8h143q9 0 14 -8l74 -105q9 -15 -8 -15h-103q-10 0 -15 8l-29 53q-3 4 -6 0l-29 -53q-5 -8 -15 -8h-103zM253 -8q-93 0 -151 46.5t-69 128.5q-6 39 -6 92q0 59 7 95q11 79 69 125t150 46t149.5 -46t68.5 -124q7 -38 7 -95 q0 -47 -5 -90q-11 -83 -69 -130.5t-151 -47.5zM253 134q22 0 36.5 15.5t19.5 41.5q3 33 3 69q0 26 -4 68q-4 26 -18.5 40.5t-36.5 14.5q-23 0 -37.5 -15t-18.5 -40q-3 -21 -3 -68q0 -48 2 -69q5 -26 19.5 -41.5t37.5 -15.5z" />
<glyph unicode="&#xf5;" horiz-adv-x="505" d="M321 579q-25 0 -61 21q-28 16 -39 16q-21 0 -35 -20q-6 -11 -16 -4l-52 37q-8 6 -5 16q27 76 95 76q31 0 66 -23q25 -17 44 -17q20 0 34 19q7 10 16 4l51 -35q10 -7 1 -23q-36 -67 -99 -67zM253 -8q-93 0 -151 46.5t-69 128.5q-6 39 -6 92q0 59 7 95q11 79 69 125t150 46 t149.5 -46t68.5 -124q7 -38 7 -95q0 -47 -5 -90q-11 -83 -69 -130.5t-151 -47.5zM253 134q22 0 36.5 15.5t19.5 41.5q3 33 3 69q0 26 -4 68q-4 26 -18.5 40.5t-36.5 14.5q-23 0 -37.5 -15t-18.5 -40q-3 -21 -3 -68q0 -48 2 -69q5 -26 19.5 -41.5t37.5 -15.5z" />
<glyph unicode="&#xf6;" horiz-adv-x="505" d="M159 568q-35 0 -57 22t-22 57t22 57t57 22t56.5 -22t21.5 -57t-21.5 -57t-56.5 -22zM350 568q-35 0 -57 22t-22 57t22 57t57 22t56.5 -22t21.5 -57t-21.5 -57t-56.5 -22zM253 -8q-93 0 -151 46.5t-69 128.5q-6 39 -6 92q0 59 7 95q11 79 69 125t150 46t149.5 -46 t68.5 -124q7 -38 7 -95q0 -47 -5 -90q-11 -83 -69 -130.5t-151 -47.5zM253 134q22 0 36.5 15.5t19.5 41.5q3 33 3 69q0 26 -4 68q-4 26 -18.5 40.5t-36.5 14.5q-23 0 -37.5 -15t-18.5 -40q-3 -21 -3 -68q0 -48 2 -69q5 -26 19.5 -41.5t37.5 -15.5z" />
<glyph unicode="&#xf7;" horiz-adv-x="459" d="M230 408q-32 0 -53.5 22t-21.5 53q0 30 22 51.5t53 21.5q30 0 52 -21.5t22 -51.5q0 -31 -22 -53t-52 -22zM35 240q-12 0 -12 12v109q0 12 12 12h389q12 0 12 -12v-109q0 -12 -12 -12h-389zM230 62q-31 0 -53 22t-22 53q0 30 22 52t53 22q30 0 52 -22t22 -52 q0 -31 -22 -53t-52 -22z" />
<glyph unicode="&#xf8;" horiz-adv-x="509" d="M474 355q7 -38 7 -95q0 -47 -5 -90q-11 -83 -69 -130.5t-151 -47.5q-62 0 -109 21q-4 1 -6 -2l-25 -40q-7 -11 -17 -3l-37 26q-9 6 -3 17l26 40q2 4 -1 7q-39 43 -48 109q-6 39 -6 92q0 59 7 95q11 79 69 125t150 46q65 0 109 -22q5 -2 7 2l25 41q7 11 17 3l36 -25 q10 -7 4 -17l-27 -42q-2 -4 1 -7q37 -44 46 -103zM197 260v-20q0 -4 2 -4t4 3l82 130q4 4 -1 7q-14 7 -28 7q-23 0 -37.5 -15t-18.5 -40q-3 -21 -3 -68zM312 191q3 33 3 69v16q0 3 -2.5 3.5t-4.5 -2.5l-80 -129q-2 -5 1 -7q14 -7 27 -7q22 0 36.5 15.5t19.5 41.5z" />
<glyph unicode="&#xf9;" d="M314 586q7 -14 -8 -14h-113q-8 0 -14 7l-76 101q-5 6 -2.5 10.5t9.5 4.5h133q10 0 15 -8zM300 505q0 12 12 12h142q12 0 12 -12v-493q0 -12 -12 -12h-142q-12 0 -12 12v24q0 9 -6 1q-34 -45 -106 -45q-68 0 -111.5 42.5t-43.5 124.5v346q0 12 12 12h142q12 0 12 -12v-309 q0 -29 13 -45t37 -16q21 0 34.5 12.5t16.5 35.5v322z" />
<glyph unicode="&#xfa;" d="M376 695q7 0 9.5 -4.5t-2.5 -10.5l-76 -101q-6 -7 -14 -7h-113q-15 0 -8 14l56 101q5 8 15 8h133zM300 505q0 12 12 12h142q12 0 12 -12v-493q0 -12 -12 -12h-142q-12 0 -12 12v24q0 9 -6 1q-34 -45 -106 -45q-68 0 -111.5 42.5t-43.5 124.5v346q0 12 12 12h142 q12 0 12 -12v-309q0 -29 13 -45t37 -16q21 0 34.5 12.5t16.5 35.5v322z" />
<glyph unicode="&#xfb;" d="M251 632q-3 4 -6 0l-29 -53q-5 -8 -15 -8h-103q-7 0 -9.5 4.5t1.5 10.5l71 105q5 8 14 8h143q9 0 14 -8l74 -105q9 -15 -8 -15h-103q-10 0 -15 8zM300 505q0 12 12 12h142q12 0 12 -12v-493q0 -12 -12 -12h-142q-12 0 -12 12v24q0 9 -6 1q-34 -45 -106 -45 q-68 0 -111.5 42.5t-43.5 124.5v346q0 12 12 12h142q12 0 12 -12v-309q0 -29 13 -45t37 -16q21 0 34.5 12.5t16.5 35.5v322z" />
<glyph unicode="&#xfc;" d="M155 560q-35 0 -57 22t-22 57t22 57t57 22t56.5 -22t21.5 -57t-21.5 -57t-56.5 -22zM346 560q-35 0 -57 22t-22 57t22 57t57 22t56.5 -22t21.5 -57t-21.5 -57t-56.5 -22zM300 505q0 12 12 12h142q12 0 12 -12v-493q0 -12 -12 -12h-142q-12 0 -12 12v24q0 9 -6 1 q-34 -45 -106 -45q-68 0 -111.5 42.5t-43.5 124.5v346q0 12 12 12h142q12 0 12 -12v-309q0 -29 13 -45t37 -16q21 0 34.5 12.5t16.5 35.5v322z" />
<glyph unicode="&#xfd;" horiz-adv-x="481" d="M171 578q-15 0 -8 14l56 101q5 8 15 8h133q7 0 9.5 -4.5t-2.5 -10.5l-76 -101q-6 -7 -14 -7h-113zM42 -199q-7 0 -7 12v112q0 12 5 12h5q59 0 84 12t28 48q0 3 -1 6l-142 501q-3 13 10 13h152q12 0 13 -11l49 -268q1 -3 3 -3t3 3l48 268q1 11 13 11l152 -1q13 0 10 -13 l-148 -513q-18 -57 -34 -88t-45.5 -56.5t-75 -35t-116.5 -9.5h-6z" />
<glyph unicode="&#xfe;" horiz-adv-x="499" d="M460 366q9 -41 9 -99q0 -68 -9 -110q-35 -165 -157 -165q-60 0 -96 33q-6 6 -6 -3v-210q0 -12 -12 -12h-142q-12 0 -12 12v876q0 12 12 12h142q12 0 12 -12v-191q0 -8 6 -2q34 30 95 30q127 0 158 -159zM298 187q5 29 5 73q0 51 -6 74q-11 49 -49 49q-35 0 -46 -39 q-1 -2 -1 -6v-157q0 -4 1 -6q12 -41 46 -41q41 0 50 53z" />
<glyph unicode="&#xff;" horiz-adv-x="481" d="M146 566q-35 0 -57 22t-22 57t22 57t57 22t56.5 -22t21.5 -57t-21.5 -57t-56.5 -22zM337 566q-35 0 -57 22t-22 57t22 57t57 22t56.5 -22t21.5 -57t-21.5 -57t-56.5 -22zM42 -199q-7 0 -7 12v112q0 12 5 12h5q59 0 84 12t28 48q0 3 -1 6l-142 501q-3 13 10 13h152 q12 0 13 -11l49 -268q1 -3 3 -3t3 3l48 268q1 11 13 11l152 -1q13 0 10 -13l-148 -513q-18 -57 -34 -88t-45.5 -56.5t-75 -35t-116.5 -9.5h-6z" />
<glyph unicode="&#x152;" horiz-adv-x="813" d="M787 570q0 -12 -12 -12h-255q-5 0 -5 -5v-125q0 -5 5 -5h153q12 0 12 -12v-118q0 -12 -12 -12h-153q-5 0 -5 -5v-129q0 -5 5 -5h255q12 0 12 -12v-118q0 -12 -12 -12h-414q-12 0 -12 12v8q0 7 -6 3q-52 -33 -113 -33q-81 0 -139.5 65.5t-58.5 167.5v254q0 101 58.5 166 t139.5 65q61 0 113 -33q6 -4 6 3v10q0 12 12 12h414q12 0 12 -12v-118zM273 133q34 0 55 23t21 61v264q0 38 -21 61.5t-55 23.5t-54.5 -23.5t-20.5 -61.5v-264q0 -38 20.5 -61t54.5 -23z" />
<glyph unicode="&#x153;" horiz-adv-x="790" d="M561 132q41 0 64 37q7 10 16 6l102 -42q11 -5 7 -15q-44 -126 -200 -126q-92 0 -149 63q-4 4 -7 0q-57 -63 -144 -63q-88 0 -144.5 43.5t-69.5 119.5q-9 41 -9 104q0 60 9 105q13 74 70 117.5t144 43.5q86 0 143 -63q4 -4 8 0q58 63 142 63q88 0 145.5 -44.5t69.5 -117.5 q7 -58 9 -140q0 -12 -12 -12h-261q-6 0 -4 -5q0 -14 3 -24q9 -50 68 -50zM299 179q7 32 7 81q0 47 -7 79q-4 20 -17 32t-32 12t-32.5 -12t-18.5 -32q-6 -35 -6 -79q0 -41 7 -81q4 -20 17.5 -32.5t32.5 -12.5t32 12.5t17 32.5zM544 383q-20 0 -33.5 -13t-17.5 -34 q-2 -8 -4 -26q0 -5 5 -5h100q4 0 4 5l-2 26q-10 47 -52 47z" />
<glyph unicode="&#x178;" horiz-adv-x="564" d="M188 743q-35 0 -57 22t-22 57t22 57t57 22t56.5 -22t21.5 -57t-21.5 -57t-56.5 -22zM379 743q-35 0 -57 22t-22 57t22 57t57 22t56.5 -22t21.5 -57t-21.5 -57t-56.5 -22zM210 2q-12 0 -12 12v241q0 3 -1 6l-173 425q-5 14 9 14h153q10 0 13 -10l80 -237q1 -3 3 -3t3 3 l80 237q3 10 13 10h152q14 0 9 -14l-174 -425q-1 -3 -1 -6v-241q0 -12 -12 -12h-142z" />
<glyph unicode="&#x2c6;" horiz-adv-x="336" d="M18 571q-7 0 -9.5 4.5t1.5 10.5l71 105q5 8 14 8h143q9 0 14 -8l74 -105q9 -15 -8 -15h-103q-10 0 -15 8l-29 53q-3 4 -6 0l-29 -53q-5 -8 -15 -8h-103z" />
<glyph unicode="&#x2dc;" horiz-adv-x="344" d="M224 571q-25 0 -61 21q-28 16 -39 16q-21 0 -35 -20q-6 -11 -16 -4l-52 37q-8 6 -5 16q27 76 95 76q31 0 66 -23q25 -17 44 -17q20 0 34 19q7 10 16 4l51 -35q10 -7 1 -23q-36 -67 -99 -67z" />
<glyph unicode="&#x2000;" horiz-adv-x="484" />
<glyph unicode="&#x2001;" horiz-adv-x="968" />
<glyph unicode="&#x2002;" horiz-adv-x="484" />
<glyph unicode="&#x2003;" horiz-adv-x="968" />
<glyph unicode="&#x2004;" horiz-adv-x="322" />
<glyph unicode="&#x2005;" horiz-adv-x="242" />
<glyph unicode="&#x2006;" horiz-adv-x="161" />
<glyph unicode="&#x2007;" horiz-adv-x="161" />
<glyph unicode="&#x2008;" horiz-adv-x="121" />
<glyph unicode="&#x2009;" horiz-adv-x="193" />
<glyph unicode="&#x200a;" horiz-adv-x="53" />
<glyph unicode="&#x2010;" horiz-adv-x="376" d="M35 219q-12 0 -12 12v118q0 12 12 12h306q12 0 12 -12v-118q0 -12 -12 -12h-306z" />
<glyph unicode="&#x2011;" horiz-adv-x="376" d="M35 219q-12 0 -12 12v118q0 12 12 12h306q12 0 12 -12v-118q0 -12 -12 -12h-306z" />
<glyph unicode="&#x2012;" horiz-adv-x="376" d="M35 219q-12 0 -12 12v118q0 12 12 12h306q12 0 12 -12v-118q0 -12 -12 -12h-306z" />
<glyph unicode="&#x2013;" horiz-adv-x="435" d="M35 214q-12 0 -12 12v118q0 12 12 12h365q12 0 12 -12v-118q0 -12 -12 -12h-365z" />
<glyph unicode="&#x2014;" horiz-adv-x="621" d="M35 214q-12 0 -12 12v118q0 12 12 12h551q12 0 12 -12v-118q0 -12 -12 -12h-551z" />
<glyph unicode="&#x2018;" horiz-adv-x="218" d="M15 467q-15 0 -10 14l78 209q3 10 14 10h107q14 0 11 -13l-46 -209q-2 -11 -13 -11h-141z" />
<glyph unicode="&#x2019;" horiz-adv-x="218" d="M203 700q15 0 10 -14l-78 -209q-3 -10 -14 -10h-107q-14 0 -11 13l46 209q2 11 13 11h141z" />
<glyph unicode="&#x201a;" horiz-adv-x="600" d="M41 -105q-14 0 -12 13l25 240q1 11 12 11h123q14 0 11 -13l-59 -241q-3 -10 -14 -10h-86z" />
<glyph unicode="&#x201c;" horiz-adv-x="393" d="M15 467q-15 0 -10 14l73 209q3 10 13 10h102q13 0 10 -13l-41 -209q-1 -11 -13 -11h-134zM203 467q-14 0 -9 14l70 209q3 10 13 10h103q13 0 11 -13l-40 -209q-1 -11 -13 -11h-135z" />
<glyph unicode="&#x201d;" horiz-adv-x="393" d="M190 700q14 0 9 -14l-70 -209q-3 -10 -13 -10h-103q-13 0 -11 13l40 209q1 11 13 11h135zM378 700q15 0 10 -14l-73 -209q-3 -10 -13 -10h-102q-13 0 -10 13l41 209q1 11 13 11h134z" />
<glyph unicode="&#x201e;" horiz-adv-x="405" d="M190 129q14 0 9 -14l-70 -209q-3 -10 -13 -10h-103q-13 0 -11 13l40 209q1 11 13 11h135zM378 129q15 0 10 -14l-73 -209q-3 -10 -13 -10h-102q-13 0 -10 13l41 209q1 11 13 11h134z" />
<glyph unicode="&#x2022;" horiz-adv-x="315" d="M158 145q-56 0 -95.5 39.5t-39.5 95.5t39.5 95t95.5 39t95 -39t39 -95t-39.5 -95.5t-94.5 -39.5z" />
<glyph unicode="&#x2026;" horiz-adv-x="831" d="M136 -6q-43 0 -71 28t-28 69q0 39 30.5 67t68.5 28t68.5 -28t30.5 -67q0 -41 -28 -69t-71 -28zM413 -6q-43 0 -71 28t-28 69q0 39 30.5 67t68.5 28t68.5 -28t30.5 -67q0 -41 -28 -69t-71 -28zM690 -6q-43 0 -71 28t-28 69q0 39 30.5 67t68.5 28t68.5 -28t30.5 -67 q0 -41 -28 -69t-71 -28z" />
<glyph unicode="&#x202f;" horiz-adv-x="193" />
<glyph unicode="&#x2039;" horiz-adv-x="305" d="M256 121q7 -14 -9 -14h-114q-9 0 -14 9l-80 157q-5 8 0 16l80 157q5 9 14 9h114q16 0 9 -14l-82 -157q-1 -3 0 -6z" />
<glyph unicode="&#x203a;" horiz-adv-x="308" d="M58 107q-16 0 -9 14l82 157q1 3 0 6l-82 157q-7 14 9 14h114q10 0 14 -9l80 -157q5 -8 0 -16l-80 -157q-4 -9 -14 -9h-114z" />
<glyph unicode="&#x205f;" horiz-adv-x="242" />
<glyph unicode="&#x20ac;" horiz-adv-x="570" d="M323 134q42 0 52 48q1 12 13 10l139 -22q13 -2 10 -14q-14 -77 -71 -120.5t-143 -43.5q-99 0 -158.5 59t-59.5 159v36q0 5 -5 5h-56q-12 0 -12 12v61q0 12 12 12h56q5 0 5 5v19q0 5 -5 5h-56q-12 0 -12 12v60q0 12 12 12h56q5 0 5 5v38q0 99 59.5 157.5t158.5 58.5 q88 0 145.5 -45t69.5 -124q3 -11 -10 -13l-141 -17q-11 -2 -14 11q-4 21 -17.5 33.5t-32.5 12.5q-23 0 -37.5 -18.5t-14.5 -47.5v-46q0 -5 5 -5h158q14 0 10 -14l-18 -60q-3 -10 -13 -10h-137q-5 0 -5 -5v-19q0 -5 5 -5h125q13 0 10 -14l-18 -61q-3 -10 -13 -10h-104 q-5 0 -5 -5v-46q0 -29 14.5 -47.5t37.5 -18.5z" />
<glyph unicode="&#x2122;" horiz-adv-x="613" d="M23 624q-12 0 -12 12v52q0 12 12 12h239q12 0 12 -12v-52q0 -12 -12 -12h-72q-5 0 -5 -5v-258q0 -12 -12 -12h-64q-12 0 -12 12v258q0 5 -5 5h-69zM502 692q5 8 14 8h64q12 0 12 -12v-327q0 -12 -12 -12h-63q-12 0 -12 12v199q0 3 -2 4t-4 -2l-33 -48q-5 -8 -14 -8h-3 q-9 0 -14 8l-32 49q-1 3 -3.5 2t-2.5 -4v-200q0 -12 -12 -12h-64q-12 0 -12 12v327q0 12 12 12h65q9 0 14 -8l47 -69q4 -6 8 0z" />
<glyph unicode="&#x25fc;" horiz-adv-x="515" d="M0 515h515v-515h-515v515z" />
</font>
</defs>
</svg>
