<?xml version="1.0" standalone="no"?>
<!DOCTYPE svg PUBLIC "-//W3C//DTD SVG 1.1//EN" "http://www.w3.org/Graphics/SVG/1.1/DTD/svg11.dtd" >
<svg xmlns="http://www.w3.org/2000/svg" xmlns:xlink="http://www.w3.org/1999/xlink" version="1.1">
<metadata></metadata>
<defs>
<font id="barlowthin_italic" horiz-adv-x="517" >
<font-face units-per-em="1000" ascent="800" descent="-200" />
<missing-glyph horiz-adv-x="194" />
<glyph horiz-adv-x="0" />
<glyph horiz-adv-x="333" />
<glyph unicode="&#xd;" horiz-adv-x="194" />
<glyph unicode=" "  horiz-adv-x="194" />
<glyph unicode="&#x09;" horiz-adv-x="194" />
<glyph unicode="&#xa0;" horiz-adv-x="194" />
<glyph unicode="!" horiz-adv-x="300" d="M151 221q-7 0 -6 8l55 463q1 8 9 8h14q7 0 6 -8l-57 -463q-1 -8 -9 -8h-12zM128 5q-19 0 -29.5 12.5t-8.5 31.5q2 18 16.5 30.5t31.5 12.5q18 0 30 -12.5t10 -30.5t-17 -31t-33 -13z" />
<glyph unicode="&#x22;" horiz-adv-x="201" d="M90 498q-7 0 -7 8l18 178q1 8 9 8h18q7 0 6 -8l-25 -178q-1 -8 -9 -8h-10zM184 498q-7 0 -6 8l18 178q0 8 8 8h18q7 0 7 -8l-26 -178q-1 -8 -9 -8h-10z" />
<glyph unicode="#" horiz-adv-x="624" d="M574 452q0 -8 -8 -8h-76q-3 0 -3 -3l-53 -196q-2 -3 1 -3h72q7 0 7 -8l-3 -12q0 -8 -8 -8h-75q-3 0 -3 -3l-54 -193q-3 -7 -10 -7l-13 1q-9 0 -6 8l53 191q0 3 -3 3h-189q-3 0 -3 -3l-54 -193q-3 -7 -10 -7l-13 1q-9 0 -6 8l52 191q1 3 -1 3h-69q-7 0 -7 8l3 12q0 8 8 8 h72q3 0 3 3l55 196q0 3 -2 3h-69q-7 0 -7 8l3 12q1 8 9 8h71q4 0 4 3l54 194q1 7 9 7l14 -1q8 0 5 -8l-52 -192q-2 -3 1 -3h189q4 0 4 3l54 194q1 7 9 7l14 -1q8 0 5 -8l-52 -192q0 -3 2 -3h72q8 0 7 -8zM400 242q1 0 4 3l53 196q0 3 -2 3h-189q-3 0 -3 -3l-54 -196 q-1 -3 1 -3h190z" />
<glyph unicode="$" horiz-adv-x="526" d="M465 165q-10 -77 -65 -124.5t-147 -48.5q-3 0 -3 -3l-8 -68q-2 -8 -9 -8h-11q-7 0 -7 8l9 69q0 3 -3 3q-81 7 -122 53t-32 119l5 39q0 8 8 8h12q7 0 7 -8l-5 -35q-8 -68 34.5 -108.5t124.5 -40.5q79 0 126.5 38t55.5 105q7 59 -29.5 98.5t-134.5 93.5q-47 25 -70 39.5 t-46 36.5t-29 48.5t-2 63.5q9 75 55.5 117t124.5 47q3 0 3 3l9 73q2 8 9 8h9q7 0 7 -8l-9 -72q-2 -3 2 -3q91 -1 135.5 -48t34.5 -126l-3 -28q-2 -8 -9 -8h-14q-7 0 -7 8l3 24q8 68 -31.5 109t-121.5 41q-73 0 -116.5 -34t-51.5 -100q-5 -42 13 -72.5t41 -45t87 -47.5 q6 -3 9 -5q94 -48 132.5 -94.5t29.5 -116.5z" />
<glyph unicode="%" horiz-adv-x="835" d="M276 443q-55 0 -88.5 39t-26.5 95q7 55 50 94t97 39t87.5 -39t26.5 -94t-50 -94.5t-96 -39.5zM207 0q-5 0 -6.5 3t1.5 7l454 684q3 6 9 6h10q5 0 6 -3t-2 -7l-453 -684q-4 -6 -10 -6h-9zM279 468q43 0 77.5 32t40.5 77q5 45 -21.5 76.5t-70.5 31.5t-78.5 -31.5 t-40.5 -76.5q-5 -46 21.5 -77.5t71.5 -31.5zM576 -10q-55 0 -88.5 39t-26.5 95q8 56 50.5 94.5t97.5 38.5q53 0 86.5 -39t26.5 -94q-7 -56 -49.5 -95t-96.5 -39zM579 15q43 0 78 32t40 77q6 45 -20.5 76.5t-70.5 31.5q-45 0 -79.5 -31.5t-39.5 -76.5q-6 -46 21 -77.5 t71 -31.5z" />
<glyph unicode="&#x26;" horiz-adv-x="618" d="M530 10q2 -4 0 -7t-6 -3h-17q-5 0 -9 5q-33 49 -61 89q0 3 -4 1q-55 -56 -102 -79.5t-107 -23.5q-83 0 -126 40t-34 114q9 71 55 122t127 105q2 2 0 5q-52 79 -66.5 115.5t-9.5 73.5q8 64 51.5 102.5t107.5 38.5q66 0 101.5 -37t28.5 -98q-7 -60 -49.5 -105t-118.5 -98 q-2 -1 -2 -4q13 -19 42 -61.5t41 -59.5l67 -100q1 -3 4 0q32 33 80 91q5 7 11 2l9 -7q6 -4 1 -12q-58 -69 -86 -99q-1 -1 0 -4zM327 679q-52 0 -87 -30t-41 -82q-4 -31 9.5 -64.5t62.5 -108.5q0 -2 4 0q49 35 74.5 55.5t51 54.5t29.5 69q6 48 -22.5 77t-80.5 29zM230 20 q53 0 94 22t94 76q1 1 1 4q-24 36 -39.5 58.5t-21 31t-8.5 12.5l-85 126q-1 3 -4 0q-75 -51 -117.5 -97t-49.5 -106q-7 -61 29.5 -94.5t106.5 -32.5z" />
<glyph unicode="'" horiz-adv-x="107" d="M91 505q-7 0 -7 8l18 176q1 8 9 8h17q8 0 7 -8l-25 -176q-1 -8 -9 -8h-10z" />
<glyph unicode="(" horiz-adv-x="204" d="M63 -112q-6 0 -8 5q-33 74 -45 189.5t3 238.5q16 125 57 245t94 195q5 5 10 5h11q10 0 5 -9q-49 -76 -88 -194t-55 -240q-14 -122 -3.5 -237t40.5 -189q5 -9 -7 -9h-14z" />
<glyph unicode=")" horiz-adv-x="204" d="M84 -107q-3 -5 -9 -5h-15q-11 0 -4 9q49 75 87.5 190.5t53.5 235.5q15 124 4.5 241t-40.5 193q-4 9 7 9h11q6 0 9 -5q34 -76 46 -195t-3 -245q-16 -122 -56 -238.5t-91 -189.5z" />
<glyph unicode="*" horiz-adv-x="384" d="M216 393q-7 0 -7 8l18 144q0 4 -4 2l-132 -74q-8 -4 -10 3l-3 8q-1 7 4 11l131 73q5 2 1 4l-113 73q-6 4 -2 11l5 8q3 7 11 3l114 -74q4 -2 4 2l18 144q0 8 9 8h9q9 0 7 -8l-18 -144q0 -4 4 -2l132 74q8 4 11 -3l2 -8q2 -6 -4 -11l-131 -73q-4 -2 0 -4l113 -73 q5 -5 1 -11l-5 -8q-3 -7 -11 -3l-114 74q-4 2 -4 -2l-17 -144q-2 -8 -9 -8h-10z" />
<glyph unicode="+" horiz-adv-x="493" d="M464 334q7 0 7 -8l-2 -11q0 -8 -8 -8h-180q-3 0 -3 -3l-22 -180q-2 -8 -9 -8h-11q-8 0 -6 8l22 180q0 3 -3 3h-179q-9 0 -7 8l1 11q2 8 9 8h179q4 0 4 3l23 190q2 8 9 8h10q9 0 7 -8l-23 -190q0 -3 2 -3h180z" />
<glyph unicode="," horiz-adv-x="256" d="M59 -68q-10 0 -6 9l75 205q2 7 9 7h13q8 0 5 -9l-76 -205q-3 -7 -10 -7h-10z" />
<glyph unicode="-" horiz-adv-x="374" d="M70 306q-9 0 -7 8l1 12q2 8 9 8h272q8 0 6 -8l-1 -12q-2 -8 -9 -8h-271z" />
<glyph unicode="." horiz-adv-x="269" d="M113 6q-18 0 -29 13t-9 31t17 30.5t32 12.5t28.5 -12.5t9.5 -30.5t-16.5 -31t-32.5 -13z" />
<glyph unicode="/" horiz-adv-x="297" d="M23 0q-9 0 -4 9l279 684q2 7 9 7h14q9 0 4 -9l-279 -684q-2 -7 -9 -7h-14z" />
<glyph unicode="0" horiz-adv-x="545" d="M250 -9q-85 0 -130 51t-35 135l42 346q10 84 68 135t143 51q86 0 132.5 -51t36.5 -135l-43 -346q-11 -84 -69.5 -135t-144.5 -51zM254 19q73 0 122.5 42.5t58.5 113.5l43 350q8 71 -31 113.5t-112 42.5q-71 0 -120.5 -43t-57.5 -113l-43 -350q-9 -70 30 -113t110 -43z " />
<glyph unicode="1" horiz-adv-x="337" d="M257 697q4 3 10 3h17q7 0 7 -8l-84 -684q-2 -8 -9 -8h-14q-8 0 -6 8l79 650q1 1 0 2t-3 0l-125 -61q-4 -2 -6.5 -0.5t-1.5 6.5l1 9q0 5 6 9z" />
<glyph unicode="2" horiz-adv-x="506" d="M53 0q-8 0 -6 8l1 13q2 7 5 10l262 305q110 131 118 205q7 63 -29 101t-102 38q-65 0 -109.5 -38t-51.5 -101l-4 -35q-2 -8 -9 -8h-14q-8 0 -6 8l4 37q10 74 63 119.5t130 45.5q80 0 123 -46t34 -120q-10 -88 -123 -219q-166 -194 -251 -291q-4 -4 2 -4h328q8 0 6 -8 l-1 -12q-2 -8 -9 -8h-361z" />
<glyph unicode="3" horiz-adv-x="486" d="M411 328q13 -51 4 -121q-6 -54 -23 -96q-50 -119 -179 -119q-64 0 -103.5 36t-47.5 96q-4 24 1 72q0 8 9 8h13q9 0 7 -8q-4 -41 -2 -59q3 -53 36.5 -85t90.5 -32q105 0 147 97q16 41 22 90q9 64 -4 110q-22 87 -118 87q-14 0 -28 -3q-6 -1 -9 3l-5 8q-4 6 1 11l210 245 q2 4 -1 4h-302q-7 0 -7 8l2 12q0 8 8 8h334q9 0 7 -8l-2 -14q0 -4 -4 -10l-200 -237q-2 -4 2 -4q114 0 141 -99z" />
<glyph unicode="4" horiz-adv-x="503" d="M438 228q9 0 7 -8l-1 -11q-2 -8 -9 -8h-44q-3 0 -3 -3l-23 -190q-2 -8 -9 -8h-14q-8 0 -6 8l23 190q0 3 -3 3h-287q-8 0 -6 8l1 13q0 1 3 10l270 462q5 6 11 6h12q10 0 5 -9l-267 -459q-2 -4 2 -4h260q3 0 3 3l23 185q0 8 8 8h14q7 0 7 -8l-23 -185q0 -3 3 -3h43z" />
<glyph unicode="5" horiz-adv-x="485" d="M438 298q1 -39 -5 -87q-4 -44 -15 -78q-21 -65 -71.5 -103t-116.5 -38q-65 0 -105 36t-47 95q-2 28 -2 38q2 8 9 8h14q9 0 7 -8v-24q4 -53 37.5 -85t89.5 -32q58 0 100 34t59 93q9 27 12 64q5 42 5 73q1 58 -34 88t-95 30q-52 0 -93.5 -24t-59.5 -66q-4 -7 -10 -7h-16 q-8 0 -6 8l46 379q2 8 9 8h306q8 0 6 -8l-1 -12q-2 -8 -9 -8h-281q-3 0 -3 -3l-37 -301l1 -2l2 1q57 63 151 63q68 0 109.5 -34t43.5 -98z" />
<glyph unicode="6" horiz-adv-x="487" d="M437 301q6 -31 -2 -91q-8 -63 -19 -87q-54 -131 -181 -131q-67 0 -107.5 35t-48.5 96q-4 29 3 89l40 320q10 81 64 128.5t130 47.5q74 0 114 -45.5t30 -121.5l-1 -7q0 -8 -8 -8h-14q-7 0 -7 8l1 9q7 61 -25.5 99t-93.5 38q-62 0 -107.5 -40t-53.5 -107l-23 -187v-2l3 1 q51 84 154 84q131 0 152 -128zM390 137q9 23 16 74q6 44 3 76q-4 51 -37 83t-91 32q-56 0 -98 -32.5t-57 -83.5q-9 -27 -15 -76q-5 -50 -4 -74q3 -50 36.5 -83t91.5 -33q53 0 95 29.5t60 87.5z" />
<glyph unicode="7" horiz-adv-x="446" d="M143 0q-11 0 -6 9l314 660q1 3 -3 3h-310q-3 0 -3 -3l-6 -46q-2 -8 -9 -8h-12q-8 0 -6 8l8 69q2 8 9 8h360q7 0 7 -8l-2 -15q-2 -6 -3 -10l-312 -661q-3 -6 -10 -6h-16z" />
<glyph unicode="8" horiz-adv-x="491" d="M347 379q-5 -2 -1 -4q56 -23 73 -88q11 -37 4 -96q-9 -74 -45 -125q-54 -74 -155 -74q-103 0 -138 81q-22 50 -13 119q7 57 31 98q34 62 93 85q6 2 1 4q-40 19 -61 54q-28 42 -22 103q6 49 35 89q59 83 162 83q108 0 143 -84q17 -42 11 -89q-7 -59 -45 -103 q-32 -36 -73 -53zM158 450q34 -60 113 -60q82 0 132 63q27 34 33 82q6 40 -9 74q-32 72 -120 72t-137 -74q-22 -34 -27 -73q-6 -49 15 -84zM354 81q32 44 40 111q6 48 -3 81q-19 89 -120 91h-3q-97 0 -141 -85q-20 -38 -26 -88q-7 -64 11 -107q29 -64 115 -64q81 0 127 61z " />
<glyph unicode="9" horiz-adv-x="501" d="M469 577q4 -42 -4 -89l-39 -320q-10 -81 -64 -128.5t-130 -47.5q-74 0 -114 45.5t-31 121.5l1 7q2 8 9 8h14q8 0 6 -8l-1 -9q-7 -61 26 -99t93 -38q63 0 108.5 39.5t53.5 107.5l23 187q0 2 -1 2.5t-2 -1.5q-53 -84 -155 -84q-130 0 -151 128q-6 25 2 91q6 58 19 87 q54 131 181 131q67 0 107.5 -35t48.5 -96zM266 298q57 0 98.5 32.5t56.5 83.5q9 25 16 76q4 37 4 74q-3 50 -37 83t-92 33q-52 0 -94 -29.5t-61 -87.5q-11 -32 -15 -74q-6 -44 -3 -76q4 -50 37 -82.5t90 -32.5z" />
<glyph unicode=":" horiz-adv-x="314" d="M182 361q-18 0 -29 12.5t-9 31.5q2 18 16.5 30.5t32.5 12.5q17 0 28.5 -12.5t9.5 -30.5t-16.5 -31t-32.5 -13zM140 19q-18 0 -29 12.5t-9 31.5q2 18 16.5 30.5t32.5 12.5q17 0 28.5 -12.5t9.5 -30.5t-16.5 -31t-32.5 -13z" />
<glyph unicode=";" horiz-adv-x="299" d="M178 366q-18 0 -28.5 13t-8.5 31q1 18 15.5 30.5t32.5 12.5t29.5 -12.5t9.5 -30.5t-17.5 -31t-32.5 -13zM91 -62q-9 0 -6 9l54 194q2 7 8 7h15q8 0 5 -9l-57 -194q-4 -7 -9 -7h-10z" />
<glyph unicode="&#x3c;" horiz-adv-x="493" d="M437 62q0 -10 -9 -6l-368 193q-5 3 -5 10l2 17q2 7 7 10l416 193q4 2 6.5 0t1.5 -6l-2 -15q-2 -7 -7 -10l-391 -179q-4 -2 0 -4l347 -178q6 -4 4 -10z" />
<glyph unicode="=" horiz-adv-x="493" d="M84 423q-7 0 -7 8l2 11q0 8 8 8h391q9 0 7 -8l-1 -11q-2 -8 -9 -8h-391zM57 205q-7 0 -7 8l2 11q0 8 8 8h391q9 0 7 -8l-1 -11q-2 -8 -9 -8h-391z" />
<glyph unicode="&#x3e;" horiz-adv-x="493" d="M40 56q-4 -2 -6.5 0t-1.5 6l2 15q0 7 7 10l390 178q5 2 1 4l-347 179q-5 2 -5 10l2 15q2 9 10 6l368 -193q5 -2 5 -10l-3 -17q0 -7 -7 -10z" />
<glyph unicode="?" horiz-adv-x="412" d="M185 187q-7 0 -7 8l10 76q4 34 24 61t46 47t52 40.5t46.5 53t25.5 73.5q7 61 -23.5 98t-88.5 37q-59 0 -99.5 -37t-48.5 -97l-4 -40q-2 -8 -9 -8h-14q-7 0 -7 8l5 40q9 73 59 117.5t121 44.5t109 -45t29 -120q-6 -47 -26.5 -83t-47 -58t-52.5 -41t-45 -42t-23 -50l-9 -75 q0 -8 -8 -8h-15zM172 5q-18 0 -28.5 12.5t-8.5 30.5t16.5 30.5t31.5 12.5t28.5 -12.5t9.5 -30.5t-17 -30.5t-32 -12.5z" />
<glyph unicode="@" horiz-adv-x="809" d="M497 594q143 0 212.5 -97t31.5 -241q-21 -87 -70 -137t-108 -50q-34 0 -57 17t-30 48q1 2 0 2.5t-3 -1.5q-42 -65 -119 -65q-49 0 -76 25.5t-25 67.5q1 24 16 87q18 68 28 89q19 42 56.5 67.5t82.5 25.5q64 0 86 -46q1 -1 4 1l7 32q0 8 9 8h10q8 0 7 -8l-55 -224 q-10 -44 8.5 -72.5t56.5 -28.5q47 0 86 42.5t59 118.5q37 137 -29 225t-195 88q-60 0 -120 -20.5t-115 -60t-94.5 -107.5t-50.5 -154q-16 -130 41.5 -212t183.5 -82q50 0 99.5 12t74.5 31q7 5 11 -2l3 -8q5 -6 -2 -11q-32 -22 -86 -35t-106 -13q-137 0 -200 91t-44 235 q9 72 39 133t71.5 102.5t93 70.5t104 42.5t104.5 13.5zM359 95q38 0 68 22.5t43 56.5q7 15 16 49l17 73q4 19 6 33q3 34 -16.5 56.5t-57.5 22.5q-37 0 -68 -22t-48 -56q-9 -15 -24 -78q-14 -61 -15 -78q-3 -35 18.5 -57t60.5 -22z" />
<glyph unicode="A" horiz-adv-x="552" d="M474 0q-6 0 -8 7l-28 143q1 1 -0.5 1.5t-2.5 0.5h-318q-4 0 -4 -2l-64 -143q-2 -7 -9 -7h-14q-10 0 -5 9l303 684q2 7 9 7h18q6 0 8 -7l136 -684q2 -9 -8 -9h-13zM126 182q-2 -3 3 -3h299q4 0 4 3l-93 475q-2 4 -4 0z" />
<glyph unicode="B" horiz-adv-x="612" d="M440 364q-4 -2 0 -4q52 -20 76.5 -65t16.5 -108q-10 -85 -67.5 -136t-142.5 -51h-225q-7 0 -7 8l84 684q2 8 9 8h219q85 0 130 -48.5t35 -129.5q-7 -57 -40.5 -98t-87.5 -60zM205 672q-3 0 -4 -3l-35 -290q0 -3 2 -3h195q71 0 119 40t56 105q8 68 -29.5 109.5 t-108.5 41.5h-195zM327 29q71 0 119.5 43.5t57.5 115.5q9 73 -30 116.5t-113 43.5h-196q-3 0 -3 -3l-39 -313q0 -3 3 -3h201z" />
<glyph unicode="C" horiz-adv-x="588" d="M278 -9q-97 0 -148.5 57.5t-39.5 152.5l37 300q11 93 76.5 150t162.5 57q96 0 148 -57t40 -150v-3q-2 -8 -9 -8l-14 -1q-8 0 -6 7v6q10 80 -34.5 129t-127.5 49q-84 0 -140.5 -49t-66.5 -129l-38 -304q-10 -80 35 -129.5t129 -49.5q83 0 139.5 49.5t66.5 129.5v4q2 8 9 8 l14 -1q7 0 7 -4l-1 -5q-11 -94 -77 -151.5t-162 -57.5z" />
<glyph unicode="D" horiz-adv-x="599" d="M98 0q-7 0 -7 8l84 684q2 8 9 8h222q88 0 133 -48.5t35 -133.5l-41 -336q-10 -85 -67.5 -133.5t-145.5 -48.5h-222zM123 31q0 -3 3 -3h199q74 0 122 41.5t57 113.5l40 333q9 73 -28 114.5t-111 41.5h-200q-3 0 -4 -3z" />
<glyph unicode="E" horiz-adv-x="599" d="M596 680q-2 -8 -9 -8h-382q-3 0 -4 -3l-37 -301q0 -3 3 -3h276q9 0 7 -8l-1 -12q-2 -8 -9 -8h-276q-2 0 -4 -3l-37 -303q0 -3 3 -3h382q7 0 7 -8l-2 -12q0 -8 -9 -8h-406q-7 0 -7 8l84 684q2 8 9 8h406q9 0 7 -8z" />
<glyph unicode="F" horiz-adv-x="556" d="M595 680q-2 -8 -9 -8h-381q-3 0 -4 -3l-37 -301q0 -3 3 -3h276q8 0 6 -8l-1 -12q-2 -8 -9 -8h-275q-2 0 -4 -3l-40 -326q0 -8 -8 -8h-14q-7 0 -7 8l84 684q2 8 9 8h405q9 0 7 -8z" />
<glyph unicode="G" horiz-adv-x="587" d="M278 -8q-97 0 -148.5 56.5t-40.5 148.5l38 306q11 92 76.5 148.5t162.5 56.5q96 0 147.5 -56t40.5 -148l-2 -17q-2 -8 -9 -8h-14q-7 0 -7 8l3 18q10 79 -35 127t-127 48q-84 0 -140.5 -48t-66.5 -128l-38 -308q-10 -80 35 -128t129 -48q82 0 138.5 48t66.5 126l14 116 q0 3 -3 3h-165q-8 0 -6 8l1 11q0 8 9 8h189q7 0 7 -8l-17 -134q-11 -94 -76.5 -150t-161.5 -56z" />
<glyph unicode="H" horiz-adv-x="649" d="M576 692q0 8 9 8h13q9 0 7 -8l-84 -684q-2 -8 -9 -8h-13q-9 0 -7 8l40 326q0 3 -3 3h-365q-2 0 -4 -3l-40 -326q0 -8 -8 -8h-14q-7 0 -7 8l84 684q2 8 9 8h13q9 0 7 -8l-40 -324q0 -3 3 -3h366q3 0 3 3z" />
<glyph unicode="I" horiz-adv-x="248" d="M98 0q-7 0 -7 8l84 684q2 8 9 8h13q9 0 7 -8l-84 -684q0 -8 -8 -8h-14z" />
<glyph unicode="J" horiz-adv-x="557" d="M220 -8q-93 0 -143 54.5t-39 143.5l7 54q0 8 8 8h14q7 0 7 -8l-7 -55q-10 -76 33.5 -122.5t123.5 -46.5q79 0 133.5 46.5t64.5 122.5l62 503q0 8 8 8h14q7 0 7 -8l-62 -502q-11 -89 -74.5 -143.5t-156.5 -54.5z" />
<glyph unicode="K" horiz-adv-x="584" d="M98 0q-7 0 -7 8l84 684q2 8 9 8h13q9 0 7 -8l-46 -375q0 -5 4 -1l403 380q4 4 10 4h14q5 0 6.5 -3t-2.5 -7l-285 -274q-1 -1 0 -4l226 -402q5 -10 -6 -10h-19q-5 0 -8 3q-1 2 -2 3l-215 382q-2 2 -3 1l-126 -113q-2 -2 -2 -4l-33 -264q0 -8 -8 -8h-14z" />
<glyph unicode="L" horiz-adv-x="549" d="M98 0q-7 0 -7 8l84 684q2 8 9 8h13q9 0 7 -8l-81 -661q0 -3 3 -3h359q8 0 6 -8l-1 -12q-2 -8 -9 -8h-383z" />
<glyph unicode="M" horiz-adv-x="694" d="M98 0q-7 0 -7 8l84 684q2 8 9 8h15q7 0 9 -5l162 -326q2 -4 4 0l244 326q2 5 9 5h16q7 0 7 -8l-84 -684q-2 -8 -9 -8h-14q-7 0 -7 8l78 630q0 2 -1.5 2.5t-2.5 -1.5l-227 -305q-3 -5 -9 -5h-11q-5 0 -8 5l-153 305q-1 2 -2.5 1.5t-1.5 -2.5l-78 -630q0 -8 -8 -8h-14z" />
<glyph unicode="N" horiz-adv-x="662" d="M98 0q-7 0 -7 8l84 684q2 8 9 8h15q7 0 9 -5l299 -632q1 -2 2.5 -1.5t1.5 2.5l77 628q2 8 9 8h14q8 0 6 -8l-83 -684q-2 -8 -9 -8h-15q-6 0 -8 5l-301 632q-1 2 -4 -1l-77 -628q0 -8 -8 -8h-14z" />
<glyph unicode="O" horiz-adv-x="603" d="M280 -7q-97 0 -149 60.5t-40 158.5l34 275q12 99 79 160t164 61q98 0 151 -61t40 -160l-33 -275q-13 -98 -80.5 -158.5t-165.5 -60.5zM284 20q85 0 143.5 52.5t68.5 138.5l34 277q11 86 -34.5 139t-130.5 53t-142.5 -53t-68.5 -139l-34 -277q-11 -86 34 -138.5t130 -52.5 z" />
<glyph unicode="P" horiz-adv-x="571" d="M421 702q79 0 121 -50.5t32 -133.5t-64.5 -133t-133.5 -50h-220q-2 0 -4 -3l-39 -324q-2 -8 -9 -8h-14q-7 0 -7 8l85 686q0 8 8 8h245zM379 363q66 0 111.5 42.5t54.5 111.5q8 71 -27 114t-101 43h-220q-3 0 -3 -3l-38 -305q0 -3 3 -3h220z" />
<glyph unicode="Q" horiz-adv-x="549" d="M342 708q94 0 144 -58.5t39 -153.5l-36 -293q-11 -90 -70.5 -147.5t-146.5 -63.5q-2 0 -4 -3l-13 -106q0 -8 -8 -8h-14q-7 0 -7 8l13 106q0 3 -2 3q-86 6 -131.5 63.5t-34.5 147.5l36 293q12 95 76.5 153.5t158.5 58.5zM459 202l37 296q10 82 -33.5 132t-123.5 50 q-81 0 -136.5 -50t-65.5 -132l-37 -296q-10 -82 33.5 -132t124.5 -50q80 0 135.5 50t65.5 132z" />
<glyph unicode="R" horiz-adv-x="593" d="M500 0q-8 0 -9 6l-117 332l-2 2h-208q-3 0 -3 -3l-41 -329q0 -8 -8 -8h-14q-7 0 -7 8l84 686q2 8 9 8h237q78 0 120 -50.5t32 -131.5q-9 -73 -54 -121t-112 -57q-3 0 -3 -3l114 -330q4 -9 -6 -9h-12zM205 674q-3 0 -3 -3l-37 -301q-1 -3 2 -3h213q65 0 110.5 42.5 t53.5 110.5q8 69 -26.5 111.5t-100.5 42.5h-212z" />
<glyph unicode="S" horiz-adv-x="565" d="M268 -8q-103 0 -157 47.5t-44 127.5l5 37q0 8 8 8h12q7 0 7 -8l-5 -35q-8 -68 40 -108.5t140 -40.5q87 0 139.5 38t60.5 105q7 60 -31.5 99t-145.5 90q-103 49 -133 76q-47 43 -38 116q10 80 66.5 122t152.5 42q105 0 156 -47.5t41 -128.5l-4 -26q0 -8 -8 -8h-14 q-7 0 -7 8l3 24q8 68 -36.5 109t-135.5 41q-82 0 -130 -34t-56 -100q-3 -22 -0.5 -39.5t13 -33t20.5 -25.5t35 -24t42 -22t55 -25q105 -48 149 -94t35 -118q-9 -78 -71 -125.5t-164 -47.5z" />
<glyph unicode="T" horiz-adv-x="543" d="M552 700q8 0 6 -8l-1 -12q-2 -8 -9 -8h-201q-3 0 -3 -3l-81 -661q-2 -8 -9 -8h-13q-9 0 -7 8l81 661q0 3 -3 3h-191q-8 0 -6 8l1 12q2 8 9 8h427z" />
<glyph unicode="U" horiz-adv-x="639" d="M299 -8q-98 0 -151 59t-41 156l59 485q2 8 9 8h14q7 0 7 -8l-60 -488q-10 -82 35.5 -133t130.5 -51q86 0 143.5 50.5t68.5 133.5l60 488q0 8 9 8h13q9 0 7 -8l-60 -485q-11 -97 -78.5 -156t-165.5 -59z" />
<glyph unicode="V" horiz-adv-x="552" d="M248 0q-6 0 -8 7l-136 684q-2 9 8 9h14q6 0 8 -7l126 -643q2 -4 4 0l287 643q2 7 9 7h13q10 0 6 -9l-306 -684q-2 -7 -9 -7h-16z" />
<glyph unicode="W" horiz-adv-x="852" d="M212 0q-7 0 -7 7l-110 684q-1 4 1 6.5t5 2.5h15q6 0 8 -7l102 -631q2 -4 4 0l242 631q4 7 10 7h15q8 0 8 -7l91 -631q2 -4 4 0l260 631q4 7 10 7h13q10 0 5 -9l-281 -684q-2 -7 -9 -7h-16q-6 0 -8 7l-88 638q-2 4 -4 0l-245 -638q-3 -7 -10 -7h-15z" />
<glyph unicode="X" horiz-adv-x="547" d="M28 0q-4 0 -5.5 3t1.5 7l256 338q2 2 1 4l-174 338q-4 10 7 10h16q6 0 8 -5l160 -319q2 -4 4 0l239 319q4 5 10 5h15q11 0 5 -10l-257 -339q-1 -2 -1 -4l174 -337q4 -10 -7 -10h-15q-7 0 -8 5l-161 318q-2 4 -4 0l-239 -318q-3 -5 -9 -5h-16z" />
<glyph unicode="Y" horiz-adv-x="522" d="M235 0q-9 0 -7 8l40 324q0 2 -1 4l-160 354q-4 10 6 10h14q5 0 8 -5l149 -330q2 -4 4 0l231 330q3 5 9 5h14q11 0 3 -10l-247 -354q-1 -2 -1 -4l-40 -324q-2 -8 -9 -8h-13z" />
<glyph unicode="Z" horiz-adv-x="528" d="M40 0q-9 0 -7 8l2 15q0 2 4 10l458 635q2 4 -1 4h-374q-8 0 -6 8l1 12q2 8 9 8h401q9 0 7 -8l-2 -15q0 -5 -4 -10l-458 -635q-2 -4 1 -4h374q7 0 7 -8l-2 -12q-2 -8 -9 -8h-401z" />
<glyph unicode="[" horiz-adv-x="347" d="M5 -106q-8 0 -6 8l104 849q0 8 9 8h163q8 0 6 -8l-1 -12q-2 -8 -9 -8h-139q-3 0 -3 -3l-98 -803q-1 -3 2 -3h140q7 0 7 -8l-2 -12q-2 -8 -9 -8h-164z" />
<glyph unicode="\" horiz-adv-x="297" d="M242 9q2 -9 -7 -9h-14q-6 0 -8 7l-111 684q-2 9 7 9h14q6 0 8 -7z" />
<glyph unicode="]" horiz-adv-x="347" d="M286 -98q-2 -8 -9 -8h-164q-7 0 -7 8l2 12q0 8 9 8h139q3 0 3 3l99 803q0 3 -2 3h-139q-9 0 -7 8l2 12q0 8 8 8h163q9 0 7 -8z" />
<glyph unicode="^" horiz-adv-x="424" d="M72 313q-9 0 -4 9l192 372q2 6 10 6h16q7 0 9 -6l101 -372q4 -9 -6 -9h-12q-8 0 -9 6l-93 347q-2 4 -4 0l-179 -347q-2 -6 -10 -6h-11z" />
<glyph unicode="_" horiz-adv-x="447" d="M22 0q-8 0 -6 8l1 12q2 8 9 8h364q9 0 7 -8l-1 -12q-2 -8 -9 -8h-365z" />
<glyph unicode="`" horiz-adv-x="169" d="M184 590q4 -10 -7 -10h-12q-5 0 -8 5l-51 115q-4 10 6 10h15q4 0 8 -6z" />
<glyph unicode="a" d="M436 493q2 8 9 8h13q9 0 7 -8l-60 -485q0 -8 -8 -8h-14q-7 0 -7 8l8 64v2q-1 2 -3 -1q-52 -81 -151 -81q-65 0 -105.5 36t-47.5 96q-3 30 9 125q12 94 22 128q20 59 70 95.5t115 36.5q98 0 132 -82q1 -3 2 -1q1 1 1 2zM386 134q10 34 20 116q11 88 8 117 q-2 49 -34.5 81.5t-86.5 32.5q-55 0 -98 -32t-59 -82q-9 -27 -21 -116q-11 -88 -8 -117q2 -50 37.5 -82t91.5 -32t95.5 32.5t54.5 81.5z" />
<glyph unicode="b" d="M462 377q3 -32 -9 -128q-9 -89 -22 -125q-21 -60 -70.5 -96t-114.5 -36q-99 0 -131 81q-1 3 -2 1l-1 -2l-8 -64q-2 -8 -9 -8h-14q-8 0 -6 8l84 684q0 8 8 8h14q7 0 7 -8l-33 -264q0 -7 4 -1q54 82 151 82q65 0 106 -36.5t46 -95.5zM404 134q9 30 21 117q10 85 7 116 q-4 49 -38.5 81.5t-90.5 32.5q-54 0 -94 -32.5t-54 -81.5q-10 -28 -21 -117q-11 -82 -9 -116q3 -49 34.5 -81.5t87.5 -32.5t99.5 32t57.5 82z" />
<glyph unicode="c" horiz-adv-x="495" d="M240 -8q-67 0 -108 36t-49 96q-7 43 4 128q9 72 27 125q21 60 72 96t117 36t109.5 -35t50.5 -87q1 -9 1 -27q1 -7 -8 -9l-13 -1q-8 -1 -8 7l-1 16q-4 46 -40.5 77t-93.5 31q-59 0 -102.5 -32.5t-59.5 -85.5q-13 -40 -22 -112q-8 -66 -6 -113q4 -54 39 -86t94 -32 t104 31.5t58 77.5q1 2 1 4q1 2 1 4q1 5 9 5l13 -1q6 -1 6 -7q-1 -2 -1 -4q-3 -10 -5 -16q-18 -53 -70.5 -87.5t-118.5 -34.5z" />
<glyph unicode="d" d="M460 692q2 8 9 8h14q8 0 6 -8l-84 -684q0 -8 -8 -8h-14q-7 0 -7 8l8 64v2q-1 2 -3 -1q-52 -81 -151 -81q-65 0 -105.5 36t-47.5 96q-3 30 9 125q12 94 22 128q20 59 70 95.5t115 36.5q98 0 132 -82q1 -3 2 -1q1 1 1 2zM386 134q10 34 20 116q11 88 8 117 q-2 49 -34.5 81.5t-86.5 32.5q-55 0 -98 -32t-59 -82q-9 -27 -21 -116q-11 -88 -8 -117q2 -50 37.5 -82t91.5 -32t95.5 32.5t54.5 81.5z" />
<glyph unicode="e" horiz-adv-x="510" d="M240 20q52 0 93 25t62 67l2 4q2 5 7 3h3l10 -2q7 -1 4 -10q-25 -52 -73.5 -83.5t-111.5 -31.5q-66 0 -107 35.5t-49 94.5q-5 34 7 130q11 89 23 124q21 60 71.5 96.5t117.5 36.5q69 0 111.5 -37.5t47.5 -100.5q2 -28 -9 -119q-2 -8 -9 -8h-322q-3 0 -3 -3 q-10 -84 -8 -103q3 -53 38.5 -85.5t94.5 -32.5zM296 481q-59 0 -102 -32.5t-59 -84.5q-8 -24 -16 -91q0 -3 2 -3h298q3 0 3 3q8 64 7 90q-4 53 -39.5 85.5t-93.5 32.5z" />
<glyph unicode="f" horiz-adv-x="328" d="M313 672q-63 0 -89 -32t-35 -102l-4 -34q0 -3 3 -3h123q7 0 7 -8l-2 -12q-2 -8 -9 -8h-123q-3 0 -3 -3l-57 -462q0 -8 -9 -8h-12q-9 0 -7 8l57 462q0 3 -3 3h-66q-7 0 -7 8l2 12q2 8 9 8h66q3 0 3 3l4 35q10 82 44.5 121.5t110.5 39.5h24q7 0 7 -8l-2 -12q0 -8 -8 -8h-24 z" />
<glyph unicode="g" horiz-adv-x="507" d="M437 493q2 8 9 8h13q9 0 7 -8l-60 -490q-26 -210 -259 -203q-7 0 -7 8l3 13q1 8 9 8q203 -6 225 174l8 70q1 2 0 2.5t-3 -1.5q-55 -81 -151 -81q-64 0 -104.5 35.5t-48.5 95.5q-6 40 5 125q11 88 26 129q22 58 71 94.5t113 36.5q99 0 132 -80q4 -4 4 1zM389 138 q7 24 18 112q10 84 10 113q-2 51 -34.5 84.5t-88.5 33.5t-98 -33t-61 -85q-13 -33 -23 -111q-10 -80 -5 -114q5 -51 40 -84.5t90 -33.5q57 0 97.5 34t54.5 84z" />
<glyph unicode="h" horiz-adv-x="519" d="M314 508q73 0 112.5 -46.5t30.5 -121.5l-41 -332q0 -8 -9 -8h-13q-9 0 -7 8l40 327q8 64 -25.5 104.5t-95.5 40.5q-65 0 -109.5 -39.5t-52.5 -103.5l-40 -329q-2 -8 -9 -8h-14q-8 0 -6 8l84 684q0 8 8 8h14q7 0 7 -8l-32 -259q0 -5 3 -2q53 77 155 77z" />
<glyph unicode="i" horiz-adv-x="230" d="M172 616q-15 0 -24 10t-7 24t13 23t26 9q14 0 23 -9t7 -23t-13 -24t-25 -10zM89 0q-7 0 -7 8l60 485q2 8 9 8h13q9 0 7 -8l-59 -485q-2 -8 -9 -8h-14z" />
<glyph unicode="j" horiz-adv-x="215" d="M164 616q-14 0 -22 9t-7 25q5 32 37 32q35 0 32 -32q-5 -34 -40 -34zM-58 -211q-7 0 -7 8l2 12q0 8 9 8q50 2 81.5 32t37.5 82l69 562q2 8 9 8h14q8 0 6 -8l-69 -562q-8 -65 -47.5 -102.5t-104.5 -39.5z" />
<glyph unicode="k" horiz-adv-x="468" d="M81 0q-8 0 -6 8l84 684q0 8 8 8h14q7 0 7 -8l-56 -453q0 -5 4 -1l281 259q4 4 10 4h19q5 0 5.5 -3t-3.5 -7l-140 -130q-2 -3 -1 -4l107 -348q3 -9 -7 -9h-14q-8 0 -9 6l-100 330q-1 3 -4 0l-151 -139q-2 -2 -2 -4l-23 -185q-2 -8 -9 -8h-14z" />
<glyph unicode="l" horiz-adv-x="215" d="M81 0q-8 0 -6 8l84 684q0 8 8 8h14q7 0 7 -8l-84 -684q-2 -8 -9 -8h-14z" />
<glyph unicode="m" horiz-adv-x="803" d="M606 508q70 0 107.5 -43.5t28.5 -117.5l-42 -339q0 -8 -8 -8h-14q-7 0 -7 8l41 334q8 64 -24 101t-91 37q-63 0 -105 -36.5t-49 -99.5l-41 -336q-2 -8 -9 -8h-14q-7 0 -7 8l42 334q7 64 -24.5 101t-90.5 37q-63 0 -105 -36.5t-49 -99.5l-41 -336q-2 -8 -9 -8h-14 q-8 0 -6 8l59 485q2 8 9 8h14q8 0 6 -8l-7 -56q0 -5 4 -1q49 72 148 72q52 0 87 -24.5t45 -69.5q0 -1 1 -2t2 2q47 94 163 94z" />
<glyph unicode="n" horiz-adv-x="519" d="M314 508q73 0 112.5 -46.5t30.5 -121.5l-41 -332q0 -8 -9 -8h-13q-9 0 -7 8l40 327q8 64 -25.5 104.5t-95.5 40.5q-65 0 -109.5 -39.5t-52.5 -103.5l-40 -329q-2 -8 -9 -8h-14q-8 0 -6 8l59 485q2 8 9 8h14q8 0 6 -8l-7 -60q0 -5 3 -2q53 77 155 77z" />
<glyph unicode="o" horiz-adv-x="514" d="M237 -8q-67 0 -108.5 36t-49.5 96q-3 38 8 128q10 85 23 125q21 59 72.5 95.5t117.5 36.5q67 0 110.5 -36.5t48.5 -95.5q2 -26 -9 -126q-12 -95 -23 -127q-21 -59 -72 -95.5t-118 -36.5zM240 20q58 0 102 32.5t61 85.5q4 14 18 113q11 97 10 112q-4 53 -40 85.5t-94 32.5 q-59 0 -102.5 -32.5t-59.5 -85.5q-9 -28 -19 -112q-10 -82 -9 -113q3 -53 38.5 -85.5t94.5 -32.5z" />
<glyph unicode="p" horiz-adv-x="525" d="M471 377q3 -27 -8 -125q-12 -94 -23 -128q-20 -59 -70 -95.5t-115 -36.5q-97 0 -131 82q-1 3 -2 1l-1 -2l-33 -264q-2 -8 -9 -8h-13q-9 0 -7 8l84 684q2 8 9 8h13q9 0 7 -8l-8 -64q0 -2 1 -2.5t2 1.5q53 81 152 81q65 0 105 -36t47 -96zM412 134q10 26 21 116 q10 86 9 117q-2 50 -38 82t-92 32q-55 0 -94.5 -32.5t-55.5 -81.5q-9 -28 -20 -116q-10 -83 -7 -117q2 -49 34 -81.5t87 -32.5t98 32.5t58 81.5z" />
<glyph unicode="q" horiz-adv-x="525" d="M436 493q2 8 9 8h13q9 0 7 -8l-84 -684q-2 -8 -9 -8h-13q-9 0 -7 8l32 264v2q-1 2 -3 -1q-54 -82 -151 -82q-65 0 -106.5 36.5t-46.5 95.5q-2 38 9 128q11 91 22 125q21 60 70.5 96t114.5 36q98 0 132 -81q1 -3 2 -1q1 1 1 2zM385 134q10 28 21 117q11 82 9 116 q-4 49 -35.5 81.5t-86.5 32.5q-56 0 -100 -32t-58 -82q-11 -39 -20 -117q-11 -91 -7 -116q3 -49 38 -81.5t90 -32.5t95 32.5t54 81.5z" />
<glyph unicode="r" horiz-adv-x="342" d="M304 505q34 0 56 -12q7 -3 3 -10l-8 -16q-3 -7 -8 -5l-4 2q-19 8 -46 8q-59 0 -103.5 -47t-52.5 -113l-37 -304q-2 -8 -9 -8h-14q-8 0 -6 8l59 485q2 8 9 8h14q8 0 6 -8l-10 -81q0 -2 1 -2.5t2 1.5q55 94 148 94z" />
<glyph unicode="s" horiz-adv-x="458" d="M214 -4q-74 0 -116.5 37t-35.5 90l2 17q0 8 8 8h13q7 0 7 -8l-2 -16q-5 -41 30.5 -71.5t95.5 -30.5q61 0 102.5 30.5t46.5 77.5q3 24 -5 41.5t-26.5 29t-37.5 19.5t-47 17q-9 3 -13 4q-37 12 -57.5 21t-44.5 25t-33.5 38t-5.5 52q7 58 56 93t122 35q74 0 115.5 -36 t34.5 -91l-1 -5q0 -8 -9 -8h-12q-9 0 -7 7l1 6q5 43 -29.5 71.5t-96.5 28.5q-60 0 -100 -27.5t-45 -71.5q-3 -23 4.5 -40t28.5 -30t38 -20t51 -19q29 -9 39.5 -13t34.5 -14t34 -18.5t23 -22.5t16.5 -31.5t0.5 -39.5q-7 -59 -56.5 -97t-123.5 -38z" />
<glyph unicode="t" horiz-adv-x="343" d="M232 28h22q8 0 6 -8l-1 -12q-2 -8 -9 -8h-23q-64 0 -94 27t-22 98l43 346q0 3 -3 3h-62q-7 0 -7 8l2 11q0 8 9 8h62q3 0 3 3l14 116q2 8 9 8h13q8 0 6 -8l-14 -116q0 -3 3 -3h121q7 0 7 -8l-2 -11q0 -8 -8 -8h-122q-3 0 -3 -3l-42 -344q-7 -56 15.5 -77.5t76.5 -21.5z " />
<glyph unicode="u" horiz-adv-x="518" d="M437 493q2 8 9 8h13q9 0 7 -8l-60 -485q0 -8 -8 -8h-14q-7 0 -7 8l8 60q0 5 -4 1q-52 -76 -154 -76q-72 0 -112 44.5t-31 120.5l42 335q0 8 8 8h14q7 0 7 -8l-41 -329q-8 -65 25.5 -104t94.5 -39q66 0 110 39.5t52 103.5z" />
<glyph unicode="v" horiz-adv-x="436" d="M190 0q-6 0 -8 6l-104 486q-2 9 8 9h15q8 0 8 -6l94 -446q2 -4 4 0l202 445q2 7 9 7h16q10 0 6 -9l-224 -486q-2 -6 -9 -6h-17z" />
<glyph unicode="w" horiz-adv-x="663" d="M162 0q-6 0 -8 7l-76 485q0 9 7 9h13q8 0 8 -7l67 -449q2 -4 4 0l180 449q2 7 9 7h15q6 0 8 -7l69 -448q0 -4 4 0l178 448q2 7 9 7h14q9 0 5 -9l-197 -485q-2 -7 -9 -7h-15q-6 0 -8 7l-71 437q-2 4 -4 0l-177 -437q-2 -7 -9 -7h-16z" />
<glyph unicode="x" horiz-adv-x="429" d="M17 0q-11 0 -3 10l195 238q1 2 0 4l-136 239q-5 10 6 10h15q6 0 9 -3q1 -2 1 -3l123 -218q2 -4 4 0l176 219q4 5 11 5h16q11 0 4 -10l-196 -239q-1 -2 0 -4l137 -238q5 -10 -7 -10h-16q-8 0 -9 5l-122 219h-3l-179 -219q-3 -5 -10 -5h-16z" />
<glyph unicode="y" horiz-adv-x="422" d="M16 -200q-6 0 -6 8l2 11q0 8 7 8h7q52 1 77.5 31.5t73.5 139.5q1 1 1 4l-109 490q-2 9 8 9h14q7 0 8 -6l97 -451q2 -4 4 0l206 451q3 6 10 6h13q10 0 6 -9l-256 -551q-41 -90 -71 -115.5t-85 -25.5h-7z" />
<glyph unicode="z" horiz-adv-x="424" d="M26 0q-7 0 -7 8l2 15q1 5 4 9l363 437q4 4 -1 4h-300q-7 0 -7 8l2 12q0 8 9 8h328q9 0 7 -8l-2 -15q0 -5 -4 -9l-363 -437q-2 -4 2 -4h300q9 0 7 -8l-1 -12q-2 -8 -9 -8h-330z" />
<glyph unicode="{" horiz-adv-x="251" d="M135 -106q-45 0 -61.5 25t-9.5 83l28 223q10 81 -36 91q-6 2 -6 8l2 13q1 7 8 8q47 10 57 90l27 216q7 58 29.5 83t68.5 25h45q9 0 7 -8l-2 -12q0 -8 -8 -8h-44q-30 0 -46 -19t-21 -62l-26 -212q-10 -83 -56 -105q-4 -2 0 -4q40 -25 29 -107l-27 -219q-5 -43 6.5 -62 t41.5 -19h43q9 0 7 -8l-1 -12q-2 -8 -9 -8h-46z" />
<glyph unicode="|" horiz-adv-x="140" d="M34 -80q-9 0 -7 8l101 824q2 8 9 8h14q8 0 6 -8l-101 -824q0 -8 -9 -8h-13z" />
<glyph unicode="}" horiz-adv-x="251" d="M51 -106h-46q-8 0 -6 8l1 12q2 8 9 8h44q30 0 46 19t21 62l27 219q10 82 55 107q4 2 1 4q-40 21 -30 105l26 212q5 43 -6 62t-41 19h-44q-7 0 -7 8l2 12q0 8 9 8h45q45 0 61.5 -25t9.5 -83l-26 -216q-10 -80 35 -90q7 -1 6 -8l-1 -13q-1 -7 -9 -8q-47 -10 -57 -91 l-27 -223q-8 -58 -30.5 -83t-67.5 -25z" />
<glyph unicode="~" horiz-adv-x="467" d="M339 249q-8 0 -15 0.5t-14 2.5t-11.5 3t-12 4.5t-10.5 4t-11 5.5t-9 5.5t-10 6.5l-9 6q-38 23 -72 23q-51 0 -85 -44q-5 -8 -11 -3l-6 5q-5 4 -1 11q38 60 107 60q38 0 82 -27q19 -12 27 -16.5t27 -11t39 -6.5q22 0 38 10.5t37 32.5q5 7 11 2l7 -5q5 -6 0 -11 q-44 -58 -98 -58z" />
<glyph unicode="&#xa1;" horiz-adv-x="300" d="M214 708q18 0 29.5 -13t9.5 -31t-17 -30.5t-33 -12.5q-17 0 -28 12.5t-9 30.5q2 19 16 31.5t32 12.5zM176 484q1 8 9 8h11q8 0 7 -8l-56 -463q-1 -8 -9 -8h-13q-8 0 -7 8z" />
<glyph unicode="&#xa2;" horiz-adv-x="495" d="M416 219q1 2 1 4q1 2 1 4q1 5 9 5l13 -1q6 -1 6 -7q-1 -2 -1 -4q-3 -10 -5 -16q-18 -52 -69.5 -86.5t-116.5 -35.5q-2 0 -4 -3l-8 -71q-2 -8 -9 -8h-12q-7 0 -7 8l9 73q0 3 -2 3q-54 7 -87 42t-40 88q-7 43 4 128q9 72 27 125q19 53 61 88t98 42q3 0 3 3l9 73q2 8 9 8h11 q9 0 7 -8l-9 -71q0 -3 3 -3q65 -1 108 -36t49 -86q1 -9 1 -27q1 -7 -8 -9l-13 -1q-8 -1 -8 7l-1 16q-4 46 -40.5 77t-93.5 31q-59 0 -102.5 -32.5t-59.5 -85.5q-13 -40 -22 -112q-8 -66 -6 -113q4 -54 39 -86t94 -32t104 31.5t58 77.5z" />
<glyph unicode="&#xa3;" horiz-adv-x="585" d="M166 31q-4 -4 1 -4h357q9 0 7 -8l-1 -11q-2 -8 -9 -8h-395q-7 0 -7 8l2 12q0 6 7 10q27 14 47.5 51.5t26.5 84.5l18 152q2 3 -2 3h-81q-8 0 -6 8l1 10q0 8 9 8h80q3 0 3 3l22 174q10 83 61.5 131.5t132.5 52.5q125 6 149 -119q2 -8 -7 -10l-13 -3q-7 -2 -9 6 q-21 103 -122 99q-70 -3 -112 -43t-51 -113l-22 -175q0 -3 3 -3h193q7 0 7 -8l-1 -10q-2 -8 -9 -8h-193q-3 0 -3 -3l-19 -149q-11 -92 -65 -138z" />
<glyph unicode="&#xa4;" horiz-adv-x="475" d="M433 300q-9 -67 -58 -118q-2 -2 0 -4l57 -66q5 -5 -2 -11l-9 -8q-6 -5 -11 0l-57 66q-1 3 -4 0q-54 -43 -120 -43q-62 0 -106 39q-2 2 -4 0l-70 -62q-6 -6 -10 0l-8 8q-7 5 1 11l69 62q2 2 0 4q-39 53 -30 122q7 66 56 120q2 2 1 4l-56 65q-6 6 1 12l10 8q5 5 11 0 l55 -66q2 -2 5 0q54 43 120 43q67 0 115 -46q1 -1 4 0l74 68q7 6 12 1l7 -8q6 -5 -1 -12l-76 -69q-3 -2 -1 -4q32 -52 25 -116zM98 300q-8 -64 31.5 -110.5t102.5 -46.5t114 46.5t58 110.5q8 65 -31 111.5t-102 46.5q-64 0 -114.5 -46.5t-58.5 -111.5z" />
<glyph unicode="&#xa5;" horiz-adv-x="669" d="M616 700q4 0 5 -3t-2 -7l-240 -344q-2 -4 2 -4h131q9 0 7 -8l-1 -7q0 -8 -8 -8h-138q-3 0 -3 -3l-13 -101q0 -3 3 -3h137q9 0 7 -8l-1 -8q0 -8 -8 -8h-138q-3 0 -3 -3l-22 -177q-2 -8 -9 -8h-14q-8 0 -6 8l21 177q1 3 -2 3h-144q-8 0 -6 8l1 8q0 8 8 8h144q3 0 3 3 l12 101q1 3 -2 3h-144q-8 0 -6 8v7q2 8 9 8h138q4 0 2 4l-155 344q-2 4 -0.5 7t6.5 3h13q6 0 9 -5l149 -330q2 -4 4 0l231 330q3 5 9 5h14z" />
<glyph unicode="&#xa6;" horiz-adv-x="140" d="M92 395q-7 0 -7 8l43 349q2 8 9 8h14q8 0 6 -8l-43 -349q0 -8 -8 -8h-14zM34 -80q-9 0 -7 8l43 349q2 8 9 8h13q9 0 7 -8l-43 -349q0 -8 -9 -8h-13z" />
<glyph unicode="&#xa7;" horiz-adv-x="421" d="M169 -207q-62 0 -93.5 43t-22.5 118l1 14q2 8 9 8h14q8 0 6 -8l-1 -13q-7 -62 18 -98.5t73 -36.5t83 36.5t42 90.5q4 33 -5 57.5t-29.5 39t-36 21.5t-40.5 15q-81 27 -102 78q-15 42 -8 87q6 55 36 96q40 51 95 63q4 1 1 3q-43 16 -67.5 57t-17.5 92q7 62 51.5 106.5 t106.5 44.5q60 0 92.5 -42t25.5 -108l-2 -14q0 -8 -8 -8h-14q-7 0 -7 8l2 13q7 54 -19 89t-73 35q-49 0 -85 -38t-42 -90q-12 -92 111 -135q66 -22 91 -63q24 -37 17 -101q-8 -59 -36 -100q-37 -54 -89 -61q-4 -2 0 -3q43 -17 65.5 -54t16.5 -91q-8 -64 -53 -107.5 t-106 -43.5zM206 112q70 0 107 55q21 29 28 80q6 60 -14 90q-30 46 -86 46q-65 0 -109 -64q-21 -33 -27 -77q-5 -47 8 -74q30 -56 93 -56z" />
<glyph unicode="&#xa8;" horiz-adv-x="283" d="M124 617q-14 0 -23 9t-7 23q1 13 12.5 22.5t25.5 9.5q13 0 21 -9t6 -23t-12 -23t-23 -9zM274 617q-14 0 -22.5 9.5t-6.5 22.5q1 13 11.5 22.5t24.5 9.5t22.5 -9t6.5 -23t-12.5 -23t-23.5 -9z" />
<glyph unicode="&#xa9;" horiz-adv-x="872" d="M415 -8q-152 0 -239 101.5t-68 253.5q19 156 130.5 258.5t264.5 102.5t240 -102.5t68 -258.5q-19 -152 -131 -253.5t-265 -101.5zM418 17q142 0 246 94.5t121 235.5q17 145 -63 240.5t-222 95.5t-245.5 -95.5t-121.5 -240.5q-17 -141 63 -235.5t222 -94.5zM438 168 q-45 0 -68.5 26.5t-18.5 70.5l21 170q5 42 35 68.5t75 26.5t69.5 -26t18.5 -69v-4q-2 -9 -9 -8l-9 1q-9 2 -7 8l1 6q4 31 -15 49.5t-52 18.5q-34 0 -56.5 -18.5t-26.5 -49.5l-22 -177q-4 -31 14.5 -50t52.5 -19q32 0 55.5 19t27.5 50v4q2 7 9 9l10 1q4 1 6 -1t1 -4l-1 -6 q-5 -43 -36 -69.5t-75 -26.5z" />
<glyph unicode="&#xaa;" horiz-adv-x="312" d="M210 561h76q3 0 3 3l4 33q6 40 -13 64t-63 24q-33 0 -57.5 -15t-33.5 -39q-3 -8 -10 -7l-10 1q-8 2 -5 9q11 34 43.5 54t77.5 20q54 0 79 -29.5t19 -80.5l-27 -219q-2 -8 -9 -8h-10q-9 0 -7 8l3 29l-1 2l-2 -1q-37 -43 -109 -43q-44 0 -71.5 22.5t-21.5 68.5 q6 49 44.5 76.5t100.5 27.5zM163 389q44 0 77 21.5t38 62.5l8 62q0 3 -3 3h-76q-49 0 -80.5 -20.5t-36.5 -58.5q-4 -34 16.5 -52t56.5 -18zM42 279q2 8 9 8h231q8 0 6 -8l-1 -10q0 -8 -9 -8h-230q-9 0 -7 8z" />
<glyph unicode="&#xab;" horiz-adv-x="541" d="M272 117q3 -4 1.5 -7t-6.5 -3h-11q-7 0 -10 4l-119 164q-4 5 1 12l160 164q3 4 10 4h12q11 0 3 -10l-158 -162q-1 -2 0 -4zM419 117q6 -10 -5 -10h-12q-8 0 -9 4l-120 164q-3 7 2 12l160 164q3 4 10 4h11q5 0 6 -3t-3 -7l-158 -162q-1 -2 0 -4z" />
<glyph unicode="&#xac;" horiz-adv-x="493" d="M64 326q2 8 9 8h391q7 0 7 -8l-17 -136q-2 -8 -9 -8h-12q-9 0 -7 8l14 114q0 3 -3 3h-367q-9 0 -7 8z" />
<glyph unicode="&#xad;" horiz-adv-x="374" d="M70 306q-9 0 -7 8l1 12q2 8 9 8h272q8 0 6 -8l-1 -12q-2 -8 -9 -8h-271z" />
<glyph unicode="&#xae;" horiz-adv-x="441" d="M290 716q77 0 124.5 -56t37.5 -135q-10 -80 -71 -135.5t-138 -55.5q-78 0 -126 56t-38 135t71.5 135t139.5 56zM246 357q68 0 121.5 49t61.5 119q8 69 -33.5 118t-108.5 49q-68 0 -122 -49t-63 -118q-8 -70 33.5 -119t110.5 -49zM327 561q-4 -34 -33 -45q-4 -2 -2 -4 l21 -67q1 -9 -7 -9h-8q-8 0 -9 6l-20 69q0 2 -3 2h-24q-3 0 -3 -3l-8 -66q-2 -8 -9 -8h-5q-8 0 -6 8l19 159q2 8 9 8h47q21 0 32 -14t9 -36zM252 592q-3 0 -3 -3l-7 -56q0 -3 3 -3h29q28 0 33 31q3 31 -26 31h-29z" />
<glyph unicode="&#xaf;" horiz-adv-x="246" d="M62 603q-8 0 -6 8l1 10q0 8 9 8h230q9 0 7 -8l-1 -10q-2 -8 -9 -8h-231z" />
<glyph unicode="&#xb0;" horiz-adv-x="372" d="M228 496q-64 0 -102.5 45.5t-30.5 110.5q7 66 57 111t114 45q63 0 102 -45t31 -111q-7 -65 -57.5 -110.5t-113.5 -45.5zM231 522q53 0 94 37.5t48 92.5t-25 92.5t-85 37.5t-94 -37.5t-48 -92.5t25 -92.5t85 -37.5z" />
<glyph unicode="&#xb1;" horiz-adv-x="493" d="M283 343q-1 -3 2 -3h180q8 0 6 -8l-1 -11q-2 -8 -9 -8h-179q-3 0 -3 -3l-22 -180q-2 -8 -9 -8h-11q-7 0 -7 8l22 180q2 3 -2 3h-180q-8 0 -6 8l1 11q2 8 9 8h179q3 0 3 3l24 190q0 8 9 8h10q9 0 7 -8zM32 0q-7 0 -7 8l2 11q0 8 8 8h391q9 0 7 -8l-1 -11q-2 -8 -9 -8h-391 z" />
<glyph unicode="&#xb2;" horiz-adv-x="307" d="M81 457q-8 0 -6 8l1 10q0 4 4 10q100 111 155 176q64 73 70 119q4 34 -16 55.5t-58 21.5q-37 0 -62 -21.5t-29 -56.5l-2 -18q-2 -8 -9 -8h-11q-9 0 -7 8l2 20q7 46 40.5 73.5t80.5 27.5q49 0 76 -28.5t21 -73.5q-6 -52 -72 -129q-10 -12 -145 -166q-4 -4 1 -4h187 q8 0 6 -8l-1 -8q0 -8 -8 -8h-218z" />
<glyph unicode="&#xb3;" horiz-adv-x="311" d="M310 663q13 -35 7 -82q-6 -46 -24 -74q-34 -57 -103 -57q-39 0 -63 22t-31 59q-2 15 0 40q2 8 9 8h12q8 0 6 -8q-2 -21 -1 -31q2 -29 21 -47t50 -18q49 0 77 43q15 23 21 63q4 43 -6 71q-17 41 -65 41q-4 0 -16 -2q-6 -1 -9 3l-3 5q-6 6 0 12l121 136q2 4 -2 4h-171 q-8 0 -6 8l1 8q0 8 8 8h200q9 0 7 -8l-1 -10q-2 -6 -4 -10l-111 -128q-2 -4 1 -4q57 -3 75 -52z" />
<glyph unicode="&#xb4;" horiz-adv-x="169" d="M95 580q-4 0 -5.5 3t1.5 7l77 114q4 6 9 6h15q10 0 4 -10l-80 -115q-3 -5 -9 -5h-12z" />
<glyph unicode="&#xb5;" horiz-adv-x="527" d="M446 493q0 8 8 8h14q7 0 7 -8l-60 -485q0 -8 -9 -8h-13q-9 0 -7 8l7 60q1 2 0 2.5t-3 -1.5q-52 -76 -154 -76q-86 0 -123 59q-4 4 -4 -1l-30 -243q0 -8 -8 -8h-14q-7 0 -7 8l84 685q2 8 9 8h14q8 0 6 -8l-40 -329q-8 -65 25.5 -104t94.5 -39q66 0 110 39.5t52 103.5z" />
<glyph unicode="&#xb6;" horiz-adv-x="532" d="M302 700h180q8 0 6 -8l-108 -884q-2 -8 -9 -8h-9q-9 0 -7 8l106 863q0 3 -3 3h-142q-2 0 -4 -3l-106 -863q0 -8 -8 -8h-11q-7 0 -7 8l54 439q0 3 -2 3q-75 3 -118.5 68t-32.5 157q11 93 76 159t145 66z" />
<glyph unicode="&#xb7;" horiz-adv-x="87" d="M3 6q-19 0 -30 13t-9 31t17 30.5t32 12.5q18 0 29.5 -12.5t9.5 -30.5t-17 -31t-32 -13z" />
<glyph unicode="&#xb8;" horiz-adv-x="119" d="M-34 -180q-7 2 -4 10l3 8q2 8 10 6q65 -15 83 40q15 52 -38 106q-4 4 -3 7t6 3h8q5 0 9 -3q64 -56 43 -121q-13 -39 -46 -51t-71 -5z" />
<glyph unicode="&#xb9;" horiz-adv-x="174" d="M175 874q2 2 4 2q3 1 8 1h15q7 0 7 -8l-50 -404q-2 -8 -9 -8h-11q-9 0 -7 8l46 378q0 3 -2 3l-43 -12q-8 -3 -8 6l1 6q2 7 7 10z" />
<glyph unicode="&#xba;" horiz-adv-x="324" d="M189 367q-43 0 -69.5 23.5t-32.5 64.5q-4 23 3 83q9 64 16 82q14 40 47.5 64t76.5 24q44 0 71.5 -24t32.5 -63q3 -19 -5 -83q-9 -68 -15 -83q-14 -39 -48 -63.5t-77 -24.5zM192 391q35 0 61.5 20.5t37.5 53.5q6 21 13 73q7 59 5 72q-4 34 -25 54t-56 20t-61.5 -20 t-37.5 -54q-6 -18 -13 -72q-6 -55 -5 -73q4 -34 25 -54t56 -20zM58 261q-7 0 -7 8l2 10q0 8 8 8h233q9 0 7 -8l-1 -10q-2 -8 -9 -8h-233z" />
<glyph unicode="&#xbb;" horiz-adv-x="541" d="M116 107q-11 0 -3 10l158 162q1 2 0 4l-117 162q-3 4 -1.5 7t6.5 3h11q7 0 10 -4l119 -164q3 -6 -1 -12l-160 -164q-4 -4 -10 -4h-12zM262 107q-4 0 -5 3t3 7l157 162q2 2 1 4l-118 162q-6 10 5 10h12q6 0 9 -4l120 -164q3 -6 -2 -12l-160 -164q-3 -4 -10 -4h-12z" />
<glyph unicode="&#xbc;" horiz-adv-x="756" d="M137 288q0 -8 -9 -8h-11q-9 0 -7 8l46 378q2 3 -2 3l-42 -12q-4 -1 -6.5 0.5t-1.5 5.5v6q2 8 8 10l41 18l4 2q3 1 8 1h15q7 0 7 -8zM600 695q4 5 10 5h10q5 0 6.5 -3t-1.5 -7l-516 -685q-3 -5 -9 -5h-11q-5 0 -6 3t2 7zM707 143q9 0 7 -8l-1 -9q-2 -8 -9 -8h-21 q-3 0 -3 -3l-14 -107q0 -8 -8 -8h-11q-7 0 -7 8l13 107q1 3 -2 3h-170q-7 0 -7 8l1 9q3 8 4 10l155 269q3 6 10 6h11q9 0 5 -9l-153 -264q-2 -4 1 -4h146q3 0 3 3l13 102q0 8 8 8h11q7 0 7 -8l-13 -102q0 -3 3 -3h21z" />
<glyph unicode="&#xbd;" horiz-adv-x="753" d="M137 288q0 -8 -9 -8h-11q-9 0 -7 8l46 378q2 3 -2 3l-42 -12q-4 -1 -6.5 0.5t-1.5 5.5v6q2 8 8 10l41 18l4 2q3 1 8 1h15q7 0 7 -8zM600 695q4 5 10 5h10q5 0 6.5 -3t-1.5 -7l-516 -685q-3 -5 -9 -5h-11q-5 0 -6 3t2 7zM504 28q-4 -4 1 -4h187q8 0 6 -8l-1 -8q0 -8 -8 -8 h-218q-8 0 -6 8l1 10q0 5 5 10q119 135 154 176q64 74 70 119q4 34 -16 55.5t-58 21.5q-37 0 -62 -21.5t-29 -56.5l-2 -18q0 -8 -9 -8h-11q-9 0 -7 8l2 20q7 46 40.5 73.5t80.5 27.5q49 0 76 -28.5t22 -73.5q-7 -53 -73 -129q-10 -12 -145 -166z" />
<glyph unicode="&#xbe;" horiz-adv-x="857" d="M273 340q-34 -57 -103 -57q-39 0 -63.5 22t-30.5 59q-2 15 0 40q0 8 9 8h11q9 0 7 -8q-2 -20 -2 -31q2 -29 21.5 -47t50.5 -18q49 0 77 43q16 28 20 63q6 43 -6 71q-15 41 -65 41q-5 0 -15 -2q-6 -1 -10 3l-3 5q-5 8 1 12l120 136q2 4 -1 4h-171q-9 0 -7 8l1 8q2 8 9 8 h200q8 0 6 -8l-1 -10q0 -4 -4 -10l-111 -128q-2 -4 1 -4q58 -3 76 -52q12 -33 6 -82q-4 -45 -23 -74zM701 695q4 5 10 5h10q11 0 5 -10l-516 -685q-2 -5 -9 -5h-11q-4 0 -5.5 3t1.5 7zM808 143q7 0 7 -8l-1 -9q-2 -8 -9 -8h-21q-2 0 -4 -3l-13 -107q0 -8 -8 -8h-11 q-9 0 -7 8l13 107q0 3 -2 3h-170q-7 0 -7 8l1 9q0 1 1 5t2 5l156 269q3 6 10 6h11q9 0 5 -9l-153 -264q-2 -4 1 -4h146q3 0 3 3l13 102q0 8 8 8h11q7 0 7 -8l-13 -102q0 -3 3 -3h21z" />
<glyph unicode="&#xbf;" horiz-adv-x="412" d="M263 495q18 0 28.5 -12.5t8.5 -30.5t-16.5 -30.5t-31.5 -12.5t-28.5 12.5t-9.5 30.5t17 30.5t32 12.5zM250 313q7 0 7 -8l-10 -76q-4 -34 -24 -61t-46 -47t-52 -40.5t-46.5 -53t-25.5 -73.5q-8 -61 22.5 -98t89.5 -37t99.5 37t47.5 97l5 40q2 8 9 8h14q8 0 6 -8l-5 -40 q-8 -73 -58 -117.5t-121 -44.5q-72 0 -110 45t-28 120q6 47 26.5 83t47 58t52 41t45 42t22.5 50l10 75q0 8 8 8h15z" />
<glyph unicode="&#xc0;" horiz-adv-x="552" d="M359 789q4 -10 -7 -10h-12q-5 0 -8 5l-51 115q-4 10 6 10h15q4 0 8 -6zM474 0q-6 0 -8 7l-28 143q1 1 -0.5 1.5t-2.5 0.5h-318q-4 0 -4 -2l-64 -143q-2 -7 -9 -7h-14q-10 0 -5 9l303 684q2 7 9 7h18q6 0 8 -7l136 -684q2 -9 -8 -9h-13zM126 182q-2 -3 3 -3h299q4 0 4 3 l-93 475q-2 4 -4 0z" />
<glyph unicode="&#xc1;" horiz-adv-x="552" d="M428 909q11 0 3 -10l-79 -115q-3 -5 -9 -5h-12q-4 0 -5.5 3t1.5 7l77 114q4 6 9 6h15zM474 0q-6 0 -8 7l-28 143q1 1 -0.5 1.5t-2.5 0.5h-318q-4 0 -4 -2l-64 -143q-2 -7 -9 -7h-14q-10 0 -5 9l303 684q2 7 9 7h18q6 0 8 -7l136 -684q2 -9 -8 -9h-13zM126 182q-2 -3 3 -3 h299q4 0 4 3l-93 475q-2 4 -4 0z" />
<glyph unicode="&#xc2;" horiz-adv-x="552" d="M365 869q-2 4 -4 0l-85 -95q-3 -5 -10 -5h-13q-11 0 -3 10l97 110q3 5 10 5h15q6 0 9 -5l70 -110q5 -10 -5 -10h-14q-7 0 -9 5zM474 0q-6 0 -8 7l-28 143q1 1 -0.5 1.5t-2.5 0.5h-318q-4 0 -4 -2l-64 -143q-2 -7 -9 -7h-14q-10 0 -5 9l303 684q2 7 9 7h18q6 0 8 -7 l136 -684q2 -9 -8 -9h-13zM126 182q-2 -3 3 -3h299q4 0 4 3l-93 475q-2 4 -4 0z" />
<glyph unicode="&#xc3;" horiz-adv-x="552" d="M317 847q-32 0 -57 -30q-5 -8 -12 -3l-6 5q-5 5 0 11q34 43 78 43q21 0 54 -23q28 -22 45 -22q34 0 58 33q6 7 11 3l6 -3q7 -5 2 -11q-33 -49 -80 -49q-27 0 -55 24q-26 22 -44 22zM474 0q-6 0 -8 7l-28 143q1 1 -0.5 1.5t-2.5 0.5h-318q-4 0 -4 -2l-64 -143q-2 -7 -9 -7 h-14q-10 0 -5 9l303 684q2 7 9 7h18q6 0 8 -7l136 -684q2 -9 -8 -9h-13zM126 182q-2 -3 3 -3h299q4 0 4 3l-93 475q-2 4 -4 0z" />
<glyph unicode="&#xc4;" horiz-adv-x="552" d="M283 816q-15 0 -23.5 9t-6.5 23t12.5 23t24.5 9q13 0 21.5 -9t6.5 -23t-12 -23t-23 -9zM432 816q-14 0 -22 9.5t-7 22.5q2 14 12.5 23t24.5 9q13 0 21.5 -9t6.5 -23q-1 -13 -11.5 -22.5t-24.5 -9.5zM474 0q-6 0 -8 7l-28 143q1 1 -0.5 1.5t-2.5 0.5h-318q-4 0 -4 -2 l-64 -143q-2 -7 -9 -7h-14q-10 0 -5 9l303 684q2 7 9 7h18q6 0 8 -7l136 -684q2 -9 -8 -9h-13zM126 182q-2 -3 3 -3h299q4 0 4 3l-93 475q-2 4 -4 0z" />
<glyph unicode="&#xc5;" horiz-adv-x="552" d="M351 773q-41 0 -65.5 28.5t-19.5 69.5t37 69.5t72 28.5t64.5 -29t19.5 -69q-5 -41 -36.5 -69.5t-71.5 -28.5zM372 945q-30 0 -54 -21.5t-28 -52.5t15 -52.5t49 -21.5t54 21.5t28 52.5t-15 52.5t-49 21.5zM474 0q-6 0 -8 7l-28 143q1 1 -0.5 1.5t-2.5 0.5h-318q-4 0 -4 -2 l-64 -143q-2 -7 -9 -7h-14q-10 0 -5 9l303 684q2 7 9 7h18q6 0 8 -7l136 -684q2 -9 -8 -9h-13zM126 182q-2 -3 3 -3h299q4 0 4 3l-93 475q-2 4 -4 0z" />
<glyph unicode="&#xc6;" horiz-adv-x="871" d="M868 680q0 -8 -9 -8h-345q-3 0 -3 -3l-37 -301q0 -3 2 -3h240q7 0 7 -8l-2 -12q0 -8 -8 -8h-240q-3 0 -3 -3l-37 -303q-1 -3 2 -3h345q9 0 7 -8l-1 -12q-2 -8 -9 -8h-370q-8 0 -6 8l17 141q0 3 -3 3h-266q-2 0 -4 -2l-92 -144q-3 -6 -9 -6h-17q-5 0 -6 3t2 7l441 684 q4 6 10 6h389q7 0 7 -8zM167 183q-2 -4 1 -4h251q3 0 3 3l59 484v2q-2 3 -3 -1z" />
<glyph unicode="&#xc7;" horiz-adv-x="588" d="M554 496q-2 -6 -9 -6l-14 -1q-8 0 -6 7v6q10 80 -34.5 129t-127.5 49q-84 0 -140.5 -49t-66.5 -129l-38 -304q-10 -80 35 -129.5t129 -49.5q83 0 139.5 49.5t66.5 129.5v4q2 8 9 8l14 -1q7 0 7 -4l-1 -5q-11 -94 -77 -151.5t-162 -57.5h-18h-2q-1 -1 1 -3q60 -55 38 -117 q-12 -39 -45 -51t-71 -5q-7 1 -5 10l3 8q3 8 11 6q65 -15 82 40q16 51 -37 106q-2 2 -4 4.5t-3 4t0 1.5q-7 2 -9 3q-69 17 -104 71t-25 132l37 300q11 93 76.5 150t162.5 57q96 0 148 -57t40 -150v-5z" />
<glyph unicode="&#xc8;" horiz-adv-x="599" d="M400 799q4 -10 -7 -10h-12q-5 0 -8 5l-51 115q-4 10 6 10h15q4 0 8 -6zM596 680q-2 -8 -9 -8h-382q-3 0 -4 -3l-37 -301q0 -3 3 -3h276q9 0 7 -8l-1 -12q-2 -8 -9 -8h-276q-2 0 -4 -3l-37 -303q0 -3 3 -3h382q7 0 7 -8l-2 -12q0 -8 -9 -8h-406q-7 0 -7 8l84 684q2 8 9 8 h406q9 0 7 -8z" />
<glyph unicode="&#xc9;" horiz-adv-x="599" d="M469 919q11 0 3 -10l-79 -115q-3 -5 -9 -5h-12q-4 0 -5.5 3t1.5 7l77 114q4 6 9 6h15zM596 680q-2 -8 -9 -8h-382q-3 0 -4 -3l-37 -301q0 -3 3 -3h276q9 0 7 -8l-1 -12q-2 -8 -9 -8h-276q-2 0 -4 -3l-37 -303q0 -3 3 -3h382q7 0 7 -8l-2 -12q0 -8 -9 -8h-406q-7 0 -7 8 l84 684q2 8 9 8h406q9 0 7 -8z" />
<glyph unicode="&#xca;" horiz-adv-x="599" d="M406 879q-2 4 -4 0l-85 -95q-3 -5 -10 -5h-13q-11 0 -3 10l97 110q3 5 10 5h15q6 0 9 -5l70 -110q5 -10 -5 -10h-14q-7 0 -9 5zM596 680q-2 -8 -9 -8h-382q-3 0 -4 -3l-37 -301q0 -3 3 -3h276q9 0 7 -8l-1 -12q-2 -8 -9 -8h-276q-2 0 -4 -3l-37 -303q0 -3 3 -3h382 q7 0 7 -8l-2 -12q0 -8 -9 -8h-406q-7 0 -7 8l84 684q2 8 9 8h406q9 0 7 -8z" />
<glyph unicode="&#xcb;" horiz-adv-x="599" d="M324 826q-15 0 -23.5 9t-6.5 23t12.5 23t24.5 9q13 0 21.5 -9t6.5 -23t-12 -23t-23 -9zM473 826q-14 0 -22 9.5t-7 22.5q2 14 12.5 23t24.5 9q13 0 21.5 -9t6.5 -23q-1 -13 -11.5 -22.5t-24.5 -9.5zM596 680q-2 -8 -9 -8h-382q-3 0 -4 -3l-37 -301q0 -3 3 -3h276 q9 0 7 -8l-1 -12q-2 -8 -9 -8h-276q-2 0 -4 -3l-37 -303q0 -3 3 -3h382q7 0 7 -8l-2 -12q0 -8 -9 -8h-406q-7 0 -7 8l84 684q2 8 9 8h406q9 0 7 -8z" />
<glyph unicode="&#xcc;" horiz-adv-x="248" d="M209 799q1 -4 -1 -7t-6 -3h-12q-6 0 -8 5l-51 115q-4 10 6 10h15q4 0 8 -6zM98 0q-7 0 -7 8l84 684q2 8 9 8h13q9 0 7 -8l-84 -684q0 -8 -8 -8h-14z" />
<glyph unicode="&#xcd;" horiz-adv-x="248" d="M181 789q-5 0 -6 3t2 7l77 114q4 6 9 6h15q11 0 3 -10l-79 -115q-3 -5 -9 -5h-12zM98 0q-7 0 -7 8l84 684q2 8 9 8h13q9 0 7 -8l-84 -684q0 -8 -8 -8h-14z" />
<glyph unicode="&#xce;" horiz-adv-x="248" d="M102 779q-10 0 -2 10l97 110q3 5 10 5h15q6 0 9 -5l70 -110q5 -10 -6 -10h-13q-7 0 -9 5l-58 95q-2 4 -4 0l-85 -95q-3 -5 -10 -5h-14zM98 0q-7 0 -7 8l84 684q2 8 9 8h13q9 0 7 -8l-84 -684q0 -8 -8 -8h-14z" />
<glyph unicode="&#xcf;" horiz-adv-x="248" d="M132 826q-14 0 -23 9t-7 23t13 23t25 9t21.5 -9.5t5.5 -22.5q-2 -14 -12 -23t-23 -9zM282 826q-14 0 -22.5 9t-6.5 23t12.5 23t24.5 9q13 0 21.5 -9t6.5 -23q-1 -13 -11.5 -22.5t-24.5 -9.5zM98 0q-7 0 -7 8l84 684q2 8 9 8h13q9 0 7 -8l-84 -684q0 -8 -8 -8h-14z" />
<glyph unicode="&#xd0;" horiz-adv-x="670" d="M477 700q88 0 133 -48.5t35 -133.5l-42 -336q-10 -84 -67 -133t-145 -49h-222q-9 0 -7 8l42 342q0 3 -3 3h-60q-8 0 -6 8l1 10q0 8 9 8h60q3 0 3 3l38 310q2 8 9 8h222zM574 183l41 333q9 73 -28.5 114.5t-111.5 41.5h-199q-2 0 -4 -3l-35 -287q0 -3 3 -3h139q9 0 7 -8 l-1 -10q-2 -8 -9 -8h-140q-3 0 -3 -3l-39 -319q0 -3 2 -3h200q74 0 122 41.5t56 113.5z" />
<glyph unicode="&#xd1;" horiz-adv-x="662" d="M473 811q-26 0 -54 24q-26 22 -44 22q-32 0 -57 -30q-7 -8 -12 -3l-6 5q-5 4 -1 11q35 43 78 43q19 0 55 -23q28 -22 44 -22q33 0 59 33q4 7 11 3l5 -3q7 -4 -1 -16q-32 -44 -77 -44zM98 0q-7 0 -7 8l84 684q2 8 9 8h15q7 0 9 -5l299 -632q1 -2 2.5 -1.5t1.5 2.5l77 628 q2 8 9 8h14q8 0 6 -8l-83 -684q-2 -8 -9 -8h-15q-6 0 -8 5l-301 632q-1 2 -4 -1l-77 -628q0 -8 -8 -8h-14z" />
<glyph unicode="&#xd2;" horiz-adv-x="603" d="M385 797q4 -10 -7 -10h-12q-5 0 -8 5l-51 115q-4 10 6 10h15q4 0 8 -6zM280 -7q-97 0 -149 60.5t-40 158.5l34 275q12 99 79 160t164 61q98 0 151 -61t40 -160l-33 -275q-13 -98 -80.5 -158.5t-165.5 -60.5zM284 20q85 0 143.5 52.5t68.5 138.5l34 277q11 86 -34.5 139 t-130.5 53t-142.5 -53t-68.5 -139l-34 -277q-11 -86 34 -138.5t130 -52.5z" />
<glyph unicode="&#xd3;" horiz-adv-x="603" d="M358 787q-5 0 -6.5 3t1.5 7l77 114q4 6 9 6h15q10 0 4 -10l-79 -115q-5 -5 -10 -5h-11zM280 -7q-97 0 -149 60.5t-40 158.5l34 275q12 99 79 160t164 61q98 0 151 -61t40 -160l-33 -275q-13 -98 -80.5 -158.5t-165.5 -60.5zM284 20q85 0 143.5 52.5t68.5 138.5l34 277 q11 86 -34.5 139t-130.5 53t-142.5 -53t-68.5 -139l-34 -277q-11 -86 34 -138.5t130 -52.5z" />
<glyph unicode="&#xd4;" horiz-adv-x="603" d="M279 777q-11 0 -3 10l97 110q3 5 10 5h15q6 0 9 -5l70 -110q5 -10 -5 -10h-14q-6 0 -9 5l-58 95q-2 4 -4 0l-84 -95q-5 -5 -11 -5h-13zM280 -7q-97 0 -149 60.5t-40 158.5l34 275q12 99 79 160t164 61q98 0 151 -61t40 -160l-33 -275q-13 -98 -80.5 -158.5t-165.5 -60.5z M284 20q85 0 143.5 52.5t68.5 138.5l34 277q11 86 -34.5 139t-130.5 53t-142.5 -53t-68.5 -139l-34 -277q-11 -86 34 -138.5t130 -52.5z" />
<glyph unicode="&#xd5;" horiz-adv-x="603" d="M442 809q-24 0 -55 24q-26 22 -43 22q-32 0 -57 -30q-7 -8 -12 -3l-7 5q-5 5 0 11q34 43 78 43q21 0 54 -23q28 -22 45 -22q34 0 58 33q6 7 11 3l6 -3q6 -5 -2 -16q-32 -44 -76 -44zM280 -7q-97 0 -149 60.5t-40 158.5l34 275q12 99 79 160t164 61q98 0 151 -61t40 -160 l-33 -275q-13 -98 -80.5 -158.5t-165.5 -60.5zM284 20q85 0 143.5 52.5t68.5 138.5l34 277q11 86 -34.5 139t-130.5 53t-142.5 -53t-68.5 -139l-34 -277q-11 -86 34 -138.5t130 -52.5z" />
<glyph unicode="&#xd6;" horiz-adv-x="603" d="M309 824q-15 0 -23.5 9t-6.5 23t12.5 23t25.5 9q13 0 20.5 -9.5t6.5 -22.5t-11.5 -22.5t-23.5 -9.5zM458 824q-14 0 -22 9.5t-7 22.5t12 22.5t25 9.5q13 0 21.5 -9t6.5 -23t-12 -23t-24 -9zM280 -7q-97 0 -149 60.5t-40 158.5l34 275q12 99 79 160t164 61q98 0 151 -61 t40 -160l-33 -275q-13 -98 -80.5 -158.5t-165.5 -60.5zM284 20q85 0 143.5 52.5t68.5 138.5l34 277q11 86 -34.5 139t-130.5 53t-142.5 -53t-68.5 -139l-34 -277q-11 -86 34 -138.5t130 -52.5z" />
<glyph unicode="&#xd7;" horiz-adv-x="396" d="M385 466q5 -6 -1 -12l-142 -130q-3 -2 -1 -4l107 -127q4 -7 -1 -12l-9 -8q-2 -2 -6 -2t-5 2l-108 127q-2 2 -4 0l-142 -130q-2 -2 -5.5 -2t-5.5 2l-6 7q-6 5 1 12l142 130q3 3 1 4l-114 135q-4 6 2 12l7 7q8 6 12 0l115 -134q1 -2 3 0l143 130q2 2 6 2t5 -2z" />
<glyph unicode="&#xd8;" horiz-adv-x="604" d="M496 673q-1 -1 -0.5 -2.5t1.5 -2.5q78 -61 63 -181l-33 -275q-13 -98 -80.5 -158.5t-165.5 -60.5q-80 0 -130 42q-3 1 -4 -1l-33 -59q-2 -6 -10 -6h-12q-8 0 -4 9l41 76v4q-49 58 -37 154l34 275q12 99 79 160t164 61q59 0 102 -23q1 -1 4 2l26 47q4 6 11 6h11q9 0 5 -9z M121 211q-9 -74 23 -123q2 -4 5 1l310 565q1 2 -1 4q-41 22 -92 22q-85 0 -142.5 -53t-68.5 -139zM497 211l34 277q12 101 -48 153q-3 1 -4 -1l-315 -574q-2 -2 1 -4q44 -42 120 -42q85 0 143.5 52.5t68.5 138.5z" />
<glyph unicode="&#xd9;" horiz-adv-x="639" d="M404 801q4 -10 -7 -10h-12q-5 0 -8 5l-51 115q-4 10 6 10h15q4 0 8 -6zM299 -8q-98 0 -151 59t-41 156l59 485q2 8 9 8h14q7 0 7 -8l-60 -488q-10 -82 35.5 -133t130.5 -51q86 0 143.5 50.5t68.5 133.5l60 488q0 8 9 8h13q9 0 7 -8l-60 -485q-11 -97 -78.5 -156 t-165.5 -59z" />
<glyph unicode="&#xda;" horiz-adv-x="639" d="M376 791q-4 0 -5.5 3t1.5 7l77 114q4 6 9 6h15q10 0 4 -10l-80 -115q-3 -5 -9 -5h-12zM299 -8q-98 0 -151 59t-41 156l59 485q2 8 9 8h14q7 0 7 -8l-60 -488q-10 -82 35.5 -133t130.5 -51q86 0 143.5 50.5t68.5 133.5l60 488q0 8 9 8h13q9 0 7 -8l-60 -485 q-11 -97 -78.5 -156t-165.5 -59z" />
<glyph unicode="&#xdb;" horiz-adv-x="639" d="M298 781q-11 0 -3 10l97 110q3 5 10 5h15q6 0 9 -5l70 -110q5 -10 -5 -10h-14q-6 0 -9 5l-58 95q-2 4 -4 0l-84 -95q-5 -5 -11 -5h-13zM299 -8q-98 0 -151 59t-41 156l59 485q2 8 9 8h14q7 0 7 -8l-60 -488q-10 -82 35.5 -133t130.5 -51q86 0 143.5 50.5t68.5 133.5 l60 488q0 8 9 8h13q9 0 7 -8l-60 -485q-11 -97 -78.5 -156t-165.5 -59z" />
<glyph unicode="&#xdc;" horiz-adv-x="639" d="M328 828q-15 0 -23.5 9t-6.5 23t12.5 23t25.5 9q13 0 20.5 -9.5t6.5 -22.5q-2 -14 -12 -23t-23 -9zM477 828q-14 0 -22 9.5t-7 22.5q2 14 12.5 23t24.5 9q13 0 21.5 -9t6.5 -23q-1 -13 -11.5 -22.5t-24.5 -9.5zM299 -8q-98 0 -151 59t-41 156l59 485q2 8 9 8h14q7 0 7 -8 l-60 -488q-10 -82 35.5 -133t130.5 -51q86 0 143.5 50.5t68.5 133.5l60 488q0 8 9 8h13q9 0 7 -8l-60 -485q-11 -97 -78.5 -156t-165.5 -59z" />
<glyph unicode="&#xdd;" horiz-adv-x="522" d="M317 778q-11 0 -5 10l77 114q4 6 10 6h14q10 0 4 -10l-79 -115q-5 -5 -10 -5h-11zM235 0q-9 0 -7 8l40 324q0 2 -1 4l-160 354q-4 10 6 10h14q5 0 8 -5l149 -330q2 -4 4 0l231 330q3 5 9 5h14q11 0 3 -10l-247 -354q-1 -2 -1 -4l-40 -324q-2 -8 -9 -8h-13z" />
<glyph unicode="&#xde;" horiz-adv-x="543" d="M372 533q79 0 121 -50.5t32 -133.5q-10 -82 -64.5 -132t-134.5 -50h-191q-3 0 -3 -3l-19 -156q-2 -8 -9 -8h-14q-7 0 -7 8l84 684q2 8 9 8h14q7 0 7 -8l-20 -156q0 -3 3 -3h192zM330 194q66 0 111.5 42.5t54.5 112.5q8 70 -27 113t-100 43h-193q-3 0 -3 -3l-37 -305 q-2 -3 2 -3h192z" />
<glyph unicode="&#xdf;" horiz-adv-x="560" d="M81 0q-8 0 -6 8l63 517q11 84 70 134t140 50q94 0 139.5 -46.5t37.5 -131.5q-7 -61 -37.5 -102.5t-78.5 -56.5q-4 -2 0 -4q45 -18 66 -65t13 -115q-12 -89 -71.5 -138.5t-165.5 -49.5h-87q-7 0 -7 8l2 11q0 8 8 8h89q182 0 203 162q20 165 -137 168h-82q-9 0 -7 8l1 10 q2 8 9 8h83q154 0 170 148q14 151 -151 151q-68 0 -118 -41.5t-60 -114.5l-63 -518q-2 -8 -9 -8h-14z" />
<glyph unicode="&#xe0;" d="M317 590q4 -10 -7 -10h-12q-5 0 -8 5l-51 115q-4 10 6 10h15q4 0 8 -6zM436 493q2 8 9 8h13q9 0 7 -8l-60 -485q0 -8 -8 -8h-14q-7 0 -7 8l8 64v2q-1 2 -3 -1q-52 -81 -151 -81q-65 0 -105.5 36t-47.5 96q-3 30 9 125q12 94 22 128q20 59 70 95.5t115 36.5q98 0 132 -82 q1 -3 2 -1q1 1 1 2zM386 134q10 34 20 116q11 88 8 117q-2 49 -34.5 81.5t-86.5 32.5q-55 0 -98 -32t-59 -82q-9 -27 -21 -116q-11 -88 -8 -117q2 -50 37.5 -82t91.5 -32t95.5 32.5t54.5 81.5z" />
<glyph unicode="&#xe1;" d="M386 710q10 0 4 -10l-80 -115q-3 -5 -9 -5h-12q-4 0 -5.5 3t1.5 7l77 114q4 6 9 6h15zM436 493q2 8 9 8h13q9 0 7 -8l-60 -485q0 -8 -8 -8h-14q-7 0 -7 8l8 64v2q-1 2 -3 -1q-52 -81 -151 -81q-65 0 -105.5 36t-47.5 96q-3 30 9 125q12 94 22 128q20 59 70 95.5t115 36.5 q98 0 132 -82q1 -3 2 -1q1 1 1 2zM386 134q10 34 20 116q11 88 8 117q-2 49 -34.5 81.5t-86.5 32.5q-55 0 -98 -32t-59 -82q-9 -27 -21 -116q-11 -88 -8 -117q2 -50 37.5 -82t91.5 -32t95.5 32.5t54.5 81.5z" />
<glyph unicode="&#xe2;" d="M323 670q-2 4 -4 0l-84 -95q-5 -5 -11 -5h-13q-11 0 -3 10l97 110q3 5 10 5h15q6 0 9 -5l70 -110q5 -10 -5 -10h-14q-6 0 -9 5zM436 493q2 8 9 8h13q9 0 7 -8l-60 -485q0 -8 -8 -8h-14q-7 0 -7 8l8 64v2q-1 2 -3 -1q-52 -81 -151 -81q-65 0 -105.5 36t-47.5 96 q-3 30 9 125q12 94 22 128q20 59 70 95.5t115 36.5q98 0 132 -82q1 -3 2 -1q1 1 1 2zM386 134q10 34 20 116q11 88 8 117q-2 49 -34.5 81.5t-86.5 32.5q-55 0 -98 -32t-59 -82q-9 -27 -21 -116q-11 -88 -8 -117q2 -50 37.5 -82t91.5 -32t95.5 32.5t54.5 81.5z" />
<glyph unicode="&#xe3;" d="M276 648q-33 0 -58 -30q-5 -8 -12 -3l-6 5q-5 5 0 11q34 43 78 43q21 0 54 -23q28 -22 45 -22q34 0 58 33q6 7 11 3l6 -3q7 -5 2 -11q-33 -49 -80 -49q-24 0 -55 24q-26 22 -43 22zM436 493q2 8 9 8h13q9 0 7 -8l-60 -485q0 -8 -8 -8h-14q-7 0 -7 8l8 64v2q-1 2 -3 -1 q-52 -81 -151 -81q-65 0 -105.5 36t-47.5 96q-3 30 9 125q12 94 22 128q20 59 70 95.5t115 36.5q98 0 132 -82q1 -3 2 -1q1 1 1 2zM386 134q10 34 20 116q11 88 8 117q-2 49 -34.5 81.5t-86.5 32.5q-55 0 -98 -32t-59 -82q-9 -27 -21 -116q-11 -88 -8 -117q2 -50 37.5 -82 t91.5 -32t95.5 32.5t54.5 81.5z" />
<glyph unicode="&#xe4;" d="M241 617q-15 0 -23.5 9t-6.5 23t12.5 23t25.5 9q13 0 20.5 -9.5t6.5 -22.5q-2 -14 -12 -23t-23 -9zM390 617q-14 0 -22 9.5t-7 22.5q2 14 12.5 23t24.5 9q13 0 21.5 -9t6.5 -23q-1 -13 -11.5 -22.5t-24.5 -9.5zM436 493q2 8 9 8h13q9 0 7 -8l-60 -485q0 -8 -8 -8h-14 q-7 0 -7 8l8 64v2q-1 2 -3 -1q-52 -81 -151 -81q-65 0 -105.5 36t-47.5 96q-3 30 9 125q12 94 22 128q20 59 70 95.5t115 36.5q98 0 132 -82q1 -3 2 -1q1 1 1 2zM386 134q10 34 20 116q11 88 8 117q-2 49 -34.5 81.5t-86.5 32.5q-55 0 -98 -32t-59 -82q-9 -27 -21 -116 q-11 -88 -8 -117q2 -50 37.5 -82t91.5 -32t95.5 32.5t54.5 81.5z" />
<glyph unicode="&#xe5;" d="M309 574q-41 0 -65.5 28.5t-19.5 69.5t37 69.5t72 28.5t64.5 -28.5t19.5 -69.5t-36.5 -69.5t-71.5 -28.5zM330 746q-30 0 -54 -21.5t-28 -52.5t15 -52.5t49 -21.5t54 21.5t28 52.5t-15 52.5t-49 21.5zM436 493q2 8 9 8h13q9 0 7 -8l-60 -485q0 -8 -8 -8h-14q-7 0 -7 8 l8 64v2q-1 2 -3 -1q-52 -81 -151 -81q-65 0 -105.5 36t-47.5 96q-3 30 9 125q12 94 22 128q20 59 70 95.5t115 36.5q98 0 132 -82q1 -3 2 -1q1 1 1 2zM386 134q10 34 20 116q11 88 8 117q-2 49 -34.5 81.5t-86.5 32.5q-55 0 -98 -32t-59 -82q-9 -27 -21 -116 q-11 -88 -8 -117q2 -50 37.5 -82t91.5 -32t95.5 32.5t54.5 81.5z" />
<glyph unicode="&#xe6;" horiz-adv-x="805" d="M195 -8q-67 0 -109 33t-33 104q8 71 65.5 110t151.5 39h121q3 0 3 3l8 63q8 62 -20.5 99.5t-99.5 37.5q-55 0 -93.5 -23.5t-51.5 -64.5q-3 -8 -10 -7l-13 3q-9 2 -6 9q16 50 64.5 80.5t115.5 30.5q122 0 140 -98q2 -3 4 0q23 44 67.5 71t98.5 27q65 0 107 -36.5t47 -95.5 q3 -24 -8 -117q-2 -9 -9 -9h-311q-2 0 -4 -3l-12 -103q-7 -60 31 -92.5t101 -32.5q50 0 89.5 25t60.5 67l2 4q4 5 9 4l10 -2q8 -2 5 -9q-23 -52 -71.5 -84.5t-109.5 -32.5q-59 0 -98 24.5t-49 71.5q-2 4 -3 1q-22 -46 -75 -71.5t-115 -25.5zM424 281q0 -3 3 -3h288q3 0 3 3 q6 68 6 82q-3 53 -38 85.5t-92 32.5q-56 0 -98 -32.5t-58 -85.5q-7 -29 -14 -82zM198 19q67 0 119.5 32t60.5 94l12 103q2 3 -2 3h-122q-77 0 -127 -31t-57 -90q-6 -55 26.5 -83t89.5 -28z" />
<glyph unicode="&#xe7;" horiz-adv-x="495" d="M405 129q1 2 1 4q1 2 1 4q1 5 9 5l13 -1q6 -1 6 -7q-1 -2 -1 -4q-3 -10 -5 -16q-18 -53 -70.5 -87.5t-118.5 -34.5q0 -2 3 -3q58 -54 38 -117q-13 -39 -46 -51t-70 -5q-8 2 -5 10l3 8q3 8 10 6q66 -15 83 40q17 54 -44 113q-2 1 -4 1q-53 9 -85.5 43.5t-39.5 86.5 q-7 43 4 128q9 72 27 125q21 60 72 96t117 36t109.5 -35t50.5 -87q1 -9 1 -27q1 -7 -8 -9l-13 -1q-8 -1 -8 7l-1 16q-4 46 -40.5 77t-93.5 31q-59 0 -102.5 -32.5t-59.5 -85.5q-13 -40 -22 -112q-8 -66 -6 -113q4 -54 39 -86t94 -32t104 31.5t58 77.5z" />
<glyph unicode="&#xe8;" horiz-adv-x="510" d="M315 598q4 -10 -7 -10h-12q-5 0 -8 5l-51 115q-4 10 6 10h15q4 0 8 -6zM240 20q52 0 93 25t62 67l2 4q2 5 7 3h3l10 -2q7 -1 4 -10q-25 -52 -73.5 -83.5t-111.5 -31.5q-66 0 -107 35.5t-49 94.5q-5 34 7 130q11 89 23 124q21 60 71.5 96.5t117.5 36.5q69 0 111.5 -37.5 t47.5 -100.5q2 -28 -9 -119q-2 -8 -9 -8h-322q-3 0 -3 -3q-10 -84 -8 -103q3 -53 38.5 -85.5t94.5 -32.5zM296 481q-59 0 -102 -32.5t-59 -84.5q-8 -24 -16 -91q0 -3 2 -3h298q3 0 3 3q8 64 7 90q-4 53 -39.5 85.5t-93.5 32.5z" />
<glyph unicode="&#xe9;" horiz-adv-x="510" d="M384 718q10 0 4 -10l-79 -115q-5 -5 -10 -5h-11q-5 0 -6.5 3t1.5 7l77 114q4 6 9 6h15zM240 20q52 0 93 25t62 67l2 4q2 5 7 3h3l10 -2q7 -1 4 -10q-25 -52 -73.5 -83.5t-111.5 -31.5q-66 0 -107 35.5t-49 94.5q-5 34 7 130q11 89 23 124q21 60 71.5 96.5t117.5 36.5 q69 0 111.5 -37.5t47.5 -100.5q2 -28 -9 -119q-2 -8 -9 -8h-322q-3 0 -3 -3q-10 -84 -8 -103q3 -53 38.5 -85.5t94.5 -32.5zM296 481q-59 0 -102 -32.5t-59 -84.5q-8 -24 -16 -91q0 -3 2 -3h298q3 0 3 3q8 64 7 90q-4 53 -39.5 85.5t-93.5 32.5z" />
<glyph unicode="&#xea;" horiz-adv-x="510" d="M321 678q-2 4 -4 0l-84 -95q-5 -5 -11 -5h-13q-11 0 -3 10l97 110q3 5 10 5h15q6 0 9 -5l70 -110q5 -10 -5 -10h-14q-6 0 -9 5zM240 20q52 0 93 25t62 67l2 4q2 5 7 3h3l10 -2q7 -1 4 -10q-25 -52 -73.5 -83.5t-111.5 -31.5q-66 0 -107 35.5t-49 94.5q-5 34 7 130 q11 89 23 124q21 60 71.5 96.5t117.5 36.5q69 0 111.5 -37.5t47.5 -100.5q2 -28 -9 -119q-2 -8 -9 -8h-322q-3 0 -3 -3q-10 -84 -8 -103q3 -53 38.5 -85.5t94.5 -32.5zM296 481q-59 0 -102 -32.5t-59 -84.5q-8 -24 -16 -91q0 -3 2 -3h298q3 0 3 3q8 64 7 90 q-4 53 -39.5 85.5t-93.5 32.5z" />
<glyph unicode="&#xeb;" horiz-adv-x="510" d="M239 625q-15 0 -23.5 9t-6.5 23t12.5 23t25.5 9q13 0 20.5 -9.5t6.5 -22.5q-2 -14 -12 -23t-23 -9zM388 625q-14 0 -22 9.5t-7 22.5t12 22.5t25 9.5q13 0 21.5 -9t6.5 -23t-12 -23t-24 -9zM240 20q52 0 93 25t62 67l2 4q2 5 7 3h3l10 -2q7 -1 4 -10q-25 -52 -73.5 -83.5 t-111.5 -31.5q-66 0 -107 35.5t-49 94.5q-5 34 7 130q11 89 23 124q21 60 71.5 96.5t117.5 36.5q69 0 111.5 -37.5t47.5 -100.5q2 -28 -9 -119q-2 -8 -9 -8h-322q-3 0 -3 -3q-10 -84 -8 -103q3 -53 38.5 -85.5t94.5 -32.5zM296 481q-59 0 -102 -32.5t-59 -84.5 q-8 -24 -16 -91q0 -3 2 -3h298q3 0 3 3q8 64 7 90q-4 53 -39.5 85.5t-93.5 32.5z" />
<glyph unicode="&#xec;" horiz-adv-x="203" d="M160 599q4 -10 -7 -10h-12q-5 0 -8 5l-51 115q-4 10 6 10h15q4 0 8 -6zM74 0q-9 0 -7 8l59 485q2 8 9 8h14q7 0 7 -8l-60 -485q-2 -8 -9 -8h-13z" />
<glyph unicode="&#xed;" horiz-adv-x="203" d="M132 589q-4 0 -5.5 3t1.5 7l77 114q4 6 9 6h15q10 0 4 -10l-80 -115q-3 -5 -9 -5h-12zM74 0q-9 0 -7 8l59 485q2 8 9 8h14q7 0 7 -8l-60 -485q-2 -8 -9 -8h-13z" />
<glyph unicode="&#xee;" horiz-adv-x="203" d="M54 579q-11 0 -3 10l97 110q3 5 10 5h15q6 0 9 -5l70 -110q5 -10 -5 -10h-14q-6 0 -9 5l-58 95q-2 4 -4 0l-84 -95q-5 -5 -11 -5h-13zM74 0q-9 0 -7 8l59 485q2 8 9 8h14q7 0 7 -8l-60 -485q-2 -8 -9 -8h-13z" />
<glyph unicode="&#xef;" horiz-adv-x="289" d="M128 626q-14 0 -23 9t-7 23q1 13 12.5 22.5t25.5 9.5q13 0 21 -9t6 -23t-12 -23t-23 -9zM278 626q-14 0 -22.5 9.5t-6.5 22.5q2 14 12.5 23t24.5 9q13 0 21.5 -9t6.5 -23t-12.5 -23t-23.5 -9zM121 0q-7 0 -7 8l60 485q2 8 9 8h13q9 0 7 -8l-59 -485q-2 -8 -9 -8h-14z" />
<glyph unicode="&#xf0;" horiz-adv-x="502" d="M437 249q-12 -100 -21 -126q-21 -59 -71.5 -95t-115.5 -36t-105 36t-47 95q-3 29 9 127t22 124q20 58 67 93.5t110 36.5q85 2 127 -53q3 -3 3 1q-10 72 -64 143q0 1 -3 1l-87 -28q-9 -4 -9 5l-1 8q-1 7 6 9l74 25q3 2 1 4q-35 39 -71 71q-3 4 -1.5 7t6.5 3h18q4 0 9 -3 q7 -7 21 -20t26 -25t22 -24q1 -1 4 -1l72 23q7 3 9 -5l1 -7q2 -8 -6 -11l-59 -19q-3 -2 -2 -4q76 -103 66 -255q0 -20 -10 -100zM390 137q7 18 18 112q12 93 10 112q-3 52 -38 84.5t-91 32.5t-98 -32.5t-58 -84.5q-7 -23 -18 -112t-10 -112q3 -53 37 -85.5t90 -32.5 q57 0 99.5 32.5t58.5 85.5z" />
<glyph unicode="&#xf1;" horiz-adv-x="519" d="M276 648q-32 0 -57 -30q-5 -8 -12 -3l-6 5q-5 5 0 11q34 43 78 43q21 0 54 -23q28 -22 45 -22q34 0 58 33q6 7 11 3l6 -3q7 -5 2 -11q-33 -49 -80 -49q-24 0 -55 24q-26 22 -44 22zM314 508q73 0 112.5 -46.5t30.5 -121.5l-41 -332q0 -8 -9 -8h-13q-9 0 -7 8l40 327 q8 64 -25.5 104.5t-95.5 40.5q-65 0 -109.5 -39.5t-52.5 -103.5l-40 -329q-2 -8 -9 -8h-14q-8 0 -6 8l59 485q2 8 9 8h14q8 0 6 -8l-7 -60q0 -5 3 -2q53 77 155 77z" />
<glyph unicode="&#xf2;" horiz-adv-x="514" d="M317 598q4 -10 -7 -10h-12q-5 0 -8 5l-51 115q-4 10 6 10h15q4 0 8 -6zM237 -8q-67 0 -108.5 36t-49.5 96q-3 38 8 128q10 85 23 125q21 59 72.5 95.5t117.5 36.5q67 0 110.5 -36.5t48.5 -95.5q2 -26 -9 -126q-12 -95 -23 -127q-21 -59 -72 -95.5t-118 -36.5zM240 20 q58 0 102 32.5t61 85.5q4 14 18 113q11 97 10 112q-4 53 -40 85.5t-94 32.5q-59 0 -102.5 -32.5t-59.5 -85.5q-9 -28 -19 -112q-10 -82 -9 -113q3 -53 38.5 -85.5t94.5 -32.5z" />
<glyph unicode="&#xf3;" horiz-adv-x="514" d="M289 588q-4 0 -5.5 3t1.5 7l77 114q4 6 9 6h15q10 0 4 -10l-80 -115q-3 -5 -9 -5h-12zM237 -8q-67 0 -108.5 36t-49.5 96q-3 38 8 128q10 85 23 125q21 59 72.5 95.5t117.5 36.5q67 0 110.5 -36.5t48.5 -95.5q2 -26 -9 -126q-12 -95 -23 -127q-21 -59 -72 -95.5 t-118 -36.5zM240 20q58 0 102 32.5t61 85.5q4 14 18 113q11 97 10 112q-4 53 -40 85.5t-94 32.5q-59 0 -102.5 -32.5t-59.5 -85.5q-9 -28 -19 -112q-10 -82 -9 -113q3 -53 38.5 -85.5t94.5 -32.5z" />
<glyph unicode="&#xf4;" horiz-adv-x="514" d="M211 578q-11 0 -3 10l97 110q3 5 10 5h15q6 0 9 -5l70 -110q5 -10 -5 -10h-14q-6 0 -9 5l-58 95q-2 4 -4 0l-84 -95q-5 -5 -11 -5h-13zM237 -8q-67 0 -108.5 36t-49.5 96q-3 38 8 128q10 85 23 125q21 59 72.5 95.5t117.5 36.5q67 0 110.5 -36.5t48.5 -95.5 q2 -26 -9 -126q-12 -95 -23 -127q-21 -59 -72 -95.5t-118 -36.5zM240 20q58 0 102 32.5t61 85.5q4 14 18 113q11 97 10 112q-4 53 -40 85.5t-94 32.5q-59 0 -102.5 -32.5t-59.5 -85.5q-9 -28 -19 -112q-10 -82 -9 -113q3 -53 38.5 -85.5t94.5 -32.5z" />
<glyph unicode="&#xf5;" horiz-adv-x="514" d="M374 610q-24 0 -55 24q-26 22 -43 22q-33 0 -58 -30q-5 -8 -12 -3l-6 5q-5 5 0 11q34 43 78 43q21 0 54 -23q28 -22 45 -22q34 0 58 33q6 7 11 3l6 -3q6 -5 -2 -16q-32 -44 -76 -44zM237 -8q-67 0 -108.5 36t-49.5 96q-3 38 8 128q10 85 23 125q21 59 72.5 95.5 t117.5 36.5q67 0 110.5 -36.5t48.5 -95.5q2 -26 -9 -126q-12 -95 -23 -127q-21 -59 -72 -95.5t-118 -36.5zM240 20q58 0 102 32.5t61 85.5q4 14 18 113q11 97 10 112q-4 53 -40 85.5t-94 32.5q-59 0 -102.5 -32.5t-59.5 -85.5q-9 -28 -19 -112q-10 -82 -9 -113 q3 -53 38.5 -85.5t94.5 -32.5z" />
<glyph unicode="&#xf6;" horiz-adv-x="514" d="M241 625q-15 0 -23.5 9t-6.5 23t12.5 23t25.5 9q13 0 20.5 -9.5t6.5 -22.5q-2 -14 -12 -23t-23 -9zM390 625q-14 0 -22 9.5t-7 22.5q2 14 12.5 23t24.5 9q13 0 21.5 -9t6.5 -23q-1 -13 -11.5 -22.5t-24.5 -9.5zM237 -8q-67 0 -108.5 36t-49.5 96q-3 38 8 128 q10 85 23 125q21 59 72.5 95.5t117.5 36.5q67 0 110.5 -36.5t48.5 -95.5q2 -26 -9 -126q-12 -95 -23 -127q-21 -59 -72 -95.5t-118 -36.5zM240 20q58 0 102 32.5t61 85.5q4 14 18 113q11 97 10 112q-4 53 -40 85.5t-94 32.5q-59 0 -102.5 -32.5t-59.5 -85.5q-9 -28 -19 -112 q-10 -82 -9 -113q3 -53 38.5 -85.5t94.5 -32.5z" />
<glyph unicode="&#xf7;" horiz-adv-x="493" d="M282 453q-18 0 -28.5 12.5t-8.5 30.5q2 17 16 29.5t31 12.5t28 -12.5t10 -29.5q-2 -18 -16.5 -30.5t-31.5 -12.5zM71 320q-8 0 -6 8l1 11q0 8 9 8h391q8 0 6 -8l-1 -11q-2 -8 -9 -8h-391zM244 149q-17 0 -27.5 12.5t-8.5 30.5q2 17 16 29.5t31 12.5t28 -12.5t9 -29.5 q-2 -18 -16.5 -30.5t-31.5 -12.5z" />
<glyph unicode="&#xf8;" d="M453 251q-12 -95 -23 -127q-21 -59 -72 -95.5t-118 -36.5q-73 0 -116 43q-2 1 -4 -1l-40 -51q-5 -8 -11 -3l-9 7q-5 5 0 11l44 58v4q-17 28 -22 64q-4 33 8 128q10 85 23 125q21 59 72.5 95.5t117.5 36.5t109 -35q2 -2 4 1l34 44q5 8 11 3l10 -7q5 -5 0 -12l-37 -49v-4 q24 -32 27 -73q3 -27 -8 -126zM110 138q2 -30 13 -51q2 -4 4 0l266 358q3 3 0 4q-35 32 -93 32q-59 0 -102.5 -32.5t-59.5 -85.5q-9 -28 -19 -112q-10 -82 -9 -113zM406 138q5 18 18 113q11 97 10 112q-3 33 -19 60q-2 4 -4 0l-270 -360q-2 -2 0 -4q36 -39 102 -39 q58 0 102 32.5t61 85.5z" />
<glyph unicode="&#xf9;" horiz-adv-x="518" d="M318 590q4 -10 -7 -10h-12q-5 0 -8 5l-51 115q-4 10 6 10h15q4 0 8 -6zM437 493q2 8 9 8h13q9 0 7 -8l-60 -485q0 -8 -8 -8h-14q-7 0 -7 8l8 60q0 5 -4 1q-52 -76 -154 -76q-72 0 -112 44.5t-31 120.5l42 335q0 8 8 8h14q7 0 7 -8l-41 -329q-8 -65 25.5 -104t94.5 -39 q66 0 110 39.5t52 103.5z" />
<glyph unicode="&#xfa;" horiz-adv-x="518" d="M387 710q10 0 4 -10l-80 -115q-3 -5 -9 -5h-12q-4 0 -5.5 3t1.5 7l77 114q4 6 9 6h15zM437 493q2 8 9 8h13q9 0 7 -8l-60 -485q0 -8 -8 -8h-14q-7 0 -7 8l8 60q0 5 -4 1q-52 -76 -154 -76q-72 0 -112 44.5t-31 120.5l42 335q0 8 8 8h14q7 0 7 -8l-41 -329 q-8 -65 25.5 -104t94.5 -39q66 0 110 39.5t52 103.5z" />
<glyph unicode="&#xfb;" horiz-adv-x="518" d="M324 670q-2 4 -4 0l-84 -95q-5 -5 -11 -5h-13q-11 0 -3 10l97 110q3 5 10 5h15q6 0 9 -5l70 -110q5 -10 -5 -10h-14q-6 0 -9 5zM437 493q2 8 9 8h13q9 0 7 -8l-60 -485q0 -8 -8 -8h-14q-7 0 -7 8l8 60q0 5 -4 1q-52 -76 -154 -76q-72 0 -112 44.5t-31 120.5l42 335 q0 8 8 8h14q7 0 7 -8l-41 -329q-8 -65 25.5 -104t94.5 -39q66 0 110 39.5t52 103.5z" />
<glyph unicode="&#xfc;" horiz-adv-x="518" d="M242 617q-15 0 -23.5 9t-6.5 23t12.5 23t24.5 9q13 0 21.5 -9t6.5 -23t-12 -23t-23 -9zM391 617q-14 0 -22 9.5t-7 22.5q2 14 12.5 23t24.5 9q13 0 21.5 -9t6.5 -23q-1 -13 -11.5 -22.5t-24.5 -9.5zM437 493q2 8 9 8h13q9 0 7 -8l-60 -485q0 -8 -8 -8h-14q-7 0 -7 8l8 60 q0 5 -4 1q-52 -76 -154 -76q-72 0 -112 44.5t-31 120.5l42 335q0 8 8 8h14q7 0 7 -8l-41 -329q-8 -65 25.5 -104t94.5 -39q66 0 110 39.5t52 103.5z" />
<glyph unicode="&#xfd;" horiz-adv-x="422" d="M242 581q-11 0 -5 10l78 114q4 6 9 6h15q4 0 5 -3t-2 -7l-79 -115q-3 -5 -9 -5h-12zM16 -200q-6 0 -6 8l2 11q0 8 7 8h7q52 1 77.5 31.5t73.5 139.5q1 1 1 4l-109 490q-2 9 8 9h14q7 0 8 -6l97 -451q2 -4 4 0l206 451q3 6 10 6h13q10 0 6 -9l-256 -551 q-41 -90 -71 -115.5t-85 -25.5h-7z" />
<glyph unicode="&#xfe;" horiz-adv-x="516" d="M461 377q3 -29 -8 -128q-11 -91 -23 -125q-21 -60 -70.5 -96t-114.5 -36q-96 0 -131 79q0 2 -1 2t-1 -2l-33 -263q0 -8 -8 -8h-14q-7 0 -7 8l109 884q0 8 8 8h14q7 0 7 -8l-33 -263q0 -6 4 0q54 80 150 80q65 0 106 -36.5t46 -95.5zM403 134q9 30 21 117q11 91 7 116 q-4 49 -38.5 81.5t-89.5 32.5t-95 -32.5t-54 -81.5q-7 -19 -12 -47l-17 -142q-1 -11 -1 -44q3 -49 34.5 -81.5t87.5 -32.5t99.5 32t57.5 82z" />
<glyph unicode="&#xff;" horiz-adv-x="422" d="M193 618q-14 0 -23 9t-7 23q1 13 12.5 22.5t25.5 9.5q13 0 21 -9t6 -23t-12 -23t-23 -9zM343 618q-14 0 -22.5 9.5t-6.5 22.5q1 13 11.5 22.5t24.5 9.5t22.5 -9t6.5 -23t-12.5 -23t-23.5 -9zM16 -200q-6 0 -6 8l2 11q0 8 7 8h7q52 1 77.5 31.5t73.5 139.5q1 1 1 4 l-109 490q-2 9 8 9h14q7 0 8 -6l97 -451q2 -4 4 0l206 451q3 6 10 6h13q10 0 6 -9l-256 -551q-41 -90 -71 -115.5t-85 -25.5h-7z" />
<glyph unicode="&#x152;" horiz-adv-x="887" d="M883 680q-2 -8 -9 -8h-326q-3 0 -3 -3l-37 -301q0 -3 2 -3h221q8 0 6 -8l-1 -12q-2 -8 -9 -8h-220q-3 0 -3 -3l-38 -303q0 -3 3 -3h326q7 0 7 -8l-2 -12q0 -8 -8 -8h-351q-8 0 -6 8l9 77q0 2 -1 2.5t-2 -1.5q-64 -93 -181 -93q-87 0 -134.5 56.5t-36.5 143.5l38 313 q11 88 72 145t149 57q116 0 157 -94q4 -4 4 1l10 77q0 8 8 8h350q9 0 7 -8zM265 20q76 0 129.5 49t62.5 123l39 315q9 74 -32.5 123.5t-117.5 49.5q-75 0 -128 -49.5t-62 -123.5l-38 -315q-9 -75 31.5 -123.5t115.5 -48.5z" />
<glyph unicode="&#x153;" horiz-adv-x="825" d="M559 20q49 0 89 25t60 66l2 4q4 6 9 4l10 -2q9 -2 5 -9q-24 -53 -71.5 -84.5t-108.5 -31.5q-55 0 -93.5 28.5t-51.5 75.5q-2 6 -4 0q-25 -47 -71.5 -75.5t-102.5 -28.5q-65 0 -105 36t-47 96q-4 32 8 128q11 90 23 125q21 59 70.5 95.5t113.5 36.5q55 0 95 -28.5 t54 -75.5q0 -1 1 -2t2 2q24 47 70.5 75.5t100.5 28.5q65 0 106.5 -36.5t48.5 -95.5q2 -32 -8 -123q-2 -8 -9 -8h-314q-3 0 -3 -3q-10 -85 -9 -105q3 -53 37.5 -85.5t92.5 -32.5zM392 138q6 18 17 113q12 93 11 112q-3 53 -37.5 85.5t-91.5 32.5t-98.5 -32.5t-57.5 -85.5 q-8 -23 -19 -112q-11 -90 -9 -113q3 -53 37 -85.5t90 -32.5q57 0 99.5 32.5t58.5 85.5zM614 481q-57 0 -99 -32.5t-58 -85.5q-7 -27 -15 -90q0 -3 2 -3h289q3 0 3 3q8 75 7 90q-4 53 -38 85.5t-91 32.5z" />
<glyph unicode="&#x178;" horiz-adv-x="522" d="M268 815q-15 0 -23.5 9t-6.5 23t12.5 23t25.5 9q13 0 20.5 -9.5t6.5 -22.5t-11.5 -22.5t-23.5 -9.5zM417 815q-14 0 -22 9.5t-7 22.5t12 22.5t25 9.5t22 -9t6 -23t-12 -23t-24 -9zM235 0q-9 0 -7 8l40 324q0 2 -1 4l-160 354q-4 10 6 10h14q5 0 8 -5l149 -330q2 -4 4 0 l231 330q3 5 9 5h14q11 0 3 -10l-247 -354q-1 -2 -1 -4l-40 -324q-2 -8 -9 -8h-13z" />
<glyph unicode="&#x2c6;" horiz-adv-x="216" d="M62 570q-10 0 -2 10l97 110q3 5 10 5h14q7 0 9 -5l70 -110q7 -10 -5 -10h-13q-7 0 -9 5l-59 95q-1 1 -3 0l-85 -95q-3 -5 -10 -5h-14z" />
<glyph unicode="&#x2dc;" horiz-adv-x="327" d="M270 602q-26 0 -54 24q-26 22 -44 22q-32 0 -57 -30q-7 -8 -12 -3l-7 5q-5 5 0 11q35 43 78 43q21 0 54 -23q30 -22 45 -22q33 0 59 33q4 7 11 3l5 -3q7 -4 -2 -16q-32 -44 -76 -44z" />
<glyph unicode="&#x2000;" horiz-adv-x="484" />
<glyph unicode="&#x2001;" horiz-adv-x="969" />
<glyph unicode="&#x2002;" horiz-adv-x="484" />
<glyph unicode="&#x2003;" horiz-adv-x="969" />
<glyph unicode="&#x2004;" horiz-adv-x="323" />
<glyph unicode="&#x2005;" horiz-adv-x="242" />
<glyph unicode="&#x2006;" horiz-adv-x="161" />
<glyph unicode="&#x2007;" horiz-adv-x="161" />
<glyph unicode="&#x2008;" horiz-adv-x="121" />
<glyph unicode="&#x2009;" horiz-adv-x="193" />
<glyph unicode="&#x200a;" horiz-adv-x="53" />
<glyph unicode="&#x2010;" horiz-adv-x="374" d="M70 306q-9 0 -7 8l1 12q2 8 9 8h272q8 0 6 -8l-1 -12q-2 -8 -9 -8h-271z" />
<glyph unicode="&#x2011;" horiz-adv-x="374" d="M70 306q-9 0 -7 8l1 12q2 8 9 8h272q8 0 6 -8l-1 -12q-2 -8 -9 -8h-271z" />
<glyph unicode="&#x2012;" horiz-adv-x="374" d="M70 306q-9 0 -7 8l1 12q2 8 9 8h272q8 0 6 -8l-1 -12q-2 -8 -9 -8h-271z" />
<glyph unicode="&#x2013;" horiz-adv-x="422" d="M65 268q-7 0 -7 8l2 12q0 8 8 8h319q9 0 7 -8l-1 -12q-2 -8 -9 -8h-319z" />
<glyph unicode="&#x2014;" horiz-adv-x="680" d="M65 268q-7 0 -7 8l2 12q0 8 8 8h578q8 0 6 -8l-1 -12q-2 -8 -9 -8h-577z" />
<glyph unicode="&#x2018;" horiz-adv-x="100" d="M53 508q-10 0 -5 9l91 177q2 6 9 6h9q10 0 5 -9l-83 -177q-3 -6 -10 -6h-16z" />
<glyph unicode="&#x2019;" horiz-adv-x="100" d="M157 700q9 0 4 -9l-90 -177q-4 -6 -10 -6h-8q-11 0 -6 9l84 177q1 6 9 6h17z" />
<glyph unicode="&#x201a;" horiz-adv-x="582" d="M59 -68q-10 0 -6 9l75 205q2 7 9 7h13q8 0 5 -9l-76 -205q-3 -7 -10 -7h-10z" />
<glyph unicode="&#x201c;" horiz-adv-x="204" d="M53 508q-10 0 -5 9l90 177q2 6 9 6h9q10 0 5 -9l-83 -177q-3 -6 -10 -6h-15zM157 508q-9 0 -4 9l89 177q4 6 10 6h9q10 0 5 -9l-84 -177q-2 -6 -9 -6h-16z" />
<glyph unicode="&#x201d;" horiz-adv-x="204" d="M156 700q9 0 5 -9l-90 -177q-4 -6 -10 -6h-8q-11 0 -6 9l84 177q1 6 9 6h16zM261 700q9 0 4 -9l-89 -177q-4 -6 -10 -6h-9q-10 0 -5 9l84 177q2 6 9 6h16z" />
<glyph unicode="&#x201e;" horiz-adv-x="205" d="M85 127q10 0 5 -9l-89 -177q-4 -6 -10 -6h-9q-10 0 -5 9l83 177q3 6 10 6h15zM190 127q9 0 5 -9l-90 -177q-2 -6 -9 -6h-9q-10 0 -6 9l84 177q3 6 10 6h15z" />
<glyph unicode="&#x2022;" horiz-adv-x="295" d="M147 154q-42 0 -69 32t-22 76q6 44 40.5 75t76.5 31t69 -31t22 -75t-40 -76t-77 -32z" />
<glyph unicode="&#x2026;" horiz-adv-x="734" d="M113 6q-18 0 -29 13t-9 31t17 30.5t32 12.5t28.5 -12.5t9.5 -30.5t-16.5 -31t-32.5 -13zM349 6q-18 0 -29 13t-9 31t16.5 30.5t32.5 12.5q17 0 28.5 -12.5t9.5 -30.5t-17 -31t-32 -13zM578 6q-18 0 -29 13t-9 31t16.5 30.5t32.5 12.5q17 0 28.5 -12.5t9.5 -30.5t-17 -31 t-32 -13z" />
<glyph unicode="&#x202f;" horiz-adv-x="193" />
<glyph unicode="&#x2039;" horiz-adv-x="369" d="M245 117q6 -10 -5 -10h-12q-6 0 -9 4l-119 164q-4 5 1 12l160 164q3 4 10 4h12q12 0 2 -10l-157 -162q-1 -2 -1 -4z" />
<glyph unicode="&#x203a;" horiz-adv-x="398" d="M116 107q-11 0 -3 10l158 162q1 2 0 4l-117 162q-3 4 -1.5 7t6.5 3h11q7 0 10 -4l119 -164q3 -6 -1 -12l-160 -164q-4 -4 -10 -4h-12z" />
<glyph unicode="&#x205f;" horiz-adv-x="242" />
<glyph unicode="&#x20ac;" horiz-adv-x="618" d="M338 19q66 0 113 37.5t60 100.5q3 8 10 7l13 -3q8 -1 6 -9q-18 -73 -73 -117t-132 -44q-85 0 -130.5 52t-34.5 138l11 94q0 3 -2 3h-72q-9 0 -7 8l1 9q2 8 9 8h72q3 0 3 3l10 84q1 3 -2 3h-72q-7 0 -7 8l1 9q2 8 9 8h72q3 0 3 3l12 100q11 84 69 135.5t143 51.5 q78 0 122.5 -44.5t42.5 -119.5q0 -7 -8 -9l-14 -2q-8 -2 -8 7q3 64 -35 102t-104 38q-71 0 -120.5 -43.5t-57.5 -114.5l-13 -101q0 -3 3 -3h260q9 0 4 -9l-5 -10q-2 -6 -10 -6h-252q-2 0 -4 -3l-10 -84q0 -3 3 -3h227q8 0 4 -9l-5 -10q-2 -6 -10 -6h-219q-2 0 -4 -3l-12 -97 q-8 -71 30.5 -115t109.5 -44z" />
<glyph unicode="&#x2122;" horiz-adv-x="631" d="M97 677q-9 0 -7 8l1 7q0 8 9 8h214q7 0 7 -8l-1 -7q-2 -8 -9 -8h-95q-3 0 -3 -3l-39 -317q-2 -8 -9 -8h-9q-8 0 -6 8l38 317q2 3 -2 3h-89zM614 695q2 5 9 5h11q7 0 7 -8l-41 -335q-2 -8 -9 -8h-9q-7 0 -7 8l36 290q0 2 -1.5 2.5t-2.5 -1.5l-96 -128q-3 -5 -9 -5h-2 q-7 0 -8 5l-66 128q-1 2 -2.5 1.5t-1.5 -2.5l-36 -290q0 -8 -8 -8h-10q-9 0 -7 8l41 335q2 8 9 8h12q5 0 8 -5l71 -145q2 -4 4 0z" />
<glyph unicode="&#x25fc;" horiz-adv-x="500" d="M0 500h500v-500h-500v500z" />
</font>
</defs>
</svg>
