<?xml version="1.0" standalone="no"?>
<!DOCTYPE svg PUBLIC "-//W3C//DTD SVG 1.1//EN" "http://www.w3.org/Graphics/SVG/1.1/DTD/svg11.dtd" >
<svg xmlns="http://www.w3.org/2000/svg" xmlns:xlink="http://www.w3.org/1999/xlink" version="1.1">
<metadata></metadata>
<defs>
<font id="barlow_semi_condensedBdIt" horiz-adv-x="485" >
<font-face units-per-em="1000" ascent="800" descent="-200" />
<missing-glyph horiz-adv-x="194" />
<glyph horiz-adv-x="0" />
<glyph horiz-adv-x="333" />
<glyph unicode="&#xd;" horiz-adv-x="194" />
<glyph unicode=" "  horiz-adv-x="194" />
<glyph unicode="&#x09;" horiz-adv-x="194" />
<glyph unicode="&#xa0;" horiz-adv-x="194" />
<glyph unicode="!" horiz-adv-x="306" d="M120 240q-12 0 -10 12l39 436q2 12 14 12h113q12 0 10 -12l-68 -436q-2 -12 -13 -12h-85zM132 1q-37 0 -58.5 25.5t-16.5 61.5q4 35 33.5 60.5t62.5 25.5q34 0 56.5 -25.5t18.5 -60.5q-5 -37 -32 -62t-64 -25z" />
<glyph unicode="&#x22;" horiz-adv-x="341" d="M78 471q-13 0 -11 12l12 203q1 12 13 12h107q12 0 9 -12l-37 -203q-1 -12 -14 -12h-79zM263 471q-12 0 -12 12l13 203q2 12 12 12h107q13 0 10 -12l-38 -203q-1 -12 -14 -12h-78z" />
<glyph unicode="#" horiz-adv-x="631" d="M624 416q-2 -12 -13 -12h-66q-6 0 -6 -5l-27 -99q0 -5 3 -5h48q12 0 10 -12l-12 -96q-2 -12 -13 -12h-65q-6 0 -6 -5l-35 -132q-3 -11 -14 -11h-113q-12 0 -9 13l34 130q0 5 -3 5h-90q-6 0 -6 -5l-35 -132q-3 -11 -14 -11h-113q-12 0 -9 13l34 130q2 5 -3 5h-48 q-12 0 -10 12l12 96q2 12 13 12h66q5 0 7 5l25 99q2 5 -3 5h-47q-11 0 -11 12l12 97q2 12 13 12h66q5 0 7 5l34 132q3 11 14 11h114q12 0 9 -13l-34 -130q-2 -5 3 -5h88q5 0 7 5l34 132q3 11 14 11h114q12 0 9 -13l-35 -130q0 -5 4 -5h48q12 0 10 -12zM369 295q6 0 6 5 l27 99q0 5 -3 5h-89q-7 0 -7 -5l-26 -99q0 -5 4 -5h88z" />
<glyph unicode="$" d="M458 191q-10 -80 -60.5 -132t-129.5 -63q-5 -2 -5 -6l-6 -52q-2 -12 -13 -12h-66q-12 0 -10 12l8 53q1 4 -3 6q-71 13 -107 60.5t-27 117.5l5 40q2 12 13 12h112q12 0 10 -12l-3 -20q-4 -36 13 -59t53 -23q34 0 55.5 20.5t24.5 51.5q3 26 -13.5 43.5t-60.5 42.5t-67 43 q-55 42 -83 87t-19 113q9 76 57 126t122 63q4 1 6 6l6 61q2 12 13 12h64q12 0 10 -12l-8 -59q0 -4 4 -6q76 -11 113.5 -61.5t27.5 -127.5l-4 -31q-2 -12 -13 -12h-111q-11 0 -11 12l3 18q4 37 -12.5 60.5t-53.5 23.5q-31 0 -52.5 -19t-25.5 -51q-2 -15 2 -27t17 -24 t24 -19.5t36.5 -22t40.5 -24.5q74 -48 103.5 -94.5t20.5 -114.5z" />
<glyph unicode="%" horiz-adv-x="771" d="M233 393q-64 0 -102.5 46t-30.5 112q7 65 57.5 111.5t113.5 46.5q64 0 102.5 -46.5t30.5 -111.5q-8 -66 -58 -112t-113 -46zM146 0q-14 0 -7 14l443 678q5 8 15 8h73q15 0 6 -14l-442 -678q-6 -8 -16 -8h-72zM242 466q33 0 59 25t30 60t-16 59.5t-53 24.5t-59.5 -24.5 t-30.5 -59.5q-4 -36 16 -60.5t54 -24.5zM551 -9q-64 0 -102.5 46.5t-30.5 112.5q8 65 58 111t114 46q63 0 102 -46t31 -111q-8 -66 -58.5 -112.5t-113.5 -46.5zM560 65q34 0 59.5 25t30.5 60q4 35 -16 59.5t-53 24.5q-34 0 -59.5 -24.5t-30.5 -59.5q-5 -36 15 -60.5 t54 -24.5z" />
<glyph unicode="&#x26;" horiz-adv-x="635" d="M576 15q4 -6 1.5 -10.5t-10.5 -4.5h-125q-9 0 -13 7q-6 8 -15 19.5t-12 16.5q-3 4 -7 1q-87 -53 -183 -53q-89 0 -138.5 45t-38.5 132q14 114 139 195q3 3 1 7q-39 61 -49.5 91.5t-5.5 64.5q10 82 67.5 132t142.5 50q86 0 135 -51t39 -132q-13 -108 -141 -185 q-4 -4 -2 -7q26 -40 70 -101q3 -4 6 1q32 33 60 74q7 12 17 5l78 -49q9 -7 2 -17q-46 -67 -91 -114q-3 -3 -1 -6l23 -34.5t27.5 -41t23.5 -35.5zM319 580q-25 0 -42.5 -15.5t-20.5 -41.5q-3 -27 34 -86q3 -4 7 -1q64 42 70 87q3 26 -10.5 41.5t-37.5 15.5zM249 111 q33 4 78 29q5 4 2 7l-33 48q-31 44 -49 70q-3 4 -7 1q-60 -43 -67 -86q-5 -34 15 -53.5t61 -15.5z" />
<glyph unicode="'" horiz-adv-x="164" d="M78 473q-5 0 -8.5 3.5t-2.5 8.5l13 202q0 12 12 12h114q12 0 9 -12l-37 -202q-2 -12 -14 -12h-86z" />
<glyph unicode="(" horiz-adv-x="319" d="M99 -91q-9 0 -13 7q-94 169 -65 416q31 251 169 420q6 7 15 7h110q16 0 7 -14q-120 -192 -147 -412t45 -410q7 -14 -9 -14h-112z" />
<glyph unicode=")" horiz-adv-x="319" d="M173 -84q-6 -7 -14 -7h-112q-7 0 -8.5 4t2.5 10q119 192 146 410q28 219 -46 412q-5 14 10 14h111q9 0 13 -7q96 -169 65 -420q-29 -245 -167 -416z" />
<glyph unicode="*" horiz-adv-x="369" d="M186 394q-12 0 -10 12l12 87q0 7 -6 3l-81 -46q-11 -7 -16 5l-21 51q-5 10 6 17l85 45q5 3 1 6l-73 43q-12 5 -3 17l33 52q8 12 17 5l70 -46q5 -4 7 3l9 86q2 12 13 12h55q12 0 10 -12l-11 -86q0 -7 6 -3l80 46q11 7 16 -5l21 -52q5 -12 -7 -17l-84 -43q-4 -3 -1 -6 l74 -45q10 -7 2 -17l-34 -52q-7 -12 -17 -5l-69 47q-4 4 -6 -3l-10 -87q-2 -12 -14 -12h-54z" />
<glyph unicode="+" horiz-adv-x="448" d="M436 362q12 0 10 -12l-10 -89q-2 -12 -14 -12h-127q-5 0 -5 -5l-16 -130q-2 -12 -13 -12h-87q-11 0 -11 12l16 130q2 5 -4 5h-127q-12 0 -10 12l11 89q2 12 13 12h127q5 0 5 5l17 132q2 12 13 12h87q12 0 10 -12l-16 -132q0 -5 4 -5h127z" />
<glyph unicode="," horiz-adv-x="231" d="M14 -98q-12 0 -9 13l56 232q3 11 13 11h98q13 0 9 -13l-84 -233q-4 -10 -15 -10h-68z" />
<glyph unicode="-" horiz-adv-x="359" d="M46 235q-12 0 -10 12l12 97q2 12 13 12h285q11 0 11 -12l-12 -97q-2 -12 -14 -12h-285z" />
<glyph unicode="." horiz-adv-x="260" d="M107 -4q-36 0 -57.5 25.5t-16.5 61.5q4 35 33 60.5t62 25.5q34 0 57 -25.5t19 -60.5q-5 -37 -32 -62t-65 -25z" />
<glyph unicode="/" horiz-adv-x="407" d="M11 0q-14 0 -8 14l315 676q3 10 13 10h112q14 0 8 -14l-314 -676q-5 -10 -14 -10h-112z" />
<glyph unicode="0" horiz-adv-x="490" d="M224 -11q-96 0 -146 58.5t-38 157.5l35 290q12 98 76.5 156.5t160.5 58.5t146.5 -58.5t38.5 -156.5l-35 -290q-13 -99 -77.5 -157.5t-160.5 -58.5zM239 110q34 0 57 23.5t28 63.5l37 305q5 40 -12 63t-52 23q-33 0 -56.5 -23.5t-27.5 -62.5l-37 -305q-5 -40 12 -63.5 t51 -23.5z" />
<glyph unicode="1" horiz-adv-x="298" d="M177 697q7 3 15 3h117q12 0 10 -12l-83 -676q-2 -12 -13 -12h-113q-11 0 -11 12l68 551q0 3 -1 4.5t-3 0.5l-82 -16q-6 -1 -9 1.5t-2 8.5l10 85q2 9 11 14z" />
<glyph unicode="2" horiz-adv-x="484" d="M27 0q-12 0 -10 12l12 97q1 8 7 14q133 136 225 241q81 93 88 147q4 35 -12 55.5t-47 20.5q-30 0 -51 -20.5t-26 -53.5l-4 -33q-2 -12 -13 -12h-115q-12 0 -10 12l5 47q16 82 80 131.5t152 49.5q92 0 141.5 -55t38.5 -141q-11 -88 -98 -190q-41 -50 -182 -195 q-3 -2 -2 -4t4 -2h230q12 0 10 -12l-12 -97q-2 -12 -13 -12h-398z" />
<glyph unicode="3" horiz-adv-x="484" d="M455 324q8 -47 1 -99q-6 -57 -32 -108q-28 -59 -82 -92t-124 -33q-79 0 -128.5 42t-55.5 112q-4 27 0 68q2 12 13 12h114q11 0 10 -12q-2 -23 0 -42q7 -59 62 -59q53 0 75 55q11 30 16 66q4 44 0 67q-10 57 -61 57q-19 0 -40 -15q-10 -5 -17 2l-49 66q-7 8 2 17l163 145 q6 6 -3 6h-216q-12 0 -10 12l12 97q2 12 13 12h379q12 0 10 -12l-12 -100q-1 -8 -8 -15l-136 -131q-4 -4 2 -6q42 -7 68 -36.5t34 -75.5z" />
<glyph unicode="4" horiz-adv-x="526" d="M502 305q12 0 10 -12l-12 -103q-2 -12 -14 -12h-34q-6 0 -6 -5l-20 -161q-2 -12 -13 -12h-113q-12 0 -10 12l19 161q2 5 -4 5h-269q-12 0 -10 12l10 81q2 8 5 15l202 405q5 9 15 9h121q14 0 8 -14l-186 -375q-1 -6 3 -6h117q5 0 5 5l14 114q2 12 13 12h114q12 0 10 -12 l-14 -114q0 -5 4 -5h35z" />
<glyph unicode="5" horiz-adv-x="473" d="M440 363q25 -60 15 -142q-9 -73 -46 -129q-62 -99 -189 -99q-76 0 -122.5 38t-55.5 109q-3 22 -2 43q0 12 12 12h116q11 0 11 -12q0 -11 2 -16q6 -53 54 -53q23 0 41.5 14.5t26.5 39.5q9 20 13 52q5 30 0 56q-8 48 -55 48q-46 0 -67 -39q-4 -10 -14 -10h-117 q-12 0 -10 12l49 401q2 12 13 12h371q12 0 10 -12l-12 -97q-2 -12 -13 -12h-241q-5 0 -5 -5l-20 -156q-1 -4 1 -4.5t4 1.5q41 31 97 31q101 0 133 -83z" />
<glyph unicode="6" horiz-adv-x="473" d="M438 351q26 -54 17 -130q-9 -71 -42 -119q-58 -109 -192 -109q-130 0 -163 107q0 1 -1 3t-1 3q-20 41 -12 109l37 313q10 82 71.5 131t152.5 49q88 0 136 -49t38 -130l-3 -29q-2 -12 -14 -12h-113q-12 0 -10 12l2 15q4 31 -10.5 50.5t-40.5 19.5q-29 0 -49 -20t-24 -51 l-12 -98q0 -8 6 -2q39 33 92 33q105 0 135 -96zM303 165q9 24 14 59q5 41 -2 67q-9 42 -53 42q-42 0 -62 -42q-12 -22 -18 -68q-4 -30 -1 -59q8 -50 54 -50q45 0 68 51z" />
<glyph unicode="7" horiz-adv-x="437" d="M85 0q-13 0 -7 14l253 559q3 6 -3 6h-144q-4 0 -6 -5l-5 -40q-2 -12 -13 -12h-88q-12 0 -10 12l20 154q0 12 13 12h386q12 0 10 -12l-12 -101q-1 -7 -4 -15l-255 -562q-3 -10 -13 -10h-122z" />
<glyph unicode="8" horiz-adv-x="476" d="M440 306q15 -48 8 -103q-6 -51 -31 -97q-30 -53 -82.5 -83.5t-118.5 -30.5q-64 0 -109 30t-62 85q-13 43 -6 97q6 57 31 101q21 37 57 60q5 3 1 6q-28 22 -40 55q-15 39 -9 92q8 60 37 101q64 94 190 94q134 0 170 -103q16 -42 9 -93q-6 -50 -32 -89q-21 -34 -55 -55 q-5 -5 -1 -7q32 -24 43 -60zM226 549q-11 -22 -14 -46q-3 -30 4 -50q9 -41 53 -41q42 0 65 43q12 19 15 48q3 25 -2 45q-13 44 -56 44q-44 0 -65 -43zM296 156q14 28 18 59q3 28 -2 52q-10 48 -55 48t-66 -49q-11 -24 -14 -51q-4 -33 2 -58q11 -45 53 -45q43 0 64 44z" />
<glyph unicode="9" horiz-adv-x="465" d="M468 485l-38 -313q-10 -82 -71 -131t-152 -49q-88 0 -136 49t-38 130l3 29q2 12 13 12h114q12 0 10 -12l-2 -15q-4 -31 10.5 -50.5t40.5 -19.5q28 0 48 19.5t24 51.5l12 98q1 3 -1 3.5t-4 -1.5q-39 -33 -92 -33q-105 0 -135 96q-26 54 -17 130q9 71 42 119 q56 109 192 109q130 0 163 -107q0 -1 0.5 -2.5t1.5 -2.5q20 -45 12 -110zM312 409q13 25 18 68q4 30 1 59q-8 50 -54 50q-45 0 -68 -51q-9 -24 -14 -59q-5 -41 2 -67q9 -42 53 -42q42 0 62 42z" />
<glyph unicode=":" horiz-adv-x="309" d="M177 331q-37 0 -58 25t-16 62q4 35 33 60.5t63 25.5q33 0 55.5 -25.5t18.5 -60.5q-4 -36 -31.5 -61.5t-64.5 -25.5zM137 4q-37 0 -58 25t-16 62q4 35 33 60.5t63 25.5q33 0 55.5 -25.5t18.5 -60.5q-5 -37 -32 -62t-64 -25z" />
<glyph unicode=";" horiz-adv-x="266" d="M153 313q-38 0 -59 25t-16 62q4 35 33 60.5t63 25.5t56.5 -25.5t18.5 -60.5q-5 -36 -32.5 -61.5t-63.5 -25.5zM35 -97q-13 0 -10 13l48 229q3 11 13 11h99q13 0 9 -13l-77 -229q-3 -11 -14 -11h-68z" />
<glyph unicode="&#x3c;" horiz-adv-x="448" d="M410 51q-1 -7 -5.5 -9.5t-9.5 0.5l-354 175q-8 5 -7 14l13 101q0 9 10 14l397 175q6 3 9.5 0.5t2.5 -9.5l-13 -110q-2 -10 -11 -14l-259 -104q-6 -3 0 -6l233 -103q9 -4 7 -14z" />
<glyph unicode="=" horiz-adv-x="448" d="M60 343q-11 0 -11 12l11 89q2 12 13 12h375q12 0 10 -12l-11 -89q-2 -12 -13 -12h-374zM36 155q-12 0 -10 12l11 89q2 12 13 12h375q12 0 10 -12l-11 -89q-2 -12 -13 -12h-375z" />
<glyph unicode="&#x3e;" horiz-adv-x="448" d="M25 42q-7 -3 -10.5 -0.5t-2.5 9.5l14 110q0 9 10 14l259 103q6 3 1 6l-234 104q-8 5 -7 14l14 110q2 16 14 9l354 -175q9 -4 7 -14l-12 -101q-2 -10 -11 -14z" />
<glyph unicode="?" horiz-adv-x="465" d="M169 222q-12 0 -10 12l4 32q5 38 24.5 68.5t44.5 49.5t50 36.5t43.5 40t21.5 49.5q4 32 -13 51.5t-48 19.5q-35 0 -57.5 -21t-26.5 -54l-2 -16q-1 -11 -13 -11l-113 5q-12 0 -10 11l1 11q11 91 77.5 147.5t162.5 56.5q93 0 142.5 -53.5t38.5 -141.5q-6 -46 -26 -81 t-46 -56t-51 -38t-44 -37.5t-22 -45.5l-2 -23q-2 -12 -14 -12h-112zM203 -2q-32 0 -52 23.5t-16 56.5t30 56.5t58 23.5t53 -23.5t17 -56.5q-5 -33 -31 -56.5t-59 -23.5z" />
<glyph unicode="@" horiz-adv-x="762" d="M485 656q150 0 224 -97.5t35 -253.5q-25 -99 -80 -153.5t-132 -54.5q-68 0 -97 40q-4 3 -7 0q-39 -40 -105 -40q-47 0 -73.5 28.5t-22.5 78.5q0 23 14 81q10 41 23 71q42 110 136 110q40 0 63 -24q4 -4 6 2l1 6q3 11 13 11h69q12 0 9 -13l-45 -179q-9 -38 1.5 -60.5 t36.5 -22.5q63 0 92 118q30 124 -19.5 194.5t-159.5 70.5t-201.5 -81t-121.5 -209q-30 -125 22 -198.5t151 -73.5q83 0 142 40q11 6 16 -3l28 -50q5 -11 -5 -17q-87 -60 -207 -60q-137 0 -207 103.5t-32 264.5q40 166 163 268.5t270 102.5zM354 177q37 0 54 42q12 29 19 62 q4 14 12 62q2 19 -7 30t-27 11t-32.5 -11.5t-21.5 -29.5q-11 -24 -20 -64q-11 -42 -11 -60q-2 -42 34 -42z" />
<glyph unicode="A" horiz-adv-x="568" d="M395 0q-11 0 -12 10l-10 98q0 4 -4 4h-182q-4 0 -5 -4l-34 -98q-4 -10 -15 -10h-117q-13 0 -9 13l258 677q4 10 15 10h141q11 0 12 -10l92 -677q1 -13 -11 -13h-119zM224 227q-3 -6 4 -6h128q6 0 6 6l-31 284q0 3 -1 3q-3 -1 -4 -3z" />
<glyph unicode="B" horiz-adv-x="529" d="M498 196q-11 -96 -76.5 -146t-160.5 -50h-217q-11 0 -11 12l83 676q2 12 14 12h202q104 0 155.5 -47.5t39.5 -144.5q-12 -99 -92 -143q-5 -4 -2 -6q78 -50 65 -163zM245 579q-4 0 -6 -5l-19 -157q0 -5 4 -5h74q39 0 64 22t30 61q5 40 -14.5 62t-59.5 22h-73zM270 122 q39 0 63.5 23.5t30.5 66.5q5 43 -14 67.5t-58 24.5h-81q-4 0 -6 -5l-21 -172q0 -5 5 -5h81z" />
<glyph unicode="C" horiz-adv-x="520" d="M242 -8q-101 0 -154.5 60t-41.5 160l35 278q12 99 80 158.5t168 59.5q101 0 154.5 -58t41.5 -155v-5q-2 -13 -13 -13l-115 -5q-11 0 -10 11l2 13q5 41 -15.5 66t-58.5 25q-39 0 -65.5 -25t-31.5 -66l-36 -293q-5 -40 15.5 -65t58.5 -25q39 0 65.5 24.5t31.5 65.5l1 13 q1 11 13 11l113 -5q6 0 9 -1.5t2 -5.5l-1 -8q-12 -97 -80 -156t-168 -59z" />
<glyph unicode="D" horiz-adv-x="531" d="M44 0q-11 0 -11 12l83 676q2 12 14 12h208q99 0 152.5 -55.5t41.5 -147.5l-36 -294q-11 -92 -78 -147.5t-166 -55.5h-208zM184 126q0 -5 4 -5l80 1q36 0 61 26.5t33 70.5l32 262q5 45 -14 71.5t-56 26.5h-79q-4 0 -6 -5z" />
<glyph unicode="E" horiz-adv-x="496" d="M518 591q-2 -12 -13 -12h-260q-4 0 -6 -5l-19 -156q0 -5 4 -5h162q12 0 10 -12l-11 -97q-2 -12 -14 -12h-162q-5 0 -5 -5l-20 -161q0 -5 4 -5h260q11 0 11 -12l-12 -97q-2 -12 -13 -12h-390q-11 0 -11 12l83 676q2 12 14 12h390q12 0 10 -12z" />
<glyph unicode="F" horiz-adv-x="475" d="M517 591q-2 -12 -13 -12h-259q-4 0 -6 -5l-19 -156q0 -5 4 -5h161q11 0 11 -12l-12 -97q-2 -12 -13 -12h-162q-5 0 -5 -5l-34 -275q-2 -12 -13 -12h-113q-11 0 -11 12l83 676q2 12 14 12h389q12 0 10 -12z" />
<glyph unicode="G" horiz-adv-x="519" d="M242 -8q-100 0 -154 60t-42 158l35 281q12 98 80 157.5t168 59.5q99 0 153.5 -58.5t43.5 -149.5l-3 -22q-2 -12 -13 -12h-113q-12 0 -10 12l2 21q5 38 -15.5 63t-58.5 25q-39 0 -66 -26t-32 -68l-35 -286q-5 -42 16.5 -68t60.5 -26q38 0 64 23t30 63l8 62q0 5 -4 5h-76 q-12 0 -10 12l11 91q2 12 13 12h205q12 0 10 -12l-20 -159q-12 -100 -80 -159t-168 -59z" />
<glyph unicode="H" horiz-adv-x="537" d="M418 688q2 12 13 12h114q12 0 10 -12l-83 -676q-2 -12 -13 -12h-114q-12 0 -10 12l34 274q0 5 -4 5h-156q-5 0 -5 -5l-34 -274q-2 -12 -13 -12h-113q-11 0 -11 12l83 676q2 12 14 12h113q12 0 10 -12l-33 -270q0 -5 4 -5h156q5 0 5 5z" />
<glyph unicode="I" horiz-adv-x="239" d="M44 0q-11 0 -11 12l83 676q2 12 14 12h113q12 0 10 -12l-83 -676q-2 -12 -13 -12h-113z" />
<glyph unicode="J" horiz-adv-x="505" d="M214 -8q-98 0 -151.5 57t-41.5 151l6 54q2 12 13 12h114q12 0 10 -12l-7 -55q-5 -38 15 -62t57 -24t63 24t31 62l60 489q2 12 13 12h113q12 0 10 -12l-60 -488q-11 -94 -79 -151t-166 -57z" />
<glyph unicode="K" horiz-adv-x="541" d="M44 0q-11 0 -11 12l83 676q2 12 14 12h113q12 0 10 -12l-32 -266q-1 -3 1.5 -4t3.5 2l207 272q6 8 15 8h125q7 0 8.5 -4t-2.5 -10l-215 -287q-1 -2 -1 -7l144 -378q5 -14 -10 -14h-125q-9 0 -12 9l-104 274q-3 6 -7 0l-52 -65q-2 -4 -2 -6l-25 -200q-2 -12 -13 -12h-113z " />
<glyph unicode="L" horiz-adv-x="484" d="M44 0q-11 0 -11 12l83 676q2 12 14 12h113q12 0 10 -12l-69 -562q0 -5 4 -5h260q11 0 11 -12l-12 -97q-2 -12 -13 -12h-390z" />
<glyph unicode="M" horiz-adv-x="605" d="M44 0q-11 0 -11 12l83 676q2 12 14 12h111q9 0 14 -8l85 -209q2 -5 5 0l138 209q5 8 15 8h112q12 0 10 -12l-83 -676q-2 -12 -13 -12h-114q-12 0 -10 12l53 434q1 3 -1 4t-4 -3l-97 -148q-6 -8 -16 -8h-33q-10 0 -13 8l-59 149q-2 3 -4 2.5t-2 -4.5l-54 -434 q-2 -12 -13 -12h-113z" />
<glyph unicode="N" horiz-adv-x="568" d="M44 0q-11 0 -11 12l83 676q2 12 14 12h114q8 0 13 -9l137 -399q1 -5 4 -2l2 4l47 394q2 12 13 12h113q12 0 10 -12l-83 -676q-2 -12 -13 -12h-115q-10 0 -13 9l-137 402q-1 5 -4 2l-2 -4l-47 -397q-2 -12 -13 -12h-112z" />
<glyph unicode="O" horiz-adv-x="531" d="M244 -9q-102 0 -156 62t-41 164l33 266q12 102 81.5 163.5t170.5 61.5q102 0 156.5 -61.5t42.5 -163.5l-33 -266q-13 -103 -82.5 -164.5t-171.5 -61.5zM259 112q40 0 68 27.5t34 71.5l33 276q6 45 -15 72.5t-62 27.5q-40 0 -67.5 -27.5t-32.5 -72.5l-34 -276 q-5 -44 15.5 -71.5t60.5 -27.5z" />
<glyph unicode="P" horiz-adv-x="515" d="M362 701q88 0 135.5 -59.5t35.5 -155.5q-11 -94 -73 -151.5t-151 -57.5h-104q-4 0 -6 -5l-32 -260q-2 -12 -13 -12h-113q-12 0 -10 12l83 677q2 12 13 12h235zM301 389q37 0 63.5 25.5t31.5 68.5q5 45 -14.5 70.5t-57.5 25.5h-82q-4 0 -6 -5l-22 -180q0 -5 4 -5h83z" />
<glyph unicode="Q" horiz-adv-x="511" d="M323 708q99 0 152 -62.5t40 -165.5l-33 -265q-10 -80 -56 -136.5t-117 -76.5q-4 -1 -5 -5l-10 -83q-2 -12 -13 -12h-114q-12 0 -10 12l10 83q1 4 -3 5q-65 20 -97.5 76.5t-22.5 136.5l32 265q13 103 81 165.5t166 62.5zM345 209l34 282q5 43 -14.5 69.5t-56.5 26.5 t-62.5 -26.5t-30.5 -69.5l-35 -282q-5 -43 14 -69.5t56 -26.5t63.5 26.5t31.5 69.5z" />
<glyph unicode="R" horiz-adv-x="527" d="M351 0q-11 0 -12 10l-64 276q-2 4 -5 4h-61q-5 0 -5 -5l-34 -273q-2 -12 -13 -12h-113q-11 0 -11 12l84 677q0 12 13 12h236q88 0 134.5 -58.5t34.5 -152.5q-7 -64 -40.5 -111.5t-86.5 -70.5q-4 -2 -2 -7l75 -287q3 -14 -12 -14h-118zM245 579q-4 0 -6 -5l-21 -170 q0 -5 5 -5h84q36 0 61.5 24.5t29.5 64.5q5 42 -14 66.5t-55 24.5h-84z" />
<glyph unicode="S" horiz-adv-x="504" d="M235 -8q-100 0 -153.5 54t-42.5 142l3 27q2 12 13 12h112q12 0 10 -12l-3 -20q-4 -35 18.5 -58.5t62.5 -23.5q38 0 60.5 20t26.5 51q3 32 -19 53t-86 57q-32 18 -50 29t-44 32.5t-39 42t-21 51.5t-3 67q10 88 75 140t160 52q99 0 153.5 -56t43.5 -147l-2 -20 q-2 -12 -13 -12h-112q-12 0 -10 12l2 18q5 36 -16.5 60t-62.5 24q-35 0 -57 -18.5t-26 -51.5t18 -55t88 -58q83 -52 105 -72q63 -57 52 -142q-11 -91 -77.5 -144.5t-165.5 -53.5z" />
<glyph unicode="T" horiz-adv-x="510" d="M540 700q12 0 10 -12l-12 -98q-2 -12 -13 -12h-148q-5 0 -5 -5l-69 -561q-2 -12 -13 -12h-113q-11 0 -11 12l69 561q2 5 -4 5h-143q-12 0 -10 12l12 98q2 12 13 12h437z" />
<glyph unicode="U" horiz-adv-x="537" d="M248 -8q-100 0 -153.5 61.5t-40.5 161.5l58 473q0 12 13 12h113q12 0 10 -12l-59 -480q-5 -43 15.5 -69t58.5 -26q39 0 65.5 26t31.5 69l59 480q2 12 13 12h114q12 0 10 -12l-58 -473q-13 -101 -81.5 -162t-168.5 -61z" />
<glyph unicode="V" horiz-adv-x="538" d="M187 0q-11 0 -12 10l-86 677q-1 13 12 13h124q11 0 11 -11l41 -465q0 -6 4 -3q1 1 2 3l154 465q3 11 14 11h119q13 0 9 -13l-254 -677q-4 -10 -15 -10h-123z" />
<glyph unicode="W" horiz-adv-x="753" d="M164 0q-10 0 -11 10l-70 677q0 13 13 13h119q11 0 11 -11l27 -384q0 -3 2.5 -3t3.5 3l118 384q3 11 14 11h107q11 0 11 -11l31 -384q0 -3 2 -3t4 3l116 384q3 11 14 11h115q12 0 8 -13l-224 -676q-3 -11 -14 -11h-110q-11 0 -11 11l-29 402q-1 3 -3 3t-3 -3l-121 -402 q-3 -11 -14 -11h-106z" />
<glyph unicode="X" horiz-adv-x="536" d="M17 0q-15 0 -7 14l201 333q2 3 1 6l-119 333q-5 14 10 14h120q9 0 12 -9l70 -211q3 -6 6 0l121 211q5 9 15 9h119q15 0 7 -14l-200 -333q-1 -3 -1 -6l119 -333q3 -14 -11 -14h-118q-10 0 -13 9l-70 210q-1 6 -6 0l-122 -210q-4 -9 -14 -9h-120z" />
<glyph unicode="Y" horiz-adv-x="530" d="M188 1q-12 0 -10 12l32 256q0 3 -1 6l-117 411q-4 14 10 14h123q11 0 12 -10l59 -253q1 -3 3 -3t3 3l121 253q4 10 15 10h122q14 0 7 -14l-219 -411l-2 -6l-31 -256q-2 -12 -13 -12h-114z" />
<glyph unicode="Z" horiz-adv-x="470" d="M17 0q-12 0 -10 12l13 105q2 10 6 15l314 441q3 6 -2 6h-249q-11 0 -11 12l12 97q2 12 13 12h392q12 0 10 -12l-12 -105q-1 -7 -6 -15l-314 -441q-5 -6 2 -6h249q12 0 10 -12l-12 -97q0 -12 -13 -12h-392z" />
<glyph unicode="[" horiz-adv-x="370" d="M4 -147q-12 0 -10 12l113 923q2 12 14 12h214q12 0 10 -12l-12 -97q-2 -12 -13 -12h-84q-4 0 -6 -5l-85 -694q0 -5 4 -5h86q12 0 10 -12l-12 -98q-2 -12 -13 -12h-216z" />
<glyph unicode="\" horiz-adv-x="407" d="M369 14q3 -14 -11 -14h-113q-9 0 -11 10l-148 676q-3 14 12 14h111q9 0 12 -10z" />
<glyph unicode="]" horiz-adv-x="370" d="M304 -135q-2 -12 -14 -12h-215q-12 0 -10 12l12 98q2 12 13 12h85q6 0 6 5l85 694q0 5 -4 5h-85q-12 0 -10 12l12 97q2 12 13 12h215q12 0 10 -12z" />
<glyph unicode="^" horiz-adv-x="435" d="M56 298q-13 0 -7 14l172 378q5 10 14 10h95q10 0 12 -10l80 -378q3 -14 -11 -14h-91q-9 0 -12 10l-40 237q-1 6 -4 3q-2 -1 -2 -3l-99 -237q-5 -10 -14 -10h-93z" />
<glyph unicode="_" horiz-adv-x="458" d="M8 0q-12 0 -10 12l10 83q2 12 13 12h403q11 0 11 -12l-11 -83q0 -12 -13 -12h-403z" />
<glyph unicode="`" horiz-adv-x="232" d="M261 588q6 -14 -10 -14h-89q-10 0 -13 7l-58 101q-9 15 8 15h106q10 0 13 -8z" />
<glyph unicode="a" d="M347 502q2 12 13 12h113q11 0 11 -12l-61 -490q0 -12 -13 -12h-113q-12 0 -10 12l2 21q1 3 -1 4t-4 -2q-42 -43 -108 -43q-119 0 -132 159q-5 45 3 111q7 58 21 105q50 155 175 155q67 0 95 -42q2 -3 4 -2t2 4zM298 171q11 30 18 87q7 59 3 88q-5 55 -50 55 q-44 0 -65 -54q-13 -31 -20 -89q-7 -52 -4 -86q8 -59 53 -59t65 58z" />
<glyph unicode="b" horiz-adv-x="486" d="M469 367q3 -50 -4 -105q-8 -65 -25 -111q-51 -159 -170 -159q-67 0 -98 43q-4 7 -6 -2l-3 -21q0 -12 -13 -12h-113q-12 0 -10 12l83 676q2 12 13 12h113q12 0 10 -12l-25 -206q0 -8 6 -2q37 42 106 42q125 0 136 -155zM309 172q12 36 18 86q7 57 2 89q-10 54 -53 54 q-45 0 -63 -55q-10 -27 -18 -88q-7 -59 -4 -87q5 -58 51 -58t67 59z" />
<glyph unicode="c" horiz-adv-x="471" d="M221 -8q-81 0 -129 42.5t-51 116.5q-3 40 5 108q6 45 21 106q21 72 80 114.5t139 42.5q79 0 127.5 -41t53.5 -108q2 -14 0 -29q-1 -11 -13 -13l-113 -11q-6 -1 -8.5 2t-2.5 9v10q0 4 -2 14q-9 46 -58 46q-54 0 -71 -60q-9 -29 -16 -83q-7 -58 -4 -86q3 -59 56 -59 q28 0 47 15.5t25 40.5l3 12q4 13 14 11l112 -10q10 -2 9 -13q-1 -6 -5 -20q-19 -73 -77.5 -115t-141.5 -42z" />
<glyph unicode="d" horiz-adv-x="486" d="M370 688q2 12 13 12h113q12 0 10 -12l-83 -676q0 -12 -13 -12h-113q-12 0 -10 12l2 21q1 3 -1 4t-4 -2q-42 -43 -108 -43q-119 0 -132 159q-5 45 3 111q7 58 21 105q50 155 175 155q67 0 95 -42q2 -3 4 -2t2 4zM298 171q11 30 18 87q7 59 3 88q-5 55 -50 55 q-44 0 -65 -54q-13 -31 -20 -89q-7 -52 -4 -86q8 -59 53 -59t65 58z" />
<glyph unicode="e" horiz-adv-x="477" d="M246 112q50 1 76 48q6 11 16 8l90 -20q10 -3 6 -15q-28 -66 -82 -103.5t-128 -37.5q-76 0 -122.5 40.5t-54.5 107.5q-7 50 2 125q6 50 14 82q20 82 77.5 129t144.5 47q183 0 178 -194q-1 -43 -7 -103q-2 -12 -14 -12h-258q-5 0 -5 -5q-2 -14 -2 -36q2 -28 20.5 -44.5 t48.5 -16.5zM269 401q-52 0 -70 -58q-2 -6 -4.5 -18.5l-3.5 -17.5q0 -5 4 -5h126q4 0 6 5v11v12.5v10.5q0 28 -15 44t-43 16z" />
<glyph unicode="f" horiz-adv-x="332" d="M340 514q12 0 10 -12l-11 -85q-2 -12 -13 -12h-74q-5 0 -5 -5l-48 -388q-2 -12 -13 -12h-113q-12 0 -10 12l47 388q2 5 -4 5h-43q-12 0 -10 12l11 85q0 12 13 12h42q4 0 6 5l3 25q11 91 59 125.5t149 31.5h20q12 0 10 -12l-10 -80q-2 -12 -13 -12h-17q-29 -1 -43.5 -15.5 t-19.5 -47.5l-1 -15q-2 -5 4 -5h74z" />
<glyph unicode="g" horiz-adv-x="483" d="M349 502q2 12 13 12h113q11 0 11 -12l-58 -467q-32 -263 -333 -234q-12 1 -10 13l15 101q1 11 14 11q87 -9 128.5 18.5t49.5 98.5q1 3 -1 4t-4 -2q-42 -43 -104 -43q-64 0 -102.5 38t-41.5 113q-3 25 6 106q12 83 23 112q19 71 64.5 111t111.5 40q64 0 96 -45q4 -7 6 2z M305 177q9 35 14 82q6 55 6 83q-1 27 -15.5 43t-40.5 16q-25 0 -43 -16t-27 -43q-10 -34 -16 -83q-5 -41 -5 -81q2 -27 17 -43t41 -16t44 16t25 42z" />
<glyph unicode="h" horiz-adv-x="482" d="M335 522q71 0 105.5 -46.5t23.5 -129.5l-41 -334q0 -12 -13 -12h-113q-12 0 -10 12l38 314q5 35 -9.5 55t-42.5 20t-47.5 -20.5t-24.5 -55.5l-39 -313q0 -12 -13 -12h-113q-12 0 -10 12l83 676q2 12 13 12h113q12 0 10 -12l-26 -213q0 -8 7 -1q41 48 109 48z" />
<glyph unicode="i" horiz-adv-x="237" d="M168 563q-36 0 -55.5 23.5t-15.5 60.5q5 37 30 60t62 23q36 0 56 -23t15 -60q-5 -38 -30 -61t-62 -23zM42 0q-12 0 -10 12l60 490q2 12 13 12h113q12 0 10 -12l-60 -490q-2 -12 -13 -12h-113z" />
<glyph unicode="j" horiz-adv-x="227" d="M165 562q-36 0 -56 24t-15 60q4 35 31.5 59t60.5 24q32 0 53.5 -24.5t17.5 -58.5q-5 -36 -30.5 -60t-61.5 -24zM-89 -204q-12 0 -10 12l12 96q2 13 13 11q50 -1 73 19t28 65l62 503q2 12 13 12h113q11 0 11 -12l-62 -502q-7 -58 -20 -93.5t-40.5 -62.5t-74 -38 t-118.5 -10z" />
<glyph unicode="k" horiz-adv-x="476" d="M36 0q-12 0 -10 12l83 676q2 12 13 12h113q12 0 10 -12l-41 -334q0 -3 2 -4t4 2l128 155q5 7 14 7h123q7 0 8.5 -4.5t-3.5 -10.5l-134 -164q-3 -3 -1 -7l93 -314q4 -14 -10 -14h-120q-10 0 -12 10l-52 215q-2 6 -7 1l-54 -66q-3 -3 -3 -6l-18 -142q0 -12 -13 -12h-113z " />
<glyph unicode="l" horiz-adv-x="222" d="M35 0q-12 0 -10 12l83 676q2 12 13 12h113q11 0 11 -12l-83 -676q-2 -12 -14 -12h-113z" />
<glyph unicode="m" horiz-adv-x="732" d="M592 522q70 0 102 -46.5t22 -130.5l-41 -333q-2 -12 -13 -12h-113q-12 0 -10 12l38 313q4 35 -9.5 55.5t-40.5 20.5t-46.5 -20.5t-23.5 -54.5l-38 -314q-2 -12 -14 -12h-112q-12 0 -10 12l38 313q4 35 -10 55.5t-41 20.5t-46.5 -20.5t-23.5 -54.5l-38 -314 q-2 -12 -14 -12h-112q-12 0 -10 12l60 490q2 12 13 12h113q12 0 10 -12l-4 -26q0 -3 2 -4t4 2q44 48 112 48q87 0 115 -72q3 -5 8 2q48 70 133 70z" />
<glyph unicode="n" horiz-adv-x="482" d="M335 522q71 0 105.5 -46.5t23.5 -129.5l-41 -334q0 -12 -13 -12h-113q-12 0 -10 12l38 314q5 35 -9.5 55t-42.5 20t-47.5 -20.5t-24.5 -55.5l-39 -313q0 -12 -13 -12h-113q-12 0 -10 12l60 490q2 12 13 12h113q13 0 11 -12l-4 -27q0 -8 7 -1q41 48 109 48z" />
<glyph unicode="o" d="M222 -8q-84 0 -131.5 44t-49.5 122q-2 47 5 100q8 61 19 101q21 75 80 119t143 44q83 0 130.5 -44t49.5 -118q2 -48 -5 -101q-4 -43 -18 -99q-21 -79 -79.5 -123.5t-143.5 -44.5zM237 113q27 0 47 18t28 48q6 23 14 79q5 47 5 78q-1 30 -16.5 47.5t-42.5 17.5t-47 -17.5 t-28 -47.5q-11 -51 -14 -78q-4 -41 -6 -79q2 -30 17.5 -48t42.5 -18z" />
<glyph unicode="p" horiz-adv-x="489" d="M469 363q6 -51 -3 -111q-5 -51 -21 -105q-50 -155 -174 -155q-68 0 -96 42q-2 3 -4 2t-2 -4l-25 -206q-2 -12 -14 -12h-113q-12 0 -10 12l83 676q2 12 13 12h113q11 0 11 -12l-3 -21q-1 -3 1 -4t4 2q42 43 109 43q118 0 131 -159zM310 167q12 27 19 89q7 52 4 86 q-7 59 -53 59q-45 0 -65 -58q-11 -30 -18 -87q-7 -55 -3 -88q5 -55 50 -55q43 0 66 54z" />
<glyph unicode="q" horiz-adv-x="489" d="M347 502q2 12 13 12h113q11 0 11 -12l-83 -676q-2 -12 -14 -12h-113q-12 0 -10 12l25 206q1 3 -1 4t-4 -2q-38 -42 -107 -42q-123 0 -136 155q-1 50 4 105q10 66 25 111q51 159 171 159q66 0 97 -43q2 -3 4 -2t2 4zM297 168q12 31 19 88q7 53 4 87q-7 58 -52 58 q-46 0 -67 -59q-10 -31 -17 -86q-7 -61 -2 -89q8 -54 52 -54q45 0 63 55z" />
<glyph unicode="r" horiz-adv-x="343" d="M324 521q28 0 46 -12q7 -6 4 -15l-33 -116q-3 -12 -14 -7q-26 8 -54 1q-28 -4 -50.5 -28t-26.5 -58l-34 -274q0 -12 -13 -12h-113q-12 0 -10 12l60 490q2 12 13 12h113q13 0 11 -12l-5 -39q-1 -4 1 -4.5t4 2.5q40 60 101 60z" />
<glyph unicode="s" horiz-adv-x="443" d="M207 -7q-91 0 -139.5 41t-40.5 108l1 8q2 12 13 12h108q11 0 11 -7l-1 -7q-3 -22 14 -36t46 -14q26 0 43.5 12.5t19.5 31.5q1 11 -4 19.5t-17 14.5t-24.5 10.5t-32.5 11t-33 12.5q-55 21 -87.5 54.5t-24.5 97.5q9 74 65.5 116.5t141.5 42.5q87 0 133.5 -44.5t37.5 -118.5 q-2 -11 -13 -11h-104q-11 0 -11 8l1 7q3 21 -12.5 35t-43.5 14q-26 0 -43.5 -13t-20.5 -32q-1 -11 3.5 -19.5t16.5 -15.5t22 -11t30.5 -10.5t30.5 -10.5q63 -22 98.5 -55t28.5 -97q-9 -72 -67 -113t-146 -41z" />
<glyph unicode="t" horiz-adv-x="325" d="M333 420q-2 -12 -13 -12h-75q-5 0 -5 -5l-28 -223q-4 -31 7 -44.5t36 -12.5h19q12 0 10 -12l-12 -97q-2 -12 -13 -12q-17 -1 -48 -1q-77 0 -111 26t-25 98l34 278q0 5 -5 5h-44q-12 0 -10 12l10 82q2 12 13 12h44q6 0 6 5l14 115q2 12 13 12h108q12 0 10 -12l-14 -115 q-2 -5 4 -5h75q12 0 10 -12z" />
<glyph unicode="u" horiz-adv-x="481" d="M343 502q2 12 13 12h114q12 0 10 -12l-60 -490q-2 -12 -14 -12h-113q-12 0 -10 12l3 25q0 7 -6 2q-39 -46 -109 -46q-66 0 -103.5 41t-28.5 121l43 347q2 12 13 12h114q12 0 10 -12l-39 -314q-8 -75 52 -75q29 0 48.5 21t24.5 56z" />
<glyph unicode="v" horiz-adv-x="464" d="M148 0q-10 0 -12 10l-74 491q-1 13 11 13h125q11 0 11 -11l25 -300q1 -6 4 -3q2 1 2 3l99 300q3 11 14 11l125 -1q12 0 8 -13l-195 -490q-3 -10 -15 -10h-128z" />
<glyph unicode="w" horiz-adv-x="677" d="M135 0q-10 0 -13 10l-61 491q-1 13 12 13h112q12 0 12 -11l18 -299q1 -3 3 -3t3 3l95 299q3 11 14 11h100q11 0 11 -11l24 -299q1 -6 4 -3q2 1 2 3l95 299q3 11 14 11l112 -1q13 0 9 -13l-183 -490q-4 -10 -15 -10h-113q-10 0 -11 10l-27 262q-1 6 -4 3l-2 -3l-86 -261 q-2 -11 -14 -11h-111z" />
<glyph unicode="x" horiz-adv-x="473" d="M9 0q-16 0 -7 14l163 240q2 4 1 6l-105 240q-5 14 11 14h122q9 0 14 -8l51 -126q3 -4 6 0l82 126q6 8 16 8h126q16 0 7 -14l-163 -240q-3 -3 -1 -6l104 -240q6 -14 -10 -14h-121q-11 0 -14 8l-52 128q-3 4 -6 0l-83 -128q-4 -8 -15 -8h-126z" />
<glyph unicode="y" horiz-adv-x="449" d="M-1 -199q-7 0 -5 12l11 92q2 12 7 12h5q54 0 79.5 16t39.5 64q1 2 0 6l-78 497q-2 14 11 14h121q11 0 11 -11l28 -301q0 -3 1.5 -3.5t2.5 1.5q1 1 1 2l97 301q3 11 14 11h123q13 0 8 -14l-212 -519q-31 -73 -57 -108t-73.5 -53.5t-128.5 -18.5h-6z" />
<glyph unicode="z" horiz-adv-x="404" d="M13 0q-11 0 -11 12l14 108q0 7 6 15l215 246q4 6 -2 6h-169q-12 0 -10 12l12 103q2 12 14 12h327q11 0 11 -12l-14 -107q0 -7 -6 -15l-222 -246q-4 -6 3 -6h186q12 0 10 -12l-13 -104q-2 -12 -13 -12h-338z" />
<glyph unicode="{" horiz-adv-x="349" d="M185 -147q-60 0 -88 32t-20 92l25 207q10 82 -46 89q-12 1 -10 13l10 87q2 11 13 13q59 7 69 88l25 203q7 60 42.5 91.5t95.5 31.5h85q12 0 10 -12l-11 -97q-2 -12 -14 -12h-22q-22 0 -37.5 -17t-19.5 -46l-20 -161q-12 -94 -69 -122q-6 -3 -1 -6q51 -29 39 -124 l-20 -165q-4 -29 8 -46t34 -17h22q12 0 10 -12l-12 -98q-2 -12 -13 -12h-85z" />
<glyph unicode="|" horiz-adv-x="188" d="M9 -80q-11 0 -11 12l101 816q0 12 13 12h113q12 0 10 -12l-100 -816q-2 -12 -13 -12h-113z" />
<glyph unicode="}" horiz-adv-x="349" d="M90 -147h-86q-12 0 -10 12l12 98q2 12 13 12h23q22 0 37.5 17t19.5 46l20 165q12 95 71 124q4 3 0 6q-52 28 -40 122l20 161q4 29 -8 46t-34 17h-22q-12 0 -10 12l11 97q2 12 14 12h85q59 0 87 -31.5t21 -91.5l-25 -203q-10 -80 46 -88q11 -1 11 -13l-11 -87 q-2 -11 -13 -13q-59 -7 -69 -89l-25 -207q-7 -60 -43 -92t-95 -32z" />
<glyph unicode="~" horiz-adv-x="497" d="M337 201q-35 0 -79 28q-48 30 -71 30q-37 0 -66 -36q-8 -10 -17 -4l-58 41q-7 6 -3 16q22 46 64 75t87 29q36 0 76 -25q4 -2 13.5 -8.5t14.5 -9.5t13 -7t15.5 -5.5t15.5 -1.5q31 0 59 35q9 10 17 4l63 -44q8 -5 5 -13l-3 -6q-26 -43 -65.5 -70.5t-80.5 -27.5z" />
<glyph unicode="&#xa1;" horiz-adv-x="306" d="M219 708q36 0 57.5 -25.5t17.5 -61.5q-4 -35 -33.5 -60.5t-62.5 -25.5q-34 0 -56.5 25.5t-18.5 60.5q5 37 31.5 62t64.5 25zM135 457q2 12 13 12h85q12 0 10 -12l-39 -436q-2 -12 -13 -12h-113q-12 0 -10 12z" />
<glyph unicode="&#xa2;" horiz-adv-x="471" d="M318 259l3 12q4 13 14 11l112 -10q10 -2 9 -13q-1 -6 -5 -20q-16 -60 -59 -99.5t-105 -52.5q-5 -2 -5 -6l-6 -68q-2 -12 -12 -12h-92q-10 0 -9 12l11 70q0 5 -3 6q-55 14 -85.5 53.5t-33.5 98.5q-3 40 5 108q6 45 21 106q17 57 57.5 96t98.5 53q3 1 5 6l6 71q1 12 12 12 h92q11 0 9 -12l-11 -69q-1 -4 3 -6q57 -13 90.5 -50.5t37.5 -92.5q2 -14 0 -29q-1 -11 -13 -13l-113 -11q-6 -1 -8.5 2t-2.5 9v10q0 4 -2 14q-9 46 -58 46q-54 0 -71 -60q-9 -29 -16 -83q-7 -58 -4 -86q3 -59 56 -59q28 0 47 15.5t25 40.5z" />
<glyph unicode="&#xa3;" horiz-adv-x="548" d="M228 127q-4 -6 2 -6h277q12 0 10 -12l-12 -97q-2 -12 -13 -12h-417q-12 0 -10 12l12 100q1 9 9 15q38 30 46 95l7 60q2 5 -4 5h-56q-12 0 -10 12l11 90q2 12 13 12h56q4 0 6 5l10 84q13 101 72 158t150 60q78 2 123.5 -40t56.5 -121q2 -12 -11 -14l-109 -16q-11 -2 -13 9 q-4 33 -18.5 47.5t-37.5 13.5q-64 -2 -76 -92l-11 -89q0 -5 5 -5h152q12 0 10 -12l-11 -90q-2 -12 -13 -12h-152q-4 0 -6 -5l-7 -60q-8 -60 -41 -95z" />
<glyph unicode="&#xa4;" horiz-adv-x="553" d="M506 303q-8 -56 -38 -103q-2 -5 0 -7l55 -65q7 -8 -2 -17l-79 -63q-9 -9 -16 0l-52 60q-3 3 -6 1q-50 -25 -104 -25q-52 0 -93 23q-4 1 -7 -1l-64 -58q-9 -8 -17 0l-63 63q-8 8 3 17l66 61q3 3 2 7q-21 52 -14 107q8 58 38 103q1 4 0 7l-55 65q-8 8 2 17l78 63q10 8 17 0 l51 -60q1 -3 6 -1q49 26 104 26q58 0 102 -29q3 -2 6 1l69 63q10 8 17 0l62 -63q7 -8 -2 -17l-76 -69q-2 -3 -1 -7q17 -46 11 -99zM194 303q-5 -41 20 -70.5t65 -29.5t72.5 29.5t36.5 70.5q5 42 -20 71.5t-64 29.5q-40 0 -72.5 -29.5t-37.5 -71.5z" />
<glyph unicode="&#xa5;" horiz-adv-x="590" d="M591 700q14 0 7 -14l-184 -345q-2 -6 3 -6h90q12 0 10 -12l-7 -54q-2 -12 -13 -12h-116q-4 0 -6 -5l-5 -44q0 -5 4 -5h117q12 0 10 -12l-7 -54q-2 -12 -13 -12h-116q-6 0 -6 -5l-13 -107q-2 -12 -13 -12h-114q-12 0 -10 12l13 107q2 5 -4 5h-116q-12 0 -10 12l6 54 q2 12 13 12h117q5 0 5 5l6 44q0 5 -5 5h-116q-12 0 -10 12l6 54q2 12 13 12h91q6 0 4 6l-99 345q-3 14 10 14h123q11 0 12 -10l59 -253q1 -3 3 -3t3 3l121 253q4 10 15 10h122z" />
<glyph unicode="&#xa6;" horiz-adv-x="188" d="M67 394q-12 0 -10 12l42 342q0 12 13 12h113q12 0 10 -12l-42 -342q0 -12 -13 -12h-113zM9 -80q-11 0 -11 12l42 341q2 12 13 12h114q12 0 10 -12l-42 -341q-2 -12 -13 -12h-113z" />
<glyph unicode="&#xa7;" horiz-adv-x="455" d="M181 -205q-84 0 -128.5 45.5t-36.5 120.5l2 27q2 12 13 12h114q12 0 10 -11l-2 -11q-3 -28 10 -45.5t37 -17.5t41 16.5t20 40.5q3 22 -12.5 40.5t-32 27.5t-55.5 28q-43 21 -68 42.5t-38 52.5q-14 32 -9 81q7 53 39 95q24 30 61 48q7 3 1 7q-76 56 -64 144q8 72 68.5 121 t144.5 49t131 -48t37 -125l-2 -18q-2 -12 -13 -12h-113q-5 0 -8.5 3t-2.5 7l1 9q4 28 -9 45.5t-37 17.5t-41 -17t-20 -43q-4 -31 16.5 -49.5t68.5 -40.5q85 -39 112 -77q28 -42 21 -99q-8 -54 -35 -91q-26 -41 -67 -59q-8 -2 -2 -6q75 -54 64 -141q-10 -77 -70 -123 t-146 -46zM233 185q33 0 51 26q12 15 15 40q3 27 -8 44q-13 21 -42 21q-32 0 -51 -27q-11 -15 -14 -39q-3 -25 6 -40q12 -25 43 -25z" />
<glyph unicode="&#xa8;" horiz-adv-x="341" d="M135 569q-31 0 -47.5 19.5t-12.5 51.5q4 31 25.5 51t51.5 20t46 -19.5t12 -51.5q-5 -32 -25 -51.5t-50 -19.5zM308 569q-29 0 -46 20t-13 51t25.5 51t51.5 20q31 0 47 -19.5t12 -51.5t-25 -51.5t-52 -19.5z" />
<glyph unicode="&#xa9;" horiz-adv-x="780" d="M369 -8q-151 0 -237.5 102.5t-67.5 258.5q19 152 131 253.5t262 101.5q151 0 238.5 -101.5t68.5 -253.5q-19 -156 -131 -258.5t-264 -102.5zM378 70q118 0 206 80.5t103 202.5q15 119 -53.5 198t-186.5 79q-117 0 -204.5 -79t-102.5 -198q-15 -122 52.5 -202.5 t185.5 -80.5zM393 177q-49 0 -74.5 28.5t-20.5 76.5l17 137q6 48 39 76t82 28t75.5 -27.5t20.5 -73.5q-2 -10 -13 -10l-49 -2q-11 0 -11 6l1 7q2 16 -6.5 26.5t-25.5 10.5q-16 0 -27 -10.5t-12 -26.5l-18 -146q-2 -16 6 -26t24 -10q17 0 28.5 10t12.5 26l1 2q0 12 13 12 l48 -2q11 0 11 -5l-1 -5q-5 -46 -38.5 -74t-82.5 -28z" />
<glyph unicode="&#xaa;" horiz-adv-x="301" d="M195 566h43q4 0 6 5l2 15q2 22 -9 36t-33 14q-33 0 -46 -27q-5 -11 -14 -10l-58 4q-11 2 -10 13q10 41 48 66.5t88 25.5q58 0 90 -31t26 -80l-27 -221q-2 -12 -13 -12h-58q-12 0 -10 12v4q1 3 -1 4t-4 -1q-27 -24 -70 -24q-46 0 -74 23.5t-21 76.5q13 107 145 107z M169 426q24 0 42 13.5t21 34.5l3 22q0 5 -5 5h-38q-55 0 -61 -39q-2 -19 8 -27.5t30 -8.5zM29 301q2 12 13 12h248q12 0 10 -12l-6 -49q-2 -12 -13 -12h-248q-12 0 -10 12z" />
<glyph unicode="&#xab;" horiz-adv-x="469" d="M247 121q5 -14 -11 -14h-93q-10 0 -13 8l-66 158q-5 8 2 16l104 158q6 8 16 8h93q16 0 7 -14l-108 -157q-2 -3 0 -6zM409 121q5 -14 -11 -14h-93q-10 0 -13 8l-66 158q-5 8 2 16l104 158q6 8 16 8h93q16 0 7 -14l-108 -157q-2 -3 0 -6z" />
<glyph unicode="&#xac;" horiz-adv-x="448" d="M436 361q12 0 10 -12l-11 -94l-1 -7h-1l-11 -90q-2 -12 -13 -12h-86q-13 0 -11 12l11 85q0 5 -4 5h-271q-12 0 -10 12l11 89q2 12 13 12h374z" />
<glyph unicode="&#xad;" horiz-adv-x="359" d="M46 235q-12 0 -10 12l12 97q2 12 13 12h285q11 0 11 -12l-12 -97q-2 -12 -14 -12h-285z" />
<glyph unicode="&#xae;" horiz-adv-x="426" d="M281 710q85 0 134.5 -56.5t38.5 -141.5q-11 -88 -74.5 -146.5t-147.5 -58.5q-85 0 -134.5 58.5t-38.5 146.5q10 85 74 141.5t148 56.5zM238 362q62 0 108 42.5t53 107.5q8 61 -27.5 102.5t-96.5 41.5t-107 -41.5t-54 -102.5q-7 -65 28 -107.5t96 -42.5zM330 544 q-5 -32 -29 -47q-5 -1 -3 -6l12 -59q3 -14 -11 -14h-24q-9 0 -11 10l-12 56q0 4 -4 4h-2q-5 0 -5 -5l-7 -53q-2 -12 -13 -12h-22q-12 0 -10 12l19 161q2 12 13 12h59q25 0 39 -17t11 -42zM255 563q-5 0 -5 -5l-4 -30q0 -5 4 -5h13q19 0 21 20t-16 20h-13z" />
<glyph unicode="&#xaf;" horiz-adv-x="306" d="M92 580q-11 0 -11 12l9 71q2 12 13 12h226q12 0 10 -12l-8 -71q-2 -12 -13 -12h-226z" />
<glyph unicode="&#xb0;" horiz-adv-x="356" d="M216 471q-68 0 -109 49.5t-32 119.5q8 70 61 119t121 49t109.5 -49t33.5 -119q-9 -71 -62.5 -120t-121.5 -49zM227 564q31 0 54.5 22t27.5 54q5 33 -13 55t-50 22q-30 0 -54 -22t-28 -55q-4 -32 14.5 -54t48.5 -22z" />
<glyph unicode="&#xb1;" horiz-adv-x="448" d="M316 453q-2 -5 4 -5h127q12 0 10 -12l-11 -89q-2 -12 -13 -12h-127q-4 0 -6 -5l-15 -130q-2 -12 -14 -12h-87q-12 0 -10 12l16 130q0 5 -4 5h-127q-11 0 -11 12l11 89q2 12 13 12h128q5 0 5 5l16 132q2 12 13 12h88q12 0 10 -12zM18 5q-12 0 -10 12l11 89q2 12 13 12h374 q11 0 11 -12l-11 -89q-2 -12 -14 -12h-374z" />
<glyph unicode="&#xb2;" horiz-adv-x="296" d="M66 416q-11 0 -11 12l7 57q1 8 8 15q105 107 131 136q49 54 52 85q3 19 -6 30.5t-26 11.5t-29 -11t-14 -30l-2 -15q-2 -12 -13 -12h-66q-12 0 -10 12l3 24q9 51 48 80.5t93 29.5q58 0 88 -32.5t23 -89.5q-5 -46 -50 -106q-37 -43 -105 -113q-6 -6 3 -6h119q12 0 10 -12 l-6 -54q-2 -12 -14 -12h-233z" />
<glyph unicode="&#xb3;" horiz-adv-x="294" d="M322 612q5 -30 1 -61q-5 -29 -12 -51q-35 -90 -130 -90q-47 0 -76.5 25.5t-32.5 68.5q-2 11 -2 36q2 12 13 12h65q11 0 11 -12q0 -13 1 -19q5 -32 31 -32q23 0 36 25q8 17 11 43q4 27 -1 47q-6 23 -29 23q-11 0 -21 -7q-10 -5 -17 2l-26 37q-7 9 2 17l87 76q6 6 -2 6 h-114q-12 0 -10 12l7 53q2 12 13 12h215q12 0 10 -12l-7 -56q0 -8 -7 -15l-68 -65q-5 -5 0 -6q40 -13 52 -69z" />
<glyph unicode="&#xb4;" horiz-adv-x="232" d="M83 574q-16 0 -7 14l68 101q5 8 15 8h106q7 0 8.5 -4.5t-3.5 -10.5l-83 -101q-6 -7 -15 -7h-89z" />
<glyph unicode="&#xb5;" horiz-adv-x="486" d="M347 502q2 12 13 12h113q11 0 11 -12l-61 -490q0 -12 -13 -12h-113q-12 0 -10 12l3 25q0 8 -6 2q-39 -46 -109 -46h-10q-5 2 -5 -4l-22 -177q-2 -12 -13 -12h-114q-12 0 -10 12l85 690q2 12 13 12h113q13 0 11 -12l-39 -314q-5 -35 8.5 -55t43.5 -20q29 0 48.5 21 t24.5 56z" />
<glyph unicode="&#xb6;" horiz-adv-x="552" d="M303 700h256q12 0 10 -12l-107 -876q-2 -12 -13 -12h-84q-12 0 -10 12l95 776q2 5 -4 5h-70q-5 0 -5 -5l-95 -776q-2 -12 -13 -12h-85q-12 0 -10 12l53 434q1 4 -4 6q-82 11 -124.5 71.5t-31.5 151.5q12 99 78 162t164 63z" />
<glyph unicode="&#xb7;" horiz-adv-x="172" d="M62 -4q-37 0 -58.5 25.5t-16.5 61.5q4 35 33.5 60.5t62.5 25.5t56.5 -25.5t19.5 -60.5q-5 -36 -32.5 -61.5t-64.5 -25.5z" />
<glyph unicode="&#xb8;" horiz-adv-x="155" d="M-30 -183q-10 3 -7 15l13 48q2 11 15 8q34 -9 44 22q12 34 -31 75q-5 6 -3 10.5t10 4.5h62q7 0 11 -4q3 -1 4 -4q53 -56 29 -121q-10 -27 -29 -42.5t-41.5 -18t-41.5 -1t-35 7.5z" />
<glyph unicode="&#xb9;" horiz-adv-x="170" d="M134 833q6 3 15 3h69q12 0 10 -12l-48 -396q-2 -12 -13 -12h-65q-13 0 -11 12l40 323q0 4 -4 4l-20 -2q-6 -1 -9 2.5t-2 9.5l5 43q2 10 11 14z" />
<glyph unicode="&#xba;" horiz-adv-x="316" d="M183 360q-53 0 -83.5 27.5t-32.5 76.5q-3 23 1 70q6 41 15 71q14 48 52 75.5t91 27.5q51 0 81 -27t33 -75q2 -42 -2 -71q-2 -27 -15 -71q-15 -49 -52 -76.5t-88 -27.5zM192 438q35 0 47 40q8 27 11 56q4 38 3 56q-3 41 -38 41q-16 0 -29 -11t-18 -30q-8 -28 -11 -56 q-5 -29 -3 -56q2 -40 38 -40zM42 240q-12 0 -10 12l6 50q2 12 13 12h254q12 0 10 -12l-6 -50q-2 -12 -13 -12h-254z" />
<glyph unicode="&#xbb;" horiz-adv-x="469" d="M62 107q-16 0 -7 14l107 157q2 4 1 6l-69 157q-6 14 10 14h93q11 0 14 -8l66 -158q4 -9 -2 -16l-105 -158q-5 -8 -15 -8h-93zM224 107q-16 0 -7 14l107 157q2 4 1 6l-69 157q-6 14 10 14h93q11 0 14 -8l66 -158q4 -9 -2 -16l-105 -158q-5 -8 -15 -8h-93z" />
<glyph unicode="&#xbc;" horiz-adv-x="747" d="M163 292q-2 -12 -13 -12h-65q-12 0 -10 12l39 323q1 4 -4 4l-20 -2q-6 -1 -9 2.5t-2 9.5l5 43q2 9 11 14l23 11q5 3 15 3h68q11 0 11 -12zM537 692q5 8 15 8h73q15 0 6 -14l-472 -678q-5 -8 -14 -8h-74q-15 0 -6 14zM722 187q12 0 10 -12l-7 -58q0 -12 -13 -12h-14 q-4 0 -6 -5l-11 -88q0 -12 -13 -12h-65q-12 0 -10 12l11 88q0 5 -4 5h-156q-11 0 -11 12l6 46q2 8 5 15l115 233q3 9 14 9h69q14 0 8 -14l-103 -213q-3 -6 3 -6h60q5 0 5 5l7 58q2 12 14 12h64q13 0 11 -12l-7 -58q-2 -5 4 -5h14z" />
<glyph unicode="&#xbd;" horiz-adv-x="723" d="M163 292q-2 -12 -13 -12h-65q-12 0 -10 12l39 323q1 4 -4 4l-20 -2q-6 -1 -9 2.5t-2 9.5l5 43q2 9 11 14l23 11q5 3 15 3h68q11 0 11 -12zM537 692q5 8 15 8h73q15 0 6 -14l-472 -678q-5 -8 -14 -8h-74q-15 0 -6 14zM563 84q-6 -6 2 -6h120q12 0 10 -12l-7 -54 q-2 -12 -13 -12h-234q-12 0 -10 12l7 57q2 10 8 15q92 94 131 136q48 55 52 85q2 19 -7 30.5t-26 11.5t-28.5 -11t-13.5 -30l-2 -15q-2 -12 -13 -12h-66q-12 0 -10 12l2 24q10 51 48.5 80.5t93.5 29.5q58 0 88 -32.5t23 -89.5q-6 -49 -51 -106q-24 -29 -104 -113z" />
<glyph unicode="&#xbe;" horiz-adv-x="828" d="M294 366q-34 -90 -129 -90q-47 0 -76.5 25.5t-33.5 68.5q-2 23 -1 36q2 12 13 12h65q11 0 11 -12q-2 -11 1 -19q3 -32 31 -32q23 0 36 25q8 17 11 43q3 31 -1 47q-6 23 -30 23q-10 0 -21 -7q-9 -6 -16 2l-26 37q-8 8 2 17l87 76q6 6 -3 6h-113q-12 0 -10 12l6 53 q2 12 13 12h216q12 0 10 -12l-7 -56q-2 -10 -8 -15l-68 -65q-4 -6 1 -7q40 -13 51 -68q6 -25 1 -61q-3 -29 -12 -51zM618 692q5 8 15 8h74q15 0 6 -14l-472 -678q-5 -8 -15 -8h-74q-15 0 -6 14zM804 187q12 0 10 -12l-7 -58q-2 -12 -13 -12h-15q-5 0 -5 -5l-11 -88 q-2 -12 -13 -12h-65q-12 0 -10 12l10 88q2 5 -4 5h-156q-12 0 -10 12l6 46q0 3 4 15l115 233q4 9 15 9h69q14 0 8 -14l-104 -213q-2 -6 3 -6h60q4 0 6 5l7 58q2 12 13 12h65q12 0 10 -12l-7 -58q0 -5 4 -5h15z" />
<glyph unicode="&#xbf;" horiz-adv-x="465" d="M284 502q32 0 52.5 -23.5t16.5 -56.5q-5 -33 -31 -56.5t-58 -23.5t-53 23.5t-17 56.5q5 33 31 56.5t59 23.5zM318 278q11 0 11 -12l-4 -32q-5 -38 -24.5 -68.5t-44.5 -49.5t-50 -36.5t-43.5 -40t-22.5 -49.5q-4 -32 13 -51.5t49 -19.5q34 0 56.5 21t26.5 54l2 16 q1 11 13 11l113 -5q11 0 11 -11l-2 -11q-11 -91 -77.5 -147.5t-162.5 -56.5q-93 0 -142.5 53.5t-38.5 141.5q6 46 26.5 81t46 56t51 38t44 37.5t21.5 45.5l3 23q2 12 13 12h112z" />
<glyph unicode="&#xc0;" horiz-adv-x="568" d="M411 774q6 -14 -10 -14h-89q-10 0 -13 7l-59 101q-3 6 -0.5 10.5t9.5 4.5h106q10 0 13 -8zM395 0q-11 0 -12 10l-10 98q0 4 -4 4h-182q-4 0 -5 -4l-34 -98q-4 -10 -15 -10h-117q-13 0 -9 13l258 677q4 10 15 10h141q11 0 12 -10l92 -677q1 -13 -11 -13h-119zM224 227 q-3 -6 4 -6h128q6 0 6 6l-31 284q0 3 -1 3q-3 -1 -4 -3z" />
<glyph unicode="&#xc1;" horiz-adv-x="568" d="M483 883q7 0 8.5 -4.5t-3.5 -10.5l-83 -101q-6 -7 -15 -7h-89q-16 0 -7 14l68 101q5 8 15 8h106zM395 0q-11 0 -12 10l-10 98q0 4 -4 4h-182q-4 0 -5 -4l-34 -98q-4 -10 -15 -10h-117q-13 0 -9 13l258 677q4 10 15 10h141q11 0 12 -10l92 -677q1 -13 -11 -13h-119z M224 227q-3 -6 4 -6h128q6 0 6 6l-31 284q0 3 -1 3q-3 -1 -4 -3z" />
<glyph unicode="&#xc2;" horiz-adv-x="568" d="M367 824q-1 6 -6 0l-41 -59q-5 -8 -16 -8h-82q-7 0 -8.5 4.5t2.5 10.5l82 104q5 8 14 8h116q9 0 12 -8l59 -104q4 -6 1 -10.5t-10 -4.5h-83q-10 0 -13 8zM395 0q-11 0 -12 10l-10 98q0 4 -4 4h-182q-4 0 -5 -4l-34 -98q-4 -10 -15 -10h-117q-13 0 -9 13l258 677 q4 10 15 10h141q11 0 12 -10l92 -677q1 -13 -11 -13h-119zM224 227q-3 -6 4 -6h128q6 0 6 6l-31 284q0 3 -1 3q-3 -1 -4 -3z" />
<glyph unicode="&#xc3;" horiz-adv-x="568" d="M329 802q-21 0 -38 -22q-9 -10 -17 -4l-37 30q-8 6 -4 16q36 70 98 70q25 0 59 -23q27 -18 40 -18q23 0 39 21q8 11 16 4l38 -29q9 -7 2 -16q-41 -68 -102 -68q-25 0 -56 21q-26 18 -38 18zM395 0q-11 0 -12 10l-10 98q0 4 -4 4h-182q-4 0 -5 -4l-34 -98q-4 -10 -15 -10 h-117q-13 0 -9 13l258 677q4 10 15 10h141q11 0 12 -10l92 -677q1 -13 -11 -13h-119zM224 227q-3 -6 4 -6h128q6 0 6 6l-31 284q0 3 -1 3q-3 -1 -4 -3z" />
<glyph unicode="&#xc4;" horiz-adv-x="568" d="M271 755q-31 0 -47.5 19.5t-12.5 51.5q4 31 25.5 51t52.5 20q29 0 45 -19.5t12 -51.5t-24.5 -51.5t-50.5 -19.5zM445 755q-30 0 -46.5 20t-12.5 51q4 32 25 51.5t51 19.5q31 0 47.5 -19.5t11.5 -51.5q-4 -32 -24.5 -51.5t-51.5 -19.5zM395 0q-11 0 -12 10l-10 98 q0 4 -4 4h-182q-4 0 -5 -4l-34 -98q-4 -10 -15 -10h-117q-13 0 -9 13l258 677q4 10 15 10h141q11 0 12 -10l92 -677q1 -13 -11 -13h-119zM224 227q-3 -6 4 -6h128q6 0 6 6l-31 284q0 3 -1 3q-3 -1 -4 -3z" />
<glyph unicode="&#xc5;" horiz-adv-x="568" d="M356 747q-46 0 -73 32t-21 79q5 46 40.5 78.5t80.5 32.5t72 -32t22 -79q-6 -47 -40.5 -79t-80.5 -32zM375 906q-19 0 -34 -14t-17 -34q-3 -20 8.5 -33.5t30.5 -13.5t34 13.5t18 33.5q2 20 -9.5 34t-30.5 14zM395 0q-11 0 -12 10l-10 98q0 4 -4 4h-182q-4 0 -5 -4l-34 -98 q-4 -10 -15 -10h-117q-13 0 -9 13l258 677q4 10 15 10h141q11 0 12 -10l92 -677q1 -13 -11 -13h-119zM224 227q-3 -6 4 -6h128q6 0 6 6l-31 284q0 3 -1 3q-3 -1 -4 -3z" />
<glyph unicode="&#xc6;" horiz-adv-x="836" d="M858 591q-2 -12 -13 -12h-256q-5 0 -5 -5l-20 -156q0 -5 5 -5h158q12 0 10 -12l-12 -97q-2 -12 -13 -12h-158q-4 0 -6 -5l-19 -161q-2 -5 4 -5h256q12 0 10 -12l-12 -97q-2 -12 -13 -12h-386q-12 0 -10 12l11 95q2 5 -4 5h-170q-5 0 -7 -4l-54 -99q-4 -9 -14 -9h-123 q-16 0 -8 14l386 677q5 9 15 9h450q12 0 10 -12zM274 227q-2 -6 2 -6h123q5 0 5 5l36 291q0 9 -6 1z" />
<glyph unicode="&#xc7;" horiz-adv-x="520" d="M524 487q0 -10 -12 -10l-115 -5q-11 0 -10 11l2 13q5 41 -15.5 66t-58.5 25q-39 0 -65.5 -25t-31.5 -66l-36 -293q-5 -40 15.5 -65t58.5 -25q39 0 65.5 24.5t31.5 65.5l1 13q1 11 13 11l113 -5q6 0 9 -1.5t2 -5.5l-1 -8q-10 -87 -66 -143.5t-140 -68.5q-7 -2 -3 -6 q43 -55 21 -112q-10 -27 -29 -42.5t-41.5 -18t-41.5 -1t-35 7.5q-10 3 -7 15l13 48q2 11 15 8q34 -9 44 22q12 36 -35 80l-6 3q-72 18 -107.5 74t-25.5 139l35 278q12 99 80 158.5t168 59.5q101 0 154.5 -58t41.5 -155z" />
<glyph unicode="&#xc8;" horiz-adv-x="496" d="M387 786q5 -14 -11 -14h-89q-9 0 -13 7l-58 101q-4 6 -1.5 10.5t9.5 4.5h106q9 0 14 -8zM518 591q-2 -12 -13 -12h-260q-4 0 -6 -5l-19 -156q0 -5 4 -5h162q12 0 10 -12l-11 -97q-2 -12 -14 -12h-162q-5 0 -5 -5l-20 -161q0 -5 4 -5h260q11 0 11 -12l-12 -97 q-2 -12 -13 -12h-390q-11 0 -11 12l83 676q2 12 14 12h390q12 0 10 -12z" />
<glyph unicode="&#xc9;" horiz-adv-x="496" d="M458 895q7 0 8.5 -4.5t-3.5 -10.5l-83 -101q-6 -7 -15 -7h-89q-16 0 -7 14l68 101q5 8 15 8h106zM518 591q-2 -12 -13 -12h-260q-4 0 -6 -5l-19 -156q0 -5 4 -5h162q12 0 10 -12l-11 -97q-2 -12 -14 -12h-162q-5 0 -5 -5l-20 -161q0 -5 4 -5h260q11 0 11 -12l-12 -97 q-2 -12 -13 -12h-390q-11 0 -11 12l83 676q2 12 14 12h390q12 0 10 -12z" />
<glyph unicode="&#xca;" horiz-adv-x="496" d="M342 836q-2 6 -6 0l-41 -59q-4 -8 -15 -8h-83q-6 0 -8 4.5t2 10.5l82 104q5 8 15 8h115q8 0 13 -8l59 -104q7 -15 -10 -15h-82q-11 0 -14 8zM518 591q-2 -12 -13 -12h-260q-4 0 -6 -5l-19 -156q0 -5 4 -5h162q12 0 10 -12l-11 -97q-2 -12 -14 -12h-162q-5 0 -5 -5 l-20 -161q0 -5 4 -5h260q11 0 11 -12l-12 -97q-2 -12 -13 -12h-390q-11 0 -11 12l83 676q2 12 14 12h390q12 0 10 -12z" />
<glyph unicode="&#xcb;" horiz-adv-x="496" d="M246 767q-30 0 -47 20t-13 51t25.5 51t52.5 20q30 0 45.5 -19.5t11.5 -51.5t-24.5 -51.5t-50.5 -19.5zM420 767q-30 0 -46.5 19.5t-12.5 51.5q4 31 25.5 51t51.5 20t46.5 -19.5t12.5 -51.5t-25 -51.5t-52 -19.5zM518 591q-2 -12 -13 -12h-260q-4 0 -6 -5l-19 -156 q0 -5 4 -5h162q12 0 10 -12l-11 -97q-2 -12 -14 -12h-162q-5 0 -5 -5l-20 -161q0 -5 4 -5h260q11 0 11 -12l-12 -97q-2 -12 -13 -12h-390q-11 0 -11 12l83 676q2 12 14 12h390q12 0 10 -12z" />
<glyph unicode="&#xcc;" horiz-adv-x="239" d="M249 786q6 -14 -11 -14h-89q-8 0 -13 7l-58 101q-4 6 -1 10.5t10 4.5h105q11 0 14 -8zM44 0q-11 0 -11 12l83 676q2 12 14 12h113q12 0 10 -12l-83 -676q-2 -12 -13 -12h-113z" />
<glyph unicode="&#xcd;" horiz-adv-x="239" d="M138 772q-16 0 -7 14l68 101q6 8 16 8h105q7 0 8.5 -4.5t-3.5 -10.5l-83 -101q-5 -7 -14 -7h-90zM44 0q-11 0 -11 12l83 676q2 12 14 12h113q12 0 10 -12l-83 -676q-2 -12 -13 -12h-113z" />
<glyph unicode="&#xce;" horiz-adv-x="239" d="M60 769q-7 0 -8.5 4.5t2.5 10.5l81 104q6 8 15 8h115q10 0 13 -8l59 -104q4 -6 1 -10.5t-11 -4.5h-82q-11 0 -14 8l-27 59q-2 7 -5 0l-42 -59q-4 -8 -15 -8h-82zM44 0q-11 0 -11 12l83 676q2 12 14 12h113q12 0 10 -12l-83 -676q-2 -12 -13 -12h-113z" />
<glyph unicode="&#xcf;" horiz-adv-x="239" d="M109 767q-31 0 -47.5 20t-12.5 51q4 32 25 51.5t52 19.5q30 0 46 -19.5t11 -51.5q-4 -32 -24.5 -51.5t-49.5 -19.5zM282 767q-29 0 -46 20t-13 51t25.5 51t51.5 20q31 0 47 -19.5t12 -51.5t-25 -51.5t-52 -19.5zM44 0q-11 0 -11 12l83 676q2 12 14 12h113q12 0 10 -12 l-83 -676q-2 -12 -13 -12h-113z" />
<glyph unicode="&#xd0;" horiz-adv-x="570" d="M378 700q99 0 152 -55.5t42 -147.5l-36 -294q-11 -92 -78 -147.5t-166 -55.5h-209q-12 0 -10 12l37 302q2 5 -4 5h-23q-12 0 -10 12l8 65q0 12 13 12h23q5 0 5 5l34 275q2 12 13 12h209zM401 219l32 262q6 45 -12.5 71.5t-56.5 26.5h-80q-5 0 -5 -5l-20 -161q0 -5 4 -5 h57q12 0 10 -12l-8 -65q-2 -12 -13 -12h-56q-6 0 -6 -5l-23 -188q0 -5 4 -5l80 1q35 0 60.5 26.5t32.5 70.5z" />
<glyph unicode="&#xd1;" horiz-adv-x="568" d="M421 776q-24 0 -55 21q-28 18 -38 18q-22 0 -39 -22q-7 -10 -17 -4l-37 30q-7 7 -3 16q36 70 97 70q25 0 60 -23q25 -18 40 -18q22 0 39 21q6 11 16 4l38 -29q8 -7 -2 -23q-41 -61 -99 -61zM44 0q-11 0 -11 12l83 676q2 12 14 12h114q8 0 13 -9l137 -399q1 -5 4 -2l2 4 l47 394q2 12 13 12h113q12 0 10 -12l-83 -676q-2 -12 -13 -12h-115q-10 0 -13 9l-137 402q-1 5 -4 2l-2 -4l-47 -397q-2 -12 -13 -12h-112z" />
<glyph unicode="&#xd2;" horiz-adv-x="531" d="M394 781q5 -14 -11 -14h-89q-10 0 -13 7l-58 101q-4 6 -1.5 10.5t9.5 4.5h106q9 0 14 -8zM244 -9q-102 0 -156 62t-41 164l33 266q12 102 81.5 163.5t170.5 61.5q102 0 156.5 -61.5t42.5 -163.5l-33 -266q-13 -103 -82.5 -164.5t-171.5 -61.5zM259 112q40 0 68 27.5 t34 71.5l33 276q6 45 -15 72.5t-62 27.5q-40 0 -67.5 -27.5t-32.5 -72.5l-34 -276q-5 -44 15.5 -71.5t60.5 -27.5z" />
<glyph unicode="&#xd3;" horiz-adv-x="531" d="M283 767q-16 0 -7 14l68 101q6 8 16 8h105q7 0 8.5 -4.5t-3.5 -10.5l-83 -101q-6 -7 -14 -7h-90zM244 -9q-102 0 -156 62t-41 164l33 266q12 102 81.5 163.5t170.5 61.5q102 0 156.5 -61.5t42.5 -163.5l-33 -266q-13 -103 -82.5 -164.5t-171.5 -61.5zM259 112 q40 0 68 27.5t34 71.5l33 276q6 45 -15 72.5t-62 27.5q-40 0 -67.5 -27.5t-32.5 -72.5l-34 -276q-5 -44 15.5 -71.5t60.5 -27.5z" />
<glyph unicode="&#xd4;" horiz-adv-x="531" d="M204 764q-6 0 -8 4.5t2 10.5l82 104q6 8 15 8h115q8 0 13 -8l59 -104q4 -6 1 -10.5t-11 -4.5h-82q-11 0 -14 8l-27 59q-2 7 -5 0l-42 -59q-4 -8 -15 -8h-83zM244 -9q-102 0 -156 62t-41 164l33 266q12 102 81.5 163.5t170.5 61.5q102 0 156.5 -61.5t42.5 -163.5l-33 -266 q-13 -103 -82.5 -164.5t-171.5 -61.5zM259 112q40 0 68 27.5t34 71.5l33 276q6 45 -15 72.5t-62 27.5q-40 0 -67.5 -27.5t-32.5 -72.5l-34 -276q-5 -44 15.5 -71.5t60.5 -27.5z" />
<glyph unicode="&#xd5;" horiz-adv-x="531" d="M405 770q-25 0 -56 21q-26 18 -37 18q-22 0 -39 -22q-8 -10 -17 -4l-37 30q-8 8 -3 16q35 70 97 70q25 0 59 -23q27 -18 41 -18q22 0 38 21q8 11 16 4l38 -29q10 -6 -1 -23q-41 -61 -99 -61zM244 -9q-102 0 -156 62t-41 164l33 266q12 102 81.5 163.5t170.5 61.5 q102 0 156.5 -61.5t42.5 -163.5l-33 -266q-13 -103 -82.5 -164.5t-171.5 -61.5zM259 112q40 0 68 27.5t34 71.5l33 276q6 45 -15 72.5t-62 27.5q-40 0 -67.5 -27.5t-32.5 -72.5l-34 -276q-5 -44 15.5 -71.5t60.5 -27.5z" />
<glyph unicode="&#xd6;" horiz-adv-x="531" d="M254 762q-31 0 -48 20t-13 51q5 32 26 51.5t52 19.5q30 0 45.5 -19.5t11.5 -51.5t-24.5 -51.5t-49.5 -19.5zM427 762q-30 0 -46.5 19.5t-12.5 51.5q4 31 25.5 51t51.5 20t46.5 -19.5t12.5 -51.5t-25 -51.5t-52 -19.5zM244 -9q-102 0 -156 62t-41 164l33 266 q12 102 81.5 163.5t170.5 61.5q102 0 156.5 -61.5t42.5 -163.5l-33 -266q-13 -103 -82.5 -164.5t-171.5 -61.5zM259 112q40 0 68 27.5t34 71.5l33 276q6 45 -15 72.5t-62 27.5q-40 0 -67.5 -27.5t-32.5 -72.5l-34 -276q-5 -44 15.5 -71.5t60.5 -27.5z" />
<glyph unicode="&#xd7;" horiz-adv-x="409" d="M409 425q7 -9 -2 -16l-100 -92q-5 -4 -1 -8l78 -92q6 -8 -2 -16l-71 -65q-10 -8 -16 0l-78 92q-3 3 -8 0l-101 -93q-10 -8 -16 0l-54 64q-6 8 2 16l102 93q3 3 1 8l-79 93q-7 8 2 17l70 64q9 9 16 0l79 -93q4 -4 8 0l100 92q10 8 16 0z" />
<glyph unicode="&#xd8;" horiz-adv-x="543" d="M499 646q-2 -4 0 -7q47 -61 36 -156l-33 -266q-13 -103 -82.5 -164.5t-171.5 -61.5q-64 0 -110 26q-5 2 -7 -3l-25 -42q-5 -9 -15 -9h-49q-15 0 -7 14l47 82q2 5 0 7q-43 59 -31 151l33 266q12 102 81 163.5t171 61.5q58 0 105 -22q5 -2 6 2l26 43q6 9 15 9h50 q15 0 7 -14zM221 487l-28 -226q-1 -4 1.5 -4.5t4.5 2.5l176 303q2 4 -1 7q-19 18 -53 18q-40 0 -67.5 -27.5t-32.5 -72.5zM263 112q40 0 68 27.5t33 71.5l31 245q0 4 -2.5 4.5t-3.5 -2.5l-183 -316q-3 -3 -1 -7q23 -23 58 -23z" />
<glyph unicode="&#xd9;" horiz-adv-x="537" d="M398 786q6 -14 -10 -14h-90q-8 0 -12 7l-59 101q-7 15 9 15h106q10 0 13 -8zM248 -8q-100 0 -153.5 61.5t-40.5 161.5l58 473q0 12 13 12h113q12 0 10 -12l-59 -480q-5 -43 15.5 -69t58.5 -26q39 0 65.5 26t31.5 69l59 480q2 12 13 12h114q12 0 10 -12l-58 -473 q-13 -101 -81.5 -162t-168.5 -61z" />
<glyph unicode="&#xda;" horiz-adv-x="537" d="M288 772q-16 0 -7 14l67 101q6 8 16 8h106q7 0 8.5 -4.5t-3.5 -10.5l-84 -101q-5 -7 -14 -7h-89zM248 -8q-100 0 -153.5 61.5t-40.5 161.5l58 473q0 12 13 12h113q12 0 10 -12l-59 -480q-5 -43 15.5 -69t58.5 -26q39 0 65.5 26t31.5 69l59 480q2 12 13 12h114 q12 0 10 -12l-58 -473q-13 -101 -81.5 -162t-168.5 -61z" />
<glyph unicode="&#xdb;" horiz-adv-x="537" d="M209 769q-7 0 -8.5 4.5t2.5 10.5l82 104q5 8 14 8h116q9 0 12 -8l59 -104q4 -6 1 -10.5t-10 -4.5h-83q-10 0 -13 8l-27 59q-3 6 -6 0l-41 -59q-5 -8 -16 -8h-82zM248 -8q-100 0 -153.5 61.5t-40.5 161.5l58 473q0 12 13 12h113q12 0 10 -12l-59 -480q-5 -43 15.5 -69 t58.5 -26q39 0 65.5 26t31.5 69l59 480q2 12 13 12h114q12 0 10 -12l-58 -473q-13 -101 -81.5 -162t-168.5 -61z" />
<glyph unicode="&#xdc;" horiz-adv-x="537" d="M258 767q-31 0 -47.5 19.5t-12.5 51.5q4 31 25.5 51t52.5 20q29 0 45 -19.5t12 -51.5t-24.5 -51.5t-50.5 -19.5zM432 767q-30 0 -46.5 20t-12.5 51q4 32 25 51.5t51 19.5q31 0 47.5 -19.5t11.5 -51.5q-4 -32 -25 -51.5t-51 -19.5zM248 -8q-100 0 -153.5 61.5t-40.5 161.5 l58 473q0 12 13 12h113q12 0 10 -12l-59 -480q-5 -43 15.5 -69t58.5 -26q39 0 65.5 26t31.5 69l59 480q2 12 13 12h114q12 0 10 -12l-58 -473q-13 -101 -81.5 -162t-168.5 -61z" />
<glyph unicode="&#xdd;" horiz-adv-x="530" d="M282 760q-15 0 -7 14l68 101q6 8 16 8h105q7 0 8.5 -4.5t-3.5 -10.5l-83 -101q-5 -7 -14 -7h-90zM188 1q-12 0 -10 12l32 256q0 3 -1 6l-117 411q-4 14 10 14h123q11 0 12 -10l59 -253q1 -3 3 -3t3 3l121 253q4 10 15 10h122q14 0 7 -14l-219 -411l-2 -6l-31 -256 q-2 -12 -13 -12h-114z" />
<glyph unicode="&#xde;" horiz-adv-x="507" d="M336 561q88 0 136 -59t36 -154q-11 -93 -74 -150.5t-149 -57.5h-97q-4 0 -6 -5l-15 -123q-2 -12 -13 -12h-113q-12 0 -10 12l83 676q0 12 13 12h113q12 0 10 -12l-15 -122q0 -5 5 -5h96zM276 253q38 0 64 24.5t31 67.5q6 44 -14 69t-58 25h-74q-4 0 -6 -5l-21 -176 q-2 -5 4 -5h74z" />
<glyph unicode="&#xdf;" horiz-adv-x="519" d="M37 1q-12 0 -10 12l58 471q13 106 75.5 165t161.5 59q101 0 153.5 -51.5t41.5 -140.5q-10 -91 -82 -134q-6 -3 -1 -6q71 -48 56 -171q-12 -98 -79 -151.5t-182 -53.5h-19q-13 0 -11 12l12 96q2 12 13 12l29 1q43 0 70 26t33 73q12 99 -71 101h-28q-12 0 -10 12l10 86 q2 12 13 12h29q34 0 56 21.5t26 57.5q7 78 -68 78q-34 0 -59 -23t-30 -63l-61 -490q0 -12 -13 -12z" />
<glyph unicode="&#xe0;" d="M349 591q6 -14 -10 -14h-90q-9 0 -12 7l-59 101q-4 6 -1 10.5t10 4.5h106q10 0 13 -8zM347 502q2 12 13 12h113q11 0 11 -12l-61 -490q0 -12 -13 -12h-113q-12 0 -10 12l2 21q1 3 -1 4t-4 -2q-42 -43 -108 -43q-119 0 -132 159q-5 45 3 111q7 58 21 105q50 155 175 155 q67 0 95 -42q2 -3 4 -2t2 4zM298 171q11 30 18 87q7 59 3 88q-5 55 -50 55q-44 0 -65 -54q-13 -31 -20 -89q-7 -52 -4 -86q8 -59 53 -59t65 58z" />
<glyph unicode="&#xe1;" d="M421 700q7 0 8.5 -4.5t-3.5 -10.5l-84 -101q-5 -7 -14 -7h-89q-16 0 -7 14l67 101q6 8 16 8h106zM347 502q2 12 13 12h113q11 0 11 -12l-61 -490q0 -12 -13 -12h-113q-12 0 -10 12l2 21q1 3 -1 4t-4 -2q-42 -43 -108 -43q-119 0 -132 159q-5 45 3 111q7 58 21 105 q50 155 175 155q67 0 95 -42q2 -3 4 -2t2 4zM298 171q11 30 18 87q7 59 3 88q-5 55 -50 55q-44 0 -65 -54q-13 -31 -20 -89q-7 -52 -4 -86q8 -59 53 -59t65 58z" />
<glyph unicode="&#xe2;" d="M305 641q-3 6 -6 0l-41 -59q-5 -8 -16 -8h-82q-7 0 -8.5 4.5t2.5 10.5l81 104q6 8 15 8h115q10 0 13 -8l59 -104q4 -6 1 -10.5t-11 -4.5h-82q-10 0 -14 8zM347 502q2 12 13 12h113q11 0 11 -12l-61 -490q0 -12 -13 -12h-113q-12 0 -10 12l2 21q1 3 -1 4t-4 -2 q-42 -43 -108 -43q-119 0 -132 159q-5 45 3 111q7 58 21 105q50 155 175 155q67 0 95 -42q2 -3 4 -2t2 4zM298 171q11 30 18 87q7 59 3 88q-5 55 -50 55q-44 0 -65 -54q-13 -31 -20 -89q-7 -52 -4 -86q8 -59 53 -59t65 58z" />
<glyph unicode="&#xe3;" d="M267 619q-23 0 -38 -22q-9 -10 -17 -4l-38 30q-7 7 -3 16q36 70 97 70q26 0 60 -23q25 -18 40 -18q22 0 39 21q6 11 16 4l38 -29q8 -6 2 -16q-41 -68 -103 -68q-24 0 -55 21q-26 18 -38 18zM347 502q2 12 13 12h113q11 0 11 -12l-61 -490q0 -12 -13 -12h-113 q-12 0 -10 12l2 21q1 3 -1 4t-4 -2q-42 -43 -108 -43q-119 0 -132 159q-5 45 3 111q7 58 21 105q50 155 175 155q67 0 95 -42q2 -3 4 -2t2 4zM298 171q11 30 18 87q7 59 3 88q-5 55 -50 55q-44 0 -65 -54q-13 -31 -20 -89q-7 -52 -4 -86q8 -59 53 -59t65 58z" />
<glyph unicode="&#xe4;" d="M209 572q-31 0 -47.5 19.5t-12.5 51.5q4 31 25.5 51t51.5 20t46 -19.5t12 -51.5q-5 -32 -25 -51.5t-50 -19.5zM383 572q-30 0 -47 20t-13 51q5 32 26 51.5t51 19.5q31 0 47 -19.5t12 -51.5t-25 -51.5t-51 -19.5zM347 502q2 12 13 12h113q11 0 11 -12l-61 -490 q0 -12 -13 -12h-113q-12 0 -10 12l2 21q1 3 -1 4t-4 -2q-42 -43 -108 -43q-119 0 -132 159q-5 45 3 111q7 58 21 105q50 155 175 155q67 0 95 -42q2 -3 4 -2t2 4zM298 171q11 30 18 87q7 59 3 88q-5 55 -50 55q-44 0 -65 -54q-13 -31 -20 -89q-7 -52 -4 -86q8 -59 53 -59 t65 58z" />
<glyph unicode="&#xe5;" d="M293 564q-45 0 -72 32t-22 79q6 47 41 79t81 32q45 0 72 -32t22 -79q-6 -47 -41 -79t-81 -32zM313 723q-19 0 -34 -14t-18 -34q-2 -20 9.5 -33.5t30.5 -13.5t34 13.5t18 33.5q2 20 -9.5 34t-30.5 14zM347 502q2 12 13 12h113q11 0 11 -12l-61 -490q0 -12 -13 -12h-113 q-12 0 -10 12l2 21q1 3 -1 4t-4 -2q-42 -43 -108 -43q-119 0 -132 159q-5 45 3 111q7 58 21 105q50 155 175 155q67 0 95 -42q2 -3 4 -2t2 4zM298 171q11 30 18 87q7 59 3 88q-5 55 -50 55q-44 0 -65 -54q-13 -31 -20 -89q-7 -52 -4 -86q8 -59 53 -59t65 58z" />
<glyph unicode="&#xe6;" horiz-adv-x="739" d="M171 -8q-73 0 -116 34.5t-33 117.5q18 158 214 158h74q5 0 5 5l3 26q4 31 -10.5 49.5t-45.5 18.5q-24 0 -42 -11t-24 -30q-5 -12 -15 -10l-114 9q-12 2 -9 13q15 67 75 108.5t138 41.5q90 0 132 -63q1 -3 6 0q57 63 146 63q74 0 122.5 -43.5t50.5 -114.5q-2 -62 -11 -143 q-1 -12 -13 -12h-253q-6 0 -6 -5q-2 -22 -2 -27q0 -29 19.5 -45t50.5 -16q51 0 79 42q7 10 16 6l79 -35q11 -5 6 -15q-26 -57 -76.5 -89.5t-118.5 -32.5q-54 0 -92.5 20t-48.5 49q-4 6 -4 3q-21 -31 -70.5 -51.5t-111.5 -20.5zM457 307q-2 -5 4 -5h123q4 0 6 5q0 6 0.5 17 t1.5 17q-2 27 -16.5 43.5t-40.5 16.5t-45 -16.5t-26 -43.5q-4 -15 -7 -34zM212 95q31 0 56 18.5t29 49.5l5 41q2 5 -4 5h-55q-75 0 -83 -58q-3 -26 11 -41t41 -15z" />
<glyph unicode="&#xe7;" horiz-adv-x="471" d="M307 169l3 12q4 13 14 11l112 -10q10 -2 9 -13q-1 -6 -5 -20q-16 -61 -60.5 -101t-108.5 -52q-6 -2 -2 -6q43 -54 21 -113q-10 -27 -29 -42.5t-41.5 -18t-41.5 -1t-35 7.5q-10 3 -7 15l13 48q2 11 15 8q34 -9 44 22q12 36 -33 78l-6 3q-59 12 -92.5 52t-35.5 102 q-3 40 5 108q6 45 21 106q21 72 80 114.5t139 42.5q79 0 127.5 -41t53.5 -108q2 -14 0 -29q-1 -11 -13 -13l-113 -11q-6 -1 -8.5 2t-2.5 9v10q0 4 -2 14q-9 46 -58 46q-54 0 -71 -60q-9 -29 -16 -83q-7 -58 -4 -86q3 -59 56 -59q28 0 47 15.5t25 40.5z" />
<glyph unicode="&#xe8;" horiz-adv-x="477" d="M346 597q6 -14 -11 -14h-89q-8 0 -13 7l-58 101q-4 6 -1 10.5t10 4.5h105q11 0 14 -8zM246 112q50 1 76 48q6 11 16 8l90 -20q10 -3 6 -15q-28 -66 -82 -103.5t-128 -37.5q-76 0 -122.5 40.5t-54.5 107.5q-7 50 2 125q6 50 14 82q20 82 77.5 129t144.5 47q183 0 178 -194 q-1 -43 -7 -103q-2 -12 -14 -12h-258q-5 0 -5 -5q-2 -14 -2 -36q2 -28 20.5 -44.5t48.5 -16.5zM269 401q-52 0 -70 -58q-2 -6 -4.5 -18.5l-3.5 -17.5q0 -5 4 -5h126q4 0 6 5v11v12.5v10.5q0 28 -15 44t-43 16z" />
<glyph unicode="&#xe9;" horiz-adv-x="477" d="M417 706q7 0 8.5 -4.5t-3.5 -10.5l-83 -101q-5 -7 -14 -7h-89q-16 0 -7 14l67 101q6 8 16 8h105zM246 112q50 1 76 48q6 11 16 8l90 -20q10 -3 6 -15q-28 -66 -82 -103.5t-128 -37.5q-76 0 -122.5 40.5t-54.5 107.5q-7 50 2 125q6 50 14 82q20 82 77.5 129t144.5 47 q183 0 178 -194q-1 -43 -7 -103q-2 -12 -14 -12h-258q-5 0 -5 -5q-2 -14 -2 -36q2 -28 20.5 -44.5t48.5 -16.5zM269 401q-52 0 -70 -58q-2 -6 -4.5 -18.5l-3.5 -17.5q0 -5 4 -5h126q4 0 6 5v11v12.5v10.5q0 28 -15 44t-43 16z" />
<glyph unicode="&#xea;" horiz-adv-x="477" d="M302 647q-3 6 -6 0l-41 -59q-5 -8 -16 -8h-82q-7 0 -8.5 4.5t2.5 10.5l81 104q6 8 15 8h115q10 0 13 -8l59 -104q4 -6 1 -10.5t-11 -4.5h-82q-11 0 -14 8zM246 112q50 1 76 48q6 11 16 8l90 -20q10 -3 6 -15q-28 -66 -82 -103.5t-128 -37.5q-76 0 -122.5 40.5 t-54.5 107.5q-7 50 2 125q6 50 14 82q20 82 77.5 129t144.5 47q183 0 178 -194q-1 -43 -7 -103q-2 -12 -14 -12h-258q-5 0 -5 -5q-2 -14 -2 -36q2 -28 20.5 -44.5t48.5 -16.5zM269 401q-52 0 -70 -58q-2 -6 -4.5 -18.5l-3.5 -17.5q0 -5 4 -5h126q4 0 6 5v11v12.5v10.5 q0 28 -15 44t-43 16z" />
<glyph unicode="&#xeb;" horiz-adv-x="477" d="M206 578q-31 0 -47.5 20t-12.5 51q4 32 25 51.5t52 19.5q30 0 46 -19.5t11 -51.5q-4 -32 -24 -51.5t-50 -19.5zM379 578q-29 0 -46 20t-13 51t25.5 51t51.5 20q31 0 47 -19.5t12 -51.5t-25 -51.5t-52 -19.5zM246 112q50 1 76 48q6 11 16 8l90 -20q10 -3 6 -15 q-28 -66 -82 -103.5t-128 -37.5q-76 0 -122.5 40.5t-54.5 107.5q-7 50 2 125q6 50 14 82q20 82 77.5 129t144.5 47q183 0 178 -194q-1 -43 -7 -103q-2 -12 -14 -12h-258q-5 0 -5 -5q-2 -14 -2 -36q2 -28 20.5 -44.5t48.5 -16.5zM269 401q-52 0 -70 -58q-2 -6 -4.5 -18.5 l-3.5 -17.5q0 -5 4 -5h126q4 0 6 5v11v12.5v10.5q0 28 -15 44t-43 16z" />
<glyph unicode="&#xec;" horiz-adv-x="222" d="M215 600q6 -14 -10 -14h-89q-10 0 -13 7l-59 101q-3 6 -0.5 10.5t9.5 4.5h106q10 0 13 -8zM34 0q-12 0 -10 12l60 490q2 12 13 12h114q12 0 10 -12l-60 -490q-2 -12 -14 -12h-113z" />
<glyph unicode="&#xed;" horiz-adv-x="222" d="M105 586q-16 0 -7 14l68 101q5 8 15 8h106q7 0 8.5 -4.5t-3.5 -10.5l-83 -101q-6 -7 -15 -7h-89zM34 0q-12 0 -10 12l60 490q2 12 13 12h114q12 0 10 -12l-60 -490q-2 -12 -14 -12h-113z" />
<glyph unicode="&#xee;" horiz-adv-x="222" d="M26 583q-7 0 -8.5 4.5t2.5 10.5l82 104q5 8 14 8h116q9 0 12 -8l59 -104q4 -6 1 -10.5t-10 -4.5h-83q-10 0 -13 8l-27 59q-1 6 -6 0l-41 -59q-5 -8 -16 -8h-82zM34 0q-12 0 -10 12l60 490q2 12 13 12h114q12 0 10 -12l-60 -490q-2 -12 -14 -12h-113z" />
<glyph unicode="&#xef;" horiz-adv-x="222" d="M75 581q-31 0 -47.5 19.5t-12.5 51.5q4 31 25.5 51t52.5 20q29 0 45 -19.5t12 -51.5t-24.5 -51.5t-50.5 -19.5zM249 581q-30 0 -46.5 19.5t-12.5 51.5q4 31 25.5 51t50.5 20q31 0 47.5 -19.5t11.5 -51.5q-4 -32 -24.5 -51.5t-51.5 -19.5zM34 0q-12 0 -10 12l60 490 q2 12 13 12h114q12 0 10 -12l-60 -490q-2 -12 -14 -12h-113z" />
<glyph unicode="&#xf0;" horiz-adv-x="480" d="M456 346q0 -52 -7 -107q-5 -49 -19 -95q-21 -70 -78 -111t-138 -41t-128 40.5t-51 111.5q-3 38 4 94q5 43 19 95q13 55 54.5 92t94.5 42q68 16 107 -9q3 -2 4.5 -1t0.5 5q-10 42 -26 76q-2 5 -5 3l-89 -23q-11 -3 -13 9l-5 43q-3 11 10 15l62 16q6 2 3 7q-24 40 -51 77 q-9 15 8 15h114q9 0 13 -7q5 -8 17 -27.5t18 -29.5q2 -4 5 -2l81 21q11 3 13 -9l4 -44q2 -12 -10 -15l-53 -14q-7 -2 -4 -6q50 -107 45 -221zM298 164q9 36 13 72q5 42 4 71q-1 26 -15.5 42t-39.5 16q-53 0 -70 -58q-8 -28 -14 -71q-4 -40 -4 -72q2 -27 16.5 -42.5 t39.5 -15.5q24 0 43 15.5t27 42.5z" />
<glyph unicode="&#xf1;" horiz-adv-x="482" d="M270 617q-22 0 -38 -22q-10 -11 -17 -4l-36 30q-7 7 -2 16q34 70 95 70q22 0 57 -23q27 -18 40 -18q21 0 37 21q8 11 16 4l37 -29q8 -6 2 -16q-20 -35 -47.5 -51.5t-52.5 -16.5q-24 0 -55 21q-25 18 -36 18zM335 522q71 0 105.5 -46.5t23.5 -129.5l-41 -334 q0 -12 -13 -12h-113q-12 0 -10 12l38 314q5 35 -9.5 55t-42.5 20t-47.5 -20.5t-24.5 -55.5l-39 -313q0 -12 -13 -12h-113q-12 0 -10 12l60 490q2 12 13 12h113q13 0 11 -12l-4 -27q0 -8 7 -1q41 48 109 48z" />
<glyph unicode="&#xf2;" d="M349 596q5 -14 -11 -14h-89q-9 0 -13 7l-58 101q-4 6 -1.5 10.5t9.5 4.5h106q9 0 14 -8zM222 -8q-84 0 -131.5 44t-49.5 122q-2 47 5 100q8 61 19 101q21 75 80 119t143 44q83 0 130.5 -44t49.5 -118q2 -48 -5 -101q-4 -43 -18 -99q-21 -79 -79.5 -123.5t-143.5 -44.5z M237 113q27 0 47 18t28 48q6 23 14 79q5 47 5 78q-1 30 -16.5 47.5t-42.5 17.5t-47 -17.5t-28 -47.5q-11 -51 -14 -78q-4 -41 -6 -79q2 -30 17.5 -48t42.5 -18z" />
<glyph unicode="&#xf3;" d="M238 582q-16 0 -7 14l68 101q6 8 16 8h105q7 0 8.5 -4.5t-3.5 -10.5l-83 -101q-6 -7 -14 -7h-90zM222 -8q-84 0 -131.5 44t-49.5 122q-2 47 5 100q8 61 19 101q21 75 80 119t143 44q83 0 130.5 -44t49.5 -118q2 -48 -5 -101q-4 -43 -18 -99q-21 -79 -79.5 -123.5 t-143.5 -44.5zM237 113q27 0 47 18t28 48q6 23 14 79q5 47 5 78q-1 30 -16.5 47.5t-42.5 17.5t-47 -17.5t-28 -47.5q-11 -51 -14 -78q-4 -41 -6 -79q2 -30 17.5 -48t42.5 -18z" />
<glyph unicode="&#xf4;" d="M159 579q-6 0 -8 4.5t2 10.5l82 104q6 8 15 8h115q8 0 13 -8l59 -104q4 -6 1 -10.5t-11 -4.5h-82q-11 0 -14 8l-27 59q-2 7 -5 0l-42 -59q-4 -8 -15 -8h-83zM222 -8q-84 0 -131.5 44t-49.5 122q-2 47 5 100q8 61 19 101q21 75 80 119t143 44q83 0 130.5 -44t49.5 -118 q2 -48 -5 -101q-4 -43 -18 -99q-21 -79 -79.5 -123.5t-143.5 -44.5zM237 113q27 0 47 18t28 48q6 23 14 79q5 47 5 78q-1 30 -16.5 47.5t-42.5 17.5t-47 -17.5t-28 -47.5q-11 -51 -14 -78q-4 -41 -6 -79q2 -30 17.5 -48t42.5 -18z" />
<glyph unicode="&#xf5;" d="M360 585q-25 0 -56 21q-26 18 -37 18q-23 0 -39 -22q-9 -10 -17 -4l-37 30q-8 8 -3 16q35 70 97 70q24 0 59 -23q27 -18 41 -18q22 0 38 21q8 11 16 4l38 -29q10 -6 -1 -23q-41 -61 -99 -61zM222 -8q-84 0 -131.5 44t-49.5 122q-2 47 5 100q8 61 19 101q21 75 80 119 t143 44q83 0 130.5 -44t49.5 -118q2 -48 -5 -101q-4 -43 -18 -99q-21 -79 -79.5 -123.5t-143.5 -44.5zM237 113q27 0 47 18t28 48q6 23 14 79q5 47 5 78q-1 30 -16.5 47.5t-42.5 17.5t-47 -17.5t-28 -47.5q-11 -51 -14 -78q-4 -41 -6 -79q2 -30 17.5 -48t42.5 -18z" />
<glyph unicode="&#xf6;" d="M209 577q-31 0 -48 20t-13 51q5 32 26 51.5t52 19.5q30 0 45.5 -19.5t11.5 -51.5t-24.5 -51.5t-49.5 -19.5zM382 577q-30 0 -46.5 19.5t-12.5 51.5q4 31 25.5 51t51.5 20t46.5 -19.5t12.5 -51.5t-25 -51.5t-52 -19.5zM222 -8q-84 0 -131.5 44t-49.5 122q-2 47 5 100 q8 61 19 101q21 75 80 119t143 44q83 0 130.5 -44t49.5 -118q2 -48 -5 -101q-4 -43 -18 -99q-21 -79 -79.5 -123.5t-143.5 -44.5zM237 113q27 0 47 18t28 48q6 23 14 79q5 47 5 78q-1 30 -16.5 47.5t-42.5 17.5t-47 -17.5t-28 -47.5q-11 -51 -14 -78q-4 -41 -6 -79 q2 -30 17.5 -48t42.5 -18z" />
<glyph unicode="&#xf7;" horiz-adv-x="448" d="M256 414q-28 0 -45.5 20.5t-13.5 48.5t25.5 48t49.5 20q27 0 44.5 -20t14.5 -48q-4 -28 -26.5 -48.5t-48.5 -20.5zM49 255q-12 0 -10 12l11 89q0 12 13 12h374q12 0 10 -12l-11 -89q-2 -12 -13 -12h-374zM214 78q-28 0 -45 20t-13 49q3 28 25 48t50 20q27 0 44.5 -20 t14.5 -48q-4 -28 -26.5 -48.5t-49.5 -20.5z" />
<glyph unicode="&#xf8;" horiz-adv-x="494" d="M474 360q2 -48 -5 -101q-7 -58 -19 -99q-20 -78 -79 -123t-143 -45q-60 0 -100 22q-5 2 -7 -2l-31 -42q-7 -10 -15 -3l-36 27q-9 7 -2 17l35 46q2 5 0 7q-23 38 -25 94q-2 47 5 100q8 61 19 101q21 75 80 119t143 44q55 0 95 -20q4 -1 7 2l30 41q7 10 17 3l35 -27 q10 -8 2 -17l-34 -44q-2 -4 0 -7q26 -38 28 -93zM189 258q-1 -5 -1.5 -10.5t-1 -12.5t-0.5 -11q-1 -4 1 -4.5t4 2.5l119 164q4 4 0 7q-14 8 -32 8q-27 0 -47 -17.5t-28 -47.5q-11 -51 -14 -78zM318 179q8 30 13 79q4 26 5 38q0 4 -2 4.5t-4 -2.5l-122 -168q-3 -5 0 -7 q15 -10 35 -10q27 0 47 18t28 48z" />
<glyph unicode="&#xf9;" horiz-adv-x="481" d="M343 588q6 -14 -11 -14h-89q-8 0 -13 7l-58 101q-4 6 -1 10.5t10 4.5h105q11 0 14 -8zM343 502q2 12 13 12h114q12 0 10 -12l-60 -490q-2 -12 -14 -12h-113q-12 0 -10 12l3 25q0 7 -6 2q-39 -46 -109 -46q-66 0 -103.5 41t-28.5 121l43 347q2 12 13 12h114q12 0 10 -12 l-39 -314q-8 -75 52 -75q29 0 48.5 21t24.5 56z" />
<glyph unicode="&#xfa;" horiz-adv-x="481" d="M414 697q7 0 8.5 -4.5t-3.5 -10.5l-83 -101q-5 -7 -14 -7h-90q-15 0 -7 14l68 101q6 8 16 8h105zM343 502q2 12 13 12h114q12 0 10 -12l-60 -490q-2 -12 -14 -12h-113q-12 0 -10 12l3 25q0 7 -6 2q-39 -46 -109 -46q-66 0 -103.5 41t-28.5 121l43 347q2 12 13 12h114 q12 0 10 -12l-39 -314q-8 -75 52 -75q29 0 48.5 21t24.5 56z" />
<glyph unicode="&#xfb;" horiz-adv-x="481" d="M299 638q-3 6 -6 0l-41 -59q-5 -8 -16 -8h-82q-7 0 -8.5 4.5t2.5 10.5l81 104q6 8 15 8h115q10 0 13 -8l59 -104q4 -6 1 -10.5t-11 -4.5h-82q-11 0 -14 8zM343 502q2 12 13 12h114q12 0 10 -12l-60 -490q-2 -12 -14 -12h-113q-12 0 -10 12l3 25q0 7 -6 2 q-39 -46 -109 -46q-66 0 -103.5 41t-28.5 121l43 347q2 12 13 12h114q12 0 10 -12l-39 -314q-8 -75 52 -75q29 0 48.5 21t24.5 56z" />
<glyph unicode="&#xfc;" horiz-adv-x="481" d="M203 569q-31 0 -47.5 20t-12.5 51q4 32 25 51.5t52 19.5q30 0 46 -19.5t11 -51.5q-4 -32 -24 -51.5t-50 -19.5zM376 569q-29 0 -46 20t-13 51t25.5 51t51.5 20q31 0 47 -19.5t12 -51.5t-25 -51.5t-52 -19.5zM343 502q2 12 13 12h114q12 0 10 -12l-60 -490q-2 -12 -14 -12 h-113q-12 0 -10 12l3 25q0 7 -6 2q-39 -46 -109 -46q-66 0 -103.5 41t-28.5 121l43 347q2 12 13 12h114q12 0 10 -12l-39 -314q-8 -75 52 -75q29 0 48.5 21t24.5 56z" />
<glyph unicode="&#xfd;" horiz-adv-x="449" d="M220 579q-16 0 -8 14l68 101q6 8 16 8h105q7 0 8.5 -4.5t-3.5 -10.5l-83 -101q-5 -7 -14 -7h-89zM-1 -199q-7 0 -5 12l11 92q2 12 7 12h5q54 0 79.5 16t39.5 64q1 2 0 6l-78 497q-2 14 11 14h121q11 0 11 -11l28 -301q0 -3 1.5 -3.5t2.5 1.5q1 1 1 2l97 301q3 11 14 11 h123q13 0 8 -14l-212 -519q-31 -73 -57 -108t-73.5 -53.5t-128.5 -18.5h-6z" />
<glyph unicode="&#xfe;" horiz-adv-x="478" d="M461 367q3 -50 -4 -105q-8 -64 -24 -111q-52 -159 -171 -159q-61 0 -93 37q-4 6 -6 -3l-26 -214q-2 -12 -13 -12h-114q-12 0 -10 12l108 876q2 12 13 12h113q11 0 11 -12l-25 -199q0 -8 6 -2q36 35 99 35q125 0 136 -155zM301 172q12 36 18 86q7 61 2 89q-10 54 -53 54 q-45 0 -63 -55l-3 -10q0 -1 -0.5 -3t-0.5 -3l-18 -147q-1 -3 0 -6v-6q5 -58 51 -58t67 59z" />
<glyph unicode="&#xff;" horiz-adv-x="449" d="M190 574q-31 0 -47.5 20t-12.5 51q4 32 25 51.5t52 19.5q30 0 46 -19.5t11 -51.5q-4 -32 -24 -51.5t-50 -19.5zM363 574q-29 0 -46 20t-13 51t25.5 51t51.5 20q31 0 47 -19.5t12 -51.5t-25 -51.5t-52 -19.5zM-1 -199q-7 0 -5 12l11 92q2 12 7 12h5q54 0 79.5 16t39.5 64 q1 2 0 6l-78 497q-2 14 11 14h121q11 0 11 -11l28 -301q0 -3 1.5 -3.5t2.5 1.5q1 1 1 2l97 301q3 11 14 11h123q13 0 8 -14l-212 -519q-31 -73 -57 -108t-73.5 -53.5t-128.5 -18.5h-6z" />
<glyph unicode="&#x152;" horiz-adv-x="787" d="M808 591q-2 -12 -13 -12h-252q-6 0 -6 -5l-19 -156q0 -5 4 -5h154q11 0 11 -12l-12 -97q-2 -12 -13 -12h-155q-5 0 -5 -5l-20 -161q0 -5 4 -5h252q13 0 11 -12l-12 -97q-2 -12 -13 -12h-383q-12 0 -10 12l2 14q0 8 -5 3q-57 -38 -122 -38q-77 0 -124 62.5t-35 160.5 l33 272q12 97 74.5 159.5t140.5 62.5q67 0 111 -38q6 -6 6 3l2 15q2 12 13 12h383q12 0 10 -12zM256 112q40 0 67 26.5t32 69.5l35 282q5 43 -15.5 70t-59.5 27t-66 -27t-32 -70l-34 -282q-5 -43 15 -69.5t58 -26.5z" />
<glyph unicode="&#x153;" horiz-adv-x="758" d="M531 111q44 0 72 46q8 11 17 7l84 -34q9 -5 5 -15q-58 -123 -202 -123q-90 0 -135 66q-3 3 -7 0q-63 -66 -147 -66q-80 0 -127.5 42.5t-49.5 116.5q-3 40 5 107q9 67 21 107q20 72 78 114.5t138 42.5q85 0 131 -66q4 -3 7 0q64 66 147 66q80 0 128 -43.5t50 -114.5 q0 -61 -10 -143q-2 -12 -13 -12h-255q-5 0 -5 -5l-1 -31q2 -29 19.5 -45.5t49.5 -16.5zM304 173q11 53 15 85q5 40 5 83q-1 27 -16 43.5t-40 16.5t-43.5 -16.5t-26.5 -43.5q-9 -35 -15 -83q-5 -40 -5 -85q1 -27 15.5 -43.5t39.5 -16.5q24 0 43.5 16.5t27.5 43.5zM554 401 q-26 0 -45 -16.5t-27 -43.5l-7 -32q0 -5 5 -5h124q5 0 5 5q2 22 1 32q-1 27 -16 43.5t-40 16.5z" />
<glyph unicode="&#x178;" horiz-adv-x="530" d="M253 755q-31 0 -47.5 20t-12.5 51q4 32 25 51.5t52 19.5q30 0 46 -19.5t11 -51.5q-4 -32 -24 -51.5t-50 -19.5zM426 755q-29 0 -46 20t-13 51t25.5 51t51.5 20q31 0 47 -19.5t12 -51.5t-25 -51.5t-52 -19.5zM188 1q-12 0 -10 12l32 256q0 3 -1 6l-117 411q-4 14 10 14 h123q11 0 12 -10l59 -253q1 -3 3 -3t3 3l121 253q4 10 15 10h122q14 0 7 -14l-219 -411l-2 -6l-31 -256q-2 -12 -13 -12h-114z" />
<glyph unicode="&#x2c6;" horiz-adv-x="303" d="M68 571q-7 0 -8.5 4.5t2.5 10.5l82 104q5 8 14 8h116q9 0 12 -8l59 -104q4 -6 1 -10.5t-10 -4.5h-83q-10 0 -13 8l-27 59q-1 6 -6 0l-41 -59q-4 -8 -15 -8h-83z" />
<glyph unicode="&#x2dc;" horiz-adv-x="330" d="M267 577q-25 0 -56 21q-26 18 -37 18q-22 0 -39 -22q-9 -10 -17 -4l-37 30q-8 8 -3 16q35 70 97 70q25 0 59 -23q27 -18 41 -18q22 0 38 21q8 11 16 4l38 -29q10 -7 -2 -23q-39 -61 -98 -61z" />
<glyph unicode="&#x2000;" horiz-adv-x="484" />
<glyph unicode="&#x2001;" horiz-adv-x="969" />
<glyph unicode="&#x2002;" horiz-adv-x="484" />
<glyph unicode="&#x2003;" horiz-adv-x="969" />
<glyph unicode="&#x2004;" horiz-adv-x="323" />
<glyph unicode="&#x2005;" horiz-adv-x="242" />
<glyph unicode="&#x2006;" horiz-adv-x="161" />
<glyph unicode="&#x2007;" horiz-adv-x="161" />
<glyph unicode="&#x2008;" horiz-adv-x="121" />
<glyph unicode="&#x2009;" horiz-adv-x="193" />
<glyph unicode="&#x200a;" horiz-adv-x="53" />
<glyph unicode="&#x2010;" horiz-adv-x="359" d="M46 235q-12 0 -10 12l12 97q2 12 13 12h285q11 0 11 -12l-12 -97q-2 -12 -14 -12h-285z" />
<glyph unicode="&#x2011;" horiz-adv-x="359" d="M46 235q-12 0 -10 12l12 97q2 12 13 12h285q11 0 11 -12l-12 -97q-2 -12 -14 -12h-285z" />
<glyph unicode="&#x2012;" horiz-adv-x="359" d="M46 235q-12 0 -10 12l12 97q2 12 13 12h285q11 0 11 -12l-12 -97q-2 -12 -14 -12h-285z" />
<glyph unicode="&#x2013;" horiz-adv-x="415" d="M45 224q-12 0 -10 12l12 97q2 12 13 12h341q12 0 10 -12l-11 -97q-2 -12 -14 -12h-341z" />
<glyph unicode="&#x2014;" horiz-adv-x="607" d="M45 224q-12 0 -10 12l12 97q2 12 13 12h533q12 0 10 -12l-11 -97q-2 -12 -14 -12h-533z" />
<glyph unicode="&#x2018;" horiz-adv-x="190" d="M53 474q-14 0 -8 14l98 202q4 10 15 10h85q13 0 9 -13l-72 -203q-4 -10 -14 -10h-113z" />
<glyph unicode="&#x2019;" horiz-adv-x="190" d="M242 700q14 0 8 -14l-97 -202q-4 -10 -15 -10h-86q-13 0 -9 13l73 203q4 10 14 10h112z" />
<glyph unicode="&#x201a;" horiz-adv-x="582" d="M14 -98q-12 0 -9 13l56 232q3 11 13 11h98q13 0 9 -13l-84 -233q-4 -10 -15 -10h-68z" />
<glyph unicode="&#x201c;" horiz-adv-x="347" d="M53 474q-14 0 -8 14l94 202q5 10 14 10h81q14 0 8 -13l-67 -202q-3 -11 -14 -11h-108zM220 474q-13 0 -7 14l92 202q5 10 14 10h82q12 0 8 -13l-66 -202q-3 -11 -14 -11h-109z" />
<glyph unicode="&#x201d;" horiz-adv-x="347" d="M232 700q13 0 7 -14l-91 -202q-5 -10 -14 -10h-83q-12 0 -8 13l67 202q3 11 14 11h108zM399 700q14 0 8 -14l-93 -202q-5 -10 -14 -10h-82q-12 0 -8 13l68 202q2 11 14 11h107z" />
<glyph unicode="&#x201e;" horiz-adv-x="355" d="M162 128q13 0 7 -14l-92 -202q-3 -10 -13 -10h-83q-12 0 -8 13l67 202q2 11 14 11h108zM329 128q14 0 8 -14l-94 -202q-3 -10 -14 -10h-81q-12 0 -8 13l67 202q3 11 14 11h108z" />
<glyph unicode="&#x2022;" horiz-adv-x="302" d="M151 146q-53 0 -85.5 38.5t-25.5 92.5t48.5 91.5t94.5 37.5q51 0 83 -37.5t25 -91.5t-48 -92.5t-92 -38.5z" />
<glyph unicode="&#x2026;" horiz-adv-x="777" d="M107 -4q-36 0 -57.5 25.5t-16.5 61.5q4 35 33 60.5t62 25.5q34 0 57 -25.5t19 -60.5q-5 -37 -32 -62t-65 -25zM366 -4q-36 0 -57.5 25.5t-17.5 61.5q4 35 34 60.5t62 25.5q34 0 57 -25.5t19 -60.5q-5 -37 -32 -62t-65 -25zM625 -4q-36 0 -57.5 25.5t-17.5 61.5 q4 35 34 60.5t62 25.5q34 0 57 -25.5t19 -60.5q-5 -37 -32 -62t-65 -25z" />
<glyph unicode="&#x202f;" horiz-adv-x="193" />
<glyph unicode="&#x2039;" horiz-adv-x="304" d="M240 121q6 -14 -11 -14h-93q-10 0 -13 8l-66 158q-4 9 2 16l105 158q5 8 15 8h93q16 0 7 -14l-107 -157q-3 -3 -1 -6z" />
<glyph unicode="&#x203a;" horiz-adv-x="314" d="M62 107q-16 0 -7 14l107 157q2 4 1 6l-69 157q-6 14 10 14h93q11 0 14 -8l66 -158q4 -9 -2 -16l-105 -158q-5 -8 -15 -8h-93z" />
<glyph unicode="&#x205f;" horiz-adv-x="242" />
<glyph unicode="&#x20ac;" horiz-adv-x="550" d="M308 113q26 0 45.5 17t26.5 45q3 12 14 10l110 -18q11 -2 8 -14q-23 -75 -81 -118t-138 -43q-92 0 -140.5 57t-36.5 153l6 49q0 5 -4 5h-55q-12 0 -10 12l6 50q2 12 14 12h54q5 0 5 5l4 30q0 5 -4 5h-55q-12 0 -10 12l6 49q2 12 13 12h55q5 0 5 5l7 52q11 95 73.5 151.5 t154.5 56.5q82 0 129.5 -44t49.5 -121q1 -11 -11 -13l-115 -15q-10 -1 -12 11q-1 28 -16 44.5t-40 16.5q-30 0 -50.5 -22t-25.5 -59l-7 -58q0 -5 4 -5h165q13 0 8 -14l-20 -49q-5 -10 -14 -10h-148q-5 0 -5 -5l-4 -30q0 -5 4 -5h133q13 0 8 -14l-20 -50q-5 -10 -14 -10h-116 q-5 0 -5 -5l-7 -58q-5 -36 10.5 -58t45.5 -22z" />
<glyph unicode="&#x2122;" horiz-adv-x="588" d="M83 634q-12 0 -10 12l5 42q2 12 13 12h222q12 0 10 -12l-5 -42q-2 -12 -13 -12h-71q-5 0 -5 -5l-33 -268q-2 -12 -13 -12h-51q-12 0 -10 12l33 268q0 5 -4 5h-68zM552 692q5 8 14 8h52q12 0 10 -12l-40 -327q-2 -12 -14 -12h-51q-12 0 -10 12l26 214q1 4 -1.5 4t-4.5 -3 l-44 -60q-4 -8 -14 -8h-1q-10 0 -13 8l-30 61q-1 3 -3.5 2.5t-2.5 -4.5l-27 -214q0 -12 -13 -12h-51q-12 0 -10 12l40 327q2 12 13 12h52q10 0 13 -8l41 -81q3 -6 7 0z" />
<glyph unicode="&#x25fc;" horiz-adv-x="515" d="M0 515h515v-515h-515v515z" />
</font>
</defs>
</svg>
