<?xml version="1.0" standalone="no"?>
<!DOCTYPE svg PUBLIC "-//W3C//DTD SVG 1.1//EN" "http://www.w3.org/Graphics/SVG/1.1/DTD/svg11.dtd" >
<svg xmlns="http://www.w3.org/2000/svg" xmlns:xlink="http://www.w3.org/1999/xlink" version="1.1">
<metadata></metadata>
<defs>
<font id="barlow_condensedthin" horiz-adv-x="444" >
<font-face units-per-em="1000" ascent="800" descent="-200" />
<missing-glyph horiz-adv-x="200" />
<glyph horiz-adv-x="0" />
<glyph horiz-adv-x="333" />
<glyph unicode="&#xd;" horiz-adv-x="200" />
<glyph unicode=" "  horiz-adv-x="200" />
<glyph unicode="&#x09;" horiz-adv-x="200" />
<glyph unicode="&#xa0;" horiz-adv-x="200" />
<glyph unicode="!" horiz-adv-x="238" d="M116 221q-10 0 -10 10l-1 459q0 10 10 10h10q10 0 10 -10l-2 -459q0 -10 -10 -10h-7zM118 5q-16 0 -27 12.5t-11 31.5q0 18 11.5 30.5t26.5 12.5t26 -12.5t11 -30.5q0 -19 -11 -31.5t-26 -12.5z" />
<glyph unicode="&#x22;" horiz-adv-x="170" d="M41 498q-10 0 -10 10l-4 174q0 10 10 10h12q10 0 10 -10l-3 -174q0 -10 -10 -10h-5zM121 498q-10 0 -10 10l-3 174q0 10 10 10h13q10 0 10 -10l-4 -174q0 -10 -10 -10h-6z" />
<glyph unicode="#" horiz-adv-x="573" d="M505 454q0 -10 -10 -10h-62q-5 0 -5 -4l-28 -194q0 -4 3 -4h61q10 0 10 -10v-8q0 -10 -10 -10h-65q-5 0 -5 -4l-29 -191q-1 -8 -11 -8h-9q-11 0 -9 11l27 188q0 4 -3 4h-182q-5 0 -5 -4l-28 -190q-1 -9 -11 -9h-9q-11 0 -9 11l27 188q0 4 -3 4h-62q-10 0 -10 10v8 q0 10 10 10h66q5 0 5 4l28 194q0 4 -3 4h-65q-10 0 -10 10v8q0 10 10 10h69q5 0 5 4l29 192q1 8 11 8h9q11 0 9 -11l-27 -189q0 -4 3 -4h181q5 0 5 4l29 192q1 8 11 8h10q11 0 9 -11l-28 -189q0 -4 3 -4h58q10 0 10 -10v-8zM364 242q5 0 5 4l28 194q0 4 -3 4h-181 q-5 0 -5 -4l-28 -194q0 -4 3 -4h181z" />
<glyph unicode="$" horiz-adv-x="413" d="M362 167q0 -74 -37.5 -121.5t-98.5 -53.5q-4 0 -4 -4v-65q0 -10 -10 -10h-5q-10 0 -10 10l1 66q0 4 -4 4q-60 6 -96.5 52.5t-36.5 119.5v19q0 10 10 10h9q10 0 10 -10v-18q0 -66 33.5 -106.5t86.5 -40.5t88 39t35 102q0 26 -8 48.5t-14.5 35.5t-32 36t-33.5 29t-45 34 q-39 30 -57.5 46t-41 42t-31.5 54t-9 64q0 69 35.5 111t92.5 48q4 0 4 4v69q0 10 10 10h4q10 0 10 -10v-69q0 -4 4 -4q61 -6 98 -53.5t37 -120.5v-25q0 -10 -10 -10h-9q-10 0 -10 10v24q0 67 -33.5 107.5t-88.5 40.5q-50 0 -82 -35t-32 -99q0 -54 27 -88.5t98 -87.5 q85 -63 115.5 -101.5t30.5 -102.5z" />
<glyph unicode="%" horiz-adv-x="790" d="M219 443q-55 0 -93 39t-38 95t38 94.5t93 38.5q54 0 91.5 -39t37.5 -94q0 -56 -37.5 -95t-91.5 -39zM206 0q-6 0 -8.5 3.5t0.5 8.5l367 681q3 7 12 7h6q6 0 8.5 -3.5t-0.5 -8.5l-367 -681q-3 -7 -12 -7h-6zM219 468q43 0 73.5 32t30.5 77t-30.5 76.5t-73.5 31.5 q-44 0 -75 -31.5t-31 -76.5q0 -46 31 -77.5t75 -31.5zM573 -10q-55 0 -93 39t-38 95t38 94.5t93 38.5q54 0 91.5 -39t37.5 -94q0 -56 -37.5 -95t-91.5 -39zM573 15q43 0 73.5 32t30.5 77t-30.5 76.5t-73.5 31.5q-44 0 -75 -31.5t-31 -76.5q0 -46 31 -77.5t75 -31.5z" />
<glyph unicode="&#x26;" horiz-adv-x="519" d="M461 12q9 -12 -6 -12h-10q-7 0 -12 7l-55 84q-2 4 -6 0q-39 -54 -75.5 -76.5t-84.5 -22.5q-70 0 -110.5 41t-40.5 115q0 70 32.5 120t93.5 106q3 1 1 5q-54 84 -68.5 118t-14.5 72q0 64 33.5 101.5t88.5 37.5q54 0 88 -37t34 -98q0 -42 -19 -81t-40.5 -62.5t-59.5 -58.5 q-3 -1 -1 -5l74 -113l69 -105q2 -4 6 0q11 17 51 85q4 9 14 3l7 -5q7 -6 3 -13q-38 -66 -60 -97q-1 -3 0 -6zM227 680q-41 0 -66.5 -30.5t-25.5 -80.5q0 -34 13 -65.5t59 -104.5q3 -4 6 -1q35 33 53.5 53.5t35.5 54t17 67.5q0 48 -25.5 77.5t-66.5 29.5zM214 20q42 0 74 22 t69 75q1 3 0 6q-18 29 -52 80l-96 143q-2 4 -5 1q-55 -53 -84 -97.5t-29 -103.5q0 -60 32.5 -93.5t90.5 -32.5z" />
<glyph unicode="'" horiz-adv-x="89" d="M41 505q-10 0 -10 10l-4 172q0 10 10 10h13q10 0 10 -10l-4 -172q0 -10 -10 -10h-5z" />
<glyph unicode="(" horiz-adv-x="169" d="M81 -112q-8 0 -11 7q-34 75 -54.5 190.5t-20.5 235.5q0 124 21.5 243.5t56.5 194.5q3 7 11 7h8q5 0 7.5 -3.5t0.5 -7.5q-31 -77 -50.5 -195t-19.5 -237q0 -118 19.5 -233t50.5 -191q2 -4 -0.5 -7.5t-7.5 -3.5h-11z" />
<glyph unicode=")" horiz-adv-x="169" d="M99 -105q-3 -7 -11 -7h-11q-13 0 -8 11q31 76 50.5 191t19.5 233q0 119 -19.5 237t-50.5 195q-5 11 8 11h8q8 0 11 -7q35 -75 56.5 -194.5t21.5 -243.5q0 -120 -20.5 -235.5t-54.5 -190.5z" />
<glyph unicode="*" horiz-adv-x="360" d="M177 393q-10 0 -10 10v139q0 6 -5 3l-114 -71q-8 -6 -14 4l-2 4q-5 9 3 14l115 71q2 1 2 3t-2 3l-115 71q-8 5 -3 14l2 4q6 10 14 4l114 -71q5 -3 5 3v139q0 10 10 10h6q10 0 10 -10v-139q0 -6 5 -3l114 71q8 6 14 -4l2 -4q5 -9 -3 -14l-115 -71q-2 -1 -2 -3t2 -3 l115 -71q8 -5 3 -14l-2 -4q-6 -10 -14 -4l-114 71q-5 3 -5 -3v-139q0 -10 -10 -10h-6z" />
<glyph unicode="+" d="M397 336q10 0 10 -10v-6q0 -10 -10 -10h-158q-4 0 -4 -4v-158q0 -10 -10 -10h-6q-10 0 -10 10v158q0 4 -4 4h-158q-10 0 -10 10v6q0 10 10 10h158q4 0 4 4v158q0 10 10 10h6q10 0 10 -10v-158q0 -4 4 -4h158z" />
<glyph unicode="," horiz-adv-x="158" d="M52 -68q-11 0 -9 11l37 201q2 9 11 9h8q11 0 9 -11l-40 -201q-2 -9 -11 -9h-5z" />
<glyph unicode="-" horiz-adv-x="303" d="M47 306q-10 0 -10 10v8q0 10 10 10h209q10 0 10 -10v-8q0 -10 -10 -10h-209z" />
<glyph unicode="." horiz-adv-x="173" d="M86 6q-16 0 -26.5 13t-10.5 31t11 30.5t26 12.5t26.5 -12.5t11.5 -30.5t-11.5 -31t-26.5 -13z" />
<glyph unicode="/" horiz-adv-x="246" d="M38 0q-12 0 -8 11l157 680q2 9 11 9h10q12 0 8 -11l-157 -680q-2 -9 -11 -9h-10z" />
<glyph unicode="0" horiz-adv-x="395" d="M197 -9q-70 0 -112 45.5t-42 120.5v386q0 75 42 120.5t112 45.5q69 0 112.5 -45.5t43.5 -120.5v-386q0 -75 -43.5 -120.5t-112.5 -45.5zM197 19q57 0 91.5 37t34.5 98v392q0 61 -34.5 98t-91.5 37q-56 0 -90 -37t-34 -98v-392q0 -61 34 -98t90 -37z" />
<glyph unicode="1" horiz-adv-x="232" d="M128 696q8 4 13 4h13q10 0 10 -10v-680q0 -10 -10 -10h-10q-10 0 -10 10v647q0 2 -2 2.5t-3 -0.5l-90 -49q-5 -3 -8.5 -0.5t-3.5 7.5v5q0 7 7 12z" />
<glyph unicode="2" horiz-adv-x="380" d="M58 0q-10 0 -10 10v11q0 7 3 13q22 39 80.5 142.5t89.5 160.5q70 124 70 205q0 62 -30 100t-79 38q-47 0 -76 -38t-28 -100v-34q0 -10 -10 -10h-11q-10 0 -10 10v35q1 74 38.5 119.5t97.5 45.5q62 0 100 -46t38 -120q0 -93 -71 -220q-24 -42 -163 -289q-3 -5 2 -5h247 q10 0 10 -10v-8q0 -10 -10 -10h-278z" />
<glyph unicode="3" horiz-adv-x="396" d="M311 340q20 -49 20 -134q0 -57 -11 -103q-29 -111 -132 -111q-108 0 -134 116q-8 35 -10 85q0 10 10 10h10q10 0 10 -10q2 -44 9 -75q21 -98 105 -98q79 0 103 88q10 39 10 99q0 75 -16 120q-26 77 -97 77q-9 0 -19 -2q-8 -1 -13 4l-4 4q-6 6 -2 14l141 243q3 5 -3 5 h-232q-10 0 -10 10v8q0 10 10 10h263q10 0 10 -10v-11q0 -7 -3 -13l-134 -232q-2 -5 2 -5q85 -1 117 -89z" />
<glyph unicode="4" horiz-adv-x="356" d="M319 228q10 0 10 -10v-8q0 -10 -10 -10h-29q-4 0 -4 -4v-186q0 -10 -10 -10h-10q-10 0 -10 10v186q0 4 -4 4h-215q-10 0 -10 10v10q0 4 2 12l159 460q3 8 12 8h12q11 0 8 -11l-158 -456q-2 -5 3 -5h187q4 0 4 4v180q0 10 10 10h10q10 0 10 -10v-180q0 -4 4 -4h29z" />
<glyph unicode="5" horiz-adv-x="391" d="M333 327q14 -48 14 -116q0 -55 -9 -95q-26 -124 -133 -124q-112 0 -135 129l-3 30q-2 10 9 10h10q10 0 11 -10q3 -26 3 -28q21 -103 105 -103q79 0 102 96q10 39 10 95q0 60 -13 107q-26 83 -99 83q-86 0 -107 -87q-3 -9 -11 -9h-11q-10 0 -10 10v375q0 10 10 10h239 q10 0 10 -10v-8q0 -10 -10 -10h-215q-4 0 -4 -4l-1 -295q0 -3 1.5 -3.5t3.5 2.5q32 57 109 57q94 0 124 -102z" />
<glyph unicode="6" horiz-adv-x="392" d="M337 317q11 -46 11 -106q0 -48 -7 -83q-21 -136 -135 -136q-106 0 -132 126q-8 43 -8 93v330q0 76 38.5 121.5t102.5 45.5q56 0 93 -46t37 -121v-5q0 -10 -10 -10h-10q-10 0 -10 9v8q0 61 -28.5 99t-71.5 38q-50 0 -80.5 -38t-30.5 -99v-179q0 -3 2 -4l2 3q34 67 108 67 q98 0 129 -113zM312 132q6 35 6 79q0 59 -12 101q-22 90 -100 90t-101 -95q-9 -35 -9 -96q0 -52 7 -87q23 -104 103 -104q87 0 106 112z" />
<glyph unicode="7" horiz-adv-x="342" d="M123 0q-12 0 -9 11l174 657q2 4 -4 4h-224q-4 0 -4 -4v-42q0 -10 -10 -10h-7q-10 0 -10 10v64q0 10 10 10h272q10 0 10 -10v-12q0 -2 -2 -12l-173 -657q-2 -9 -11 -9h-12z" />
<glyph unicode="8" horiz-adv-x="412" d="M270 378q-5 -2 0 -5q33 -17 53 -57q25 -52 25 -125q0 -50 -14 -97q-33 -102 -129 -102q-45 0 -78 26.5t-49 74.5q-13 45 -13 99q0 69 19 114q20 46 57 66q5 3 0 6q-33 17 -53 50q-24 42 -24 108q0 67 23 107q37 65 118 65q80 0 117 -62q26 -40 26 -111q0 -65 -23 -104 q-20 -36 -55 -53zM114 441q29 -51 91 -51q65 0 95 57q19 36 19 89q0 58 -23 95q-30 50 -91 50q-63 0 -92 -54q-20 -37 -20 -93q0 -54 21 -93zM306 107q11 38 11 84q0 64 -19 107q-27 64 -93 64q-67 0 -94 -69q-17 -40 -17 -101q0 -53 13 -89q25 -83 98 -83q76 0 101 87z" />
<glyph unicode="9" horiz-adv-x="385" d="M311 582q8 -43 8 -93v-330q0 -76 -38.5 -121.5t-102.5 -45.5q-56 0 -93 46t-37 121v5q0 10 10 10h10q10 0 10 -8v-9q0 -61 28.5 -99t71.5 -38q50 0 80.5 38t30.5 99v179q0 3 -2 4l-2 -3q-34 -67 -108 -67q-98 0 -129 113q-11 46 -11 106q0 48 7 83q21 136 135 136 q106 0 132 -126zM179 298q78 0 101 95q9 35 9 96q0 52 -7 87q-23 104 -103 104q-87 0 -106 -112q-6 -34 -6 -79q0 -59 12 -101q23 -90 100 -90z" />
<glyph unicode=":" horiz-adv-x="173" d="M87 349q-16 0 -27 12.5t-11 31.5q0 17 11.5 30t26.5 13q14 0 25.5 -13t11.5 -30q0 -19 -11 -31.5t-26 -12.5zM87 7q-16 0 -27 12.5t-11 31.5q0 17 11.5 30t26.5 13q14 0 25.5 -13t11.5 -30q0 -19 -11 -31.5t-26 -12.5z" />
<glyph unicode=";" horiz-adv-x="170" d="M85 366q-16 0 -26.5 13t-10.5 31t11 30.5t26 12.5t26.5 -12.5t11.5 -30.5t-11.5 -31t-26.5 -13zM59 -62q-5 0 -8 3.5t-2 7.5l23 190q1 9 10 9h10q11 0 9 -11l-27 -190q-1 -9 -10 -9h-5z" />
<glyph unicode="&#x3c;" d="M407 76q0 -12 -12 -7l-351 180q-7 3 -7 12v15q0 9 7 12l351 180q12 5 12 -7v-11q0 -9 -7 -12l-330 -167q-2 -1 -2 -3t2 -3l330 -166q7 -3 7 -12v-11z" />
<glyph unicode="=" d="M47 434q-10 0 -10 10v6q0 10 10 10h350q10 0 10 -10v-6q0 -10 -10 -10h-350zM47 216q-10 0 -10 10v6q0 10 10 10h350q10 0 10 -10v-6q0 -10 -10 -10h-350z" />
<glyph unicode="&#x3e;" d="M49 69q-12 -5 -12 7v11q0 9 7 12l330 166q2 1 2 3t-2 3l-330 167q-7 3 -7 12v11q0 12 12 7l351 -180q7 -3 7 -12v-15q0 -9 -7 -12z" />
<glyph unicode="?" horiz-adv-x="330" d="M145 187q-10 0 -10 10v74q0 34 13 61t32 47t38 40.5t32 53t13 73.5q0 61 -27 98t-71 37q-45 0 -73 -37t-28 -97v-38q0 -10 -10 -10h-10q-10 0 -10 10v38q0 73 36 117.5t95 44.5q58 0 93 -45t35 -120q0 -47 -13 -83t-31.5 -58t-37 -41t-31.5 -42t-13 -50v-73 q0 -10 -10 -10h-12zM153 5q-15 0 -25.5 12.5t-10.5 30.5t11 30.5t25 12.5q15 0 26 -12.5t11 -30.5t-11 -30.5t-26 -12.5z" />
<glyph unicode="@" horiz-adv-x="764" d="M424 593q141 0 218 -89.5t58 -237.5q-12 -91 -56 -142.5t-109 -51.5q-68 0 -92 53q-2 5 -5 0q-13 -26 -37.5 -40.5t-51.5 -14.5q-43 0 -68 29t-20 74l20 158q5 45 34.5 73.5t72.5 28.5q47 0 67 -37q3 -3 5 1l3 22q1 9 10 9h7q5 0 8 -3.5t2 -7.5l-29 -220q-5 -44 16 -72 t63 -28q51 0 86 43.5t45 123.5q19 137 -51.5 220.5t-200.5 83.5q-124 0 -217 -89.5t-111 -231.5q-17 -141 53 -227.5t193 -86.5q108 0 173 49q8 5 14 -2l3 -3q6 -8 -1 -14q-73 -56 -193 -56q-135 0 -211.5 94t-57.5 245q19 154 121 250.5t239 96.5zM352 95q30 0 52 21.5 t28 57.5l3 17v3v1l7 60l3 18l8 63q2 32 -15.5 52.5t-46.5 20.5q-32 0 -55 -22.5t-28 -57.5q-4 -22 -10 -78q-2 -14 -5.5 -40t-4.5 -37q-4 -35 14 -57t50 -22z" />
<glyph unicode="A" horiz-adv-x="428" d="M366 0q-10 0 -11 9l-30 139q0 4 -5 4h-212q-5 0 -5 -4l-30 -139q-1 -9 -11 -9h-10q-11 0 -9 11l152 680q1 9 11 9h14q9 0 11 -9l154 -680q2 -11 -8 -11h-11zM111 183q-2 -4 4 -4h198q6 0 4 4l-101 457q-2 8 -4 0z" />
<glyph unicode="B" horiz-adv-x="436" d="M303 364q-5 -2 0 -5q93 -42 93 -172q0 -88 -44.5 -137.5t-122.5 -49.5h-131q-10 0 -10 10v680q0 10 10 10h129q78 0 122.5 -47t44.5 -131q0 -119 -91 -158zM122 672q-4 0 -4 -4v-288q0 -4 4 -4h105q64 0 100.5 38.5t36.5 106.5q0 71 -36 111t-101 40h-105zM227 29 q65 0 102 42t37 117q0 76 -36.5 118.5t-101.5 42.5h-106q-4 0 -4 -4v-312q0 -4 4 -4h105z" />
<glyph unicode="C" horiz-adv-x="435" d="M220 -8q-68 0 -110 43.5t-42 115.5v399q0 72 42 115t110 43q70 0 112 -43t42 -115v-20q0 -10 -10 -10l-11 -1q-10 0 -10 10v23q0 58 -34 93t-89 35t-88.5 -35t-33.5 -93v-403q0 -58 33.5 -93.5t88.5 -35.5t89 35.5t34 93.5v22q0 9 10 9l11 -1q10 0 10 -10v-18 q0 -72 -42 -115.5t-112 -43.5z" />
<glyph unicode="D" horiz-adv-x="459" d="M98 0q-10 0 -10 10v680q0 10 10 10h137q69 0 109.5 -48.5t40.5 -132.5v-338q0 -84 -40.5 -132.5t-109.5 -48.5h-137zM118 32q0 -4 4 -4h114q54 0 86 41t32 112v337q0 72 -31.5 113t-86.5 41h-114q-4 0 -4 -4v-636z" />
<glyph unicode="E" horiz-adv-x="424" d="M376 682q0 -10 -10 -10h-244q-4 0 -4 -4v-300q0 -4 4 -4h160q10 0 10 -10v-7q0 -10 -10 -10h-160q-4 0 -4 -4v-301q0 -4 4 -4h244q10 0 10 -10v-8q0 -10 -10 -10h-268q-10 0 -10 10v680q0 10 10 10h268q10 0 10 -10v-8z" />
<glyph unicode="F" horiz-adv-x="394" d="M374 682q0 -10 -10 -10h-242q-4 0 -4 -4v-300q0 -4 4 -4h159q10 0 10 -10v-7q0 -10 -10 -10h-159q-4 0 -4 -4v-323q0 -10 -10 -10h-10q-10 0 -10 10v680q0 10 10 10h266q10 0 10 -10v-8z" />
<glyph unicode="G" horiz-adv-x="434" d="M220 -8q-68 0 -110 42t-42 112v408q0 70 42 112t110 42q69 0 111 -42.5t42 -112.5v-45q0 -10 -10 -10h-10q-10 0 -10 10v47q0 56 -34 90.5t-89 34.5t-88.5 -34.5t-33.5 -90.5v-410q0 -56 33.5 -90.5t88.5 -34.5t89 34.5t34 90.5v159q0 4 -4 4h-103q-10 0 -10 10v7 q0 10 10 10h127q10 0 10 -10v-179q0 -70 -42 -112t-111 -42z" />
<glyph unicode="H" horiz-adv-x="467" d="M349 690q0 10 10 10h10q10 0 10 -10v-680q0 -10 -10 -10h-10q-10 0 -10 10v323q0 4 -4 4h-223q-4 0 -4 -4v-323q0 -10 -10 -10h-10q-10 0 -10 10v680q0 10 10 10h10q10 0 10 -10v-322q0 -4 4 -4h223q4 0 4 4v322z" />
<glyph unicode="I" horiz-adv-x="206" d="M98 0q-10 0 -10 10v680q0 10 10 10h10q10 0 10 -10v-680q0 -10 -10 -10h-10z" />
<glyph unicode="J" horiz-adv-x="410" d="M175 -8q-67 0 -107.5 43.5t-40.5 114.5v92q0 10 10 10h10q10 0 10 -10v-93q0 -58 32.5 -93.5t85.5 -35.5q52 0 84.5 35.5t32.5 93.5v541q0 10 10 10h10q10 0 10 -10v-540q0 -71 -40.5 -114.5t-106.5 -43.5z" />
<glyph unicode="K" horiz-adv-x="429" d="M98 0q-10 0 -10 10v680q0 10 10 10h10q10 0 10 -10v-365q0 -3 2 -3.5t3 2.5l230 369q5 7 12 7h14q14 0 7 -12l-160 -260q-3 -3 -1 -6l179 -410q5 -12 -8 -12h-14q-8 0 -11 8l-167 384q-1 4 -5 0l-80 -120q-1 -1 -1 -5v-257q0 -10 -10 -10h-10z" />
<glyph unicode="L" horiz-adv-x="378" d="M98 0q-10 0 -10 10v680q0 10 10 10h10q10 0 10 -10v-658q0 -4 4 -4h239q10 0 10 -10v-8q0 -10 -10 -10h-263z" />
<glyph unicode="M" horiz-adv-x="505" d="M98 0q-10 0 -10 10v680q0 10 10 10h12q8 0 11 -8l127 -318q1 -3 3 -2.5t3 2.5l130 318q3 8 11 8h12q10 0 10 -10v-680q0 -10 -10 -10h-10q-10 0 -10 10v610q0 3 -2 3.5t-3 -2.5l-117 -291q-3 -8 -11 -8h-1q-8 0 -11 8l-119 291q-1 3 -4 2l-1 -3v-610q0 -10 -10 -10h-10z " />
<glyph unicode="N" horiz-adv-x="481" d="M98 0q-10 0 -10 10v680q0 10 10 10h12q8 0 11 -8l238 -608q1 -3 3 -2.5t2 3.5v605q0 10 10 10h10q10 0 10 -10v-680q0 -10 -10 -10h-13q-8 0 -11 8l-237 608q-1 3 -3 2.5t-2 -3.5v-605q0 -10 -10 -10h-10z" />
<glyph unicode="O" horiz-adv-x="446" d="M222 -8q-68 0 -111 44.5t-43 116.5v393q0 72 43 117t111 45q69 0 112.5 -45t43.5 -117v-393q0 -72 -43.5 -116.5t-112.5 -44.5zM222 20q56 0 91 36.5t35 94.5v397q0 58 -35 95t-91 37q-55 0 -89.5 -37t-34.5 -95v-397q0 -58 34.5 -94.5t89.5 -36.5z" />
<glyph unicode="P" horiz-adv-x="429" d="M240 702q67 0 107.5 -50.5t40.5 -133.5q0 -82 -40.5 -132t-106.5 -50h-119q-4 0 -4 -4v-322q0 -10 -10 -10h-10q-10 0 -10 10v682q0 10 10 10h142zM239 363q53 0 86 42.5t33 112.5t-33 113t-86 43h-117q-4 0 -4 -4v-303q0 -4 4 -4h117z" />
<glyph unicode="Q" horiz-adv-x="433" d="M217 708q66 0 107 -45t41 -117v-392q0 -67 -35 -110.5t-94 -50.5q-4 0 -4 -4v-104q0 -10 -10 -10h-11q-10 0 -10 10v104q0 4 -4 4q-58 7 -93.5 51t-35.5 110v392q0 72 41.5 117t107.5 45zM335 152v396q0 59 -33 95.5t-85 36.5q-53 0 -86 -37t-33 -95v-396q0 -58 33 -95 t86 -37q52 0 85 36.5t33 95.5z" />
<glyph unicode="R" horiz-adv-x="427" d="M372 0q-9 0 -12 8l-120 329q-1 3 -4 3h-114q-4 0 -4 -4v-326q0 -10 -10 -10h-10q-10 0 -10 10v682q0 10 10 10h142q67 0 107.5 -50t40.5 -132q0 -71 -31 -118t-85 -59q-4 -2 -3 -5l120 -327q3 -11 -8 -11h-9zM122 674q-4 0 -4 -4v-299q0 -4 4 -4h117q54 0 86.5 42 t32.5 111t-32.5 111.5t-86.5 42.5h-117z" />
<glyph unicode="S" horiz-adv-x="413" d="M211 -8q-67 0 -108.5 47.5t-41.5 125.5v19q0 10 10 10h9q10 0 10 -10v-18q0 -66 33.5 -106.5t86.5 -40.5t88 39t35 102q0 26 -8 48.5t-14.5 35.5t-32 36t-33.5 29t-45 34q-39 30 -57.5 46t-41 42t-31.5 54t-9 64q0 74 40.5 116.5t103.5 42.5q68 0 109.5 -48t41.5 -126 v-25q0 -10 -10 -10h-9q-10 0 -10 10v24q0 67 -33.5 107.5t-88.5 40.5q-50 0 -82 -35t-32 -99q0 -54 27 -88.5t98 -87.5q85 -63 115.5 -101.5t30.5 -102.5q0 -79 -42 -127t-109 -48z" />
<glyph unicode="T" horiz-adv-x="396" d="M347 700q10 0 10 -10v-8q0 -10 -10 -10h-134q-4 0 -4 -4v-658q0 -10 -10 -10h-10q-10 0 -10 10v658q0 4 -4 4h-126q-10 0 -10 10v8q0 10 10 10h298z" />
<glyph unicode="U" horiz-adv-x="474" d="M236 -8q-70 0 -112.5 51t-42.5 134v513q0 10 10 10h10q10 0 10 -10v-517q0 -69 34.5 -111t90.5 -42q57 0 92 42t35 111v517q0 10 10 10h10q10 0 10 -10v-513q0 -83 -43 -134t-114 -51z" />
<glyph unicode="V" horiz-adv-x="411" d="M199 0q-9 0 -11 9l-145 680q-2 11 9 11h11q9 0 11 -9l130 -625q2 -8 4 0l130 625q2 9 11 9h10q11 0 9 -11l-145 -680q-1 -9 -11 -9h-13z" />
<glyph unicode="W" horiz-adv-x="585" d="M174 0q-10 0 -11 9l-129 680q-2 11 9 11h11q10 0 11 -9l114 -619q2 -6 4 0l96 619q1 9 10 9h12q9 0 10 -9l99 -619q2 -6 4 0l105 619q1 9 11 9h12q11 0 9 -11l-123 -680q-2 -9 -11 -9h-12q-9 0 -10 9l-97 616q-2 6 -4 0l-98 -616q-2 -9 -10 -9h-12z" />
<glyph unicode="X" horiz-adv-x="410" d="M54 0q-13 0 -8 12l142 335q2 3 0 6l-142 335q-5 12 8 12h12q8 0 11 -8l125 -308q1 -2 3 -2t3 2l125 308q3 8 11 8h12q13 0 8 -12l-143 -336q-1 -3 0 -6l143 -334q5 -12 -8 -12h-12q-8 0 -11 8l-125 307q-1 2 -3 2t-3 -2l-125 -307q-3 -8 -11 -8h-12z" />
<glyph unicode="Y" horiz-adv-x="395" d="M193 0q-10 0 -10 10v322q0 4 -1 5l-137 351q-5 12 8 12h11q8 0 11 -8l120 -322q1 -3 3 -3t3 3l119 322q3 8 11 8h11q13 0 8 -12l-136 -351q-1 -1 -1 -5v-322q0 -10 -10 -10h-10z" />
<glyph unicode="Z" horiz-adv-x="385" d="M51 0q-10 0 -10 10v12q0 7 2 12l260 633q3 5 -3 5h-249q-10 0 -10 10v8q0 10 10 10h277q10 0 10 -10v-12q0 -7 -2 -12l-260 -633q-2 -5 3 -5h249q10 0 10 -10v-8q0 -10 -10 -10h-277z" />
<glyph unicode="[" horiz-adv-x="278" d="M34 -106q-10 0 -10 10v845q0 10 10 10h125q10 0 10 -10v-8q0 -10 -10 -10h-101q-4 0 -4 -4v-801q0 -4 4 -4h102q10 0 10 -10v-8q0 -10 -10 -10h-126z" />
<glyph unicode="\" horiz-adv-x="246" d="M216 11q4 -11 -8 -11h-10q-9 0 -11 9l-157 680q-4 11 8 11h10q9 0 11 -9z" />
<glyph unicode="]" horiz-adv-x="278" d="M254 -96q0 -10 -10 -10h-126q-10 0 -10 10v8q0 10 10 10h102q4 0 4 4v801q0 4 -4 4h-101q-10 0 -10 10v8q0 10 10 10h125q10 0 10 -10v-845z" />
<glyph unicode="^" horiz-adv-x="381" d="M49 313q-11 0 -8 11l131 368q3 8 12 8h13q9 0 12 -8l131 -368q3 -11 -8 -11h-8q-9 0 -12 8l-119 342q-1 2 -3 2t-3 -2l-118 -342q-3 -8 -12 -8h-8z" />
<glyph unicode="_" horiz-adv-x="350" d="M37 0q-10 0 -10 10v8q0 10 10 10h276q10 0 10 -10v-8q0 -10 -10 -10h-276z" />
<glyph unicode="`" horiz-adv-x="158" d="M124 592q7 -12 -7 -12h-6q-7 0 -12 7l-65 111q-7 12 7 12h9q7 0 12 -7z" />
<glyph unicode="a" horiz-adv-x="392" d="M197 509q64 0 99 -45t35 -121v-333q0 -10 -10 -10h-10q-10 0 -10 10v45q0 3 -1.5 3.5t-3.5 -2.5q-38 -64 -123 -64q-52 0 -87.5 30.5t-35.5 105.5q0 80 43 119t115 39h89q4 0 4 4v55q0 62 -27 99t-78 37q-40 0 -70 -24.5t-34 -63.5q0 -9 -10 -9l-11 1q-11 0 -9 10 q5 51 43.5 82.5t91.5 31.5zM178 20q50 0 86.5 32t36.5 92v111q0 4 -4 4h-88q-59 0 -94 -33t-35 -97q0 -56 27 -82.5t71 -26.5z" />
<glyph unicode="b" horiz-adv-x="410" d="M348 365q0 -19 0.5 -57.5t0.5 -56.5q0 -19 -0.5 -57t-0.5 -58q-2 -64 -38.5 -104t-95.5 -40q-71 0 -105 58q-3 3 -5 -1v-39q0 -10 -10 -10h-10q-10 0 -10 10v680q0 10 10 10h10q10 0 10 -10v-238q1 -4 5 -1q34 58 104 58q60 0 97 -40t38 -104zM318 136q0 19 0.5 58 t0.5 56q0 39 -2 115q0 52 -30.5 84t-77.5 32q-46 0 -74.5 -32t-29.5 -84q-1 -37 -1 -112v-4q0 -76 1 -113q1 -52 29.5 -84t74.5 -32q48 0 78 32t31 84z" />
<glyph unicode="c" horiz-adv-x="384" d="M199 -8q-61 0 -99.5 40.5t-38.5 104.5v227q0 63 38.5 104t99.5 41q60 0 99 -37.5t39 -88.5v-3q0 -10 -10 -10h-10q-10 0 -10 7v6q0 39 -30.5 68.5t-77.5 29.5q-48 0 -78 -32.5t-30 -84.5v-227q0 -52 30 -84.5t78 -32.5q47 0 77.5 29.5t30.5 68.5v3q0 10 10 10h10 q10 0 10 -6v-7q0 -51 -39 -88.5t-99 -37.5z" />
<glyph unicode="d" horiz-adv-x="410" d="M306 690q0 10 10 10h10q10 0 10 -10v-680q0 -10 -10 -10h-10q-10 0 -10 10v39q-1 4 -5 1q-34 -58 -105 -58q-59 0 -95.5 40t-38.5 104q0 20 -0.5 58t-0.5 57q0 18 0.5 56.5t0.5 57.5q1 64 38 104t97 40q70 0 104 -58q3 -3 5 1v238zM305 136q1 37 1 113v4q0 75 -1 112 q-1 52 -29.5 84t-74.5 32q-47 0 -77.5 -32t-30.5 -84q-2 -76 -2 -115q0 -17 0.5 -56t0.5 -58q1 -52 31 -84t78 -32q46 0 74.5 32t29.5 84z" />
<glyph unicode="e" horiz-adv-x="391" d="M337 254q0 -10 -10 -10h-232q-4 0 -4 -4v-103q0 -52 30 -84.5t78 -32.5q39 0 67 22.5t37 60.5q3 9 11 9h10q12 0 9 -11q-10 -49 -46 -79t-88 -30q-61 0 -99.5 40.5t-38.5 104.5v227q0 63 38.5 104t99.5 41t99.5 -41t38.5 -104v-110zM199 481q-48 0 -78 -32.5t-30 -84.5 v-90q0 -4 4 -4h208q4 0 4 4v90q0 52 -30 84.5t-78 32.5z" />
<glyph unicode="f" horiz-adv-x="264" d="M203 682q-47 0 -64 -32.5t-17 -101.5v-43q0 -4 4 -4h88q10 0 10 -10v-6q0 -10 -10 -10h-88q-4 0 -4 -4v-461q0 -10 -10 -10h-10q-10 0 -10 10v461q0 4 -4 4h-45q-10 0 -10 10v6q0 10 10 10h45q4 0 4 4v44q0 81 24.5 120.5t85.5 39.5h15q10 0 10 -10v-7q0 -10 -10 -10h-14 z" />
<glyph unicode="g" horiz-adv-x="397" d="M305 491q0 10 10 10h11q10 0 10 -10v-489q0 -99 -42.5 -151t-133.5 -51q-10 0 -10 10v7q0 10 10 10q145 0 145 176v47q0 3 -1.5 3.5t-3.5 -1.5q-35 -59 -105 -59q-60 0 -97 40t-37 104v227q0 64 37 104.5t97 40.5q72 0 105 -59q3 -2 5 2v39zM200 21q46 0 75.5 32.5 t29.5 84.5v226q0 52 -29.5 84.5t-75.5 32.5q-48 0 -78.5 -32.5t-30.5 -84.5v-226q0 -52 30.5 -84.5t78.5 -32.5z" />
<glyph unicode="h" horiz-adv-x="411" d="M217 508q60 0 93 -40t33 -111v-347q0 -10 -10 -10h-10q-10 0 -10 10v343q0 60 -27 93.5t-75 33.5q-50 0 -78.5 -36t-28.5 -99v-335q0 -10 -10 -10h-10q-10 0 -10 10v680q0 10 10 10h10q10 0 10 -10v-246q1 -4 5 -1q33 65 108 65z" />
<glyph unicode="i" horiz-adv-x="187" d="M94 616q-13 0 -21.5 10t-8.5 24t8.5 23t21.5 9t21 -9t8 -23t-8 -24t-21 -10zM89 0q-10 0 -10 10v481q0 10 10 10h10q10 0 10 -10v-481q0 -10 -10 -10h-10z" />
<glyph unicode="j" horiz-adv-x="179" d="M89 616q-13 0 -21 9t-8 25q0 15 8.5 24t20.5 9q14 0 22.5 -9t8.5 -24q0 -34 -31 -34zM-4 -211q-10 0 -10 10v8q0 10 10 10q78 8 78 114v560q0 10 10 10h10q10 0 10 -10v-560q0 -135 -108 -142z" />
<glyph unicode="k" horiz-adv-x="379" d="M84 0q-10 0 -10 10v680q0 10 10 10h10q10 0 10 -10v-442q0 -2 2 -2.5t3 1.5l184 248q4 6 13 6h12q6 0 8 -3.5t-2 -8.5l-94 -126q-2 -3 -1 -5l115 -347q3 -11 -8 -11h-11q-9 0 -12 8l-103 322q-1 6 -6 1l-98 -132q-2 -2 -2 -5v-184q0 -10 -10 -10h-10z" />
<glyph unicode="l" horiz-adv-x="165" d="M78 0q-10 0 -10 10v680q0 10 10 10h10q10 0 10 -10v-680q0 -10 -10 -10h-10z" />
<glyph unicode="m" horiz-adv-x="632" d="M444 508q54 0 87 -43.5t33 -117.5v-337q0 -10 -10 -10h-9q-10 0 -10 10v334q0 62 -27.5 99t-71.5 37q-46 0 -74 -36.5t-28 -98.5v-335q0 -10 -10 -10h-10q-10 0 -10 10v334q0 62 -27 99t-70 37q-47 0 -75 -36t-28 -99v-335q0 -10 -10 -10h-10q-10 0 -10 10v481 q0 10 10 10h10q10 0 10 -10v-45q0 -3 2 -3.5t3 2.5q34 63 105 63q81 0 109 -85q1 -6 5 1q29 84 116 84z" />
<glyph unicode="n" horiz-adv-x="411" d="M217 508q60 0 93 -40t33 -111v-347q0 -10 -10 -10h-10q-10 0 -10 10v343q0 60 -27 93.5t-75 33.5q-50 0 -78.5 -36t-28.5 -99v-335q0 -10 -10 -10h-10q-10 0 -10 10v481q0 10 10 10h10q10 0 10 -10v-47q1 -4 5 -1q33 65 108 65z" />
<glyph unicode="o" horiz-adv-x="398" d="M199 -8q-61 0 -99.5 40.5t-38.5 104.5v227q0 63 38.5 104t99.5 41t99.5 -41t38.5 -104v-227q0 -64 -38.5 -104.5t-99.5 -40.5zM199 20q48 0 78 32.5t30 84.5v227q0 52 -30 84.5t-78 32.5t-78 -32.5t-30 -84.5v-227q0 -52 30 -84.5t78 -32.5z" />
<glyph unicode="p" horiz-adv-x="416" d="M355 365q0 -20 0.5 -58t0.5 -57q0 -18 -0.5 -56.5t-0.5 -57.5q-1 -64 -38 -104t-97 -40q-70 0 -104 58q-3 3 -5 -1v-238q0 -10 -10 -10h-10q-10 0 -10 10v680q0 10 10 10h10q10 0 10 -10v-39q1 -4 5 -1q34 58 105 58q59 0 95.5 -40t38.5 -104zM324 136q2 76 2 115 q0 17 -0.5 56t-0.5 58q-1 52 -31 84t-78 32q-46 0 -74.5 -32t-29.5 -84q-1 -37 -1 -113v-4q0 -75 1 -112q1 -52 29.5 -84t74.5 -32q47 0 77.5 32t30.5 84z" />
<glyph unicode="q" horiz-adv-x="416" d="M306 491q0 10 10 10h10q10 0 10 -10v-680q0 -10 -10 -10h-10q-10 0 -10 10v238q-1 4 -5 1q-34 -58 -104 -58q-60 0 -97 40t-38 104q0 19 -0.5 57.5t-0.5 56.5q0 19 0.5 57t0.5 58q2 64 38.5 104t95.5 40q71 0 105 -58q3 -3 5 1v39zM305 136q1 37 1 112v4q0 76 -1 113 q-1 52 -29.5 84t-74.5 32q-48 0 -78 -32t-31 -84q0 -19 -0.5 -58t-0.5 -56q0 -39 2 -115q0 -52 30.5 -84t77.5 -32q46 0 74.5 32t29.5 84z" />
<glyph unicode="r" horiz-adv-x="274" d="M210 505q25 0 43 -10q7 -4 4 -13l-4 -12q-3 -10 -13 -5q-16 7 -35 7q-44 -1 -72.5 -43.5t-28.5 -105.5v-313q0 -10 -10 -10h-10q-10 0 -10 10v481q0 10 10 10h10q10 0 10 -10v-65q0 -6 4 -1q0 1 1 2q31 78 101 78z" />
<glyph unicode="s" horiz-adv-x="352" d="M185 -4q-59 0 -96 34.5t-37 86.5v5q0 10 10 10h9q10 0 10 -7v-7q0 -41 28.5 -68.5t76.5 -27.5q45 0 72.5 28t27.5 74q0 25 -8 43.5t-27.5 32.5t-33 21t-42.5 19q-30 12 -45.5 20.5t-36 24.5t-30 38.5t-9.5 53.5q0 58 35.5 93t94.5 35q58 0 93.5 -35.5t35.5 -91.5v-3 q0 -10 -10 -10h-8q-10 0 -10 7v6q0 43 -28.5 71.5t-73.5 28.5t-72 -28t-27 -73q0 -23 7.5 -40.5t24.5 -30.5t31 -20.5t40 -18.5q32 -14 47.5 -21.5t38.5 -25t33 -41t10 -55.5q0 -58 -36 -93t-95 -35z" />
<glyph unicode="t" horiz-adv-x="253" d="M219 485q0 -10 -10 -10h-85q-4 0 -4 -4v-345q0 -55 18.5 -76.5t58.5 -21.5h11q10 0 10 -10v-8q0 -10 -10 -10h-15q-51 0 -77.5 26.5t-26.5 97.5v347q0 4 -4 4h-41q-10 0 -10 10v6q0 10 10 10h41q4 0 4 4v112q0 10 10 10h11q10 0 10 -10v-112q0 -4 4 -4h85q10 0 10 -10v-6 z" />
<glyph unicode="u" horiz-adv-x="411" d="M306 491q0 10 10 10h10q10 0 10 -10v-481q0 -10 -10 -10h-10q-10 0 -10 10v40q0 3 -2 3.5t-3 -2.5q-31 -58 -105 -58q-60 0 -94 36.5t-34 108.5v353q0 10 10 10h10q10 0 10 -10v-346q0 -124 102 -124q49 0 77.5 36t28.5 99v335z" />
<glyph unicode="v" horiz-adv-x="346" d="M167 0q-9 0 -11 9l-126 481q-3 11 9 11h13q10 0 11 -9l108 -438q2 -8 4 0l108 438q1 9 11 9h13q11 0 8 -11l-123 -481q-2 -9 -11 -9h-14z" />
<glyph unicode="w" horiz-adv-x="520" d="M144 0q-10 0 -11 9l-104 481q-2 11 9 11h10q10 0 11 -9l89 -442q2 -8 4 0l90 442q2 9 11 9h11q10 0 11 -9l91 -442q2 -8 4 0l91 442q1 9 11 9h10q11 0 9 -11l-106 -481q-1 -9 -11 -9h-12q-10 0 -11 9l-91 429q-2 8 -4 0l-88 -429q-2 -9 -11 -9h-13z" />
<glyph unicode="x" horiz-adv-x="338" d="M34 0q-6 0 -8.5 3.5t0.5 8.5l127 235q1 3 0 6l-127 236q-3 5 -0.5 8.5t7.5 3.5h13q9 0 12 -7l109 -214q1 -2 3 -2t3 2l108 214q3 7 12 7h12q12 0 7 -12l-125 -236q-1 -3 0 -6l125 -235q5 -12 -7 -12h-12q-9 0 -12 7l-108 214q-1 2 -3 2t-3 -2l-109 -214q-3 -7 -12 -7h-12 z" />
<glyph unicode="y" horiz-adv-x="335" d="M47 -200q-6 0 -6 10v7q0 10 6 10h5q41 1 58 31t42 139v6l-129 487q-3 11 9 11h11q9 0 11 -9l112 -444q2 -8 4 0l111 444q1 9 11 9h11q12 0 9 -11l-143 -549q-24 -90 -46.5 -115.5t-70.5 -25.5h-5z" />
<glyph unicode="z" horiz-adv-x="353" d="M52 0q-10 0 -10 10v11q0 6 3 13l232 434q2 5 -2 5h-220q-10 0 -10 10v8q0 10 10 10h250q10 0 10 -10v-11q0 -6 -3 -13l-233 -434q-2 -5 2 -5h222q10 0 10 -10v-8q0 -10 -10 -10h-251z" />
<glyph unicode="{" horiz-adv-x="231" d="M165 -106q-46 0 -66 25t-20 83v223q0 79 -46 91q-9 2 -9 10v9q0 9 9 10q46 11 46 90v216q0 58 20 83t66 25h32q10 0 10 -10v-8q0 -10 -10 -10h-29q-32 0 -45.5 -19t-13.5 -62v-212q0 -84 -43 -105q-5 -2 0 -5q43 -24 43 -106v-219q0 -43 13.5 -62t45.5 -19h29 q10 0 10 -10v-8q0 -10 -10 -10h-32z" />
<glyph unicode="|" horiz-adv-x="119" d="M54 -80q-10 0 -10 10v820q0 10 10 10h10q10 0 10 -10v-820q0 -10 -10 -10h-10z" />
<glyph unicode="}" horiz-adv-x="231" d="M66 -106h-32q-10 0 -10 10v8q0 10 10 10h29q32 0 45.5 19t13.5 62v219q0 83 43 106q5 3 0 5q-43 21 -43 105v212q0 43 -13.5 62t-45.5 19h-29q-10 0 -10 10v8q0 10 10 10h32q46 0 66 -25t20 -83v-216q0 -79 46 -90q9 -1 9 -10v-9q0 -8 -9 -10q-46 -12 -46 -91v-223 q0 -58 -20 -83t-66 -25z" />
<glyph unicode="~" d="M315 250q-21 0 -42.5 6.5t-31 12t-31.5 18.5q-40 23 -71 23q-50 0 -76 -42q-5 -10 -14 -4l-4 2q-8 5 -4 14q31 59 97 59q39 0 83 -27q55 -34 95 -34q21 0 35 10t30 31q6 8 12 3l4 -2l2 -1q8 -6 3 -14q-37 -55 -87 -55z" />
<glyph unicode="&#xa1;" horiz-adv-x="238" d="M118 708q15 0 26 -12.5t11 -31.5q0 -18 -11 -30.5t-26 -12.5t-26.5 12.5t-11.5 30.5q0 19 11 31.5t27 12.5zM106 482q0 10 10 10h7q10 0 10 -10l2 -459q0 -10 -10 -10h-10q-10 0 -10 10z" />
<glyph unicode="&#xa2;" horiz-adv-x="384" d="M337 467q0 -7 -10 -7h-10q-10 0 -10 7v6q0 39 -30.5 68.5t-77.5 29.5q-48 0 -78 -32.5t-30 -84.5v-227q0 -52 30 -84.5t78 -32.5q47 0 77.5 29.5t30.5 68.5v3q0 10 10 10h10q10 0 10 -6v-7q0 -47 -33.5 -83t-87.5 -42q-4 0 -4 -4l1 -69q0 -10 -10 -10h-9q-10 0 -10 10 l1 69q0 4 -4 4q-54 6 -87 45.5t-33 98.5v227q0 59 33 98.5t87 45.5q4 0 4 4l-1 69q0 10 10 10h9q10 0 10 -10l-1 -69q0 -4 4 -4q53 -6 87 -42.5t34 -82.5v-6z" />
<glyph unicode="&#xa3;" horiz-adv-x="495" d="M152 32q-3 -5 2 -5h290q10 0 10 -10v-7q0 -10 -10 -10h-322q-10 0 -10 10v9q0 7 6 12q19 15 31.5 52t12.5 83v151q0 4 -4 4h-60q-10 0 -10 10v6q0 10 10 10h60q4 0 4 4v173q0 83 37.5 131.5t103.5 52.5q106 6 140 -118q2 -10 -8 -12l-8 -2q-11 -2 -12 8q-25 101 -112 97 q-53 -3 -83 -44t-30 -112v-174q0 -4 4 -4h150q10 0 10 -10v-6q0 -10 -10 -10h-150q-4 0 -4 -4v-148q0 -93 -38 -137z" />
<glyph unicode="&#xa4;" horiz-adv-x="478" d="M422 300q0 -65 -42 -117q-3 -3 0 -6l64 -64q6 -7 -1 -14l-6 -5q-7 -6 -14 1l-63 62q-3 3 -6 1q-53 -42 -119 -42q-65 0 -113 39q-2 1 -6 -1l-61 -59q-7 -7 -14 -1l-6 5q-7 7 -1 14l61 60q3 3 0 6q-46 54 -46 121t43 118q3 3 0 6l-65 64q-7 6 1 14l6 5q7 7 14 0l64 -63 q4 -2 6 -1q51 43 117 43q70 0 123 -45q3 -3 6 0l66 66q7 7 14 0l6 -5q8 -8 1 -14l-68 -67q-3 -2 -1 -6q40 -50 40 -115zM77 300q0 -64 46.5 -110.5t111.5 -46.5q66 0 112 46t46 111t-46.5 111.5t-111.5 46.5t-111.5 -46t-46.5 -112z" />
<glyph unicode="&#xa5;" horiz-adv-x="519" d="M430 330q0 -10 -10 -10h-145q-4 0 -4 -4v-83q0 -4 4 -4h145q10 0 10 -10v-4q0 -10 -10 -10h-145q-4 0 -4 -4v-191q0 -10 -10 -10h-10q-10 0 -10 10v191q0 4 -4 4h-138q-10 0 -10 10v4q0 10 10 10h138q4 0 4 4v83q0 4 -4 4h-138q-10 0 -10 10v3q0 10 10 10h134q5 0 3 5 l-132 340q-5 12 7 12h11q8 0 11 -8l120 -322q1 -3 3 -3t3 3l119 322q3 8 11 8h11q13 0 8 -12l-132 -340q-2 -5 3 -5h141q10 0 10 -10v-3z" />
<glyph unicode="&#xa6;" horiz-adv-x="119" d="M54 385q-10 0 -10 10v355q0 10 10 10h10q10 0 10 -10v-355q0 -10 -10 -10h-10zM54 -80q-10 0 -10 10v345q0 10 10 10h10q10 0 10 -10v-345q0 -10 -10 -10h-10z" />
<glyph unicode="&#xa7;" horiz-adv-x="371" d="M190 -208q-54 0 -87.5 42.5t-33.5 110.5v12q0 10 10 10h10q10 0 10 -10v-11q1 -56 26 -91t65 -35q41 0 67.5 35t26.5 88q0 32 -10.5 56.5t-29.5 39.5t-34 22.5t-36 15.5q-25 10 -39 17t-30.5 23t-26.5 39q-17 39 -17 89t23 95q25 51 67 63q1 0 2 1t-2 2q-37 16 -60.5 57 t-23.5 96q0 64 34 106.5t88 42.5t87.5 -42.5t34.5 -110.5v-11q0 -10 -10 -10h-11q-10 0 -10 10v10q0 56 -25 91t-66 35q-42 0 -67 -35.5t-25 -90.5t27 -86t82 -53q1 -1 12 -5.5t16 -6.5t15 -8t16.5 -11.5t15 -14.5t14.5 -19q26 -43 26 -101q0 -55 -20 -97q-25 -51 -70 -62 q-4 -1 0 -4q36 -16 59.5 -54t23.5 -91q0 -64 -34.5 -106.5t-89.5 -42.5zM191 112q59 0 84 57q17 37 17 81q0 50 -25 88q-31 43 -79 43q-29 0 -50.5 -17.5t-31.5 -42.5q-14 -32 -14 -76q0 -43 15 -77q24 -56 84 -56z" />
<glyph unicode="&#xa8;" horiz-adv-x="221" d="M57 609q-13 0 -21.5 9.5t-8.5 23.5t8.5 23t21.5 9q12 0 20 -9t8 -23t-8 -23.5t-20 -9.5zM166 609q-13 0 -21.5 9.5t-8.5 23.5t8.5 23t21.5 9q12 0 20 -9t8 -23t-8 -23.5t-20 -9.5z" />
<glyph unicode="&#xa9;" horiz-adv-x="860" d="M429 -8q-153 0 -257 103.5t-104 251.5q0 152 104 256.5t257 104.5q155 0 259 -104.5t104 -256.5q0 -148 -104.5 -251.5t-258.5 -103.5zM429 17q142 0 239.5 96.5t97.5 233.5q0 141 -97 238.5t-240 97.5q-142 0 -239 -97.5t-97 -238.5q0 -137 97 -233.5t239 -96.5z M430 182q-35 0 -56.5 19.5t-21.5 52.5v185q0 32 21.5 51.5t56.5 19.5q36 0 57.5 -19.5t21.5 -51.5v-8q0 -10 -10 -10h-5q-10 0 -10 10v10q0 20 -15 33t-39 13t-38.5 -13t-14.5 -33v-189q0 -21 14.5 -33.5t38.5 -12.5t39 12.5t15 33.5v10q0 10 10 10h5q10 0 10 -9v-9 q0 -33 -21.5 -52.5t-57.5 -19.5z" />
<glyph unicode="&#xaa;" horiz-adv-x="266" d="M134 560h55q4 0 4 4v34q0 39 -17.5 62.5t-49.5 23.5q-23 0 -41.5 -14.5t-22.5 -37.5q-2 -11 -11 -9l-7 1q-10 2 -9 11q5 33 30.5 53t61.5 20q44 0 68.5 -29.5t24.5 -79.5v-218q0 -10 -10 -10h-7q-10 0 -10 10v21q0 8 -5 1q-25 -37 -76 -37q-35 0 -60 20.5t-25 70.5 q0 103 107 103zM115 390q32 0 55 20t23 58v65q0 4 -4 4h-54q-37 0 -59 -20t-22 -59q0 -68 61 -68zM25 305q0 10 10 10h190q10 0 10 -10v-5q0 -10 -10 -10h-190q-10 0 -10 10v5z" />
<glyph unicode="&#xab;" horiz-adv-x="480" d="M242 119q4 -5 2 -8.5t-8 -3.5h-7q-9 0 -13 6l-123 161q-5 7 0 14l123 161q4 6 13 6h7q6 0 8 -3.5t-2 -8.5l-122 -159q-2 -3 0 -6zM383 119q4 -5 2 -8.5t-8 -3.5h-7q-9 0 -13 6l-123 161q-5 7 0 14l123 161q4 6 13 6h7q6 0 8 -3.5t-2 -8.5l-122 -159q-1 -3 0 -6z" />
<glyph unicode="&#xac;" d="M397 334q10 0 10 -10v-6l-1 -10h-1v-113q0 -10 -10 -10h-8q-10 0 -10 10v109q0 4 -4 4h-326q-10 0 -10 10v6q0 10 10 10h350z" />
<glyph unicode="&#xad;" horiz-adv-x="303" d="M47 306q-10 0 -10 10v8q0 10 10 10h209q10 0 10 -10v-8q0 -10 -10 -10h-209z" />
<glyph unicode="&#xae;" horiz-adv-x="440" d="M220 716q80 0 136.5 -56t56.5 -135t-56.5 -135t-136.5 -56t-136.5 56t-56.5 135t56.5 135t136.5 56zM220 357q70 0 119 49t49 119q0 69 -49 118t-119 49t-119.5 -49t-49.5 -118q0 -70 49.5 -119t119.5 -49zM279 561q0 -33 -28 -45q-3 -1 -2 -5l28 -63q5 -12 -7 -12h-4 q-8 0 -11 8l-30 66q-1 3 -4 3h-22q-4 0 -4 -4v-63q0 -10 -10 -10h-2q-10 0 -10 10v155q0 10 10 10h47q22 0 35.5 -14t13.5 -36zM199 592q-4 0 -4 -4v-54q0 -4 4 -4h29q13 0 21 8.5t8 22.5t-8 22.5t-21 8.5h-29z" />
<glyph unicode="&#xaf;" horiz-adv-x="582" d="M203 603q-10 0 -10 10v6q0 10 10 10h173q10 0 10 -10v-6q0 -10 -10 -10h-173z" />
<glyph unicode="&#xb0;" horiz-adv-x="358" d="M179 500q-64 0 -108 44.5t-44 109.5t44 109.5t108 44.5t108 -44.5t44 -109.5t-44 -109.5t-108 -44.5zM179 526q53 0 89 37t36 91t-36 91t-89 37t-89 -37t-36 -91t36 -91t89 -37z" />
<glyph unicode="&#xb1;" d="M235 345q0 -4 4 -4h158q10 0 10 -10v-6q0 -10 -10 -10h-158q-4 0 -4 -4v-158q0 -10 -10 -10h-6q-10 0 -10 10v158q0 4 -4 4h-158q-10 0 -10 10v6q0 10 10 10h158q4 0 4 4v158q0 10 10 10h6q10 0 10 -10v-158zM47 38q-10 0 -10 10v6q0 10 10 10h350q10 0 10 -10v-6 q0 -10 -10 -10h-350z" />
<glyph unicode="&#xb2;" horiz-adv-x="232" d="M36 457q-10 0 -10 10v7q0 7 3 13q21 35 58.5 98.5t45.5 76.5q39 70 39 118q0 35 -16.5 56t-44.5 21q-26 0 -41.5 -21t-15.5 -55v-18q0 -10 -10 -10h-8q-10 0 -10 10v18q0 46 24 73.5t63 27.5t63 -27.5t24 -74.5q0 -55 -41 -129q-36 -65 -94 -165q-3 -5 3 -5h135 q10 0 10 -10v-4q0 -10 -10 -10h-167z" />
<glyph unicode="&#xb3;" horiz-adv-x="252" d="M198 647q8 -30 8 -65q0 -42 -11 -72q-21 -58 -81 -58q-35 0 -58.5 23t-30.5 60q-3 18 -3 36q0 10 10 10h8q10 0 10 -10q0 -12 2 -28q5 -31 21 -48.5t41 -17.5q39 0 55 42q11 28 11 65q0 34 -7 58q-14 53 -59 53q-6 0 -9 -1q-9 -1 -14 4l-2 2q-5 7 -1 14l81 134q3 5 -3 5 h-132q-10 0 -10 10v4q0 10 10 10h159q10 0 10 -10v-7q0 -7 -3 -13l-76 -125q-2 -5 2 -5q54 -3 72 -70z" />
<glyph unicode="&#xb4;" horiz-adv-x="158" d="M41 580q-14 0 -7 12l62 111q5 7 12 7h9q14 0 7 -12l-65 -111q-5 -7 -12 -7h-6z" />
<glyph unicode="&#xb5;" horiz-adv-x="417" d="M313 491q0 10 10 10h10q10 0 10 -10v-481q0 -10 -10 -10h-10q-10 0 -10 10v40q0 3 -1.5 3.5t-3.5 -2.5q-31 -58 -105 -58q-61 0 -94 37q-5 5 -5 -2v-218q0 -10 -10 -10h-10q-10 0 -10 10v681q0 10 10 10h11q10 0 10 -10v-346q0 -124 102 -124q49 0 77.5 36t28.5 99v335z " />
<glyph unicode="&#xb6;" d="M199 700h147q10 0 10 -10v-880q0 -10 -10 -10h-6q-10 0 -10 10v859q0 4 -4 4h-97q-4 0 -4 -4v-859q0 -10 -10 -10h-8q-10 0 -10 10v436q0 4 -4 4q-68 3 -110 67t-42 158q0 95 44 160t114 65z" />
<glyph unicode="&#xb7;" horiz-adv-x="75" d="M37 6q-16 0 -26.5 13t-10.5 31t11 30.5t26 12.5t26.5 -12.5t11.5 -30.5t-11.5 -31t-26.5 -13z" />
<glyph unicode="&#xb8;" horiz-adv-x="103" d="M10 -180q-9 1 -7 12v1q0 2 2 4q2 8 11 5q53 -10 60 42t-40 104q-4 4 -4 8t5 4h6q7 0 10 -3l4 -4q56 -50 45 -117q-6 -38 -33 -50.5t-59 -5.5z" />
<glyph unicode="&#xb9;" horiz-adv-x="138" d="M67 873q8 4 13 4h11q10 0 10 -10v-400q0 -10 -10 -10h-8q-10 0 -10 10v375q0 6 -5 3l-22 -9q-12 -5 -12 6v3q0 7 7 12z" />
<glyph unicode="&#xba;" horiz-adv-x="272" d="M136 366q-43 0 -69 27t-26 70v148q0 43 26 70t69 27t69 -27t26 -70v-148q0 -43 -26 -70t-69 -27zM136 390q30 0 49 20.5t19 53.5v146q0 32 -19 53t-49 21t-49 -21t-19 -53v-146q0 -33 19 -53.5t49 -20.5zM41 290q-10 0 -10 10v5q0 10 10 10h190q10 0 10 -10v-5 q0 -10 -10 -10h-190z" />
<glyph unicode="&#xbb;" horiz-adv-x="480" d="M103 107q-6 0 -8 3.5t2 8.5l122 159q1 3 0 6l-122 159q-4 5 -2 8.5t8 3.5h7q9 0 13 -6l123 -161q5 -7 0 -14l-123 -161q-4 -6 -13 -6h-7zM244 107q-6 0 -8 3.5t2 8.5l122 159q2 3 0 6l-122 159q-4 5 -2 8.5t8 3.5h7q9 0 13 -6l123 -161q5 -7 0 -14l-123 -161 q-4 -6 -13 -6h-7z" />
<glyph unicode="&#xbc;" horiz-adv-x="630" d="M83 280q-10 0 -10 10v375q0 5 -5 3l-22 -9q-12 -5 -12 6v3q0 7 7 12l26 16q8 4 13 4h11q10 0 10 -10v-400q0 -10 -10 -10h-8zM516 693q5 7 12 7h6q13 0 6 -12l-443 -681q-5 -7 -12 -7h-6q-13 0 -6 12zM605 143q10 0 10 -10v-5q0 -10 -10 -10h-13q-4 0 -4 -4v-104 q0 -10 -10 -10h-6q-10 0 -10 10v104q0 4 -4 4h-127q-10 0 -10 10v6q0 4 2 12l91 266q3 8 12 8h9q11 0 8 -11l-89 -261q-2 -5 3 -5h101q4 0 4 4v96q0 10 10 10h6q10 0 10 -10v-96q0 -4 4 -4h13z" />
<glyph unicode="&#xbd;" horiz-adv-x="648" d="M83 280q-10 0 -10 10v375q0 5 -5 3l-22 -9q-12 -5 -12 6v3q0 7 7 12l26 16q8 4 13 4h11q10 0 10 -10v-400q0 -10 -10 -10h-8zM516 693q5 7 12 7h6q13 0 6 -12l-443 -681q-5 -7 -12 -7h-6q-13 0 -6 12zM481 29q-3 -5 3 -5h135q10 0 10 -10v-4q0 -10 -10 -10h-167 q-10 0 -10 10v7q0 7 3 13q21 35 58.5 98.5t45.5 76.5q39 71 39 118q0 35 -16.5 56t-44.5 21q-26 0 -41.5 -21t-15.5 -55v-18q0 -10 -10 -10h-8q-10 0 -10 10v18q0 46 24 73.5t63 27.5t63 -27.5t24 -74.5q0 -55 -41 -129q-36 -65 -94 -165z" />
<glyph unicode="&#xbe;" horiz-adv-x="695" d="M581 693q5 7 12 7h6q13 0 6 -12l-443 -681q-5 -7 -12 -7h-6q-13 0 -6 12zM195 330q-21 -58 -81 -58q-35 0 -58.5 23t-30.5 60q-3 18 -3 36q0 10 10 10h8q10 0 10 -10q0 -12 2 -28q5 -31 21 -48.5t41 -17.5q39 0 55 42q11 28 11 65q0 34 -7 58q-14 53 -59 53q-6 0 -9 -1 q-9 -1 -14 4l-2 2q-5 7 -1 14l81 134q3 5 -3 5h-132q-10 0 -10 10v4q0 10 10 10h159q10 0 10 -10v-7q0 -7 -3 -13l-76 -125q-2 -5 2 -5q56 -5 72 -70q8 -30 8 -65q0 -42 -11 -72zM670 143q10 0 10 -10v-5q0 -10 -10 -10h-13q-4 0 -4 -4v-104q0 -10 -10 -10h-6q-10 0 -10 10 v104q0 4 -4 4h-127q-10 0 -10 10v6q0 4 2 12l91 266q3 8 12 8h9q11 0 8 -11l-89 -261q-3 -5 3 -5h101q4 0 4 4v96q0 10 10 10h6q10 0 10 -10v-96q0 -4 4 -4h13z" />
<glyph unicode="&#xbf;" horiz-adv-x="330" d="M177 495q15 0 25.5 -12.5t10.5 -30.5t-11 -30.5t-25 -12.5q-15 0 -26 12.5t-11 30.5t11 30.5t26 12.5zM185 313q10 0 10 -10v-74q0 -34 -13 -61t-32 -47t-38 -40.5t-32 -53t-13 -73.5q0 -61 27 -98t71 -37q45 0 73 37t28 97v38q0 10 10 10h10q10 0 10 -10v-38 q0 -73 -36 -117.5t-95 -44.5q-58 0 -93 45t-35 120q0 47 13 83t31.5 58t37 41t31.5 42t13 50v73q0 10 10 10h12z" />
<glyph unicode="&#xc0;" horiz-adv-x="428" d="M222 791q7 -12 -7 -12h-6q-7 0 -12 7l-65 111q-7 12 7 12h9q7 0 12 -7zM366 0q-10 0 -11 9l-30 139q0 4 -5 4h-212q-5 0 -5 -4l-30 -139q-1 -9 -11 -9h-10q-11 0 -9 11l152 680q1 9 11 9h14q9 0 11 -9l154 -680q2 -11 -8 -11h-11zM111 183q-2 -4 4 -4h198q6 0 4 4 l-101 457q-2 8 -4 0z" />
<glyph unicode="&#xc1;" horiz-adv-x="428" d="M268 909q14 0 7 -12l-65 -111q-5 -7 -12 -7h-6q-14 0 -7 12l62 111q5 7 12 7h9zM366 0q-10 0 -11 9l-30 139q0 4 -5 4h-212q-5 0 -5 -4l-30 -139q-1 -9 -11 -9h-10q-11 0 -9 11l152 680q1 9 11 9h14q9 0 11 -9l154 -680q2 -11 -8 -11h-11zM111 183q-2 -4 4 -4h198 q6 0 4 4l-101 457q-2 8 -4 0z" />
<glyph unicode="&#xc2;" horiz-adv-x="428" d="M217 858q-1 2 -3 2t-3 -2l-51 -82q-5 -7 -12 -7h-15q-13 0 -6 12l65 101q5 7 12 7h18q8 0 12 -6l67 -102q7 -12 -6 -12h-15q-7 0 -12 7zM366 0q-10 0 -11 9l-30 139q0 4 -5 4h-212q-5 0 -5 -4l-30 -139q-1 -9 -11 -9h-10q-11 0 -9 11l152 680q1 9 11 9h14q9 0 11 -9 l154 -680q2 -11 -8 -11h-11zM111 183q-2 -4 4 -4h198q6 0 4 4l-101 457q-2 8 -4 0z" />
<glyph unicode="&#xc3;" horiz-adv-x="428" d="M174 847q-30 0 -49 -28q-6 -9 -14 -3l-3 2q-8 5 -3 14q27 41 68 41q22 0 55 -23q32 -22 47 -22q27 0 47 31q5 10 14 4l3 -2q9 -5 4 -13q-26 -47 -70 -47q-22 0 -53 24q-29 22 -46 22zM366 0q-10 0 -11 9l-30 139q0 4 -5 4h-212q-5 0 -5 -4l-30 -139q-1 -9 -11 -9h-10 q-11 0 -9 11l152 680q1 9 11 9h14q9 0 11 -9l154 -680q2 -11 -8 -11h-11zM111 183q-2 -4 4 -4h198q6 0 4 4l-101 457q-2 8 -4 0z" />
<glyph unicode="&#xc4;" horiz-adv-x="428" d="M160 808q-13 0 -21.5 9.5t-8.5 23.5t8.5 23t21.5 9q12 0 20 -9t8 -23t-8 -23.5t-20 -9.5zM269 808q-13 0 -21.5 9.5t-8.5 23.5t8.5 23t21.5 9q12 0 20 -9t8 -23t-8 -23.5t-20 -9.5zM366 0q-10 0 -11 9l-30 139q0 4 -5 4h-212q-5 0 -5 -4l-30 -139q-1 -9 -11 -9h-10 q-11 0 -9 11l152 680q1 9 11 9h14q9 0 11 -9l154 -680q2 -11 -8 -11h-11zM111 183q-2 -4 4 -4h198q6 0 4 4l-101 457q-2 8 -4 0z" />
<glyph unicode="&#xc5;" horiz-adv-x="428" d="M214 778q-40 0 -67.5 28.5t-27.5 69.5t27.5 69.5t67.5 28.5t67.5 -28.5t27.5 -69.5t-27.5 -69.5t-67.5 -28.5zM214 950q-29 0 -50 -21.5t-21 -52.5t21 -52.5t50 -21.5t50 21.5t21 52.5t-21 52.5t-50 21.5zM366 0q-10 0 -11 9l-30 139q0 4 -5 4h-212q-5 0 -5 -4l-30 -139 q-1 -9 -11 -9h-10q-11 0 -9 11l152 680q1 9 11 9h14q9 0 11 -9l154 -680q2 -11 -8 -11h-11zM111 183q-2 -4 4 -4h198q6 0 4 4l-101 457q-2 8 -4 0z" />
<glyph unicode="&#xc6;" horiz-adv-x="697" d="M648 682q0 -10 -10 -10h-243q-4 0 -4 -4v-300q0 -4 4 -4h160q10 0 10 -10v-7q0 -10 -10 -10h-160q-4 0 -4 -4v-301q0 -4 4 -4h243q10 0 10 -10v-8q0 -10 -10 -10h-268q-10 0 -10 10v138q0 4 -4 4h-214q-2 0 -4 -3l-64 -141q-3 -8 -11 -8h-9q-13 0 -8 12l306 680q3 8 11 8 h275q10 0 10 -10v-8zM153 184q-3 -5 3 -5h200q4 0 4 4l1 456q0 2 -1 3q-3 1 -4 -2z" />
<glyph unicode="&#xc7;" horiz-adv-x="435" d="M374 530q0 -10 -10 -10l-11 -1q-10 0 -10 10v23q0 58 -34 93t-89 35t-88.5 -35t-33.5 -93v-403q0 -58 33.5 -93.5t88.5 -35.5t89 35.5t34 93.5v22q0 9 10 9l11 -1q10 0 10 -10v-18q0 -67 -36 -109t-98 -48q-6 -2 -1 -5q52 -50 41 -115q-6 -38 -33 -50.5t-59 -5.5 q-9 1 -7 12v1q0 2 2 4q2 8 11 5q53 -10 60 42q8 54 -44 108q-2 2 -5 2q-62 5 -99.5 48t-37.5 111v399q0 72 42 115t110 43q70 0 112 -43t42 -115v-20z" />
<glyph unicode="&#xc8;" horiz-adv-x="424" d="M240 801q7 -12 -7 -12h-6q-7 0 -12 7l-65 111q-7 12 7 12h9q7 0 12 -7zM376 682q0 -10 -10 -10h-244q-4 0 -4 -4v-300q0 -4 4 -4h160q10 0 10 -10v-7q0 -10 -10 -10h-160q-4 0 -4 -4v-301q0 -4 4 -4h244q10 0 10 -10v-8q0 -10 -10 -10h-268q-10 0 -10 10v680q0 10 10 10 h268q10 0 10 -10v-8z" />
<glyph unicode="&#xc9;" horiz-adv-x="424" d="M286 919q14 0 7 -12l-65 -111q-5 -7 -12 -7h-6q-14 0 -7 12l62 111q5 7 12 7h9zM376 682q0 -10 -10 -10h-244q-4 0 -4 -4v-300q0 -4 4 -4h160q10 0 10 -10v-7q0 -10 -10 -10h-160q-4 0 -4 -4v-301q0 -4 4 -4h244q10 0 10 -10v-8q0 -10 -10 -10h-268q-10 0 -10 10v680 q0 10 10 10h268q10 0 10 -10v-8z" />
<glyph unicode="&#xca;" horiz-adv-x="424" d="M235 868q-1 2 -3 2t-3 -2l-51 -82q-5 -7 -12 -7h-15q-13 0 -6 12l65 101q5 7 12 7h18q8 0 12 -6l67 -102q7 -12 -6 -12h-15q-7 0 -12 7zM376 682q0 -10 -10 -10h-244q-4 0 -4 -4v-300q0 -4 4 -4h160q10 0 10 -10v-7q0 -10 -10 -10h-160q-4 0 -4 -4v-301q0 -4 4 -4h244 q10 0 10 -10v-8q0 -10 -10 -10h-268q-10 0 -10 10v680q0 10 10 10h268q10 0 10 -10v-8z" />
<glyph unicode="&#xcb;" horiz-adv-x="424" d="M178 818q-13 0 -21.5 9.5t-8.5 23.5t8.5 23t21.5 9q12 0 20 -9t8 -23t-8 -23.5t-20 -9.5zM287 818q-13 0 -21.5 9.5t-8.5 23.5t8.5 23t21.5 9q12 0 20 -9t8 -23t-8 -23.5t-20 -9.5zM376 682q0 -10 -10 -10h-244q-4 0 -4 -4v-300q0 -4 4 -4h160q10 0 10 -10v-7 q0 -10 -10 -10h-160q-4 0 -4 -4v-301q0 -4 4 -4h244q10 0 10 -10v-8q0 -10 -10 -10h-268q-10 0 -10 10v680q0 10 10 10h268q10 0 10 -10v-8z" />
<glyph unicode="&#xcc;" horiz-adv-x="206" d="M111 801q7 -12 -7 -12h-6q-7 0 -12 7l-65 111q-7 12 7 12h9q7 0 12 -7zM98 0q-10 0 -10 10v680q0 10 10 10h10q10 0 10 -10v-680q0 -10 -10 -10h-10z" />
<glyph unicode="&#xcd;" horiz-adv-x="206" d="M81 789q-14 0 -7 12l62 111q5 7 12 7h9q14 0 7 -12l-65 -111q-5 -7 -12 -7h-6zM98 0q-10 0 -10 10v680q0 10 10 10h10q10 0 10 -10v-680q0 -10 -10 -10h-10z" />
<glyph unicode="&#xce;" horiz-adv-x="206" d="M22 779q-13 0 -6 12l65 101q5 7 12 7h18q7 0 12 -6l67 -102q7 -12 -6 -12h-15q-7 0 -12 7l-51 82q-1 2 -3 2t-3 -2l-51 -82q-5 -7 -12 -7h-15zM98 0q-10 0 -10 10v680q0 10 10 10h10q10 0 10 -10v-680q0 -10 -10 -10h-10z" />
<glyph unicode="&#xcf;" horiz-adv-x="206" d="M49 818q-13 0 -21.5 9.5t-8.5 23.5t8.5 23t21.5 9q12 0 20 -9t8 -23t-8 -23.5t-20 -9.5zM158 818q-13 0 -21.5 9.5t-8.5 23.5t8.5 23t21.5 9q12 0 20 -9t8 -23t-8 -23.5t-20 -9.5zM98 0q-10 0 -10 10v680q0 10 10 10h10q10 0 10 -10v-680q0 -10 -10 -10h-10z" />
<glyph unicode="&#xd0;" horiz-adv-x="510" d="M286 700q69 0 109.5 -48.5t40.5 -132.5v-338q0 -84 -40.5 -132.5t-109.5 -48.5h-137q-10 0 -10 10v339q0 4 -4 4h-37q-10 0 -10 10v5q0 10 10 10h37q4 0 4 4v308q0 10 10 10h137zM405 181v337q0 72 -31.5 113t-86.5 41h-114q-4 0 -4 -4v-286q0 -4 4 -4h95q10 0 10 -10v-5 q0 -10 -10 -10h-95q-4 0 -4 -4v-317q0 -4 4 -4h114q54 0 86 41t32 112z" />
<glyph unicode="&#xd1;" horiz-adv-x="481" d="M300 811q-22 0 -53 24q-29 22 -46 22q-30 0 -49 -28q-6 -9 -14 -3l-3 2q-7 5 -3 14q27 41 68 41q22 0 55 -23q32 -22 47 -22q27 0 47 31q5 10 14 4l3 -2q10 -6 0 -20q-25 -40 -66 -40zM98 0q-10 0 -10 10v680q0 10 10 10h12q8 0 11 -8l238 -608q1 -3 3 -2.5t2 3.5v605 q0 10 10 10h10q10 0 10 -10v-680q0 -10 -10 -10h-13q-8 0 -11 8l-237 608q-1 3 -3 2.5t-2 -3.5v-605q0 -10 -10 -10h-10z" />
<glyph unicode="&#xd2;" horiz-adv-x="446" d="M230 790q7 -12 -7 -12h-6q-7 0 -12 7l-65 111q-7 12 7 12h9q7 0 12 -7zM222 -8q-68 0 -111 44.5t-43 116.5v393q0 72 43 117t111 45q69 0 112.5 -45t43.5 -117v-393q0 -72 -43.5 -116.5t-112.5 -44.5zM222 20q56 0 91 36.5t35 94.5v397q0 58 -35 95t-91 37 q-55 0 -89.5 -37t-34.5 -95v-397q0 -58 34.5 -94.5t89.5 -36.5z" />
<glyph unicode="&#xd3;" horiz-adv-x="446" d="M200 778q-14 0 -7 12l62 111q5 7 12 7h9q14 0 7 -12l-65 -111q-5 -7 -12 -7h-6zM222 -8q-68 0 -111 44.5t-43 116.5v393q0 72 43 117t111 45q69 0 112.5 -45t43.5 -117v-393q0 -72 -43.5 -116.5t-112.5 -44.5zM222 20q56 0 91 36.5t35 94.5v397q0 58 -35 95t-91 37 q-55 0 -89.5 -37t-34.5 -95v-397q0 -58 34.5 -94.5t89.5 -36.5z" />
<glyph unicode="&#xd4;" horiz-adv-x="446" d="M141 768q-13 0 -6 12l65 101q5 7 12 7h18q8 0 12 -6l67 -102q7 -12 -6 -12h-15q-7 0 -12 7l-51 82q-1 1 -3 1t-3 -1l-51 -82q-5 -7 -12 -7h-15zM222 -8q-68 0 -111 44.5t-43 116.5v393q0 72 43 117t111 45q69 0 112.5 -45t43.5 -117v-393q0 -72 -43.5 -116.5 t-112.5 -44.5zM222 20q56 0 91 36.5t35 94.5v397q0 58 -35 95t-91 37q-55 0 -89.5 -37t-34.5 -95v-397q0 -58 34.5 -94.5t89.5 -36.5z" />
<glyph unicode="&#xd5;" horiz-adv-x="446" d="M281 800q-22 0 -53 24q-29 22 -46 22q-30 0 -49 -28q-6 -9 -14 -3l-3 2q-8 5 -3 14q27 41 68 41q22 0 55 -23q32 -22 47 -22q27 0 47 31q5 10 14 4l3 -2q10 -6 0 -20q-25 -40 -66 -40zM222 -8q-68 0 -111 44.5t-43 116.5v393q0 72 43 117t111 45q69 0 112.5 -45 t43.5 -117v-393q0 -72 -43.5 -116.5t-112.5 -44.5zM222 20q56 0 91 36.5t35 94.5v397q0 58 -35 95t-91 37q-55 0 -89.5 -37t-34.5 -95v-397q0 -58 34.5 -94.5t89.5 -36.5z" />
<glyph unicode="&#xd6;" horiz-adv-x="446" d="M168 807q-13 0 -21.5 9.5t-8.5 23.5t8.5 23t21.5 9q12 0 20 -9t8 -23t-8 -23.5t-20 -9.5zM277 807q-13 0 -21.5 9.5t-8.5 23.5t8.5 23t21.5 9q12 0 20 -9t8 -23t-8 -23.5t-20 -9.5zM222 -8q-68 0 -111 44.5t-43 116.5v393q0 72 43 117t111 45q69 0 112.5 -45t43.5 -117 v-393q0 -72 -43.5 -116.5t-112.5 -44.5zM222 20q56 0 91 36.5t35 94.5v397q0 58 -35 95t-91 37q-55 0 -89.5 -37t-34.5 -95v-397q0 -58 34.5 -94.5t89.5 -36.5z" />
<glyph unicode="&#xd7;" horiz-adv-x="353" d="M310 441q7 -7 0 -14l-112 -112q-3 -3 0 -6l112 -111q7 -7 0 -14l-5 -5q-7 -7 -14 0l-111 112q-3 3 -6 0l-112 -112q-7 -7 -14 0l-4 5q-6 8 0 14l111 111q3 3 0 6l-111 112q-7 7 0 14l4 4q7 7 14 0l112 -111q3 -3 6 0l111 111q7 7 14 0z" />
<glyph unicode="&#xd8;" horiz-adv-x="472" d="M392 740q13 0 8 -12l-35 -86q-2 -3 1 -6q23 -38 23 -90v-393q0 -72 -43.5 -116.5t-112.5 -44.5q-64 0 -106 40q-4 2 -6 -2l-21 -53q-3 -8 -11 -8h-9q-12 0 -7 12l30 75q2 3 -1 6q-23 38 -23 91v393q0 72 43 117t111 45q67 0 108 -41q4 -4 6 1l26 64q3 8 11 8h8zM109 151 q0 -27 7 -48q4 -7 6 0l210 526q1 2 -1 6q-35 45 -98 45q-55 0 -89.5 -37t-34.5 -95v-397zM359 548q0 27 -7 47q-1 2 -2.5 2t-2.5 -2l-210 -526q-1 -3 1 -5q35 -44 95 -44q56 0 91 36.5t35 94.5v397z" />
<glyph unicode="&#xd9;" horiz-adv-x="474" d="M244 801q7 -12 -7 -12h-6q-7 0 -12 7l-65 111q-7 12 7 12h9q7 0 12 -7zM236 -8q-70 0 -112.5 51t-42.5 134v513q0 10 10 10h10q10 0 10 -10v-517q0 -69 34.5 -111t90.5 -42q57 0 92 42t35 111v517q0 10 10 10h10q10 0 10 -10v-513q0 -83 -43 -134t-114 -51z" />
<glyph unicode="&#xda;" horiz-adv-x="474" d="M214 789q-14 0 -7 12l62 111q5 7 12 7h9q14 0 7 -12l-65 -111q-5 -7 -12 -7h-6zM236 -8q-70 0 -112.5 51t-42.5 134v513q0 10 10 10h10q10 0 10 -10v-517q0 -69 34.5 -111t90.5 -42q57 0 92 42t35 111v517q0 10 10 10h10q10 0 10 -10v-513q0 -83 -43 -134t-114 -51z" />
<glyph unicode="&#xdb;" horiz-adv-x="474" d="M155 779q-13 0 -6 12l65 101q5 7 12 7h18q8 0 12 -6l67 -102q7 -12 -6 -12h-15q-7 0 -12 7l-51 82q-1 2 -3 2t-3 -2l-51 -82q-5 -7 -12 -7h-15zM236 -8q-70 0 -112.5 51t-42.5 134v513q0 10 10 10h10q10 0 10 -10v-517q0 -69 34.5 -111t90.5 -42q57 0 92 42t35 111v517 q0 10 10 10h10q10 0 10 -10v-513q0 -83 -43 -134t-114 -51z" />
<glyph unicode="&#xdc;" horiz-adv-x="474" d="M182 818q-13 0 -21.5 9.5t-8.5 23.5t8.5 23t21.5 9q12 0 20 -9t8 -23t-8 -23.5t-20 -9.5zM291 818q-13 0 -21.5 9.5t-8.5 23.5t8.5 23t21.5 9q12 0 20 -9t8 -23t-8 -23.5t-20 -9.5zM236 -8q-70 0 -112.5 51t-42.5 134v513q0 10 10 10h10q10 0 10 -10v-517 q0 -69 34.5 -111t90.5 -42q57 0 92 42t35 111v517q0 10 10 10h10q10 0 10 -10v-513q0 -83 -43 -134t-114 -51z" />
<glyph unicode="&#xdd;" horiz-adv-x="395" d="M176 779q-14 0 -7 12l62 111q5 7 12 7h9q14 0 7 -12l-65 -111q-5 -7 -12 -7h-6zM193 0q-10 0 -10 10v322q0 4 -1 5l-137 351q-5 12 8 12h11q8 0 11 -8l120 -322q1 -3 3 -3t3 3l119 322q3 8 11 8h11q13 0 8 -12l-136 -351q-1 -1 -1 -5v-322q0 -10 -10 -10h-10z" />
<glyph unicode="&#xde;" horiz-adv-x="429" d="M240 535q67 0 107.5 -50.5t40.5 -133.5q0 -82 -40.5 -132t-106.5 -50h-119q-4 0 -4 -4v-155q0 -10 -10 -10h-10q-10 0 -10 10v680q0 10 10 10h10q10 0 10 -10v-151q0 -4 4 -4h118zM239 196q53 0 86 42.5t33 112.5t-33 113t-86 43h-117q-4 0 -4 -4v-303q0 -4 4 -4h117z " />
<glyph unicode="&#xdf;" horiz-adv-x="412" d="M84 0q-10 0 -10 10v515q0 86 35 135t97 49q64 0 101.5 -48.5t39.5 -133.5q1 -60 -17.5 -101.5t-52.5 -57.5q-5 -2 0 -5q75 -41 75 -175q0 -88 -40 -138t-112 -50h-43q-10 0 -10 10v7q0 10 10 10l44 1q58 1 89.5 42.5t31.5 118.5t-26.5 120t-76.5 45h-44q-10 0 -10 10v7 q0 10 10 10h45q48 0 73 38t24 108q-2 73 -31 113.5t-80 40.5q-48 0 -75 -40t-27 -114v-517q0 -10 -10 -10h-10z" />
<glyph unicode="&#xe0;" horiz-adv-x="392" d="M201 600q7 -12 -7 -12h-6q-7 0 -12 7l-65 111q-7 12 7 12h9q7 0 12 -7zM197 509q64 0 99 -45t35 -121v-333q0 -10 -10 -10h-10q-10 0 -10 10v45q0 3 -1.5 3.5t-3.5 -2.5q-38 -64 -123 -64q-52 0 -87.5 30.5t-35.5 105.5q0 80 43 119t115 39h89q4 0 4 4v55q0 62 -27 99 t-78 37q-40 0 -70 -24.5t-34 -63.5q0 -9 -10 -9l-11 1q-11 0 -9 10q5 51 43.5 82.5t91.5 31.5zM178 20q50 0 86.5 32t36.5 92v111q0 4 -4 4h-88q-59 0 -94 -33t-35 -97q0 -56 27 -82.5t71 -26.5z" />
<glyph unicode="&#xe1;" horiz-adv-x="392" d="M247 718q14 0 7 -12l-65 -111q-5 -7 -12 -7h-6q-14 0 -7 12l62 111q5 7 12 7h9zM197 509q64 0 99 -45t35 -121v-333q0 -10 -10 -10h-10q-10 0 -10 10v45q0 3 -1.5 3.5t-3.5 -2.5q-38 -64 -123 -64q-52 0 -87.5 30.5t-35.5 105.5q0 80 43 119t115 39h89q4 0 4 4v55 q0 62 -27 99t-78 37q-40 0 -70 -24.5t-34 -63.5q0 -9 -10 -9l-11 1q-11 0 -9 10q5 51 43.5 82.5t91.5 31.5zM178 20q50 0 86.5 32t36.5 92v111q0 4 -4 4h-88q-59 0 -94 -33t-35 -97q0 -56 27 -82.5t71 -26.5z" />
<glyph unicode="&#xe2;" horiz-adv-x="392" d="M196 667q-1 1 -3 1t-3 -1l-51 -82q-5 -7 -12 -7h-15q-13 0 -6 12l65 101q5 7 12 7h18q7 0 12 -6l67 -102q7 -12 -6 -12h-15q-7 0 -12 7zM197 509q64 0 99 -45t35 -121v-333q0 -10 -10 -10h-10q-10 0 -10 10v45q0 3 -1.5 3.5t-3.5 -2.5q-38 -64 -123 -64q-52 0 -87.5 30.5 t-35.5 105.5q0 80 43 119t115 39h89q4 0 4 4v55q0 62 -27 99t-78 37q-40 0 -70 -24.5t-34 -63.5q0 -9 -10 -9l-11 1q-11 0 -9 10q5 51 43.5 82.5t91.5 31.5zM178 20q50 0 86.5 32t36.5 92v111q0 4 -4 4h-88q-59 0 -94 -33t-35 -97q0 -56 27 -82.5t71 -26.5z" />
<glyph unicode="&#xe3;" horiz-adv-x="392" d="M153 656q-30 0 -49 -28q-6 -9 -14 -3l-3 2q-7 5 -3 14q27 41 68 41q22 0 55 -23q32 -22 47 -22q27 0 47 31q5 10 14 4l3 -2q9 -5 4 -13q-26 -47 -70 -47q-22 0 -53 24q-29 22 -46 22zM197 509q64 0 99 -45t35 -121v-333q0 -10 -10 -10h-10q-10 0 -10 10v45q0 3 -1.5 3.5 t-3.5 -2.5q-38 -64 -123 -64q-52 0 -87.5 30.5t-35.5 105.5q0 80 43 119t115 39h89q4 0 4 4v55q0 62 -27 99t-78 37q-40 0 -70 -24.5t-34 -63.5q0 -9 -10 -9l-11 1q-11 0 -9 10q5 51 43.5 82.5t91.5 31.5zM178 20q50 0 86.5 32t36.5 92v111q0 4 -4 4h-88q-59 0 -94 -33 t-35 -97q0 -56 27 -82.5t71 -26.5z" />
<glyph unicode="&#xe4;" horiz-adv-x="392" d="M139 617q-13 0 -21.5 9.5t-8.5 23.5t8.5 23t21.5 9q12 0 20 -9t8 -23t-8 -23.5t-20 -9.5zM248 617q-13 0 -21.5 9.5t-8.5 23.5t8.5 23t21.5 9q12 0 20 -9t8 -23t-8 -23.5t-20 -9.5zM197 509q64 0 99 -45t35 -121v-333q0 -10 -10 -10h-10q-10 0 -10 10v45q0 3 -1.5 3.5 t-3.5 -2.5q-38 -64 -123 -64q-52 0 -87.5 30.5t-35.5 105.5q0 80 43 119t115 39h89q4 0 4 4v55q0 62 -27 99t-78 37q-40 0 -70 -24.5t-34 -63.5q0 -9 -10 -9l-11 1q-11 0 -9 10q5 51 43.5 82.5t91.5 31.5zM178 20q50 0 86.5 32t36.5 92v111q0 4 -4 4h-88q-59 0 -94 -33 t-35 -97q0 -56 27 -82.5t71 -26.5z" />
<glyph unicode="&#xe5;" horiz-adv-x="392" d="M193 587q-40 0 -67.5 28.5t-27.5 69.5t27.5 69.5t67.5 28.5t67.5 -28.5t27.5 -69.5t-27.5 -69.5t-67.5 -28.5zM193 759q-29 0 -50 -21.5t-21 -52.5t21 -52.5t50 -21.5t50 21.5t21 52.5t-21 52.5t-50 21.5zM197 509q64 0 99 -45t35 -121v-333q0 -10 -10 -10h-10 q-10 0 -10 10v45q0 3 -1.5 3.5t-3.5 -2.5q-38 -64 -123 -64q-52 0 -87.5 30.5t-35.5 105.5q0 80 43 119t115 39h89q4 0 4 4v55q0 62 -27 99t-78 37q-40 0 -70 -24.5t-34 -63.5q0 -9 -10 -9l-11 1q-11 0 -9 10q5 51 43.5 82.5t91.5 31.5zM178 20q50 0 86.5 32t36.5 92v111 q0 4 -4 4h-88q-59 0 -94 -33t-35 -97q0 -56 27 -82.5t71 -26.5z" />
<glyph unicode="&#xe6;" horiz-adv-x="633" d="M173 -8q-52 0 -87.5 30t-35.5 105q0 149 157 149h90q4 0 4 4v65q0 62 -27 99t-78 37q-40 0 -70 -24.5t-34 -63.5q-2 -11 -11 -9l-11 1q-10 2 -9 11q5 51 44 82t91 31q85 0 118 -78q2 -6 4 0q16 36 48 57t74 21q61 0 100 -41t39 -104v-104q0 -10 -10 -10h-233q-4 0 -4 -4 v-109q0 -51 30 -84t78 -33q39 0 67 23t38 60q3 9 11 9h10q12 0 9 -11q-11 -49 -47 -79t-87 -30q-45 0 -79 23.5t-47 62.5q-2 8 -4 0q-16 -43 -53 -64.5t-85 -21.5zM332 280q0 -4 4 -4h209q4 0 4 4v84q0 52 -30.5 84.5t-78.5 32.5t-78 -32.5t-30 -84.5v-84zM178 19 q50 0 86.5 32t36.5 92v102q0 4 -4 4h-88q-129 0 -129 -121q0 -56 27 -82.5t71 -26.5z" />
<glyph unicode="&#xe7;" horiz-adv-x="384" d="M337 377q0 -7 -10 -7h-10q-10 0 -10 7v6q0 39 -30.5 68.5t-77.5 29.5q-48 0 -78 -32.5t-30 -84.5v-227q0 -52 30 -84.5t78 -32.5q47 0 77.5 29.5t30.5 68.5v3q0 10 10 10h10q10 0 10 -6v-7q0 -46 -33 -82t-85 -42q-6 -2 -1 -5q52 -50 41 -115q-6 -38 -33 -50.5t-59 -5.5 q-9 1 -7 12v1q0 2 2 4q2 8 11 5q53 -10 60 42q8 54 -44 108q-2 2 -5 2q-55 5 -89 45t-34 100v227q0 63 38.5 104t99.5 41q60 0 99 -37.5t39 -88.5v-6z" />
<glyph unicode="&#xe8;" horiz-adv-x="391" d="M207 600q7 -12 -7 -12h-6q-7 0 -12 7l-65 111q-7 12 7 12h9q7 0 12 -7zM337 254q0 -10 -10 -10h-232q-4 0 -4 -4v-103q0 -52 30 -84.5t78 -32.5q39 0 67 22.5t37 60.5q3 9 11 9h10q12 0 9 -11q-10 -49 -46 -79t-88 -30q-61 0 -99.5 40.5t-38.5 104.5v227q0 63 38.5 104 t99.5 41t99.5 -41t38.5 -104v-110zM199 481q-48 0 -78 -32.5t-30 -84.5v-90q0 -4 4 -4h208q4 0 4 4v90q0 52 -30 84.5t-78 32.5z" />
<glyph unicode="&#xe9;" horiz-adv-x="391" d="M253 718q14 0 7 -12l-65 -111q-5 -7 -12 -7h-6q-14 0 -7 12l62 111q5 7 12 7h9zM337 254q0 -10 -10 -10h-232q-4 0 -4 -4v-103q0 -52 30 -84.5t78 -32.5q39 0 67 22.5t37 60.5q3 9 11 9h10q12 0 9 -11q-10 -49 -46 -79t-88 -30q-61 0 -99.5 40.5t-38.5 104.5v227 q0 63 38.5 104t99.5 41t99.5 -41t38.5 -104v-110zM199 481q-48 0 -78 -32.5t-30 -84.5v-90q0 -4 4 -4h208q4 0 4 4v90q0 52 -30 84.5t-78 32.5z" />
<glyph unicode="&#xea;" horiz-adv-x="391" d="M202 667q-1 1 -3 1t-3 -1l-51 -82q-5 -7 -12 -7h-15q-13 0 -6 12l65 101q5 7 12 7h18q7 0 12 -6l67 -102q7 -12 -6 -12h-15q-7 0 -12 7zM337 254q0 -10 -10 -10h-232q-4 0 -4 -4v-103q0 -52 30 -84.5t78 -32.5q39 0 67 22.5t37 60.5q3 9 11 9h10q12 0 9 -11 q-10 -49 -46 -79t-88 -30q-61 0 -99.5 40.5t-38.5 104.5v227q0 63 38.5 104t99.5 41t99.5 -41t38.5 -104v-110zM199 481q-48 0 -78 -32.5t-30 -84.5v-90q0 -4 4 -4h208q4 0 4 4v90q0 52 -30 84.5t-78 32.5z" />
<glyph unicode="&#xeb;" horiz-adv-x="391" d="M145 617q-13 0 -21.5 9.5t-8.5 23.5t8.5 23t21.5 9q12 0 20 -9t8 -23t-8 -23.5t-20 -9.5zM254 617q-13 0 -21.5 9.5t-8.5 23.5t8.5 23t21.5 9q12 0 20 -9t8 -23t-8 -23.5t-20 -9.5zM337 254q0 -10 -10 -10h-232q-4 0 -4 -4v-103q0 -52 30 -84.5t78 -32.5q39 0 67 22.5 t37 60.5q3 9 11 9h10q12 0 9 -11q-10 -49 -46 -79t-88 -30q-61 0 -99.5 40.5t-38.5 104.5v227q0 63 38.5 104t99.5 41t99.5 -41t38.5 -104v-110zM199 481q-48 0 -78 -32.5t-30 -84.5v-90q0 -4 4 -4h208q4 0 4 4v90q0 52 -30 84.5t-78 32.5z" />
<glyph unicode="&#xec;" horiz-adv-x="170" d="M92 601q7 -12 -7 -12h-6q-7 0 -12 7l-65 111q-7 12 7 12h9q7 0 12 -7zM79 0q-10 0 -10 10v481q0 10 10 10h10q10 0 10 -10v-481q0 -10 -10 -10h-10z" />
<glyph unicode="&#xed;" horiz-adv-x="170" d="M62 589q-14 0 -7 12l62 111q5 7 12 7h9q14 0 7 -12l-65 -111q-5 -7 -12 -7h-6zM79 0q-10 0 -10 10v481q0 10 10 10h10q10 0 10 -10v-481q0 -10 -10 -10h-10z" />
<glyph unicode="&#xee;" horiz-adv-x="170" d="M3 579q-13 0 -6 12l65 101q5 7 12 7h18q8 0 12 -6l67 -102q7 -12 -6 -12h-15q-7 0 -12 7l-51 82q-1 2 -3 2t-3 -2l-51 -82q-5 -7 -12 -7h-15zM79 0q-10 0 -10 10v481q0 10 10 10h10q10 0 10 -10v-481q0 -10 -10 -10h-10z" />
<glyph unicode="&#xef;" horiz-adv-x="170" d="M30 618q-13 0 -21.5 9.5t-8.5 23.5t8.5 23t21.5 9q12 0 20 -9t8 -23t-8 -23.5t-20 -9.5zM139 618q-13 0 -21.5 9.5t-8.5 23.5t8.5 23t21.5 9q12 0 20 -9t8 -23t-8 -23.5t-20 -9.5zM79 0q-10 0 -10 10v481q0 10 10 10h10q10 0 10 -10v-481q0 -10 -10 -10h-10z" />
<glyph unicode="&#xf0;" horiz-adv-x="422" d="M279 607q-3 -2 -2 -5q56 -96 60 -240v-33v-40v-39v-113q0 -64 -38.5 -104.5t-99.5 -40.5t-99.5 40.5t-38.5 104.5v225q0 63 38 104t98 41t99 -42q3 -2 4 1q-8 66 -47 130q-2 4 -5 2l-70 -24q-9 -3 -12 5q-1 1 -1 3l-1 1q-3 10 7 13l62 21q4 2 2 5q-28 38 -59 66 q-5 4 -4 8t7 4h9q7 0 10 -3l4 -4q36 -32 58 -64q2 -4 5 -2l80 27q10 3 13 -7l1 -3q2 -9 -7 -12zM307 362q0 52 -30 84.5t-78 32.5t-78 -32.5t-30 -84.5v-225q0 -52 30 -84.5t78 -32.5t78 32.5t30 84.5v225z" />
<glyph unicode="&#xf1;" horiz-adv-x="411" d="M177 655q-24 0 -40 -27q-5 -9 -12 -4l-2 1h-1q-8 5 -3 14q23 42 57 42q17 0 46 -23q26 -22 39 -22q22 0 38 30q5 10 14 5l1 -1q8 -6 4 -14q-21 -47 -59 -47q-18 0 -44 24q-24 22 -38 22zM217 508q60 0 93 -40t33 -111v-347q0 -10 -10 -10h-10q-10 0 -10 10v343 q0 60 -27 93.5t-75 33.5q-50 0 -78.5 -36t-28.5 -99v-335q0 -10 -10 -10h-10q-10 0 -10 10v481q0 10 10 10h10q10 0 10 -10v-47q1 -4 5 -1q33 65 108 65z" />
<glyph unicode="&#xf2;" horiz-adv-x="398" d="M207 600q7 -12 -7 -12h-6q-7 0 -12 7l-65 111q-7 12 7 12h9q7 0 12 -7zM199 -8q-61 0 -99.5 40.5t-38.5 104.5v227q0 63 38.5 104t99.5 41t99.5 -41t38.5 -104v-227q0 -64 -38.5 -104.5t-99.5 -40.5zM199 20q48 0 78 32.5t30 84.5v227q0 52 -30 84.5t-78 32.5t-78 -32.5 t-30 -84.5v-227q0 -52 30 -84.5t78 -32.5z" />
<glyph unicode="&#xf3;" horiz-adv-x="398" d="M177 588q-14 0 -7 12l62 111q5 7 12 7h9q14 0 7 -12l-65 -111q-5 -7 -12 -7h-6zM199 -8q-61 0 -99.5 40.5t-38.5 104.5v227q0 63 38.5 104t99.5 41t99.5 -41t38.5 -104v-227q0 -64 -38.5 -104.5t-99.5 -40.5zM199 20q48 0 78 32.5t30 84.5v227q0 52 -30 84.5t-78 32.5 t-78 -32.5t-30 -84.5v-227q0 -52 30 -84.5t78 -32.5z" />
<glyph unicode="&#xf4;" horiz-adv-x="398" d="M118 578q-13 0 -6 12l65 101q5 7 12 7h18q7 0 12 -6l67 -102q7 -12 -6 -12h-15q-7 0 -12 7l-51 82q-1 1 -3 1t-3 -1l-51 -82q-5 -7 -12 -7h-15zM199 -8q-61 0 -99.5 40.5t-38.5 104.5v227q0 63 38.5 104t99.5 41t99.5 -41t38.5 -104v-227q0 -64 -38.5 -104.5t-99.5 -40.5 zM199 20q48 0 78 32.5t30 84.5v227q0 52 -30 84.5t-78 32.5t-78 -32.5t-30 -84.5v-227q0 -52 30 -84.5t78 -32.5z" />
<glyph unicode="&#xf5;" horiz-adv-x="398" d="M258 610q-22 0 -53 24q-29 22 -46 22q-30 0 -49 -28q-6 -9 -14 -3l-3 2q-7 5 -3 14q27 41 68 41q22 0 55 -23q32 -22 47 -22q27 0 47 31q5 10 14 4l3 -2q10 -6 0 -20q-25 -40 -66 -40zM199 -8q-61 0 -99.5 40.5t-38.5 104.5v227q0 63 38.5 104t99.5 41t99.5 -41 t38.5 -104v-227q0 -64 -38.5 -104.5t-99.5 -40.5zM199 20q48 0 78 32.5t30 84.5v227q0 52 -30 84.5t-78 32.5t-78 -32.5t-30 -84.5v-227q0 -52 30 -84.5t78 -32.5z" />
<glyph unicode="&#xf6;" horiz-adv-x="398" d="M145 617q-13 0 -21.5 9.5t-8.5 23.5t8.5 23t21.5 9q12 0 20 -9t8 -23t-8 -23.5t-20 -9.5zM254 617q-13 0 -21.5 9.5t-8.5 23.5t8.5 23t21.5 9q12 0 20 -9t8 -23t-8 -23.5t-20 -9.5zM199 -8q-61 0 -99.5 40.5t-38.5 104.5v227q0 63 38.5 104t99.5 41t99.5 -41t38.5 -104 v-227q0 -64 -38.5 -104.5t-99.5 -40.5zM199 20q48 0 78 32.5t30 84.5v227q0 52 -30 84.5t-78 32.5t-78 -32.5t-30 -84.5v-227q0 -52 30 -84.5t78 -32.5z" />
<glyph unicode="&#xf7;" d="M221 434q-18 0 -30.5 12.5t-12.5 30.5q0 17 13 29.5t30 12.5t30.5 -12.5t13.5 -29.5q0 -18 -13 -30.5t-31 -12.5zM47 320q-10 0 -10 10v6q0 10 10 10h350q10 0 10 -10v-6q0 -10 -10 -10h-350zM221 149q-18 0 -30.5 12.5t-12.5 30.5q0 17 13 29.5t30 12.5t30.5 -12.5 t13.5 -29.5q0 -18 -13 -30.5t-31 -12.5z" />
<glyph unicode="&#xf8;" horiz-adv-x="401" d="M310 462q-1 -2 1 -6q28 -37 28 -92v-227q0 -64 -38.5 -104.5t-99.5 -40.5q-48 0 -82 25q-4 3 -6 -1l-12 -29q-3 -9 -13 -4l-6 3q-8 5 -5 13l17 38q1 2 -1 6q-30 38 -30 94v227q0 63 38.5 104t99.5 41q47 0 83 -26q4 -3 6 1l15 35q3 10 13 5l7 -4q8 -5 5 -13zM93 137 q0 -33 13 -59q4 -6 6 0l163 371q1 3 -2 5q-29 27 -72 27q-48 0 -78 -32.5t-30 -84.5v-227zM309 364q0 31 -11 56q-4 6 -6 0l-163 -369q-1 -3 1 -5q28 -26 71 -26q48 0 78 32.5t30 84.5v227z" />
<glyph unicode="&#xf9;" horiz-adv-x="411" d="M209 592q7 -12 -7 -12h-6q-7 0 -12 7l-65 111q-7 12 7 12h9q7 0 12 -7zM306 491q0 10 10 10h10q10 0 10 -10v-481q0 -10 -10 -10h-10q-10 0 -10 10v40q0 3 -2 3.5t-3 -2.5q-31 -58 -105 -58q-60 0 -94 36.5t-34 108.5v353q0 10 10 10h10q10 0 10 -10v-346 q0 -124 102 -124q49 0 77.5 36t28.5 99v335z" />
<glyph unicode="&#xfa;" horiz-adv-x="411" d="M255 710q14 0 7 -12l-65 -111q-5 -7 -12 -7h-6q-14 0 -7 12l62 111q5 7 12 7h9zM306 491q0 10 10 10h10q10 0 10 -10v-481q0 -10 -10 -10h-10q-10 0 -10 10v40q0 3 -2 3.5t-3 -2.5q-31 -58 -105 -58q-60 0 -94 36.5t-34 108.5v353q0 10 10 10h10q10 0 10 -10v-346 q0 -124 102 -124q49 0 77.5 36t28.5 99v335z" />
<glyph unicode="&#xfb;" horiz-adv-x="411" d="M204 659q-1 1 -3 1t-3 -1l-51 -82q-5 -7 -12 -7h-15q-13 0 -6 12l65 101q5 7 12 7h18q7 0 12 -6l67 -102q7 -12 -6 -12h-15q-7 0 -12 7zM306 491q0 10 10 10h10q10 0 10 -10v-481q0 -10 -10 -10h-10q-10 0 -10 10v40q0 3 -2 3.5t-3 -2.5q-31 -58 -105 -58q-60 0 -94 36.5 t-34 108.5v353q0 10 10 10h10q10 0 10 -10v-346q0 -124 102 -124q49 0 77.5 36t28.5 99v335z" />
<glyph unicode="&#xfc;" horiz-adv-x="411" d="M147 609q-13 0 -21.5 9.5t-8.5 23.5t8.5 23t21.5 9q12 0 20 -9t8 -23t-8 -23.5t-20 -9.5zM256 609q-13 0 -21.5 9.5t-8.5 23.5t8.5 23t21.5 9q12 0 20 -9t8 -23t-8 -23.5t-20 -9.5zM306 491q0 10 10 10h10q10 0 10 -10v-481q0 -10 -10 -10h-10q-10 0 -10 10v40 q0 3 -2 3.5t-3 -2.5q-31 -58 -105 -58q-60 0 -94 36.5t-34 108.5v353q0 10 10 10h10q10 0 10 -10v-346q0 -124 102 -124q49 0 77.5 36t28.5 99v335z" />
<glyph unicode="&#xfd;" horiz-adv-x="335" d="M146 580q-14 0 -7 12l62 111q5 7 12 7h9q14 0 7 -12l-65 -111q-5 -7 -12 -7h-6zM47 -200q-6 0 -6 10v7q0 10 6 10h5q41 1 58 31t42 139v6l-129 487q-3 11 9 11h11q9 0 11 -9l112 -444q2 -8 4 0l111 444q1 9 11 9h11q12 0 9 -11l-143 -549q-24 -90 -46.5 -115.5 t-70.5 -25.5h-5z" />
<glyph unicode="&#xfe;" horiz-adv-x="403" d="M342 365q0 -19 0.5 -57.5t0.5 -56.5q0 -19 -0.5 -57t-0.5 -58q-2 -64 -38.5 -104t-95.5 -40q-71 0 -105 58q-3 3 -5 -1v-239q0 -10 -10 -10h-10q-10 0 -10 10v880q0 10 10 10h10q10 0 10 -10v-238q1 -4 5 -1q34 58 104 58q60 0 97 -40t38 -104zM312 136q0 19 0.5 58 t0.5 56q0 39 -2 115q0 52 -30.5 84t-77.5 32q-46 0 -74.5 -32t-29.5 -84q-1 -37 -1 -112v-4q0 -76 1 -113q1 -52 29.5 -84t74.5 -32q48 0 78 32t31 84z" />
<glyph unicode="&#xff;" horiz-adv-x="335" d="M114 609q-13 0 -21.5 9.5t-8.5 23.5t8.5 23t21.5 9q12 0 20 -9t8 -23t-8 -23.5t-20 -9.5zM223 609q-13 0 -21.5 9.5t-8.5 23.5t8.5 23t21.5 9q12 0 20 -9t8 -23t-8 -23.5t-20 -9.5zM47 -200q-6 0 -6 10v7q0 10 6 10h5q41 1 58 31t42 139v6l-129 487q-3 11 9 11h11 q9 0 11 -9l112 -444q2 -8 4 0l111 444q1 9 11 9h11q12 0 9 -11l-143 -549q-24 -90 -46.5 -115.5t-70.5 -25.5h-5z" />
<glyph unicode="&#x152;" horiz-adv-x="684" d="M636 682q0 -10 -10 -10h-244q-4 0 -4 -4v-300q0 -4 4 -4h161q10 0 10 -10v-7q0 -10 -10 -10h-161q-4 0 -4 -4v-301q0 -4 4 -4h244q10 0 10 -10v-8q0 -10 -10 -10h-268q-10 0 -10 10v43q0 3 -2 3.5t-3 -1.5q-41 -63 -123 -63q-67 0 -109.5 44.5t-42.5 116.5v393 q0 72 42.5 117t109.5 45q82 0 123 -63q3 -2 5 2v43q0 10 10 10h268q10 0 10 -10v-8zM222 20q56 0 91 36.5t35 94.5v397q0 58 -35 95t-91 37q-55 0 -89.5 -37t-34.5 -95v-397q0 -58 34.5 -94.5t89.5 -36.5z" />
<glyph unicode="&#x153;" horiz-adv-x="639" d="M585 256q0 -10 -10 -10h-233q-4 0 -4 -4v-42v-13.5v-16v-14.5v-19q0 -52 30.5 -84.5t77.5 -32.5q39 0 67 22.5t38 60.5q3 9 11 9h10q12 0 9 -11q-11 -49 -47 -79t-88 -30q-86 0 -120 77q-3 5 -6 0q-16 -36 -47.5 -56.5t-73.5 -20.5q-61 0 -99.5 40.5t-38.5 104.5v227 q0 63 38.5 104t99.5 41q42 0 73.5 -20.5t47.5 -56.5q3 -4 6 0q34 77 120 77q62 0 100.5 -41t38.5 -104v-108zM307 364q0 52 -30 84.5t-78 32.5t-78 -32.5t-30 -84.5v-227q0 -52 30 -84.5t78 -32.5t78 32.5t30 84.5v227zM446 481q-47 0 -77.5 -32.5t-30.5 -84.5v-19v-44v-27 q0 -4 4 -4h209q4 0 4 4v90q0 52 -30 84.5t-79 32.5z" />
<glyph unicode="&#x178;" horiz-adv-x="395" d="M144 808q-13 0 -21.5 9.5t-8.5 23.5t8.5 23t21.5 9q12 0 20 -9t8 -23t-8 -23.5t-20 -9.5zM253 808q-13 0 -21.5 9.5t-8.5 23.5t8.5 23t21.5 9q12 0 20 -9t8 -23t-8 -23.5t-20 -9.5zM193 0q-10 0 -10 10v322q0 4 -1 5l-137 351q-5 12 8 12h11q8 0 11 -8l120 -322 q1 -3 3 -3t3 3l119 322q3 8 11 8h11q13 0 8 -12l-136 -351q-1 -1 -1 -5v-322q0 -10 -10 -10h-10z" />
<glyph unicode="&#x2c6;" horiz-adv-x="190" d="M14 570q-13 0 -6 12l65 101q5 7 12 7h18q7 0 12 -6l67 -102q7 -12 -6 -12h-15q-7 0 -12 7l-51 82q-1 1 -3 1t-3 -1l-51 -82q-5 -7 -12 -7h-15z" />
<glyph unicode="&#x2dc;" horiz-adv-x="302" d="M200 602q-22 0 -53 24q-29 22 -46 22q-30 0 -49 -28q-6 -9 -14 -3l-3 2q-7 5 -3 14q27 41 68 41q22 0 55 -23q32 -22 47 -22q27 0 47 31q5 10 14 4l3 -2q10 -6 0 -20q-25 -40 -66 -40z" />
<glyph unicode="&#x2000;" horiz-adv-x="487" />
<glyph unicode="&#x2001;" horiz-adv-x="974" />
<glyph unicode="&#x2002;" horiz-adv-x="487" />
<glyph unicode="&#x2003;" horiz-adv-x="974" />
<glyph unicode="&#x2004;" horiz-adv-x="324" />
<glyph unicode="&#x2005;" horiz-adv-x="243" />
<glyph unicode="&#x2006;" horiz-adv-x="162" />
<glyph unicode="&#x2007;" horiz-adv-x="162" />
<glyph unicode="&#x2008;" horiz-adv-x="121" />
<glyph unicode="&#x2009;" horiz-adv-x="194" />
<glyph unicode="&#x200a;" horiz-adv-x="54" />
<glyph unicode="&#x2010;" horiz-adv-x="303" d="M47 306q-10 0 -10 10v8q0 10 10 10h209q10 0 10 -10v-8q0 -10 -10 -10h-209z" />
<glyph unicode="&#x2011;" horiz-adv-x="303" d="M47 306q-10 0 -10 10v8q0 10 10 10h209q10 0 10 -10v-8q0 -10 -10 -10h-209z" />
<glyph unicode="&#x2012;" horiz-adv-x="303" d="M47 306q-10 0 -10 10v8q0 10 10 10h209q10 0 10 -10v-8q0 -10 -10 -10h-209z" />
<glyph unicode="&#x2013;" horiz-adv-x="367" d="M47 268q-10 0 -10 10v8q0 10 10 10h273q10 0 10 -10v-8q0 -10 -10 -10h-273z" />
<glyph unicode="&#x2014;" horiz-adv-x="592" d="M47 268q-10 0 -10 10v8q0 10 10 10h498q10 0 10 -10v-8q0 -10 -10 -10h-498z" />
<glyph unicode="&#x2018;" horiz-adv-x="85" d="M12 508q-11 0 -8 11l53 173q3 8 12 8h4q12 0 9 -11l-47 -172q-2 -9 -11 -9h-12z" />
<glyph unicode="&#x2019;" horiz-adv-x="85" d="M73 700q11 0 8 -11l-53 -173q-3 -8 -12 -8h-4q-12 0 -9 11l47 172q2 9 11 9h12z" />
<glyph unicode="&#x201a;" horiz-adv-x="600" d="M52 -68q-11 0 -9 11l37 201q2 9 11 9h8q11 0 9 -11l-40 -201q-2 -9 -11 -9h-5z" />
<glyph unicode="&#x201c;" horiz-adv-x="191" d="M12 508q-11 0 -8 11l61 173q3 8 12 8h5q11 0 8 -11l-54 -173q-3 -8 -12 -8h-12zM109 508q-11 0 -8 11l61 173q3 8 12 8h5q11 0 8 -11l-53 -173q-3 -8 -12 -8h-13z" />
<glyph unicode="&#x201d;" horiz-adv-x="191" d="M82 700q11 0 8 -11l-61 -173q-3 -8 -12 -8h-5q-11 0 -8 11l53 173q3 8 12 8h13zM179 700q11 0 8 -11l-61 -173q-3 -8 -12 -8h-5q-11 0 -8 11l54 173q3 8 12 8h12z" />
<glyph unicode="&#x201e;" horiz-adv-x="173" d="M82 127q11 0 8 -11l-61 -173q-3 -8 -12 -8h-5q-11 0 -8 11l53 173q3 8 12 8h13zM179 127q11 0 8 -11l-61 -173q-3 -8 -12 -8h-5q-11 0 -8 11l54 173q3 8 12 8h12z" />
<glyph unicode="&#x2022;" horiz-adv-x="288" d="M145 154q-44 0 -76 32t-32 76t32 75t76 31t75 -31t31 -75t-31.5 -76t-74.5 -32z" />
<glyph unicode="&#x2026;" horiz-adv-x="579" d="M86 6q-16 0 -26.5 13t-10.5 31t11 30.5t26 12.5t26.5 -12.5t11.5 -30.5t-11.5 -31t-26.5 -13zM289 6q-16 0 -26.5 13t-10.5 31t11 30.5t26 12.5t26.5 -12.5t11.5 -30.5t-11.5 -31t-26.5 -13zM492 6q-16 0 -26.5 13t-10.5 31t11 30.5t26 12.5t26.5 -12.5t11.5 -30.5 t-11.5 -31t-26.5 -13z" />
<glyph unicode="&#x202f;" horiz-adv-x="194" />
<glyph unicode="&#x2039;" horiz-adv-x="319" d="M222 119q4 -5 2 -8.5t-8 -3.5h-7q-9 0 -13 6l-123 161q-5 7 0 14l123 161q4 6 13 6h7q6 0 8 -3.5t-2 -8.5l-122 -159q-2 -3 0 -6z" />
<glyph unicode="&#x203a;" horiz-adv-x="339" d="M103 107q-6 0 -8 3.5t2 8.5l122 159q1 3 0 6l-122 159q-4 5 -2 8.5t8 3.5h7q9 0 13 -6l123 -161q5 -7 0 -14l-123 -161q-4 -6 -13 -6h-7z" />
<glyph unicode="&#x205f;" horiz-adv-x="243" />
<glyph unicode="&#x20ac;" horiz-adv-x="478" d="M277 20q46 0 75.5 31t33.5 83q0 5 3 8t7 2l11 -2q10 -2 9 -11q-5 -64 -42.5 -101.5t-96.5 -37.5q-62 0 -100.5 43.5t-38.5 115.5v123q0 4 -4 4h-56q-10 0 -10 10v5q0 10 10 10h56q4 0 4 4v82q0 4 -4 4h-56q-10 0 -10 10v5q0 10 10 10h56q4 0 4 4v128q0 72 38 115t101 43 q59 0 96.5 -37t42.5 -101q1 -10 -8 -12l-12 -2q-4 -1 -7 2t-3 8q-4 52 -33.5 83t-75.5 31q-49 0 -79 -35t-30 -93v-130q0 -4 4 -4h186q12 0 7 -12l-3 -6q-3 -7 -11 -7h-179q-4 0 -4 -4v-82q0 -4 4 -4h155q12 0 7 -12l-3 -6q-3 -7 -12 -7h-147q-4 0 -4 -4v-125 q0 -58 30 -93.5t79 -35.5z" />
<glyph unicode="&#x2122;" horiz-adv-x="499" d="M29 677q-10 0 -10 10v3q0 10 10 10h165q10 0 10 -10v-3q0 -10 -10 -10h-68q-4 0 -4 -4v-314q0 -10 -10 -10h-6q-10 0 -10 10v314q0 4 -4 4h-63zM425 693q3 7 12 7h8q10 0 10 -10v-331q0 -10 -10 -10h-6q-10 0 -10 10v279q-1 4 -5 1l-55 -117q-3 -7 -8 -7q-7 0 -10 7 l-55 117q-3 3 -5 -1v-279q0 -10 -10 -10h-7q-10 0 -10 10v331q0 10 10 10h8q9 0 12 -7l62 -132q1 -2 3 -2t3 2z" />
<glyph unicode="&#x25fc;" horiz-adv-x="500" d="M0 500h500v-500h-500v500z" />
</font>
</defs>
</svg>
