<?xml version="1.0" standalone="no"?>
<!DOCTYPE svg PUBLIC "-//W3C//DTD SVG 1.1//EN" "http://www.w3.org/Graphics/SVG/1.1/DTD/svg11.dtd" >
<svg xmlns="http://www.w3.org/2000/svg" xmlns:xlink="http://www.w3.org/1999/xlink" version="1.1">
<metadata></metadata>
<defs>
<font id="barlow_condenseditalic" horiz-adv-x="410" >
<font-face units-per-em="1000" ascent="800" descent="-200" />
<missing-glyph horiz-adv-x="194" />
<glyph horiz-adv-x="0" />
<glyph horiz-adv-x="333" />
<glyph unicode="&#xd;" horiz-adv-x="194" />
<glyph unicode=" "  horiz-adv-x="194" />
<glyph unicode="&#x09;" horiz-adv-x="194" />
<glyph unicode="&#xa0;" horiz-adv-x="194" />
<glyph unicode="!" horiz-adv-x="247" d="M113 228q-9 0 -8 10l50 452q0 10 10 10h50q10 0 8 -10l-61 -452q-1 -10 -11 -10h-38zM103 4q-23 0 -36 17t-10 42q3 24 21.5 41.5t39.5 17.5t35 -17.5t11 -41.5q-3 -25 -20.5 -42t-40.5 -17z" />
<glyph unicode="&#x22;" horiz-adv-x="228" d="M79 488q-9 0 -8 10l15 186q2 10 11 10h48q11 0 9 -10l-31 -186q-1 -10 -11 -10h-33zM194 488q-10 0 -9 10l16 186q2 10 11 10h49q10 0 8 -10l-30 -186q-1 -10 -11 -10h-34z" />
<glyph unicode="#" horiz-adv-x="571" d="M552 439q0 -10 -10 -10h-62q-5 0 -5 -4l-42 -159q0 -4 3 -4h53q9 0 9 -10l-6 -42q0 -10 -11 -10h-63q-5 0 -5 -4l-45 -171q-3 -9 -11 -9l-49 2q-10 0 -8 11l44 167q0 4 -2 4h-142q-5 0 -5 -4l-45 -171q-3 -9 -11 -9l-49 2q-5 0 -7 3.5t-1 7.5l44 167q0 4 -3 4h-55 q-10 0 -8 10l5 42q2 10 11 10h64q5 0 5 4l42 159q0 4 -2 4h-57q-10 0 -8 10l5 43q2 10 11 10h66q5 0 5 4l46 171q1 9 10 9l50 -2q4 0 6 -3.5t1 -7.5l-44 -167q0 -4 3 -4h141q5 0 6 4l45 171q3 9 11 9l49 -2q11 0 7 -11l-44 -167q0 -4 3 -4h52q9 0 9 -10zM358 262q5 0 5 4 l42 159q2 4 -2 4h-141q-5 0 -5 -4l-42 -159q0 -4 2 -4h141z" />
<glyph unicode="$" horiz-adv-x="413" d="M375 173q-9 -75 -53 -123.5t-108 -56.5q-4 0 -4 -4l-7 -61q-2 -10 -11 -10h-28q-11 0 -9 10l9 62q0 4 -3 5q-58 10 -88.5 57t-21.5 117l3 24q2 10 11 10h48q9 0 9 -10l-3 -21q-7 -54 15 -86t64 -32q41 0 71.5 31t37.5 82q4 34 -9.5 62.5t-29 43.5t-58.5 52 q-33 28 -50.5 44.5t-37 43.5t-26 57.5t-1.5 68.5q9 70 49.5 114t100.5 52q4 1 4 5l8 68q0 10 10 10h29q10 0 8 -10l-9 -67q0 -4 3 -4q62 -9 93 -57t22 -123l-3 -25q-2 -10 -11 -10h-49q-10 0 -8 10l3 26q7 53 -15 85.5t-64 32.5q-40 0 -68 -28.5t-35 -80.5q-6 -45 13.5 -75 t78.5 -79q53 -45 75.5 -68.5t36.5 -59.5t8 -82z" />
<glyph unicode="%" horiz-adv-x="758" d="M238 425q-56 0 -90.5 41.5t-27.5 100.5t52 100.5t101 41.5t90.5 -41.5t27.5 -100.5t-52 -100.5t-101 -41.5zM163 0q-6 0 -7.5 3.5t1.5 8.5l439 681q4 7 13 7h31q6 0 7.5 -3.5t-1.5 -8.5l-440 -681q-3 -7 -12 -7h-31zM244 467q38 0 68.5 29.5t35.5 70.5q5 42 -18 71 t-62 29t-69.5 -29t-35.5 -71t18 -71t63 -29zM533 -9q-56 0 -90.5 41.5t-27.5 101.5q8 59 52.5 100t100.5 41t90.5 -41t27.5 -100q-7 -60 -52 -101.5t-101 -41.5zM539 33q38 0 68.5 29.5t35.5 71.5q5 41 -18.5 70t-61.5 29q-39 0 -69.5 -29t-35.5 -70q-5 -43 18 -72t63 -29z " />
<glyph unicode="&#x26;" horiz-adv-x="534" d="M469 12q3 -5 0.5 -8.5t-7.5 -3.5h-53q-7 0 -11 6q-30 56 -33 60q-2 3 -6 1q-79 -76 -169 -76q-75 0 -113.5 43t-28.5 122q8 68 45.5 117t98.5 96q3 1 1 5q-41 77 -51 109.5t-5 70.5q8 70 51.5 112t106.5 42q64 0 99 -42.5t26 -110.5q-5 -43 -28.5 -81.5t-47.5 -61 t-64 -54.5q-4 -2 -2 -5q6 -12 22 -40t25 -45q22 -41 50 -88q3 -3 6 0q5 6 57 81q5 10 14 4l34 -22q7 -5 1 -14q-41 -62 -76 -106q-2 -4 -1 -5q10 -18 59 -106zM289 643q-33 0 -56 -24.5t-27 -66.5q-4 -28 3 -53t36 -83q3 -4 6 -1q45 37 70 68.5t30 71.5q5 39 -12.5 63.5 t-49.5 24.5zM206 53q61 3 125 68q2 4 1 6l-39 68l-67 117q0 3 -5 0q-46 -39 -72.5 -74t-31.5 -80q-5 -48 18 -77t71 -28z" />
<glyph unicode="'" horiz-adv-x="115" d="M80 493q-9 0 -9 10l15 185q2 10 11 10h52q10 0 8 -10l-30 -185q-1 -10 -11 -10h-36z" />
<glyph unicode="(" horiz-adv-x="215" d="M62 -104q-8 0 -11 7q-28 76 -37.5 183t4.5 239q15 126 53 240t87 191q4 7 12 7h48q13 0 6 -11q-98 -186 -128 -426q-13 -131 -5.5 -236t30.5 -182q3 -12 -10 -12h-49z" />
<glyph unicode=")" horiz-adv-x="215" d="M102 -97q-6 -7 -13 -7h-49q-12 0 -7 12q98 178 127 418q30 246 -23 426q-4 11 9 11h48q7 0 10 -7q30 -77 40 -187t-5 -244q-31 -249 -137 -422z" />
<glyph unicode="*" horiz-adv-x="350" d="M191 394q-9 0 -9 10l16 120q1 6 -4 3l-105 -61q-9 -6 -13 4l-9 22q-3 8 5 14l106 61q2 1 2 3t-1 3l-91 61q-8 5 -2 14l15 24q7 10 14 4l89 -62q5 -2 6 3l13 119q2 10 11 10h25q11 0 9 -10l-15 -119q0 -2 1.5 -3t3.5 0l103 62q10 5 13 -4l10 -24q4 -9 -5 -14l-106 -61 q-1 -1 -1.5 -3t0.5 -3l91 -61q8 -6 2 -14l-16 -24q-5 -9 -14 -4l-88 63q-5 5 -5 -3l-15 -120q-2 -10 -11 -10h-25z" />
<glyph unicode="+" horiz-adv-x="429" d="M411 346q9 0 9 -10l-5 -35q0 -10 -11 -10h-142q-3 0 -5 -4l-18 -147q0 -10 -11 -10h-35q-10 0 -8 10l18 147q0 4 -3 4h-143q-10 0 -8 10l4 35q2 10 11 10h142q5 0 5 4l18 147q2 10 11 10h35q10 0 8 -10l-18 -147q0 -4 3 -4h143z" />
<glyph unicode="," horiz-adv-x="172" d="M17 -79q-4 0 -6 3.5t-1 7.5l56 214q3 9 11 9h44q10 0 7 -11l-70 -214q-2 -9 -11 -9h-30z" />
<glyph unicode="-" horiz-adv-x="304" d="M56 280q-9 0 -9 10l5 42q2 10 11 10h222q11 0 9 -10l-5 -42q-2 -10 -11 -10h-222z" />
<glyph unicode="." horiz-adv-x="202" d="M80 3q-22 0 -35 17t-10 42q3 24 20.5 41.5t38.5 17.5q22 0 36 -17t11 -42q-4 -25 -21.5 -42t-39.5 -17z" />
<glyph unicode="/" horiz-adv-x="292" d="M14 0q-13 0 -8 11l259 680q4 9 12 9h49q12 0 7 -11l-259 -680q-4 -9 -12 -9h-48z" />
<glyph unicode="0" horiz-adv-x="400" d="M178 -10q-74 0 -113 49.5t-29 129.5l45 362q10 80 61 129.5t125 49.5t114 -49.5t30 -129.5l-45 -362q-10 -80 -62 -129.5t-126 -49.5zM186 52q43 0 73.5 31t37.5 82l45 370q6 51 -17 82t-66 31t-73 -31t-36 -82l-45 -370q-7 -51 15.5 -82t65.5 -31z" />
<glyph unicode="1" horiz-adv-x="241" d="M179 697q5 3 13 3h52q9 0 9 -10l-84 -680q-2 -10 -11 -10h-49q-11 0 -9 10l75 613q1 2 -0.5 3t-3.5 0l-85 -37q-5 -2 -8.5 0.5t-2.5 7.5l5 36q0 6 8 12z" />
<glyph unicode="2" horiz-adv-x="390" d="M29 0q-10 0 -8 10l5 45q2 9 5 13q141 189 204 282q75 108 84 182q7 52 -12.5 83t-57.5 31q-37 0 -63.5 -31t-31.5 -80l-5 -38q0 -10 -11 -10h-50q-9 0 -9 10l5 40q11 77 59.5 124t116.5 47q67 0 103 -48.5t26 -127.5q-12 -95 -95 -212q-46 -66 -181 -253q-3 -5 2 -5h226 q11 0 9 -10l-5 -42q-2 -10 -11 -10h-305z" />
<glyph unicode="3" horiz-adv-x="422" d="M380 309q5 -37 -3 -97q-6 -50 -16 -84q-17 -63 -64.5 -99.5t-112.5 -36.5q-67 0 -105.5 37t-40.5 101q-1 24 3 71q2 10 11 10h50q9 0 8 -10q-4 -42 -3 -58q3 -42 25 -65.5t60 -23.5q36 0 64 23t41 62q9 32 15 79q6 60 4 89q-4 38 -26 59.5t-57 21.5q-12 0 -26 -7 q-9 -3 -13 3l-22 25q-4 5 1 14l171 210q2 3 -2 5h-233q-10 0 -8 10l5 42q2 10 11 10h307q10 0 8 -10l-6 -45q0 -6 -5 -13l-147 -185q-3 -3 2 -5q46 -6 73.5 -44t30.5 -89z" />
<glyph unicode="4" horiz-adv-x="389" d="M370 256q10 0 8 -10l-5 -44q-2 -10 -11 -10h-30q-4 0 -4 -4l-22 -178q-2 -10 -11 -10h-50q-10 0 -8 10l22 178q0 4 -4 4h-220q-10 0 -8 10l4 38q2 8 4 12l199 440q5 8 13 8h53q12 0 7 -11l-193 -428q-2 -5 3 -5h146q3 0 5 4l18 153q2 10 11 10h50q10 0 8 -10l-18 -153 q-2 -4 3 -4h30z" />
<glyph unicode="5" horiz-adv-x="397" d="M370 309q4 -37 -2 -96q-6 -48 -16 -83q-37 -138 -167 -138q-62 0 -96.5 35t-36.5 105l1 30q0 10 10 10h49q10 0 10 -10v-24q4 -84 71 -84q63 0 89 80q10 30 17 80q6 52 2 86q-9 70 -69 70q-67 0 -92 -69q-4 -9 -12 -9h-50q-11 0 -9 10l48 388q0 10 11 10h274q9 0 9 -10 l-6 -42q0 -10 -10 -10h-212q-4 0 -4 -4l-32 -248q0 -7 5 -2q38 49 105 49q105 0 113 -124z" />
<glyph unicode="6" horiz-adv-x="398" d="M372 302q3 -38 -3 -89q-7 -49 -13 -74q-17 -72 -61 -109.5t-109 -37.5q-60 0 -94.5 35t-35.5 103q-3 34 3 79l39 328q10 78 58 124.5t118 46.5q64 0 99 -47t26 -124l-2 -16q-2 -10 -11 -10h-50q-10 0 -8 10l2 14q6 48 -13 78.5t-51 30.5q-38 0 -65 -30t-33 -79l-17 -134 q0 -6 5 -1q33 41 87 41q59 0 93 -37t36 -102zM286 145q10 41 14 73q6 47 2 86q-8 75 -68 75q-63 0 -89 -79q-10 -31 -16 -82q-6 -44 -5 -78q6 -86 70 -86q66 0 92 91z" />
<glyph unicode="7" horiz-adv-x="355" d="M88 0q-12 0 -7 11l242 623q2 4 -3 4h-178q-4 0 -4 -4l-5 -41q-2 -10 -11 -10h-38q-10 0 -8 10l12 97q0 10 11 10h296q11 0 9 -10l-6 -46q0 -2 -1.5 -6t-1.5 -6l-242 -623q-2 -9 -11 -9h-54z" />
<glyph unicode="8" d="M313 374q-5 -3 -1 -6q33 -19 44 -57q16 -51 8 -116q-5 -50 -26 -95q-23 -51 -63.5 -79.5t-91.5 -28.5q-50 0 -82.5 28t-43.5 80q-8 44 -2 96q7 62 32 107q21 43 62 65q4 3 1 6q-31 18 -46 54q-16 42 -8 102q8 63 33 102q47 78 142 78t124 -76q19 -44 10 -105 q-6 -59 -32 -99q-25 -37 -60 -56zM186 598q-18 -30 -24 -74q-5 -47 7 -75q14 -49 64 -49q55 0 82 53q16 27 22 72q6 44 -7 76q-16 47 -66 47q-51 0 -78 -50zM280 129q12 34 16 70q6 52 -3 86q-14 58 -67 58q-52 0 -81 -62q-16 -36 -22 -82q-5 -43 1 -73q9 -72 67 -72 q61 0 89 75z" />
<glyph unicode="9" horiz-adv-x="391" d="M379 491l-39 -328q-10 -78 -58 -124.5t-118 -46.5q-64 0 -99 47t-26 124l2 16q2 10 11 10h50q10 0 8 -10l-1 -14q-6 -48 12.5 -78.5t50.5 -30.5q38 0 65.5 30t33.5 79l16 134q0 5 -4 1q-35 -41 -88 -41q-59 0 -93 37t-36 102q-2 47 3 89q7 49 13 74q17 72 61 109.5 t109 37.5q60 0 94.5 -35t35.5 -103q3 -34 -3 -79zM204 321q63 0 90 79q9 32 15 82q6 44 5 78q-6 86 -70 86q-66 0 -92 -91q-10 -41 -14 -73q-6 -47 -2 -86q8 -75 68 -75z" />
<glyph unicode=":" horiz-adv-x="205" d="M125 341q-23 0 -36 17.5t-10 42.5q3 24 21.5 41.5t39.5 17.5t35 -17.5t11 -41.5q-3 -25 -21 -42.5t-40 -17.5zM84 5q-23 0 -36 17t-10 43q3 24 21.5 41.5t39.5 17.5t35 -17.5t11 -41.5q-3 -25 -20.5 -42.5t-40.5 -17.5z" />
<glyph unicode=";" horiz-adv-x="187" d="M117 347q-23 0 -36 17t-10 43q3 24 21.5 41t39.5 17t35 -17t11 -41q-3 -25 -20.5 -42.5t-40.5 -17.5zM25 -75q-11 0 -9 10l46 207q3 9 12 9h43q11 0 7 -11l-58 -206q-3 -9 -12 -9h-29z" />
<glyph unicode="&#x3c;" horiz-adv-x="429" d="M387 71q-2 -14 -12 -7l-327 176q-7 4 -5 12l5 48q2 8 9 12l370 176q5 3 8 0.5t2 -7.5l-6 -49q0 -7 -8 -12l-306 -141q-5 -3 -1 -6l272 -141q6 -5 5 -12z" />
<glyph unicode="=" horiz-adv-x="429" d="M71 405q-10 0 -8 10l4 35q2 10 11 10h347q9 0 9 -10l-5 -35q0 -10 -11 -10h-347zM46 199q-9 0 -9 10l5 35q0 10 11 10h347q10 0 8 -10l-4 -35q-2 -10 -11 -10h-347z" />
<glyph unicode="&#x3e;" horiz-adv-x="429" d="M31 64q-5 -3 -8.5 -0.5t-2.5 7.5l6 49q2 8 9 12l306 141q4 3 1 6l-272 141q-6 5 -5 12l6 49q2 14 12 7l327 -176q6 -5 5 -12l-6 -48q0 -7 -8 -12z" />
<glyph unicode="?" horiz-adv-x="359" d="M146 200q-9 0 -9 10l8 59q4 36 21 64t38 48t42.5 39.5t38.5 48t21 64.5q6 50 -12 80.5t-54 30.5q-38 0 -65 -31t-33 -81l-4 -31q-2 -10 -11 -10l-49 3q-10 0 -8 10l3 28q10 79 58.5 128t117.5 49q68 0 102.5 -48t24.5 -128q-6 -46 -23.5 -82t-39 -57.5t-43 -40 t-37.5 -40.5t-19 -48l-7 -55q-2 -10 -11 -10h-50zM150 2q-21 0 -33.5 16.5t-9.5 40.5q3 23 20 40t38 17q20 0 33 -17t10 -40q-3 -24 -20 -40.5t-38 -16.5z" />
<glyph unicode="@" horiz-adv-x="738" d="M466 616q139 0 206 -92.5t30 -241.5q-24 -94 -75.5 -146.5t-119.5 -52.5q-64 0 -87 45q-2 3 -5 0q-34 -47 -88 -47q-46 0 -70 29.5t-14 78.5q14 58 19 78q8 37 18 71q13 50 44.5 79t76.5 29q37 0 58 -28q1 -2 2.5 -1t2.5 3l2 12q3 9 11 9h31q5 0 7 -3.5t1 -7.5l-50 -204 q-10 -43 4.5 -69t49.5 -26q43 0 77 40t52 111q32 129 -23 207.5t-172 78.5q-114 0 -210.5 -86.5t-129.5 -221.5t23 -216t163 -81q91 0 157 46q8 6 13 -2l13 -23q3 -8 -4 -14q-82 -56 -194 -56q-131 0 -195 96t-26 253q38 156 152.5 254.5t249.5 98.5zM408 192q1 5 3.5 14 t3.5 12l16 65l12 53q7 29 -4.5 47t-36.5 18t-45 -18t-28 -47q-2 -10 -8 -34.5t-9 -38.5q-11 -48 -18 -71q-5 -29 6 -47t36 -18t44.5 18t27.5 47z" />
<glyph unicode="A" horiz-adv-x="441" d="M329 0q-10 0 -10 9l-9 124q0 4 -4 4h-176q-5 0 -5 -4l-40 -124q-3 -9 -12 -9h-50q-11 0 -7 11l230 680q3 9 12 9h58q9 0 9 -9l64 -680q2 -11 -10 -11h-50zM147 199q-2 -4 2 -4h152q4 0 4 4l-30 385q0 3 -1 3t-2 -3z" />
<glyph unicode="B" horiz-adv-x="436" d="M406 190q-11 -90 -64.5 -140t-132.5 -50h-149q-10 0 -8 10l83 680q2 10 11 10h140q83 0 124.5 -47.5t31.5 -135.5q-13 -112 -100 -153q-5 -2 -1 -4q79 -51 65 -170zM202 638q-5 0 -5 -4l-29 -241q-2 -4 3 -4h77q52 0 85 32t40 90q8 60 -17.5 93.5t-77.5 33.5h-76zM211 63 q52 0 85.5 35.5t41.5 99.5q8 65 -16.5 101t-76.5 36h-81q-4 0 -4 -4l-32 -264q-2 -4 3 -4h80z" />
<glyph unicode="C" horiz-adv-x="433" d="M198 -8q-75 0 -114.5 47.5t-29.5 125.5l46 371q10 78 60.5 125t125.5 47t114.5 -46.5t30.5 -125.5l-3 -17q0 -10 -10 -10l-51 -3q-9 0 -9 10l3 25q6 47 -17 76t-66 29t-73 -29t-36 -76l-47 -382q-5 -47 17.5 -76t65.5 -29q44 0 74 29t35 76l3 25q2 10 11 10l50 -3 q11 0 9 -10l-2 -16q-10 -79 -61 -126t-126 -47z" />
<glyph unicode="D" horiz-adv-x="451" d="M60 0q-10 0 -8 10l83 680q2 10 11 10h149q75 0 113.5 -50.5t28.5 -135.5l-41 -328q-10 -85 -61 -135.5t-125 -50.5h-150zM127 66q0 -4 4 -4l85 1q43 0 73 33.5t38 92.5l39 322q8 59 -13.5 93t-65.5 34h-85q-5 0 -5 -4z" />
<glyph unicode="E" horiz-adv-x="416" d="M437 648q0 -10 -10 -10h-225q-5 0 -5 -4l-30 -248q-2 -4 3 -4h142q10 0 8 -10l-5 -43q-2 -10 -11 -10h-142q-4 0 -4 -4l-31 -249q0 -4 4 -4h225q10 0 8 -10l-5 -42q-2 -10 -11 -10h-288q-10 0 -8 10l83 680q2 10 11 10h288q9 0 9 -10z" />
<glyph unicode="F" horiz-adv-x="392" d="M436 648q-2 -10 -11 -10h-223q-5 0 -5 -4l-30 -248q-2 -4 3 -4h141q10 0 8 -10l-5 -43q-2 -10 -11 -10h-141q-4 0 -4 -4l-37 -305q-2 -10 -11 -10h-50q-10 0 -8 10l83 680q2 10 11 10h286q9 0 9 -10z" />
<glyph unicode="G" horiz-adv-x="432" d="M198 -8q-74 0 -113.5 45.5t-30.5 121.5l47 382q10 76 60.5 121.5t124.5 45.5q75 0 114.5 -46t29.5 -122l-5 -43q-2 -10 -11 -10h-50q-10 0 -8 10l5 45q6 47 -17 75.5t-66 28.5t-73 -28.5t-36 -75.5l-47 -384q-5 -47 17.5 -75.5t65.5 -28.5q44 0 74 28.5t35 75.5l16 128 q0 4 -3 4h-84q-10 0 -8 10l5 42q2 10 11 10h146q9 0 9 -10l-23 -183q-9 -76 -60 -121.5t-125 -45.5z" />
<glyph unicode="H" horiz-adv-x="458" d="M384 690q2 10 11 10h50q10 0 8 -10l-83 -680q-2 -10 -11 -10h-50q-10 0 -8 10l37 305q2 4 -3 4h-173q-4 0 -4 -4l-37 -305q-2 -10 -11 -10h-50q-10 0 -8 10l83 680q2 10 11 10h50q10 0 8 -10l-37 -304q-2 -4 3 -4h173q4 0 4 4z" />
<glyph unicode="I" horiz-adv-x="209" d="M60 0q-10 0 -8 10l83 680q2 10 11 10h50q10 0 8 -10l-83 -680q-2 -10 -11 -10h-50z" />
<glyph unicode="J" horiz-adv-x="413" d="M162 -8q-72 0 -111 46.5t-29 122.5l10 84q2 10 11 10h49q11 0 9 -10l-11 -85q-5 -48 16.5 -77t63.5 -29q41 0 70 29.5t35 76.5l65 530q2 10 11 10h49q9 0 9 -10l-65 -529q-10 -76 -60 -122.5t-122 -46.5z" />
<glyph unicode="K" horiz-adv-x="438" d="M60 0q-10 0 -8 10l83 680q2 10 11 10h50q10 0 8 -10l-40 -324q0 -9 5 -2l227 329q7 7 13 7h54q13 0 6 -12l-185 -271q-2 -4 -2 -6l118 -399q3 -12 -9 -12h-55q-9 0 -10 8l-98 340q-1 4 -5 0l-72 -96q-1 -1 -1 -5l-29 -237q-2 -10 -11 -10h-50z" />
<glyph unicode="L" horiz-adv-x="384" d="M60 0q-10 0 -8 10l83 680q2 10 11 10h50q10 0 8 -10l-77 -624q0 -4 4 -4h222q10 0 8 -10l-5 -42q0 -10 -11 -10h-285z" />
<glyph unicode="M" horiz-adv-x="503" d="M59 0q-10 0 -8 10l83 680q2 10 11 10h51q8 0 9 -8l76 -271q0 -3 3 -2q1 0 2 2l143 271q4 8 12 8h50q11 0 9 -10l-84 -680q0 -10 -11 -10h-49q-10 0 -8 10l62 512q1 3 -1 3t-3 -2l-128 -232q-3 -8 -9 -8q-8 0 -9 8l-72 233q-1 3 -4 2l-1 -3l-63 -513q-2 -10 -11 -10h-50z " />
<glyph unicode="N" horiz-adv-x="478" d="M60 0q-10 0 -8 10l83 680q2 10 11 10h51q9 0 10 -8l133 -504q1 -3 3 -3t2 3l62 502q0 10 11 10h48q9 0 9 -10l-84 -680q-2 -10 -11 -10h-51q-9 0 -10 8l-133 504q0 4 -3 2q-1 -1 -2 -3l-60 -501q-2 -10 -11 -10h-50z" />
<glyph unicode="O" horiz-adv-x="442" d="M200 -8q-74 0 -114.5 48t-31.5 127l45 366q10 78 62.5 126.5t126.5 48.5q75 0 116 -48t31 -127l-45 -366q-10 -79 -62.5 -127t-127.5 -48zM207 54q45 0 76.5 30.5t37.5 78.5l46 373q5 49 -19 79.5t-68 30.5q-43 0 -74 -30.5t-37 -79.5l-46 -373q-6 -48 17.5 -78.5 t66.5 -30.5z" />
<glyph unicode="P" horiz-adv-x="429" d="M305 701q71 0 108.5 -53.5t26.5 -140.5q-11 -86 -60 -138.5t-119 -52.5h-100q-4 0 -4 -4l-37 -302q-2 -10 -11 -10h-50q-10 0 -8 10l83 681q2 10 11 10h160zM256 374q45 0 76.5 36t38.5 96t-15.5 96.5t-66.5 36.5h-88q-3 0 -5 -4l-31 -257q0 -4 3 -4h88z" />
<glyph unicode="Q" horiz-adv-x="430" d="M283 708q72 0 110.5 -49t28.5 -129l-44 -360q-8 -68 -47.5 -115t-97.5 -59q-4 -1 -4 -5l-12 -96q-2 -10 -11 -10h-49q-11 0 -9 10l12 96q0 3 -3 5q-55 13 -82.5 59t-19.5 115l44 360q10 79 61 128.5t123 49.5zM308 163l46 374q6 48 -15.5 78.5t-63.5 30.5 q-41 0 -70.5 -30.5t-35.5 -78.5l-46 -374q-6 -48 16 -78.5t64 -30.5q41 0 70 30.5t35 78.5z" />
<glyph unicode="R" horiz-adv-x="430" d="M322 0q-8 0 -11 8l-61 311q-1 3 -4 3h-83q-3 0 -5 -4l-37 -308q-2 -10 -11 -10h-50q-10 0 -8 10l83 681q2 10 11 10h160q71 0 108 -53t27 -139q-8 -66 -41 -113t-82 -65q-4 -1 -3 -5l67 -315q2 -11 -10 -11h-50zM202 639q-3 0 -5 -4l-31 -252q0 -4 4 -4h87q44 0 76 35.5 t39 93.5q7 60 -15.5 95.5t-67.5 35.5h-87z" />
<glyph unicode="S" horiz-adv-x="413" d="M190 -8q-71 0 -110 49t-29 128l3 24q2 10 11 10h48q9 0 9 -10l-3 -21q-7 -54 15 -86t64 -32q41 0 71.5 31t37.5 82q4 34 -9.5 62.5t-29 43.5t-58.5 52q-33 28 -50.5 44.5t-37 43.5t-26 57.5t-1.5 68.5q10 78 59 123.5t119 45.5q73 0 111.5 -49.5t28.5 -131.5l-3 -25 q-2 -10 -11 -10h-49q-10 0 -8 10l3 26q7 53 -15 85.5t-64 32.5q-40 0 -68 -28.5t-35 -80.5q-6 -45 13.5 -75t78.5 -79q53 -45 75.5 -68.5t36.5 -59.5t8 -82q-10 -82 -61.5 -131.5t-123.5 -49.5z" />
<glyph unicode="T" d="M434 700q9 0 9 -10l-6 -42q0 -10 -10 -10h-128q-5 0 -5 -4l-76 -624q-2 -10 -11 -10h-50q-10 0 -8 10l76 624q2 4 -3 4h-120q-11 0 -9 10l5 42q2 10 11 10h325z" />
<glyph unicode="U" horiz-adv-x="462" d="M210 -8q-74 0 -113.5 53t-29.5 140l62 505q2 10 11 10h50q10 0 8 -10l-63 -513q-7 -55 16 -89t66 -34q44 0 75.5 34t38.5 89l63 513q2 10 11 10h50q10 0 8 -10l-62 -505q-10 -87 -63 -140t-128 -53z" />
<glyph unicode="V" horiz-adv-x="426" d="M166 0q-8 0 -10 9l-57 680q0 11 10 11h55q9 0 9 -9l36 -559q2 -6 4 0l173 559q2 9 11 9h53q10 0 7 -11l-224 -680q-3 -9 -12 -9h-55z" />
<glyph unicode="W" horiz-adv-x="604" d="M147 0q-9 0 -9 9l-45 680q0 11 10 11h52q9 0 9 -9l27 -526q2 -6 4 0l143 526q3 9 11 9h44q9 0 9 -9l18 -526q1 -4 4 0l148 526q2 9 11 9h51q11 0 7 -11l-203 -680q-3 -9 -12 -9h-48q-8 0 -8 9l-17 528q-2 6 -4 0l-144 -528q-3 -9 -11 -9h-47z" />
<glyph unicode="X" horiz-adv-x="421" d="M25 0q-13 0 -6 12l177 335q1 2 1 6l-95 335q-3 12 9 12h52q8 0 9 -8l68 -266q1 -3 3 -3t3 3l134 266q4 8 11 8h52q13 0 6 -12l-178 -336q-1 -2 -1 -6l96 -334q3 -12 -9 -12h-51q-9 0 -10 8l-68 265q-1 3 -3 3t-3 -3l-134 -265q-3 -8 -11 -8h-52z" />
<glyph unicode="Y" horiz-adv-x="411" d="M162 1q-10 0 -8 10l36 299v5l-89 373q-2 12 9 12h53q8 0 10 -8l59 -293q1 -2 3 -2t3 2l131 293q5 8 13 8h52q11 0 6 -12l-179 -373q-2 -2 -2 -5l-36 -299q-2 -10 -11 -10h-50z" />
<glyph unicode="Z" horiz-adv-x="383" d="M22 0q-10 0 -8 10l5 46q2 6 5 12l305 565q1 1 0.5 3t-2.5 2h-226q-11 0 -9 10l5 42q2 10 11 10h294q9 0 9 -10l-6 -46q0 -2 -4 -12l-305 -565q-2 -5 3 -5h225q10 0 8 -10l-5 -42q-2 -10 -11 -10h-294z" />
<glyph unicode="[" horiz-adv-x="294" d="M1 -121q-11 0 -9 10l108 875q0 10 11 10h150q10 0 8 -10l-5 -42q-2 -10 -11 -10h-87q-4 0 -4 -4l-94 -763q0 -4 3 -4h89q10 0 8 -10l-5 -42q-2 -10 -11 -10h-151z" />
<glyph unicode="\" horiz-adv-x="292" d="M250 11q2 -11 -10 -11h-49q-9 0 -9 9l-93 680q-2 11 11 11h48q8 0 10 -9z" />
<glyph unicode="]" horiz-adv-x="294" d="M236 -111q-2 -10 -11 -10h-152q-10 0 -8 10l5 42q2 10 11 10h88q3 0 5 4l93 763q2 4 -3 4h-87q-11 0 -9 10l5 42q2 10 11 10h151q10 0 8 -10z" />
<glyph unicode="^" horiz-adv-x="384" d="M61 307q-11 0 -6 11l169 374q3 8 12 8h44q8 0 11 -8l78 -374q2 -11 -9 -11h-40q-8 0 -11 8l-58 303q0 3 -3 2l-2 -2l-133 -303q-3 -8 -12 -8h-40z" />
<glyph unicode="_" horiz-adv-x="365" d="M12 0q-11 0 -9 10l5 37q0 10 11 10h302q9 0 9 -10l-5 -37q-2 -10 -11 -10h-302z" />
<glyph unicode="`" horiz-adv-x="180" d="M205 589q5 -12 -8 -12h-37q-6 0 -11 7l-54 109q-5 12 7 12h46q6 0 10 -7z" />
<glyph unicode="a" d="M324 496q2 10 11 10h49q9 0 9 -10l-60 -486q-2 -10 -11 -10h-49q-11 0 -9 10l4 29q0 7 -5 2q-40 -49 -102 -49q-57 0 -87 42.5t-25 110.5q3 37 13 111q7 65 14 108q10 67 50.5 108.5t98.5 41.5q63 0 90 -48q5 -5 5 2zM189 54q35 0 61 27.5t32 72.5l24 198q5 45 -14 72.5 t-54 27.5q-38 0 -64.5 -27.5t-31.5 -72.5q-3 -21 -12 -99l-12 -99q-6 -44 14 -72t57 -28z" />
<glyph unicode="b" d="M385 364q-2 -22 -6.5 -61t-5.5 -47l-15 -111q-11 -68 -51.5 -110.5t-97.5 -42.5q-62 0 -90 49q-4 4 -6 -2l-3 -29q-2 -10 -11 -10h-50q-10 0 -8 10l83 680q2 10 11 10h50q10 0 8 -10l-27 -222q0 -6 4 -2q40 48 103 48q58 0 88 -41.5t24 -108.5zM196 54q38 0 64.5 28 t30.5 72l13 99q1 11 5.5 45.5t6.5 53.5q6 45 -14 72.5t-57 27.5q-36 0 -62 -27.5t-31 -72.5l-24 -198q-6 -45 13 -72.5t55 -27.5z" />
<glyph unicode="c" horiz-adv-x="390" d="M179 -8q-69 0 -104.5 42t-27.5 111l26 216q8 68 55 110.5t116 42.5q68 0 105.5 -40.5t30.5 -98.5l-2 -10q0 -10 -10 -10l-50 -2q-9 0 -9 9l1 8q5 33 -16 57.5t-58 24.5t-63 -26.5t-31 -69.5l-26 -206q-5 -43 15 -69.5t56 -26.5t63 24.5t32 57.5v7q2 10 11 10l50 -1 q10 0 8 -10l-1 -11q-8 -60 -55 -99.5t-116 -39.5z" />
<glyph unicode="d" d="M348 690q0 10 11 10h49q10 0 8 -10l-83 -680q-2 -10 -11 -10h-49q-11 0 -9 10l4 29q0 7 -5 2q-40 -49 -102 -49q-57 0 -87 42.5t-25 110.5q3 37 13 111q7 65 14 108q10 67 50.5 108.5t98.5 41.5q63 0 90 -48q5 -5 5 2zM189 54q35 0 61 27.5t32 72.5l24 198q5 45 -14 72.5 t-54 27.5q-38 0 -64.5 -27.5t-31.5 -72.5q-3 -21 -12 -99l-12 -99q-6 -44 14 -72t57 -28z" />
<glyph unicode="e" horiz-adv-x="395" d="M362 236q-2 -10 -11 -10h-221q-5 0 -5 -4l-9 -73q-5 -42 15 -68.5t56 -26.5q31 0 55 19t35 51q5 9 12 9l48 -2q11 0 7 -11q-14 -59 -57.5 -93.5t-107.5 -34.5q-69 0 -104.5 42t-27.5 111l26 216q8 68 55 110.5t116 42.5q70 0 105.5 -42.5t27.5 -110.5zM236 452 q-37 0 -63 -26.5t-31 -69.5l-9 -67q0 -4 4 -4h159q4 0 4 4l9 67q5 43 -15 69.5t-58 26.5z" />
<glyph unicode="f" horiz-adv-x="268" d="M275 646q-37 0 -55.5 -25.5t-25.5 -79.5l-3 -31q-2 -4 3 -4h75q10 0 8 -10l-4 -33q-2 -10 -11 -10h-74q-5 0 -5 -4l-54 -439q0 -10 -11 -10h-48q-9 0 -9 10l54 439q2 4 -3 4h-39q-10 0 -8 10l4 33q0 10 11 10h38q5 0 5 4l4 32q11 87 46.5 126t108.5 39h13q11 0 9 -10 l-6 -41q-1 -10 -11 -10h-12z" />
<glyph unicode="g" horiz-adv-x="401" d="M324 496q2 10 11 10h49q9 0 9 -10l-60 -486q-13 -107 -67.5 -162.5t-167.5 -50.5q-10 2 -8 11l5 43q2 10 11 10q77 -2 113 36.5t46 118.5l4 30q0 7 -5 2q-41 -51 -103 -51t-92 42t-21 111l25 211q9 70 49.5 111.5t101.5 41.5q65 0 91 -50q3 -6 5 1zM189 59q36 0 62 26.5 t31 68.5l25 202q5 43 -14.5 69.5t-55.5 26.5q-37 0 -63.5 -26.5t-31.5 -69.5l-25 -202q-5 -42 15 -68.5t57 -26.5z" />
<glyph unicode="h" horiz-adv-x="411" d="M277 513q60 0 87 -42t18 -117l-42 -344q-2 -10 -11 -10h-50q-10 0 -8 10l41 338q6 49 -11 76t-54 27q-38 0 -64 -29t-32 -79l-41 -333q-2 -10 -11 -10h-50q-10 0 -8 10l83 680q2 10 11 10h50q10 0 8 -10l-28 -227q0 -7 6 -1q40 51 106 51z" />
<glyph unicode="i" horiz-adv-x="196" d="M153 596q-21 0 -33 15t-9 38q2 22 17.5 36.5t36.5 14.5t32 -14.5t9 -36.5q-3 -23 -18 -38t-35 -15zM54 0q-10 0 -8 10l60 486q0 10 10 10h50q10 0 8 -10l-59 -486q-2 -10 -11 -10h-50z" />
<glyph unicode="j" horiz-adv-x="187" d="M147 597q-21 0 -32.5 14.5t-8.5 37.5t19 37.5t35 14.5q20 0 32.5 -14.5t9.5 -37.5t-18 -37.5t-37 -14.5zM-64 -208q-11 0 -9 10l5 42q2 10 11 10q80 3 91 102l67 540q0 10 11 10h49q9 0 9 -10l-67 -540q-10 -82 -46 -123t-121 -41z" />
<glyph unicode="k" horiz-adv-x="393" d="M49 0q-10 0 -8 10l83 680q2 10 11 10h50q10 0 8 -10l-49 -402q0 -7 5 -2l171 214q5 6 13 6h50q6 0 7.5 -4t-2.5 -8l-114 -142q-2 -2 -2 -6l74 -335q2 -11 -9 -11h-52q-8 0 -10 8l-53 278q0 6 -5 1l-84 -104q-1 -1 -3 -5l-20 -168q-2 -10 -11 -10h-50z" />
<glyph unicode="l" horiz-adv-x="176" d="M44 0q-11 0 -9 10l84 680q0 10 11 10h49q9 0 9 -10l-84 -680q-2 -10 -11 -10h-49z" />
<glyph unicode="m" horiz-adv-x="628" d="M496 513q58 0 84.5 -44t16.5 -122l-41 -337q-2 -10 -11 -10h-48q-11 0 -9 10l41 331q6 51 -11 80.5t-51 29.5q-37 0 -62 -29t-31 -79l-41 -333q-2 -10 -11 -10h-49q-11 0 -9 10l41 331q6 51 -11 80.5t-50 29.5q-38 0 -63 -29t-31 -79l-41 -333q-2 -10 -11 -10h-49 q-10 0 -8 10l60 486q0 10 11 10h48q9 0 9 -10l-4 -31q-1 -2 0.5 -2.5t3.5 1.5q43 49 104 49q75 0 97 -71q1 -3 5 1q43 70 121 70z" />
<glyph unicode="n" horiz-adv-x="411" d="M277 513q60 0 87 -42t18 -117l-42 -344q-2 -10 -11 -10h-50q-10 0 -8 10l41 338q6 49 -11 76t-54 27q-38 0 -64 -29t-32 -79l-41 -333q-2 -10 -11 -10h-50q-10 0 -8 10l60 486q0 10 11 10h49q9 0 9 -10l-5 -33q0 -7 6 -1q40 51 106 51z" />
<glyph unicode="o" horiz-adv-x="402" d="M180 -8q-69 0 -105 42t-28 111l26 216q8 68 55 110.5t117 42.5q69 0 105.5 -42.5t28.5 -110.5l-27 -216q-8 -69 -55 -111t-117 -42zM188 54q37 0 64 26.5t32 68.5l25 207q5 43 -15 69.5t-57 26.5t-63.5 -26.5t-31.5 -69.5l-26 -207q-5 -42 15 -68.5t57 -26.5z" />
<glyph unicode="p" horiz-adv-x="415" d="M391 361q-2 -19 -6.5 -56t-6.5 -55q-3 -18 -7 -54t-7 -54q-11 -67 -51.5 -108.5t-98.5 -41.5q-63 0 -90 48q-3 2 -5 -2l-27 -222q-2 -10 -11 -10h-50q-10 0 -8 10l83 680q2 10 11 10h50q10 0 8 -10l-3 -29q-1 -2 0.5 -3t3.5 1q41 49 102 49q58 0 88 -42.5t25 -110.5z M202 54q37 0 64 27.5t31 72.5q2 10 12 99l13 99q6 44 -14 72t-58 28q-35 0 -61 -27.5t-31 -72.5l-25 -198q-5 -45 14 -72.5t55 -27.5z" />
<glyph unicode="q" horiz-adv-x="415" d="M324 496q2 10 11 10h49q9 0 9 -10l-84 -680q-2 -10 -11 -10h-49q-9 0 -9 10l28 222q0 7 -5 2q-39 -48 -102 -48q-58 0 -88 41.5t-25 108.5q6 59 13 108q4 37 14 111q11 68 52 110.5t98 42.5q62 0 90 -49q5 -5 5 2zM189 54q35 0 61 27.5t32 72.5l24 198q5 45 -14 72.5 t-54 27.5q-38 0 -64.5 -28t-31.5 -72l-12 -99q0 -4 -5 -41t-7 -58q-6 -45 14 -72.5t57 -27.5z" />
<glyph unicode="r" horiz-adv-x="284" d="M268 511q23 0 41 -11q6 -5 3 -13l-17 -51q-3 -9 -13 -6q-17 8 -41 4q-34 -2 -61 -37.5t-33 -86.5l-37 -300q-2 -10 -11 -10h-50q-10 0 -8 10l60 486q0 10 11 10h49q9 0 9 -10l-8 -60q1 -4 4 -1q39 76 102 76z" />
<glyph unicode="s" horiz-adv-x="363" d="M167 -5q-67 0 -103 35.5t-28 94.5l1 7q0 10 11 10h46q9 0 9 -8l-1 -8q-4 -32 16 -54t57 -22q35 0 59 22t28 56q2 20 -3 35t-22 27.5t-26 17.5t-36 17q-21 9 -32.5 15t-29.5 19.5t-26.5 27.5t-14 36.5t-2.5 49.5q8 64 51 101t108 37q66 0 100 -38t26 -101v-3 q-2 -10 -11 -10h-45q-9 0 -9 8l1 8q5 34 -14.5 56t-54.5 22q-34 0 -57.5 -22.5t-28.5 -55.5q-2 -19 3 -33t19.5 -25.5t26 -17.5t35.5 -17q23 -11 34 -16.5t30.5 -20t28.5 -28.5t15 -36.5t3 -49.5q-7 -62 -51.5 -99t-112.5 -37z" />
<glyph unicode="t" horiz-adv-x="259" d="M269 463q0 -10 -11 -10h-73q-3 0 -5 -4l-37 -306q-6 -46 7 -63.5t46 -16.5h10q10 0 8 -10l-5 -43q-2 -10 -11 -10h-24q-58 0 -84 25.5t-18 96.5l40 327q2 4 -3 4h-38q-10 0 -8 10l4 33q0 10 11 10h37q5 0 5 4l14 112q0 10 11 10h48q9 0 9 -10l-14 -112q0 -4 3 -4h74 q10 0 8 -10z" />
<glyph unicode="u" horiz-adv-x="411" d="M325 496q0 10 11 10h49q9 0 9 -10l-60 -486q-2 -10 -11 -10h-49q-11 0 -9 10l4 34q1 3 -0.5 3t-3.5 -2q-37 -52 -104 -52q-58 0 -88 36.5t-21 110.5l44 356q2 10 11 10h49q9 0 9 -10l-42 -340q-12 -101 65 -101q39 0 64.5 29t31.5 79z" />
<glyph unicode="v" horiz-adv-x="368" d="M136 0q-10 0 -10 9l-60 486q-2 11 9 11h56q9 0 10 -9l35 -387q2 -8 4 0l130 387q3 9 12 9l56 -1q11 0 7 -11l-179 -485q-3 -9 -12 -9h-58z" />
<glyph unicode="w" horiz-adv-x="537" d="M117 0q-9 0 -9 9l-43 486q0 11 10 11h47q10 0 10 -9l23 -389q0 -6 4 0l118 389q3 9 12 9h44q9 0 9 -9l24 -390q2 -6 4 0l120 390q2 9 12 9l46 -1q10 0 7 -11l-162 -485q-3 -9 -12 -9h-49q-10 0 -10 9l-27 366q0 8 -4 0l-114 -366q-3 -9 -12 -9h-48z" />
<glyph unicode="x" horiz-adv-x="365" d="M10 0q-11 0 -6 12l148 238q1 2 1 6l-89 238q-3 12 8 12h54q10 0 11 -7l62 -178q1 -2 3 -2t3 2l107 178q3 7 12 7h54q11 0 6 -12l-148 -238q-1 -2 -1 -6l89 -238q5 -12 -8 -12h-54q-10 0 -11 7l-62 179q-1 2 -3 2t-3 -2l-106 -179q-4 -7 -13 -7h-54z" />
<glyph unicode="y" horiz-adv-x="356" d="M-1 -200q-7 0 -5 10l5 41q2 10 6 10h5q44 0 65.5 26t47.5 110q1 1 1 3v3l-63 492q-2 11 10 11h52q10 0 10 -9l37 -393q0 -8 4 0l132 393q3 9 12 9l54 -1q11 0 7 -11l-201 -538q-37 -97 -69.5 -126.5t-104.5 -29.5h-5z" />
<glyph unicode="z" horiz-adv-x="350" d="M22 0q-10 0 -8 10l6 48q0 5 4 13l244 365q2 5 -1 5h-187q-10 0 -8 10l5 45q2 10 11 10h262q9 0 9 -10l-6 -48q-2 -10 -5 -13l-245 -365q-2 -2 -1 -3.5t3 -1.5h193q10 0 8 -10l-5 -45q-2 -10 -11 -10h-268z" />
<glyph unicode="{" horiz-adv-x="265" d="M146 -121q-49 0 -69.5 27.5t-13.5 86.5l27 217q10 80 -39 90q-8 2 -7 10l5 40q1 9 10 10q50 10 60 89l26 212q8 58 35 85.5t76 27.5h50q10 0 8 -10l-5 -42q-2 -10 -11 -10h-25q-53 0 -62 -74l-24 -194q-10 -86 -60 -112q-6 -2 0 -4q43 -28 32 -113l-24 -199 q-9 -75 43 -75h25q9 0 9 -10l-5 -42q-2 -10 -11 -10h-50z" />
<glyph unicode="|" horiz-adv-x="140" d="M15 -80q-10 0 -8 10l101 820q0 10 11 10h49q10 0 8 -10l-100 -820q-2 -10 -11 -10h-50z" />
<glyph unicode="}" horiz-adv-x="265" d="M50 -121h-49q-11 0 -9 10l5 42q2 10 11 10h25q53 0 62 75l25 199q10 86 60 113q6 2 0 4q-43 26 -32 112l23 194q10 74 -43 74h-25q-9 0 -9 10l6 42q0 10 11 10h49q98 0 83 -113l-26 -212q-10 -79 39 -89q8 -2 7 -10l-5 -40q0 -8 -10 -10q-50 -10 -60 -90l-27 -217 q-13 -114 -111 -114z" />
<glyph unicode="~" horiz-adv-x="447" d="M319 232q-39 0 -89 34q-40 26 -65 26q-44 0 -75 -41q-7 -10 -14 -4l-24 16q-8 5 -3 14q20 35 51 56.5t67 21.5t75 -27q47 -33 82 -33q31 0 64 40q8 8 14 3l26 -19q7 -5 2 -13q-52 -74 -111 -74z" />
<glyph unicode="&#xa1;" horiz-adv-x="247" d="M190 708q22 0 35.5 -17t10.5 -42q-3 -24 -21.5 -41.5t-39.5 -17.5t-35 17.5t-11 41.5q3 25 20.5 42t40.5 17zM134 474q1 10 11 10h38q9 0 8 -10l-50 -452q0 -10 -11 -10h-49q-10 0 -8 10z" />
<glyph unicode="&#xa2;" horiz-adv-x="390" d="M390 455q-2 -10 -11 -10l-50 -2q-9 0 -9 9l1 8q5 33 -16 57.5t-58 24.5t-63 -26.5t-31 -69.5l-26 -206q-5 -43 15 -69.5t56 -26.5q37 0 63.5 24t31.5 58v7q2 10 11 10l50 -1q10 0 8 -10l-1 -11q-7 -52 -44.5 -89.5t-93.5 -46.5q-4 -1 -5 -5l-6 -69q-2 -10 -11 -10h-41 q-10 0 -8 10l10 69q0 4 -3 5q-54 9 -81 49t-20 101l26 216q8 59 45 99.5t93 50.5q4 1 5 5l6 69q2 10 11 10h41q10 0 8 -10l-10 -69q0 -4 3 -5q54 -10 82.5 -48t22.5 -88z" />
<glyph unicode="&#xa3;" horiz-adv-x="488" d="M164 67q-3 -5 2 -5h268q11 0 9 -10l-5 -42q-2 -10 -11 -10h-341q-10 0 -8 10l5 44q2 8 8 12q41 33 52 121l15 117q0 4 -4 4h-56q-9 0 -9 10l5 39q2 10 11 10h56q5 0 5 4l17 141q11 89 58 141t118 55q60 3 95 -32t43 -104q0 -10 -9 -12l-48 -7q-10 -2 -10 9q-5 44 -24 65 t-53 19q-42 -1 -68.5 -35t-34.5 -96l-17 -144q0 -4 3 -4h140q10 0 8 -10l-4 -39q-2 -10 -11 -10h-140q-4 0 -4 -4l-15 -115q-9 -82 -46 -122z" />
<glyph unicode="&#xa4;" horiz-adv-x="496" d="M455 301q-7 -62 -49 -113v-6l56 -64q5 -6 -3 -14l-35 -28q-7 -7 -13 1l-54 61q0 1 -1.5 1.5t-3.5 -0.5q-54 -35 -114 -35q-59 0 -103 33q-3 2 -6 -1l-64 -59q-9 -7 -14 -1l-28 28q-6 7 1 14l67 60q3 3 1 6q-31 52 -24 117q7 61 50 114v6l-55 64q-5 6 3 14l34 28 q7 7 13 -1l53 -62q0 -1 2 -1.5t3 0.5q55 36 115 36q65 0 110 -39q3 -2 6 1l71 65q7 8 14 1l26 -28q7 -7 0 -14l-76 -68q-3 -3 -1 -6q27 -48 19 -110zM129 301q-7 -56 27.5 -96t88.5 -40q55 0 98.5 39.5t50.5 96.5q7 56 -27 96.5t-88 40.5q-55 0 -99 -40t-51 -97z" />
<glyph unicode="&#xa5;" horiz-adv-x="507" d="M449 307q-2 -10 -11 -10h-132q-4 0 -4 -4l-9 -68q0 -4 4 -4h132q10 0 8 -10l-3 -23q0 -10 -11 -10h-131q-5 0 -5 -4l-20 -163q-2 -10 -11 -10h-49q-9 0 -9 10l20 163q2 4 -3 4h-127q-9 0 -9 10l3 23q2 10 11 10h127q3 0 5 4l8 68q0 4 -4 4h-127q-10 0 -8 10l3 23 q2 10 11 10h116q4 0 4 5l-82 343q-2 12 9 12h52q9 0 11 -8l59 -293q2 -6 6 0l131 293q3 8 12 8h53q11 0 6 -12l-165 -343q-2 -5 2 -5h121q11 0 9 -10z" />
<glyph unicode="&#xa6;" horiz-adv-x="140" d="M72 385q-10 0 -8 10l44 355q0 10 11 10h49q10 0 8 -10l-43 -355q-2 -10 -11 -10h-50zM15 -80q-10 0 -8 10l43 348q0 10 11 10h49q9 0 9 -10l-43 -348q-2 -10 -11 -10h-50z" />
<glyph unicode="&#xa7;" horiz-adv-x="385" d="M151 -206q-63 0 -96.5 43.5t-24.5 113.5l2 14q0 10 11 10h49q10 0 8 -10l-1 -10q-5 -44 12 -71.5t49 -27.5t56 28t29 69q3 21 -2 39t-12.5 29.5t-24 23t-25 16t-26.5 13.5q-25 13 -39.5 22t-29 26.5t-20.5 40.5q-11 35 -6 83q7 51 36 93q27 43 66 57q6 2 1 5 q-75 50 -62 151q8 68 53 112t109 44q63 0 96.5 -44t25.5 -116l-1 -12q-2 -10 -11 -10h-50q-11 0 -9 10l1 9q5 45 -11 73t-49 28t-57 -28.5t-29 -71.5q-6 -46 15 -73t69 -49q2 -1 10.5 -5.5t11.5 -6t10.5 -5.5t11.5 -7t10.5 -7.5t10.5 -8.5t9 -9.5t9 -11t7 -12.5 q22 -39 14 -97q-6 -52 -31 -93q-28 -47 -72 -62q-6 -2 -1 -5q73 -48 61 -144q-8 -68 -53 -112t-110 -44zM196 140q46 0 71 45q18 32 22 66q5 41 -12 72q-19 34 -58 34q-44 0 -69 -47q-15 -28 -20 -62q-4 -36 5 -64q15 -44 61 -44z" />
<glyph unicode="&#xa8;" horiz-adv-x="255" d="M119 594q-20 0 -30.5 13t-7.5 34q2 20 16 33t33 13q18 0 27.5 -13t7.5 -33q-2 -21 -15 -34t-31 -13zM246 594q-20 0 -30.5 13t-7.5 34q2 20 16 33t33 13q18 0 28 -13t8 -33q-2 -21 -15.5 -34t-31.5 -13z" />
<glyph unicode="&#xa9;" horiz-adv-x="810" d="M384 -8q-150 0 -238 103.5t-69 254.5t132.5 254.5t262.5 103.5q150 0 238 -103.5t69 -254.5q-18 -151 -131.5 -254.5t-263.5 -103.5zM390 36q130 0 229 91t116 223q16 133 -61 223.5t-207 90.5q-131 0 -230 -91t-115 -223q-17 -132 60 -223t208 -91zM408 181 q-38 0 -57.5 22t-15.5 59l21 171q4 37 29.5 58.5t63.5 21.5t58.5 -22t16.5 -58l-1 -6q-2 -10 -11 -10l-22 -1q-11 0 -9 10l1 10q2 17 -8.5 28t-29.5 11t-32 -11t-15 -28l-22 -177q-2 -18 8.5 -28.5t29.5 -10.5t32.5 10.5t15.5 28.5l1 10q2 10 11 10l22 -1q9 0 9 -8l-1 -8 q-4 -37 -30.5 -59t-64.5 -22z" />
<glyph unicode="&#xaa;" horiz-adv-x="266" d="M183 563h43q3 0 5 4l3 28q4 31 -7.5 50t-36.5 19q-18 0 -33.5 -11.5t-21.5 -29.5q-3 -11 -12 -9l-30 2q-10 1 -8 11q9 36 40 58.5t71 22.5q48 0 71 -29.5t17 -79.5l-27 -220q-2 -10 -11 -10h-30q-10 0 -8 10l1 12q0 6 -4 2q-26 -29 -69 -29q-36 0 -60.5 21t-18.5 75 q13 103 126 103zM150 406q25 0 44.5 16t23.5 46l6 49q2 4 -3 4h-43q-29 0 -48 -16t-23 -46q-7 -53 43 -53zM37 307q0 10 11 10h203q11 0 9 -10l-3 -27q-2 -10 -11 -10h-204q-9 0 -9 10z" />
<glyph unicode="&#xab;" horiz-adv-x="458" d="M231 119q2 -5 -0.5 -8.5t-7.5 -3.5h-44q-7 0 -11 6l-83 161q-4 8 2 14l122 161q6 6 13 6h43q6 0 7.5 -3.5t-1.5 -8.5l-122 -159q-1 -3 0 -6zM375 119q3 -5 0.5 -8.5t-8.5 -3.5h-43q-8 0 -11 6l-83 161q-5 6 1 14l123 161q4 6 12 6h44q6 0 7.5 -3.5t-2.5 -8.5l-121 -159 q-2 -4 -1 -6z" />
<glyph unicode="&#xac;" horiz-adv-x="429" d="M411 344q10 0 8 -10l-4 -35l-2 -10h-1l-13 -102q0 -10 -11 -10h-35q-11 0 -9 10l12 98q0 4 -3 4h-296q-9 0 -9 10l5 35q0 10 11 10h347z" />
<glyph unicode="&#xad;" horiz-adv-x="304" d="M56 280q-9 0 -9 10l5 42q2 10 11 10h222q11 0 9 -10l-5 -42q-2 -10 -11 -10h-222z" />
<glyph unicode="&#xae;" horiz-adv-x="425" d="M281 714q79 0 128 -56.5t39 -137.5q-11 -83 -73 -139.5t-142 -56.5t-128.5 57t-38.5 139q10 81 72.5 137.5t142.5 56.5zM237 359q65 0 116.5 47t59.5 114q8 66 -31.5 112.5t-105.5 46.5q-65 0 -116 -46.5t-59 -112.5q-8 -67 31.5 -114t104.5 -47zM322 555q-3 -33 -30 -45 q-5 -3 -4 -6l17 -63q3 -12 -9 -12h-12q-9 0 -10 8l-17 64q0 3 -3 3h-16q-4 0 -4 -4l-7 -61q-2 -10 -11 -10h-11q-9 0 -9 10l20 159q2 10 11 10h51q22 0 34.5 -15t9.5 -38zM248 581q-4 0 -4 -4l-6 -45q0 -4 3 -4h24q10 0 17.5 7.5t9.5 18.5q3 27 -21 27h-23z" />
<glyph unicode="&#xaf;" horiz-adv-x="476" d="M202 595q-10 0 -8 10l4 32q0 10 10 10h178q10 0 8 -10l-3 -32q-2 -10 -11 -10h-178z" />
<glyph unicode="&#xb0;" horiz-adv-x="347" d="M214 490q-64 0 -102 46t-30 113t57.5 113t113.5 46t102.5 -46t30.5 -113t-58 -113t-114 -46zM221 540q43 0 76.5 31.5t39.5 77.5q5 46 -21 77.5t-69 31.5t-76.5 -31.5t-39.5 -77.5q-5 -46 21 -77.5t69 -31.5z" />
<glyph unicode="&#xb1;" horiz-adv-x="429" d="M269 382q0 -4 3 -4h143q10 0 8 -10l-4 -35q-2 -10 -11 -10h-142q-3 0 -5 -4l-18 -147q0 -10 -11 -10h-35q-10 0 -8 10l18 147q0 4 -3 4h-143q-10 0 -8 10l4 35q2 10 11 10h142q3 0 5 4l18 147q0 10 11 10h35q10 0 8 -10zM25 28q-9 0 -9 10l5 35q0 10 11 10h347 q10 0 8 -10l-4 -35q-2 -10 -11 -10h-347z" />
<glyph unicode="&#xb2;" horiz-adv-x="238" d="M66 442q-9 0 -9 10l4 27q0 6 5 13q119 158 122 163q42 59 48 104q4 30 -7 46.5t-32 16.5q-20 0 -35 -17t-18 -44l-2 -19q-2 -10 -11 -10h-30q-11 0 -9 10l3 21q7 48 36.5 76t71.5 28q43 0 66 -28.5t16 -81.5q-7 -57 -50 -120q-8 -12 -104 -146q-3 -5 2 -5h120q10 0 8 -10 l-3 -24q-2 -10 -11 -10h-181z" />
<glyph unicode="&#xb3;" horiz-adv-x="255" d="M272 625q2 -19 -1 -55q-4 -33 -16 -62q-11 -33 -37 -52t-62 -19q-39 0 -62 25t-23 65q0 18 3 33q0 10 11 10h29q9 0 8 -10q-1 -8 -1 -23q0 -55 41 -55q32 0 49 37q10 24 14 56q3 33 1 50q-5 46 -41 46q-7 0 -11 -3q-9 -3 -13 2l-13 15q-4 7 1 14l91 114q5 5 -3 5h-119 q-9 0 -9 10l3 24q2 10 11 10h171q10 0 8 -10l-3 -27q0 -6 -5 -13l-80 -103q-4 -4 1 -4q25 -4 40 -25.5t17 -54.5z" />
<glyph unicode="&#xb4;" horiz-adv-x="180" d="M86 577q-5 0 -7 3.5t2 8.5l74 109q5 7 12 7h46q13 0 4 -12l-81 -109q-7 -7 -13 -7h-37z" />
<glyph unicode="&#xb5;" horiz-adv-x="416" d="M331 496q0 10 10 10h50q10 0 8 -10l-59 -486q-2 -10 -11 -10h-50q-10 0 -8 10l4 34q1 3 -0.5 3t-3.5 -2q-38 -52 -104 -52q-32 0 -53 10q-5 2 -5 -3l-24 -190q0 -10 -11 -10h-49q-9 0 -9 10l85 686q0 10 11 10h50q9 0 9 -10l-42 -340q-13 -101 65 -101q38 0 63.5 29 t32.5 79z" />
<glyph unicode="&#xb6;" horiz-adv-x="456" d="M265 700h178q10 0 8 -10l-108 -880q0 -10 -11 -10h-38q-11 0 -9 10l102 827q0 4 -4 4h-76q-3 0 -5 -4l-101 -827q-2 -10 -11 -10h-40q-10 0 -8 10l53 437q0 4 -3 4q-66 8 -99 70.5t-22 153.5q12 97 66 161t128 64z" />
<glyph unicode="&#xb7;" horiz-adv-x="107" d="M33 3q-22 0 -35 17t-10 42q3 24 21 41.5t39 17.5t35 -17.5t11 -41.5q-3 -25 -20.5 -42t-40.5 -17z" />
<glyph unicode="&#xb8;" horiz-adv-x="117" d="M-30 -182q-8 3 -5 12l5 21q3 10 13 7q41 -8 53 36q13 46 -27 94q-5 4 -3 8t9 4h26q6 0 9 -3q3 -1 3 -4q49 -53 28 -119q-13 -41 -46 -52.5t-65 -3.5z" />
<glyph unicode="&#xb9;" horiz-adv-x="141" d="M142 859q5 3 13 3h33q9 0 9 -10l-49 -400q-2 -10 -11 -10h-30q-11 0 -9 10l44 357q0 2 -1 3.5t-3 0.5l-22 -7q-4 -1 -6 -0.5t-3 2.5t0 6l2 18q1 7 8 12z" />
<glyph unicode="&#xba;" horiz-adv-x="272" d="M160 363q-47 0 -71 28t-18 75l17 140q5 46 36 74t78 28t72 -28t20 -74l-18 -140q-5 -47 -36.5 -75t-79.5 -28zM165 407q24 0 41.5 17t20.5 44l17 134q3 27 -10 44.5t-37 17.5q-23 0 -40.5 -17.5t-20.5 -44.5l-16 -134q-4 -27 9 -44t36 -17zM48 270q-11 0 -9 10l4 27 q0 10 10 10h204q9 0 9 -10l-4 -27q0 -10 -11 -10h-203z" />
<glyph unicode="&#xbb;" horiz-adv-x="458" d="M78 107q-6 0 -7.5 3.5t2.5 8.5l121 159q2 4 1 6l-82 159q-3 5 -0.5 8.5t8.5 3.5h44q7 0 10 -6l83 -161q5 -6 -1 -14l-123 -161q-4 -6 -12 -6h-44zM223 107q-6 0 -7.5 3.5t1.5 8.5l122 159q1 3 0 6l-82 159q-2 5 0.5 8.5t7.5 3.5h44q8 0 11 -6l83 -161q4 -8 -2 -14 l-122 -161q-6 -6 -13 -6h-43z" />
<glyph unicode="&#xbc;" horiz-adv-x="643" d="M87 280q-9 0 -9 10l44 357q0 2 -1 3.5t-3 0.5l-21 -7q-4 -1 -6.5 -0.5t-3.5 2.5t0 6l2 18q1 7 8 12l25 15q5 3 13 3h33q11 0 9 -10l-49 -400q-2 -10 -11 -10h-30zM551 693q5 7 12 7h32q12 0 5 -12l-502 -681q-7 -7 -13 -7h-32q-13 0 -4 12zM621 159q10 0 8 -10l-3 -26 q-2 -10 -11 -10h-12q-3 0 -5 -4l-12 -99q-2 -10 -11 -10h-29q-10 0 -8 10l12 99q0 4 -4 4h-130q-10 0 -8 10l3 23l3 12l115 254q3 8 12 8h32q12 0 7 -11l-109 -245q-1 -1 0 -3t3 -2h78q4 0 4 4l10 81q2 10 11 10h29q11 0 9 -10l-10 -81q0 -4 3 -4h13z" />
<glyph unicode="&#xbd;" horiz-adv-x="645" d="M87 280q-9 0 -9 10l44 357q0 2 -1 3.5t-3 0.5l-21 -7q-4 -1 -6.5 -0.5t-3.5 2.5t0 6l2 18q1 7 8 12l25 15q5 3 13 3h33q11 0 9 -10l-49 -400q-2 -10 -11 -10h-30zM551 693q5 7 12 7h32q12 0 5 -12l-502 -681q-7 -7 -13 -7h-32q-13 0 -4 12zM484 49q-3 -5 3 -5h119 q10 0 8 -10l-3 -24q0 -10 -11 -10h-181q-10 0 -8 10l3 27q0 6 5 13q90 118 122 163q42 59 48 104q4 30 -7 46.5t-32 16.5q-20 0 -34.5 -16.5t-18.5 -44.5l-2 -19q-2 -10 -11 -10h-30q-11 0 -9 10l3 21q7 48 36.5 76t72.5 28t65.5 -28.5t15.5 -81.5q-7 -57 -50 -120 q-30 -45 -104 -146z" />
<glyph unicode="&#xbe;" horiz-adv-x="710" d="M618 693q5 7 12 7h32q13 0 4 -12l-501 -681q-7 -7 -13 -7h-32q-13 0 -4 12zM235 344q-11 -33 -37 -52t-62 -19q-39 0 -62 25t-23 65q0 13 2 33q1 10 11 10h30q9 0 8 -10q-1 -8 -1 -23q0 -55 41 -55q32 0 49 37q10 24 14 56q3 33 1 50q-5 46 -41 46q-7 0 -11 -3 q-9 -3 -13 2l-13 15q-4 7 1 14l90 114q2 3 -2 5h-119q-9 0 -9 10l3 24q2 10 11 10h171q10 0 8 -10l-3 -27q0 -6 -5 -13l-80 -103q-4 -4 2 -4q24 -4 39 -26t17 -54q2 -27 -1 -55q-4 -33 -16 -62zM688 159q10 0 8 -10l-3 -26q-2 -10 -11 -10h-12q-5 0 -5 -4l-12 -99 q-2 -10 -11 -10h-29q-10 0 -8 10l12 99q0 4 -4 4h-130q-10 0 -8 10l3 23l3 12l115 254q3 8 12 8h32q12 0 7 -11l-109 -245q-2 -5 3 -5h78q4 0 4 4l10 81q2 10 11 10h29q11 0 9 -10l-10 -81q0 -4 3 -4h13z" />
<glyph unicode="&#xbf;" horiz-adv-x="359" d="M232 498q20 0 32.5 -16.5t9.5 -40.5q-2 -23 -19.5 -40t-37.5 -17t-33 17t-11 40q3 24 20.5 40.5t38.5 16.5zM236 300q10 0 8 -10l-7 -59q-4 -36 -21 -64t-38.5 -48t-42.5 -39.5t-38 -48t-22 -64.5q-6 -50 12.5 -80.5t53.5 -30.5q39 0 65.5 30.5t33.5 81.5l3 31 q2 10 11 10l49 -3q11 0 9 -10l-4 -28q-10 -80 -58 -128.5t-118 -48.5q-67 0 -101.5 48t-24.5 128q6 46 23.5 82t39 57.5t43 40t37.5 40.5t19 48l6 55q2 10 11 10h51z" />
<glyph unicode="&#xc0;" horiz-adv-x="441" d="M320 783q5 -12 -8 -12h-37q-6 0 -11 7l-54 109q-5 12 7 12h46q7 0 10 -7zM329 0q-10 0 -10 9l-9 124q0 4 -4 4h-176q-5 0 -5 -4l-40 -124q-3 -9 -12 -9h-50q-11 0 -7 11l230 680q3 9 12 9h58q9 0 9 -9l64 -680q2 -11 -10 -11h-50zM147 199q-2 -4 2 -4h152q4 0 4 4 l-30 385q0 3 -1 3t-2 -3z" />
<glyph unicode="&#xc1;" horiz-adv-x="441" d="M385 899q13 0 4 -12l-81 -109q-5 -7 -13 -7h-36q-13 0 -6 12l74 109q5 7 12 7h46zM329 0q-10 0 -10 9l-9 124q0 4 -4 4h-176q-5 0 -5 -4l-40 -124q-3 -9 -12 -9h-50q-11 0 -7 11l230 680q3 9 12 9h58q9 0 9 -9l64 -680q2 -11 -10 -11h-50zM147 199q-2 -4 2 -4h152 q4 0 4 4l-30 385q0 3 -1 3t-2 -3z" />
<glyph unicode="&#xc2;" horiz-adv-x="441" d="M306 844q0 2 -2 2t-3 -2l-51 -73q-7 -7 -13 -7h-41q-12 0 -5 12l77 103q5 7 12 7h56q6 0 11 -7l53 -103q2 -4 -0.5 -8t-7.5 -4h-41q-7 0 -11 7zM329 0q-10 0 -10 9l-9 124q0 4 -4 4h-176q-5 0 -5 -4l-40 -124q-3 -9 -12 -9h-50q-11 0 -7 11l230 680q3 9 12 9h58q9 0 9 -9 l64 -680q2 -11 -10 -11h-50zM147 199q-2 -4 2 -4h152q4 0 4 4l-30 385q0 3 -1 3t-2 -3z" />
<glyph unicode="&#xc3;" horiz-adv-x="441" d="M268 830q-27 0 -47 -26q-8 -9 -14 -3l-16 13q-7 7 -2 14q32 52 80 52q21 0 54 -23q25 -21 41 -21q25 0 45 28q5 10 14 4l16 -12q7 -6 2 -14q-33 -54 -83 -54q-20 0 -50 22q-27 20 -40 20zM329 0q-10 0 -10 9l-9 124q0 4 -4 4h-176q-5 0 -5 -4l-40 -124q-3 -9 -12 -9h-50 q-11 0 -7 11l230 680q3 9 12 9h58q9 0 9 -9l64 -680q2 -11 -10 -11h-50zM147 199q-2 -4 2 -4h152q4 0 4 4l-30 385q0 3 -1 3t-2 -3z" />
<glyph unicode="&#xc4;" horiz-adv-x="441" d="M235 788q-19 0 -29.5 13t-7.5 34q2 20 16 33t33 13q18 0 27.5 -13t7.5 -33q-2 -21 -15 -34t-32 -13zM363 788q-20 0 -30.5 13t-7.5 34q2 20 16 33t33 13q18 0 28 -13t8 -33q-2 -21 -15.5 -34t-31.5 -13zM329 0q-10 0 -10 9l-9 124q0 4 -4 4h-176q-5 0 -5 -4l-40 -124 q-3 -9 -12 -9h-50q-11 0 -7 11l230 680q3 9 12 9h58q9 0 9 -9l64 -680q2 -11 -10 -11h-50zM147 199q-2 -4 2 -4h152q4 0 4 4l-30 385q0 3 -1 3t-2 -3z" />
<glyph unicode="&#xc5;" horiz-adv-x="441" d="M295 766q-41 0 -65.5 30t-19.5 73t37.5 73t72.5 30q41 0 65.5 -30t19.5 -73t-37 -73t-73 -30zM315 934q-25 0 -44.5 -18.5t-23.5 -46.5q-3 -27 12.5 -45.5t40.5 -18.5t44.5 18.5t23.5 45.5q3 28 -12.5 46.5t-40.5 18.5zM329 0q-10 0 -10 9l-9 124q0 4 -4 4h-176 q-5 0 -5 -4l-40 -124q-3 -9 -12 -9h-50q-11 0 -7 11l230 680q3 9 12 9h58q9 0 9 -9l64 -680q2 -11 -10 -11h-50zM147 199q-2 -4 2 -4h152q4 0 4 4l-30 385q0 3 -1 3t-2 -3z" />
<glyph unicode="&#xc6;" horiz-adv-x="700" d="M721 648q-2 -10 -11 -10h-225q-3 0 -5 -4l-30 -248q0 -4 3 -4h143q10 0 8 -10l-5 -43q-2 -10 -11 -10h-142q-5 0 -5 -4l-30 -249q-2 -4 3 -4h225q9 0 9 -10l-6 -42q0 -10 -11 -10h-288q-10 0 -8 10l15 123q0 4 -3 4h-187q-2 0 -4 -3l-68 -126q-3 -8 -11 -8h-52 q-13 0 -6 12l372 680q4 8 12 8h314q11 0 9 -10zM191 200q-3 -5 3 -5h160q4 0 4 4l48 392q1 3 -1 3t-3 -2z" />
<glyph unicode="&#xc7;" horiz-adv-x="433" d="M428 519q0 -10 -10 -10l-51 -3q-9 0 -9 10l3 25q6 47 -17 76t-66 29t-73 -29t-36 -76l-47 -382q-5 -47 17.5 -76t65.5 -29q44 0 74 29t35 76l3 25q2 10 11 10l50 -3q11 0 9 -10l-2 -16q-9 -70 -51 -115.5t-105 -54.5q-5 -2 -2 -5q42 -53 22 -115q-13 -41 -45.5 -52.5 t-64.5 -3.5q-7 2 -6 12l6 21q3 10 13 7q41 -8 53 36q13 48 -30 96q0 2 -4 2q-62 9 -93.5 55t-23.5 117l46 371q10 78 60.5 125t125.5 47t114.5 -46.5t30.5 -125.5z" />
<glyph unicode="&#xc8;" horiz-adv-x="416" d="M325 794q5 -12 -8 -12h-37q-6 0 -10 7l-55 109q-5 12 7 12h46q6 0 11 -7zM437 648q0 -10 -10 -10h-225q-5 0 -5 -4l-30 -248q-2 -4 3 -4h142q10 0 8 -10l-5 -43q-2 -10 -11 -10h-142q-4 0 -4 -4l-31 -249q0 -4 4 -4h225q10 0 8 -10l-5 -42q-2 -10 -11 -10h-288 q-10 0 -8 10l83 680q2 10 11 10h288q9 0 9 -10z" />
<glyph unicode="&#xc9;" horiz-adv-x="416" d="M390 910q13 0 4 -12l-81 -109q-5 -7 -12 -7h-37q-14 0 -5 12l73 109q5 7 13 7h45zM437 648q0 -10 -10 -10h-225q-5 0 -5 -4l-30 -248q-2 -4 3 -4h142q10 0 8 -10l-5 -43q-2 -10 -11 -10h-142q-4 0 -4 -4l-31 -249q0 -4 4 -4h225q10 0 8 -10l-5 -42q-2 -10 -11 -10h-288 q-10 0 -8 10l83 680q2 10 11 10h288q9 0 9 -10z" />
<glyph unicode="&#xca;" horiz-adv-x="416" d="M312 855q-1 1 -3 1t-3 -1l-51 -73q-5 -7 -12 -7h-42q-13 0 -4 12l76 103q7 7 13 7h55q6 0 11 -7l53 -103q2 -5 0 -8.5t-8 -3.5h-41q-6 0 -11 7zM437 648q0 -10 -10 -10h-225q-5 0 -5 -4l-30 -248q-2 -4 3 -4h142q10 0 8 -10l-5 -43q-2 -10 -11 -10h-142q-4 0 -4 -4 l-31 -249q0 -4 4 -4h225q10 0 8 -10l-5 -42q-2 -10 -11 -10h-288q-10 0 -8 10l83 680q2 10 11 10h288q9 0 9 -10z" />
<glyph unicode="&#xcb;" horiz-adv-x="416" d="M241 799q-20 0 -30.5 13t-7.5 34q2 20 16 33t33 13q18 0 27.5 -13t7.5 -33q-2 -21 -15 -34t-31 -13zM368 799q-19 0 -30 13t-8 34q2 20 16 33t33 13q18 0 28 -13t8 -33q-2 -21 -15.5 -34t-31.5 -13zM437 648q0 -10 -10 -10h-225q-5 0 -5 -4l-30 -248q-2 -4 3 -4h142 q10 0 8 -10l-5 -43q-2 -10 -11 -10h-142q-4 0 -4 -4l-31 -249q0 -4 4 -4h225q10 0 8 -10l-5 -42q-2 -10 -11 -10h-288q-10 0 -8 10l83 680q2 10 11 10h288q9 0 9 -10z" />
<glyph unicode="&#xcc;" horiz-adv-x="209" d="M205 794q5 -12 -8 -12h-37q-6 0 -11 7l-54 109q-5 12 7 12h46q6 0 10 -7zM60 0q-10 0 -8 10l83 680q2 10 11 10h50q10 0 8 -10l-83 -680q-2 -10 -11 -10h-50z" />
<glyph unicode="&#xcd;" horiz-adv-x="209" d="M144 782q-15 0 -6 12l74 109q5 7 12 7h46q13 0 4 -12l-81 -109q-5 -7 -13 -7h-36zM60 0q-10 0 -8 10l83 680q2 10 11 10h50q10 0 8 -10l-83 -680q-2 -10 -11 -10h-50z" />
<glyph unicode="&#xce;" horiz-adv-x="209" d="M81 775q-12 0 -5 12l77 103q5 7 12 7h56q7 0 10 -7l54 -103q2 -4 -0.5 -8t-7.5 -4h-41q-8 0 -11 7l-34 73q0 1 -2.5 1t-3.5 -1l-50 -73q-7 -7 -13 -7h-41zM60 0q-10 0 -8 10l83 680q2 10 11 10h50q10 0 8 -10l-83 -680q-2 -10 -11 -10h-50z" />
<glyph unicode="&#xcf;" horiz-adv-x="209" d="M120 799q-19 0 -29.5 13t-7.5 34q2 20 16 33t33 13q18 0 27.5 -13t7.5 -33q-3 -21 -15.5 -34t-31.5 -13zM247 799q-19 0 -29.5 13t-7.5 34q2 20 16 33t33 13q18 0 28 -13t8 -33q-2 -21 -15.5 -34t-32.5 -13zM60 0q-10 0 -8 10l83 680q2 10 11 10h50q10 0 8 -10l-83 -680 q-2 -10 -11 -10h-50z" />
<glyph unicode="&#xd0;" horiz-adv-x="494" d="M337 700q75 0 113 -50.5t28 -135.5l-40 -328q-10 -85 -61 -135.5t-126 -50.5h-149q-9 0 -9 10l41 329q0 4 -4 4h-28q-10 0 -8 10l3 26q2 10 11 10h28q4 0 4 4l37 297q2 10 11 10h149zM369 189l39 322q8 59 -13.5 93t-65.5 34h-86q-4 0 -4 -4l-30 -241q0 -4 4 -4h72 q11 0 9 -10l-3 -26q-2 -10 -11 -10h-73q-4 0 -4 -4l-34 -273q0 -4 4 -4l85 1q43 0 73 34t38 92z" />
<glyph unicode="&#xd1;" horiz-adv-x="478" d="M378 799q-19 0 -49 22q-27 20 -40 20q-27 0 -47 -26q-8 -9 -14 -3l-16 13q-7 7 -2 14q32 52 80 52q22 0 53 -23q27 -21 41 -21q26 0 45 28q6 9 15 4l16 -12q7 -6 -3 -20q-32 -48 -79 -48zM60 0q-10 0 -8 10l83 680q2 10 11 10h51q9 0 10 -8l133 -504q1 -3 3 -3t2 3 l62 502q0 10 11 10h48q9 0 9 -10l-84 -680q-2 -10 -11 -10h-51q-9 0 -10 8l-133 504q0 4 -3 2q-1 -1 -2 -3l-60 -501q-2 -10 -11 -10h-50z" />
<glyph unicode="&#xd2;" horiz-adv-x="442" d="M320 785q5 -12 -8 -12h-37q-7 0 -10 7l-55 109q-5 12 7 12h46q6 0 11 -7zM200 -8q-74 0 -114.5 48t-31.5 127l45 366q10 78 62.5 126.5t126.5 48.5q75 0 116 -48t31 -127l-45 -366q-10 -79 -62.5 -127t-127.5 -48zM207 54q45 0 76.5 30.5t37.5 78.5l46 373q5 49 -19 79.5 t-68 30.5q-43 0 -74 -30.5t-37 -79.5l-46 -373q-6 -48 17.5 -78.5t66.5 -30.5z" />
<glyph unicode="&#xd3;" horiz-adv-x="442" d="M259 773q-14 0 -5 12l73 109q5 7 13 7h45q13 0 4 -12l-81 -109q-5 -7 -12 -7h-37zM200 -8q-74 0 -114.5 48t-31.5 127l45 366q10 78 62.5 126.5t126.5 48.5q75 0 116 -48t31 -127l-45 -366q-10 -79 -62.5 -127t-127.5 -48zM207 54q45 0 76.5 30.5t37.5 78.5l46 373 q5 49 -19 79.5t-68 30.5q-43 0 -74 -30.5t-37 -79.5l-46 -373q-6 -48 17.5 -78.5t66.5 -30.5z" />
<glyph unicode="&#xd4;" horiz-adv-x="442" d="M196 766q-13 0 -4 12l76 103q7 7 13 7h55q6 0 11 -7l53 -103q2 -4 0 -8t-8 -4h-41q-6 0 -11 7l-33 73q-1 2 -3 2t-3 -2l-51 -73q-5 -7 -12 -7h-42zM200 -8q-74 0 -114.5 48t-31.5 127l45 366q10 78 62.5 126.5t126.5 48.5q75 0 116 -48t31 -127l-45 -366 q-10 -79 -62.5 -127t-127.5 -48zM207 54q45 0 76.5 30.5t37.5 78.5l46 373q5 49 -19 79.5t-68 30.5q-43 0 -74 -30.5t-37 -79.5l-46 -373q-6 -48 17.5 -78.5t66.5 -30.5z" />
<glyph unicode="&#xd5;" horiz-adv-x="442" d="M358 790q-20 0 -50 22q-27 20 -40 20q-26 0 -47 -26q-6 -9 -14 -3l-16 13q-6 6 -2 14q32 52 80 52q23 0 54 -23q25 -21 41 -21q25 0 45 28q6 10 14 4l16 -12q8 -6 -2 -20q-33 -48 -79 -48zM200 -8q-74 0 -114.5 48t-31.5 127l45 366q10 78 62.5 126.5t126.5 48.5 q75 0 116 -48t31 -127l-45 -366q-10 -79 -62.5 -127t-127.5 -48zM207 54q45 0 76.5 30.5t37.5 78.5l46 373q5 49 -19 79.5t-68 30.5q-43 0 -74 -30.5t-37 -79.5l-46 -373q-6 -48 17.5 -78.5t66.5 -30.5z" />
<glyph unicode="&#xd6;" horiz-adv-x="442" d="M236 790q-20 0 -30.5 13t-7.5 34q2 20 16 33t33 13q18 0 27.5 -13t7.5 -33q-2 -21 -15 -34t-31 -13zM363 790q-19 0 -30 13t-8 34q2 20 16 33t33 13q18 0 28 -13t8 -33q-2 -21 -15.5 -34t-31.5 -13zM200 -8q-74 0 -114.5 48t-31.5 127l45 366q10 78 62.5 126.5 t126.5 48.5q75 0 116 -48t31 -127l-45 -366q-10 -79 -62.5 -127t-127.5 -48zM207 54q45 0 76.5 30.5t37.5 78.5l46 373q5 49 -19 79.5t-68 30.5q-43 0 -74 -30.5t-37 -79.5l-46 -373q-6 -48 17.5 -78.5t66.5 -30.5z" />
<glyph unicode="&#xd7;" horiz-adv-x="359" d="M355 433q5 -7 -2 -14l-114 -104q-3 -3 0 -6l88 -104q5 -7 -2 -14l-27 -26q-9 -7 -14 0l-88 104q-3 3 -6 0l-113 -104q-9 -7 -14 0l-21 25q-6 6 1 14l114 104q3 4 1 6l-88 104q-6 6 1 14l29 26q7 7 13 0l88 -104q2 -3 5 0l114 104q7 7 14 0z" />
<glyph unicode="&#xd8;" horiz-adv-x="475" d="M481 745q12 0 7 -12l-55 -102q-1 -3 0 -6q17 -37 11 -92l-45 -366q-10 -78 -62.5 -126.5t-127.5 -48.5q-56 0 -93 28q-4 1 -6 -2l-26 -49q-3 -8 -11 -8h-30q-12 0 -7 12l44 82q1 2 -1 6q-23 46 -16 106l45 366q10 78 62 126.5t126 48.5q63 0 104 -35q4 -4 6 1l33 63 q3 8 11 8h31zM132 164q-1 -3 1 -3t3 2l229 434q2 4 0 6q-22 43 -76 43q-44 0 -75 -30.5t-37 -79.5zM329 163l42 340q1 2 -1 3t-4 -2l-217 -414q-2 -3 0 -5q22 -31 67 -31q44 0 76 30.5t37 78.5z" />
<glyph unicode="&#xd9;" horiz-adv-x="462" d="M331 794q5 -12 -8 -12h-37q-6 0 -11 7l-54 109q-5 12 7 12h46q6 0 11 -7zM210 -8q-74 0 -113.5 53t-29.5 140l62 505q2 10 11 10h50q10 0 8 -10l-63 -513q-7 -55 16 -89t66 -34q44 0 75.5 34t38.5 89l63 513q2 10 11 10h50q10 0 8 -10l-62 -505q-10 -87 -63 -140 t-128 -53z" />
<glyph unicode="&#xda;" horiz-adv-x="462" d="M270 782q-13 0 -6 12l74 109q5 7 12 7h46q13 0 4 -12l-81 -109q-5 -7 -12 -7h-37zM210 -8q-74 0 -113.5 53t-29.5 140l62 505q2 10 11 10h50q10 0 8 -10l-63 -513q-7 -55 16 -89t66 -34q44 0 75.5 34t38.5 89l63 513q2 10 11 10h50q10 0 8 -10l-62 -505q-10 -87 -63 -140 t-128 -53z" />
<glyph unicode="&#xdb;" horiz-adv-x="462" d="M207 775q-12 0 -5 12l77 103q5 7 13 7h55q6 0 11 -7l53 -103q2 -4 -0.5 -8t-7.5 -4h-41q-6 0 -11 7l-34 73q0 1 -2 1t-3 -1l-51 -73q-5 -7 -13 -7h-41zM210 -8q-74 0 -113.5 53t-29.5 140l62 505q2 10 11 10h50q10 0 8 -10l-63 -513q-7 -55 16 -89t66 -34q44 0 75.5 34 t38.5 89l63 513q2 10 11 10h50q10 0 8 -10l-62 -505q-10 -87 -63 -140t-128 -53z" />
<glyph unicode="&#xdc;" horiz-adv-x="462" d="M247 799q-20 0 -30.5 13t-7.5 34q2 20 16 33t33 13q18 0 27.5 -13t7.5 -33q-2 -21 -15 -34t-31 -13zM374 799q-20 0 -30.5 13t-7.5 34q2 20 16 33t33 13q18 0 28 -13t8 -33q-2 -21 -15.5 -34t-31.5 -13zM210 -8q-74 0 -113.5 53t-29.5 140l62 505q2 10 11 10h50 q10 0 8 -10l-63 -513q-7 -55 16 -89t66 -34q44 0 75.5 34t38.5 89l63 513q2 10 11 10h50q10 0 8 -10l-62 -505q-10 -87 -63 -140t-128 -53z" />
<glyph unicode="&#xdd;" horiz-adv-x="411" d="M244 771q-14 0 -5 12l73 109q7 7 13 7h45q12 0 5 -12l-82 -109q-5 -7 -12 -7h-37zM162 1q-10 0 -8 10l36 299v5l-89 373q-2 12 9 12h53q8 0 10 -8l59 -293q1 -2 3 -2t3 2l131 293q5 8 13 8h52q11 0 6 -12l-179 -373q-2 -2 -2 -5l-36 -299q-2 -10 -11 -10h-50z" />
<glyph unicode="&#xde;" horiz-adv-x="429" d="M286 544q71 0 108 -53.5t26 -140.5q-10 -86 -59 -138.5t-119 -52.5h-100q-3 0 -5 -4l-17 -145q-2 -10 -11 -10h-50q-10 0 -8 10l83 680q2 10 11 10h50q10 0 8 -10l-17 -142q-2 -4 3 -4h97zM236 217q44 0 76 35.5t39 95.5q7 61 -15.5 97.5t-66.5 36.5h-88q-4 0 -4 -4 l-32 -257q0 -4 4 -4h87z" />
<glyph unicode="&#xdf;" horiz-adv-x="417" d="M49 0q-10 0 -8 10l61 500q12 94 57 146.5t115 52.5q71 0 106.5 -50t27.5 -135q-13 -114 -86 -151q-5 -2 0 -5q32 -20 45.5 -65.5t6.5 -108.5q-11 -91 -61.5 -142.5t-129.5 -51.5h-28q-10 0 -8 10l5 41q0 10 11 10l29 1q47 1 77 37t38 102t-9.5 102t-58.5 38h-29 q-11 0 -9 10l5 38q2 10 11 10h29q38 0 62.5 32t30.5 89q6 60 -13 93.5t-58 33.5q-38 0 -63.5 -33.5t-32.5 -94.5l-62 -509q-2 -10 -11 -10h-50z" />
<glyph unicode="&#xe0;" d="M281 603q5 -12 -9 -12h-36q-8 0 -11 7l-55 109q-5 12 8 12h45q6 0 11 -7zM324 496q2 10 11 10h49q9 0 9 -10l-60 -486q-2 -10 -11 -10h-49q-11 0 -9 10l4 29q0 7 -5 2q-40 -49 -102 -49q-57 0 -87 42.5t-25 110.5q3 37 13 111q7 65 14 108q10 67 50.5 108.5t98.5 41.5 q63 0 90 -48q5 -5 5 2zM189 54q35 0 61 27.5t32 72.5l24 198q5 45 -14 72.5t-54 27.5q-38 0 -64.5 -27.5t-31.5 -72.5q-3 -21 -12 -99l-12 -99q-6 -44 14 -72t57 -28z" />
<glyph unicode="&#xe1;" d="M345 719q12 0 5 -12l-82 -109q-5 -7 -12 -7h-37q-14 0 -5 12l73 109q7 7 13 7h45zM324 496q2 10 11 10h49q9 0 9 -10l-60 -486q-2 -10 -11 -10h-49q-11 0 -9 10l4 29q0 7 -5 2q-40 -49 -102 -49q-57 0 -87 42.5t-25 110.5q3 37 13 111q7 65 14 108q10 67 50.5 108.5 t98.5 41.5q63 0 90 -48q5 -5 5 2zM189 54q35 0 61 27.5t32 72.5l24 198q5 45 -14 72.5t-54 27.5q-38 0 -64.5 -27.5t-31.5 -72.5q-3 -21 -12 -99l-12 -99q-6 -44 14 -72t57 -28z" />
<glyph unicode="&#xe2;" d="M267 664q-1 2 -3 2t-3 -2l-51 -73q-5 -7 -12 -7h-42q-13 0 -4 12l76 103q7 7 13 7h55q8 0 11 -7l53 -103q2 -4 0 -8t-8 -4h-41q-7 0 -10 7zM324 496q2 10 11 10h49q9 0 9 -10l-60 -486q-2 -10 -11 -10h-49q-11 0 -9 10l4 29q0 7 -5 2q-40 -49 -102 -49q-57 0 -87 42.5 t-25 110.5q3 37 13 111q7 65 14 108q10 67 50.5 108.5t98.5 41.5q63 0 90 -48q5 -5 5 2zM189 54q35 0 61 27.5t32 72.5l24 198q5 45 -14 72.5t-54 27.5q-38 0 -64.5 -27.5t-31.5 -72.5q-3 -21 -12 -99l-12 -99q-6 -44 14 -72t57 -28z" />
<glyph unicode="&#xe3;" d="M228 650q-26 0 -47 -26q-6 -9 -14 -3l-15 13q-7 6 -3 14q32 52 81 52q22 0 53 -23q25 -21 41 -21q25 0 45 28q6 10 14 4l16 -12q8 -5 2 -14q-33 -54 -83 -54q-18 0 -50 22q-27 20 -40 20zM324 496q2 10 11 10h49q9 0 9 -10l-60 -486q-2 -10 -11 -10h-49q-11 0 -9 10l4 29 q0 7 -5 2q-40 -49 -102 -49q-57 0 -87 42.5t-25 110.5q3 37 13 111q7 65 14 108q10 67 50.5 108.5t98.5 41.5q63 0 90 -48q5 -5 5 2zM189 54q35 0 61 27.5t32 72.5l24 198q5 45 -14 72.5t-54 27.5q-38 0 -64.5 -27.5t-31.5 -72.5q-3 -21 -12 -99l-12 -99q-6 -44 14 -72 t57 -28z" />
<glyph unicode="&#xe4;" d="M196 608q-19 0 -29.5 13t-8.5 34q2 20 16 33t33 13t28.5 -13t6.5 -33q-2 -21 -15 -34t-31 -13zM323 608q-19 0 -29.5 13t-8.5 34q2 20 16 33t33 13t29 -13t7 -33q-2 -21 -15.5 -34t-31.5 -13zM324 496q2 10 11 10h49q9 0 9 -10l-60 -486q-2 -10 -11 -10h-49q-11 0 -9 10 l4 29q0 7 -5 2q-40 -49 -102 -49q-57 0 -87 42.5t-25 110.5q3 37 13 111q7 65 14 108q10 67 50.5 108.5t98.5 41.5q63 0 90 -48q5 -5 5 2zM189 54q35 0 61 27.5t32 72.5l24 198q5 45 -14 72.5t-54 27.5q-38 0 -64.5 -27.5t-31.5 -72.5q-3 -21 -12 -99l-12 -99q-6 -44 14 -72 t57 -28z" />
<glyph unicode="&#xe5;" d="M255 586q-41 0 -65.5 30t-19.5 73t37.5 73t73.5 30t65.5 -30t19.5 -73t-37 -73t-74 -30zM276 754q-25 0 -45 -19t-23 -46q-4 -27 11.5 -45.5t40.5 -18.5t45 18.5t23 45.5q4 27 -11.5 46t-40.5 19zM324 496q2 10 11 10h49q9 0 9 -10l-60 -486q-2 -10 -11 -10h-49 q-11 0 -9 10l4 29q0 7 -5 2q-40 -49 -102 -49q-57 0 -87 42.5t-25 110.5q3 37 13 111q7 65 14 108q10 67 50.5 108.5t98.5 41.5q63 0 90 -48q5 -5 5 2zM189 54q35 0 61 27.5t32 72.5l24 198q5 45 -14 72.5t-54 27.5q-38 0 -64.5 -27.5t-31.5 -72.5q-3 -21 -12 -99l-12 -99 q-6 -44 14 -72t57 -28z" />
<glyph unicode="&#xe6;" horiz-adv-x="631" d="M147 -8q-130 0 -112 142q18 155 184 155h74q4 0 4 4l6 49q6 51 -11.5 80.5t-57.5 29.5q-31 0 -57 -19.5t-33 -51.5q-3 -10 -12 -10l-49 3q-10 0 -8 10q11 59 58 94.5t108 35.5q76 0 106 -68q2 -5 5 0q46 68 130 68q67 0 103.5 -42.5t28.5 -110.5l-15 -122q-2 -10 -11 -10 h-222q-3 0 -5 -4l-9 -76q-5 -39 15.5 -65t56.5 -26q30 0 54 18.5t36 48.5q5 9 12 8l47 -5q11 -2 8 -11q-16 -58 -58.5 -91.5t-102.5 -33.5q-47 0 -78 21.5t-39 53.5q-1 2 -3 2q-17 -35 -59.5 -56t-93.5 -21zM370 293q-2 -4 3 -4h159q4 0 4 4l8 63q5 43 -14.5 69.5 t-56.5 26.5t-64 -26.5t-32 -69.5zM171 50q39 0 70.5 25t37.5 70l9 79q2 4 -3 4h-69q-46 0 -76 -23t-36 -69q-5 -43 14 -64.5t53 -21.5z" />
<glyph unicode="&#xe7;" horiz-adv-x="390" d="M378 365q0 -10 -10 -10l-50 -2q-9 0 -9 9l1 8q5 33 -16 57.5t-58 24.5t-63 -26.5t-31 -69.5l-26 -206q-5 -43 15 -69.5t56 -26.5t63 24.5t32 57.5v7q2 10 11 10l50 -1q10 0 8 -10l-1 -11q-7 -52 -44.5 -89.5t-94.5 -46.5q-5 -2 -3 -5q43 -54 23 -115q-13 -41 -45.5 -52.5 t-65.5 -3.5q-8 3 -5 12l6 21q2 10 12 7q42 -8 54 36q13 48 -30 96q-1 2 -4 2q-57 8 -85.5 49t-20.5 103l26 216q8 68 55 110.5t116 42.5q68 0 105.5 -40.5t30.5 -98.5z" />
<glyph unicode="&#xe8;" horiz-adv-x="395" d="M277 597q5 -12 -8 -12h-37q-6 0 -11 7l-54 109q-5 12 7 12h45q7 0 11 -7zM362 236q-2 -10 -11 -10h-221q-5 0 -5 -4l-9 -73q-5 -42 15 -68.5t56 -26.5q31 0 55 19t35 51q5 9 12 9l48 -2q11 0 7 -11q-14 -59 -57.5 -93.5t-107.5 -34.5q-69 0 -104.5 42t-27.5 111l26 216 q8 68 55 110.5t116 42.5q70 0 105.5 -42.5t27.5 -110.5zM236 452q-37 0 -63 -26.5t-31 -69.5l-9 -67q0 -4 4 -4h159q4 0 4 4l9 67q5 43 -15 69.5t-58 26.5z" />
<glyph unicode="&#xe9;" horiz-adv-x="395" d="M342 713q13 0 4 -12l-81 -109q-7 -7 -13 -7h-37q-5 0 -7 3.5t2 8.5l74 109q5 7 12 7h46zM362 236q-2 -10 -11 -10h-221q-5 0 -5 -4l-9 -73q-5 -42 15 -68.5t56 -26.5q31 0 55 19t35 51q5 9 12 9l48 -2q11 0 7 -11q-14 -59 -57.5 -93.5t-107.5 -34.5q-69 0 -104.5 42 t-27.5 111l26 216q8 68 55 110.5t116 42.5q70 0 105.5 -42.5t27.5 -110.5zM236 452q-37 0 -63 -26.5t-31 -69.5l-9 -67q0 -4 4 -4h159q4 0 4 4l9 67q5 43 -15 69.5t-58 26.5z" />
<glyph unicode="&#xea;" horiz-adv-x="395" d="M263 658q-2 4 -6 0l-50 -73q-7 -7 -13 -7h-42q-13 0 -4 12l77 103q5 7 12 7h56q7 0 10 -7l54 -103q2 -5 -0.5 -8.5t-8.5 -3.5h-40q-8 0 -11 7zM362 236q-2 -10 -11 -10h-221q-5 0 -5 -4l-9 -73q-5 -42 15 -68.5t56 -26.5q31 0 55 19t35 51q5 9 12 9l48 -2q11 0 7 -11 q-14 -59 -57.5 -93.5t-107.5 -34.5q-69 0 -104.5 42t-27.5 111l26 216q8 68 55 110.5t116 42.5q70 0 105.5 -42.5t27.5 -110.5zM236 452q-37 0 -63 -26.5t-31 -69.5l-9 -67q0 -4 4 -4h159q4 0 4 4l9 67q5 43 -15 69.5t-58 26.5z" />
<glyph unicode="&#xeb;" horiz-adv-x="395" d="M192 602q-19 0 -29.5 13t-8.5 34q3 20 17 33t33 13q18 0 27.5 -13t7.5 -33q-3 -21 -15.5 -34t-31.5 -13zM319 602q-19 0 -29.5 13t-8.5 34q3 20 17 33t33 13q18 0 28 -13t8 -33q-3 -21 -16 -34t-32 -13zM362 236q-2 -10 -11 -10h-221q-5 0 -5 -4l-9 -73q-5 -42 15 -68.5 t56 -26.5q31 0 55 19t35 51q5 9 12 9l48 -2q11 0 7 -11q-14 -59 -57.5 -93.5t-107.5 -34.5q-69 0 -104.5 42t-27.5 111l26 216q8 68 55 110.5t116 42.5q70 0 105.5 -42.5t27.5 -110.5zM236 452q-37 0 -63 -26.5t-31 -69.5l-9 -67q0 -4 4 -4h159q4 0 4 4l9 67q5 43 -15 69.5 t-58 26.5z" />
<glyph unicode="&#xec;" horiz-adv-x="182" d="M167 599q5 -12 -9 -12h-36q-8 0 -11 7l-55 109q-5 12 8 12h45q6 0 11 -7zM46 0q-11 0 -9 10l60 486q2 10 11 10h49q9 0 9 -10l-60 -486q-2 -10 -11 -10h-49z" />
<glyph unicode="&#xed;" horiz-adv-x="182" d="M105 587q-14 0 -5 12l73 109q7 7 13 7h45q12 0 5 -12l-82 -109q-5 -7 -12 -7h-37zM46 0q-11 0 -9 10l60 486q2 10 11 10h49q9 0 9 -10l-60 -486q-2 -10 -11 -10h-49z" />
<glyph unicode="&#xee;" horiz-adv-x="182" d="M42 580q-13 0 -4 12l76 103q7 7 13 7h55q8 0 11 -7l53 -103q2 -4 0 -8t-8 -4h-41q-7 0 -10 7l-34 73q-1 2 -3 2t-3 -2l-51 -73q-5 -7 -12 -7h-42zM46 0q-11 0 -9 10l60 486q2 10 11 10h49q9 0 9 -10l-60 -486q-2 -10 -11 -10h-49z" />
<glyph unicode="&#xef;" horiz-adv-x="182" d="M82 604q-19 0 -29.5 13t-8.5 34q2 20 16 33t33 13t28.5 -13t6.5 -33q-2 -21 -15 -34t-31 -13zM209 604q-19 0 -29.5 13t-8.5 34q2 20 16 33t33 13t29 -13t7 -33q-2 -21 -15.5 -34t-31.5 -13zM46 0q-11 0 -9 10l60 486q2 10 11 10h49q9 0 9 -10l-60 -486q-2 -10 -11 -10 h-49z" />
<glyph unicode="&#xf0;" horiz-adv-x="419" d="M427 630q0 -9 -9 -12l-69 -20q-3 -2 -2 -5q45 -105 31 -244l-26 -204q-8 -69 -55 -111t-117 -42q-69 0 -105 42t-28 111l25 204q8 67 53.5 110t107.5 43q51 0 78 -34q3 -2 4 2q-3 50 -26 107q-2 3 -5 2l-74 -21q-10 -4 -12 7l-2 16q-1 10 9 13l61 18q4 2 3 5 q-23 42 -46 71q-4 4 -1.5 8t8.5 4h45q7 0 11 -6q25 -32 40 -61q2 -4 5 -2l82 24q10 3 11 -7zM308 344q5 43 -15 69.5t-58 26.5q-37 0 -63.5 -26.5t-31.5 -69.5l-24 -194q-5 -43 15 -69.5t57 -26.5t64 26.5t32 69.5z" />
<glyph unicode="&#xf1;" horiz-adv-x="411" d="M239 641q-23 0 -41 -25q-8 -10 -15 -3l-12 12q-7 5 -2 13q29 53 71 53q18 0 47 -23q21 -21 36 -21q22 0 39 27q7 11 14 4l12 -11q7 -5 2 -13q-29 -55 -73 -55q-18 0 -44 22q-24 20 -34 20zM277 513q60 0 87 -42t18 -117l-42 -344q-2 -10 -11 -10h-50q-10 0 -8 10l41 338 q6 49 -11 76t-54 27q-38 0 -64 -29t-32 -79l-41 -333q-2 -10 -11 -10h-50q-10 0 -8 10l60 486q0 10 11 10h49q9 0 9 -10l-5 -33q0 -7 6 -1q40 51 106 51z" />
<glyph unicode="&#xf2;" horiz-adv-x="402" d="M278 597q5 -12 -8 -12h-37q-7 0 -11 7l-54 109q-5 12 7 12h45q8 0 11 -7zM180 -8q-69 0 -105 42t-28 111l26 216q8 68 55 110.5t117 42.5q69 0 105.5 -42.5t28.5 -110.5l-27 -216q-8 -69 -55 -111t-117 -42zM188 54q37 0 64 26.5t32 68.5l25 207q5 43 -15 69.5t-57 26.5 t-63.5 -26.5t-31.5 -69.5l-26 -207q-5 -42 15 -68.5t57 -26.5z" />
<glyph unicode="&#xf3;" horiz-adv-x="402" d="M216 585q-5 0 -7 3.5t2 8.5l74 109q5 7 12 7h46q13 0 4 -12l-81 -109q-7 -7 -13 -7h-37zM180 -8q-69 0 -105 42t-28 111l26 216q8 68 55 110.5t117 42.5q69 0 105.5 -42.5t28.5 -110.5l-27 -216q-8 -69 -55 -111t-117 -42zM188 54q37 0 64 26.5t32 68.5l25 207 q5 43 -15 69.5t-57 26.5t-63.5 -26.5t-31.5 -69.5l-26 -207q-5 -42 15 -68.5t57 -26.5z" />
<glyph unicode="&#xf4;" horiz-adv-x="402" d="M153 578q-13 0 -4 12l77 103q5 7 12 7h56q6 0 10 -7l54 -103q2 -5 -0.5 -8.5t-8.5 -3.5h-40q-7 0 -11 7l-34 73q-2 4 -6 0l-50 -73q-7 -7 -13 -7h-42zM180 -8q-69 0 -105 42t-28 111l26 216q8 68 55 110.5t117 42.5q69 0 105.5 -42.5t28.5 -110.5l-27 -216 q-8 -69 -55 -111t-117 -42zM188 54q37 0 64 26.5t32 68.5l25 207q5 43 -15 69.5t-57 26.5t-63.5 -26.5t-31.5 -69.5l-26 -207q-5 -42 15 -68.5t57 -26.5z" />
<glyph unicode="&#xf5;" horiz-adv-x="402" d="M315 602q-19 0 -49 22q-27 20 -40 20q-27 0 -47 -26q-8 -9 -14 -3l-16 13q-7 7 -2 14q32 52 80 52q22 0 53 -23q27 -21 41 -21q26 0 45 28q6 9 15 4l16 -12q7 -6 -3 -20q-32 -48 -79 -48zM180 -8q-69 0 -105 42t-28 111l26 216q8 68 55 110.5t117 42.5q69 0 105.5 -42.5 t28.5 -110.5l-27 -216q-8 -69 -55 -111t-117 -42zM188 54q37 0 64 26.5t32 68.5l25 207q5 43 -15 69.5t-57 26.5t-63.5 -26.5t-31.5 -69.5l-26 -207q-5 -42 15 -68.5t57 -26.5z" />
<glyph unicode="&#xf6;" horiz-adv-x="402" d="M193 602q-19 0 -29.5 13t-8.5 34q3 20 17 33t33 13q18 0 27.5 -13t7.5 -33q-3 -21 -16 -34t-31 -13zM320 602q-19 0 -29.5 13t-8.5 34q3 20 17 33t33 13q18 0 28 -13t8 -33q-3 -21 -16 -34t-32 -13zM180 -8q-69 0 -105 42t-28 111l26 216q8 68 55 110.5t117 42.5 q69 0 105.5 -42.5t28.5 -110.5l-27 -216q-8 -69 -55 -111t-117 -42zM188 54q37 0 64 26.5t32 68.5l25 207q5 43 -15 69.5t-57 26.5t-63.5 -26.5t-31.5 -69.5l-26 -207q-5 -42 15 -68.5t57 -26.5z" />
<glyph unicode="&#xf7;" horiz-adv-x="429" d="M246 426q-21 0 -33.5 15t-10.5 37q3 22 20 37t37 15q21 0 34.5 -15t10.5 -37q-2 -22 -19.5 -37t-38.5 -15zM58 298q-9 0 -9 10l5 35q0 10 11 10h347q10 0 8 -10l-4 -35q-2 -10 -11 -10h-347zM209 123q-21 0 -34 15t-10 37q2 21 19.5 36.5t37.5 15.5q21 0 34 -15.5 t11 -36.5q-3 -22 -20 -37t-38 -15z" />
<glyph unicode="&#xf8;" horiz-adv-x="417" d="M403 517q8 -6 2 -14l-30 -49q-1 -3 0 -6q19 -36 13 -87l-27 -216q-8 -69 -55 -111t-117 -42q-47 0 -79 20q-5 2 -6 -2l-20 -34q-5 -10 -14 -4l-29 19q-8 5 -3 14l29 47q2 2 0 6q-18 38 -11 87l26 216q8 68 55 110.5t116 42.5q48 0 79 -20q5 -2 6 2l21 35q6 10 14 4z M126 157q-1 -3 1 -3.5t4 1.5l165 273q1 4 0 5q-21 19 -50 19q-38 0 -64.5 -26.5t-31.5 -69.5zM318 351q0 3 -2 3.5t-3 -1.5l-167 -275q-1 -4 0 -5q21 -19 51 -19q37 0 64 26.5t32 68.5z" />
<glyph unicode="&#xf9;" horiz-adv-x="411" d="M279 589q5 -12 -8 -12h-37q-8 0 -11 7l-54 109q-7 12 7 12h45q7 0 11 -7zM325 496q0 10 11 10h49q9 0 9 -10l-60 -486q-2 -10 -11 -10h-49q-11 0 -9 10l4 34q1 3 -0.5 3t-3.5 -2q-37 -52 -104 -52q-58 0 -88 36.5t-21 110.5l44 356q2 10 11 10h49q9 0 9 -10l-42 -340 q-12 -101 65 -101q39 0 64.5 29t31.5 79z" />
<glyph unicode="&#xfa;" horiz-adv-x="411" d="M344 705q13 0 4 -12l-81 -109q-7 -7 -13 -7h-37q-5 0 -7 3.5t2 8.5l74 109q5 7 12 7h46zM325 496q0 10 11 10h49q9 0 9 -10l-60 -486q-2 -10 -11 -10h-49q-11 0 -9 10l4 34q1 3 -0.5 3t-3.5 -2q-37 -52 -104 -52q-58 0 -88 36.5t-21 110.5l44 356q2 10 11 10h49 q9 0 9 -10l-42 -340q-12 -101 65 -101q39 0 64.5 29t31.5 79z" />
<glyph unicode="&#xfb;" horiz-adv-x="411" d="M265 650q-1 2 -3 2t-3 -2l-50 -73q-7 -7 -13 -7h-42q-13 0 -4 12l77 103q5 7 12 7h55q8 0 11 -7l54 -103q2 -5 -0.5 -8.5t-8.5 -3.5h-40q-8 0 -11 7zM325 496q0 10 11 10h49q9 0 9 -10l-60 -486q-2 -10 -11 -10h-49q-11 0 -9 10l4 34q1 3 -0.5 3t-3.5 -2 q-37 -52 -104 -52q-58 0 -88 36.5t-21 110.5l44 356q2 10 11 10h49q9 0 9 -10l-42 -340q-12 -101 65 -101q39 0 64.5 29t31.5 79z" />
<glyph unicode="&#xfc;" horiz-adv-x="411" d="M194 594q-19 0 -29.5 13t-8.5 34q2 20 16.5 33t33.5 13q18 0 27.5 -13t7.5 -33q-3 -21 -16 -34t-31 -13zM321 594q-19 0 -29.5 13t-8.5 34q3 20 17 33t33 13q18 0 28 -13t8 -33q-3 -21 -16 -34t-32 -13zM325 496q0 10 11 10h49q9 0 9 -10l-60 -486q-2 -10 -11 -10h-49 q-11 0 -9 10l4 34q1 3 -0.5 3t-3.5 -2q-37 -52 -104 -52q-58 0 -88 36.5t-21 110.5l44 356q2 10 11 10h49q9 0 9 -10l-42 -340q-12 -101 65 -101q39 0 64.5 29t31.5 79z" />
<glyph unicode="&#xfd;" horiz-adv-x="356" d="M193 577q-14 0 -5 12l73 109q7 7 13 7h45q12 0 5 -12l-82 -109q-5 -7 -12 -7h-37zM-1 -200q-7 0 -5 10l5 41q2 10 6 10h5q44 0 65.5 26t47.5 110q1 1 1 3v3l-63 492q-2 11 10 11h52q10 0 10 -9l37 -393q0 -8 4 0l132 393q3 9 12 9l54 -1q11 0 7 -11l-201 -538 q-37 -97 -69.5 -126.5t-104.5 -29.5h-5z" />
<glyph unicode="&#xfe;" horiz-adv-x="404" d="M380 364q-4 -48 -12 -108l-15 -111q-11 -68 -51.5 -110.5t-97.5 -42.5q-64 0 -91 51q-3 2 -5 -2l-29 -231q0 -10 -10 -10h-50q-10 0 -8 10l108 880q0 10 11 10h49q9 0 9 -10l-28 -224q0 -6 4 -2q41 50 104 50q58 0 88 -41.5t24 -108.5zM191 54q37 0 64 28t32 72l12 99 q0 4 5 41t7 58q6 45 -14 72.5t-57 27.5q-36 0 -62 -27.5t-31 -72.5l-24 -198q-6 -45 13 -72.5t55 -27.5z" />
<glyph unicode="&#xff;" horiz-adv-x="356" d="M170 594q-19 0 -29.5 13t-8.5 34q2 20 16 33t33 13t28.5 -13t6.5 -33q-2 -21 -15 -34t-31 -13zM297 594q-19 0 -29.5 13t-8.5 34q2 20 16 33t33 13t29 -13t7 -33q-2 -21 -15.5 -34t-31.5 -13zM-1 -200q-7 0 -5 10l5 41q2 10 6 10h5q44 0 65.5 26t47.5 110q1 1 1 3v3 l-63 492q-2 11 10 11h52q10 0 10 -9l37 -393q0 -8 4 0l132 393q3 9 12 9l54 -1q11 0 7 -11l-201 -538q-37 -97 -69.5 -126.5t-104.5 -29.5h-5z" />
<glyph unicode="&#x152;" horiz-adv-x="666" d="M687 648q-2 -10 -11 -10h-224q-3 0 -5 -4l-30 -248q0 -4 3 -4h142q10 0 8 -10l-5 -43q-2 -10 -11 -10h-141q-5 0 -5 -4l-30 -249q-2 -4 3 -4h224q9 0 9 -10l-6 -42q0 -10 -10 -10h-288q-10 0 -8 10l3 28q1 2 -0.5 3t-3.5 -1q-48 -48 -116 -48q-64 0 -102 49t-29 126 l45 366q10 77 60 126t114 49q69 0 104 -48q3 -2 5 2l3 28q2 10 11 10h287q11 0 9 -10zM207 54q45 0 76.5 30.5t37.5 78.5l46 373q5 49 -19 79.5t-68 30.5q-43 0 -74 -30.5t-37 -79.5l-46 -373q-6 -48 17.5 -78.5t66.5 -30.5z" />
<glyph unicode="&#x153;" horiz-adv-x="638" d="M606 243q-2 -10 -11 -10h-222q-4 0 -4 -4l-10 -79q-5 -43 15 -69.5t57 -26.5q31 0 54.5 19.5t35.5 50.5q3 9 11 9l49 -2q4 0 6 -3.5t1 -7.5q-16 -59 -59 -93.5t-106 -34.5q-78 0 -109 66q-3 3 -6 0q-50 -66 -128 -66q-69 0 -105 42t-28 111l26 215q8 68 55 111t117 43 q76 0 111 -67q2 -3 5 0q49 67 126 67q69 0 105 -43t28 -111zM309 356q5 43 -15 69.5t-57 26.5t-63.5 -26.5t-31.5 -69.5l-26 -206q-5 -43 15 -69.5t57 -26.5q38 0 64.5 26.5t31.5 69.5zM479 452q-37 0 -63.5 -26.5t-31.5 -69.5l-8 -70q-2 -4 3 -4h159q4 0 4 4l9 70 q5 43 -15 69.5t-57 26.5z" />
<glyph unicode="&#x178;" horiz-adv-x="411" d="M221 788q-19 0 -29.5 13t-8.5 34q2 20 16 33t33 13t28.5 -13t6.5 -33q-2 -21 -15 -34t-31 -13zM348 788q-19 0 -29.5 13t-8.5 34q2 20 16 33t33 13t29 -13t7 -33q-2 -21 -15.5 -34t-31.5 -13zM162 1q-10 0 -8 10l36 299v5l-89 373q-2 12 9 12h53q8 0 10 -8l59 -293 q1 -2 3 -2t3 2l131 293q5 8 13 8h52q11 0 6 -12l-179 -373q-2 -2 -2 -5l-36 -299q-2 -10 -11 -10h-50z" />
<glyph unicode="&#x2c6;" horiz-adv-x="225" d="M64 570q-13 0 -4 12l76 103q7 7 13 7h55q8 0 11 -7l53 -103q3 -4 0.5 -8t-8.5 -4h-41q-7 0 -10 7l-34 73q-1 2 -3 2t-3 -2l-51 -73q-5 -7 -12 -7h-42z" />
<glyph unicode="&#x2dc;" horiz-adv-x="302" d="M252 594q-19 0 -49 22q-27 20 -41 20q-26 0 -46 -26q-8 -9 -14 -3l-16 13q-7 6 -2 14q32 52 80 52q22 0 53 -23q27 -21 41 -21q26 0 45 28q6 10 14 4l16 -12q8 -5 -2 -20q-32 -48 -79 -48z" />
<glyph unicode="&#x2000;" horiz-adv-x="486" />
<glyph unicode="&#x2001;" horiz-adv-x="972" />
<glyph unicode="&#x2002;" horiz-adv-x="486" />
<glyph unicode="&#x2003;" horiz-adv-x="972" />
<glyph unicode="&#x2004;" horiz-adv-x="324" />
<glyph unicode="&#x2005;" horiz-adv-x="243" />
<glyph unicode="&#x2006;" horiz-adv-x="162" />
<glyph unicode="&#x2007;" horiz-adv-x="162" />
<glyph unicode="&#x2008;" horiz-adv-x="121" />
<glyph unicode="&#x2009;" horiz-adv-x="194" />
<glyph unicode="&#x200a;" horiz-adv-x="54" />
<glyph unicode="&#x2010;" horiz-adv-x="304" d="M56 280q-9 0 -9 10l5 42q2 10 11 10h222q11 0 9 -10l-5 -42q-2 -10 -11 -10h-222z" />
<glyph unicode="&#x2011;" horiz-adv-x="304" d="M56 280q-9 0 -9 10l5 42q2 10 11 10h222q11 0 9 -10l-5 -42q-2 -10 -11 -10h-222z" />
<glyph unicode="&#x2012;" horiz-adv-x="304" d="M56 280q-9 0 -9 10l5 42q2 10 11 10h222q11 0 9 -10l-5 -42q-2 -10 -11 -10h-222z" />
<glyph unicode="&#x2013;" horiz-adv-x="361" d="M52 252q-10 0 -8 10l5 42q2 10 11 10h279q9 0 9 -10l-5 -42q-2 -10 -11 -10h-280z" />
<glyph unicode="&#x2014;" horiz-adv-x="574" d="M52 252q-10 0 -8 10l5 42q2 10 11 10h493q10 0 8 -10l-5 -42q-2 -10 -11 -10h-493z" />
<glyph unicode="&#x2018;" horiz-adv-x="119" d="M53 495q-11 0 -6 11l80 186q3 8 12 8h36q10 0 7 -11l-67 -185q-1 -9 -12 -9h-50z" />
<glyph unicode="&#x2019;" horiz-adv-x="119" d="M174 700q10 0 7 -11l-80 -186q-5 -8 -13 -8h-36q-11 0 -6 11l66 185q3 9 12 9h50z" />
<glyph unicode="&#x201a;" horiz-adv-x="582" d="M17 -79q-4 0 -6 3.5t-1 7.5l56 214q3 9 11 9h44q10 0 7 -11l-70 -214q-2 -9 -11 -9h-30z" />
<glyph unicode="&#x201c;" horiz-adv-x="243" d="M53 495q-11 0 -6 11l85 186q3 8 12 8h34q12 0 7 -11l-72 -185q-2 -9 -11 -9h-49zM173 495q-11 0 -6 11l84 186q3 8 12 8h34q13 0 8 -11l-71 -185q-4 -9 -12 -9h-49z" />
<glyph unicode="&#x201d;" horiz-adv-x="243" d="M177 700q10 0 7 -11l-84 -186q-5 -8 -13 -8h-34q-12 0 -7 11l71 185q2 9 12 9h48zM297 700q12 0 7 -11l-85 -186q-5 -8 -13 -8h-34q-12 0 -7 11l72 185q4 9 12 9h48z" />
<glyph unicode="&#x201e;" horiz-adv-x="231" d="M107 128q11 0 6 -11l-84 -186q-3 -8 -12 -8h-34q-11 0 -8 11l72 185q2 9 11 9h49zM227 128q10 0 7 -11l-85 -186q-5 -8 -13 -8h-34q-12 0 -7 11l72 185q2 9 12 9h48z" />
<glyph unicode="&#x2022;" horiz-adv-x="286" d="M143 151q-46 0 -75 34.5t-24 81.5q6 48 43 81.5t84 33.5q46 0 74.5 -33.5t22.5 -81.5q-5 -47 -42 -81.5t-83 -34.5z" />
<glyph unicode="&#x2026;" horiz-adv-x="624" d="M80 3q-22 0 -35 17t-10 42q3 24 20.5 41.5t38.5 17.5q22 0 36 -17t11 -42q-4 -25 -21.5 -42t-39.5 -17zM291 3q-22 0 -35 17t-10 42q3 24 21 41.5t39 17.5t35 -17.5t11 -41.5q-3 -25 -20.5 -42t-40.5 -17zM502 3q-22 0 -35 17t-10 42q3 24 20.5 41.5t38.5 17.5 t35.5 -17.5t10.5 -41.5q-3 -25 -20.5 -42t-39.5 -17z" />
<glyph unicode="&#x202f;" horiz-adv-x="194" />
<glyph unicode="&#x2039;" horiz-adv-x="300" d="M217 119q2 -5 0 -8.5t-8 -3.5h-44q-7 0 -10 6l-84 161q-3 7 2 14l123 161q4 6 12 6h44q6 0 7.5 -3.5t-2.5 -8.5l-121 -159q-2 -4 -1 -6z" />
<glyph unicode="&#x203a;" horiz-adv-x="317" d="M78 107q-6 0 -7.5 3.5t2.5 8.5l121 159q2 4 1 6l-82 159q-3 5 -0.5 8.5t8.5 3.5h44q7 0 10 -6l83 -161q5 -6 -1 -14l-123 -161q-4 -6 -12 -6h-44z" />
<glyph unicode="&#x205f;" horiz-adv-x="243" />
<glyph unicode="&#x20ac;" horiz-adv-x="471" d="M259 54q34 0 59 25t33 66q3 12 12 10l49 -8q10 -2 7 -11q-16 -67 -60.5 -105.5t-107.5 -38.5q-68 0 -104 47t-26 126l13 101q0 4 -4 4h-53q-9 0 -9 10l3 23q2 10 11 10h53q5 0 5 4l8 63q0 4 -4 4h-53q-9 0 -9 10l3 23q2 10 11 10h53q5 0 5 4l13 105q10 79 57 125.5 t115 46.5q63 0 99 -39t34 -107q0 -9 -11 -11l-50 -7q-4 -1 -6.5 2t-2.5 8q3 42 -16 67t-54 25q-37 0 -63.5 -29t-32.5 -76l-13 -110q-2 -4 3 -4h166q11 0 6 -11l-10 -24q-5 -8 -13 -8h-154q-3 0 -5 -4l-7 -63q-2 -4 3 -4h136q11 0 6 -12l-11 -23q-4 -8 -12 -8h-124 q-3 0 -5 -4l-13 -107q-5 -47 14 -76t56 -29z" />
<glyph unicode="&#x2122;" horiz-adv-x="500" d="M88 661q-9 0 -9 10l3 19q2 10 11 10h175q11 0 9 -10l-3 -19q0 -10 -10 -10h-64q-5 0 -5 -4l-36 -298q-2 -10 -11 -10h-25q-10 0 -8 10l36 298q2 4 -3 4h-60zM485 693q3 7 12 7h24q11 0 9 -10l-41 -331q0 -10 -11 -10h-23q-10 0 -8 10l31 256q1 2 0 3q-2 1 -5 -2l-57 -95 q-3 -7 -9 -7q-5 0 -6 7l-35 97q-3 2 -5 -2l-32 -257q0 -10 -11 -10h-24q-10 0 -8 10l40 331q2 10 11 10h25q10 0 11 -7l39 -110q1 -2 3 -2t3 2z" />
<glyph unicode="&#x25fc;" horiz-adv-x="505" d="M0 505h505v-505h-505v505z" />
</font>
</defs>
</svg>
