<?xml version="1.0" standalone="no"?>
<!DOCTYPE svg PUBLIC "-//W3C//DTD SVG 1.1//EN" "http://www.w3.org/Graphics/SVG/1.1/DTD/svg11.dtd" >
<svg xmlns="http://www.w3.org/2000/svg" xmlns:xlink="http://www.w3.org/1999/xlink" version="1.1">
<metadata></metadata>
<defs>
<font id="barlow_semi_condenseditalic" horiz-adv-x="468" >
<font-face units-per-em="1000" ascent="800" descent="-200" />
<missing-glyph horiz-adv-x="194" />
<glyph horiz-adv-x="0" />
<glyph horiz-adv-x="333" />
<glyph unicode="&#xd;" horiz-adv-x="194" />
<glyph unicode=" "  horiz-adv-x="194" />
<glyph unicode="&#x09;" horiz-adv-x="194" />
<glyph unicode="&#xa0;" horiz-adv-x="194" />
<glyph unicode="!" horiz-adv-x="280" d="M130 228q-9 0 -9 10l50 452q2 10 11 10h49q11 0 9 -10l-61 -452q-1 -10 -11 -10h-38zM119 4q-24 0 -38 17t-11 42q3 24 22 41.5t41 17.5q23 0 38 -17.5t12 -41.5q-3 -25 -21.5 -42t-42.5 -17z" />
<glyph unicode="&#x22;" horiz-adv-x="242" d="M83 488q-9 0 -8 10l15 186q2 10 11 10h48q9 0 9 -10l-31 -186q-1 -10 -11 -10h-33zM205 488q-9 0 -8 10l15 186q2 10 11 10h49q11 0 9 -10l-31 -186q-1 -10 -11 -10h-34z" />
<glyph unicode="#" horiz-adv-x="605" d="M578 439q-2 -10 -11 -10h-67q-5 0 -5 -4l-43 -159q-2 -4 2 -4h59q9 0 9 -10l-5 -42q-2 -10 -11 -10h-68q-5 0 -6 -4l-46 -171q-3 -9 -11 -9l-49 2q-11 0 -7 11l44 167q0 4 -3 4h-147q-5 0 -6 -4l-46 -171q-3 -9 -11 -9l-49 2q-11 0 -7 11l45 167q0 4 -3 4h-59q-9 0 -9 10 l6 42q0 10 11 10h67q5 0 6 4l42 159q0 4 -3 4h-59q-10 0 -8 10l6 43q1 10 11 10h68q5 0 5 4l46 171q3 9 11 9l49 -2q10 0 8 -11l-45 -167q0 -4 2 -4h148q5 0 5 4l46 171q3 9 11 9l50 -2q10 0 8 -11l-45 -167q0 -4 2 -4h59q10 0 8 -10zM377 262q5 0 6 4l42 159q0 4 -3 4h-147 q-5 0 -6 -4l-42 -159q-2 -4 2 -4h148z" />
<glyph unicode="$" horiz-adv-x="471" d="M427 176q-10 -78 -59 -127t-127 -56q-3 0 -5 -4l-6 -61q-2 -10 -11 -10h-29q-9 0 -9 10l9 62q0 4 -3 4q-70 10 -105.5 56.5t-26.5 118.5l4 33q0 10 11 10h47q9 0 9 -10l-3 -24q-7 -56 21.5 -90t83.5 -34q54 0 88.5 31.5t40.5 84.5q3 24 -1.5 42.5t-25 39.5t-32 29.5 t-50.5 35.5q-18 12 -27 19q-46 32 -70 54t-39.5 59t-9.5 85q10 74 54.5 119t114.5 54q4 0 4 4l8 67q0 10 11 10h28q10 0 8 -10l-9 -67q0 -4 3 -4q76 -7 113.5 -55t27.5 -125l-3 -28q-2 -10 -11 -10h-49q-10 0 -8 10l3 22q7 56 -21 90.5t-83 34.5q-50 0 -83 -29t-39 -81 q-3 -25 1.5 -43.5t23 -37t32.5 -28.5t52 -34q9 -6 14 -9q80 -53 111 -97t22 -111z" />
<glyph unicode="%" horiz-adv-x="791" d="M251 425q-58 0 -93 41.5t-27 100.5q7 59 52 100.5t103 41.5q57 0 91.5 -41.5t27.5 -100.5t-52 -100.5t-102 -41.5zM177 0q-6 0 -7.5 3.5t1.5 8.5l445 681q3 7 12 7h31q13 0 6 -12l-445 -681q-3 -7 -12 -7h-31zM256 467q40 0 71 29.5t36 70.5q5 42 -19 71t-63 29 q-40 0 -71.5 -29t-36.5 -71t19 -71t64 -29zM554 -9q-58 0 -92.5 41.5t-27.5 101.5q7 59 52 100t103 41q56 0 91 -41.5t28 -99.5q-7 -60 -52.5 -101.5t-101.5 -41.5zM559 33q39 0 70.5 29.5t35.5 71.5q5 41 -18.5 70t-63.5 29t-71 -29t-36 -70q-5 -43 19 -72t64 -29z" />
<glyph unicode="&#x26;" horiz-adv-x="589" d="M516 12q7 -12 -8 -12h-55q-7 0 -11 6q-22 33 -42 64q-2 3 -5 0q-87 -78 -187 -78q-80 0 -123 42t-34 121q8 68 48.5 117t108.5 97q4 2 1 5q-44 74 -56 108t-8 70q9 71 56 113.5t116 42.5q68 0 107 -42.5t30 -110.5q-7 -61 -45.5 -104.5t-106.5 -90.5q-3 -1 -1 -5l71 -113 l40 -62q3 -4 6 0q50 64 64 82q6 8 13 3l34 -22q8 -5 2 -14q-43 -60 -81 -102q-2 -3 0 -6q33 -55 66 -109zM310 643q-39 0 -65 -25t-31 -67q-3 -26 6 -52t45 -86q3 -3 6 -1q53 39 81 71t33 72q5 39 -16 63.5t-59 24.5zM225 53q67 3 137 68q4 3 1 6q-13 21 -28.5 46.5 t-20.5 33.5q-31 51 -69 109q0 3 -5 0q-52 -39 -82 -75t-37 -82q-7 -50 21 -78.5t83 -27.5z" />
<glyph unicode="'" horiz-adv-x="121" d="M84 493q-10 0 -9 10l15 185q2 10 11 10h52q10 0 8 -10l-30 -185q-1 -10 -11 -10h-36z" />
<glyph unicode="(" horiz-adv-x="234" d="M72 -104q-8 0 -11 7q-34 74 -46.5 182.5t2.5 239.5q15 127 56 241.5t95 189.5q4 7 12 7h47q12 0 5 -12q-47 -78 -84.5 -190.5t-52.5 -234.5q-13 -131 -3.5 -236t36.5 -182q3 -12 -8 -12h-48z" />
<glyph unicode=")" horiz-adv-x="234" d="M110 -97q-4 -7 -12 -7h-49q-12 0 -5 12q46 77 83.5 187.5t52.5 230.5q14 133 4.5 240t-36.5 185q-5 12 8 12h46q8 0 11 -7q35 -76 47.5 -186.5t-2.5 -244.5q-15 -124 -55.5 -236t-92.5 -186z" />
<glyph unicode="*" horiz-adv-x="368" d="M200 394q-11 0 -9 10l16 120q0 5 -5 3l-109 -62q-9 -6 -13 4l-9 23q-4 10 5 14l110 61q2 1 2 3t-1 3l-96 61q-6 5 -1 14l15 24q5 11 14 4l94 -63q5 -3 5 3l14 121q2 10 11 10h26q9 0 9 -10l-16 -121q-1 -6 4 -3l110 63q10 6 13 -4l10 -24q3 -8 -6 -14l-110 -61 q-2 -1 -2 -3t1 -3l95 -61q8 -5 2 -14l-15 -24q-7 -10 -14 -4l-94 63q-5 3 -5 -3l-14 -120q-2 -10 -11 -10h-26z" />
<glyph unicode="+" horiz-adv-x="457" d="M435 345q9 0 9 -10l-5 -38q-2 -10 -11 -10h-151q-3 0 -5 -4l-19 -155q0 -10 -11 -10h-37q-11 0 -9 10l19 155q0 4 -3 4h-152q-10 0 -8 10l5 38q0 10 11 10h151q4 0 4 4l20 159q2 10 11 10h38q10 0 8 -10l-19 -159q-2 -4 3 -4h151z" />
<glyph unicode="," horiz-adv-x="214" d="M31 -79q-11 0 -7 11l62 214q3 9 12 9h43q11 0 7 -11l-75 -214q-4 -9 -12 -9h-30z" />
<glyph unicode="-" horiz-adv-x="343" d="M60 280q-11 0 -9 10l5 42q2 10 11 10h254q11 0 9 -10l-5 -42q-2 -10 -11 -10h-254z" />
<glyph unicode="." horiz-adv-x="234" d="M96 3q-25 0 -39 17t-11 42q3 24 22.5 41.5t42.5 17.5q22 0 37 -17.5t12 -41.5q-3 -25 -22 -42t-42 -17z" />
<glyph unicode="/" horiz-adv-x="319" d="M17 0q-12 0 -7 11l280 681q3 8 11 8h48q12 0 7 -11l-278 -681q-5 -8 -12 -8h-49z" />
<glyph unicode="0" horiz-adv-x="473" d="M215 -10q-83 0 -127 52t-34 139l42 338q10 86 67 138t140 52q85 0 129.5 -52t33.5 -138l-41 -338q-10 -87 -67.5 -139t-142.5 -52zM223 52q53 0 89 34t43 90l43 347q7 56 -21 90t-81 34q-52 0 -88 -34t-43 -90l-43 -347q-7 -55 21 -89.5t80 -34.5z" />
<glyph unicode="1" horiz-adv-x="287" d="M207 697q5 3 13 3h52q9 0 9 -10l-84 -680q-2 -10 -11 -10h-49q-9 0 -9 10l76 613q0 5 -5 3l-98 -41q-5 -2 -8.5 0.5t-2.5 7.5l5 36q0 6 8 12z" />
<glyph unicode="2" horiz-adv-x="455" d="M39 0q-9 0 -9 10l6 44q0 5 5 13q152 183 230 280q91 116 99 184q6 52 -19.5 83.5t-72.5 31.5q-46 0 -78 -31.5t-38 -83.5l-4 -34q-2 -10 -11 -10h-50q-11 0 -9 10l5 40q12 77 65.5 124t129.5 47q77 0 118.5 -49t32.5 -128q-12 -89 -105 -208q-71 -90 -208 -256 q-3 -5 2 -5h264q10 0 8 -10l-5 -42q-2 -10 -11 -10h-345z" />
<glyph unicode="3" horiz-adv-x="449" d="M394 336q14 -50 5 -123q-9 -64 -30 -109q-52 -112 -172 -112q-65 0 -104.5 36t-45.5 98q-4 25 0 76q2 10 11 10h50q9 0 8 -10q-4 -38 0 -59q3 -42 26 -65.5t63 -23.5q72 0 106 78q14 36 20 85q7 59 -2 99q-17 71 -84 71q-15 0 -29 -7q-8 -2 -13 3l-21 28q-4 5 1 14 l176 208q2 1 1.5 3t-2.5 2h-242q-10 0 -8 10l5 42q2 10 11 10h322q10 0 8 -10l-5 -45q-2 -9 -6 -13l-166 -199q-2 -1 -1 -3t3 -2q93 0 115 -92z" />
<glyph unicode="4" horiz-adv-x="462" d="M424 256q9 0 9 -10l-6 -44q0 -10 -11 -10h-35q-5 0 -5 -4l-22 -178q0 -10 -11 -10h-49q-9 0 -9 10l22 178q2 4 -3 4h-256q-9 0 -9 10l5 38l1 4q1 5 2 8l227 440q4 8 12 8h54q12 0 5 -12l-218 -427q-1 -1 -0.5 -3t2.5 -2h183q4 0 4 4l20 158q0 10 10 10h50q10 0 8 -10 l-19 -158q0 -4 3 -4h36z" />
<glyph unicode="5" horiz-adv-x="447" d="M409 334q11 -53 3 -119q-6 -58 -29 -105q-23 -56 -68.5 -87t-104.5 -31q-65 0 -104.5 36t-45.5 101q-1 12 -1 37q0 10 10 10h51q8 0 8 -8v-4l1 -20q8 -89 89 -89q39 0 67.5 23.5t42.5 66.5q11 28 15 69q5 35 2 78q-7 81 -88 81q-78 0 -109 -68q0 -1 -1 -2l-1 -2 q-3 -7 -11 -7h-51q-11 0 -9 10l48 386q0 10 10 10h308q10 0 8 -10l-5 -42q0 -10 -11 -10h-244q-4 0 -4 -4l-31 -245q0 -6 5 -1q47 47 118 47q112 0 132 -101z" />
<glyph unicode="6" horiz-adv-x="448" d="M407 329q15 -41 6 -115q-8 -63 -29 -103q-52 -119 -172 -119q-58 0 -95 30t-48 85q-12 47 -5 106l39 320q10 79 63.5 127t130.5 48q73 0 113 -47t30 -124l-1 -15q-2 -10 -11 -10h-50q-10 0 -8 10l1 11q6 50 -17 81t-65 31q-45 0 -78 -32t-39 -84l-19 -152q-1 -3 1 -3.5 t3 2.5q46 59 121 59q105 0 129 -106zM330 147q10 35 15 69q5 42 1 79q-5 38 -27.5 60t-60.5 22q-78 0 -108 -84q-11 -29 -17 -77q-5 -37 -3 -72q4 -42 26.5 -65.5t62.5 -23.5q81 0 111 92z" />
<glyph unicode="7" horiz-adv-x="406" d="M108 0q-12 0 -7 11l272 622q3 5 -4 5h-219q-4 0 -4 -4l-6 -43q0 -10 -10 -10h-39q-9 0 -9 10l12 99q2 10 11 10h340q10 0 8 -10l-5 -46q-2 -8 -4 -12l-270 -624q-5 -8 -13 -8h-53z" />
<glyph unicode="8" horiz-adv-x="457" d="M349 376q-5 -3 -1 -6q39 -24 51 -67q15 -42 7 -108q-7 -59 -33 -106q-56 -97 -166 -97q-111 0 -142 100q-14 47 -7 104q7 61 32 104q27 48 69 70q4 3 1 6q-31 18 -48 53q-20 45 -13 100q7 57 36 100q56 81 160 81q108 0 142 -84q17 -44 10 -98q-8 -58 -36 -97 q-26 -34 -62 -55zM190 593q-20 -33 -24 -70q-5 -44 9 -74q22 -50 82 -50q64 0 96 54q20 27 26 71q5 42 -7 70q-23 54 -85 54q-63 0 -97 -55zM312 117q20 34 26 83q6 46 -3 78q-16 66 -85 66q-67 0 -100 -66q-16 -30 -23 -78q-6 -48 5 -83q17 -63 82 -63q67 0 98 63z" />
<glyph unicode="9" horiz-adv-x="450" d="M428 593q13 -47 5 -106l-39 -320q-10 -80 -63.5 -127.5t-130.5 -47.5q-73 0 -113 47t-30 124l2 15q0 10 11 10h49q9 0 9 -10l-2 -11q-6 -50 17.5 -81t65.5 -31q45 0 77.5 31.5t39.5 84.5l18 152q1 3 -1 3.5t-3 -2.5q-46 -59 -121 -59q-105 0 -129 106q-15 41 -6 115 q8 63 29 103q54 119 172 119q58 0 95 -30t48 -85zM239 323q78 0 108 84q11 29 17 77q6 45 3 72q-4 42 -26.5 65.5t-62.5 23.5q-81 0 -111 -92q-11 -36 -14 -69q-6 -44 -1 -79q4 -38 26.5 -60t60.5 -22z" />
<glyph unicode=":" horiz-adv-x="267" d="M157 346q-24 0 -38.5 17.5t-11.5 42.5q3 24 22.5 41.5t42.5 17.5q22 0 37.5 -17.5t12.5 -41.5q-4 -25 -22.5 -42.5t-42.5 -17.5zM116 10q-25 0 -39 17t-11 42q3 24 22.5 41.5t41.5 17.5t37.5 -17.5t12.5 -41.5q-3 -25 -21.5 -42t-42.5 -17z" />
<glyph unicode=";" horiz-adv-x="244" d="M146 347q-24 0 -38 17.5t-10 42.5q2 24 21.5 41t41.5 17q23 0 38 -17t12 -41q-3 -25 -22 -42.5t-43 -17.5zM51 -75q-5 0 -7 3.5t-1 7.5l49 206q3 9 11 9h45q11 0 7 -11l-62 -206q-3 -9 -12 -9h-30z" />
<glyph unicode="&#x3c;" horiz-adv-x="457" d="M410 63q-2 -14 -12 -7l-347 181q-6 5 -5 12l6 48q2 8 8 12l391 181q5 2 8.5 0t2.5 -7l-6 -49q-1 -7 -8 -11l-326 -147q-4 -3 -1 -6l290 -147q6 -5 5 -11z" />
<glyph unicode="=" horiz-adv-x="457" d="M74 398q-10 0 -8 10l4 38q2 10 11 10h368q10 0 8 -10l-4 -38q-2 -10 -11 -10h-368zM49 191q-11 0 -9 10l5 38q2 10 11 10h367q11 0 9 -10l-5 -38q-2 -10 -11 -10h-367z" />
<glyph unicode="&#x3e;" horiz-adv-x="457" d="M34 56q-5 -3 -8.5 -0.5t-2.5 7.5l6 49q1 7 8 11l326 147q4 3 1 6l-290 147q-6 5 -5 11l6 49q2 14 12 7l347 -181q6 -5 5 -12l-6 -48q0 -7 -8 -12z" />
<glyph unicode="?" horiz-adv-x="403" d="M166 200q-10 0 -8 10l7 59q4 36 23 64t42.5 48t47.5 39.5t43 48t23 64.5q6 50 -16.5 80.5t-66.5 30.5q-45 0 -76 -31t-37 -81l-4 -31q-2 -10 -11 -10l-49 3q-9 0 -9 10l4 28q10 79 63 128t128 49t114.5 -48t29.5 -128q-6 -46 -25.5 -82t-43.5 -57.5t-48 -40t-42 -40.5 t-21 -48l-6 -55q-2 -10 -11 -10h-51zM170 2q-22 0 -35.5 16.5t-10.5 40.5q2 23 20 40t41 17q21 0 35.5 -17t11.5 -40q-3 -24 -21.5 -40.5t-40.5 -16.5z" />
<glyph unicode="@" horiz-adv-x="770" d="M482 617q144 0 213 -95t32 -244q-23 -93 -74 -145t-118 -52q-69 0 -91 50q-3 5 -6 0q-39 -51 -108 -51q-44 0 -67.5 27.5t-18.5 73.5q2 21 16 82q12 49 24 80q17 47 51.5 74.5t78.5 27.5q51 0 70 -35q3 -2 5 2l4 19q3 9 11 9h31q5 0 7 -3.5t1 -7.5l-51 -206 q-10 -41 5.5 -67.5t49.5 -26.5q41 0 75 39t52 108q33 133 -24.5 212.5t-178.5 79.5q-119 0 -221.5 -86t-130.5 -230q-27 -132 28.5 -212t169.5 -80q101 0 163 44q9 7 13 -2l12 -22q4 -9 -3 -14q-80 -56 -199 -56q-135 0 -200.5 97t-33.5 248q34 165 153.5 263.5t259.5 98.5z M432 191q1 3 6 20t9 31l9 38l11 54q5 29 -9 47t-42 18t-51.5 -18.5t-33.5 -46.5q-8 -19 -20 -72q-13 -48 -16 -71q-5 -29 10 -47.5t44 -18.5q28 0 50 18t33 48z" />
<glyph unicode="A" horiz-adv-x="515" d="M402 0q-10 0 -10 9l-17 125q0 3 -4 3h-232q-4 0 -5 -3l-48 -125q-2 -9 -11 -9h-51q-12 0 -7 11l264 680q2 9 12 9h62q9 0 9 -9l98 -680q2 -11 -10 -11h-50zM158 199q-2 -4 4 -4h200q2 0 4 1.5t1 2.5l-53 400q0 6 -4 0z" />
<glyph unicode="B" horiz-adv-x="522" d="M400 365q-5 -1 -1 -5q90 -47 75 -170q-11 -90 -69 -140t-143 -50h-191q-9 0 -9 10l84 680q2 10 11 10h183q89 0 133.5 -47.5t34.5 -135.5q-13 -111 -108 -152zM212 638q-4 0 -4 -4l-30 -241q0 -4 4 -4h121q57 0 93 32.5t43 89.5q8 59 -20.5 93t-85.5 34h-121zM268 63 q56 0 93.5 36t44.5 98q8 63 -21 99t-86 36h-124q-5 0 -5 -4l-32 -261q0 -4 4 -4h126z" />
<glyph unicode="C" horiz-adv-x="510" d="M238 -8q-89 0 -136 54t-36 143l40 323q10 89 70.5 142.5t149.5 53.5t136 -53t37 -141l-1 -9q-2 -10 -11 -10l-50 -2q-9 0 -9 9l2 14q7 58 -23.5 94t-88.5 36t-97 -35.5t-46 -94.5l-41 -332q-7 -59 23.5 -94.5t87.5 -35.5q58 0 97.5 36t46.5 94l2 14q1 9 11 9l49 -3 q9 0 9 -8l-2 -9q-10 -88 -70.5 -141.5t-149.5 -53.5z" />
<glyph unicode="D" horiz-adv-x="526" d="M71 0q-9 0 -9 10l84 680q2 10 11 10h189q86 0 129.5 -51t33.5 -139l-39 -320q-11 -88 -67.5 -139t-142.5 -51h-189zM138 66q0 -4 3 -4h128q53 1 88.5 36.5t43.5 97.5l38 308q8 62 -19 98t-81 36h-127q-4 0 -4 -4z" />
<glyph unicode="E" horiz-adv-x="501" d="M514 648q-2 -10 -11 -10h-291q-4 0 -4 -4l-31 -248q0 -4 4 -4h196q10 0 8 -10l-5 -42q-2 -10 -11 -10h-196q-4 0 -4 -4l-31 -250q0 -4 3 -4h291q11 0 9 -10l-5 -42q-2 -10 -11 -10h-354q-9 0 -9 10l84 680q2 10 11 10h354q10 0 8 -10z" />
<glyph unicode="F" horiz-adv-x="471" d="M513 648q-2 -10 -11 -10h-290q-4 0 -4 -4l-31 -248q0 -4 4 -4h195q10 0 8 -10l-5 -42q-2 -10 -11 -10h-195q-4 0 -4 -4l-38 -306q-2 -10 -11 -10h-49q-9 0 -9 10l84 680q2 10 11 10h353q10 0 8 -10z" />
<glyph unicode="G" horiz-adv-x="509" d="M238 -8q-89 0 -136 53t-36 141l40 328q10 88 70.5 141t149.5 53q88 0 135.5 -52.5t36.5 -137.5l-3 -28q-2 -10 -11 -10h-50q-10 0 -8 10l3 28q8 57 -22.5 92.5t-88.5 35.5t-97 -35.5t-46 -94.5l-41 -332q-7 -58 24 -94t88 -36q58 0 96 34t46 92l13 109q0 4 -3 4h-114 q-10 0 -8 10l5 42q2 10 11 10h176q11 0 9 -10l-19 -156q-11 -91 -71 -144t-149 -53z" />
<glyph unicode="H" horiz-adv-x="546" d="M463 690q2 10 11 10h49q11 0 9 -10l-84 -680q0 -10 -11 -10h-49q-10 0 -8 10l37 306q0 4 -3 4h-241q-4 0 -4 -4l-38 -306q-2 -10 -11 -10h-49q-9 0 -9 10l84 680q2 10 11 10h49q9 0 9 -10l-38 -304q0 -4 4 -4h240q3 0 5 4z" />
<glyph unicode="I" horiz-adv-x="230" d="M71 0q-9 0 -9 10l84 680q2 10 11 10h49q9 0 9 -10l-84 -680q-2 -10 -11 -10h-49z" />
<glyph unicode="J" horiz-adv-x="488" d="M195 -8q-86 0 -132 51.5t-35 137.5l8 66q2 10 11 10h50q10 0 8 -10l-8 -67q-7 -56 22 -91t84 -35t93 35t45 91l63 510q2 10 11 10h49q9 0 9 -10l-63 -509q-10 -85 -69.5 -137t-145.5 -52z" />
<glyph unicode="K" horiz-adv-x="515" d="M71 0q-9 0 -9 10l84 680q2 10 11 10h49q9 0 9 -10l-41 -332q0 -6 5 -1l287 337q5 6 14 6h54q4 0 6 -1.5t1.5 -4.5t-3.5 -6l-227 -274q-2 -4 -1 -6l163 -396q5 -12 -8 -12h-57q-9 0 -10 7l-142 345q-2 5 -5 0l-88 -99q-1 -1 -3 -5l-29 -238q-2 -10 -11 -10h-49z" />
<glyph unicode="L" d="M71 0q-9 0 -9 10l84 680q2 10 11 10h49q9 0 9 -10l-77 -624q0 -4 3 -4h283q10 0 8 -10l-5 -42q-2 -10 -11 -10h-345z" />
<glyph unicode="M" horiz-adv-x="597" d="M71 0q-9 0 -9 10l84 680q2 10 11 10h49q10 0 11 -7l107 -296q1 -2 3 -2t3 2l181 296q3 7 12 7h51q10 0 8 -10l-83 -680q-2 -10 -11 -10h-50q-10 0 -8 10l65 529q0 7 -5 2l-151 -247q-4 -7 -13 -7h-22q-10 0 -11 7l-92 248q-2 3 -5 -1l-65 -531q-2 -10 -11 -10h-49z" />
<glyph unicode="N" horiz-adv-x="566" d="M71 0q-9 0 -9 10l84 680q2 10 11 10h49q10 0 11 -7l196 -527q3 -3 5 1l64 523q2 10 11 10h50q10 0 8 -10l-83 -680q-2 -10 -11 -10h-51q-9 0 -10 7l-196 529q-3 2 -5 -2l-64 -524q-2 -10 -11 -10h-49z" />
<glyph unicode="O" horiz-adv-x="523" d="M241 -8q-90 0 -137.5 55.5t-36.5 147.5l38 309q11 92 72.5 148t150.5 56q90 0 138 -56t37 -148l-38 -309q-11 -91 -73 -147t-151 -56zM248 54q59 0 99.5 38t48.5 100l39 314q7 63 -24 101.5t-90 38.5t-99.5 -38.5t-47.5 -101.5l-39 -314q-7 -61 24 -99.5t89 -38.5z" />
<glyph unicode="P" horiz-adv-x="501" d="M361 701q78 0 119 -54t30 -141q-10 -87 -64.5 -139.5t-132.5 -52.5h-144q-5 0 -5 -4l-37 -300q0 -10 -11 -10h-49q-9 0 -9 10l84 681q2 10 11 10h208zM312 373q50 0 86 36t43 96q7 61 -19.5 97.5t-77.5 36.5h-136q-4 0 -4 -4l-32 -258q0 -4 4 -4h136z" />
<glyph unicode="Q" horiz-adv-x="495" d="M315 708q86 0 132 -55.5t35 -146.5l-38 -314q-10 -79 -58 -132t-120 -64q-4 -1 -4 -5l-12 -96q-2 -10 -11 -10h-50q-11 0 -9 10l12 96q0 3 -3 5q-68 11 -103.5 64t-26.5 132l39 314q11 91 71 146.5t146 55.5zM374 189l40 322q8 60 -22 97.5t-85 37.5t-93.5 -37.5 t-45.5 -97.5l-40 -322q-8 -60 22 -97.5t85 -37.5t93.5 37.5t45.5 97.5z" />
<glyph unicode="R" horiz-adv-x="512" d="M394 0q-9 0 -10 8l-83 311q-1 3 -3 3h-125q-4 0 -4 -4l-38 -308q-2 -10 -11 -10h-49q-9 0 -9 10l84 681q2 10 11 10h206q77 0 118 -53t31 -139q-9 -69 -47.5 -117t-95.5 -63q-4 -2 -2 -5l87 -312q2 -5 -1 -8.5t-8 -3.5h-51zM212 639q-4 0 -4 -4l-31 -252q0 -4 3 -4h134 q50 0 86 35.5t43 93.5q7 59 -20 95t-77 36h-134z" />
<glyph unicode="S" horiz-adv-x="491" d="M229 -8q-89 0 -137 49.5t-38 132.5l4 28q2 10 11 10h47q9 0 9 -10l-3 -24q-7 -56 25 -90t92 -34q58 0 94.5 31.5t43.5 84.5q6 49 -22 80t-105 78q-42 25 -64.5 40.5t-47 40.5t-32.5 55.5t-3 70.5q10 81 66 127t140 46q90 0 137.5 -51t36.5 -135l-3 -23q0 -10 -11 -10h-48 q-9 0 -9 10l3 22q7 56 -24 90.5t-91 34.5q-53 0 -88 -29t-42 -82q-6 -49 20 -76.5t104 -73.5q46 -29 69.5 -46t48 -42.5t32 -54.5t2.5 -67q-10 -83 -68.5 -133t-148.5 -50z" />
<glyph unicode="T" horiz-adv-x="481" d="M500 700q9 0 9 -10l-6 -42q0 -10 -10 -10h-159q-4 0 -4 -4l-77 -624q0 -10 -11 -10h-49q-10 0 -8 10l76 624q0 4 -3 4h-153q-10 0 -8 10l5 42q2 10 11 10h387z" />
<glyph unicode="U" horiz-adv-x="545" d="M252 -8q-89 0 -136.5 57t-36.5 151l60 490q2 10 11 10h49q11 0 9 -10l-61 -494q-8 -64 23.5 -103t89.5 -39t99 39t48 103l61 494q2 10 11 10h49q9 0 9 -10l-60 -490q-12 -94 -74 -151t-151 -57z" />
<glyph unicode="V" horiz-adv-x="499" d="M203 0q-8 0 -10 9l-93 680q-2 11 10 11h53q9 0 9 -9l72 -572q0 -1 1 -2t2 2l212 572q3 9 12 9h50q13 0 8 -11l-260 -680q-4 -9 -12 -9h-54z" />
<glyph unicode="W" horiz-adv-x="726" d="M175 0q-10 0 -10 9l-73 680q-2 11 9 11h53q9 0 9 -9l53 -537q0 -3 2 -3t3 3l172 537q3 9 12 9h49q9 0 9 -9l47 -537q0 -8 4 0l181 537q3 9 12 9h50q9 0 7 -11l-235 -680q-4 -9 -12 -9h-49q-10 0 -10 9l-45 545q0 8 -4 0l-175 -545q-3 -9 -12 -9h-47z" />
<glyph unicode="X" horiz-adv-x="496" d="M25 0q-12 0 -5 12l212 335q2 3 0 6l-129 335q-3 12 8 12h54q9 0 10 -7l102 -277q1 -2 3 -2t3 2l170 277q3 7 12 7h54q12 0 5 -12l-213 -336q-2 -4 -1 -6l131 -334q3 -12 -8 -12h-54q-8 0 -11 7l-101 276q-1 2 -3 2t-3 -2l-170 -276q-3 -7 -12 -7h-54z" />
<glyph unicode="Y" horiz-adv-x="481" d="M196 1q-10 0 -8 10l36 298v5l-122 374q-3 12 9 12h53q8 0 9 -8l94 -299q0 -3 3 -2q1 0 2 2l167 299q4 8 12 8h52q13 0 6 -12l-214 -374q-2 -2 -2 -5l-37 -298q0 -10 -10 -10h-50z" />
<glyph unicode="Z" horiz-adv-x="458" d="M28 0q-10 0 -8 10l5 47q2 8 5 13l364 563q2 5 -1 5h-287q-10 0 -8 10l5 42q2 10 11 10h356q9 0 9 -10l-6 -47q-2 -8 -5 -13l-364 -563q-2 -5 2 -5h286q10 0 8 -10l-5 -42q-2 -10 -11 -10h-356z" />
<glyph unicode="[" horiz-adv-x="331" d="M4 -121q-11 0 -9 10l108 875q0 10 10 10h169q9 0 9 -10l-5 -42q-2 -10 -11 -10h-106q-4 0 -4 -4l-94 -763q0 -4 3 -4h107q10 0 8 -10l-5 -42q0 -10 -11 -10h-169z" />
<glyph unicode="\" horiz-adv-x="319" d="M273 11q2 -11 -10 -11h-49q-7 0 -9 8l-112 681q-2 11 10 11h48q7 0 10 -8z" />
<glyph unicode="]" horiz-adv-x="331" d="M270 -111q-2 -10 -11 -10h-170q-9 0 -9 10l6 42q0 10 11 10h106q3 0 5 4l93 763q2 4 -3 4h-106q-10 0 -8 10l5 42q2 10 11 10h169q10 0 8 -10z" />
<glyph unicode="^" horiz-adv-x="410" d="M65 307q-10 0 -7 11l179 374q4 8 13 8h44q8 0 9 -8l89 -373q2 -12 -9 -12h-41q-9 0 -10 8l-67 306q0 3 -3 2l-2 -2l-143 -306q-3 -8 -12 -8h-40z" />
<glyph unicode="_" horiz-adv-x="417" d="M16 0q-11 0 -9 10l5 37q0 10 11 10h348q10 0 8 -10l-4 -37q-2 -10 -11 -10h-348z" />
<glyph unicode="`" horiz-adv-x="187" d="M209 589q5 -12 -8 -12h-38q-6 0 -11 7l-53 109q-5 12 7 12h47q7 0 10 -7z" />
<glyph unicode="a" d="M372 496q2 10 11 10h50q10 0 8 -10l-60 -486q0 -10 -10 -10h-50q-10 0 -8 10l5 41q0 3 -2 3.5t-3 -2.5q-45 -60 -122 -60q-60 0 -94 37t-39 107q-2 41 7 116q9 74 21 116q20 70 64.5 108t107.5 38q78 0 104 -59q3 -3 5 1zM320 141q13 42 21 112q10 72 6 113q-2 40 -23 63 t-58 23q-38 0 -66.5 -23t-40.5 -61q-16 -43 -25 -115t-5 -111q2 -41 24.5 -64.5t62.5 -23.5q38 0 64.5 23.5t39.5 63.5z" />
<glyph unicode="b" d="M433 368q2 -40 -7 -116q-9 -71 -22 -116q-22 -70 -65 -107t-103 -37q-76 0 -107 58q-1 6 -4 1q-1 -1 -1 -2l-4 -39q-2 -10 -11 -10h-50q-10 0 -8 10l83 680q2 10 11 10h50q10 0 8 -10l-29 -233q1 -4 5 -1q40 58 118 58q63 0 98 -38t38 -108zM335 142q13 40 22 111 q9 72 3 115q-3 38 -25.5 61t-60.5 23t-64 -23t-38 -63q-12 -37 -23 -113q-9 -72 -6 -112t24 -63.5t59 -23.5q40 0 68 23.5t41 64.5z" />
<glyph unicode="c" horiz-adv-x="447" d="M211 -8q-70 0 -110.5 39.5t-41.5 106.5q0 49 8 116q6 49 20 115q17 65 68 105t121 40q68 0 110 -37.5t44 -95.5v-21q0 -11 -10 -11l-50 -3q-9 0 -9 9v12q0 35 -25.5 60t-67.5 25q-43 0 -74 -27t-41 -70q-9 -40 -17 -102q-8 -67 -8 -103q0 -44 24 -70t67 -26t74.5 25 t39.5 61q2 6 2 8q3 10 12 9l48 -4q8 -2 8 -9l-1 -2v-2l-3 -12q-14 -59 -66 -97.5t-122 -38.5z" />
<glyph unicode="d" d="M395 690q2 10 11 10h50q10 0 8 -10l-84 -680q0 -10 -10 -10h-50q-10 0 -8 10l4 39q1 3 -1 3.5t-3 -2.5q-44 -58 -121 -58q-60 0 -94 37t-39 107q-2 41 7 116q9 74 21 116q20 70 64.5 108t107.5 38q77 0 104 -58q2 -3 5 1zM320 141q13 42 21 112q10 72 6 113q-2 40 -23 63 t-58 23q-38 0 -66.5 -23t-40.5 -61q-16 -43 -25 -115t-5 -111q2 -41 24.5 -64.5t62.5 -23.5q38 0 64.5 23.5t39.5 63.5z" />
<glyph unicode="e" horiz-adv-x="457" d="M222 54q77 0 113 73q3 10 12 7l39 -11q9 -3 5 -12q-22 -55 -69 -87t-111 -32q-68 0 -107.5 37.5t-41.5 101.5q-3 39 6 123q9 74 18 112q16 67 67 107.5t121 40.5q76 0 115.5 -44t36.5 -118q-1 -46 -10 -114q0 -10 -11 -10h-268q-4 0 -5 -4q-4 -41 -6 -73q0 -44 26 -70.5 t70 -26.5zM266 452q-42 0 -72.5 -26t-41.5 -69q-6 -27 -12 -68q0 -4 4 -4h205q4 0 4 4q4 48 5 66q1 43 -24 70t-68 27z" />
<glyph unicode="f" horiz-adv-x="307" d="M303 642q-45 0 -65.5 -25t-27.5 -82l-3 -25q0 -4 4 -4h91q10 0 8 -10l-5 -39q0 -10 -11 -10h-91q-4 0 -4 -4l-53 -433q-2 -10 -11 -10h-50q-10 0 -8 10l53 433q0 4 -3 4h-52q-10 0 -8 10l5 39q0 10 10 10h52q4 0 4 4l4 28q11 89 48 127t117 38h21q10 0 8 -10l-5 -41 q0 -10 -11 -10h-17z" />
<glyph unicode="g" horiz-adv-x="460" d="M373 496q2 10 11 10h50q10 0 8 -10l-59 -482q-28 -226 -266 -215q-9 1 -8 11l6 45q2 11 11 9q90 -3 134 34.5t55 119.5l4 33q0 7 -5 2q-45 -56 -119 -56q-62 0 -99.5 38t-38.5 105q0 46 8 113t21 118q16 65 62 104t108 39q76 0 108 -55q3 -5 5 1zM328 154q8 44 16 100 q8 65 9 102q2 42 -22 69t-65 27t-72 -27t-43 -69q-9 -41 -16 -102q-6 -43 -8 -100q0 -42 24.5 -69t66.5 -27t72 27t38 69z" />
<glyph unicode="h" d="M301 513q68 0 101.5 -44.5t24.5 -121.5l-42 -337q0 -10 -11 -10h-49q-9 0 -9 10l41 327q6 53 -16.5 83.5t-66.5 30.5q-46 0 -77.5 -31.5t-37.5 -84.5l-40 -325q-2 -10 -11 -10h-50q-10 0 -8 10l83 680q2 10 11 10h50q10 0 8 -10l-28 -231q-1 -2 0.5 -3t3.5 1 q46 56 123 56z" />
<glyph unicode="i" horiz-adv-x="217" d="M163 597q-22 0 -34.5 14.5t-10.5 37.5q3 22 19 36.5t38 14.5t34 -14.5t9 -36.5q-2 -23 -17.5 -37.5t-37.5 -14.5zM65 0q-10 0 -8 10l59 486q2 10 11 10h50q10 0 8 -10l-60 -486q0 -10 -11 -10h-49z" />
<glyph unicode="j" horiz-adv-x="207" d="M158 596q-22 0 -34 14.5t-10 37.5q3 23 19 37.5t37 14.5q22 0 35 -14.5t10 -37.5q-2 -23 -18.5 -37.5t-38.5 -14.5zM-66 -208q-9 0 -9 10l5 42q2 10 12 10q90 1 103 102l66 540q2 10 11 10h50q10 0 8 -10l-66 -540q-10 -83 -51.5 -123.5t-128.5 -40.5z" />
<glyph unicode="k" horiz-adv-x="439" d="M58 0q-10 0 -8 10l83 680q2 10 11 10h50q10 0 8 -10l-50 -406q0 -2 2 -3t3 1l202 218q6 6 13 6h55q14 0 4 -12l-128 -142q-2 -4 -1 -5l89 -335q3 -12 -9 -12h-51q-9 0 -10 8l-71 286q0 2 -2 2.5t-3 -1.5l-103 -111q0 -1 -1 -2.5t-2 -2.5l-20 -169q-2 -10 -11 -10h-50z " />
<glyph unicode="l" horiz-adv-x="201" d="M56 0q-10 0 -8 10l83 680q2 10 11 10h50q10 0 8 -10l-83 -680q-2 -10 -11 -10h-50z" />
<glyph unicode="m" horiz-adv-x="715" d="M557 513q65 0 97 -44.5t22 -122.5l-41 -336q-2 -10 -11 -10h-49q-10 0 -8 10l40 326q7 53 -15 84t-64 31q-44 0 -74.5 -30.5t-36.5 -82.5l-40 -328q-2 -10 -11 -10h-50q-10 0 -8 10l40 326q7 53 -15 84t-64 31q-44 0 -74 -30.5t-36 -82.5l-40 -328q-2 -10 -11 -10h-50 q-10 0 -8 10l59 486q2 10 11 10h50q10 0 8 -10l-4 -35q0 -5 4 -1q46 53 121 53q87 0 114 -76q0 -6 4 0q48 76 140 76z" />
<glyph unicode="n" d="M301 513q68 0 101.5 -44.5t24.5 -121.5l-42 -337q0 -10 -11 -10h-49q-9 0 -9 10l41 327q6 53 -16.5 83.5t-66.5 30.5q-46 0 -77.5 -31.5t-37.5 -84.5l-40 -325q-2 -10 -11 -10h-50q-10 0 -8 10l59 486q2 10 11 10h50q10 0 8 -10l-4 -37q-1 -2 0.5 -3t3.5 1q46 56 123 56z " />
<glyph unicode="o" horiz-adv-x="466" d="M212 -8q-70 0 -110.5 39.5t-41.5 106.5q-1 47 7 116t21 114q17 67 67.5 106.5t121.5 39.5q70 0 110.5 -39.5t41.5 -105.5q1 -48 -7 -115q-8 -68 -21 -116q-17 -67 -68 -106.5t-121 -39.5zM220 54q42 0 74 26.5t43 70.5q10 50 16 102q7 58 9 102q-1 44 -26 70.5t-67 26.5 t-74 -26.5t-43 -70.5q-10 -48 -16 -102q-7 -58 -9 -102q1 -44 26 -70.5t67 -26.5z" />
<glyph unicode="p" horiz-adv-x="473" d="M438 370q3 -40 -6 -116q-9 -74 -21 -116q-20 -70 -64.5 -108t-107.5 -38q-77 0 -104 58q-2 3 -5 -1l-28 -233q-2 -10 -11 -10h-50q-10 0 -8 10l83 680q2 10 11 10h50q10 0 8 -10l-5 -39q0 -3 2 -3.5t3 2.5q44 58 121 58q60 0 93.5 -37t38.5 -107zM338 138q16 43 25 115 t5 111q-2 41 -24.5 64.5t-62.5 23.5q-38 0 -64.5 -23.5t-39.5 -63.5t-22 -112q-9 -74 -5 -113q2 -40 22.5 -63t58.5 -23t66 23t41 61z" />
<glyph unicode="q" horiz-adv-x="473" d="M371 496q2 10 11 10h50q10 0 8 -10l-83 -680q-2 -10 -11 -10h-50q-10 0 -8 10l28 233q1 3 -0.5 3t-3.5 -2q-40 -58 -118 -58q-63 0 -98 38t-38 108q-2 40 7 116q9 71 22 116q22 70 65 107t103 37q76 0 107 -58q1 -6 4 -1q1 1 1 2zM319 140q13 40 22 113q10 72 6 112 q-2 40 -23 63.5t-59 23.5q-40 0 -68.5 -23.5t-40.5 -64.5q-13 -40 -22 -111q-9 -76 -4 -115q4 -38 26.5 -61t60.5 -23t64 23t38 63z" />
<glyph unicode="r" horiz-adv-x="318" d="M294 511q27 0 48 -12q6 -3 3 -12l-18 -51q-4 -9 -13 -6q-17 8 -45 5q-43 -1 -75 -37.5t-39 -89.5l-36 -298q-2 -10 -11 -10h-50q-10 0 -8 10l59 486q2 10 11 10h50q10 0 8 -10l-7 -63q-1 -3 0.5 -3t3.5 2q44 79 119 79z" />
<glyph unicode="s" horiz-adv-x="415" d="M193 -5q-74 0 -115.5 37t-33.5 95l1 9q2 10 11 10h46q5 0 7.5 -2t1.5 -6l-1 -9q-4 -33 21 -56t69 -23q42 0 71 23t33 58q3 19 -3.5 33.5t-23.5 25.5t-30.5 17t-40.5 16q-32 12 -51 21t-41.5 26t-31.5 42.5t-5 59.5q7 64 56 101.5t121 37.5q73 0 113 -39t32 -100v-2 q-2 -10 -11 -10h-46q-9 0 -9 7l1 7q4 34 -20 56.5t-67 22.5t-70.5 -21.5t-32.5 -55.5q-2 -19 3.5 -33t22 -25t30 -17t40.5 -16q33 -12 51.5 -21t43 -26.5t34 -43t5.5 -59.5q-8 -64 -57.5 -102t-123.5 -38z" />
<glyph unicode="t" horiz-adv-x="306" d="M302 460q-2 -10 -11 -10h-92q-3 0 -5 -4l-36 -299q-6 -47 10 -65.5t55 -18.5h17q10 0 8 -10l-5 -42q-2 -10 -11 -10q-5 0 -15 -0.5t-15 -0.5q-64 0 -93 26.5t-21 98.5l40 321q0 4 -4 4h-48q-11 0 -9 10l5 36q0 10 10 10h49q4 0 4 4l14 114q2 10 11 10h48q10 0 8 -10 l-14 -114q0 -4 4 -4h92q10 0 8 -10z" />
<glyph unicode="u" horiz-adv-x="466" d="M370 496q2 10 11 10h50q10 0 8 -10l-59 -486q-2 -10 -11 -10h-50q-10 0 -8 10l4 39q1 3 -0.5 3t-3.5 -2q-42 -57 -120 -57q-66 0 -102.5 40t-27.5 116l43 347q0 10 11 10h49q10 0 8 -10l-40 -329q-7 -53 15 -82.5t67 -29.5q47 0 78.5 31.5t37.5 84.5z" />
<glyph unicode="v" horiz-adv-x="414" d="M160 0q-7 0 -10 8l-80 487q-3 11 10 11h54q9 0 9 -9l55 -391q1 -2 2.5 -2t2.5 2l151 391q4 9 12 9l55 -1q12 0 7 -11l-200 -486q-5 -8 -12 -8h-56z" />
<glyph unicode="w" horiz-adv-x="619" d="M139 0q-10 0 -10 9l-59 486q-3 11 9 11h48q8 0 10 -9l39 -392q0 -8 4 0l136 392q4 9 12 9h45q9 0 9 -9l42 -393q1 -5 4 0l137 393q3 9 12 9l49 -1q5 0 6.5 -3.5t-0.5 -7.5l-181 -485q-3 -9 -12 -9h-50q-9 0 -10 9l-42 370q-1 3 -2.5 3t-2.5 -3l-131 -370q-4 -9 -12 -9 h-50z" />
<glyph unicode="x" horiz-adv-x="413" d="M13 0q-13 0 -6 12l169 238q2 4 1 6l-111 238q-5 12 9 12h54q6 0 11 -7l83 -183q1 -2 3 -2t3 2l127 183q7 7 13 7h55q14 0 5 -12l-169 -238q-2 -3 0 -6l110 -238q5 -12 -8 -12h-54q-6 0 -10 7l-83 184q-1 1 -3 1t-3 -1l-129 -184q-5 -7 -12 -7h-55z" />
<glyph unicode="y" horiz-adv-x="402" d="M6 -200q-8 0 -6 10l5 41q2 10 7 10h6q49 0 73 26t55 110q1 2 1 6l-84 492q-2 11 10 11h52q10 0 10 -8l57 -396q2 -5 5 0l153 395q4 9 12 9h52q11 0 8 -11l-225 -539q-40 -96 -75.5 -126t-110.5 -30h-5z" />
<glyph unicode="z" horiz-adv-x="391" d="M22 0q-10 0 -8 10l6 48q0 6 5 13l283 365q5 5 -3 5h-225q-10 0 -8 10l5 45q2 10 11 10h302q10 0 8 -10l-5 -48q-2 -8 -6 -13l-284 -365q-2 -3 2 -5h232q10 0 8 -10l-5 -45q-2 -10 -11 -10h-307z" />
<glyph unicode="{" horiz-adv-x="279" d="M151 -121q-99 0 -84 114l27 217q10 81 -40 90q-8 2 -7 10l5 40q0 8 10 10q51 9 61 89l26 212q7 58 34.5 85.5t77.5 27.5h56q9 0 9 -10l-6 -42q0 -10 -10 -10h-31q-55 0 -64 -74l-24 -194q-10 -87 -61 -112q-5 -2 0 -5q44 -25 33 -112l-24 -199q-10 -75 45 -75h31 q10 0 8 -10l-5 -42q-2 -10 -11 -10h-56z" />
<glyph unicode="|" horiz-adv-x="150" d="M21 -80q-10 0 -8 10l100 820q2 10 11 10h50q10 0 8 -10l-100 -820q-2 -10 -11 -10h-50z" />
<glyph unicode="}" horiz-adv-x="279" d="M60 -121h-56q-11 0 -9 10l5 42q2 10 11 10h31q54 0 64 75l24 199q11 87 61 112q6 3 1 5q-44 25 -34 112l24 194q9 74 -45 74h-31q-9 0 -9 10l6 42q0 10 10 10h57q50 0 70.5 -27t13.5 -86l-26 -212q-10 -80 39 -89q9 -2 8 -10l-5 -40q-1 -9 -10 -10q-52 -9 -62 -90 l-26 -217q-8 -59 -35 -86.5t-77 -27.5z" />
<glyph unicode="~" horiz-adv-x="467" d="M331 232q-40 0 -92 33q-40 26 -69 26q-43 0 -76 -38q-2 -3 -3 -4q-5 -7 -11 -2l-24 18q-7 6 -3 13q19 34 51 55t69 21q40 0 79 -26q18 -12 25.5 -16.5t24.5 -10.5t34 -6q32 0 67 39q6 8 14 3l26 -20q8 -5 2 -13q-49 -72 -114 -72z" />
<glyph unicode="&#xa1;" horiz-adv-x="280" d="M205 708q24 0 38.5 -17t11.5 -42q-3 -24 -22 -41.5t-42 -17.5q-22 0 -37 17.5t-12 41.5q3 25 21 42t42 17zM150 474q1 10 11 10h38q9 0 9 -10l-50 -452q-2 -10 -11 -10h-49q-11 0 -9 10z" />
<glyph unicode="&#xa2;" horiz-adv-x="447" d="M344 230q2 6 2 8q3 10 12 9l48 -4q8 -2 8 -9v-2l-1 -2l-3 -12q-12 -53 -56 -90t-105 -45q-3 0 -5 -4l-6 -68q-2 -10 -11 -10h-41q-10 0 -8 10l10 70q1 4 -3 5q-54 10 -84 47.5t-31 94.5q0 49 8 116q9 63 20 115q14 56 54.5 93.5t95.5 47.5q4 1 5 5l6 70q2 10 11 10h41 q9 0 9 -10l-11 -68q0 -4 3 -4q59 -8 93.5 -44t35.5 -88v-21q1 -4 -2 -7.5t-8 -3.5l-50 -3q-9 0 -9 9v12q0 35 -25.5 60t-67.5 25q-43 0 -74 -27t-41 -70q-9 -40 -17 -102q-8 -67 -8 -103q0 -44 24 -70t67 -26t74.5 25t39.5 61z" />
<glyph unicode="&#xa3;" horiz-adv-x="538" d="M178 67q-3 -5 2 -5h304q10 0 8 -10l-5 -42q-2 -10 -11 -10h-377q-9 0 -9 10l6 44q0 7 8 12q48 34 59 121l14 117q0 4 -3 4h-65q-11 0 -9 10l5 39q2 10 11 10h65q4 0 4 4l18 141q10 89 61.5 141t130.5 55q132 6 152 -134q2 -10 -9 -12l-47 -8q-10 -2 -10 7q-14 88 -90 85 q-50 -2 -81.5 -35.5t-38.5 -96.5l-18 -143q0 -4 4 -4h162q11 0 9 -10l-5 -39q-2 -10 -11 -10h-163q-4 0 -4 -4l-14 -115q-11 -81 -53 -122z" />
<glyph unicode="&#xa4;" horiz-adv-x="501" d="M457 301q-7 -62 -49 -113v-6l56 -64q5 -6 -3 -14l-34 -28q-7 -7 -13 1l-54 62q0 3 -5 1q-53 -36 -115 -36q-58 0 -102 33q-3 2 -6 -1l-64 -59q-9 -7 -14 -1l-28 28q-6 7 1 14l67 60q3 3 1 6q-31 52 -24 117q7 63 50 114v6l-56 64q-5 6 3 14l35 28q7 7 13 -1l53 -62 q0 -1 1.5 -1.5t3.5 0.5q53 36 114 36q65 0 110 -39q3 -2 6 1l71 65q7 8 14 1l27 -28q6 -8 -1 -14l-75 -68q-2 -2 -2 -6q27 -48 19 -110zM132 301q-7 -56 27 -96t88 -40q55 0 99 40t51 96t-27 96.5t-89 40.5q-54 0 -98 -40t-51 -97z" />
<glyph unicode="&#xa5;" horiz-adv-x="588" d="M555 700q12 0 7 -12l-198 -343q-2 -5 3 -5h117q9 0 9 -10l-3 -24q-2 -10 -11 -10h-131q-3 0 -5 -4l-9 -74q0 -4 4 -4h131q10 0 8 -10l-3 -24q-2 -10 -11 -10h-131q-4 0 -4 -4l-19 -155q-2 -10 -11 -10h-50q-10 0 -8 10l19 155q0 4 -3 4h-130q-11 0 -9 10l3 24q2 10 11 10 h130q4 0 4 4l9 74q2 4 -3 4h-130q-10 0 -8 10l3 24q0 10 11 10h116q5 0 3 5l-112 343q-3 12 10 12h52q7 0 10 -8l93 -299q1 -4 6 0l166 299q4 8 12 8h52z" />
<glyph unicode="&#xa6;" horiz-adv-x="150" d="M79 391q-10 0 -8 10l42 349q2 10 11 10h50q10 0 8 -10l-43 -349q0 -10 -10 -10h-50zM21 -80q-10 0 -8 10l42 345q2 10 11 10h50q10 0 8 -10l-42 -345q-2 -10 -11 -10h-50z" />
<glyph unicode="&#xa7;" horiz-adv-x="414" d="M165 -207q-68 0 -103 44t-27 117l2 18q2 10 11 10h50q10 0 8 -10l-1 -12q-6 -47 13 -76t55 -29q37 0 64 28.5t32 71.5q3 27 -4 47t-26 34.5t-32.5 21.5t-38.5 17q-38 16 -61.5 34.5t-35.5 49.5q-13 39 -8 86q6 51 37 95q30 43 76 57q5 2 0 5q-37 20 -57 58.5t-14 89.5 q8 67 56.5 112.5t116.5 45.5q66 0 102 -44.5t28 -115.5l-2 -14q-2 -10 -11 -10h-49q-11 0 -9 10l1 10q6 45 -13.5 73.5t-55.5 28.5q-37 0 -64 -29.5t-32 -72.5q-5 -46 19 -72.5t76 -47.5q72 -30 95 -69q24 -39 17 -100q-7 -54 -34 -96q-31 -49 -77 -61q-6 0 0 -4 q81 -45 68 -144q-8 -68 -56.5 -112.5t-115.5 -44.5zM207 139q53 0 81 45q19 31 23 66q6 43 -12 72q-21 36 -65 36q-49 0 -81 -49q-15 -26 -20 -63q-5 -35 6 -63q18 -44 68 -44z" />
<glyph unicode="&#xa8;" horiz-adv-x="283" d="M124 597q-19 0 -30.5 13t-8.5 34q2 19 16.5 32.5t33.5 13.5t29.5 -13t8.5 -33q-2 -21 -16 -34t-33 -13zM269 597q-20 0 -30.5 13t-8.5 34q3 20 17 33t34 13q19 0 29.5 -13t8.5 -33q-3 -21 -17 -34t-33 -13z" />
<glyph unicode="&#xa9;" horiz-adv-x="826" d="M392 -8q-150 0 -237.5 102.5t-68.5 255.5t131.5 255.5t262.5 102.5q152 0 239.5 -102.5t68.5 -255.5t-131.5 -255.5t-264.5 -102.5zM397 36q132 0 230.5 90t115.5 224t-60 224t-209 90t-230 -90t-115 -224t59.5 -224t208.5 -90zM415 176q-43 0 -65.5 25t-17.5 67l20 162 q4 41 33.5 66t72.5 25t66.5 -24.5t18.5 -65.5l-1 -3q0 -10 -11 -10h-22q-9 0 -9 8l1 7q3 22 -10.5 36t-37.5 14t-40 -13.5t-18 -36.5l-21 -169q-3 -23 9.5 -36.5t36.5 -13.5t41 14t20 36v6q2 10 11 10l22 -1q5 0 7.5 -1.5t1.5 -4.5v-7q-5 -41 -35 -65.5t-73 -24.5z" />
<glyph unicode="&#xaa;" horiz-adv-x="290" d="M194 563h57q5 0 5 4l3 26q4 34 -10 54t-47 20q-22 0 -40.5 -12t-26.5 -32q-3 -9 -12 -8l-27 2q-11 0 -7 11q11 36 43.5 58t75.5 22q52 0 78 -30t20 -80l-27 -219q0 -10 -11 -10h-27q-10 0 -8 10l2 17q0 6 -5 2q-31 -34 -84 -34q-42 0 -68 22t-20 72q7 52 43 78.5t93 26.5 zM158 403q32 0 57 18t29 51l6 48q0 4 -3 4h-56q-35 0 -58.5 -16.5t-27.5 -47.5q-7 -57 53 -57zM38 298q0 10 10 10h222q10 0 8 -10l-3 -29q-2 -10 -11 -10h-222q-10 0 -8 10z" />
<glyph unicode="&#xab;" horiz-adv-x="491" d="M248 119q3 -5 1 -8.5t-8 -3.5h-45q-9 0 -11 6l-94 161q-3 8 2 14l133 161q4 6 13 6h45q4 0 6 -1.5t1.5 -4.5t-3.5 -6l-132 -159q-1 -2 -1 -6zM398 119q3 -5 0.5 -8.5t-8.5 -3.5h-44q-10 0 -12 6l-94 161q-3 8 2 14l133 161q5 6 14 6h44q6 0 7.5 -3.5t-2.5 -8.5l-132 -159 q-3 -3 -1 -6z" />
<glyph unicode="&#xac;" horiz-adv-x="457" d="M57 334q0 10 10 10h368q9 0 9 -10l-19 -155q-2 -10 -11 -10h-39q-9 0 -9 10l13 103q0 4 -3 4h-316q-10 0 -8 10z" />
<glyph unicode="&#xad;" horiz-adv-x="343" d="M60 280q-11 0 -9 10l5 42q2 10 11 10h254q11 0 9 -10l-5 -42q-2 -10 -11 -10h-254z" />
<glyph unicode="&#xae;" horiz-adv-x="431" d="M284 714q79 0 128 -56.5t39 -137.5q-10 -82 -72.5 -139t-142.5 -57t-128 57t-38 139q10 81 72 137.5t142 56.5zM240 359q65 0 116.5 47t59.5 114q8 66 -31.5 112.5t-105.5 46.5q-65 0 -115.5 -46.5t-58.5 -112.5q-8 -68 31 -114.5t104 -46.5zM326 555q-5 -35 -32 -46 q-3 -2 -2 -6l17 -62q3 -12 -9 -12h-13q-8 0 -9 8l-18 64q0 3 -3 3h-15q-4 0 -4 -4l-8 -61q0 -10 -10 -10h-11q-9 0 -9 10l20 159q2 10 11 10h50q23 0 35.5 -15t9.5 -38zM252 581q-3 0 -5 -4l-5 -45q0 -4 3 -4h23q11 0 19 7.5t9 18.5q3 27 -22 27h-22z" />
<glyph unicode="&#xaf;" horiz-adv-x="369" d="M133 595q-10 0 -8 10l4 31q0 10 10 10h209q10 0 8 -10l-3 -31q-2 -10 -11 -10h-209z" />
<glyph unicode="&#xb0;" horiz-adv-x="359" d="M220 488q-65 0 -104 46.5t-31 113.5t58.5 113.5t115.5 46.5t104 -46t31 -114q-8 -67 -58.5 -113.5t-115.5 -46.5zM226 539q44 0 78.5 31.5t39.5 77.5q6 46 -20.5 78t-70.5 32t-79 -32t-40 -78q-6 -46 21 -77.5t71 -31.5z" />
<glyph unicode="&#xb1;" horiz-adv-x="457" d="M285 384q0 -4 3 -4h152q10 0 8 -10l-5 -38q0 -10 -11 -10h-151q-4 0 -4 -4l-19 -155q-2 -10 -11 -10h-38q-9 0 -9 10l19 155q2 4 -3 4h-151q-9 0 -9 10l5 38q2 10 11 10h151q3 0 5 4l19 159q2 10 11 10h38q10 0 8 -10zM27 14q-9 0 -9 10l5 38q2 10 11 10h368q10 0 8 -10 l-5 -38q0 -10 -10 -10h-368z" />
<glyph unicode="&#xb2;" horiz-adv-x="276" d="M73 442q-11 0 -9 10l4 27q0 7 5 13q75 86 136 160q52 67 58 106q4 30 -10.5 47t-41.5 17q-26 0 -43.5 -17.5t-21.5 -45.5l-2 -17q0 -10 -11 -10h-30q-10 0 -8 10l2 21q7 47 40.5 75.5t80.5 28.5q48 0 74 -29.5t20 -80.5q-5 -48 -58 -120q-20 -26 -61 -75t-59 -71 q-3 -5 1 -5h145q10 0 8 -10l-3 -24q0 -10 -11 -10h-205z" />
<glyph unicode="&#xb3;" horiz-adv-x="284" d="M297 639q6 -30 2 -69q-4 -36 -19 -65q-31 -69 -107 -69q-41 0 -65.5 23.5t-27.5 62.5q-1 6 -1 38q2 10 11 10h30q10 0 9 -10q-2 -19 0 -26q2 -25 14.5 -39t34.5 -14q37 0 57 35q11 21 16 57q4 34 -2 58q-9 38 -48 38q-7 0 -14 -3q-9 -3 -14 3l-12 16q-6 6 1 14l101 113 q2 2 1 3.5t-3 1.5h-136q-11 0 -9 10l3 24q2 10 11 10h192q10 0 8 -10l-3 -27q0 -5 -5 -12l-92 -104q-2 -2 -1 -3.5t3 -1.5q50 -6 65 -64z" />
<glyph unicode="&#xb4;" horiz-adv-x="187" d="M89 577q-5 0 -7 3.5t2 8.5l73 109q5 7 12 7h47q13 0 4 -12l-80 -109q-7 -7 -13 -7h-38z" />
<glyph unicode="&#xb5;" horiz-adv-x="473" d="M376 496q2 10 11 10h50q10 0 8 -10l-60 -486q0 -10 -11 -10h-49q-9 0 -9 10l5 39q1 3 -0.5 3t-3.5 -2q-42 -57 -120 -57q-43 0 -73 18q-4 1 -6 -3l-24 -198q-2 -10 -11 -10h-49q-11 0 -9 10l84 686q2 10 11 10h50q10 0 8 -10l-40 -329q-7 -53 15 -82.5t67 -29.5 q47 0 78.5 31.5t37.5 84.5z" />
<glyph unicode="&#xb6;" horiz-adv-x="507" d="M290 700h196q10 0 8 -10l-108 -880q-2 -10 -11 -10h-36q-10 0 -8 10l102 830q0 4 -4 4h-101q-4 0 -4 -4l-102 -830q-2 -10 -11 -10h-37q-10 0 -8 10l53 436q2 4 -3 4q-75 7 -114.5 70t-28.5 155q11 96 72 160.5t145 64.5z" />
<glyph unicode="&#xb7;" horiz-adv-x="113" d="M29 3q-25 0 -39 17t-11 42q4 25 23 42t42 17q22 0 37 -17.5t12 -41.5q-3 -25 -21.5 -42t-42.5 -17z" />
<glyph unicode="&#xb8;" horiz-adv-x="126" d="M-32 -182q-8 3 -5 12l5 22q4 11 13 8q49 -13 62 34q14 44 -31 94q-4 4 -2.5 8t7.5 4h26q7 0 11 -4q56 -54 35 -122q-14 -42 -49.5 -53.5t-71.5 -2.5z" />
<glyph unicode="&#xb9;" horiz-adv-x="160" d="M154 859q6 3 13 3h33q10 0 8 -10l-49 -400q0 -10 -11 -10h-30q-10 0 -8 10l44 357q0 2 -1.5 3.5t-2.5 0.5l-29 -8q-5 -1 -7.5 1.5t-1.5 7.5l2 18q0 9 8 12z" />
<glyph unicode="&#xba;" horiz-adv-x="305" d="M178 365q-45 0 -71.5 26t-28.5 71q-1 29 4 75q9 56 14 75q11 44 44.5 70t79.5 26q45 0 71.5 -26t28.5 -70q0 -32 -5 -75q-5 -41 -14 -75q-11 -44 -44 -70.5t-79 -26.5zM183 408q25 0 45 17t28 45q7 33 11 67q5 42 5 66q0 28 -15.5 45t-41.5 17t-46 -17t-27 -45 q-7 -32 -11 -66q-5 -42 -5 -67q0 -28 15.5 -45t41.5 -17zM50 260q-10 0 -8 10l4 30q0 10 10 10h229q11 0 9 -10l-4 -30q-2 -10 -11 -10h-229z" />
<glyph unicode="&#xbb;" horiz-adv-x="491" d="M89 107q-6 0 -7.5 3.5t2.5 8.5l132 159q3 3 1 6l-93 159q-3 5 -0.5 8.5t8.5 3.5h44q10 0 12 -6l94 -161q3 -8 -2 -14l-133 -161q-5 -6 -14 -6h-44zM238 107q-4 0 -6 1.5t-1.5 4.5t3.5 6l132 159q1 2 1 6l-93 159q-3 5 -1 8.5t8 3.5h45q9 0 11 -6l94 -161q3 -8 -2 -14 l-133 -161q-4 -6 -13 -6h-45z" />
<glyph unicode="&#xbc;" horiz-adv-x="707" d="M139 290q0 -10 -11 -10h-30q-10 0 -8 10l44 357q0 2 -1.5 3.5t-2.5 0.5l-29 -8q-5 -1 -7.5 1.5t-1.5 7.5l2 18q2 10 8 12l32 15q6 3 13 3h33q9 0 9 -10zM567 693q7 7 13 7h32q13 0 4 -12l-499 -681q-5 -7 -12 -7h-32q-12 0 -5 12zM675 159q9 0 9 -10l-3 -26 q-2 -10 -11 -10h-17q-4 0 -4 -4l-12 -99q-2 -10 -11 -10h-30q-11 0 -9 10l12 99q2 4 -3 4h-150q-10 0 -8 10l3 23q0 4 3 12l130 254q4 8 12 8h33q12 0 5 -12l-123 -244q-3 -5 3 -5h98q4 0 4 4l10 84q2 10 11 10h30q9 0 9 -10l-11 -84q0 -4 4 -4h16z" />
<glyph unicode="&#xbd;" horiz-adv-x="703" d="M139 290q0 -10 -11 -10h-30q-10 0 -8 10l44 357q0 2 -1.5 3.5t-2.5 0.5l-29 -8q-5 -1 -7.5 1.5t-1.5 7.5l2 18q2 10 8 12l32 15q6 3 13 3h33q9 0 9 -10zM567 693q7 7 13 7h32q13 0 4 -12l-499 -681q-5 -7 -12 -7h-32q-12 0 -5 12zM510 49q-3 -5 2 -5h144q9 0 9 -10 l-3 -24q-2 -10 -11 -10h-206q-10 0 -8 10l3 27q1 7 6 13q75 86 136 160q53 67 57 106q4 30 -10 47t-41 17q-26 0 -43.5 -17.5t-21.5 -45.5l-2 -17q-2 -10 -11 -10h-30q-9 0 -9 10l3 21q7 47 40 75.5t80 28.5q48 0 74.5 -29.5t20.5 -80.5q-7 -51 -59 -120q-14 -18 -120 -146z " />
<glyph unicode="&#xbe;" horiz-adv-x="789" d="M261 346q-31 -69 -108 -69q-41 0 -65.5 23.5t-27.5 62.5q-2 19 0 38q2 10 11 10h30q9 0 8 -10q-2 -15 0 -26q2 -24 15 -38.5t35 -14.5q36 0 57 35q12 26 15 57q5 37 -1 58q-11 38 -48 38q-8 0 -15 -3q-9 -3 -13 3l-13 16q-5 7 2 14l100 113q2 1 1.5 3t-2.5 2h-137 q-10 0 -8 10l3 24q0 10 10 10h193q10 0 8 -10l-3 -27q-2 -7 -6 -12l-91 -104q-1 -4 2 -5q51 -6 64 -64q8 -30 2 -69q-5 -38 -18 -65zM649 693q5 7 12 7h32q12 0 5 -12l-499 -681q-7 -7 -13 -7h-32q-13 0 -4 12zM757 159q10 0 8 -10l-3 -26q-2 -10 -11 -10h-16q-5 0 -5 -4 l-12 -99q-2 -10 -11 -10h-30q-10 0 -8 10l12 99q0 4 -4 4h-149q-10 0 -8 10l2 23q2 9 4 12l130 254q4 8 12 8h32q13 0 6 -12l-123 -244q-1 -2 -0.5 -3.5t2.5 -1.5h98q4 0 4 4l11 84q0 10 11 10h30q10 0 8 -10l-10 -84q0 -4 3 -4h17z" />
<glyph unicode="&#xbf;" horiz-adv-x="403" d="M255 498q22 0 35.5 -16.5t10.5 -40.5q-2 -23 -20 -40t-41 -17q-21 0 -35.5 17t-11.5 40q3 24 21.5 40.5t40.5 16.5zM259 300q10 0 8 -10l-7 -59q-4 -36 -23 -64t-42.5 -48t-47.5 -39.5t-43 -48t-23 -64.5q-6 -50 16.5 -80.5t66.5 -30.5q45 0 76 31t37 81l4 31q2 10 11 10 l49 -3q9 0 9 -10l-4 -28q-10 -79 -62.5 -128t-128.5 -49q-75 0 -114.5 48t-29.5 128q6 46 25.5 82t43.5 57.5t48 40t42 40.5t21 48l7 55q0 10 11 10h50z" />
<glyph unicode="&#xc0;" horiz-adv-x="515" d="M356 783q5 -12 -8 -12h-38q-6 0 -11 7l-53 109q-5 12 7 12h47q6 0 10 -7zM402 0q-10 0 -10 9l-17 125q0 3 -4 3h-232q-4 0 -5 -3l-48 -125q-2 -9 -11 -9h-51q-12 0 -7 11l264 680q2 9 12 9h62q9 0 9 -9l98 -680q2 -11 -10 -11h-50zM158 199q-2 -4 4 -4h200q2 0 4 1.5 t1 2.5l-53 400q0 6 -4 0z" />
<glyph unicode="&#xc1;" horiz-adv-x="515" d="M425 899q13 0 4 -12l-80 -109q-7 -7 -13 -7h-38q-5 0 -7 3.5t2 8.5l73 109q5 7 12 7h47zM402 0q-10 0 -10 9l-17 125q0 3 -4 3h-232q-4 0 -5 -3l-48 -125q-2 -9 -11 -9h-51q-12 0 -7 11l264 680q2 9 12 9h62q9 0 9 -9l98 -680q2 -11 -10 -11h-50zM158 199q-2 -4 4 -4h200 q2 0 4 1.5t1 2.5l-53 400q0 6 -4 0z" />
<glyph unicode="&#xc2;" horiz-adv-x="515" d="M344 849q-1 1 -3 1t-3 -1l-60 -79q-6 -6 -13 -6h-39q-6 0 -7.5 4t2.5 8l85 106q5 6 13 6h52q9 0 11 -6l61 -106q3 -4 0.5 -8t-8.5 -4h-40q-7 0 -10 6zM402 0q-10 0 -10 9l-17 125q0 3 -4 3h-232q-4 0 -5 -3l-48 -125q-2 -9 -11 -9h-51q-12 0 -7 11l264 680q2 9 12 9h62 q9 0 9 -9l98 -680q2 -11 -10 -11h-50zM158 199q-2 -4 4 -4h200q2 0 4 1.5t1 2.5l-53 400q0 6 -4 0z" />
<glyph unicode="&#xc3;" horiz-adv-x="515" d="M302 830q-28 0 -49 -26q-8 -9 -14 -3l-16 13q-8 6 -2 13q33 53 83 53q21 0 54 -23q29 -21 43 -21q26 0 48 28q6 10 15 4l16 -12q8 -5 3 -14q-36 -55 -88 -55q-23 0 -52 23q-27 20 -41 20zM402 0q-10 0 -10 9l-17 125q0 3 -4 3h-232q-4 0 -5 -3l-48 -125q-2 -9 -11 -9h-51 q-12 0 -7 11l264 680q2 9 12 9h62q9 0 9 -9l98 -680q2 -11 -10 -11h-50zM158 199q-2 -4 4 -4h200q2 0 4 1.5t1 2.5l-53 400q0 6 -4 0z" />
<glyph unicode="&#xc4;" horiz-adv-x="515" d="M263 791q-19 0 -30 13t-9 34q2 19 16.5 32.5t33.5 13.5t30 -13t8 -33q-2 -21 -16 -34t-33 -13zM408 791q-20 0 -30.5 13t-7.5 34q2 20 16.5 33t33.5 13t29.5 -13t8.5 -33q-3 -21 -17 -34t-33 -13zM402 0q-10 0 -10 9l-17 125q0 3 -4 3h-232q-4 0 -5 -3l-48 -125 q-2 -9 -11 -9h-51q-12 0 -7 11l264 680q2 9 12 9h62q9 0 9 -9l98 -680q2 -11 -10 -11h-50zM158 199q-2 -4 4 -4h200q2 0 4 1.5t1 2.5l-53 400q0 6 -4 0z" />
<glyph unicode="&#xc5;" horiz-adv-x="515" d="M332 765q-43 0 -68 29.5t-20 72.5q5 44 37.5 73.5t75.5 29.5q41 0 66 -30t20 -73t-37.5 -72.5t-73.5 -29.5zM352 932q-26 0 -46 -18.5t-24 -46.5q-3 -27 12.5 -45.5t41.5 -18.5q25 0 45.5 18.5t23.5 45.5q4 27 -12 46t-41 19zM402 0q-10 0 -10 9l-17 125q0 3 -4 3h-232 q-4 0 -5 -3l-48 -125q-2 -9 -11 -9h-51q-12 0 -7 11l264 680q2 9 12 9h62q9 0 9 -9l98 -680q2 -11 -10 -11h-50zM158 199q-2 -4 4 -4h200q2 0 4 1.5t1 2.5l-53 400q0 6 -4 0z" />
<glyph unicode="&#xc6;" horiz-adv-x="796" d="M809 648q-2 -10 -11 -10h-277q-3 0 -5 -4l-30 -248q0 -4 3 -4h183q10 0 8 -10l-5 -42q-2 -10 -11 -10h-182q-5 0 -5 -4l-30 -250q-2 -4 3 -4h277q11 0 9 -10l-5 -42q-2 -10 -11 -10h-342q-10 0 -8 10l15 123q0 4 -3 4h-213q-3 0 -4 -3l-74 -127q-3 -7 -12 -7h-54 q-12 0 -5 12l401 681q3 7 12 7h373q10 0 8 -10zM203 200q-1 -2 -0.5 -3.5t2.5 -1.5h184q4 0 4 4l51 404q-1 4 -5 1z" />
<glyph unicode="&#xc7;" horiz-adv-x="510" d="M498 505q-2 -10 -11 -10l-50 -2q-9 0 -9 9l2 14q7 58 -23.5 94t-88.5 36t-97 -35.5t-46 -94.5l-41 -332q-7 -59 23.5 -94.5t87.5 -35.5q58 0 97.5 36t46.5 94l2 14q1 9 11 9l49 -3q9 0 9 -8l-2 -9q-10 -84 -65 -136.5t-138 -58.5q-7 0 -2 -5q46 -50 27 -113 q-14 -42 -49.5 -53.5t-71.5 -2.5q-8 3 -5 12l5 22q4 11 13 8q49 -13 62 34q15 48 -37 100q-1 2 -4 2q-68 13 -102.5 64.5t-24.5 128.5l40 323q10 89 70.5 142.5t149.5 53.5t136 -53t37 -141z" />
<glyph unicode="&#xc8;" horiz-adv-x="501" d="M365 794q5 -12 -8 -12h-38q-6 0 -11 7l-53 109q-5 12 7 12h47q7 0 10 -7zM514 648q-2 -10 -11 -10h-291q-4 0 -4 -4l-31 -248q0 -4 4 -4h196q10 0 8 -10l-5 -42q-2 -10 -11 -10h-196q-4 0 -4 -4l-31 -250q0 -4 3 -4h291q11 0 9 -10l-5 -42q-2 -10 -11 -10h-354 q-9 0 -9 10l84 680q2 10 11 10h354q10 0 8 -10z" />
<glyph unicode="&#xc9;" horiz-adv-x="501" d="M434 910q13 0 4 -12l-80 -109q-7 -7 -13 -7h-38q-5 0 -7 3.5t2 8.5l73 109q5 7 12 7h47zM514 648q-2 -10 -11 -10h-291q-4 0 -4 -4l-31 -248q0 -4 4 -4h196q10 0 8 -10l-5 -42q-2 -10 -11 -10h-196q-4 0 -4 -4l-31 -250q0 -4 3 -4h291q11 0 9 -10l-5 -42q-2 -10 -11 -10 h-354q-9 0 -9 10l84 680q2 10 11 10h354q10 0 8 -10z" />
<glyph unicode="&#xca;" horiz-adv-x="501" d="M353 860q-1 2 -3 2t-3 -2l-60 -79q-5 -6 -12 -6h-40q-6 0 -7.5 3.5t2.5 8.5l85 106q5 6 13 6h52q9 0 11 -6l61 -106q3 -5 0.5 -8.5t-8.5 -3.5h-39q-8 0 -11 6zM514 648q-2 -10 -11 -10h-291q-4 0 -4 -4l-31 -248q0 -4 4 -4h196q10 0 8 -10l-5 -42q-2 -10 -11 -10h-196 q-4 0 -4 -4l-31 -250q0 -4 3 -4h291q11 0 9 -10l-5 -42q-2 -10 -11 -10h-354q-9 0 -9 10l84 680q2 10 11 10h354q10 0 8 -10z" />
<glyph unicode="&#xcb;" horiz-adv-x="501" d="M272 802q-19 0 -30 13t-9 34q2 20 17 33t34 13t29.5 -13t8.5 -33q-3 -21 -17 -34t-33 -13zM418 802q-20 0 -31 13t-8 34q2 20 16.5 33t33.5 13t29.5 -13t8.5 -33q-2 -21 -16 -34t-33 -13zM514 648q-2 -10 -11 -10h-291q-4 0 -4 -4l-31 -248q0 -4 4 -4h196q10 0 8 -10 l-5 -42q-2 -10 -11 -10h-196q-4 0 -4 -4l-31 -250q0 -4 3 -4h291q11 0 9 -10l-5 -42q-2 -10 -11 -10h-354q-9 0 -9 10l84 680q2 10 11 10h354q10 0 8 -10z" />
<glyph unicode="&#xcc;" horiz-adv-x="230" d="M215 794q5 -12 -8 -12h-38q-7 0 -11 7l-54 109q-5 12 8 12h46q8 0 11 -7zM71 0q-9 0 -9 10l84 680q2 10 11 10h49q9 0 9 -10l-84 -680q-2 -10 -11 -10h-49z" />
<glyph unicode="&#xcd;" horiz-adv-x="230" d="M157 782q-14 0 -5 12l72 109q7 7 13 7h46q14 0 5 -12l-81 -109q-5 -7 -12 -7h-38zM71 0q-9 0 -9 10l84 680q2 10 11 10h49q9 0 9 -10l-84 -680q-2 -10 -11 -10h-49z" />
<glyph unicode="&#xce;" horiz-adv-x="230" d="M84 775q-5 0 -6.5 3.5t2.5 8.5l85 106q4 6 12 6h53q7 0 11 -6l60 -106q3 -5 1 -8.5t-8 -3.5h-40q-6 0 -11 6l-40 79q-1 2 -3 2t-3 -2l-60 -79q-6 -6 -13 -6h-40zM71 0q-9 0 -9 10l84 680q2 10 11 10h49q9 0 9 -10l-84 -680q-2 -10 -11 -10h-49z" />
<glyph unicode="&#xcf;" horiz-adv-x="230" d="M122 802q-19 0 -30.5 13t-8.5 34q2 19 16.5 32.5t33.5 13.5t29.5 -13t8.5 -33q-2 -21 -16 -34t-33 -13zM267 802q-20 0 -30.5 13t-8.5 34q3 20 17 33t34 13q19 0 29.5 -13t8.5 -33q-3 -21 -17 -34t-33 -13zM71 0q-9 0 -9 10l84 680q2 10 11 10h49q9 0 9 -10l-84 -680 q-2 -10 -11 -10h-49z" />
<glyph unicode="&#xd0;" horiz-adv-x="578" d="M398 700q86 0 130 -51t33 -139l-39 -320q-10 -88 -67 -139t-143 -51h-189q-10 0 -8 10l40 327q0 4 -4 4h-38q-11 0 -9 10l4 28q0 10 11 10h38q3 0 5 4l36 297q2 10 11 10h189zM454 196l38 308q7 62 -20 98t-80 36h-127q-5 0 -5 -4l-29 -241q-2 -4 3 -4h94q9 0 9 -10 l-4 -28q-2 -10 -11 -10h-94q-4 0 -4 -4l-34 -271q0 -4 4 -4h127q54 1 89.5 36.5t43.5 97.5z" />
<glyph unicode="&#xd1;" horiz-adv-x="566" d="M422 798q-22 0 -53 23q-27 20 -41 20q-27 0 -48 -26q-8 -9 -14 -3l-16 13q-8 5 -2 13q33 53 83 53q21 0 54 -23q27 -21 43 -21q26 0 48 28q7 10 14 4l17 -12q8 -6 -2 -20q-35 -49 -83 -49zM71 0q-9 0 -9 10l84 680q2 10 11 10h49q10 0 11 -7l196 -527q3 -3 5 1l64 523 q2 10 11 10h50q10 0 8 -10l-83 -680q-2 -10 -11 -10h-51q-9 0 -10 7l-196 529q-3 2 -5 -2l-64 -524q-2 -10 -11 -10h-49z" />
<glyph unicode="&#xd2;" horiz-adv-x="523" d="M361 788q5 -12 -9 -12h-37q-7 0 -11 7l-54 109q-5 12 7 12h47q6 0 11 -7zM241 -8q-90 0 -137.5 55.5t-36.5 147.5l38 309q11 92 72.5 148t150.5 56q90 0 138 -56t37 -148l-38 -309q-11 -91 -73 -147t-151 -56zM248 54q59 0 99.5 38t48.5 100l39 314q7 63 -24 101.5 t-90 38.5t-99.5 -38.5t-47.5 -101.5l-39 -314q-7 -61 24 -99.5t89 -38.5z" />
<glyph unicode="&#xd3;" horiz-adv-x="523" d="M303 776q-14 0 -5 12l72 109q5 7 13 7h46q12 0 5 -12l-81 -109q-5 -7 -12 -7h-38zM241 -8q-90 0 -137.5 55.5t-36.5 147.5l38 309q11 92 72.5 148t150.5 56q90 0 138 -56t37 -148l-38 -309q-11 -91 -73 -147t-151 -56zM248 54q59 0 99.5 38t48.5 100l39 314 q7 63 -24 101.5t-90 38.5t-99.5 -38.5t-47.5 -101.5l-39 -314q-7 -61 24 -99.5t89 -38.5z" />
<glyph unicode="&#xd4;" horiz-adv-x="523" d="M230 769q-4 0 -6 1.5t-1.5 4.5t3.5 6l85 106q4 6 12 6h52q9 0 11 -6l61 -106q3 -5 1 -8.5t-8 -3.5h-40q-8 0 -11 6l-41 79q0 2 -2 2t-3 -2l-61 -79q-4 -6 -12 -6h-40zM241 -8q-90 0 -137.5 55.5t-36.5 147.5l38 309q11 92 72.5 148t150.5 56q90 0 138 -56t37 -148 l-38 -309q-11 -91 -73 -147t-151 -56zM248 54q59 0 99.5 38t48.5 100l39 314q7 63 -24 101.5t-90 38.5t-99.5 -38.5t-47.5 -101.5l-39 -314q-7 -61 24 -99.5t89 -38.5z" />
<glyph unicode="&#xd5;" horiz-adv-x="523" d="M400 792q-22 0 -53 23q-27 20 -41 20q-27 0 -49 -26q-6 -9 -14 -3l-15 13q-8 5 -2 13q32 53 82 53q22 0 55 -23q27 -21 43 -21q26 0 48 28q7 10 14 4l17 -12q8 -6 -2 -20q-35 -49 -83 -49zM241 -8q-90 0 -137.5 55.5t-36.5 147.5l38 309q11 92 72.5 148t150.5 56 q90 0 138 -56t37 -148l-38 -309q-11 -91 -73 -147t-151 -56zM248 54q59 0 99.5 38t48.5 100l39 314q7 63 -24 101.5t-90 38.5t-99.5 -38.5t-47.5 -101.5l-39 -314q-7 -61 24 -99.5t89 -38.5z" />
<glyph unicode="&#xd6;" horiz-adv-x="523" d="M267 796q-19 0 -30 13t-8 34q2 19 16.5 32.5t33.5 13.5t29.5 -13t8.5 -33q-3 -21 -17 -34t-33 -13zM413 796q-20 0 -30.5 13t-8.5 34q2 20 16.5 33t33.5 13t30 -13t8 -33q-2 -21 -16 -34t-33 -13zM241 -8q-90 0 -137.5 55.5t-36.5 147.5l38 309q11 92 72.5 148t150.5 56 q90 0 138 -56t37 -148l-38 -309q-11 -91 -73 -147t-151 -56zM248 54q59 0 99.5 38t48.5 100l39 314q7 63 -24 101.5t-90 38.5t-99.5 -38.5t-47.5 -101.5l-39 -314q-7 -61 24 -99.5t89 -38.5z" />
<glyph unicode="&#xd7;" horiz-adv-x="384" d="M378 443q6 -7 -1 -14l-121 -111q-3 -3 0 -6l92 -109q6 -8 -2 -14l-30 -28q-9 -7 -14 0l-92 109q-3 3 -6 0l-120 -110q-9 -7 -14 0l-23 27q-5 7 2 14l120 110q3 3 1 6l-96 113q-6 8 2 14l30 28q9 7 14 0l96 -113q2 -3 6 0l120 111q7 7 13 0z" />
<glyph unicode="&#xd8;" horiz-adv-x="542" d="M478 650q-2 -2 0 -5q42 -55 32 -141l-38 -309q-11 -91 -73 -147t-152 -56q-67 0 -111 33q-5 2 -6 -2l-31 -54q-5 -8 -12 -8h-33q-5 0 -7 3.5t1 8.5l49 87q1 2 -1 6q-32 50 -23 129l38 309q11 92 73 148t151 56q61 0 102 -26q5 -2 6 2l30 53q3 8 11 8h34q12 0 7 -12z M142 192q-3 -22 0 -42q1 -3 4 0l259 466q2 3 -1 5q-30 25 -76 25q-58 0 -99 -38.5t-49 -101.5zM403 192l38 314q5 35 -3 62q-1 2 -2.5 2t-2.5 -2l-264 -475q-3 -3 0 -5q31 -34 86 -34q59 0 99.5 38t48.5 100z" />
<glyph unicode="&#xd9;" horiz-adv-x="545" d="M373 795q5 -12 -8 -12h-38q-6 0 -11 7l-53 109q-5 12 7 12h47q7 0 10 -7zM252 -8q-89 0 -136.5 57t-36.5 151l60 490q2 10 11 10h49q11 0 9 -10l-61 -494q-8 -64 23.5 -103t89.5 -39t99 39t48 103l61 494q2 10 11 10h49q9 0 9 -10l-60 -490q-12 -94 -74 -151t-151 -57z " />
<glyph unicode="&#xda;" horiz-adv-x="545" d="M315 783q-5 0 -7 3.5t2 8.5l73 109q5 7 12 7h47q13 0 4 -12l-80 -109q-7 -7 -13 -7h-38zM252 -8q-89 0 -136.5 57t-36.5 151l60 490q2 10 11 10h49q11 0 9 -10l-61 -494q-8 -64 23.5 -103t89.5 -39t99 39t48 103l61 494q2 10 11 10h49q9 0 9 -10l-60 -490 q-12 -94 -74 -151t-151 -57z" />
<glyph unicode="&#xdb;" horiz-adv-x="545" d="M243 776q-6 0 -7.5 4t2.5 8l85 106q5 6 13 6h52q9 0 11 -6l61 -106q3 -4 0.5 -8t-8.5 -4h-40q-7 0 -10 6l-41 79q-1 1 -3 1t-3 -1l-60 -79q-6 -6 -13 -6h-39zM252 -8q-89 0 -136.5 57t-36.5 151l60 490q2 10 11 10h49q11 0 9 -10l-61 -494q-8 -64 23.5 -103t89.5 -39 t99 39t48 103l61 494q2 10 11 10h49q9 0 9 -10l-60 -490q-12 -94 -74 -151t-151 -57z" />
<glyph unicode="&#xdc;" horiz-adv-x="545" d="M280 803q-19 0 -30 13t-9 34q2 19 16.5 32.5t33.5 13.5t30 -13t8 -33q-2 -21 -16 -34t-33 -13zM425 803q-20 0 -30.5 13t-7.5 34q2 20 16.5 33t33.5 13t29.5 -13t8.5 -33q-3 -21 -17 -34t-33 -13zM252 -8q-89 0 -136.5 57t-36.5 151l60 490q2 10 11 10h49q11 0 9 -10 l-61 -494q-8 -64 23.5 -103t89.5 -39t99 39t48 103l61 494q2 10 11 10h49q9 0 9 -10l-60 -490q-12 -94 -74 -151t-151 -57z" />
<glyph unicode="&#xdd;" horiz-adv-x="481" d="M282 771q-14 0 -5 12l72 109q7 7 13 7h46q12 0 5 -12l-81 -109q-5 -7 -12 -7h-38zM196 1q-10 0 -8 10l36 298v5l-122 374q-3 12 9 12h53q8 0 9 -8l94 -299q0 -3 3 -2q1 0 2 2l167 299q4 8 12 8h52q13 0 6 -12l-214 -374q-2 -2 -2 -5l-37 -298q0 -10 -10 -10h-50z" />
<glyph unicode="&#xde;" horiz-adv-x="490" d="M330 544q77 0 118.5 -54t30.5 -141q-10 -86 -65 -138.5t-132 -52.5h-133q-4 0 -4 -4l-18 -144q0 -10 -11 -10h-49q-9 0 -9 10l84 680q2 10 11 10h49q11 0 9 -10l-18 -142q0 -4 4 -4h133zM281 216q51 0 86.5 36t42.5 96q7 61 -19.5 97t-77.5 36h-124q-4 0 -4 -4l-32 -257 q0 -4 4 -4h124z" />
<glyph unicode="&#xdf;" horiz-adv-x="495" d="M59 0q-10 0 -8 10l61 500q11 93 65 146t136 53q87 0 130 -49t34 -136q-12 -112 -94 -150q-5 -2 -1 -5q36 -19 52.5 -64.5t8.5 -109.5q-11 -92 -68.5 -143.5t-155.5 -51.5h-48q-9 0 -9 10l5 41q2 10 11 10l53 1q62 0 99.5 36t45.5 103t-16 104t-78 38h-51q-10 0 -8 10 l4 37q2 10 11 10h52q51 0 82 32t36 90q6 59 -19.5 92t-80.5 33q-49 0 -84 -34.5t-42 -95.5l-62 -507q-2 -10 -11 -10h-50z" />
<glyph unicode="&#xe0;" d="M309 596q5 -12 -8 -12h-38q-7 0 -11 7l-54 109q-5 12 8 12h46q8 0 11 -7zM372 496q2 10 11 10h50q10 0 8 -10l-60 -486q0 -10 -10 -10h-50q-10 0 -8 10l5 41q0 3 -2 3.5t-3 -2.5q-45 -60 -122 -60q-60 0 -94 37t-39 107q-2 41 7 116q9 74 21 116q20 70 64.5 108t107.5 38 q78 0 104 -59q3 -3 5 1zM320 141q13 42 21 112q10 72 6 113q-2 40 -23 63t-58 23q-38 0 -66.5 -23t-40.5 -61q-16 -43 -25 -115t-5 -111q2 -41 24.5 -64.5t62.5 -23.5q38 0 64.5 23.5t39.5 63.5z" />
<glyph unicode="&#xe1;" d="M377 712q14 0 5 -12l-81 -109q-5 -7 -12 -7h-38q-14 0 -5 12l72 109q7 7 13 7h46zM372 496q2 10 11 10h50q10 0 8 -10l-60 -486q0 -10 -10 -10h-50q-10 0 -8 10l5 41q0 3 -2 3.5t-3 -2.5q-45 -60 -122 -60q-60 0 -94 37t-39 107q-2 41 7 116q9 74 21 116q20 70 64.5 108 t107.5 38q78 0 104 -59q3 -3 5 1zM320 141q13 42 21 112q10 72 6 113q-2 40 -23 63t-58 23q-38 0 -66.5 -23t-40.5 -61q-16 -43 -25 -115t-5 -111q2 -41 24.5 -64.5t62.5 -23.5q38 0 64.5 23.5t39.5 63.5z" />
<glyph unicode="&#xe2;" d="M297 662q-1 2 -3 2t-3 -2l-60 -79q-6 -6 -13 -6h-39q-6 0 -7.5 3.5t2.5 8.5l85 106q4 6 12 6h53q7 0 11 -6l60 -106q3 -5 1 -8.5t-8 -3.5h-40q-6 0 -11 6zM372 496q2 10 11 10h50q10 0 8 -10l-60 -486q0 -10 -10 -10h-50q-10 0 -8 10l5 41q0 3 -2 3.5t-3 -2.5 q-45 -60 -122 -60q-60 0 -94 37t-39 107q-2 41 7 116q9 74 21 116q20 70 64.5 108t107.5 38q78 0 104 -59q3 -3 5 1zM320 141q13 42 21 112q10 72 6 113q-2 40 -23 63t-58 23q-38 0 -66.5 -23t-40.5 -61q-16 -43 -25 -115t-5 -111q2 -41 24.5 -64.5t62.5 -23.5 q38 0 64.5 23.5t39.5 63.5z" />
<glyph unicode="&#xe3;" d="M255 643q-28 0 -49 -26q-8 -9 -14 -3l-16 13q-8 5 -2 13q33 53 83 53q21 0 54 -23q29 -21 43 -21q26 0 48 28q7 10 14 4l17 -12q8 -5 2 -14q-35 -55 -87 -55q-23 0 -52 23q-27 20 -41 20zM372 496q2 10 11 10h50q10 0 8 -10l-60 -486q0 -10 -10 -10h-50q-10 0 -8 10l5 41 q0 3 -2 3.5t-3 -2.5q-45 -60 -122 -60q-60 0 -94 37t-39 107q-2 41 7 116q9 74 21 116q20 70 64.5 108t107.5 38q78 0 104 -59q3 -3 5 1zM320 141q13 42 21 112q10 72 6 113q-2 40 -23 63t-58 23q-38 0 -66.5 -23t-40.5 -61q-16 -43 -25 -115t-5 -111q2 -41 24.5 -64.5 t62.5 -23.5q38 0 64.5 23.5t39.5 63.5z" />
<glyph unicode="&#xe4;" d="M216 604q-19 0 -30.5 13t-8.5 34q2 19 16.5 32.5t33.5 13.5t29.5 -13t8.5 -33q-2 -21 -16 -34t-33 -13zM361 604q-20 0 -30.5 13t-8.5 34q3 20 17.5 33t33.5 13t29.5 -13t8.5 -33q-3 -21 -17 -34t-33 -13zM372 496q2 10 11 10h50q10 0 8 -10l-60 -486q0 -10 -10 -10h-50 q-10 0 -8 10l5 41q0 3 -2 3.5t-3 -2.5q-45 -60 -122 -60q-60 0 -94 37t-39 107q-2 41 7 116q9 74 21 116q20 70 64.5 108t107.5 38q78 0 104 -59q3 -3 5 1zM320 141q13 42 21 112q10 72 6 113q-2 40 -23 63t-58 23q-38 0 -66.5 -23t-40.5 -61q-16 -43 -25 -115t-5 -111 q2 -41 24.5 -64.5t62.5 -23.5q38 0 64.5 23.5t39.5 63.5z" />
<glyph unicode="&#xe5;" d="M284 578q-42 0 -67 29.5t-20 72.5q5 44 37.5 73.5t75.5 29.5q41 0 66 -30t20 -73t-37.5 -72.5t-74.5 -29.5zM305 745q-26 0 -46.5 -19t-23.5 -46q-4 -27 12 -45.5t42 -18.5q25 0 45.5 18.5t23.5 45.5q4 27 -12 46t-41 19zM372 496q2 10 11 10h50q10 0 8 -10l-60 -486 q0 -10 -10 -10h-50q-10 0 -8 10l5 41q0 3 -2 3.5t-3 -2.5q-45 -60 -122 -60q-60 0 -94 37t-39 107q-2 41 7 116q9 74 21 116q20 70 64.5 108t107.5 38q78 0 104 -59q3 -3 5 1zM320 141q13 42 21 112q10 72 6 113q-2 40 -23 63t-58 23q-38 0 -66.5 -23t-40.5 -61 q-16 -43 -25 -115t-5 -111q2 -41 24.5 -64.5t62.5 -23.5q38 0 64.5 23.5t39.5 63.5z" />
<glyph unicode="&#xe6;" horiz-adv-x="720" d="M172 -8q-41 0 -71.5 11t-50 44t-12.5 86q9 79 62.5 118t139.5 39h93q5 0 5 4l5 46q6 51 -15 81.5t-71 30.5q-37 0 -66 -19.5t-39 -51.5q-3 -11 -12 -9l-49 5q-9 2 -8 11q14 57 65 91.5t117 34.5q96 0 125 -78q2 -5 5 0q23 34 61.5 56t84.5 22q67 0 108 -40.5t41 -105.5 q-2 -50 -11 -129q0 -10 -11 -10h-264q-4 0 -4 -4q-1 -12 -3 -34t-4 -35q-4 -45 23 -71t73 -26q77 0 110 70q3 10 12 6l40 -12q8 -3 5 -12q-20 -54 -67 -86.5t-110 -32.5q-50 0 -85.5 22t-47.5 57q-1 2 -3 2q-21 -38 -68 -59.5t-103 -21.5zM409 294q-1 -4 3 -4h201q4 0 4 4 q2 13 3.5 34t2.5 27q1 43 -24 70t-67 27t-73 -27t-41 -70q-7 -42 -9 -61zM190 50q48 0 86 26.5t44 75.5l9 73q2 4 -3 4h-86q-55 0 -90.5 -23t-41.5 -69q-5 -43 17.5 -65t64.5 -22z" />
<glyph unicode="&#xe7;" horiz-adv-x="447" d="M333 140q2 6 2 8q3 10 12 9l48 -4q8 -2 8 -9l-1 -2v-2l-3 -12q-12 -53 -56.5 -90t-104.5 -44q-5 -2 -2 -5q48 -54 28 -115q-14 -42 -49.5 -53.5t-71.5 -2.5q-9 3 -6 12l6 22q4 11 13 8q49 -13 62 34q15 47 -36 98q0 2 -4 2q-55 10 -86 48t-33 96q0 49 8 116q6 49 20 115 q17 65 68 105t121 40q68 0 110 -37.5t44 -95.5v-21q0 -11 -10 -11l-50 -3q-9 0 -9 9v12q0 35 -25.5 60t-67.5 25q-43 0 -74 -27t-41 -70q-9 -40 -17 -102q-8 -67 -8 -103q0 -44 24 -70t67 -26t74.5 25t39.5 61z" />
<glyph unicode="&#xe8;" horiz-adv-x="457" d="M306 597q5 -12 -8 -12h-38q-6 0 -11 7l-53 109q-5 12 7 12h47q6 0 10 -7zM222 54q77 0 113 73q3 10 12 7l39 -11q9 -3 5 -12q-22 -55 -69 -87t-111 -32q-68 0 -107.5 37.5t-41.5 101.5q-3 39 6 123q9 74 18 112q16 67 67 107.5t121 40.5q76 0 115.5 -44t36.5 -118 q-1 -46 -10 -114q0 -10 -11 -10h-268q-4 0 -5 -4q-4 -41 -6 -73q0 -44 26 -70.5t70 -26.5zM266 452q-42 0 -72.5 -26t-41.5 -69q-6 -27 -12 -68q0 -4 4 -4h205q4 0 4 4q4 48 5 66q1 43 -24 70t-68 27z" />
<glyph unicode="&#xe9;" horiz-adv-x="457" d="M375 713q13 0 4 -12l-80 -109q-7 -7 -13 -7h-38q-5 0 -7 3.5t2 8.5l73 109q5 7 12 7h47zM222 54q77 0 113 73q3 10 12 7l39 -11q9 -3 5 -12q-22 -55 -69 -87t-111 -32q-68 0 -107.5 37.5t-41.5 101.5q-3 39 6 123q9 74 18 112q16 67 67 107.5t121 40.5q76 0 115.5 -44 t36.5 -118q-1 -46 -10 -114q0 -10 -11 -10h-268q-4 0 -5 -4q-4 -41 -6 -73q0 -44 26 -70.5t70 -26.5zM266 452q-42 0 -72.5 -26t-41.5 -69q-6 -27 -12 -68q0 -4 4 -4h205q4 0 4 4q4 48 5 66q1 43 -24 70t-68 27z" />
<glyph unicode="&#xea;" horiz-adv-x="457" d="M294 663q-1 1 -3 1t-3 -1l-60 -79q-6 -6 -13 -6h-39q-6 0 -7.5 4t2.5 8l85 106q5 6 13 6h52q9 0 11 -6l61 -106q3 -4 0.5 -8t-8.5 -4h-40q-7 0 -10 6zM222 54q77 0 113 73q3 10 12 7l39 -11q9 -3 5 -12q-22 -55 -69 -87t-111 -32q-68 0 -107.5 37.5t-41.5 101.5 q-3 39 6 123q9 74 18 112q16 67 67 107.5t121 40.5q76 0 115.5 -44t36.5 -118q-1 -46 -10 -114q0 -10 -11 -10h-268q-4 0 -5 -4q-4 -41 -6 -73q0 -44 26 -70.5t70 -26.5zM266 452q-42 0 -72.5 -26t-41.5 -69q-6 -27 -12 -68q0 -4 4 -4h205q4 0 4 4q4 48 5 66q1 43 -24 70 t-68 27z" />
<glyph unicode="&#xeb;" horiz-adv-x="457" d="M213 605q-19 0 -30 13t-9 34q2 19 16.5 32.5t33.5 13.5t30 -13t8 -33q-2 -21 -16 -34t-33 -13zM358 605q-20 0 -30.5 13t-7.5 34q2 20 16.5 33t33.5 13t29.5 -13t8.5 -33q-3 -21 -17 -34t-33 -13zM222 54q77 0 113 73q3 10 12 7l39 -11q9 -3 5 -12q-22 -55 -69 -87 t-111 -32q-68 0 -107.5 37.5t-41.5 101.5q-3 39 6 123q9 74 18 112q16 67 67 107.5t121 40.5q76 0 115.5 -44t36.5 -118q-1 -46 -10 -114q0 -10 -11 -10h-268q-4 0 -5 -4q-4 -41 -6 -73q0 -44 26 -70.5t70 -26.5zM266 452q-42 0 -72.5 -26t-41.5 -69q-6 -27 -12 -68 q0 -4 4 -4h205q4 0 4 4q4 48 5 66q1 43 -24 70t-68 27z" />
<glyph unicode="&#xec;" horiz-adv-x="198" d="M173 599q5 -12 -8 -12h-38q-7 0 -10 7l-54 109q-5 12 7 12h47q6 0 11 -7zM53 0q-10 0 -8 10l60 486q0 10 10 10h50q10 0 8 -10l-59 -486q-2 -10 -11 -10h-50z" />
<glyph unicode="&#xed;" horiz-adv-x="198" d="M116 587q-13 0 -6 12l73 109q5 7 12 7h47q13 0 4 -12l-80 -109q-5 -7 -12 -7h-38zM53 0q-10 0 -8 10l60 486q0 10 10 10h50q10 0 8 -10l-59 -486q-2 -10 -11 -10h-50z" />
<glyph unicode="&#xee;" horiz-adv-x="198" d="M43 580q-6 0 -7.5 4t3.5 8l85 106q4 6 12 6h52q9 0 11 -6l61 -106q3 -4 0.5 -8t-7.5 -4h-40q-8 0 -11 6l-41 79q-2 4 -6 0l-60 -79q-5 -6 -12 -6h-40zM53 0q-10 0 -8 10l60 486q0 10 10 10h50q10 0 8 -10l-59 -486q-2 -10 -11 -10h-50z" />
<glyph unicode="&#xef;" horiz-adv-x="198" d="M80 607q-19 0 -30 13t-8 34q2 19 16.5 32.5t33.5 13.5t29.5 -13t8.5 -33q-3 -21 -17 -34t-33 -13zM226 607q-20 0 -30.5 13t-8.5 34q2 20 16.5 33t33.5 13t29.5 -13t8.5 -33q-2 -21 -16 -34t-33 -13zM53 0q-10 0 -8 10l60 486q0 10 10 10h50q10 0 8 -10l-59 -486 q-2 -10 -11 -10h-50z" />
<glyph unicode="&#xf0;" horiz-adv-x="465" d="M421 352q-2 -30 -11 -107q-9 -78 -18 -110q-16 -64 -66.5 -103.5t-119.5 -39.5t-109 39t-42 104q0 36 9 110q10 78 18 110q14 59 57 96.5t101 39.5q74 7 109 -33q4 -3 4 2q-7 57 -38 114q-2 4 -5 2l-83 -24q-11 -4 -12 7l-3 18q-1 10 9 13l66 20q6 2 3 5q-25 37 -57 73 q-5 4 -3 8t9 4h50q4 0 11 -5q43 -57 48 -64q2 -4 5 -2l80 24q11 3 12 -7l2 -20q1 -9 -8 -12l-62 -19q-4 -2 -4 -4q57 -100 48 -239zM327 147q9 47 14 97q7 54 9 97t-23 69.5t-67 26.5t-72.5 -26.5t-39.5 -69.5q-6 -25 -15 -97q-8 -61 -9 -97q-1 -43 23 -69.5t66 -26.5t73 27 t41 69z" />
<glyph unicode="&#xf1;" d="M260 638q-25 0 -45 -26q-8 -9 -14 -3l-15 13q-7 5 -1 13q32 53 78 53q19 0 50 -23q27 -21 41 -21q26 0 45 28q4 9 14 3l15 -11q7 -6 2 -14q-34 -55 -82 -55q-22 0 -49 23q-25 20 -39 20zM301 513q68 0 101.5 -44.5t24.5 -121.5l-42 -337q0 -10 -11 -10h-49q-9 0 -9 10 l41 327q6 53 -16.5 83.5t-66.5 30.5q-46 0 -77.5 -31.5t-37.5 -84.5l-40 -325q-2 -10 -11 -10h-50q-10 0 -8 10l59 486q2 10 11 10h50q10 0 8 -10l-4 -37q-1 -2 0.5 -3t3.5 1q46 56 123 56z" />
<glyph unicode="&#xf2;" horiz-adv-x="466" d="M309 597q5 -12 -8 -12h-38q-6 0 -11 7l-53 109q-5 12 7 12h46q8 0 11 -7zM212 -8q-70 0 -110.5 39.5t-41.5 106.5q-1 47 7 116t21 114q17 67 67.5 106.5t121.5 39.5q70 0 110.5 -39.5t41.5 -105.5q1 -48 -7 -115q-8 -68 -21 -116q-17 -67 -68 -106.5t-121 -39.5zM220 54 q42 0 74 26.5t43 70.5q10 50 16 102q7 58 9 102q-1 44 -26 70.5t-67 26.5t-74 -26.5t-43 -70.5q-10 -48 -16 -102q-7 -58 -9 -102q1 -44 26 -70.5t67 -26.5z" />
<glyph unicode="&#xf3;" horiz-adv-x="466" d="M251 585q-5 0 -7 3.5t2 8.5l73 109q5 7 12 7h47q13 0 4 -12l-80 -109q-7 -7 -13 -7h-38zM212 -8q-70 0 -110.5 39.5t-41.5 106.5q-1 47 7 116t21 114q17 67 67.5 106.5t121.5 39.5q70 0 110.5 -39.5t41.5 -105.5q1 -48 -7 -115q-8 -68 -21 -116q-17 -67 -68 -106.5 t-121 -39.5zM220 54q42 0 74 26.5t43 70.5q10 50 16 102q7 58 9 102q-1 44 -26 70.5t-67 26.5t-74 -26.5t-43 -70.5q-10 -48 -16 -102q-7 -58 -9 -102q1 -44 26 -70.5t67 -26.5z" />
<glyph unicode="&#xf4;" horiz-adv-x="466" d="M179 578q-6 0 -7.5 4t2.5 8l85 106q5 6 12 6h53q7 0 11 -6l60 -106q4 -4 1.5 -8t-8.5 -4h-40q-6 0 -11 6l-40 79q-1 1 -3 1t-3 -1l-60 -79q-6 -6 -13 -6h-39zM212 -8q-70 0 -110.5 39.5t-41.5 106.5q-1 47 7 116t21 114q17 67 67.5 106.5t121.5 39.5q70 0 110.5 -39.5 t41.5 -105.5q1 -48 -7 -115q-8 -68 -21 -116q-17 -67 -68 -106.5t-121 -39.5zM220 54q42 0 74 26.5t43 70.5q10 50 16 102q7 58 9 102q-1 44 -26 70.5t-67 26.5t-74 -26.5t-43 -70.5q-10 -48 -16 -102q-7 -58 -9 -102q1 -44 26 -70.5t67 -26.5z" />
<glyph unicode="&#xf5;" horiz-adv-x="466" d="M348 601q-23 0 -52 23q-27 20 -41 20q-28 0 -49 -26q-8 -9 -14 -3l-16 13q-8 6 -2 13q33 53 83 53q21 0 54 -23q29 -21 43 -21q26 0 48 28q7 10 14 4l17 -12q8 -5 -2 -20q-34 -49 -83 -49zM212 -8q-70 0 -110.5 39.5t-41.5 106.5q-1 47 7 116t21 114q17 67 67.5 106.5 t121.5 39.5q70 0 110.5 -39.5t41.5 -105.5q1 -48 -7 -115q-8 -68 -21 -116q-17 -67 -68 -106.5t-121 -39.5zM220 54q42 0 74 26.5t43 70.5q10 50 16 102q7 58 9 102q-1 44 -26 70.5t-67 26.5t-74 -26.5t-43 -70.5q-10 -48 -16 -102q-7 -58 -9 -102q1 -44 26 -70.5t67 -26.5z " />
<glyph unicode="&#xf6;" horiz-adv-x="466" d="M216 605q-19 0 -30 13t-9 34q2 19 16.5 32.5t33.5 13.5t30 -13t8 -33q-2 -21 -16 -34t-33 -13zM361 605q-20 0 -30.5 13t-7.5 34q2 20 16.5 33t33.5 13t29.5 -13t8.5 -33q-3 -21 -17 -34t-33 -13zM212 -8q-70 0 -110.5 39.5t-41.5 106.5q-1 47 7 116t21 114 q17 67 67.5 106.5t121.5 39.5q70 0 110.5 -39.5t41.5 -105.5q1 -48 -7 -115q-8 -68 -21 -116q-17 -67 -68 -106.5t-121 -39.5zM220 54q42 0 74 26.5t43 70.5q10 50 16 102q7 58 9 102q-1 44 -26 70.5t-67 26.5t-74 -26.5t-43 -70.5q-10 -48 -16 -102q-7 -58 -9 -102 q1 -44 26 -70.5t67 -26.5z" />
<glyph unicode="&#xf7;" horiz-adv-x="457" d="M262 433q-21 0 -34.5 15.5t-10.5 37.5q2 21 19 36t38 15t34.5 -15t11.5 -36q-3 -22 -20 -37.5t-38 -15.5zM62 296q-11 0 -9 10l5 38q0 10 11 10h367q11 0 9 -10l-5 -38q-2 -10 -11 -10h-367zM224 123q-21 0 -34.5 15t-10.5 37q2 21 19 36.5t38 15.5t34.5 -15.5 t10.5 -36.5q-2 -21 -19 -36.5t-38 -15.5z" />
<glyph unicode="&#xf8;" horiz-adv-x="476" d="M437 369q1 -48 -7 -115q-8 -68 -21 -116q-18 -67 -69 -106.5t-120 -39.5q-58 0 -97 28q-3 2 -5 -2l-31 -44q-5 -8 -14 -3l-28 21q-7 5 -2 13l39 57q3 3 1 6q-14 29 -16 70q0 50 8 116q8 69 21 114q17 67 67.5 106.5t121.5 39.5q51 0 89 -23q2 -2 5 1l28 41q6 9 14 4 l28 -21q7 -5 2 -13l-34 -50q-2 -3 0 -5q20 -37 20 -79zM135 151v-4q0 -3 1.5 -3.5t3.5 2.5l195 283q1 4 -1 5q-22 18 -57 18q-42 0 -74 -26.5t-43 -70.5q-10 -48 -16 -102q-9 -70 -9 -102zM344 151q7 30 17 102q7 58 9 102q0 7 -2 19q-2 5 -5 0l-200 -290q-3 -3 0 -5 q25 -25 65 -25q42 0 73.5 26.5t42.5 70.5z" />
<glyph unicode="&#xf9;" horiz-adv-x="466" d="M306 589q5 -12 -8 -12h-38q-6 0 -11 7l-53 109q-5 12 7 12h47q6 0 10 -7zM370 496q2 10 11 10h50q10 0 8 -10l-59 -486q-2 -10 -11 -10h-50q-10 0 -8 10l4 39q1 3 -0.5 3t-3.5 -2q-42 -57 -120 -57q-66 0 -102.5 40t-27.5 116l43 347q0 10 11 10h49q10 0 8 -10l-40 -329 q-7 -53 15 -82.5t67 -29.5q47 0 78.5 31.5t37.5 84.5z" />
<glyph unicode="&#xfa;" horiz-adv-x="466" d="M375 705q13 0 4 -12l-80 -109q-7 -7 -13 -7h-38q-5 0 -7 3.5t2 8.5l73 109q5 7 12 7h47zM370 496q2 10 11 10h50q10 0 8 -10l-59 -486q-2 -10 -11 -10h-50q-10 0 -8 10l4 39q1 3 -0.5 3t-3.5 -2q-42 -57 -120 -57q-66 0 -102.5 40t-27.5 116l43 347q0 10 11 10h49 q10 0 8 -10l-40 -329q-7 -53 15 -82.5t67 -29.5q47 0 78.5 31.5t37.5 84.5z" />
<glyph unicode="&#xfb;" horiz-adv-x="466" d="M294 655q-1 1 -3 1t-3 -1l-60 -79q-6 -6 -13 -6h-39q-6 0 -7.5 4t2.5 8l85 106q5 6 13 6h52q9 0 11 -6l61 -106q3 -4 0.5 -8t-8.5 -4h-40q-7 0 -10 6zM370 496q2 10 11 10h50q10 0 8 -10l-59 -486q-2 -10 -11 -10h-50q-10 0 -8 10l4 39q1 3 -0.5 3t-3.5 -2 q-42 -57 -120 -57q-66 0 -102.5 40t-27.5 116l43 347q0 10 11 10h49q10 0 8 -10l-40 -329q-7 -53 15 -82.5t67 -29.5q47 0 78.5 31.5t37.5 84.5z" />
<glyph unicode="&#xfc;" horiz-adv-x="466" d="M213 597q-19 0 -30 13t-9 34q2 19 16.5 32.5t33.5 13.5t30 -13t8 -33q-2 -21 -16 -34t-33 -13zM358 597q-20 0 -30.5 13t-7.5 34q2 20 16.5 33t33.5 13t29.5 -13t8.5 -33q-3 -21 -17 -34t-33 -13zM370 496q2 10 11 10h50q10 0 8 -10l-59 -486q-2 -10 -11 -10h-50 q-10 0 -8 10l4 39q1 3 -0.5 3t-3.5 -2q-42 -57 -120 -57q-66 0 -102.5 40t-27.5 116l43 347q0 10 11 10h49q10 0 8 -10l-40 -329q-7 -53 15 -82.5t67 -29.5q47 0 78.5 31.5t37.5 84.5z" />
<glyph unicode="&#xfd;" horiz-adv-x="402" d="M219 579q-15 0 -6 12l73 109q5 7 12 7h47q13 0 4 -12l-80 -109q-7 -7 -13 -7h-37zM6 -200q-8 0 -6 10l5 41q2 10 7 10h6q49 0 73 26t55 110q1 2 1 6l-84 492q-2 11 10 11h52q10 0 10 -8l57 -396q2 -5 5 0l153 395q4 9 12 9h52q11 0 8 -11l-225 -539q-40 -96 -75.5 -126 t-110.5 -30h-5z" />
<glyph unicode="&#xfe;" horiz-adv-x="463" d="M428 368q2 -40 -7 -116q-9 -71 -22 -116q-22 -70 -65 -107t-103 -37q-75 0 -105 56q-2 3 -5 -2l-29 -236q-2 -10 -11 -10h-49q-11 0 -9 10l108 880q2 10 11 10h50q10 0 8 -10l-28 -229q0 -9 4 -1q42 54 116 54q63 0 98 -38t38 -108zM330 142q13 40 22 111q9 76 4 115 q-4 38 -26.5 61t-60.5 23t-64 -23t-38 -63q-8 -24 -12 -47l-17 -133q-2 -26 1 -45q2 -40 23 -63.5t59 -23.5q40 0 68.5 23.5t40.5 64.5z" />
<glyph unicode="&#xff;" horiz-adv-x="402" d="M183 599q-19 0 -30 13t-9 34q3 20 17.5 33t33.5 13t29.5 -13t8.5 -33q-3 -21 -17 -34t-33 -13zM329 599q-20 0 -31 13t-8 34q2 20 16.5 33t33.5 13t29.5 -13t8.5 -33q-2 -21 -16 -34t-33 -13zM6 -200q-8 0 -6 10l5 41q2 10 7 10h6q49 0 73 26t55 110q1 2 1 6l-84 492 q-2 11 10 11h52q10 0 10 -8l57 -396q2 -5 5 0l153 395q4 9 12 9h52q11 0 8 -11l-225 -539q-40 -96 -75.5 -126t-110.5 -30h-5z" />
<glyph unicode="&#x152;" horiz-adv-x="780" d="M792 648q-2 -10 -11 -10h-271q-4 0 -4 -4l-31 -248q0 -4 4 -4h175q9 0 9 -10l-6 -42q0 -10 -10 -10h-176q-4 0 -4 -4l-31 -250q0 -4 3 -4h271q10 0 8 -10l-5 -42q-2 -10 -11 -10h-333q-11 0 -9 10l5 39q0 6 -5 1q-58 -58 -141 -58q-77 0 -120 54.5t-33 141.5l39 323 q11 87 68 142t134 55q82 0 127 -59q3 -4 5 2l5 39q0 10 11 10h333q9 0 9 -10zM241 54q55 0 94 37t47 94l40 328q7 58 -23 95.5t-85 37.5t-93.5 -37.5t-45.5 -95.5l-41 -328q-7 -57 23 -94t84 -37z" />
<glyph unicode="&#x153;" horiz-adv-x="735" d="M503 53q35 0 65 20t45 53q5 9 12 6l38 -10q9 -3 6 -13q-22 -54 -68.5 -85.5t-107.5 -31.5q-94 0 -130 79q-3 3 -6 0q-59 -79 -149 -79q-69 0 -109 40t-41 106q-1 31 9 116q9 79 19 115q16 65 66.5 105t119.5 40q89 0 130 -79q2 -3 5 0q57 79 147 79q70 0 111 -40.5 t41 -105.5q-2 -53 -11 -126q-2 -10 -11 -10h-265q-4 0 -4 -4q-5 -39 -7 -77q0 -44 25.5 -71t69.5 -27zM329 151q8 38 15 102q10 82 10 102q1 43 -23.5 70t-66.5 27t-72.5 -27t-40.5 -70q-5 -23 -15 -102q-6 -51 -10 -102q-1 -43 23 -70t66 -27t73 27t41 70zM547 452 q-42 0 -73 -27t-40 -70l-12 -69q0 -4 4 -4h201q4 0 5 4q5 42 5 69q1 43 -23.5 70t-66.5 27z" />
<glyph unicode="&#x178;" horiz-adv-x="481" d="M247 791q-20 0 -31 13t-8 34q2 19 16.5 32.5t33.5 13.5t29.5 -13t8.5 -33q-3 -21 -16.5 -34t-32.5 -13zM392 791q-20 0 -30.5 13t-8.5 34q2 20 16.5 33t33.5 13t30 -13t8 -33q-2 -21 -16 -34t-33 -13zM196 1q-10 0 -8 10l36 298v5l-122 374q-3 12 9 12h53q8 0 9 -8 l94 -299q0 -3 3 -2q1 0 2 2l167 299q4 8 12 8h52q13 0 6 -12l-214 -374q-2 -2 -2 -5l-37 -298q0 -10 -10 -10h-50z" />
<glyph unicode="&#x2c6;" horiz-adv-x="239" d="M65 570q-6 0 -7.5 4t3.5 8l85 106q4 6 12 6h52q9 0 11 -6l61 -106q3 -4 0.5 -8t-7.5 -4h-40q-8 0 -11 6l-41 79q0 1 -2.5 1t-3.5 -1l-60 -79q-5 -6 -12 -6h-40z" />
<glyph unicode="&#x2dc;" horiz-adv-x="317" d="M262 593q-22 0 -53 23q-27 20 -41 20q-27 0 -48 -26q-8 -9 -14 -3l-16 13q-8 5 -2 13q33 53 83 53q21 0 54 -23q27 -21 43 -21q26 0 48 28q7 10 14 4l17 -12q8 -6 -2 -20q-35 -49 -83 -49z" />
<glyph unicode="&#x2000;" horiz-adv-x="485" />
<glyph unicode="&#x2001;" horiz-adv-x="970" />
<glyph unicode="&#x2002;" horiz-adv-x="485" />
<glyph unicode="&#x2003;" horiz-adv-x="970" />
<glyph unicode="&#x2004;" horiz-adv-x="323" />
<glyph unicode="&#x2005;" horiz-adv-x="242" />
<glyph unicode="&#x2006;" horiz-adv-x="161" />
<glyph unicode="&#x2007;" horiz-adv-x="161" />
<glyph unicode="&#x2008;" horiz-adv-x="121" />
<glyph unicode="&#x2009;" horiz-adv-x="194" />
<glyph unicode="&#x200a;" horiz-adv-x="53" />
<glyph unicode="&#x2010;" horiz-adv-x="343" d="M60 280q-11 0 -9 10l5 42q2 10 11 10h254q11 0 9 -10l-5 -42q-2 -10 -11 -10h-254z" />
<glyph unicode="&#x2011;" horiz-adv-x="343" d="M60 280q-11 0 -9 10l5 42q2 10 11 10h254q11 0 9 -10l-5 -42q-2 -10 -11 -10h-254z" />
<glyph unicode="&#x2012;" horiz-adv-x="343" d="M60 280q-11 0 -9 10l5 42q2 10 11 10h254q11 0 9 -10l-5 -42q-2 -10 -11 -10h-254z" />
<glyph unicode="&#x2013;" horiz-adv-x="399" d="M56 252q-10 0 -8 10l5 42q2 10 11 10h310q9 0 9 -10l-6 -42q0 -10 -10 -10h-311z" />
<glyph unicode="&#x2014;" horiz-adv-x="620" d="M56 252q-10 0 -8 10l5 42q2 10 11 10h530q11 0 9 -10l-5 -42q-2 -10 -11 -10h-531z" />
<glyph unicode="&#x2018;" horiz-adv-x="128" d="M53 495q-11 0 -6 11l87 186q4 8 13 8h36q12 0 7 -11l-74 -186q-3 -8 -12 -8h-51z" />
<glyph unicode="&#x2019;" horiz-adv-x="128" d="M183 700q11 0 6 -11l-87 -186q-4 -8 -13 -8h-36q-12 0 -7 11l74 186q3 8 12 8h51z" />
<glyph unicode="&#x201a;" horiz-adv-x="582" d="M31 -79q-11 0 -7 11l62 214q3 9 12 9h43q11 0 7 -11l-75 -214q-4 -9 -12 -9h-30z" />
<glyph unicode="&#x201c;" horiz-adv-x="251" d="M53 495q-11 0 -6 11l88 186q4 8 13 8h34q12 0 7 -11l-76 -186q-3 -8 -11 -8h-49zM177 495q-11 0 -6 11l89 186q3 8 12 8h34q11 0 8 -11l-76 -186q-3 -8 -11 -8h-50z" />
<glyph unicode="&#x201d;" horiz-adv-x="251" d="M182 700q11 0 6 -11l-88 -186q-4 -8 -13 -8h-34q-12 0 -7 11l75 186q3 8 12 8h49zM306 700q10 0 7 -11l-89 -186q-4 -8 -13 -8h-34q-12 0 -7 11l76 186q5 8 12 8h48z" />
<glyph unicode="&#x201e;" horiz-adv-x="248" d="M112 128q11 0 6 -11l-89 -186q-3 -8 -12 -8h-34q-11 0 -8 11l76 186q3 8 11 8h50zM236 128q11 0 6 -11l-88 -186q-4 -8 -13 -8h-34q-12 0 -7 11l76 186q3 8 11 8h49z" />
<glyph unicode="&#x2022;" horiz-adv-x="293" d="M147 151q-46 0 -75 34.5t-24 81.5q6 48 43 81.5t84 33.5q45 0 73.5 -33.5t22.5 -81.5q-5 -47 -42 -81.5t-82 -34.5z" />
<glyph unicode="&#x2026;" horiz-adv-x="695" d="M96 3q-25 0 -39 17t-11 42q3 24 22.5 41.5t42.5 17.5q22 0 37 -17.5t12 -41.5q-3 -25 -22 -42t-42 -17zM328 3q-25 0 -39 17t-11 42q3 24 22.5 41.5t42.5 17.5q22 0 37 -17.5t12 -41.5q-3 -25 -22 -42t-42 -17zM558 3q-25 0 -39 17t-11 42q3 24 22.5 41.5t42.5 17.5 q22 0 37 -17.5t12 -41.5q-3 -25 -22 -42t-42 -17z" />
<glyph unicode="&#x202f;" horiz-adv-x="194" />
<glyph unicode="&#x2039;" horiz-adv-x="326" d="M232 119q3 -5 0.5 -8.5t-7.5 -3.5h-45q-10 0 -12 6l-94 161q-3 6 2 14l133 161q5 6 14 6h44q6 0 7.5 -3.5t-2.5 -8.5l-132 -159q-3 -3 -1 -6z" />
<glyph unicode="&#x203a;" horiz-adv-x="349" d="M89 107q-6 0 -7.5 3.5t2.5 8.5l132 159q3 3 1 6l-93 159q-3 5 -0.5 8.5t8.5 3.5h44q10 0 12 -6l94 -161q3 -8 -2 -14l-133 -161q-5 -6 -14 -6h-44z" />
<glyph unicode="&#x205f;" horiz-adv-x="242" />
<glyph unicode="&#x20ac;" horiz-adv-x="544" d="M300 54q44 0 76.5 28t42.5 75q3 9 12 8l47 -8q10 -2 7 -11q-17 -71 -69 -112.5t-124 -41.5q-80 0 -122 51t-32 136l11 87q0 4 -3 4h-60q-11 0 -9 10l3 23q2 10 11 10h60q4 0 4 4l8 64q0 4 -3 4h-60q-11 0 -9 10l3 22q2 10 11 10h60q4 0 4 4l11 91q10 85 65 135.5 t135 50.5q73 0 115 -42.5t41 -114.5q0 -9 -10 -11l-51 -7q-5 -1 -7.5 1.5t-1.5 7.5q2 47 -23.5 75.5t-70.5 28.5q-49 0 -82 -33t-40 -87l-12 -95q0 -4 4 -4h199q12 0 7 -11l-11 -23q-3 -8 -12 -8h-189q-4 0 -4 -4l-8 -64q0 -4 4 -4h168q10 0 7 -12l-12 -23q-4 -8 -12 -8 h-157q-4 0 -4 -4l-11 -92q-7 -54 18.5 -87t74.5 -33z" />
<glyph unicode="&#x2122;" horiz-adv-x="568" d="M90 661q-9 0 -9 10l3 19q0 10 11 10h199q11 0 9 -10l-2 -19q-2 -10 -11 -10h-77q-4 0 -4 -4l-37 -298q-2 -10 -11 -10h-23q-9 0 -9 10l37 298q0 4 -3 4h-73zM548 693q5 7 12 7h25q11 0 9 -10l-41 -331q0 -10 -11 -10h-24q-10 0 -8 10l31 258q1 3 -1 4t-3 -2l-68 -100 q-5 -7 -11 -7q-8 0 -11 7l-45 100q-2 3 -3.5 2.5t-1.5 -3.5l-32 -259q-2 -10 -11 -10h-23q-9 0 -9 10l41 331q2 10 11 10h25q7 0 11 -7l51 -117q0 -2 2 -2t3 2z" />
<glyph unicode="&#x25fc;" horiz-adv-x="505" d="M0 505h505v-505h-505v505z" />
</font>
</defs>
</svg>
