<?xml version="1.0" standalone="no"?>
<!DOCTYPE svg PUBLIC "-//W3C//DTD SVG 1.1//EN" "http://www.w3.org/Graphics/SVG/1.1/DTD/svg11.dtd" >
<svg xmlns="http://www.w3.org/2000/svg" xmlns:xlink="http://www.w3.org/1999/xlink" version="1.1">
<metadata></metadata>
<defs>
<font id="barlow_semi_condensedBlkIt" horiz-adv-x="492" >
<font-face units-per-em="1000" ascent="800" descent="-200" />
<missing-glyph horiz-adv-x="194" />
<glyph horiz-adv-x="0" />
<glyph horiz-adv-x="333" />
<glyph unicode="&#xd;" horiz-adv-x="194" />
<glyph unicode=" "  horiz-adv-x="194" />
<glyph unicode="&#x09;" horiz-adv-x="194" />
<glyph unicode="&#xa0;" horiz-adv-x="194" />
<glyph unicode="!" horiz-adv-x="322" d="M115 248q-16 0 -14 15l35 422q2 15 15 15h153q14 0 12 -15l-69 -422q-2 -15 -18 -15h-114zM141 0q-46 0 -71.5 30.5t-20.5 74.5q5 43 40.5 73.5t76.5 30.5t69 -30.5t23 -73.5q-5 -44 -38.5 -74.5t-78.5 -30.5z" />
<glyph unicode="&#x22;" horiz-adv-x="409" d="M76 460q-13 0 -13 14l8 210q2 16 17 16h142q16 0 13 -16l-43 -210q-3 -14 -16 -14h-108zM302 460q-13 0 -13 14l8 210q2 16 17 16h142q16 0 13 -16l-43 -210q-3 -14 -16 -14h-108z" />
<glyph unicode="#" horiz-adv-x="650" d="M656 402q-2 -15 -17 -15h-63q-7 0 -7 -6l-15 -57q-3 -6 4 -6h37q15 0 13 -15l-16 -130q-3 -15 -17 -15h-60q-5 0 -7 -6l-29 -104q-3 -14 -17 -14h-153q-15 0 -12 16l28 102q3 6 -5 6h-47q-6 0 -8 -6l-28 -104q-3 -14 -17 -14h-154q-16 0 -11 16l28 102q1 6 -5 6h-39 q-15 0 -13 15l16 130q2 15 16 15h63q8 0 8 6l15 57q2 6 -4 6h-37q-15 0 -13 15l16 131q2 15 17 15h60q5 0 7 6l29 104q3 14 17 14h153q15 0 12 -16l-28 -102q-3 -6 5 -6h47q4 0 8 6l28 104q3 14 17 14h154q14 0 11 -16l-28 -102q-1 -6 5 -6h39q15 0 13 -15zM364 318q6 0 8 6 l14 57q3 6 -4 6h-48q-6 0 -8 -6l-15 -57q-1 -6 4 -6h49z" />
<glyph unicode="$" horiz-adv-x="495" d="M480 202q-10 -82 -61.5 -135.5t-132.5 -69.5q-7 -2 -7 -7l-3 -43q-2 -15 -17 -15h-86q-15 0 -13 15l8 44q0 5 -5 7q-71 15 -106.5 63.5t-27.5 118.5l5 42q2 15 16 15h152q15 0 12 -15l-1 -15q-3 -22 7 -38t32 -16q20 0 32 13t14 29q3 20 -17.5 33.5t-61 32.5t-65.5 39 q-105 87 -91 201q10 78 59.5 131t128.5 70q4 1 6 7l4 54q3 15 17 15h85q15 0 13 -15l-8 -53q-2 -5 4 -7q76 -14 114 -65.5t29 -128.5l-4 -32q-3 -15 -17 -15h-150q-15 0 -13 15l2 14q2 23 -8 39.5t-33 16.5q-19 0 -33 -12t-16 -30q-2 -15 8 -27t24 -19t41.5 -21t46.5 -26 q69 -46 97 -94t20 -116z" />
<glyph unicode="%" horiz-adv-x="760" d="M221 371q-68 0 -109.5 49.5t-32.5 119.5q8 70 62 119t122 49q67 0 108 -49t33 -119q-9 -71 -62.5 -120t-120.5 -49zM128 0q-8 0 -10 5t3 13l438 671q7 11 19 11h97q7 0 9.5 -5t-2.5 -13l-438 -671q-7 -11 -19 -11h-97zM233 465q29 0 51.5 22t26.5 53t-13.5 52.5 t-46.5 21.5t-52 -21.5t-27 -52.5t14 -53t47 -22zM550 -8q-68 0 -109.5 49.5t-32.5 119.5q8 70 61.5 119t121.5 49q67 0 108.5 -49t33.5 -119q-9 -71 -62.5 -120t-120.5 -49zM562 86q28 0 50.5 21.5t27.5 53.5q4 31 -13.5 52.5t-46.5 21.5t-52 -21.5t-27 -52.5t14 -53t47 -22 z" />
<glyph unicode="&#x26;" horiz-adv-x="667" d="M616 18q5 -8 2 -13t-13 -5h-168q-12 0 -17 8l-18 23q-2 4 -9 2q-87 -42 -177 -42q-95 0 -149 46.5t-43 139.5q14 113 125 184q5 3 2 8q-34 50 -43 78.5t-5 60.5q11 90 76 145t161 55q97 0 153 -56.5t45 -145.5q-14 -110 -133 -182q-5 -3 -2 -8q18 -25 37 -49q4 -6 8 0 q34 33 58 70q9 14 21 6l105 -66q12 -8 3 -20q-41 -65 -95 -119q-5 -4 -2 -8q10 -14 36.5 -52t41.5 -60zM324 538q-16 0 -26.5 -9.5t-12.5 -23.5q-2 -19 22 -54q3 -5 8 -2q37 25 41 53q1 17 -8 26.5t-24 9.5zM267 150q15 3 29 9q6 3 3 8l-16 21q-5 7 -35 47q-3 5 -8 0 q-27 -19 -31 -41q-5 -21 10.5 -35.5t47.5 -8.5z" />
<glyph unicode="'" horiz-adv-x="193" d="M76 460q-13 0 -13 14l8 210q2 16 17 16h152q16 0 13 -16l-44 -210q-4 -14 -17 -14h-116z" />
<glyph unicode="(" horiz-adv-x="376" d="M120 -83q-12 0 -17 9q-109 171 -79 411q30 244 180 410q8 9 19 9h150q19 0 8 -18q-128 -195 -153 -401q-15 -126 1.5 -219t52.5 -183q8 -18 -12 -18h-150z" />
<glyph unicode=")" horiz-adv-x="376" d="M216 -74q-8 -9 -19 -9h-150q-19 0 -8 18q37 57 62.5 104t53 129t38.5 169q15 125 -2 219t-53 182q-7 18 12 18h150q12 0 17 -9q109 -167 79 -410q-29 -241 -180 -411z" />
<glyph unicode="*" horiz-adv-x="370" d="M178 395q-14 0 -12 15l8 61q1 3 -0.5 4.5t-5.5 -0.5l-60 -33q-13 -7 -19 5l-29 68q-6 13 10 20l63 32q7 4 1 8l-56 30q-13 8 -4 20l45 70q8 13 20 5l53 -33q5 -4 7 4l6 60q2 15 17 15h71q15 0 13 -15l-8 -60q-1 -3 0.5 -4.5t5.5 0.5l59 33q13 7 19 -5l28 -70 q6 -12 -9 -20l-63 -30q-7 -4 -1 -8l57 -32q11 -7 3 -20l-45 -69q-10 -13 -21 -6l-51 35q-5 3 -7 -5l-6 -60q-2 -15 -17 -15h-72z" />
<glyph unicode="+" horiz-adv-x="442" d="M435 374q15 0 13 -15l-15 -120q-2 -15 -17 -15h-108q-6 0 -7 -6l-13 -112q-3 -15 -17 -15h-116q-15 0 -13 15l14 112q0 6 -5 6h-109q-15 0 -13 15l15 120q2 15 16 15h109q5 0 7 6l13 112q3 15 17 15h116q15 0 13 -15l-14 -112q0 -6 5 -6h109z" />
<glyph unicode="," horiz-adv-x="242" d="M5 -111q-16 0 -13 16l50 241q3 14 16 14h133q16 0 11 -17l-89 -241q-5 -13 -17 -13h-91z" />
<glyph unicode="-" horiz-adv-x="370" d="M40 205q-15 0 -13 15l16 130q2 15 16 15h302q15 0 13 -15l-16 -130q-2 -15 -17 -15h-301z" />
<glyph unicode="." horiz-adv-x="277" d="M115 -8q-45 0 -71 30.5t-20 74.5q5 42 41 73t76 31q41 0 69.5 -30.5t23.5 -73.5q-5 -44 -39 -74.5t-80 -30.5z" />
<glyph unicode="/" horiz-adv-x="467" d="M9 0q-18 0 -10 17l336 671q6 12 19 12h151q18 0 10 -17l-336 -671q-6 -12 -19 -12h-151z" />
<glyph unicode="0" horiz-adv-x="501" d="M229 -12q-104 0 -158 63t-41 170l32 258q13 106 82 168.5t174 62.5t159 -62.5t41 -168.5l-32 -258q-13 -107 -82.5 -170t-174.5 -63zM249 149q21 0 35.5 17t17.5 45l34 277q4 28 -6.5 44.5t-31.5 16.5t-35 -16.5t-18 -44.5l-34 -277q-3 -29 7 -45.5t31 -16.5z" />
<glyph unicode="1" horiz-adv-x="306" d="M156 697q9 3 18 3h159q15 0 13 -15l-82 -670q-2 -15 -17 -15h-153q-15 0 -13 15l63 509q0 6 -5 6l-69 -2q-15 0 -13 15l14 115q2 12 14 17z" />
<glyph unicode="2" horiz-adv-x="504" d="M21 0q-14 0 -12 15l15 129q2 10 10 19q143 131 221 213q75 78 81 123q3 23 -7.5 35.5t-30.5 12.5t-34 -12.5t-16 -33.5l-4 -31q-2 -15 -16 -15h-156q-14 0 -12 15l6 50q17 85 88.5 136.5t168.5 51.5q101 0 154.5 -59t42.5 -149q-10 -86 -92 -178q-16 -18 -37.5 -39 t-38 -36t-45.5 -41t-42 -38q-3 -2 -2.5 -4.5t4.5 -2.5h204q15 0 13 -15l-17 -131q-2 -15 -16 -15h-430z" />
<glyph unicode="3" horiz-adv-x="489" d="M474 341q10 -43 3 -108q-11 -81 -48 -136q-69 -105 -205 -105q-85 0 -139 44.5t-59 118.5q-4 27 -2 66q2 15 17 15h154q15 0 13 -15q-1 -16 2 -35q3 -33 34 -33q27 0 42 33q9 24 14 60q3 37 0 53q-8 39 -34 39q-21 0 -45 -18q-14 -10 -22 1l-66 89q-9 12 4 22l138 101 q7 7 -2 7h-178q-14 0 -12 15l16 130q2 15 16 15h399q15 0 12 -15l-16 -134q-2 -11 -10 -18l-116 -96q-5 -5 1 -7q71 -11 89 -89z" />
<glyph unicode="4" horiz-adv-x="568" d="M554 337q14 0 12 -15l-17 -138q-2 -15 -16 -15h-34q-5 0 -7 -6l-18 -148q-2 -15 -16 -15h-153q-15 0 -13 15l18 148q0 6 -5 6h-275q-14 0 -12 15l13 108q2 11 5 19l185 377q6 12 19 12h164q18 0 10 -17l-162 -339q-4 -7 3 -7h71q6 0 6 6l10 83q2 15 17 15h153 q15 0 13 -15l-10 -83q-2 -6 5 -6h34z" />
<glyph unicode="5" horiz-adv-x="491" d="M461 383q34 -59 22 -157q-12 -89 -57 -146q-70 -87 -199 -87q-83 0 -135 40t-61 115q-3 13 -5 43q2 16 17 16h156q12 0 13 -13l3 -12q7 -28 32 -28q28 0 39 29q8 15 12 41q3 26 -2 41q-6 26 -32 26q-23 0 -36 -17q-9 -11 -19 -11h-159q-15 0 -13 15l50 407q2 15 16 15 h412q15 0 12 -15l-16 -131q-2 -15 -16 -15h-238q-6 0 -6 -6l-12 -98q-1 -3 1 -4.5t5 0.5q38 22 81 22q95 0 135 -70z" />
<glyph unicode="6" horiz-adv-x="491" d="M452 386q42 -63 31 -160q-12 -94 -64 -154q-70 -79 -192 -79q-115 0 -168 77q-41 60 -29 147l36 307q10 84 77.5 134t167.5 50q97 0 151 -50.5t44 -133.5l-5 -37q-2 -15 -16 -15h-154q-14 0 -12 15l2 17q2 17 -7 29t-24 12q-16 0 -28.5 -12t-14.5 -29l-9 -78q-1 -4 1 -5 t5 1q40 29 85 29q82 0 123 -65zM288 185q7 16 11 44q4 38 -3 52q-7 23 -31 23q-22 0 -35 -20q-12 -17 -16 -54q-5 -26 0 -46q5 -30 33 -30q26 0 41 31z" />
<glyph unicode="7" horiz-adv-x="459" d="M73 0q-18 0 -10 17l241 515q2 7 -4 7h-93q-5 0 -7 -6l-4 -36q-2 -15 -17 -15h-117q-15 0 -13 15l24 188q3 15 17 15h414q15 0 13 -15l-17 -137q-1 -5 -5 -18l-242 -518q-5 -12 -18 -12h-162z" />
<glyph unicode="8" horiz-adv-x="489" d="M468 308q14 -40 8 -99q-7 -52 -29 -92q-32 -57 -91 -91t-132 -34q-71 0 -121.5 32.5t-69.5 92.5q-13 42 -7 92q6 53 31 99q20 32 50 53q7 4 2 8q-26 25 -36 55q-13 37 -7 87q6 56 37 101q32 49 88 76t123 27q70 0 120 -29t68 -86q15 -42 9 -90q-5 -45 -31 -86 q-17 -28 -49 -53q-7 -4 -2 -7q27 -20 39 -56zM250 518q-3 -9 -7 -29q-1 -18 0 -33q5 -35 35 -35q29 0 42 34q5 10 9 34q2 15 0 29q-5 36 -35 36q-33 0 -44 -36zM284 183q9 13 12 41q3 19 1 36q-5 37 -35 37t-43 -37q-4 -11 -8 -35q-3 -25 1 -40q3 -33 33 -33q26 0 39 31z " />
<glyph unicode="9" horiz-adv-x="482" d="M500 483l-37 -307q-10 -84 -77.5 -134t-167.5 -50q-97 0 -150.5 50.5t-43.5 133.5l4 37q2 15 16 15h154q15 0 12 -15l-2 -17q-2 -17 7 -29t24 -12q17 0 29 11.5t14 29.5l10 78q0 8 -7 4q-38 -29 -85 -29q-81 0 -123 65q-43 66 -30 160q10 94 63 154q70 79 192 79 q115 0 168 -77q41 -57 30 -147zM264 396q22 0 35 20q11 16 17 54q3 26 0 46q-7 30 -34 30q-25 0 -40 -31q-8 -16 -12 -44q-3 -35 3 -52q7 -23 31 -23z" />
<glyph unicode=":" horiz-adv-x="340" d="M192 321q-46 0 -71.5 30.5t-20.5 74.5q5 43 40.5 73.5t76.5 30.5t69 -30.5t23 -73.5q-5 -44 -38.5 -74.5t-78.5 -30.5zM152 0q-46 0 -71.5 30.5t-20.5 74.5q6 43 41.5 73.5t76.5 30.5t69 -30.5t23 -73.5q-5 -44 -39 -74.5t-79 -30.5z" />
<glyph unicode=";" horiz-adv-x="280" d="M157 291q-46 0 -71.5 30.5t-20.5 74.5q5 43 41 73.5t77 30.5t69 -30.5t23 -73.5q-5 -44 -39 -74.5t-79 -30.5zM26 -111q-17 0 -12 16l47 241q3 14 16 14h133q15 0 10 -17l-87 -241q-3 -13 -17 -13h-90z" />
<glyph unicode="&#x3c;" horiz-adv-x="442" d="M409 46q-1 -8 -6.5 -11.5t-12.5 0.5l-355 167q-9 5 -8 17l17 136q1 12 12 17l396 167q8 4 13 0.5t3 -11.5l-18 -146q-2 -13 -13 -17l-210 -74q-2 -1 -3.5 -2.5t-0.5 -3t3 -2.5l192 -74q11 -5 9 -17z" />
<glyph unicode="=" horiz-adv-x="442" d="M52 308q-14 0 -12 15l14 120q2 15 17 15h374q15 0 13 -15l-15 -120q-2 -15 -16 -15h-375zM31 132q-15 0 -13 15l15 120q2 15 16 15h375q14 0 12 -15l-14 -120q-3 -15 -17 -15h-374z" />
<glyph unicode="&#x3e;" horiz-adv-x="442" d="M22 35q-8 -4 -13 -0.5t-3 11.5l18 146q2 13 13 17l210 74q2 1 3.5 2.5t0.5 3t-3 2.5l-192 74q-11 5 -9 17l18 146q1 8 6.5 11.5t12.5 -0.5l355 -167q9 -5 8 -17l-17 -136q-1 -12 -12 -17z" />
<glyph unicode="?" horiz-adv-x="507" d="M173 236q-15 0 -13 14l1 14q5 41 25.5 72.5t46 50.5t51 35t44 33.5t21.5 38.5q2 21 -10.5 33t-35.5 12q-28 0 -45.5 -14.5t-20.5 -36.5v-4q-1 -14 -16 -14l-153 7q-14 0 -14 6l1 5q12 99 88 160.5t186 61.5q105 0 160.5 -57t44.5 -150q-6 -46 -27 -80.5t-47 -54.5 t-52.5 -37t-45.5 -36t-22 -43v-1q-2 -15 -16 -15h-151zM225 -5q-39 0 -63.5 28t-19.5 67q5 40 37 68.5t71 28.5t64 -28.5t20 -67.5q-4 -40 -36 -68t-73 -28z" />
<glyph unicode="@" horiz-adv-x="758" d="M487 683q155 0 231.5 -99t37.5 -259q-25 -102 -83.5 -158.5t-141.5 -56.5q-68 0 -103 37q-3 3 -8 -1q-37 -37 -119 -37q-42 0 -65 29t-21 81q0 21 13 80q10 42 23 67q44 115 135 115q41 0 62 -20q6 -6 6 -3v3q4 14 18 14h90q15 0 11 -16l-40 -158q-9 -36 -2 -55.5 t28 -19.5q46 0 70 98q27 118 -17.5 181.5t-146.5 63.5q-103 0 -188.5 -77.5t-115.5 -194.5q-32 -122 17.5 -190t139.5 -68q67 0 127 36q12 9 19 -4l36 -67q6 -12 -6 -21q-97 -62 -211 -62q-137 0 -210.5 108.5t-31.5 270.5q44 171 170 277t276 106zM359 212q20 0 33 26 q14 31 19 56q4 20 8 55q3 25 -21 25q-23 0 -34 -26q-10 -17 -19 -57q-10 -40 -8 -53q2 -26 22 -26z" />
<glyph unicode="A" horiz-adv-x="604" d="M393 0q-14 0 -15 13l-6 77q-2 5 -5 5h-146q-4 0 -6 -5l-26 -77q-5 -13 -18 -13h-159q-17 0 -11 17l255 670q5 13 17 13h192q12 0 14 -13l90 -670q2 -17 -15 -17h-161zM267 246q-3 -7 5 -7h81q7 0 7 7l-17 205q0 7 -4 4q-2 -2 -2 -4z" />
<glyph unicode="B" horiz-adv-x="534" d="M515 201q-12 -100 -83 -150.5t-172 -50.5h-233q-15 0 -13 15l83 670q2 15 16 15h214q114 0 169.5 -47t43.5 -150q-12 -94 -81 -137q-6 -4 -1 -7q70 -54 57 -158zM267 539q-5 0 -7 -6l-12 -99q0 -6 5 -6h42q58 0 64 56q8 55 -50 55h-42zM272 161q55 0 63 62 q4 29 -8.5 45.5t-38.5 16.5h-52q-6 0 -7 -6l-14 -112q0 -6 6 -6h51z" />
<glyph unicode="C" horiz-adv-x="527" d="M244 -8q-108 0 -166 64.5t-45 171.5l30 247q13 106 87 169.5t182 63.5t166.5 -61.5t45.5 -164.5q-2 -16 -16 -16l-154 -7q-7 0 -11 3t-3 9l2 13q4 28 -9.5 45.5t-39.5 17.5t-44.5 -17.5t-21.5 -45.5l-33 -268q-4 -28 10 -45.5t40 -17.5t43.5 17t21.5 46l2 12q1 14 16 14 l152 -7q14 0 14 -8l-1 -7q-13 -103 -86.5 -165.5t-181.5 -62.5z" />
<glyph unicode="D" horiz-adv-x="534" d="M27 0q-15 0 -13 15l83 670q2 15 16 15h220q109 0 167.5 -58.5t47.5 -153.5l-34 -275q-12 -96 -85 -154.5t-182 -58.5h-220zM215 167q0 -6 6 -6l47 1q24 0 42.5 20t23.5 53l29 231q4 33 -9.5 53t-39.5 20h-47q-5 0 -7 -6z" />
<glyph unicode="E" d="M520 554q-2 -15 -16 -15h-237q-5 0 -7 -6l-11 -94q0 -6 5 -6h137q15 0 12 -15l-16 -130q-2 -15 -16 -15h-137q-6 0 -6 -6l-13 -100q0 -6 6 -6h236q15 0 13 -15l-16 -131q-2 -15 -17 -15h-410q-15 0 -13 15l83 670q2 15 16 15h410q15 0 13 -15z" />
<glyph unicode="F" horiz-adv-x="478" d="M520 554q-2 -15 -16 -15h-237q-5 0 -7 -6l-11 -94q0 -6 5 -6h137q15 0 12 -15l-16 -130q-2 -15 -16 -15h-137q-6 0 -6 -6l-31 -252q-2 -15 -17 -15h-153q-15 0 -13 15l83 670q2 15 16 15h410q15 0 13 -15z" />
<glyph unicode="G" horiz-adv-x="526" d="M244 -8q-108 0 -166 64t-45 170l30 249q13 105 87 169t182 64q107 0 166 -62t47 -158l-2 -17q-2 -15 -17 -15h-153q-15 0 -13 15l2 15q3 26 -10 43.5t-39 17.5t-44.5 -19t-22.5 -50l-31 -255q-4 -31 11 -50.5t42 -19.5q25 0 42 16t21 44l3 30q2 6 -5 6h-45q-15 0 -13 15 l15 118q2 15 16 15h217q15 0 13 -15l-20 -161q-13 -103 -86.5 -166t-181.5 -63z" />
<glyph unicode="H" horiz-adv-x="533" d="M388 685q2 15 16 15h153q15 0 13 -15l-82 -670q-2 -15 -17 -15h-153q-15 0 -13 15l31 251q2 6 -5 6h-97q-6 0 -6 -6l-31 -251q-2 -15 -17 -15h-153q-15 0 -13 15l83 670q2 15 16 15h153q15 0 13 -15l-30 -246q-1 -6 5 -6h97q5 0 7 6z" />
<glyph unicode="I" horiz-adv-x="245" d="M27 0q-15 0 -13 15l83 670q2 15 16 15h153q15 0 13 -15l-82 -670q-2 -15 -17 -15h-153z" />
<glyph unicode="J" horiz-adv-x="518" d="M227 -8q-107 0 -165 60.5t-46 159.5l6 46q2 15 16 15h154q14 0 12 -15l-5 -46q-4 -26 9.5 -42.5t38.5 -16.5t43 16.5t21 42.5l58 473q2 15 17 15h152q15 0 13 -15l-58 -473q-13 -99 -86 -159.5t-180 -60.5z" />
<glyph unicode="K" horiz-adv-x="560" d="M27 0q-15 0 -13 15l83 670q2 15 16 15h153q15 0 13 -15l-27 -218q0 -5 2 -5.5t5 3.5l152 225q6 10 18 10h168q19 0 8 -18l-205 -291q-1 -2 -1 -8l130 -365q5 -18 -13 -18h-167q-12 0 -15 11l-77 226q-2 8 -8 0l-28 -43q-3 -5 -3 -7l-21 -172q-2 -15 -17 -15h-153z" />
<glyph unicode="L" horiz-adv-x="495" d="M27 0q-15 0 -13 15l83 670q2 15 16 15h153q15 0 13 -15l-64 -518q0 -6 6 -6h243q15 0 13 -15l-16 -131q-2 -15 -17 -15h-417z" />
<glyph unicode="M" horiz-adv-x="621" d="M24 0q-15 0 -12 15l82 670q2 15 16 15h152q12 0 16 -10l74 -165q1 -3 3.5 -3t3.5 3l115 165q6 10 18 10h152q15 0 12 -15l-82 -670q-2 -15 -16 -15h-154q-14 0 -12 15l47 385q1 4 -1.5 5t-4.5 -3l-76 -107q-6 -10 -18 -10h-26q-12 0 -16 10l-49 108q-1 4 -3.5 3t-3.5 -5 l-47 -386q-2 -15 -16 -15h-154z" />
<glyph unicode="N" horiz-adv-x="575" d="M27 0q-15 0 -13 15l83 670q2 15 16 15h159q12 0 15 -11l95 -325q1 -5 5 -3l2 5l38 319q3 15 17 15h152q15 0 13 -15l-82 -670q-2 -15 -17 -15h-159q-13 0 -16 12l-94 328q-3 7 -6 3q-1 -2 -1 -4l-38 -324q-2 -15 -17 -15h-152z" />
<glyph unicode="O" horiz-adv-x="536" d="M247 -10q-110 0 -168.5 66t-45.5 175l29 238q13 108 88 173.5t185 65.5q111 0 169.5 -65t45.5 -174l-29 -238q-14 -110 -88.5 -175.5t-185.5 -65.5zM267 151q28 0 47.5 20t23.5 53l31 250q4 33 -11 53t-43 20q-27 0 -46.5 -20t-23.5 -53l-30 -250q-4 -33 10 -53t42 -20z " />
<glyph unicode="P" horiz-adv-x="525" d="M361 700q97 0 148.5 -63t39.5 -164q-12 -99 -78.5 -159.5t-162.5 -60.5h-79q-5 0 -7 -6l-28 -232q-2 -15 -16 -15h-154q-15 0 -12 15l82 670q2 15 16 15h251zM294 400q28 0 48 18.5t24 50.5q4 33 -11 51.5t-44 18.5h-47q-6 0 -6 -6l-16 -127q0 -6 5 -6h47z" />
<glyph unicode="Q" horiz-adv-x="523" d="M328 708q108 0 165 -67.5t43 -177.5l-29 -233q-10 -80 -54 -138t-113 -83q-6 -2 -6 -7l-9 -74q-2 -15 -17 -15h-153q-15 0 -13 15l10 74q0 5 -4 7q-64 25 -94.5 83t-20.5 138l29 233q13 110 86.5 177.5t179.5 67.5zM246 478l-31 -255q-4 -31 8.5 -50.5t36.5 -19.5 q25 0 42.5 19t21.5 51l32 255q4 31 -9 50t-38 19q-24 0 -41.5 -19t-21.5 -50z" />
<glyph unicode="R" horiz-adv-x="536" d="M324 0q-12 0 -15 12l-52 252q0 5 -6 5h-17q-6 0 -7 -6l-30 -248q-2 -15 -17 -15h-153q-15 0 -13 15l83 670q2 15 16 15h256q94 0 144.5 -61.5t37.5 -161.5q-7 -61 -37.5 -107.5t-78.5 -72.5q-4 -3 -4 -8l67 -272q3 -17 -14 -17h-160zM267 539q-5 0 -7 -6l-14 -115 q0 -6 5 -6h52q27 0 45 17t22 46q4 30 -10.5 47t-41.5 17h-51z" />
<glyph unicode="S" horiz-adv-x="514" d="M239 -8q-106 0 -164 57t-47 149l3 24q2 15 17 15h151q15 0 13 -15l-2 -15q-3 -22 12.5 -38t43.5 -16q24 0 36.5 12t15.5 29q2 19 -12.5 31.5t-56.5 34.5q-14 7 -21 11q-37 19 -61 35t-53.5 44t-42 67t-6.5 86q11 92 82 148.5t173 56.5q104 0 164 -59.5t48 -155.5l-2 -16 q-2 -15 -16 -15h-151q-15 0 -12 15l1 14q3 22 -12 39t-44 17q-22 0 -36 -11.5t-16 -31.5q-3 -22 16.5 -39t79.5 -49q80 -50 81 -50q78 -56 80 -134q1 -16 -1 -32q-12 -95 -84 -151.5t-177 -56.5z" />
<glyph unicode="T" horiz-adv-x="531" d="M565 700q15 0 13 -15l-16 -131q-2 -15 -17 -15h-137q-6 0 -7 -6l-64 -518q-2 -15 -16 -15h-153q-15 0 -13 15l64 518q0 6 -5 6h-135q-15 0 -13 15l16 131q2 15 17 15h466z" />
<glyph unicode="U" horiz-adv-x="533" d="M246 -8q-107 0 -164.5 64t-44.5 170l57 459q2 15 16 15h153q15 0 13 -15l-57 -468q-4 -29 9 -46.5t38 -17.5t42.5 18t20.5 46l58 468q2 15 16 15h153q15 0 13 -15l-56 -459q-14 -106 -87 -170t-180 -64z" />
<glyph unicode="V" horiz-adv-x="566" d="M178 0q-11 0 -13 13l-82 670q-3 17 15 17h166q13 0 15 -14l21 -388q1 -6 5 -3l2 3l115 388q5 14 17 14h162q17 0 11 -17l-249 -670q-5 -13 -17 -13h-168z" />
<glyph unicode="W" horiz-adv-x="765" d="M158 0q-12 0 -14 13l-81 670q0 17 15 17h162q14 0 15 -13l17 -317q1 -6 5 -3l2 3l95 316q5 14 17 14h120q14 0 15 -13l20 -317q0 -6 5 -3q1 1 2 3l90 316q3 14 17 14h160q16 0 11 -17l-231 -670q-5 -13 -17 -13h-145q-13 0 -13 14l-15 332q0 7 -5 3l-2 -3l-88 -332 q-3 -14 -17 -14h-140z" />
<glyph unicode="X" horiz-adv-x="564" d="M15 0q-8 0 -11 5t1 13l193 328q1 3 1 8l-112 328q-3 8 1 13t12 5h162q13 0 16 -12l45 -163q4 -10 8 0l87 163q6 12 19 12h159q8 0 11 -5t-1 -13l-192 -328q-2 -5 -1 -8l111 -328q3 -8 -1 -13t-13 -5h-159q-12 0 -15 11l-48 164q-2 10 -8 0l-86 -163q-6 -12 -19 -12h-160z " />
<glyph unicode="Y" horiz-adv-x="563" d="M185 2q-15 0 -13 15l27 225q2 4 0 8l-113 433q-5 17 14 17h163q13 0 15 -13l38 -218q3 -6 7 0l90 218q5 13 18 13h165q18 0 10 -17l-222 -433q-2 -4 -2 -8l-28 -225q-2 -15 -16 -15h-153z" />
<glyph unicode="Z" horiz-adv-x="478" d="M13 0q-15 0 -13 15l17 141q1 8 8 18l278 358q5 7 -3 7h-221q-15 0 -13 15l16 131q2 15 17 15h412q15 0 13 -15l-18 -140q-1 -10 -8 -18l-279 -359q-7 -7 3 -7h223q14 0 12 -15l-16 -131q-2 -15 -16 -15h-412z" />
<glyph unicode="[" horiz-adv-x="395" d="M7 -164q-15 0 -13 15l117 952q2 15 17 15h241q15 0 13 -15l-16 -131q-2 -15 -17 -15h-68q-6 0 -6 -6l-80 -648q0 -6 5 -6h68q15 0 13 -15l-16 -131q-2 -15 -16 -15h-242z" />
<glyph unicode="\" horiz-adv-x="467" d="M433 17q3 -17 -14 -17h-151q-13 0 -16 12l-171 671q-5 17 14 17h151q13 0 16 -12z" />
<glyph unicode="]" horiz-adv-x="395" d="M325 -149q-2 -15 -16 -15h-242q-15 0 -13 15l17 131q2 15 16 15h68q6 0 6 6l80 648q0 6 -5 6h-68q-15 0 -13 15l16 131q2 15 17 15h241q15 0 13 -15z" />
<glyph unicode="^" horiz-adv-x="450" d="M53 291q-17 0 -9 17l166 380q5 12 18 12h125q12 0 15 -12l75 -380q3 -17 -13 -17h-124q-12 0 -14 13l-22 187q0 3 -1.5 4t-3.5 0t-3 -4l-69 -187q-3 -13 -17 -13h-123z" />
<glyph unicode="_" horiz-adv-x="485" d="M5 0q-15 0 -13 15l14 110q2 15 16 15h437q14 0 12 -15l-13 -110q-2 -15 -17 -15h-436z" />
<glyph unicode="`" horiz-adv-x="262" d="M295 589q8 -18 -12 -18h-120q-11 0 -16 9l-60 94q-5 8 -1.5 13t12.5 5h142q14 0 16 -10z" />
<glyph unicode="a" horiz-adv-x="497" d="M331 505q2 15 16 15h153q15 0 13 -15l-60 -490q-2 -15 -16 -15h-154q-15 0 -12 15l1 8q0 10 -7 3q-39 -34 -100 -34q-119 0 -131 171q-3 40 5 108q6 51 20 95q50 162 172 162q62 0 92 -32q5 -7 7 2zM291 201q4 16 5 24l5 37q5 53 5 60q1 20 -8 32.5t-25 12.5 q-30 0 -43 -45q-2 -6 -10 -61q-5 -50 -5 -60q-1 -21 7.5 -34.5t24.5 -13.5q32 0 44 48z" />
<glyph unicode="b" horiz-adv-x="499" d="M491 366q3 -45 -4 -95q-7 -65 -21 -108q-25 -80 -68.5 -125.5t-104.5 -45.5q-62 0 -92 34q-5 7 -7 -1l-1 -10q-2 -15 -16 -15h-154q-15 0 -12 15l82 670q2 15 16 15h153q15 0 13 -15l-23 -187q0 -8 7 -2q37 32 100 32q62 0 94.5 -43t37.5 -119zM304 261q1 6 3 20.5 t2 20.5v20q-2 45 -32 45q-16 0 -27.5 -12.5t-16.5 -32.5q-3 -12 -10 -61l-4 -36q-1 -8 -1 -24q0 -48 33 -48q15 0 26.5 13.5t16.5 34.5q2 10 10 60z" />
<glyph unicode="c" horiz-adv-x="487" d="M228 -8q-90 0 -142 44t-57 124q-5 44 3 102q6 50 22 101q23 76 87 120.5t153 44.5q86 0 139 -43t58 -117q1 -11 1 -33q-1 -14 -15 -16l-154 -15q-7 -1 -11 3t-3 11q0 12 -1 17q-5 32 -35 32t-43 -35q-7 -20 -15 -71q-6 -57 -2 -75q5 -33 34 -33q31 0 42 35q1 3 2 7.5 t2 6.5q5 15 18 14l150 -14q13 -1 12 -16l-6 -23q-22 -82 -85.5 -126.5t-153.5 -44.5z" />
<glyph unicode="d" horiz-adv-x="499" d="M353 685q2 15 16 15h153q15 0 13 -15l-82 -670q-2 -15 -16 -15h-154q-15 0 -12 15l1 8q0 10 -7 3q-39 -34 -100 -34q-119 0 -131 171q-3 40 5 108q6 51 20 95q50 162 172 162q62 0 92 -32q5 -7 7 2zM291 201q4 16 5 24l5 37q5 53 5 60q1 20 -8 32.5t-25 12.5 q-30 0 -43 -45q-2 -6 -10 -61q-5 -50 -5 -60q-1 -21 7.5 -34.5t24.5 -13.5q32 0 44 48z" />
<glyph unicode="e" horiz-adv-x="491" d="M261 152q31 1 51 28q9 12 20 10l123 -22q17 -3 9 -18q-30 -74 -90.5 -116t-139.5 -42q-82 0 -134.5 43.5t-64.5 113.5q-9 48 1 126q4 29 9 54q23 95 85.5 147t163.5 52q194 0 194 -212q0 -36 -5 -89q-1 -15 -17 -15h-249q-6 0 -6 -6v-18q5 -38 50 -36zM271 367 q-28 0 -41 -36q-4 -13 -5 -17q-3 -6 4 -6h73q6 0 5 6q0 12 -1 17q-4 36 -35 36z" />
<glyph unicode="f" horiz-adv-x="348" d="M363 520q14 0 12 -15l-13 -110q-2 -15 -17 -15h-60q-6 0 -6 -6l-44 -359q-2 -15 -17 -15h-153q-15 0 -13 15l44 359q2 6 -5 6h-34q-14 0 -12 15l13 110q2 15 17 15h33q7 0 7 6l4 30q10 87 66 118.5t170 25.5h16q15 0 13 -15l-12 -95q-2 -15 -16 -15h-17q-35 -4 -40 -36 l-2 -13q0 -6 5 -6h61z" />
<glyph unicode="g" horiz-adv-x="500" d="M333 505q2 15 16 15h153q15 0 13 -15l-56 -454q-18 -148 -117.5 -208t-262.5 -41q-12 2 -11 16l20 134q3 16 18 13q140 -21 167 68q1 5 -2.5 6.5t-7.5 -2.5q-36 -32 -89 -32q-64 0 -103 36.5t-43 113.5q-1 3 -1 7q-4 22 5 101q10 78 22 105q1 1 1.5 3.5t0.5 3.5 q45 153 180 153q59 0 87 -43q2 -4 4.5 -3t2.5 5zM247 158q30 0 42 33q9 28 14 72q5 45 4 70q-6 34 -35 34q-28 0 -40 -33q-12 -34 -17 -72q-5 -40 -2 -70q5 -34 34 -34z" />
<glyph unicode="h" d="M359 528q73 0 108 -48.5t24 -134.5l-41 -330q-2 -15 -16 -15h-154q-14 0 -12 15l37 303q3 22 -5.5 35.5t-25.5 13.5q-38 0 -45 -49l-37 -303q-2 -15 -16 -15h-154q-15 0 -12 15l82 670q2 15 16 15h154q14 0 12 -15l-25 -205q-1 -4 1.5 -4t6.5 4q40 48 102 48z" />
<glyph unicode="i" horiz-adv-x="249" d="M172 541q-46 0 -71 29t-19 76t38 76t78 29t71 -29t19 -76t-38 -76t-78 -29zM29 0q-15 0 -13 15l61 490q2 15 16 15h153q15 0 13 -15l-60 -490q-2 -15 -17 -15h-153z" />
<glyph unicode="j" horiz-adv-x="241" d="M170 539q-46 0 -70.5 30.5t-19.5 74.5q5 43 40 74t76 31q39 0 67 -31t23 -74q-5 -44 -38.5 -74.5t-77.5 -30.5zM-102 -201q-15 0 -13 15l16 127q1 15 17 15q52 -3 72.5 13.5t25.5 58.5l59 477q2 15 16 15h153q15 0 13 -15l-58 -476q-7 -55 -16.5 -89.5t-29 -65t-51.5 -46 t-82 -23.5t-122 -6z" />
<glyph unicode="k" horiz-adv-x="501" d="M22 0q-15 0 -12 15l82 670q2 15 16 15h154q14 0 12 -15l-34 -282q-1 -4 1.5 -5t4.5 3l77 109q6 10 18 10h165q21 0 8 -18l-138 -178q-2 -2 -2 -8l94 -298q5 -18 -13 -18h-159q-12 0 -15 12l-42 167q-2 10 -8 0l-21 -35q-3 -4 -3 -7l-15 -122q-2 -15 -16 -15h-154z" />
<glyph unicode="l" horiz-adv-x="237" d="M22 0q-15 0 -12 15l82 670q2 15 16 15h154q14 0 12 -15l-82 -670q-2 -15 -16 -15h-154z" />
<glyph unicode="m" horiz-adv-x="747" d="M618 528q74 0 106.5 -47.5t21.5 -135.5l-41 -330q-2 -15 -16 -15h-154q-14 0 -12 15l37 303q3 22 -5 35.5t-25 13.5t-28.5 -13.5t-14.5 -35.5l-37 -303q-2 -15 -16 -15h-154q-14 0 -12 15l37 303q3 22 -6 35.5t-26 13.5q-29 0 -41 -33q-2 -6 -2 -8l-38 -311 q-2 -15 -16 -15h-154q-15 0 -12 15l60 490q2 15 16 15h153q15 0 13 -15l-3 -23q0 -4 2 -5t5 3q43 48 108 48q89 0 117 -72q1 -7 10 3q47 69 127 69z" />
<glyph unicode="n" d="M359 528q73 0 108 -48.5t24 -134.5l-41 -330q-2 -15 -16 -15h-154q-14 0 -12 15l37 303q3 22 -5.5 35.5t-25.5 13.5q-38 0 -45 -49l-37 -303q-2 -15 -16 -15h-154q-15 0 -12 15l60 490q2 15 16 15h153q15 0 13 -15l-3 -25q-1 -4 1.5 -4t6.5 4q40 48 102 48z" />
<glyph unicode="o" horiz-adv-x="495" d="M227 -8q-95 0 -148 49t-53 135q0 33 6 85q5 47 17 89q22 82 86.5 130t158.5 48q93 0 145 -48t54 -129q1 -32 -5 -89q-5 -42 -14 -83q-21 -88 -85.5 -137.5t-161.5 -49.5zM247 153q36 0 48 48q3 10 10 60q4 43 5 61q-2 45 -37 45q-36 0 -48 -45q-3 -12 -10 -61 q-5 -50 -5 -60q0 -48 37 -48z" />
<glyph unicode="p" horiz-adv-x="500" d="M491 357q3 -40 -5 -108q-8 -57 -20 -95q-50 -162 -172 -162q-62 0 -92 32q-7 7 -7 -2l-23 -187q-2 -15 -17 -15h-153q-15 0 -13 15l83 670q2 15 16 15h153q15 0 13 -15l-1 -8q-1 -4 1 -5t6 2q38 34 100 34q61 0 93 -45.5t38 -125.5zM295 198q5 16 9 61q4 30 6 60 q0 21 -8.5 34.5t-23.5 13.5t-27.5 -13.5t-17.5 -34.5q-4 -16 -5 -24l-4 -36q-5 -32 -6 -61q0 -45 34 -45q30 0 43 45z" />
<glyph unicode="q" horiz-adv-x="500" d="M331 505q2 15 16 15h153q15 0 13 -15l-82 -670q-2 -15 -17 -15h-153q-15 0 -13 15l23 187q1 4 -1 4.5t-5 -2.5q-38 -32 -100 -32q-121 0 -133 162q-2 38 4 95q9 66 21 108q54 171 174 171q61 0 92 -34q5 -7 7 3zM291 198q6 31 9 60l5 37q1 8 1 24q-2 48 -33 48 q-15 0 -27 -13.5t-17 -34.5q-6 -30 -9 -60q-7 -47 -6 -61q3 -45 33 -45q16 0 27.5 12.5t16.5 32.5z" />
<glyph unicode="r" horiz-adv-x="360" d="M345 527q29 0 45 -11q8 -5 5 -19l-43 -156q-4 -13 -18 -10q-29 8 -58 -1q-47 -16 -53 -60l-31 -254q-2 -15 -16 -15h-154q-14 0 -12 15l60 489q2 15 16 15h153q15 0 13 -15l-3 -22q0 -9 6 -3q37 47 90 47z" />
<glyph unicode="s" horiz-adv-x="464" d="M217 -8q-101 0 -155.5 44.5t-45.5 118.5l1 6q2 15 16 15h146q14 0 14 -6l-1 -6q-2 -16 10 -25t30 -9q33 0 36 22q2 15 -17 22.5t-56.5 15.5t-61.5 19q-98 43 -86 146q10 80 72.5 126.5t155.5 46.5q96 0 147.5 -49.5t41.5 -131.5q-2 -11 -16 -11h-141q-14 0 -14 8l1 8 q2 15 -7 23t-26 8q-16 0 -26.5 -8t-12.5 -19q-2 -15 13.5 -23.5t51.5 -16t52 -13.5q58 -20 89 -54t24 -94q-10 -77 -74 -120t-161 -43z" />
<glyph unicode="t" horiz-adv-x="339" d="M353 395q-2 -15 -16 -15h-60q-7 0 -7 -6l-21 -171q-4 -40 28 -40h18q15 0 13 -15l-16 -130q-2 -15 -16 -16q-10 0 -30.5 -0.5t-29.5 -0.5q-84 0 -121.5 26t-29.5 99l30 248q2 6 -5 6h-38q-15 0 -13 15l13 110q2 15 17 15h38q7 0 7 6l14 113q2 15 16 15h146q15 0 13 -15 l-14 -113q-1 -6 5 -6h60q15 0 13 -15z" />
<glyph unicode="u" d="M326 505q2 15 16 15h153q15 0 13 -15l-60 -490q-2 -15 -16 -15h-154q-14 0 -12 15l2 19q1 4 -1 4.5t-6 -2.5q-37 -44 -107 -44q-65 0 -102 43.5t-26 126.5l42 343q2 15 16 15h153q15 0 13 -15l-37 -302q-3 -23 5.5 -36.5t25.5 -13.5q18 0 30 13.5t15 36.5z" />
<glyph unicode="v" horiz-adv-x="497" d="M143 0q-13 0 -15 13l-71 490q-3 17 14 17h167q15 0 14 -14l8 -233q0 -3 1 -4q2 -1 3 2q1 1 1 2l65 233q3 14 17 14l168 -2q15 0 9 -17l-190 -488q-5 -13 -18 -13h-173z" />
<glyph unicode="w" horiz-adv-x="717" d="M133 0q-12 0 -14 13l-63 490q-3 17 15 17h152q14 0 14 -14l6 -231q3 -6 7 0l66 231q3 14 18 14h133q12 0 14 -14l12 -232q1 -6 5 -3l2 3l67 232q5 14 18 14l150 -2q18 0 10 -17l-183 -488q-5 -13 -17 -13h-153q-14 0 -15 13l-15 186q0 6 -5 3q-1 -1 -2 -3l-55 -185 q-5 -14 -17 -14h-150z" />
<glyph unicode="x" horiz-adv-x="514" d="M8 0q-19 0 -8 18l158 238q1 3 1 8l-99 238q-8 18 12 18h165q11 0 16 -11l30 -84q2 -10 8 0l52 84q8 11 18 11h170q20 0 9 -18l-158 -238q-2 -4 -1 -8l99 -238q4 -8 0 -13t-12 -5h-165q-10 0 -15 11l-32 87q-1 3 -3.5 3t-3.5 -3l-52 -87q-5 -11 -18 -11h-171z" />
<glyph unicode="y" horiz-adv-x="482" d="M-5 -199q-7 0 -5 15l15 124q2 15 7 15h5q58 0 84 8t28 33q1 3 1 8l-75 499q-3 17 14 17h164q14 0 13 -14l7 -232q0 -7 4 -3q1 1 2 4l61 231q3 14 17 14l165 -1q16 0 10 -17l-202 -504q-19 -46 -35 -74t-40 -54.5t-54.5 -39.5t-74.5 -21t-105 -8h-6z" />
<glyph unicode="z" horiz-adv-x="413" d="M8 0q-15 0 -13 15l18 144q2 13 9 19l168 165q5 7 -2 7h-130q-15 0 -13 15l17 140q2 15 16 15h343q15 0 13 -15l-18 -144q-2 -11 -10 -19l-177 -165q-5 -7 2 -7h155q14 0 12 -15l-17 -140q-2 -15 -16 -15h-357z" />
<glyph unicode="{" horiz-adv-x="397" d="M208 -164q-66 0 -99.5 34.5t-25.5 95.5l25 200q9 82 -50 89q-14 2 -12 16l14 116q2 14 16 16q62 7 72 88l24 197q8 61 49 95.5t107 34.5h103q15 0 13 -15l-16 -131q-2 -15 -17 -15h-14q-18 0 -34.5 -16.5t-19.5 -39.5l-17 -139q-12 -98 -75 -129q-7 -4 -1 -7 q56 -31 44 -131l-18 -142q-3 -23 9.5 -39.5t30.5 -16.5h14q15 0 13 -15l-16 -131q-2 -15 -16 -15h-103z" />
<glyph unicode="|" horiz-adv-x="214" d="M2 -80q-15 0 -13 15l100 810q2 15 16 15h153q15 0 13 -15l-100 -810q-2 -15 -16 -15h-153z" />
<glyph unicode="}" horiz-adv-x="397" d="M110 -164h-103q-15 0 -13 15l16 131q3 15 17 15h14q19 0 35 16.5t19 39.5l17 142q12 99 75 131q8 3 2 7q-56 31 -44 129l17 139q3 23 -9 39.5t-31 16.5h-14q-15 0 -13 15l16 131q2 15 17 15h102q67 0 100 -34.5t25 -95.5l-24 -197q-10 -81 49 -88q15 -1 13 -16l-14 -116 q-3 -15 -17 -16q-61 -7 -71 -89l-25 -200q-7 -61 -48.5 -95.5t-107.5 -34.5z" />
<glyph unicode="~" horiz-adv-x="517" d="M341 181q-35 0 -70 23q-2 1 -10.5 7t-12 8t-11 6.5t-12.5 6.5t-12 3.5t-13 1.5q-32 0 -60 -32q-10 -11 -20 -4l-78 56q-9 8 -4 20q24 52 71.5 86.5t97.5 34.5q37 0 75 -25q3 -2 16 -10.5t18 -11t14 -6t17 -3.5q28 0 52 31q11 12 21 5l86 -60q10 -9 4 -20 q-28 -50 -74.5 -83.5t-94.5 -33.5z" />
<glyph unicode="&#xa1;" horiz-adv-x="322" d="M228 708q45 0 71 -30.5t20 -74.5q-5 -43 -40.5 -73.5t-76.5 -30.5t-69 30.5t-23 73.5q5 44 38.5 74.5t79.5 30.5zM124 445q2 15 17 15h114q16 0 14 -15l-34 -422q-2 -15 -16 -15h-153q-14 0 -12 15z" />
<glyph unicode="&#xa2;" horiz-adv-x="487" d="M300 278q0 3 2 7.5t2 6.5q5 15 18 14l150 -14q13 -1 12 -16l-6 -23q-17 -64 -60 -105.5t-105 -57.5q-5 -2 -6 -6l-4 -67q0 -15 -16 -15h-123q-15 0 -12 15l13 69q0 4 -5 6q-112 34 -120 158q-5 44 3 102t22 101q18 57 59 97.5t100 57.5q4 2 6 6l4 69q0 15 16 15h123 q15 0 12 -15l-13 -68q0 -4 5 -6q55 -15 88 -54.5t37 -96.5q1 -11 1 -33q-1 -14 -15 -16l-154 -15q-7 -1 -11 3t-3 11q0 12 -1 17q-5 32 -35 32t-43 -35q-7 -20 -15 -71q-5 -54 -2 -75q5 -33 34 -33q32 0 42 35z" />
<glyph unicode="&#xa3;" horiz-adv-x="555" d="M295 245q-6 -47 -33 -77q-5 -7 3 -7h256q15 0 13 -15l-16 -131q-2 -15 -17 -15h-440q-15 0 -13 15l17 135q2 11 11 18q29 26 37 77l2 22q1 6 -5 6h-49q-15 0 -13 15l15 121q2 15 16 15h50q6 0 6 6l6 45q13 109 77.5 170t162.5 63q87 2 137.5 -45t61.5 -133q3 -15 -14 -17 l-148 -21q-14 -2 -15 12q-7 43 -34 43q-37 0 -45 -65l-6 -52q-2 -6 5 -6h142q15 0 13 -15l-15 -121q-2 -15 -16 -15h-143q-6 0 -6 -6z" />
<glyph unicode="&#xa4;" horiz-adv-x="589" d="M538 305q-6 -51 -31 -95q-3 -5 1 -9l55 -65q9 -11 -4 -21l-104 -85q-12 -11 -21 0l-51 59q-2 3 -8 2q-45 -20 -94 -20q-47 0 -86 18q-6 1 -9 -2l-62 -57q-12 -10 -20 0l-84 85q-10 10 2 21l66 60q4 4 3 9q-16 44 -10 100q6 52 32 95q3 5 -1 9l-55 64q-9 11 4 21l104 85 q11 10 21 0l49 -58q2 -4 8 -2q46 20 96 20q51 0 93 -22q6 -1 9 2l67 60q11 11 20 0l84 -85q10 -10 -2 -21l-75 -69q-5 -3 -3 -8q12 -42 6 -91zM384 305q3 31 -16.5 53.5t-48.5 22.5q-30 0 -54.5 -22.5t-28.5 -53.5t15.5 -53.5t49.5 -22.5q29 0 54 22.5t29 53.5z" />
<glyph unicode="&#xa5;" horiz-adv-x="592" d="M614 700q17 0 9 -17l-176 -344q-3 -7 3 -7h70q15 0 13 -15l-9 -71q-2 -15 -16 -15h-104q-6 0 -7 -6l-3 -23q0 -6 5 -6h104q15 0 13 -15l-9 -71q-2 -15 -16 -15h-104q-5 0 -7 -6l-8 -72q-2 -15 -17 -15h-153q-15 0 -13 15l9 72q2 6 -5 6h-106q-14 0 -12 15l8 71 q2 15 17 15h105q7 0 7 6l3 23q0 6 -5 6h-106q-15 0 -13 15l9 71q2 15 16 15h72q6 0 5 7l-90 344q-3 17 14 17h164q13 0 15 -13l37 -218q2 -10 8 0l90 218q5 13 18 13h165z" />
<glyph unicode="&#xa6;" horiz-adv-x="214" d="M60 395q-15 0 -13 15l42 335q2 15 16 15h153q15 0 13 -15l-41 -335q-2 -15 -17 -15h-153zM2 -80q-15 0 -13 15l41 335q2 15 17 15h153q15 0 13 -15l-42 -335q-2 -15 -16 -15h-153z" />
<glyph unicode="&#xa7;" horiz-adv-x="482" d="M194 -205q-97 0 -148 47t-43 124l2 31q3 15 16 15h153q7 0 10.5 -3t2.5 -8l-1 -12q-2 -15 7 -24.5t26 -9.5q14 0 25 8.5t13 20.5q1 9 -4 17.5t-23 20t-30 18.5t-45 24q-87 47 -110 101q-16 35 -10 79q7 56 42 95q20 23 51 41q6 6 1 9q-71 63 -61 141q9 76 77 127t164 51 q95 0 149.5 -50t44.5 -132l-2 -18q-2 -15 -17 -15h-153q-7 0 -10.5 2.5t-2.5 6.5l1 9q2 16 -7 26t-25 10q-15 0 -26 -8.5t-12 -21.5q-2 -15 8 -27.5t21 -18.5t38 -19l12 -6q93 -44 123 -82q31 -39 24 -98q-6 -49 -34 -88q-28 -41 -62 -57q-7 -3 -2 -8q38 -31 52 -63t9 -78 q-10 -82 -78.5 -129.5t-165.5 -47.5zM251 217q19 0 30 12q8 7 10 23q1 12 -2 22q-1 2 -4 5q-10 10 -25 10q-20 0 -31 -12q-8 -8 -11 -24q-1 -16 6 -25q8 -11 27 -11z" />
<glyph unicode="&#xa8;" horiz-adv-x="381" d="M142 551q-37 0 -57.5 24t-15.5 63q4 39 30.5 63t64.5 24q37 0 56.5 -24t14.5 -63t-30.5 -63t-62.5 -24zM336 551q-38 0 -57.5 24t-14.5 63t30.5 63t63.5 24t57.5 -24t14.5 -63t-30.5 -63t-63.5 -24z" />
<glyph unicode="&#xa9;" horiz-adv-x="749" d="M353 -8q-151 0 -237 102.5t-67 261.5q18 151 129.5 251.5t262.5 100.5q152 0 239.5 -100.5t68.5 -251.5q-19 -159 -131 -261.5t-265 -102.5zM365 92q110 0 190.5 74t94.5 190q14 108 -49 180t-172 72q-108 0 -188 -72t-93 -180q-15 -116 46.5 -190t170.5 -74zM379 178 q-53 0 -81 31t-22 83l15 119q7 52 42 82.5t88 30.5t82 -29.5t22 -79.5q0 -8 -15 -8l-64 -3q-7 -1 -10.5 1t-2.5 5v7q3 27 -22 27q-11 0 -18 -7.5t-9 -19.5l-16 -132q-3 -26 21 -26q25 0 28 26q1 13 16 13l63 -2q14 0 14 -4v-4q-7 -50 -42.5 -80t-88.5 -30z" />
<glyph unicode="&#xaa;" horiz-adv-x="309" d="M196 569h34q6 0 6 6l1 6q2 16 -6.5 25.5t-23.5 9.5q-21 0 -31 -15q-8 -13 -17 -12l-77 5q-16 2 -12 16q10 42 51 70t95 28q60 0 97 -32t31 -80l-27 -220q-2 -15 -17 -15h-75q-14 0 -14 9q1 3 -1 3.5t-5 -1.5q-23 -16 -60 -16q-50 0 -79 25t-22 79q14 109 152 109z M176 441q20 0 33 11t15 24l1 5q0 6 -5 6h-26q-41 0 -44 -24q-3 -22 26 -22zM22 296q2 15 16 15h262q15 0 13 -15l-6 -45q-2 -15 -16 -15h-262q-15 0 -13 15z" />
<glyph unicode="&#xab;" horiz-adv-x="455" d="M245 125q3 -8 -1 -13t-13 -5h-118q-12 0 -15 11l-48 153q-3 11 2 20l86 153q6 11 18 11h118q8 0 11 -5t-1 -13l-90 -152q-2 -5 -1 -8zM416 125q5 -18 -14 -18h-118q-12 0 -15 11l-49 153q-1 11 3 20l86 153q5 11 17 11h119q19 0 9 -18l-89 -152q-2 -4 -1 -8z" />
<glyph unicode="&#xac;" horiz-adv-x="442" d="M44 358q2 15 16 15h375q15 0 12 -15l-26 -213q-2 -15 -16 -15h-116q-15 0 -13 15l9 72q0 6 -5 6h-238q-15 0 -13 15z" />
<glyph unicode="&#xad;" horiz-adv-x="370" d="M40 205q-15 0 -13 15l16 130q2 15 16 15h302q15 0 13 -15l-16 -130q-2 -15 -17 -15h-301z" />
<glyph unicode="&#xae;" horiz-adv-x="423" d="M279 708q87 0 137.5 -57.5t39.5 -143.5q-11 -93 -75.5 -152t-152.5 -59t-137.5 59.5t-37.5 151.5q11 86 75 143.5t151 57.5zM237 364q58 0 101.5 40t50.5 103q7 57 -26.5 95t-91.5 38t-100.5 -38t-50.5 -95q-7 -63 25.5 -103t91.5 -40zM332 537q-4 -32 -27 -47 q-5 -3 -4 -8l10 -54q2 -17 -14 -17h-28q-14 0 -15 13l-8 49q0 5 -1 5t-3 -6l-5 -46q-2 -15 -17 -15h-26q-15 0 -13 15l20 158q2 15 16 15h61q27 0 42 -17.5t12 -44.5zM264 551h-6q-6 0 -7 -6l-2 -19q0 -6 5 -6h6q14 0 16 16q2 15 -12 15z" />
<glyph unicode="&#xaf;" horiz-adv-x="263" d="M65 570q-15 0 -13 15l12 95q2 15 16 15h234q15 0 13 -15l-12 -95q-2 -15 -16 -15h-234z" />
<glyph unicode="&#xb0;" horiz-adv-x="355" d="M215 460q-71 0 -113.5 51t-33.5 124t64 123t125 50q71 0 113.5 -50t33.5 -123q-9 -74 -64 -124.5t-125 -50.5zM229 581q22 0 38.5 15.5t19.5 38.5q2 24 -10 39.5t-34 15.5q-21 0 -38 -15.5t-20 -39.5q-3 -22 10 -38t34 -16z" />
<glyph unicode="&#xb1;" horiz-adv-x="442" d="M336 500q0 -6 5 -6h109q14 0 12 -15l-14 -120q-3 -15 -17 -15h-108q-5 0 -7 -6l-14 -112q-2 -15 -16 -15h-117q-14 0 -12 15l14 112q0 6 -6 6h-108q-15 0 -13 15l15 120q2 15 16 15h109q6 0 6 6l14 112q2 15 17 15h116q15 0 13 -15zM15 0q-15 0 -13 15l15 120q2 15 16 15 h374q15 0 13 -15l-15 -120q-2 -15 -16 -15h-374z" />
<glyph unicode="&#xb2;" horiz-adv-x="308" d="M63 399q-15 0 -13 15l9 75q1 11 10 19q105 94 128 118q44 44 48 71q3 26 -20 26q-25 0 -28 -25l-1 -12q-2 -15 -17 -15h-86q-15 0 -13 15l3 24q10 53 52.5 83.5t103.5 30.5q63 0 95.5 -34t25.5 -96q-6 -49 -46 -97q-15 -17 -92 -89q-3 -3 -2 -5.5t4 -2.5h101q15 0 13 -15 l-9 -71q-2 -15 -16 -15h-250z" />
<glyph unicode="&#xb3;" horiz-adv-x="301" d="M339 594q4 -30 1 -55q-3 -24 -9 -43q-17 -48 -54 -75.5t-90 -27.5q-52 0 -84.5 27t-36.5 72q-2 21 0 34q0 15 15 15h85q13 0 13 -14q1 -3 1 -8t1 -7q7 -18 18 -18q15 0 23 18q6 14 8 35q3 27 -1 39q-5 13 -17 13q-10 0 -23 -8q-14 -9 -21 1l-35 48q-8 11 5 21l72 50 q4 3 3 5t-5 2h-95q-14 0 -12 15l8 70q2 15 17 15h229q14 0 12 -15l-9 -74q-2 -12 -10 -18l-49 -41q-7 -5 -1 -8q31 -18 41 -68z" />
<glyph unicode="&#xb4;" horiz-adv-x="262" d="M81 571q-20 0 -9 18l62 93q6 10 19 10h142q9 0 11.5 -5t-4.5 -13l-83 -94q-8 -9 -19 -9h-119z" />
<glyph unicode="&#xb5;" horiz-adv-x="495" d="M329 505q2 15 16 15h153q15 0 13 -15l-60 -490q-2 -15 -16 -15h-154q-15 0 -12 15l2 19q1 4 -1.5 4.5t-5.5 -2.5q-27 -32 -69 -40q-6 -2 -6 -7l-22 -174q-2 -15 -16 -15h-153q-15 0 -13 15l85 690q2 15 16 15h154q15 0 13 -15l-37 -302q-6 -50 31 -50q18 0 30 13.5 t15 36.5z" />
<glyph unicode="&#xb6;" horiz-adv-x="583" d="M313 700h295q15 0 13 -15l-107 -870q-2 -15 -17 -15h-112q-15 0 -13 15l91 738q0 6 -5 6h-49q-6 0 -6 -6l-91 -738q-2 -15 -16 -15h-113q-15 0 -13 15l53 431q2 5 -4 7q-87 13 -132 72t-34 150q13 101 82.5 163t177.5 62z" />
<glyph unicode="&#xb7;" horiz-adv-x="210" d="M84 -8q-45 0 -71 30.5t-20 74.5q5 42 41 73t76 31q41 0 69.5 -30.5t23.5 -73.5q-5 -44 -39 -74.5t-80 -30.5z" />
<glyph unicode="&#xb8;" horiz-adv-x="176" d="M-27 -185q-10 4 -7 18l15 63q4 14 18 9q22 -3 31 16q11 24 -28 61q-8 7 -5.5 12.5t12.5 5.5h81q11 0 18 -7q55 -59 28 -124q-11 -29 -33 -45.5t-46.5 -19t-46 0.5t-37.5 10z" />
<glyph unicode="&#xb9;" horiz-adv-x="178" d="M119 815q9 4 19 4h91q14 0 12 -15l-48 -390q-2 -15 -16 -15h-85q-15 0 -13 15l37 298q0 6 -6 6l-11 1q-15 0 -13 15l7 57q1 10 13 17z" />
<glyph unicode="&#xba;" horiz-adv-x="320" d="M184 356q-57 0 -90.5 28t-36.5 81q-3 33 2 67q4 37 14 69q16 50 57 78.5t99 28.5q55 0 88 -28t36 -79q4 -27 0 -68q-7 -44 -17 -68q-16 -52 -56 -80.5t-96 -28.5zM197 457q19 0 29 25q7 19 11 50q3 27 2 49q-3 27 -25 27q-20 0 -30 -27q-6 -15 -10 -49q-4 -32 -2 -50 q1 -25 25 -25zM41 236q-15 0 -13 15l5 45q3 15 17 15h262q15 0 12 -15l-5 -45q-2 -15 -16 -15h-262z" />
<glyph unicode="&#xbb;" horiz-adv-x="455" d="M45 107q-19 0 -9 18l89 152q2 4 1 8l-52 152q-5 18 14 18h118q12 0 15 -11l49 -153q1 -11 -3 -20l-86 -153q-5 -11 -18 -11h-118zM216 107q-8 0 -11 5t1 13l90 152q1 3 1 8l-52 152q-3 8 1 13t13 5h118q12 0 15 -11l48 -153q3 -11 -2 -20l-86 -153q-6 -11 -18 -11h-118z " />
<glyph unicode="&#xbc;" horiz-adv-x="773" d="M179 295q-2 -15 -17 -15h-85q-15 0 -13 15l37 298q0 6 -5 6l-12 1q-14 0 -12 15l7 57q1 11 12 17l14 7q8 4 19 4h90q15 0 13 -15zM518 690q6 10 19 10h96q21 0 8 -18l-453 -672q-5 -10 -18 -10h-97q-20 0 -9 18zM752 206q15 0 13 -15l-10 -77q-2 -15 -16 -15h-12 q-5 0 -7 -6l-9 -78q-2 -15 -16 -15h-86q-15 0 -13 15l10 78q2 6 -5 6h-158q-15 0 -13 15l8 61q0 6 5 18l105 215q6 12 19 12h90q18 0 9 -17l-89 -190q-2 -7 4 -7h33q6 0 7 6l4 39q3 15 17 15h85q15 0 13 -15l-5 -39q0 -6 5 -6h12z" />
<glyph unicode="&#xbd;" horiz-adv-x="736" d="M179 295q-2 -15 -17 -15h-85q-15 0 -13 15l37 298q0 6 -5 6l-12 1q-14 0 -12 15l7 57q1 11 12 17l14 7q8 4 19 4h90q15 0 13 -15zM518 690q6 10 19 10h96q21 0 8 -18l-453 -672q-5 -10 -18 -10h-97q-20 0 -9 18zM601 109q-8 -8 2 -8h101q15 0 13 -15l-9 -71 q-2 -15 -16 -15h-251q-14 0 -12 15l9 75q2 12 10 19q98 88 128 118q44 44 47 71q5 26 -20 26q-24 0 -27 -25l-1 -12q-3 -15 -17 -15h-86q-15 0 -13 15l3 24q10 53 52.5 83.5t103.5 30.5q63 0 95.5 -34t25.5 -96q-6 -49 -46 -97q-9 -10 -92 -89z" />
<glyph unicode="&#xbe;" horiz-adv-x="854" d="M316 378q-16 -48 -53.5 -75.5t-90.5 -27.5q-51 0 -84 27.5t-36 71.5q-3 14 -1 34q0 15 15 15h86q13 0 13 -14q0 -5 2 -15q5 -18 18 -18q14 0 22 18q6 12 9 35t-1 39q-5 13 -17 13q-11 0 -24 -8q-13 -10 -21 1l-35 48q-8 12 6 21l71 50q9 7 -1 7h-95q-15 0 -13 15l9 70 q2 15 16 15h229q15 0 13 -15l-9 -74q-2 -11 -10 -18l-50 -41q-5 -5 0 -8q32 -20 40 -68q5 -29 1 -55q-4 -30 -9 -43zM599 690q6 10 19 10h96q19 0 8 -18l-453 -672q-6 -10 -19 -10h-97q-19 0 -8 18zM832 206q15 0 13 -15l-9 -77q-3 -15 -17 -15h-11q-7 0 -7 -6l-10 -78 q-2 -15 -16 -15h-85q-15 0 -13 15l10 78q0 6 -6 6h-158q-14 0 -12 15l7 61q1 9 5 18l105 215q6 12 19 12h90q18 0 10 -17l-89 -190q-4 -7 4 -7h33q6 0 6 6l5 39q2 15 16 15h86q15 0 12 -15l-4 -39q-2 -6 5 -6h11z" />
<glyph unicode="&#xbf;" horiz-adv-x="507" d="M305 505q39 0 63.5 -28t19.5 -67q-5 -40 -37 -68.5t-71 -28.5t-64 28.5t-20 67.5q4 40 36 68t73 28zM357 264q15 0 13 -14l-2 -14q-5 -41 -25 -72.5t-46 -50.5t-51 -35t-44 -33.5t-21 -38.5t10.5 -33t35.5 -12q28 0 45.5 14.5t19.5 36.5l1 4q1 14 16 14l153 -7q6 0 10 -2 t3 -4v-5q-12 -99 -88 -160.5t-186 -61.5q-105 0 -160.5 57t-44.5 150q6 46 27 80.5t47 54.5t52.5 37t45.5 36t22 43v1q2 15 16 15h151z" />
<glyph unicode="&#xc0;" horiz-adv-x="604" d="M447 769q3 -8 -1 -13t-12 -5h-120q-11 0 -16 9l-60 94q-5 8 -1.5 13t12.5 5h142q13 0 17 -10zM393 0q-14 0 -15 13l-6 77q-2 5 -5 5h-146q-4 0 -6 -5l-26 -77q-5 -13 -18 -13h-159q-17 0 -11 17l255 670q5 13 17 13h192q12 0 14 -13l90 -670q2 -17 -15 -17h-161zM267 246 q-3 -7 5 -7h81q7 0 7 7l-17 205q0 7 -4 4q-2 -2 -2 -4z" />
<glyph unicode="&#xc1;" horiz-adv-x="604" d="M519 872q9 0 11.5 -5t-4.5 -13l-83 -94q-8 -9 -19 -9h-119q-20 0 -9 18l62 93q6 10 19 10h142zM393 0q-14 0 -15 13l-6 77q-2 5 -5 5h-146q-4 0 -6 -5l-26 -77q-5 -13 -18 -13h-159q-17 0 -11 17l255 670q5 13 17 13h192q12 0 14 -13l90 -670q2 -17 -15 -17h-161z M267 246q-3 -7 5 -7h81q7 0 7 7l-17 205q0 7 -4 4q-2 -2 -2 -4z" />
<glyph unicode="&#xc2;" horiz-adv-x="604" d="M384 806q-2 8 -8 0l-26 -44q-7 -11 -19 -11h-110q-20 0 -7 18l78 101q8 10 19 10h153q12 0 17 -10l55 -101q8 -18 -11 -18h-109q-12 0 -16 11zM393 0q-14 0 -15 13l-6 77q-2 5 -5 5h-146q-4 0 -6 -5l-26 -77q-5 -13 -18 -13h-159q-17 0 -11 17l255 670q5 13 17 13h192 q12 0 14 -13l90 -670q2 -17 -15 -17h-161zM267 246q-3 -7 5 -7h81q7 0 7 7l-17 205q0 7 -4 4q-2 -2 -2 -4z" />
<glyph unicode="&#xc3;" horiz-adv-x="604" d="M349 782q-19 0 -32 -17q-11 -14 -21 -5l-48 40q-10 7 -4 19q36 80 105 80q29 0 63 -23q23 -16 39 -16q18 0 32 15q11 13 20 5l48 -38q10 -9 2 -21q-44 -74 -111 -74q-25 0 -58 20q-26 15 -35 15zM393 0q-14 0 -15 13l-6 77q-2 5 -5 5h-146q-4 0 -6 -5l-26 -77 q-5 -13 -18 -13h-159q-17 0 -11 17l255 670q5 13 17 13h192q12 0 14 -13l90 -670q2 -17 -15 -17h-161zM267 246q-3 -7 5 -7h81q7 0 7 7l-17 205q0 7 -4 4q-2 -2 -2 -4z" />
<glyph unicode="&#xc4;" horiz-adv-x="604" d="M276 731q-37 0 -57.5 24t-16.5 63q5 39 31.5 63t63.5 24q38 0 57.5 -24t14.5 -63q-4 -39 -30 -63t-63 -24zM470 731q-37 0 -57.5 24t-15.5 63t31 63t63 24q38 0 58 -24t15 -63q-4 -39 -30 -63t-64 -24zM393 0q-14 0 -15 13l-6 77q-2 5 -5 5h-146q-4 0 -6 -5l-26 -77 q-5 -13 -18 -13h-159q-17 0 -11 17l255 670q5 13 17 13h192q12 0 14 -13l90 -670q2 -17 -15 -17h-161zM267 246q-3 -7 5 -7h81q7 0 7 7l-17 205q0 7 -4 4q-2 -2 -2 -4z" />
<glyph unicode="&#xc5;" horiz-adv-x="604" d="M372 734q-48 0 -76.5 33.5t-22.5 83.5q6 49 43 82.5t85 33.5t76.5 -33.5t22.5 -82.5t-43 -83t-85 -34zM391 888q-14 0 -26 -10.5t-13 -26.5q-2 -15 7 -25.5t23 -10.5q15 0 26.5 10.5t13.5 25.5q2 16 -7 26.5t-24 10.5zM393 0q-14 0 -15 13l-6 77q-2 5 -5 5h-146 q-4 0 -6 -5l-26 -77q-5 -13 -18 -13h-159q-17 0 -11 17l255 670q5 13 17 13h192q12 0 14 -13l90 -670q2 -17 -15 -17h-161zM267 246q-3 -7 5 -7h81q7 0 7 7l-17 205q0 7 -4 4q-2 -2 -2 -4z" />
<glyph unicode="&#xc6;" horiz-adv-x="863" d="M892 554q-3 -15 -17 -15h-238q-7 0 -7 -6l-12 -94q0 -6 6 -6h138q15 0 13 -15l-16 -130q-2 -15 -16 -15h-139q-6 0 -7 -6l-12 -100q0 -6 5 -6h239q15 0 12 -15l-16 -131q-2 -15 -16 -15h-412q-15 0 -13 15l9 74q1 6 -5 6h-142q-6 0 -7 -5l-41 -78q-6 -12 -19 -12h-165 q-19 0 -9 18l374 671q4 11 17 11h499q15 0 13 -15zM320 246q-3 -7 4 -7h82q6 0 6 6l26 213q1 4 -1.5 4.5t-4.5 -3.5z" />
<glyph unicode="&#xc7;" horiz-adv-x="527" d="M543 475q0 -9 -15 -9l-154 -7q-7 0 -11 3t-3 9l2 13q4 28 -9.5 45.5t-39.5 17.5t-44.5 -17.5t-21.5 -45.5l-33 -268q-4 -28 10 -45.5t40 -17.5t43.5 17t21.5 46l2 12q1 14 16 14l152 -7q14 0 14 -8l-1 -7q-10 -88 -66 -147t-142 -76q-8 0 -3 -7q40 -54 17 -110 q-11 -29 -33 -45.5t-46.5 -19t-46 0.5t-37.5 10q-10 4 -7 18l15 63q4 13 18 9q22 -3 31 16q11 26 -34 66l-6 3q-75 20 -112.5 80t-26.5 147l30 247q13 106 87 169.5t182 63.5t166.5 -61.5t45.5 -164.5z" />
<glyph unicode="&#xc8;" d="M398 782q3 -8 -1 -13t-12 -5h-120q-11 0 -16 9l-60 94q-5 7 -1.5 12.5t12.5 5.5h142q13 0 17 -10zM520 554q-2 -15 -16 -15h-237q-5 0 -7 -6l-11 -94q0 -6 5 -6h137q15 0 12 -15l-16 -130q-2 -15 -16 -15h-137q-6 0 -6 -6l-13 -100q0 -6 6 -6h236q15 0 13 -15l-16 -131 q-2 -15 -17 -15h-410q-15 0 -13 15l83 670q2 15 16 15h410q15 0 13 -15z" />
<glyph unicode="&#xc9;" d="M470 885q9 0 11.5 -5.5t-4.5 -12.5l-83 -94q-8 -9 -19 -9h-119q-20 0 -9 18l62 93q6 10 19 10h142zM520 554q-2 -15 -16 -15h-237q-5 0 -7 -6l-11 -94q0 -6 5 -6h137q15 0 12 -15l-16 -130q-2 -15 -16 -15h-137q-6 0 -6 -6l-13 -100q0 -6 6 -6h236q15 0 13 -15l-16 -131 q-2 -15 -17 -15h-410q-15 0 -13 15l83 670q2 15 16 15h410q15 0 13 -15z" />
<glyph unicode="&#xca;" d="M335 819q-1 3 -3 3t-4 -3l-27 -44q-7 -11 -19 -11h-110q-20 0 -7 18l78 101q8 10 19 10h153q12 0 17 -10l55 -101q8 -18 -11 -18h-109q-12 0 -16 11zM520 554q-2 -15 -16 -15h-237q-5 0 -7 -6l-11 -94q0 -6 5 -6h137q15 0 12 -15l-16 -130q-2 -15 -16 -15h-137 q-6 0 -6 -6l-13 -100q0 -6 6 -6h236q15 0 13 -15l-16 -131q-2 -15 -17 -15h-410q-15 0 -13 15l83 670q2 15 16 15h410q15 0 13 -15z" />
<glyph unicode="&#xcb;" d="M227 744q-37 0 -57.5 24t-16.5 63q5 39 31.5 63t64.5 24q37 0 56.5 -24t14.5 -63t-30.5 -63t-62.5 -24zM421 744q-37 0 -57.5 24t-15.5 63t31 63t64 24t57.5 -24t14.5 -63t-30.5 -63t-63.5 -24zM520 554q-2 -15 -16 -15h-237q-5 0 -7 -6l-11 -94q0 -6 5 -6h137 q15 0 12 -15l-16 -130q-2 -15 -16 -15h-137q-6 0 -6 -6l-13 -100q0 -6 6 -6h236q15 0 13 -15l-16 -131q-2 -15 -17 -15h-410q-15 0 -13 15l83 670q2 15 16 15h410q15 0 13 -15z" />
<glyph unicode="&#xcc;" horiz-adv-x="245" d="M270 782q3 -8 -1 -13t-12 -5h-120q-11 0 -16 9l-60 94q-5 7 -1.5 12.5t12.5 5.5h142q13 0 17 -10zM27 0q-15 0 -13 15l83 670q2 15 16 15h153q15 0 13 -15l-82 -670q-2 -15 -17 -15h-153z" />
<glyph unicode="&#xcd;" horiz-adv-x="245" d="M128 764q-20 0 -9 18l62 93q6 10 19 10h142q9 0 11.5 -5.5t-4.5 -12.5l-83 -94q-8 -9 -19 -9h-119zM27 0q-15 0 -13 15l83 670q2 15 16 15h153q15 0 13 -15l-82 -670q-2 -15 -17 -15h-153z" />
<glyph unicode="&#xce;" horiz-adv-x="245" d="M44 764q-20 0 -7 18l78 101q8 10 19 10h153q12 0 17 -10l55 -101q8 -18 -11 -18h-109q-12 0 -16 11l-16 44q-1 3 -3 3t-4 -3l-27 -44q-7 -11 -19 -11h-110zM27 0q-15 0 -13 15l83 670q2 15 16 15h153q15 0 13 -15l-82 -670q-2 -15 -17 -15h-153z" />
<glyph unicode="&#xcf;" horiz-adv-x="245" d="M99 744q-37 0 -57.5 24t-16.5 63q5 39 31.5 63t63.5 24q38 0 57.5 -24t14.5 -63t-30.5 -63t-62.5 -24zM293 744q-37 0 -57.5 24t-15.5 63t31 63t63 24q38 0 58 -24t15 -63t-30.5 -63t-63.5 -24zM27 0q-15 0 -13 15l83 670q2 15 16 15h153q15 0 13 -15l-82 -670 q-2 -15 -17 -15h-153z" />
<glyph unicode="&#xd0;" horiz-adv-x="566" d="M364 700q109 0 167.5 -58.5t47.5 -153.5l-34 -275q-12 -96 -85 -154.5t-182 -58.5h-220q-15 0 -13 15l35 284q2 6 -5 6h-10q-15 0 -13 15l10 85q2 15 17 15h10q5 0 7 6l32 259q2 15 16 15h220zM365 235l29 231q4 33 -9.5 53t-39.5 20h-47q-6 0 -7 -6l-13 -107q0 -6 5 -6 h29q15 0 13 -15l-10 -85q-2 -15 -17 -15h-29q-6 0 -6 -6l-16 -132q-1 -6 5 -6l47 1q24 0 42.5 20t23.5 53z" />
<glyph unicode="&#xd1;" horiz-adv-x="575" d="M423 760q-25 0 -58 20q-25 15 -35 15q-19 0 -32 -17q-11 -14 -21 -5l-48 40q-10 8 -4 19q17 39 45.5 59.5t59.5 20.5t63 -23q23 -16 39 -16q18 0 32 15q11 13 20 5l48 -38q11 -9 -2 -28q-42 -67 -107 -67zM27 0q-15 0 -13 15l83 670q2 15 16 15h159q12 0 15 -11l95 -325 q1 -5 5 -3l2 5l38 319q3 15 17 15h152q15 0 13 -15l-82 -670q-2 -15 -17 -15h-159q-13 0 -16 12l-94 328q-3 7 -6 3q-1 -2 -1 -4l-38 -324q-2 -15 -17 -15h-152z" />
<glyph unicode="&#xd2;" horiz-adv-x="536" d="M414 777q3 -8 -1 -13t-12 -5h-120q-11 0 -16 9l-60 94q-5 8 -1.5 13t12.5 5h142q13 0 17 -10zM247 -10q-110 0 -168.5 66t-45.5 175l29 238q13 108 88 173.5t185 65.5q111 0 169.5 -65t45.5 -174l-29 -238q-14 -110 -88.5 -175.5t-185.5 -65.5zM267 151q28 0 47.5 20 t23.5 53l31 250q4 33 -11 53t-43 20q-27 0 -46.5 -20t-23.5 -53l-30 -250q-4 -33 10 -53t42 -20z" />
<glyph unicode="&#xd3;" horiz-adv-x="536" d="M272 759q-20 0 -9 18l62 93q6 10 19 10h142q9 0 11.5 -5t-4.5 -13l-83 -94q-8 -9 -19 -9h-119zM247 -10q-110 0 -168.5 66t-45.5 175l29 238q13 108 88 173.5t185 65.5q111 0 169.5 -65t45.5 -174l-29 -238q-14 -110 -88.5 -175.5t-185.5 -65.5zM267 151q28 0 47.5 20 t23.5 53l31 250q4 33 -11 53t-43 20q-27 0 -46.5 -20t-23.5 -53l-30 -250q-4 -33 10 -53t42 -20z" />
<glyph unicode="&#xd4;" horiz-adv-x="536" d="M188 759q-20 0 -7 18l78 101q8 10 19 10h153q12 0 17 -10l55 -101q8 -18 -11 -18h-109q-12 0 -16 11l-16 44q-2 8 -8 0l-26 -44q-7 -11 -19 -11h-110zM247 -10q-110 0 -168.5 66t-45.5 175l29 238q13 108 88 173.5t185 65.5q111 0 169.5 -65t45.5 -174l-29 -238 q-14 -110 -88.5 -175.5t-185.5 -65.5zM267 151q28 0 47.5 20t23.5 53l31 250q4 33 -11 53t-43 20q-27 0 -46.5 -20t-23.5 -53l-30 -250q-4 -33 10 -53t42 -20z" />
<glyph unicode="&#xd5;" horiz-adv-x="536" d="M409 755q-25 0 -58 20q-25 15 -35 15q-19 0 -32 -17q-11 -14 -21 -5l-48 40q-10 7 -4 19q36 80 105 80q29 0 63 -23q23 -16 39 -16q18 0 32 15q11 13 20 5l48 -38q10 -8 -2 -28q-44 -67 -107 -67zM247 -10q-110 0 -168.5 66t-45.5 175l29 238q13 108 88 173.5t185 65.5 q111 0 169.5 -65t45.5 -174l-29 -238q-14 -110 -88.5 -175.5t-185.5 -65.5zM267 151q28 0 47.5 20t23.5 53l31 250q4 33 -11 53t-43 20q-27 0 -46.5 -20t-23.5 -53l-30 -250q-4 -33 10 -53t42 -20z" />
<glyph unicode="&#xd6;" horiz-adv-x="536" d="M243 739q-37 0 -57.5 24t-16.5 63q5 39 31.5 63t63.5 24q38 0 57.5 -24t14.5 -63q-4 -39 -30 -63t-63 -24zM437 739q-37 0 -57.5 24t-15.5 63t31 63t63 24q38 0 58 -24t15 -63q-4 -39 -30 -63t-64 -24zM247 -10q-110 0 -168.5 66t-45.5 175l29 238q13 108 88 173.5 t185 65.5q111 0 169.5 -65t45.5 -174l-29 -238q-14 -110 -88.5 -175.5t-185.5 -65.5zM267 151q28 0 47.5 20t23.5 53l31 250q4 33 -11 53t-43 20q-27 0 -46.5 -20t-23.5 -53l-30 -250q-4 -33 10 -53t42 -20z" />
<glyph unicode="&#xd7;" horiz-adv-x="427" d="M428 415q9 -11 -2 -22l-87 -79q-3 -3 -1 -8l67 -79q9 -11 -2 -22l-92 -84q-13 -11 -22 0l-67 79q-1 2 -3.5 2t-3.5 -2l-87 -79q-11 -11 -21 0l-71 84q-9 11 3 22l86 79q5 4 1 8l-67 79q-9 11 3 22l91 84q13 11 22 0l67 -79q1 -2 3.5 -2t3.5 2l87 79q11 11 21 0z" />
<glyph unicode="&#xd8;" horiz-adv-x="536" d="M506 649q-2 -5 1 -9q56 -66 43 -171l-29 -238q-14 -110 -88.5 -175.5t-185.5 -65.5q-62 0 -110 23q-4 2 -8 -3l-17 -29q-8 -11 -18 -11h-49q-19 0 -9 18l38 64q3 4 0 9q-53 62 -41 170l29 238q13 108 88 173.5t185 65.5q62 0 107 -21q6 -2 8 3l18 29q6 11 17 11h50 q19 0 9 -18zM245 474l-18 -150q-1 -4 1 -4q3 -2 6 3l120 202q2 5 -1 9q-15 13 -38 13q-27 0 -46.5 -20t-23.5 -53zM267 151q28 0 47.5 20t23.5 53l20 160q0 4 -3 4.5t-4 -3.5l-124 -209q-2 -5 0 -8q14 -17 40 -17z" />
<glyph unicode="&#xd9;" horiz-adv-x="533" d="M413 782q8 -18 -13 -18h-119q-11 0 -16 9l-61 94q-4 7 -0.5 12.5t11.5 5.5h143q12 0 16 -10zM246 -8q-107 0 -164.5 64t-44.5 170l57 459q2 15 16 15h153q15 0 13 -15l-57 -468q-4 -29 9 -46.5t38 -17.5t42.5 18t20.5 46l58 468q2 15 16 15h153q15 0 13 -15l-56 -459 q-14 -106 -87 -170t-180 -64z" />
<glyph unicode="&#xda;" horiz-adv-x="533" d="M271 764q-19 0 -8 18l62 93q6 10 18 10h143q9 0 11.5 -5.5t-4.5 -12.5l-84 -94q-8 -9 -18 -9h-120zM246 -8q-107 0 -164.5 64t-44.5 170l57 459q2 15 16 15h153q15 0 13 -15l-57 -468q-4 -29 9 -46.5t38 -17.5t42.5 18t20.5 46l58 468q2 15 16 15h153q15 0 13 -15 l-56 -459q-14 -106 -87 -170t-180 -64z" />
<glyph unicode="&#xdb;" horiz-adv-x="533" d="M188 764q-21 0 -8 18l79 101q7 10 18 10h154q12 0 17 -10l54 -101q4 -8 1 -13t-11 -5h-109q-12 0 -16 11l-16 44q-4 8 -8 0l-27 -44q-7 -11 -18 -11h-110zM246 -8q-107 0 -164.5 64t-44.5 170l57 459q2 15 16 15h153q15 0 13 -15l-57 -468q-4 -29 9 -46.5t38 -17.5 t42.5 18t20.5 46l58 468q2 15 16 15h153q15 0 13 -15l-56 -459q-14 -106 -87 -170t-180 -64z" />
<glyph unicode="&#xdc;" horiz-adv-x="533" d="M243 744q-38 0 -58 24t-16 63t31 63t64 24t57 -24t15 -63t-30.5 -63t-62.5 -24zM437 744q-38 0 -58 24t-15 63q4 39 30 63t64 24q37 0 57.5 -24t15.5 -63t-31 -63t-63 -24zM246 -8q-107 0 -164.5 64t-44.5 170l57 459q2 15 16 15h153q15 0 13 -15l-57 -468 q-4 -29 9 -46.5t38 -17.5t42.5 18t20.5 46l58 468q2 15 16 15h153q15 0 13 -15l-56 -459q-14 -106 -87 -170t-180 -64z" />
<glyph unicode="&#xdd;" horiz-adv-x="563" d="M284 751q-19 0 -8 18l62 93q6 10 18 10h143q9 0 11 -5t-5 -13l-83 -94q-8 -9 -18 -9h-120zM185 2q-15 0 -13 15l27 225q2 4 0 8l-113 433q-5 17 14 17h163q13 0 15 -13l38 -218q3 -6 7 0l90 218q5 13 18 13h165q18 0 10 -17l-222 -433q-2 -4 -2 -8l-28 -225 q-2 -15 -16 -15h-153z" />
<glyph unicode="&#xde;" horiz-adv-x="519" d="M341 572q96 0 147.5 -62.5t39.5 -162.5q-13 -98 -81 -158.5t-161 -60.5h-72q-6 0 -7 -6l-13 -107q-2 -15 -16 -15h-154q-15 0 -12 15l82 670q2 15 16 15h153q15 0 13 -15l-13 -107q0 -6 5 -6h73zM274 277q28 0 48 17t24 49q4 33 -11.5 50.5t-44.5 17.5h-42q-6 0 -6 -6 l-15 -122q-1 -6 5 -6h42z" />
<glyph unicode="&#xdf;" horiz-adv-x="536" d="M23 1q-14 0 -12 15l55 451q14 115 82.5 178t179.5 63t169 -53t47 -144q-10 -81 -74 -123q-6 -3 -1 -8q66 -51 52 -167q-13 -102 -85.5 -157.5t-198.5 -55.5q-14 0 -12 15l16 130q2 15 15 15h14q29 0 49 19.5t24 53.5q4 35 -10.5 54t-44.5 19h-13q-15 0 -12 15l14 116 q2 15 16 15h14q22 0 37.5 14.5t17.5 35.5q3 19 -8 32.5t-37 13.5q-24 0 -43 -15t-22 -41l-59 -477q-2 -15 -16 -15z" />
<glyph unicode="&#xe0;" horiz-adv-x="497" d="M373 589q7 -18 -13 -18h-119q-12 0 -17 9l-60 94q-4 8 -0.5 13t11.5 5h143q12 0 16 -10zM331 505q2 15 16 15h153q15 0 13 -15l-60 -490q-2 -15 -16 -15h-154q-15 0 -12 15l1 8q0 10 -7 3q-39 -34 -100 -34q-119 0 -131 171q-3 40 5 108q6 51 20 95q50 162 172 162 q62 0 92 -32q5 -7 7 2zM291 201q4 16 5 24l5 37q5 53 5 60q1 20 -8 32.5t-25 12.5q-30 0 -43 -45q-2 -6 -10 -61q-5 -50 -5 -60q-1 -21 7.5 -34.5t24.5 -13.5q32 0 44 48z" />
<glyph unicode="&#xe1;" horiz-adv-x="497" d="M446 692q8 0 10.5 -5t-4.5 -13l-83 -94q-8 -9 -19 -9h-119q-21 0 -8 18l62 93q5 10 18 10h143zM331 505q2 15 16 15h153q15 0 13 -15l-60 -490q-2 -15 -16 -15h-154q-15 0 -12 15l1 8q0 10 -7 3q-39 -34 -100 -34q-119 0 -131 171q-3 40 5 108q6 51 20 95q50 162 172 162 q62 0 92 -32q5 -7 7 2zM291 201q4 16 5 24l5 37q5 53 5 60q1 20 -8 32.5t-25 12.5q-30 0 -43 -45q-2 -6 -10 -61q-5 -50 -5 -60q-1 -21 7.5 -34.5t24.5 -13.5q32 0 44 48z" />
<glyph unicode="&#xe2;" horiz-adv-x="497" d="M311 626q-4 8 -8 0l-27 -44q-7 -11 -19 -11h-109q-21 0 -8 18l79 101q7 10 18 10h154q12 0 17 -10l54 -101q10 -18 -11 -18h-108q-13 0 -16 11zM331 505q2 15 16 15h153q15 0 13 -15l-60 -490q-2 -15 -16 -15h-154q-15 0 -12 15l1 8q0 10 -7 3q-39 -34 -100 -34 q-119 0 -131 171q-3 40 5 108q6 51 20 95q50 162 172 162q62 0 92 -32q5 -7 7 2zM291 201q4 16 5 24l5 37q5 53 5 60q1 20 -8 32.5t-25 12.5q-30 0 -43 -45q-2 -6 -10 -61q-5 -50 -5 -60q-1 -21 7.5 -34.5t24.5 -13.5q32 0 44 48z" />
<glyph unicode="&#xe3;" horiz-adv-x="497" d="M276 602q-19 0 -32 -17q-11 -14 -21 -5l-49 40q-8 7 -4 19q18 39 46 59.5t59 20.5q30 0 64 -23q21 -16 38 -16q18 0 32 15q11 13 20 5l48 -38q10 -8 3 -21q-44 -74 -112 -74q-24 0 -57 20q-27 15 -35 15zM331 505q2 15 16 15h153q15 0 13 -15l-60 -490q-2 -15 -16 -15 h-154q-15 0 -12 15l1 8q0 10 -7 3q-39 -34 -100 -34q-119 0 -131 171q-3 40 5 108q6 51 20 95q50 162 172 162q62 0 92 -32q5 -7 7 2zM291 201q4 16 5 24l5 37q5 53 5 60q1 20 -8 32.5t-25 12.5q-30 0 -43 -45q-2 -6 -10 -61q-5 -50 -5 -60q-1 -21 7.5 -34.5t24.5 -13.5 q32 0 44 48z" />
<glyph unicode="&#xe4;" horiz-adv-x="497" d="M202 551q-37 0 -57.5 24t-15.5 63q4 39 30.5 63t64.5 24q37 0 56.5 -24t15.5 -63q-5 -39 -31 -63t-63 -24zM396 551q-38 0 -57.5 24t-14.5 63t30.5 63t63.5 24q37 0 57.5 -24t15.5 -63t-31 -63t-64 -24zM331 505q2 15 16 15h153q15 0 13 -15l-60 -490q-2 -15 -16 -15 h-154q-15 0 -12 15l1 8q0 10 -7 3q-39 -34 -100 -34q-119 0 -131 171q-3 40 5 108q6 51 20 95q50 162 172 162q62 0 92 -32q5 -7 7 2zM291 201q4 16 5 24l5 37q5 53 5 60q1 20 -8 32.5t-25 12.5q-30 0 -43 -45q-2 -6 -10 -61q-5 -50 -5 -60q-1 -21 7.5 -34.5t24.5 -13.5 q32 0 44 48z" />
<glyph unicode="&#xe5;" horiz-adv-x="497" d="M299 554q-48 0 -76.5 33.5t-22.5 83.5q6 49 42.5 82.5t84.5 33.5q49 0 77.5 -33.5t22.5 -82.5t-43 -83t-85 -34zM318 708q-15 0 -26.5 -10.5t-13.5 -26.5q-2 -15 7 -25.5t24 -10.5q14 0 26 10.5t13 25.5q2 16 -7 26.5t-23 10.5zM331 505q2 15 16 15h153q15 0 13 -15 l-60 -490q-2 -15 -16 -15h-154q-15 0 -12 15l1 8q0 10 -7 3q-39 -34 -100 -34q-119 0 -131 171q-3 40 5 108q6 51 20 95q50 162 172 162q62 0 92 -32q5 -7 7 2zM291 201q4 16 5 24l5 37q5 53 5 60q1 20 -8 32.5t-25 12.5q-30 0 -43 -45q-2 -6 -10 -61q-5 -50 -5 -60 q-1 -21 7.5 -34.5t24.5 -13.5q32 0 44 48z" />
<glyph unicode="&#xe6;" horiz-adv-x="754" d="M171 -8q-78 0 -124 37t-36 123q10 82 65 117.5t156 35.5h62q6 0 6 6l2 18q2 17 -8 27.5t-29 10.5q-28 0 -39 -19q-8 -13 -18 -12l-154 12q-13 2 -12 16q15 73 81.5 118.5t150.5 45.5q87 0 138 -54q4 -4 8 0q60 54 144 54q80 0 132.5 -45.5t56.5 -121.5q2 -56 -8 -143 q-3 -15 -17 -15h-245q-6 0 -6 -6q0 -2 1 -4q-1 -4 0 -8q7 -34 51 -34q35 0 59 24q12 10 20 5l101 -48q12 -7 5 -20q-62 -120 -202 -120q-58 0 -98 19.5t-50 46.5q-3 4 -4 4q-18 -29 -70 -49.5t-119 -20.5zM490 311q0 -6 4 -6h71q5 0 6 6v20q-3 36 -33 36q-32 0 -43 -36z M228 123q19 0 35.5 13t19.5 32l3 29q2 6 -5 6h-34q-45 0 -51 -42q-3 -38 32 -38z" />
<glyph unicode="&#xe7;" horiz-adv-x="487" d="M289 188q1 3 2 7.5t2 6.5q5 15 18 14l150 -14q13 -1 12 -16l-6 -23q-17 -65 -62 -107.5t-110 -56.5q-8 -2 -3 -8q42 -54 17 -111q-11 -29 -33 -45.5t-46.5 -19t-46 0.5t-37.5 10q-10 4 -7 18l15 63q4 14 18 9q22 -3 31 16q11 24 -31 63l-6 3q-129 30 -137 162 q-5 44 3 102q6 50 22 101q23 76 87 120.5t153 44.5q86 0 139 -43t58 -117q1 -11 1 -33q-1 -14 -15 -16l-154 -15q-7 -1 -11 3t-3 11q0 12 -1 17q-5 32 -35 32t-43 -35q-7 -20 -15 -71q-6 -57 -2 -75q5 -33 34 -33q31 0 42 35z" />
<glyph unicode="&#xe8;" horiz-adv-x="491" d="M369 597q8 -18 -13 -18h-119q-11 0 -16 9l-61 94q-4 8 -0.5 13t11.5 5h143q12 0 16 -10zM261 152q31 1 51 28q9 12 20 10l123 -22q17 -3 9 -18q-30 -74 -90.5 -116t-139.5 -42q-82 0 -134.5 43.5t-64.5 113.5q-9 48 1 126q4 29 9 54q23 95 85.5 147t163.5 52 q194 0 194 -212q0 -36 -5 -89q-1 -15 -17 -15h-249q-6 0 -6 -6v-18q5 -38 50 -36zM271 367q-28 0 -41 -36q-4 -13 -5 -17q-3 -6 4 -6h73q6 0 5 6q0 12 -1 17q-4 36 -35 36z" />
<glyph unicode="&#xe9;" horiz-adv-x="491" d="M442 700q9 0 11 -5t-5 -13l-83 -94q-8 -9 -18 -9h-120q-19 0 -8 18l62 93q6 10 18 10h143zM261 152q31 1 51 28q9 12 20 10l123 -22q17 -3 9 -18q-30 -74 -90.5 -116t-139.5 -42q-82 0 -134.5 43.5t-64.5 113.5q-9 48 1 126q4 29 9 54q23 95 85.5 147t163.5 52 q194 0 194 -212q0 -36 -5 -89q-1 -15 -17 -15h-249q-6 0 -6 -6v-18q5 -38 50 -36zM271 367q-28 0 -41 -36q-4 -13 -5 -17q-3 -6 4 -6h73q6 0 5 6q0 12 -1 17q-4 36 -35 36z" />
<glyph unicode="&#xea;" horiz-adv-x="491" d="M307 634q-4 8 -8 0l-27 -44q-7 -11 -19 -11h-109q-21 0 -8 18l79 101q7 10 18 10h154q12 0 17 -10l54 -101q10 -18 -11 -18h-108q-12 0 -16 11zM261 152q31 1 51 28q9 12 20 10l123 -22q17 -3 9 -18q-30 -74 -90.5 -116t-139.5 -42q-82 0 -134.5 43.5t-64.5 113.5 q-9 48 1 126q4 29 9 54q23 95 85.5 147t163.5 52q194 0 194 -212q0 -36 -5 -89q-1 -15 -17 -15h-249q-6 0 -6 -6v-18q5 -38 50 -36zM271 367q-28 0 -41 -36q-4 -13 -5 -17q-3 -6 4 -6h73q6 0 5 6q0 12 -1 17q-4 36 -35 36z" />
<glyph unicode="&#xeb;" horiz-adv-x="491" d="M199 559q-38 0 -58 24t-16 63t31 63t64 24t56.5 -24t15.5 -63q-5 -39 -30.5 -63t-62.5 -24zM393 559q-38 0 -58 24t-15 63q4 39 30 63t64 24q37 0 57.5 -24t15.5 -63t-31 -63t-63 -24zM261 152q31 1 51 28q9 12 20 10l123 -22q17 -3 9 -18q-30 -74 -90.5 -116t-139.5 -42 q-82 0 -134.5 43.5t-64.5 113.5q-9 48 1 126q4 29 9 54q23 95 85.5 147t163.5 52q194 0 194 -212q0 -36 -5 -89q-1 -15 -17 -15h-249q-6 0 -6 -6v-18q5 -38 50 -36zM271 367q-28 0 -41 -36q-4 -13 -5 -17q-3 -6 4 -6h73q6 0 5 6q0 12 -1 17q-4 36 -35 36z" />
<glyph unicode="&#xec;" horiz-adv-x="239" d="M241 602q7 -18 -13 -18h-119q-12 0 -17 9l-60 94q-5 7 -1.5 12.5t12.5 5.5h143q12 0 16 -10zM22 0q-15 0 -12 15l60 490q2 15 16 15h153q15 0 13 -15l-60 -490q-2 -15 -16 -15h-154z" />
<glyph unicode="&#xed;" horiz-adv-x="239" d="M99 584q-20 0 -9 18l62 93q6 10 19 10h143q8 0 10.5 -5.5t-4.5 -12.5l-83 -94q-8 -9 -19 -9h-119zM22 0q-15 0 -12 15l60 490q2 15 16 15h153q15 0 13 -15l-60 -490q-2 -15 -16 -15h-154z" />
<glyph unicode="&#xee;" horiz-adv-x="239" d="M15 584q-20 0 -7 18l78 101q8 10 19 10h153q12 0 17 -10l55 -101q8 -18 -11 -18h-109q-12 0 -16 11l-16 44q-1 3 -3.5 3t-3.5 -3l-27 -44q-7 -11 -19 -11h-110zM22 0q-15 0 -12 15l60 490q2 15 16 15h153q15 0 13 -15l-60 -490q-2 -15 -16 -15h-154z" />
<glyph unicode="&#xef;" horiz-adv-x="239" d="M70 564q-37 0 -57.5 24t-15.5 63q4 39 30.5 63t64.5 24q37 0 56.5 -24t14.5 -63t-30.5 -63t-62.5 -24zM264 564q-37 0 -57.5 24t-15.5 63t31 63t64 24t57.5 -24t14.5 -63t-30.5 -63t-63.5 -24zM22 0q-15 0 -12 15l60 490q2 15 16 15h153q15 0 13 -15l-60 -490 q-2 -15 -16 -15h-154z" />
<glyph unicode="&#xf0;" horiz-adv-x="491" d="M480 342q3 -46 -4 -108q-6 -47 -20 -84q-23 -73 -85 -115.5t-151 -42.5q-88 0 -140.5 42t-57.5 116q-5 43 1 84q4 37 20 84q13 52 52.5 89t89.5 45q62 17 106 4q2 -2 4 0t1 5q-13 38 -20 52q0 6 -6 4l-87 -21q-15 -3 -16 11l-7 57q0 16 13 19l57 13q7 2 4 8 q-17 31 -46 78q-4 8 -0.5 13t11.5 5h153q10 0 16 -9q13 -23 27 -50q2 -5 7 -3l75 18q16 4 16 -11l7 -58q1 -15 -13 -18l-45 -11q-7 -2 -4 -10q44 -104 42 -206zM279 176q11 35 13 55q2 15 0 54q-5 32 -32 32q-28 0 -42 -32q-9 -32 -12 -54q-2 -15 0 -55q3 -33 33 -33 q25 0 40 33z" />
<glyph unicode="&#xf1;" d="M277 602q-19 0 -33 -17q-9 -14 -20 -5l-49 40q-8 7 -4 19q18 39 46 59.5t59 20.5q30 0 64 -23q21 -16 38 -16q18 0 32 15q11 13 20 5l48 -38q10 -8 3 -21q-44 -74 -112 -74q-24 0 -57 20q-27 15 -35 15zM359 528q73 0 108 -48.5t24 -134.5l-41 -330q-2 -15 -16 -15h-154 q-14 0 -12 15l37 303q3 22 -5.5 35.5t-25.5 13.5q-38 0 -45 -49l-37 -303q-2 -15 -16 -15h-154q-15 0 -12 15l60 490q2 15 16 15h153q15 0 13 -15l-3 -25q-1 -4 1.5 -4t6.5 4q40 48 102 48z" />
<glyph unicode="&#xf2;" horiz-adv-x="495" d="M371 597q8 -18 -13 -18h-119q-11 0 -16 9l-61 94q-4 8 -0.5 13t11.5 5h143q12 0 16 -10zM227 -8q-95 0 -148 49t-53 135q0 33 6 85q5 47 17 89q22 82 86.5 130t158.5 48q93 0 145 -48t54 -129q1 -32 -5 -89q-5 -42 -14 -83q-21 -88 -85.5 -137.5t-161.5 -49.5zM247 153 q36 0 48 48q3 10 10 60q4 43 5 61q-2 45 -37 45q-36 0 -48 -45q-3 -12 -10 -61q-5 -50 -5 -60q0 -48 37 -48z" />
<glyph unicode="&#xf3;" horiz-adv-x="495" d="M229 579q-19 0 -8 18l62 93q5 10 18 10h143q9 0 11 -5t-5 -13l-83 -94q-8 -9 -18 -9h-120zM227 -8q-95 0 -148 49t-53 135q0 33 6 85q5 47 17 89q22 82 86.5 130t158.5 48q93 0 145 -48t54 -129q1 -32 -5 -89q-5 -42 -14 -83q-21 -88 -85.5 -137.5t-161.5 -49.5zM247 153 q36 0 48 48q3 10 10 60q4 43 5 61q-2 45 -37 45q-36 0 -48 -45q-3 -12 -10 -61q-5 -50 -5 -60q0 -48 37 -48z" />
<glyph unicode="&#xf4;" horiz-adv-x="495" d="M146 579q-21 0 -8 18l79 101q7 10 18 10h154q12 0 17 -10l54 -101q10 -18 -11 -18h-108q-12 0 -16 11l-16 44q-4 8 -8 0l-27 -44q-7 -11 -19 -11h-109zM227 -8q-95 0 -148 49t-53 135q0 33 6 85q5 47 17 89q22 82 86.5 130t158.5 48q93 0 145 -48t54 -129q1 -32 -5 -89 q-5 -42 -14 -83q-21 -88 -85.5 -137.5t-161.5 -49.5zM247 153q36 0 48 48q3 10 10 60q4 43 5 61q-2 45 -37 45q-36 0 -48 -45q-3 -12 -10 -61q-5 -50 -5 -60q0 -48 37 -48z" />
<glyph unicode="&#xf5;" horiz-adv-x="495" d="M366 575q-24 0 -57 20q-26 15 -35 15q-19 0 -32 -17q-11 -14 -21 -5l-49 40q-8 7 -4 19q18 39 46.5 59.5t59.5 20.5q29 0 63 -23q23 -16 38 -16q18 0 32 15q11 13 20 5l48 -38q11 -9 -2 -28q-42 -67 -107 -67zM227 -8q-95 0 -148 49t-53 135q0 33 6 85q5 47 17 89 q22 82 86.5 130t158.5 48q93 0 145 -48t54 -129q1 -32 -5 -89q-5 -42 -14 -83q-21 -88 -85.5 -137.5t-161.5 -49.5zM247 153q36 0 48 48q3 10 10 60q4 43 5 61q-2 45 -37 45q-36 0 -48 -45q-3 -12 -10 -61q-5 -50 -5 -60q0 -48 37 -48z" />
<glyph unicode="&#xf6;" horiz-adv-x="495" d="M201 559q-38 0 -58.5 24t-15.5 63q4 39 30.5 63t64.5 24q37 0 56.5 -24t15.5 -63q-5 -39 -30.5 -63t-62.5 -24zM395 559q-38 0 -58 24t-15 63t30.5 63t63.5 24q37 0 57.5 -24t15.5 -63t-31 -63t-63 -24zM227 -8q-95 0 -148 49t-53 135q0 33 6 85q5 47 17 89 q22 82 86.5 130t158.5 48q93 0 145 -48t54 -129q1 -32 -5 -89q-5 -42 -14 -83q-21 -88 -85.5 -137.5t-161.5 -49.5zM247 153q36 0 48 48q3 10 10 60q4 43 5 61q-2 45 -37 45q-36 0 -48 -45q-3 -12 -10 -61q-5 -50 -5 -60q0 -48 37 -48z" />
<glyph unicode="&#xf7;" horiz-adv-x="442" d="M252 402q-32 0 -52 23.5t-16 56.5q5 32 30.5 55.5t57.5 23.5q31 0 51 -23.5t16 -55.5q-5 -33 -30.5 -56.5t-56.5 -23.5zM42 227q-14 0 -12 15l14 120q3 15 17 15h374q15 0 13 -15l-15 -120q-2 -15 -16 -15h-375zM209 48q-32 0 -52 23.5t-16 56.5q4 32 29.5 55.5 t57.5 23.5q31 0 51 -23.5t16 -55.5q-4 -33 -29.5 -56.5t-56.5 -23.5z" />
<glyph unicode="&#xf8;" horiz-adv-x="495" d="M493 351q1 -32 -5 -89q-5 -42 -14 -83q-21 -88 -85.5 -137.5t-161.5 -49.5q-59 0 -104 20q-5 2 -8 -3l-26 -34q-10 -13 -20 -4l-24 21q-12 8 -2 21l24 32q3 5 0 9q-41 46 -41 122q0 33 6 85q5 47 17 89q22 82 86.5 130t158.5 48q64 0 108 -23q4 -1 9 3l27 37q10 13 20 4 l25 -21q10 -9 1 -21l-27 -37q-3 -5 0 -8q34 -45 36 -111zM215 261v-5q-1 -4 1.5 -5.5t4.5 2.5l73 99q4 5 0 8q-10 7 -21 7q-36 0 -48 -45q-3 -12 -10 -61zM295 201q3 10 10 60q0 4 -8 -6l-67 -91q-4 -5 1 -8q7 -3 16 -3q36 0 48 48z" />
<glyph unicode="&#xf9;" d="M367 589q8 -18 -13 -18h-119q-11 0 -16 9l-61 94q-4 8 -0.5 13t11.5 5h143q12 0 16 -10zM326 505q2 15 16 15h153q15 0 13 -15l-60 -490q-2 -15 -16 -15h-154q-14 0 -12 15l2 19q1 4 -1 4.5t-6 -2.5q-37 -44 -107 -44q-65 0 -102 43.5t-26 126.5l42 343q2 15 16 15h153 q15 0 13 -15l-37 -302q-3 -23 5.5 -36.5t25.5 -13.5q18 0 30 13.5t15 36.5z" />
<glyph unicode="&#xfa;" d="M440 692q9 0 11 -5t-4 -13l-84 -94q-8 -9 -18 -9h-120q-19 0 -8 18l62 93q6 10 18 10h143zM326 505q2 15 16 15h153q15 0 13 -15l-60 -490q-2 -15 -16 -15h-154q-14 0 -12 15l2 19q1 4 -1 4.5t-6 -2.5q-37 -44 -107 -44q-65 0 -102 43.5t-26 126.5l42 343q2 15 16 15h153 q15 0 13 -15l-37 -302q-3 -23 5.5 -36.5t25.5 -13.5q18 0 30 13.5t15 36.5z" />
<glyph unicode="&#xfb;" d="M305 626q-4 8 -8 0l-27 -44q-7 -11 -19 -11h-109q-21 0 -8 18l79 101q7 10 18 10h154q12 0 17 -10l54 -101q10 -18 -11 -18h-108q-12 0 -16 11zM326 505q2 15 16 15h153q15 0 13 -15l-60 -490q-2 -15 -16 -15h-154q-14 0 -12 15l2 19q1 4 -1 4.5t-6 -2.5 q-37 -44 -107 -44q-65 0 -102 43.5t-26 126.5l42 343q2 15 16 15h153q15 0 13 -15l-37 -302q-3 -23 5.5 -36.5t25.5 -13.5q18 0 30 13.5t15 36.5z" />
<glyph unicode="&#xfc;" d="M197 551q-38 0 -58 24t-16 63t31 63t64 24t56.5 -24t15.5 -63q-5 -39 -30.5 -63t-62.5 -24zM391 551q-38 0 -58 24t-15 63q4 39 30 63t64 24q37 0 57.5 -24t15.5 -63t-31 -63t-63 -24zM326 505q2 15 16 15h153q15 0 13 -15l-60 -490q-2 -15 -16 -15h-154q-14 0 -12 15 l2 19q1 4 -1 4.5t-6 -2.5q-37 -44 -107 -44q-65 0 -102 43.5t-26 126.5l42 343q2 15 16 15h153q15 0 13 -15l-37 -302q-3 -23 5.5 -36.5t25.5 -13.5q18 0 30 13.5t15 36.5z" />
<glyph unicode="&#xfd;" horiz-adv-x="482" d="M222 578q-19 0 -8 18l62 93q6 10 18 10h143q9 0 11 -5.5t-5 -12.5l-83 -94q-8 -9 -18 -9h-120zM-5 -199q-7 0 -5 15l15 124q2 15 7 15h5q58 0 84 8t28 33q1 3 1 8l-75 499q-3 17 14 17h164q14 0 13 -14l7 -232q0 -7 4 -3q1 1 2 4l61 231q3 14 17 14l165 -1q16 0 10 -17 l-202 -504q-19 -46 -35 -74t-40 -54.5t-54.5 -39.5t-74.5 -21t-105 -8h-6z" />
<glyph unicode="&#xfe;" horiz-adv-x="489" d="M482 366q3 -44 -3 -95q-9 -68 -22 -108q-24 -80 -68 -125.5t-105 -45.5q-54 0 -85 28q-5 5 -7 -4l-25 -201q-2 -15 -16 -15h-153q-15 0 -13 15l107 870q2 15 16 15h154q14 0 12 -15l-22 -179q0 -8 7 -4q33 26 91 26q62 0 94.5 -43t37.5 -119zM295 261q1 6 3 20.5t2 20.5 v20q-2 45 -32 45q-20 0 -33 -20q-3 -2 -3 -7l-19 -157q-2 -3 0 -8q8 -22 29 -22q15 0 27 13.5t17 34.5q2 9 3.5 19t3 22t2.5 19z" />
<glyph unicode="&#xff;" horiz-adv-x="482" d="M194 558q-38 0 -58 24t-16 63t31 63t64 24t56.5 -24t15.5 -63q-5 -39 -30.5 -63t-62.5 -24zM388 558q-38 0 -58 24t-15 63q4 39 30 63t64 24q37 0 57.5 -24t15.5 -63t-31 -63t-63 -24zM-5 -199q-7 0 -5 15l15 124q2 15 7 15h5q58 0 84 8t28 33q1 3 1 8l-75 499 q-3 17 14 17h164q14 0 13 -14l7 -232q0 -7 4 -3q1 1 2 4l61 231q3 14 17 14l165 -1q16 0 10 -17l-202 -504q-19 -46 -35 -74t-40 -54.5t-54.5 -39.5t-74.5 -21t-105 -8h-6z" />
<glyph unicode="&#x152;" horiz-adv-x="792" d="M820 554q-2 -15 -17 -15h-238q-5 0 -7 -6l-11 -94q-2 -6 5 -6h138q15 0 13 -15l-16 -130q-2 -15 -16 -15h-139q-6 0 -6 -6l-13 -100q0 -6 5 -6h239q15 0 13 -15l-16 -131q-3 -15 -17 -15h-412q-7 0 -10.5 3.5t-2.5 8.5v3q1 3 -1 4t-5 0q-50 -29 -107 -29 q-78 0 -128.5 67.5t-37.5 173.5l29 238q13 105 80 172t145 67q57 0 100 -29q7 -3 7 1l1 5q2 15 16 15h412q15 0 13 -15zM267 151q28 0 47.5 20t23.5 53l31 250q4 33 -11 53t-43 20q-27 0 -46.5 -20t-23.5 -53l-30 -250q-4 -33 10 -53t42 -20z" />
<glyph unicode="&#x153;" horiz-adv-x="773" d="M549 151q32 0 58 24q1 1 2.5 3t2.5 3q8 8 18 3l100 -47q12 -7 5 -20q-63 -125 -217 -125q-88 0 -138 60q-4 3 -8 0q-65 -60 -147 -60q-89 0 -140 44.5t-56 123.5q-5 47 3 101q8 61 22 102q23 76 86 120.5t152 44.5q81 0 131 -61q4 -3 8 0q64 61 145 61q88 0 141 -46 t56 -120q0 -72 -7 -134q-2 -15 -16 -15h-247q-6 0 -6 -6q0 -3 0.5 -9t0.5 -9q5 -38 51 -38zM285 185q9 28 16 76q5 46 2 75q-3 31 -32 31q-28 0 -40 -31q-10 -29 -16 -75q-5 -46 -2 -76q3 -32 32 -32q27 0 40 32zM557 367q-29 0 -42 -36l-4 -20q-1 -6 4 -6h70q7 0 6 6v20 q-5 36 -34 36z" />
<glyph unicode="&#x178;" horiz-adv-x="563" d="M256 731q-38 0 -58 24t-16 63t31 63t64 24t56.5 -24t15.5 -63q-5 -39 -30.5 -63t-62.5 -24zM450 731q-38 0 -58 24t-15 63q4 39 30 63t64 24q37 0 57.5 -24t15.5 -63t-31 -63t-63 -24zM185 2q-15 0 -13 15l27 225q2 4 0 8l-113 433q-5 17 14 17h163q13 0 15 -13l38 -218 q3 -6 7 0l90 218q5 13 18 13h165q18 0 10 -17l-222 -433q-2 -4 -2 -8l-28 -225q-2 -15 -16 -15h-153z" />
<glyph unicode="&#x2c6;" horiz-adv-x="346" d="M72 571q-9 0 -11.5 5t4.5 13l78 101q8 10 19 10h153q12 0 17 -10l55 -101q8 -18 -11 -18h-109q-12 0 -16 11l-16 44q-2 8 -8 0l-27 -44q-6 -11 -18 -11h-110z" />
<glyph unicode="&#x2dc;" horiz-adv-x="338" d="M270 567q-24 0 -57 20q-26 15 -35 15q-19 0 -32 -17q-11 -14 -21 -5l-49 40q-8 7 -4 19q18 39 46.5 59.5t59.5 20.5q29 0 63 -23q21 -16 38 -16q18 0 32 15q11 13 20 5l48 -38q11 -9 -2 -28q-42 -67 -107 -67z" />
<glyph unicode="&#x2000;" horiz-adv-x="483" />
<glyph unicode="&#x2001;" horiz-adv-x="967" />
<glyph unicode="&#x2002;" horiz-adv-x="483" />
<glyph unicode="&#x2003;" horiz-adv-x="967" />
<glyph unicode="&#x2004;" horiz-adv-x="322" />
<glyph unicode="&#x2005;" horiz-adv-x="241" />
<glyph unicode="&#x2006;" horiz-adv-x="161" />
<glyph unicode="&#x2007;" horiz-adv-x="161" />
<glyph unicode="&#x2008;" horiz-adv-x="120" />
<glyph unicode="&#x2009;" horiz-adv-x="193" />
<glyph unicode="&#x200a;" horiz-adv-x="53" />
<glyph unicode="&#x2010;" horiz-adv-x="370" d="M40 205q-15 0 -13 15l16 130q2 15 16 15h302q15 0 13 -15l-16 -130q-2 -15 -17 -15h-301z" />
<glyph unicode="&#x2011;" horiz-adv-x="370" d="M40 205q-15 0 -13 15l16 130q2 15 16 15h302q15 0 13 -15l-16 -130q-2 -15 -17 -15h-301z" />
<glyph unicode="&#x2012;" horiz-adv-x="370" d="M40 205q-15 0 -13 15l16 130q2 15 16 15h302q15 0 13 -15l-16 -130q-2 -15 -17 -15h-301z" />
<glyph unicode="&#x2013;" horiz-adv-x="427" d="M40 205q-15 0 -13 15l16 131q2 15 16 15h359q15 0 13 -15l-16 -131q-2 -15 -16 -15h-359z" />
<glyph unicode="&#x2014;" horiz-adv-x="598" d="M40 206q-15 0 -13 15l16 130q2 15 16 15h531q15 0 13 -15l-16 -130q-2 -15 -17 -15h-530z" />
<glyph unicode="&#x2018;" horiz-adv-x="232" d="M56 460q-18 0 -10 17l103 211q6 12 18 12h115q16 0 12 -16l-69 -211q-4 -13 -18 -13h-151z" />
<glyph unicode="&#x2019;" horiz-adv-x="232" d="M280 700q18 0 10 -17l-104 -211q-6 -12 -18 -12h-114q-16 0 -12 16l69 211q4 13 18 13h151z" />
<glyph unicode="&#x201a;" horiz-adv-x="582" d="M5 -111q-16 0 -13 16l50 241q3 14 16 14h133q16 0 11 -17l-89 -241q-5 -13 -17 -13h-91z" />
<glyph unicode="&#x201c;" horiz-adv-x="412" d="M55 460q-17 0 -10 17l96 211q5 12 18 12h108q16 0 12 -16l-63 -210q-5 -14 -17 -14h-144zM251 460q-16 0 -9 17l94 211q5 12 18 12h109q15 0 11 -16l-61 -210q-3 -14 -17 -14h-145z" />
<glyph unicode="&#x201d;" horiz-adv-x="412" d="M264 700q17 0 10 -17l-94 -211q-5 -12 -18 -12h-109q-15 0 -11 16l61 210q3 14 17 14h144zM461 700q17 0 10 -17l-96 -211q-5 -12 -18 -12h-108q-16 0 -12 16l63 210q5 14 17 14h144z" />
<glyph unicode="&#x201e;" horiz-adv-x="426" d="M194 129q17 0 10 -17l-94 -211q-5 -12 -18 -12h-110q-14 0 -10 16l61 210q3 14 17 14h144zM391 129q17 0 10 -17l-96 -211q-5 -12 -18 -12h-109q-15 0 -11 16l62 210q6 14 18 14h144z" />
<glyph unicode="&#x2022;" horiz-adv-x="308" d="M153 143q-56 0 -91 41t-27 99q7 58 51.5 98.5t101.5 40.5q55 0 89 -40.5t27 -98.5t-51 -99t-100 -41z" />
<glyph unicode="&#x2026;" horiz-adv-x="832" d="M115 -8q-45 0 -71 30.5t-20 74.5q5 42 41 73t76 31q41 0 69.5 -30.5t23.5 -73.5q-5 -44 -39 -74.5t-80 -30.5zM393 -8q-45 0 -71 30.5t-21 74.5q5 42 41 73t76 31q42 0 70.5 -30.5t22.5 -73.5q-5 -44 -38.5 -74.5t-79.5 -30.5zM671 -8q-45 0 -71 30.5t-21 74.5 q5 42 41.5 73t76.5 31q41 0 69.5 -30.5t23.5 -73.5q-5 -44 -39 -74.5t-80 -30.5z" />
<glyph unicode="&#x202f;" horiz-adv-x="193" />
<glyph unicode="&#x2039;" horiz-adv-x="289" d="M245 125q3 -8 -1 -13t-13 -5h-118q-12 0 -15 11l-48 153q-3 11 2 20l86 153q6 11 18 11h118q8 0 11 -5t-1 -13l-90 -152q-2 -5 -1 -8z" />
<glyph unicode="&#x203a;" horiz-adv-x="285" d="M45 107q-19 0 -9 18l89 152q2 4 1 8l-52 152q-5 18 14 18h118q12 0 15 -11l49 -153q1 -11 -3 -20l-86 -153q-5 -11 -18 -11h-118z" />
<glyph unicode="&#x205f;" horiz-adv-x="241" />
<glyph unicode="&#x20ac;" horiz-adv-x="555" d="M314 153q27 0 40 33q4 15 18 13l147 -26q14 -4 10 -17q-25 -77 -87.5 -120.5t-147.5 -43.5q-100 0 -152.5 61.5t-40.5 164.5l3 23q2 6 -5 6h-49q-15 0 -13 15l8 64q2 15 16 15h50q6 0 6 6l1 7q2 6 -5 6h-49q-15 0 -13 15l8 64q2 15 16 15h50q6 0 6 6l3 25 q13 102 80.5 162.5t167.5 60.5q88 0 139.5 -45t55.5 -124q2 -15 -14 -17l-156 -18q-13 -1 -14 13q-5 30 -31 30q-17 0 -29 -14.5t-15 -38.5l-4 -34q-2 -6 5 -6h138q16 0 10 -17l-25 -64q-5 -13 -18 -13h-117q-6 0 -6 -6l-1 -7q-2 -6 5 -6h106q17 0 11 -17l-25 -64 q-4 -13 -18 -13h-86q-6 0 -6 -6l-5 -35q-3 -24 5.5 -38.5t26.5 -14.5z" />
<glyph unicode="&#x2122;" horiz-adv-x="600" d="M80 616q-15 0 -13 15l6 54q3 15 17 15h234q14 0 12 -15l-6 -54q-2 -15 -17 -15h-64q-6 0 -6 -6l-30 -246q-3 -15 -17 -15h-66q-15 0 -13 15l31 246q0 6 -5 6h-63zM552 691q8 9 19 9h67q15 0 13 -15l-40 -321q-2 -15 -16 -15h-66q-15 0 -13 15l22 182q1 4 -1.5 5t-4.5 -3 l-29 -34q-6 -9 -17 -9q-12 0 -16 9l-20 35q-1 2 -3 2.5t-3 -1t-2 -4.5l-22 -182q-2 -15 -16 -15h-66q-15 0 -13 15l39 321q3 15 17 15h68q11 0 16 -9l33 -56q3 -5 8 0z" />
<glyph unicode="&#x25fc;" horiz-adv-x="520" d="M0 520h520v-520h-520v520z" />
</font>
</defs>
</svg>
