<?xml version="1.0" standalone="no"?>
<!DOCTYPE svg PUBLIC "-//W3C//DTD SVG 1.1//EN" "http://www.w3.org/Graphics/SVG/1.1/DTD/svg11.dtd" >
<svg xmlns="http://www.w3.org/2000/svg" xmlns:xlink="http://www.w3.org/1999/xlink" version="1.1">
<metadata></metadata>
<defs>
<font id="barlow_semi_condensedXLt" horiz-adv-x="475" >
<font-face units-per-em="1000" ascent="800" descent="-200" />
<missing-glyph horiz-adv-x="200" />
<glyph horiz-adv-x="0" />
<glyph horiz-adv-x="333" />
<glyph unicode="&#xd;" horiz-adv-x="200" />
<glyph unicode=" "  horiz-adv-x="200" />
<glyph unicode="&#x09;" horiz-adv-x="200" />
<glyph unicode="&#xa0;" horiz-adv-x="200" />
<glyph unicode="!" horiz-adv-x="277" d="M131 223q-10 0 -10 10l-2 457q0 10 10 10h19q10 0 10 -10l-2 -457q0 -10 -10 -10h-15zM136 4q-19 0 -31.5 14t-12.5 34q0 19 13.5 33t30.5 14q18 0 31.5 -14t13.5 -33q0 -20 -13 -34t-32 -14z" />
<glyph unicode="&#x22;" horiz-adv-x="202" d="M46 496q-10 0 -10 10l-5 177q0 10 10 10h21q10 0 10 -10l-4 -177q0 -10 -10 -10h-12zM143 496q-10 0 -10 10l-4 177q0 10 10 10h21q10 0 10 -10l-5 -177q0 -10 -10 -10h-12z" />
<glyph unicode="#" horiz-adv-x="612" d="M537 451q0 -10 -10 -10h-69q-5 0 -5 -4l-28 -187q0 -4 3 -4h65q10 0 10 -10v-15q0 -10 -10 -10h-70q-5 0 -5 -4l-29 -186q-1 -9 -10 -9l-19 1q-11 0 -9 11l27 183q0 4 -3 4h-180q-5 0 -5 -4l-28 -186q-1 -9 -10 -9l-19 1q-11 0 -9 11l27 183q0 4 -3 4h-64q-10 0 -10 10 l1 15q0 10 10 10h68q5 0 5 4l28 187q0 4 -3 4h-65q-10 0 -10 10l1 15q0 10 10 10h70q5 0 5 4l28 187q1 9 10 9l19 -1q11 0 9 -11l-27 -184q0 -4 3 -4h180q5 0 5 4l28 187q1 9 10 9l20 -1q11 0 9 -11l-28 -184q0 -4 3 -4h64q10 0 10 -10v-15zM380 246q5 0 5 4l28 187 q0 4 -3 4h-180q-5 0 -5 -4l-27 -187q0 -4 3 -4h179z" />
<glyph unicode="$" horiz-adv-x="479" d="M424 168q0 -77 -44 -124.5t-122 -51.5q-4 0 -4 -4v-64q0 -10 -10 -10h-11q-10 0 -10 10v65q0 4 -4 4q-72 8 -114.5 54t-42.5 119v29q0 10 10 10h18q10 0 10 -10v-25q0 -65 39.5 -104t105.5 -39q65 0 102.5 37t37.5 100q0 57 -35.5 92.5t-127.5 89.5q-44 27 -66 42.5 t-46 39.5t-33.5 51.5t-9.5 64.5q0 72 39 114t108 49q4 0 4 4v70q0 10 10 10h11q10 0 10 -10l-1 -69q0 -4 4 -4q78 -4 122 -51.5t44 -124.5v-26q0 -10 -10 -10h-19q-10 0 -10 10v23q0 65 -38 104.5t-105 39.5q-60 0 -95 -33.5t-35 -95.5q0 -56 31 -86.5t119 -81.5 q93 -54 130.5 -97.5t37.5 -110.5z" />
<glyph unicode="%" horiz-adv-x="823" d="M231 439q-56 0 -95 40t-39 96t39 95.5t95 39.5t95 -39.5t39 -95.5t-39 -96t-95 -40zM217 0q-5 0 -7.5 3.5t0.5 8.5l372 681q3 7 12 7h11q5 0 7.5 -3.5t-0.5 -8.5l-372 -681q-3 -7 -12 -7h-11zM231 468q43 0 74 31.5t31 75.5t-30.5 75t-74.5 31t-74.5 -31t-30.5 -75 q0 -45 30.5 -76t74.5 -31zM593 -10q-56 0 -95 40t-39 96t39 95.5t95 39.5q55 0 94.5 -39.5t39.5 -95.5t-39.5 -96t-94.5 -40zM593 19q43 0 74 31.5t31 75.5t-30.5 75t-74.5 31t-74.5 -31t-30.5 -75q0 -45 30.5 -76t74.5 -31z" />
<glyph unicode="&#x26;" horiz-adv-x="584" d="M521 12q7 -12 -7 -12h-21q-7 0 -13 6q-36 45 -61 79q-3 4 -6 1q-44 -51 -85 -72.5t-95 -21.5q-79 0 -125 41t-46 116q0 69 36.5 119.5t103.5 104.5q3 1 1 5q-58 80 -75 115t-17 72q0 65 38 104t101 39t102.5 -38t39.5 -101q0 -32 -10 -60t-32 -54t-40.5 -43t-50.5 -43 q-3 -1 -1 -5q7 -9 37 -49.5l50 -67.5q38 -48 71 -92q3 -5 6 0q12 16 58 85q5 8 13 3l14 -9q9 -6 3 -14q-39 -59 -67 -96q-1 -3 0 -6zM251 671q-46 0 -73.5 -28.5t-27.5 -78.5q0 -30 15 -60.5t65 -102.5q3 -4 6 -1q38 31 59.5 51.5t39.5 52.5t18 65q0 46 -28.5 74t-73.5 28z M237 27q45 1 80.5 21t74.5 68q2 3 0 6q-20 27 -42 57t-24 33q-92 124 -96 129q-2 3 -5 0q-60 -50 -92 -92.5t-32 -98.5q0 -59 36.5 -91.5t99.5 -31.5z" />
<glyph unicode="'" horiz-adv-x="105" d="M46 502q-10 0 -10 10l-5 175q0 10 10 10h22q10 0 10 -10l-4 -175q0 -10 -10 -10h-13z" />
<glyph unicode="(" horiz-adv-x="201" d="M94 -110q-8 0 -12 7q-39 74 -63 189t-24 236q0 125 24.5 243t65.5 193q4 7 12 7h17q5 0 7.5 -3.5t-0.5 -8.5q-36 -75 -58.5 -191.5t-22.5 -237.5q0 -119 22.5 -233.5t58.5 -188.5q5 -12 -7 -12h-20z" />
<glyph unicode=")" horiz-adv-x="201" d="M119 -103q-4 -7 -12 -7h-20q-12 0 -7 12q36 74 58.5 188.5t22.5 233.5q0 121 -22.5 237.5t-58.5 191.5q-3 5 -0.5 8.5t7.5 3.5h17q8 0 12 -7q41 -75 65.5 -193t24.5 -243q0 -121 -24 -236t-63 -189z" />
<glyph unicode="*" horiz-adv-x="378" d="M184 393q-10 0 -10 10v136q0 5 -5 3l-116 -70q-8 -6 -14 4l-4 8q-5 9 3 14l116 69q2 1 2 3t-2 3l-116 69q-8 5 -3 14l4 8q6 10 14 4l116 -69q5 -3 5 3v135q0 10 10 10h10q10 0 10 -10v-135q0 -6 5 -3l116 69q8 6 14 -4l5 -8q5 -8 -4 -14l-116 -69q-2 -1 -2 -3t2 -3 l116 -69q9 -6 4 -14l-5 -8q-5 -10 -14 -4l-116 70q-5 2 -5 -3v-136q0 -10 -10 -10h-10z" />
<glyph unicode="+" d="M425 337q10 0 10 -10v-13q0 -10 -10 -10h-167q-4 0 -4 -4v-165q0 -10 -10 -10h-13q-10 0 -10 10v165q0 4 -4 4h-167q-10 0 -10 10v13q0 10 10 10h167q4 0 4 4v169q0 10 10 10h13q10 0 10 -10v-169q0 -4 4 -4h167z" />
<glyph unicode="," horiz-adv-x="213" d="M69 -71q-11 0 -9 11l43 205q1 9 11 9h16q11 0 9 -11l-47 -205q-2 -9 -11 -9h-12z" />
<glyph unicode="-" horiz-adv-x="346" d="M50 300q-10 0 -10 10v15q0 10 10 10h247q10 0 10 -10v-15q0 -10 -10 -10h-247z" />
<glyph unicode="." horiz-adv-x="229" d="M113 5q-19 0 -32 14t-13 34q0 19 13.5 33t31.5 14t31.5 -14t13.5 -33q0 -20 -13.5 -34t-31.5 -14z" />
<glyph unicode="/" horiz-adv-x="288" d="M42 0q-12 0 -9 11l184 680q2 9 11 9h18q12 0 9 -11l-184 -680q-2 -9 -11 -9h-18z" />
<glyph unicode="0" horiz-adv-x="481" d="M239 -9q-80 0 -128.5 49t-48.5 130v360q0 81 48.5 130t128.5 49q81 0 130.5 -49t49.5 -130v-360q0 -81 -49.5 -130t-130.5 -49zM239 26q64 0 102.5 38.5t38.5 102.5v366q0 64 -38.5 102.5t-102.5 38.5q-62 0 -100 -38.5t-38 -102.5v-366q0 -64 38 -102.5t100 -38.5z" />
<glyph unicode="1" horiz-adv-x="291" d="M158 697q6 3 13 3h22q10 0 10 -10v-680q0 -10 -10 -10h-19q-10 0 -10 10v640q0 6 -5 3l-102 -53q-12 -5 -12 7v13q0 7 7 12z" />
<glyph unicode="2" horiz-adv-x="455" d="M66 0q-10 0 -10 10v18q0 8 4 13q68 100 200 298q82 123 82 200q0 61 -34.5 97.5t-91.5 36.5q-55 0 -88.5 -36.5t-32.5 -96.5v-35q0 -10 -10 -10h-20q-10 0 -10 10v37q1 74 46 120t116 46q74 0 119 -46.5t45 -122.5q0 -90 -84 -216l-190 -283q-5 -5 3 -5h286q10 0 10 -10 v-15q0 -10 -10 -10h-330z" />
<glyph unicode="3" horiz-adv-x="450" d="M360 337q21 -49 21 -129q0 -60 -14 -105q-36 -111 -152 -111q-61 0 -101.5 33.5t-54.5 92.5q-7 30 -9 77q0 10 10 10h19q10 0 10 -10q2 -42 7 -65q10 -48 41 -75.5t78 -27.5q89 0 115 89q12 38 12 93q0 68 -17 113q-31 78 -110 78q-13 0 -23 -3q-9 -3 -14 3l-8 10 q-6 6 -1 14l160 236q5 5 -3 5h-263q-10 0 -10 10v15q0 10 10 10h306q10 0 10 -10v-18q0 -5 -4 -13l-152 -228q-5 -5 3 -5q98 0 134 -89z" />
<glyph unicode="4" horiz-adv-x="446" d="M390 234q10 0 10 -10v-15q0 -10 -10 -10h-36q-4 0 -4 -4v-185q0 -10 -10 -10h-19q-10 0 -10 10v185q0 4 -4 4h-256q-10 0 -10 10v16q0 7 2 12l187 455q3 8 11 8h20q13 0 8 -12l-183 -449q-2 -5 3 -5h218q4 0 4 4v176q0 10 10 10h19q10 0 10 -10v-176q0 -4 4 -4h36z" />
<glyph unicode="5" horiz-adv-x="449" d="M386 321q13 -55 13 -109q0 -52 -11 -93q-14 -61 -54.5 -94t-100.5 -33q-63 0 -103.5 34.5t-54.5 97.5q-4 22 -5 34q-2 10 9 10h19q10 0 11 -10q2 -16 4 -25q10 -50 41 -78t79 -28q47 0 78.5 28.5t41.5 79.5q7 32 7 76q0 46 -9 88q-9 47 -40 71.5t-78 24.5q-97 0 -122 -84 q-1 -9 -11 -9h-21q-10 0 -10 10v378q0 10 10 10h284q10 0 10 -10v-15q0 -10 -10 -10h-251q-4 0 -4 -4l-1 -287q0 -6 5 -1q42 58 126 58q56 0 95 -28t53 -82z" />
<glyph unicode="6" horiz-adv-x="450" d="M386 316q14 -37 14 -105q0 -61 -11 -91q-33 -128 -153 -128q-59 0 -99 32t-56 90q-12 41 -12 98v324q0 78 45.5 125t118.5 47q68 0 111 -46.5t43 -121.5v-7q0 -10 -10 -10h-19q-10 0 -10 9v9q0 58 -32.5 94.5t-83.5 36.5q-54 0 -89 -37.5t-35 -98.5v-178q0 -3 2 -3t3 3 q37 72 126 72q113 0 147 -114zM355 138q6 26 6 74q0 58 -9 86q-10 45 -40.5 71.5t-77.5 26.5t-77.5 -27t-40.5 -74q-8 -29 -8 -83q0 -48 6 -78q10 -49 41 -78t79 -29q46 0 78.5 28t42.5 83z" />
<glyph unicode="7" horiz-adv-x="405" d="M143 0q-11 0 -8 11l205 649q2 5 -4 5h-261q-4 0 -4 -4v-43q0 -10 -10 -10h-15q-10 0 -10 10v72q0 10 10 10h326q10 0 10 -10v-19q0 -2 -2 -12l-203 -651q-3 -8 -12 -8h-22z" />
<glyph unicode="8" horiz-adv-x="462" d="M308 379q-4 -3 0 -6q44 -21 67 -71q20 -46 20 -110t-22 -110q-41 -90 -144 -90t-144 93q-21 48 -21 108t20 105q22 52 68 75q5 3 0 5q-36 18 -59 52q-29 45 -29 104q0 56 24 99q44 76 142 76q99 0 141 -76q24 -39 24 -99q0 -61 -28 -103q-22 -34 -59 -52zM125 446 q35 -54 104 -54q74 0 107 59q21 33 21 82t-20 81q-34 60 -108 60t-108 -62q-18 -33 -18 -81q0 -49 22 -85zM338 99q18 41 18 95q0 50 -15 90q-30 75 -112 75q-80 0 -110 -75q-16 -40 -16 -91q0 -54 19 -95q29 -71 108 -71q77 0 108 72z" />
<glyph unicode="9" horiz-adv-x="455" d="M374 586q12 -41 12 -98v-324q0 -78 -45.5 -125t-118.5 -47q-68 0 -111 46.5t-43 121.5v7q0 10 10 10h19q10 0 10 -9v-9q0 -58 32.5 -94.5t83.5 -36.5q54 0 89 37.5t35 98.5v178q0 3 -1.5 3t-3.5 -3q-37 -72 -126 -72q-113 0 -147 114q-14 37 -14 105q0 61 11 91 q33 128 153 128q59 0 99 -32t56 -90zM221 304q47 0 77.5 27t40.5 74q8 29 8 83q0 48 -6 78q-10 49 -41 78t-79 29q-46 0 -78.5 -28t-42.5 -83q-6 -26 -6 -74q0 -58 9 -86q10 -45 40.5 -71.5t77.5 -26.5z" />
<glyph unicode=":" horiz-adv-x="254" d="M127 353q-19 0 -32 13.5t-13 33.5q0 19 13.5 33t31.5 14t31.5 -14t13.5 -33q0 -20 -13 -33.5t-32 -13.5zM127 12q-19 0 -32 14t-13 34q0 18 14 32t31 14q18 0 31.5 -13.5t13.5 -32.5q0 -20 -13 -34t-32 -14z" />
<glyph unicode=";" horiz-adv-x="242" d="M123 362q-19 0 -32 13.5t-13 33.5q0 19 13.5 33t31.5 14t31.5 -14t13.5 -33t-13.5 -33t-31.5 -14zM90 -65q-5 0 -8 3.5t-2 7.5l26 193q1 9 10 9h18q11 0 9 -11l-32 -193q-1 -9 -10 -9h-11z" />
<glyph unicode="&#x3c;" d="M435 69q0 -5 -3.5 -7.5t-8.5 0.5l-376 184q-7 4 -7 12v22q0 8 7 12l376 184q5 3 8.5 0.5t3.5 -7.5v-19q0 -8 -7 -12l-345 -166q-5 -3 0 -6l345 -166q7 -4 7 -12v-19z" />
<glyph unicode="=" d="M50 422q-10 0 -10 10v13q0 10 10 10h375q10 0 10 -10v-13q0 -10 -10 -10h-375zM50 207q-10 0 -10 10v13q0 10 10 10h375q10 0 10 -10v-13q0 -10 -10 -10h-375z" />
<glyph unicode="&#x3e;" d="M52 62q-5 -3 -8.5 -0.5t-3.5 7.5v19q0 8 7 12l345 166q4 3 0 6l-345 166q-7 4 -7 12v19q0 5 3.5 7.5t8.5 -0.5l376 -184q7 -4 7 -12v-22q0 -8 -7 -12z" />
<glyph unicode="?" horiz-adv-x="386" d="M167 190q-10 0 -10 10v70q0 29 11 53.5t27.5 40.5t35.5 35t35.5 36.5t27.5 45.5t11 62q0 59 -31 94.5t-81 35.5q-52 0 -83.5 -35.5t-31.5 -93.5v-37q0 -10 -10 -10l-19 1q-10 0 -10 10v36q0 74 42.5 119.5t111.5 45.5q68 0 109.5 -45.5t41.5 -121.5q0 -47 -15 -83 t-37 -58t-43.5 -40.5t-36.5 -41.5t-15 -50v-69q0 -10 -10 -10h-20zM179 4q-18 0 -30.5 13.5t-12.5 33.5q0 19 13 32t31 13t31 -13t13 -32t-13.5 -33t-31.5 -14z" />
<glyph unicode="@" horiz-adv-x="798" d="M440 599q145 0 226 -93.5t61 -240.5q-12 -90 -56 -141t-108 -51q-72 0 -97 57q-2 6 -5 1q-31 -59 -103 -59q-46 0 -73 27.5t-27 71.5q0 8 7 83q5 44 14 83q11 45 43 71.5t76 26.5q55 0 80 -40q3 -3 5 1l3 25q1 9 10 9h13q5 0 8 -3.5t2 -7.5l-28 -217q-5 -44 16 -71.5 t61 -27.5q47 0 81 42t45 118q19 137 -54.5 221t-203.5 84q-127 0 -226.5 -88.5t-108.5 -239.5q-10 -134 60 -218t194 -84q51 0 98 13t72 32q8 6 14 -2l6 -7q6 -8 -2 -14q-31 -23 -83.5 -37.5t-109.5 -14.5q-138 0 -215.5 93t-66.5 241q11 164 121 260.5t251 96.5zM365 102 q34 0 57.5 21t31.5 55q7 32 11 76q7 56 8 76q2 33 -17.5 54.5t-52.5 21.5q-34 0 -59 -21.5t-34 -54.5q-7 -25 -12 -76q-7 -58 -8 -76q-2 -34 19 -55t56 -21z" />
<glyph unicode="A" horiz-adv-x="506" d="M437 0q-9 0 -11 8l-38 138q-1 3 -5 3h-262q-4 0 -5 -3l-37 -137q-2 -9 -11 -9h-19q-12 0 -9 11l188 681q2 8 11 8h26q9 0 11 -8l189 -681q3 -11 -9 -11h-19zM127 186q-2 -4 4 -4h242q6 0 4 4l-123 451q-2 6 -4 0z" />
<glyph unicode="B" horiz-adv-x="535" d="M371 365q-5 -2 0 -5q103 -44 103 -173q0 -87 -49.5 -137t-133.5 -50h-184q-10 0 -10 10v680q0 10 10 10h179q84 0 133.5 -47.5t49.5 -131.5q0 -115 -98 -156zM140 665q-4 0 -4 -4v-278q0 -4 4 -4h146q67 0 105.5 37.5t38.5 102.5q0 68 -38.5 107t-105.5 39h-146zM290 36 q67 0 106 41.5t39 112.5q0 72 -40 113.5t-108 41.5h-147q-4 0 -4 -4v-301q0 -4 4 -4h150z" />
<glyph unicode="C" horiz-adv-x="522" d="M264 -8q-86 0 -138 51t-52 136v344q0 83 52 134t138 51t138.5 -50.5t52.5 -134.5v-10q0 -10 -10 -10l-20 -1q-10 0 -10 9v13q0 67 -41.5 108t-109.5 41t-109.5 -41t-41.5 -108v-348q0 -67 41.5 -108t109.5 -41t109.5 41t41.5 108v12q0 9 10 9l20 -1q10 0 10 -9v-9 q0 -84 -52.5 -135t-138.5 -51z" />
<glyph unicode="D" horiz-adv-x="539" d="M107 0q-10 0 -10 10v680q0 10 10 10h185q82 0 129.5 -49t47.5 -134v-334q0 -85 -47.5 -134t-129.5 -49h-185zM136 39q0 -4 4 -4h153q63 0 99.5 40t36.5 110v329q0 70 -36.5 110.5t-99.5 40.5h-153q-4 0 -4 -4v-622z" />
<glyph unicode="E" horiz-adv-x="520" d="M463 675q0 -10 -10 -10h-313q-4 0 -4 -4v-289q0 -4 4 -4h216q10 0 10 -10v-15q0 -10 -10 -10h-216q-4 0 -4 -4v-290q0 -4 4 -4h313q10 0 10 -10v-15q0 -10 -10 -10h-346q-10 0 -10 10v680q0 10 10 10h346q10 0 10 -10v-15z" />
<glyph unicode="F" horiz-adv-x="484" d="M462 675q0 -10 -10 -10h-312q-4 0 -4 -4v-289q0 -4 4 -4h215q10 0 10 -10v-15q0 -10 -10 -10h-215q-4 0 -4 -4v-319q0 -10 -10 -10h-19q-10 0 -10 10v680q0 10 10 10h345q10 0 10 -10v-15z" />
<glyph unicode="G" horiz-adv-x="521" d="M264 -8q-86 0 -138 50.5t-52 132.5v350q0 82 52 132.5t138 50.5q85 0 137.5 -50t52.5 -131v-30q0 -10 -10 -10h-19q-10 0 -10 10v30q0 65 -41.5 105.5t-109.5 40.5t-109.5 -40.5t-41.5 -106.5v-352q0 -66 42 -106.5t110 -40.5q67 0 108.5 40t41.5 105v130q0 4 -4 4h-131 q-10 0 -10 10v16q0 10 10 10h164q10 0 10 -10v-156q0 -84 -52 -134t-138 -50z" />
<glyph unicode="H" horiz-adv-x="567" d="M432 690q0 10 10 10h19q10 0 10 -10v-680q0 -10 -10 -10h-19q-10 0 -10 10v319q0 4 -4 4h-288q-4 0 -4 -4v-319q0 -10 -10 -10h-19q-10 0 -10 10v680q0 10 10 10h19q10 0 10 -10v-318q0 -4 4 -4h288q4 0 4 4v318z" />
<glyph unicode="I" horiz-adv-x="232" d="M107 0q-10 0 -10 10v680q0 10 10 10h19q10 0 10 -10v-680q0 -10 -10 -10h-19z" />
<glyph unicode="J" horiz-adv-x="494" d="M214 -8q-83 0 -133.5 49.5t-50.5 131.5v70q0 10 10 10h19q10 0 10 -10v-71q0 -65 40 -105t105 -40t105 40t40 105v518q0 10 10 10h19q10 0 10 -10v-517q0 -82 -50.5 -131.5t-133.5 -49.5z" />
<glyph unicode="K" horiz-adv-x="519" d="M107 0q-10 0 -10 10v680q0 10 10 10h19q10 0 10 -10v-360q0 -2 2 -3t3 1l287 366q4 6 13 6h22q6 0 8 -4t-2 -8l-206 -268q-1 -3 0 -6l227 -402q7 -12 -7 -12h-24q-7 0 -12 7l-212 375q-2 5 -5 0l-92 -113q-2 -4 -2 -5v-254q0 -10 -10 -10h-19z" />
<glyph unicode="L" d="M107 0q-10 0 -10 10v680q0 10 10 10h19q10 0 10 -10v-651q0 -4 4 -4h300q10 0 10 -10v-15q0 -10 -10 -10h-333z" />
<glyph unicode="M" horiz-adv-x="611" d="M107 0q-10 0 -10 10v680q0 10 10 10h20q9 0 12 -7l163 -318q1 -2 3 -2t3 2l164 318q3 7 12 7h21q10 0 10 -10v-680q0 -10 -10 -10h-19q-10 0 -10 10v598q-1 4 -5 1l-148 -286q-3 -7 -12 -7h-9q-9 0 -12 7l-149 286q-3 3 -5 -1v-598q0 -10 -10 -10h-19z" />
<glyph unicode="N" horiz-adv-x="582" d="M107 0q-10 0 -10 10v680q0 10 10 10h20q9 0 12 -7l303 -599q3 -2 5 2v594q0 10 10 10h19q10 0 10 -10v-680q0 -10 -10 -10h-21q-9 0 -12 7l-303 599q-3 2 -5 -2l1 -594q0 -10 -10 -10h-19z" />
<glyph unicode="O" horiz-adv-x="535" d="M267 -8q-86 0 -139.5 53.5t-53.5 139.5v329q0 87 53.5 140.5t139.5 53.5t140 -53.5t54 -140.5v-329q0 -86 -54 -139.5t-140 -53.5zM267 27q69 0 112 43.5t43 113.5v331q0 70 -43 114t-112 44t-111.5 -43.5t-42.5 -114.5v-331q0 -70 42.5 -113.5t111.5 -43.5z" />
<glyph unicode="P" horiz-adv-x="510" d="M303 702q75 0 121 -51.5t46 -135.5q0 -83 -46 -133.5t-121 -50.5h-168q-4 0 -4 -4v-317q0 -10 -10 -10h-19q-10 0 -10 10v682q0 10 10 10h201zM300 365q59 0 95 41t36 109t-36 109.5t-95 41.5h-165q-4 0 -4 -4v-293q0 -4 4 -4h165z" />
<glyph unicode="Q" horiz-adv-x="502" d="M251 708q83 0 134 -52.5t51 -137.5v-336q0 -79 -43.5 -130t-117.5 -59q-4 0 -4 -4v-102q0 -10 -10 -10h-20q-10 0 -10 10v102q0 4 -4 4q-74 8 -118 59.5t-44 129.5v336q0 85 51.5 137.5t134.5 52.5zM397 180v340q0 68 -40 110.5t-106 42.5q-65 0 -106 -42.5t-41 -110.5 v-340q0 -68 41 -110.5t106 -42.5q66 0 106 42.5t40 110.5z" />
<glyph unicode="R" horiz-adv-x="521" d="M448 0q-8 0 -11 8l-138 325q-1 3 -4 3h-155q-4 0 -4 -4v-322q0 -10 -10 -10h-19q-10 0 -10 10v682q0 10 10 10h196q75 0 121 -51t46 -134q0 -71 -35 -118.5t-96 -58.5q-4 -2 -2 -5l137 -323q5 -12 -8 -12h-18zM140 666q-4 0 -4 -4v-288q0 -4 4 -4h161q58 0 94 40.5 t36 106.5q0 67 -35.5 108t-94.5 41h-161z" />
<glyph unicode="S" horiz-adv-x="499" d="M255 -8q-88 0 -140.5 48t-52.5 127v28q0 10 10 10h18q10 0 10 -10v-25q0 -65 42.5 -104t113.5 -39q69 0 109 36.5t40 99.5q0 58 -36.5 94t-128.5 86q-49 27 -72.5 42t-51 40t-38 53t-10.5 66q0 78 48 121t130 43q89 0 140.5 -48.5t51.5 -128.5v-25q0 -10 -10 -10h-19 q-10 0 -10 10v23q0 65 -41 104.5t-113 39.5q-65 0 -101.5 -33.5t-36.5 -95.5q0 -56 32.5 -87.5t122.5 -79.5q51 -29 80 -48t55 -44t36.5 -53t10.5 -64q0 -80 -50.5 -128t-138.5 -48z" />
<glyph unicode="T" horiz-adv-x="482" d="M428 700q10 0 10 -10v-15q0 -10 -10 -10h-168q-4 0 -4 -4v-651q0 -10 -10 -10h-19q-10 0 -10 10v651q0 4 -4 4h-159q-10 0 -10 10v15q0 10 10 10h374z" />
<glyph unicode="U" horiz-adv-x="566" d="M282 -8q-87 0 -140 55.5t-53 146.5v496q0 10 10 10h19q10 0 10 -10v-500q0 -73 42.5 -118t111.5 -45q70 0 112.5 45t42.5 118v500q0 10 10 10h19q10 0 10 -10v-496q0 -91 -53 -146.5t-141 -55.5z" />
<glyph unicode="V" horiz-adv-x="495" d="M236 0q-9 0 -11 9l-185 680q-3 11 9 11h20q9 0 11 -9l166 -620q2 -6 4 0l166 620q2 9 11 9h19q12 0 9 -11l-186 -680q-2 -9 -11 -9h-22z" />
<glyph unicode="W" horiz-adv-x="735" d="M206 0q-10 0 -11 9l-164 680q-3 11 8 11h21q9 0 11 -9l143 -604q1 -3 2.5 -3t2.5 3l127 604q2 9 11 9h21q10 0 11 -9l131 -604q2 -8 4 0l140 604q2 9 11 9h20q12 0 8 -11l-161 -680q-2 -9 -11 -9h-20q-9 0 -11 9l-130 608q-2 8 -4 0l-130 -608q-2 -9 -11 -9h-19z" />
<glyph unicode="X" horiz-adv-x="492" d="M51 0q-6 0 -8.5 3.5t0.5 8.5l181 335q2 3 0 6l-181 335q-3 5 -0.5 8.5t8.5 3.5h21q9 0 12 -7l160 -305q1 -2 3 -2t3 2l158 305q3 7 12 7h21q6 0 8.5 -3.5t-0.5 -8.5l-181 -336q-2 -3 0 -6l181 -334q3 -5 0.5 -8.5t-8.5 -3.5h-21q-9 0 -12 7l-158 304q-1 2 -3 2t-3 -2 l-160 -304q-3 -7 -12 -7h-21z" />
<glyph unicode="Y" horiz-adv-x="473" d="M227 0q-10 0 -10 10v316q0 4 -1 5l-173 357q-5 12 7 12h20q9 0 12 -7l152 -319q1 -2 3 -2t3 2l150 319q3 7 12 7h20q12 0 7 -12l-172 -357q-1 -1 -1 -5v-316q0 -10 -10 -10h-19z" />
<glyph unicode="Z" horiz-adv-x="466" d="M55 0q-10 0 -10 10v19q0 5 3 13l321 618q2 5 -3 5h-311q-10 0 -10 10v15q0 10 10 10h349q10 0 10 -10v-19q0 -6 -3 -13l-321 -618q-2 -5 3 -5h311q10 0 10 -10v-15q0 -10 -10 -10h-349z" />
<glyph unicode="[" horiz-adv-x="323" d="M38 -109q-10 0 -10 10v851q0 10 10 10h151q10 0 10 -10v-15q0 -10 -10 -10h-118q-4 0 -4 -4v-793q0 -4 4 -4h119q10 0 10 -10v-15q0 -10 -10 -10h-152z" />
<glyph unicode="\" horiz-adv-x="288" d="M255 11q3 -11 -9 -11h-18q-9 0 -11 9l-184 680q-3 11 9 11h18q9 0 11 -9z" />
<glyph unicode="]" horiz-adv-x="323" d="M295 -99q0 -10 -10 -10h-152q-10 0 -10 10v15q0 10 10 10h119q4 0 4 4v793q0 4 -4 4h-118q-10 0 -10 10v15q0 10 10 10h151q10 0 10 -10v-851z" />
<glyph unicode="^" horiz-adv-x="412" d="M52 312q-11 0 -8 12l140 368q3 8 11 8h22q8 0 11 -8l140 -368q3 -12 -8 -12h-16q-8 0 -11 8l-124 334q-1 3 -3 3t-3 -3l-124 -334q-3 -8 -11 -8h-16z" />
<glyph unicode="_" horiz-adv-x="411" d="M40 0q-10 0 -10 10v14q0 10 10 10h331q10 0 10 -10v-14q0 -10 -10 -10h-331z" />
<glyph unicode="`" horiz-adv-x="172" d="M136 591q7 -12 -7 -12h-14q-7 0 -12 7l-66 111q-7 12 7 12h18q7 0 12 -7z" />
<glyph unicode="a" horiz-adv-x="449" d="M226 510q76 0 116 -45t40 -121v-334q0 -10 -10 -10h-19q-10 0 -10 10v45q0 2 -1.5 3t-3.5 -1q-45 -65 -142 -65q-61 0 -103 32.5t-42 105.5q0 77 49.5 117.5t134.5 40.5h104q4 0 4 4v52q0 60 -29.5 95.5t-88.5 35.5q-46 0 -77.5 -23t-38.5 -61q-2 -11 -11 -9l-20 2 q-10 2 -9 10q7 52 50.5 84t106.5 32zM202 27q57 0 99 31.5t42 89.5v103q0 4 -4 4h-102q-66 0 -106 -31.5t-40 -90.5q0 -53 31 -79.5t80 -26.5z" />
<glyph unicode="b" horiz-adv-x="474" d="M404 370q4 -35 4 -120q0 -83 -5 -119q-8 -63 -49 -101t-104 -38q-85 0 -124 68q-2 3 -3.5 2.5t-1.5 -3.5v-49q0 -10 -10 -10h-19q-10 0 -10 10v680q0 10 10 10h19q10 0 10 -10v-247q0 -3 1.5 -3.5t3.5 2.5q38 68 123 68q64 0 105.5 -38t49.5 -102zM365 137q4 40 4 114 q0 79 -5 115q-6 48 -39.5 78.5t-82.5 30.5t-80 -30.5t-36 -79.5q-5 -36 -5 -114t5 -114q5 -48 36 -79t80 -31q50 0 84 30.5t39 79.5z" />
<glyph unicode="c" horiz-adv-x="450" d="M234 -8q-66 0 -109.5 39t-51.5 101q-6 42 -6 120q0 67 6 118q8 62 51.5 101t109.5 39t111 -36.5t52 -89.5l3 -15q0 -11 -9 -11l-19 -1q-10 0 -11 9q0 7 -1 9q-5 41 -39.5 70.5t-86.5 29.5t-85.5 -31.5t-38.5 -81.5q-4 -58 -4 -111t4 -111q5 -51 38.5 -82t85.5 -31 q49 0 84 27.5t41 66.5q1 4 1 12q0 1 1 2.5t4 3.5t6 2l19 -1q9 0 9 -11l-1 -10q-6 -54 -51.5 -90.5t-112.5 -36.5z" />
<glyph unicode="d" horiz-adv-x="474" d="M353 690q0 10 10 10h19q10 0 10 -10v-680q0 -10 -10 -10h-19q-10 0 -10 10v49q0 3 -1.5 3.5t-3.5 -2.5q-39 -68 -124 -68q-63 0 -104 38t-49 101q-5 36 -5 119q0 85 4 120q8 64 49.5 102t105.5 38q85 0 123 -68q2 -3 3.5 -2.5t1.5 3.5v247zM348 137q5 36 5 114t-5 114 q-5 49 -36 79.5t-80 30.5t-82.5 -30.5t-39.5 -78.5q-5 -36 -5 -115q0 -74 4 -114q5 -49 39 -79.5t84 -30.5q49 0 80 31t36 79z" />
<glyph unicode="e" horiz-adv-x="461" d="M234 27q45 0 77.5 23t44.5 62q3 9 12 7l16 -2q10 -2 7 -12q-15 -51 -56.5 -82t-101.5 -31q-66 0 -109 38t-51 100q-6 35 -6 122q0 83 4 117q7 63 51 102t110 39q70 0 114 -40.5t50 -105.5q4 -43 4 -114q0 -10 -10 -10h-280q-4 0 -4 -4q0 -70 2 -96q5 -51 39.5 -82 t86.5 -31zM232 475q-51 0 -85 -31.5t-39 -81.5q-2 -23 -2 -85q0 -4 4 -4h247q4 0 4 4q0 49 -3 85q-5 50 -39.5 81.5t-86.5 31.5z" />
<glyph unicode="f" horiz-adv-x="305" d="M235 669q-54 0 -73.5 -30.5t-19.5 -96.5v-36q0 -4 4 -4h103q10 0 10 -10v-14q0 -10 -10 -10h-103q-4 0 -4 -4v-454q0 -10 -10 -10h-18q-10 0 -10 10v454q0 4 -4 4h-55q-10 0 -10 10v14q0 10 10 10h55q4 0 4 4v37q0 83 28.5 122t101.5 39h19q10 0 10 -10v-15 q0 -10 -10 -10h-18z" />
<glyph unicode="g" horiz-adv-x="463" d="M353 492q0 10 10 10h20q10 0 10 -10v-487q0 -211 -216 -205q-10 0 -10 10v16q0 10 10 10q92 -1 134 41.5t42 128.5v52q-1 4 -5 1q-39 -65 -122 -65q-63 0 -105.5 38t-50.5 101q-5 40 -5 117q0 80 5 121q8 62 50 100.5t105 38.5q84 0 123 -66q3 -3 5 1v47zM351 142 q2 27 2 106v6q0 79 -2 108q-4 49 -36 81t-83 32q-50 0 -83.5 -32t-40.5 -81q-4 -58 -4 -110q0 -60 4 -110q5 -49 39.5 -81t85.5 -32t82.5 32t35.5 81z" />
<glyph unicode="h" d="M252 509q68 0 108 -43.5t40 -117.5v-338q0 -10 -10 -10h-19q-10 0 -10 10v333q0 60 -32 95.5t-86 35.5q-55 0 -88.5 -36.5t-33.5 -97.5v-330q0 -10 -10 -10h-19q-10 0 -10 10v680q0 10 10 10h19q10 0 10 -10v-246q0 -8 4 -2q40 67 127 67z" />
<glyph unicode="i" horiz-adv-x="214" d="M108 612q-16 0 -26.5 11t-10.5 27q0 15 10.5 25.5t26.5 10.5t26 -10.5t10 -25.5q0 -17 -10 -27.5t-26 -10.5zM98 0q-10 0 -10 10v482q0 10 10 10h19q10 0 10 -10v-482q0 -10 -10 -10h-19z" />
<glyph unicode="j" horiz-adv-x="203" d="M102 612q-16 0 -26.5 10t-10.5 27t10.5 27t26.5 10q17 0 27.5 -10t10.5 -27t-10.5 -27t-27.5 -10zM-11 -210q-10 0 -10 10v15q0 10 10 10q45 2 69 31.5t24 79.5v556q0 10 10 10h19q10 0 10 -10v-555q0 -143 -132 -147z" />
<glyph unicode="k" horiz-adv-x="435" d="M92 0q-10 0 -10 10v680q0 10 10 10h19q10 0 10 -10v-437q0 -2 1.5 -3t3.5 1l211 245q5 6 12 6h23q6 0 8 -4t-2 -8l-111 -130q-2 -4 -1 -5l134 -343q5 -12 -7 -12h-21q-8 0 -11 8l-121 316q-2 7 -6 1l-111 -130q-2 -4 -2 -5v-180q0 -10 -10 -10h-19z" />
<glyph unicode="l" horiz-adv-x="196" d="M89 0q-10 0 -10 10v680q0 10 10 10h19q10 0 10 -10v-680q0 -10 -10 -10h-19z" />
<glyph unicode="m" horiz-adv-x="731" d="M516 509q64 0 102.5 -44t38.5 -118v-337q0 -10 -10 -10h-19q-10 0 -10 10v331q0 61 -31 97t-81 36q-53 0 -85 -35.5t-32 -95.5v-333q0 -10 -10 -10h-19q-10 0 -10 10v331q0 61 -31 97t-81 36q-53 0 -85 -35.5t-32 -95.5v-333q0 -10 -10 -10h-19q-10 0 -10 10v482 q0 10 10 10h19q10 0 10 -10v-45q1 -4 5 -1q37 63 122 63q93 0 128 -86q2 -5 5 1q34 85 135 85z" />
<glyph unicode="n" d="M252 509q68 0 108 -43.5t40 -117.5v-338q0 -10 -10 -10h-19q-10 0 -10 10v333q0 60 -32 95.5t-86 35.5q-55 0 -88.5 -36.5t-33.5 -97.5v-330q0 -10 -10 -10h-19q-10 0 -10 10v482q0 10 10 10h19q10 0 10 -10v-48q0 -8 4 -2q40 67 127 67z" />
<glyph unicode="o" horiz-adv-x="468" d="M234 -8q-67 0 -111 38.5t-52 101.5q-4 35 -4 120q0 84 4 118q8 63 52 101.5t111 38.5q66 0 110.5 -38.5t52.5 -101.5q4 -35 4 -119t-4 -119q-8 -63 -52.5 -101.5t-110.5 -38.5zM234 27q51 0 85.5 31.5t39.5 81.5q3 30 3 111q0 82 -3 111q-5 50 -39.5 81.5t-86.5 31.5 q-51 0 -85 -31.5t-39 -81.5q-3 -30 -3 -111t3 -111q5 -51 39 -82t86 -31z" />
<glyph unicode="p" horiz-adv-x="481" d="M410 371q5 -36 5 -119q0 -85 -4 -120q-8 -64 -49.5 -102t-105.5 -38q-85 0 -123 68q-1 3 -3 2.5t-2 -3.5v-247q0 -10 -10 -10h-19q-10 0 -10 10v680q0 10 10 10h19q10 0 10 -10v-49q0 -3 2 -3.5t3 2.5q39 68 124 68q63 0 104 -38t49 -101zM371 136q5 36 5 115 q0 74 -4 114q-5 49 -39 79.5t-84 30.5q-49 0 -80 -31t-36 -79q-5 -36 -5 -114t5 -114q5 -49 36 -79.5t80 -30.5t82.5 30.5t39.5 78.5z" />
<glyph unicode="q" horiz-adv-x="481" d="M353 492q0 10 10 10h19q10 0 10 -10v-680q0 -10 -10 -10h-19q-10 0 -10 10v247q0 3 -1.5 3.5t-3.5 -2.5q-38 -68 -123 -68q-64 0 -105.5 38t-49.5 102q-4 35 -4 120q0 83 5 119q8 63 49 101t104 38q85 0 124 -68q2 -3 3.5 -2.5t1.5 3.5v49zM348 137q5 36 5 114t-5 114 q-5 48 -36 79t-80 31q-50 0 -84 -30.5t-39 -79.5q-4 -40 -4 -114q0 -79 5 -115q6 -48 39.5 -78.5t82.5 -30.5t80 30.5t36 79.5z" />
<glyph unicode="r" horiz-adv-x="317" d="M244 506q30 0 50 -11q9 -4 5 -13l-7 -20q-3 -9 -12 -5q-18 8 -43 7q-50 -1 -83 -44t-33 -105v-305q0 -10 -10 -10h-19q-10 0 -10 10v482q0 10 10 10h19q10 0 10 -10v-69q0 -3 2 -3l2 2q38 84 119 84z" />
<glyph unicode="s" horiz-adv-x="416" d="M215 -4q-70 0 -114 36t-44 90v9q0 10 10 10h18q10 0 10 -9v-10q0 -39 33 -66t86 -27q52 0 84 27.5t32 71.5q0 24 -9 41t-32 30.5t-37 19.5t-48 18q-35 12 -54.5 20.5t-43.5 25t-35 39.5t-11 54q0 59 42 94.5t110 35.5q69 0 111.5 -36.5t42.5 -92.5v-3q0 -10 -10 -10h-18 q-10 0 -10 7v6q0 41 -32 68.5t-85 27.5q-51 0 -82 -26.5t-31 -68.5q0 -22 8.5 -39t28 -29.5t36 -19.5t46.5 -18q31 -11 44.5 -16t39 -18.5t37 -26t21.5 -34.5t10 -48q0 -59 -42.5 -96t-111.5 -37z" />
<glyph unicode="t" horiz-adv-x="306" d="M256 479q0 -10 -10 -10h-101q-4 0 -4 -4v-334q0 -54 21.5 -75t67.5 -20h16q10 0 10 -10v-16q0 -10 -10 -10h-21q-60 0 -91.5 26.5t-31.5 97.5v341q0 4 -4 4h-51q-10 0 -10 10v13q0 10 10 10h51q4 0 4 4v113q0 10 10 10h19q10 0 10 -10v-113q0 -4 4 -4h101q10 0 10 -10 v-13z" />
<glyph unicode="u" horiz-adv-x="474" d="M353 492q0 10 10 10h19q10 0 10 -10v-482q0 -10 -10 -10h-19q-10 0 -10 10v46q0 3 -1.5 3.5t-3.5 -1.5q-38 -65 -124 -65q-68 0 -109 40.5t-41 114.5v344q0 10 10 10h19q10 0 10 -10v-335q0 -61 31.5 -95t86.5 -34t88.5 36.5t33.5 97.5v330z" />
<glyph unicode="v" horiz-adv-x="404" d="M191 0q-9 0 -12 8l-146 483q-3 11 9 11h22q8 0 11 -8l124 -430q1 -2 3 -2t3 2l124 430q3 8 11 8h22q12 0 9 -11l-145 -483q-3 -8 -12 -8h-23z" />
<glyph unicode="w" horiz-adv-x="610" d="M166 0q-10 0 -11 9l-122 482q-3 11 8 11h19q9 0 11 -9l104 -433q2 -8 4 0l104 433q2 9 11 9h19q9 0 11 -9l106 -432q2 -8 4 0l105 432q1 9 11 9h19q11 0 8 -11l-124 -482q-1 -9 -11 -9h-20q-10 0 -11 9l-106 417q-2 8 -4 0l-103 -417q-2 -9 -11 -9h-21z" />
<glyph unicode="x" horiz-adv-x="398" d="M36 0q-14 0 -7 12l147 236q2 3 0 6l-147 236q-7 12 7 12h22q7 0 12 -7l126 -208q1 -1 3 -1t3 1l126 208q5 7 12 7h22q14 0 7 -12l-147 -236q-2 -3 0 -6l147 -236q7 -12 -7 -12h-21q-7 0 -12 7l-126 208q-1 1 -3 1t-3 -1l-127 -208q-5 -7 -12 -7h-22z" />
<glyph unicode="y" horiz-adv-x="391" d="M54 -200q-7 0 -7 10v15q0 10 7 10h6q48 1 68 30t48 132v6l-151 488q-3 11 9 11h20q8 0 11 -8l129 -435q1 -2 3 -2t3 2l126 435q3 8 11 8h20q12 0 9 -11l-167 -547q-28 -91 -54.5 -117.5t-84.5 -26.5h-6z" />
<glyph unicode="z" horiz-adv-x="397" d="M49 0q-10 0 -10 10v19q0 5 4 13l268 419q5 5 -3 5h-256q-10 0 -10 10v16q0 10 10 10h297q10 0 10 -10v-19q0 -5 -4 -13l-269 -419q-5 -5 3 -5h258q10 0 10 -10v-16q0 -10 -10 -10h-298z" />
<glyph unicode="{" horiz-adv-x="255" d="M174 -109q-47 0 -68.5 25.5t-21.5 83.5v222q0 80 -47 90q-9 2 -9 10v16q0 8 9 10q47 10 47 90v215q0 58 21.5 83.5t68.5 25.5h43q10 0 10 -10v-15q0 -10 -10 -10h-36q-30 0 -44 -18.5t-14 -60.5v-208q0 -85 -44 -107q-5 -2 0 -5q44 -25 44 -108v-215q0 -42 14 -60.5 t44 -18.5h36q10 0 10 -10v-15q0 -10 -10 -10h-43z" />
<glyph unicode="|" horiz-adv-x="137" d="M59 -80q-10 0 -10 10v820q0 10 10 10h19q10 0 10 -10v-820q0 -10 -10 -10h-19z" />
<glyph unicode="}" horiz-adv-x="255" d="M81 -109h-43q-10 0 -10 10v15q0 10 10 10h36q30 0 44 18.5t14 60.5v215q0 83 44 108q5 3 0 5q-44 21 -44 107v208q0 42 -14 60.5t-44 18.5h-36q-10 0 -10 10v15q0 10 10 10h43q47 0 68.5 -25.5t21.5 -83.5v-215q0 -80 47 -90q9 -2 9 -10v-16q0 -8 -9 -10q-47 -10 -47 -90 v-222q0 -58 -21.5 -83.5t-68.5 -25.5z" />
<glyph unicode="~" horiz-adv-x="467" d="M328 246q-13 0 -27 2.5t-20.5 4.5t-22.5 9.5t-17 8.5t-19 11q-42 24 -74 24q-49 0 -78 -42q-5 -9 -13 -4l-9 6q-8 6 -4 13q31 63 103 63q37 0 85 -26l10 -6q9 -6 10.5 -6.5t10 -5t12 -5.5t11 -4t13 -4t13.5 -2t16 -1q35 0 67 41q6 7 14 2l10 -7q7 -6 3 -13 q-38 -59 -94 -59z" />
<glyph unicode="&#xa1;" horiz-adv-x="277" d="M136 708q19 0 32 -14t13 -34q0 -19 -13.5 -33t-31.5 -14q-17 0 -30.5 14t-13.5 33q0 20 12.5 34t31.5 14zM121 479q0 10 10 10h15q10 0 10 -10l2 -457q0 -10 -10 -10h-19q-10 0 -10 10z" />
<glyph unicode="&#xa2;" horiz-adv-x="450" d="M359 211q1 4 1 12q0 1 1 2.5t4 3.5t6 2l19 -1q9 0 9 -11l-1 -10q-6 -50 -47 -86t-102 -41q-4 0 -4 -4l1 -68q0 -10 -10 -10h-16q-10 0 -10 10l1 69q0 4 -4 5q-56 8 -91.5 45t-42.5 93q-6 42 -6 120q0 67 6 118q7 56 42.5 93t91.5 45q4 1 4 5l-1 69q0 10 10 10h16 q10 0 10 -10l-1 -68q0 -4 4 -4q60 -5 100.5 -40.5t47.5 -85.5l3 -15q0 -11 -9 -11l-19 -1q-10 0 -11 9q0 7 -1 9q-5 41 -39.5 70.5t-86.5 29.5t-85.5 -31.5t-38.5 -81.5q-4 -58 -4 -111t4 -111q5 -51 38.5 -82t85.5 -31q49 0 84 27.5t41 66.5z" />
<glyph unicode="&#xa3;" horiz-adv-x="550" d="M176 39q-5 -5 2 -5h324q10 0 10 -10v-14q0 -10 -10 -10h-368q-10 0 -10 10v16q0 8 7 12q22 16 35.5 52t13.5 81v143q0 4 -4 4h-69q-10 0 -10 10v13q0 10 10 10h69q4 0 4 4v167q0 84 43 133t119 53q121 6 158 -121q3 -10 -7 -12l-17 -4q-10 -2 -13 8q-28 98 -120 95 q-60 -3 -92.5 -42.5t-32.5 -109.5v-167q0 -4 4 -4h172q10 0 10 -10v-13q0 -10 -10 -10h-172q-4 0 -4 -4v-141q0 -89 -42 -134z" />
<glyph unicode="&#xa4;" horiz-adv-x="491" d="M431 300q0 -66 -41 -116q-2 -3 1 -6l64 -64q7 -6 -1 -14l-12 -10q-7 -6 -14 1l-63 62q-4 2 -6 1q-50 -41 -117 -41q-63 0 -114 38q-3 2 -6 -1l-59 -59q-7 -7 -14 -1l-12 10q-8 8 0 14l60 59q3 3 0 6q-45 53 -45 121q0 66 42 118q2 3 -1 6l-64 64q-7 6 1 14l12 10 q7 6 14 -1l62 -62q3 -3 6 -1q50 41 118 41q67 0 121 -44q3 -3 6 0l66 66q7 7 14 1l12 -10q7 -8 1 -14l-69 -68q-3 -2 -1 -6q39 -48 39 -114zM89 300q0 -63 45 -107.5t108 -44.5t108 44.5t45 107.5q0 64 -45 109t-108 45t-108 -45t-45 -109z" />
<glyph unicode="&#xa5;" horiz-adv-x="605" d="M486 700q12 0 7 -12l-165 -341q-2 -5 3 -5h134q10 0 10 -10v-8q0 -10 -10 -10h-141q-4 0 -4 -4v-87q0 -4 4 -4h141q10 0 10 -10v-8q0 -10 -10 -10h-141q-4 0 -4 -4v-177q0 -10 -10 -10h-19q-10 0 -10 10v177q0 4 -4 4h-140q-10 0 -10 10v8q0 10 10 10h140q4 0 4 4v87 q0 4 -4 4h-140q-10 0 -10 10v8q0 10 10 10h133q5 0 3 5l-166 341q-5 12 7 12h20q9 0 12 -7l152 -319q1 -2 3 -2t3 2l150 319q3 7 12 7h20z" />
<glyph unicode="&#xa6;" horiz-adv-x="137" d="M59 391q-10 0 -10 10v349q0 10 10 10h19q10 0 10 -10v-349q0 -10 -10 -10h-19zM59 -80q-10 0 -10 10v345q0 10 10 10h19q10 0 10 -10v-345q0 -10 -10 -10h-19z" />
<glyph unicode="&#xa7;" horiz-adv-x="408" d="M207 -207q-61 0 -98 43t-37 114v14q0 10 10 10h19q10 0 10 -10v-11q1 -57 27.5 -91t69.5 -34q44 0 72 34t28 85q0 31 -10.5 54.5t-33 38.5t-36.5 22t-40 16q-40 14 -65.5 30.5t-41.5 49.5q-19 37 -19 87t24 95q28 49 77 62q7 0 1 4q-41 17 -68 57.5t-27 92.5 q0 64 38.5 108t100.5 44q60 0 97.5 -43t38.5 -111v-12q0 -10 -10 -10h-19q-10 0 -10 10v11q0 52 -27.5 86t-69.5 34q-45 0 -72.5 -35t-27.5 -87t30 -82.5t89 -50.5q71 -27 98 -65q28 -40 28 -101q0 -56 -22 -98q-26 -50 -75 -62q-2 0 -3 -1q-2 -1 2 -2q41 -18 66.5 -55 t25.5 -90q0 -65 -39 -108t-101 -43zM207 118q63 0 91 54q16 34 16 77q0 53 -24 85q-33 43 -83 43q-60 0 -90 -60q-15 -29 -15 -73t15 -73q29 -53 90 -53z" />
<glyph unicode="&#xa8;" horiz-adv-x="264" d="M65 609q-15 0 -25 10.5t-10 25.5t10 25t25 10t24.5 -10t9.5 -25t-9.5 -25.5t-24.5 -10.5zM201 609q-15 0 -25 10.5t-10 25.5t10 25t25 10q14 0 24 -10t10 -25t-10 -25.5t-24 -10.5z" />
<glyph unicode="&#xa9;" horiz-adv-x="873" d="M436 -8q-155 0 -258.5 102.5t-103.5 253.5q0 153 103.5 256.5t258.5 103.5q156 0 259.5 -103t103.5 -257q0 -151 -103.5 -253.5t-259.5 -102.5zM436 21q142 0 237 94.5t95 232.5q0 141 -94.5 236t-237.5 95t-237 -95t-94 -236q0 -138 94.5 -232.5t236.5 -94.5zM437 175 q-42 0 -67 23.5t-25 62.5v174q0 38 25 61.5t67 23.5t67.5 -23t25.5 -61v-5q0 -10 -10 -10l-10 1q-10 0 -10 8v8q0 25 -17.5 40t-45.5 15t-45.5 -15t-17.5 -40v-180q0 -25 17.5 -40.5t45.5 -15.5t45.5 15.5t17.5 40.5v6q0 10 10 10h10q10 0 10 -6v-7q0 -39 -26 -62.5 t-67 -23.5z" />
<glyph unicode="&#xaa;" horiz-adv-x="295" d="M149 561h65q4 0 4 4v32q0 38 -19 61t-57 23q-27 0 -47.5 -14t-25.5 -36q-2 -11 -11 -9l-11 1q-11 2 -9 11q6 33 35 53.5t70 20.5q51 0 79 -29.5t28 -80.5v-217q0 -10 -10 -10h-12q-10 0 -10 10v22q0 6 -5 1q-28 -38 -88 -38q-42 0 -70 21.5t-28 69.5q0 52 32.5 78 t89.5 26zM128 393q37 0 63.5 20t26.5 58v59q0 4 -4 4h-64q-42 0 -67 -19.5t-25 -55.5q0 -33 19.5 -49.5t50.5 -16.5zM26 293q0 10 10 10h215q10 0 10 -10v-11q0 -10 -10 -10h-215q-10 0 -10 10v11z" />
<glyph unicode="&#xab;" horiz-adv-x="516" d="M262 119q9 -12 -6 -12h-15q-9 0 -13 6l-128 161q-7 7 0 14l128 161q4 6 13 6h15q15 0 6 -12l-127 -159q-1 -3 0 -6zM410 119q9 -12 -6 -12h-15q-9 0 -13 6l-128 161q-7 7 0 14l128 161q4 6 13 6h15q15 0 6 -12l-127 -159q-1 -3 0 -6z" />
<glyph unicode="&#xac;" d="M425 336q10 0 10 -10v-17v-6q-1 -1 -1 -2v-111q0 -10 -10 -10h-15q-10 0 -10 10v109q0 4 -4 4h-345q-10 0 -10 10v13q0 10 10 10h375z" />
<glyph unicode="&#xad;" horiz-adv-x="346" d="M50 300q-10 0 -10 10v15q0 10 10 10h247q10 0 10 -10v-15q0 -10 -10 -10h-247z" />
<glyph unicode="&#xae;" horiz-adv-x="447" d="M223 715q81 0 137.5 -55.5t56.5 -135.5t-56.5 -136t-137.5 -56q-80 0 -136.5 56t-56.5 136q0 79 56.5 135t136.5 56zM223 358q70 0 118.5 48.5t48.5 117.5q0 68 -48.5 116.5t-118.5 48.5q-69 0 -117.5 -48.5t-48.5 -116.5q0 -69 48.5 -117.5t117.5 -48.5zM283 559 q0 -33 -27 -44q-3 -1 -2 -5l28 -64q5 -12 -8 -12h-6q-8 0 -11 8l-28 66q-1 3 -4 3h-22q-4 0 -4 -4v-63q0 -10 -10 -10h-4q-10 0 -10 10v157q0 10 10 10h49q22 0 35.5 -14.5t13.5 -37.5zM203 590q-4 0 -4 -4v-52q0 -4 4 -4h28q28 0 28 29q0 31 -28 31h-28z" />
<glyph unicode="&#xaf;" horiz-adv-x="410" d="M101 601q-10 0 -10 10v12q0 10 10 10h206q10 0 10 -10v-12q0 -10 -10 -10h-206z" />
<glyph unicode="&#xb0;" horiz-adv-x="370" d="M185 496q-65 0 -110 45t-45 111t45 111t110 45t110.5 -45t45.5 -111t-45.5 -111t-110.5 -45zM185 527q52 0 88 36.5t36 88.5t-36 88.5t-88 36.5t-87.5 -36t-35.5 -89t35.5 -89t87.5 -36z" />
<glyph unicode="&#xb1;" d="M254 353q0 -4 4 -4h167q10 0 10 -10v-13q0 -10 -10 -10h-167q-4 0 -4 -4v-165q0 -10 -10 -10h-13q-10 0 -10 10v165q0 4 -4 4h-167q-10 0 -10 10v13q0 10 10 10h167q4 0 4 4v169q0 10 10 10h13q10 0 10 -10v-169zM50 18q-10 0 -10 10v13q0 10 10 10h375q10 0 10 -10v-13 q0 -10 -10 -10h-375z" />
<glyph unicode="&#xb2;" horiz-adv-x="277" d="M42 454q-10 0 -10 10v11q0 8 4 13q85 123 119 172q48 71 48 115q0 34 -19.5 54.5t-51.5 20.5q-31 0 -49.5 -20.5t-18.5 -54.5v-17q0 -10 -10 -10h-13q-10 0 -10 10v20q1 46 29 73.5t73 27.5q46 0 74 -28.5t28 -75.5q0 -53 -48 -127q-32 -48 -111 -161q-3 -5 3 -5h160 q10 0 10 -10v-8q0 -10 -10 -10h-197z" />
<glyph unicode="&#xb3;" horiz-adv-x="288" d="M231 651q12 -30 12 -73q0 -41 -12 -71q-25 -60 -93 -60q-39 0 -65 22.5t-35 60.5q-4 16 -4 37q0 10 10 10h13q10 0 10 -10q0 -12 2 -28q5 -28 23.5 -45t45.5 -17q44 0 62 40q11 27 11 63q0 39 -10 63q-17 45 -63 45q-8 0 -12 -1q-10 -2 -14 3l-5 6q-6 6 -1 14l93 129 q5 5 -3 5h-150q-10 0 -10 10v8q0 10 10 10h184q10 0 10 -10v-11q0 -8 -4 -13l-85 -121q-2 -1 -1 -3t3 -2q57 -4 78 -61z" />
<glyph unicode="&#xb4;" horiz-adv-x="172" d="M44 579q-14 0 -7 12l62 111q5 7 12 7h18q14 0 7 -12l-66 -111q-5 -7 -12 -7h-14z" />
<glyph unicode="&#xb5;" horiz-adv-x="482" d="M360 492q0 10 10 10h19q10 0 10 -10v-482q0 -10 -10 -10h-19q-10 0 -10 10v46q0 3 -2 3.5t-3 -1.5q-38 -65 -124 -65q-67 0 -105 37q-5 5 -5 -2v-218q0 -10 -10 -10h-19q-10 0 -10 10v316q-1 7 -1 22v344q0 10 10 10h20q10 0 10 -10v-355q5 -52 36 -80.5t81 -28.5 q55 0 88.5 36.5t33.5 97.5v330z" />
<glyph unicode="&#xb6;" horiz-adv-x="502" d="M223 700h173q10 0 10 -10v-880q0 -10 -10 -10h-13q-10 0 -10 10v853q0 4 -4 4h-117q-4 0 -4 -4v-853q0 -10 -10 -10h-14q-10 0 -10 10v436q0 4 -4 4q-74 4 -122 69t-48 156q0 95 52 160t131 65z" />
<glyph unicode="&#xb7;" horiz-adv-x="90" d="M34 5q-19 0 -32 14t-13 34q0 19 13.5 33t31.5 14t31.5 -14t13.5 -33q0 -20 -13.5 -34t-31.5 -14z" />
<glyph unicode="&#xb8;" horiz-adv-x="117" d="M10 -180q-9 1 -7 12l2 7q2 9 12 8q25 -6 44 3.5t23 35.5q8 49 -45 102q-5 4 -4 8t7 4h9q8 0 13 -4q65 -55 51 -121q-8 -38 -38.5 -50.5t-66.5 -4.5z" />
<glyph unicode="&#xb9;" horiz-adv-x="160" d="M77 871q6 3 13 3h16q10 0 10 -10v-400q0 -10 -10 -10h-13q-10 0 -10 10v371q0 7 -5 4l-30 -10q-11 -3 -11 8v6q0 9 7 12z" />
<glyph unicode="&#xba;" horiz-adv-x="305" d="M153 366q-44 0 -73 26t-34 68q-4 22 -4 77q0 56 3 78q5 42 34.5 67.5t73.5 25.5q45 0 74.5 -25.5t34.5 -67.5q2 -23 2 -78t-2 -77q-5 -42 -34.5 -68t-74.5 -26zM153 394q32 0 53 20t25 52q2 20 2 71q0 52 -2 71q-4 32 -25 52t-53 20t-52.5 -20t-24.5 -52q-2 -19 -2 -71 t2 -71q4 -33 24.5 -52.5t52.5 -19.5zM44 272q-10 0 -10 10v11q0 10 10 10h218q10 0 10 -10v-11q0 -10 -10 -10h-218z" />
<glyph unicode="&#xbb;" horiz-adv-x="516" d="M113 107q-15 0 -6 12l127 159q2 3 0 6l-127 159q-9 12 6 12h15q8 0 13 -6l128 -161q7 -7 0 -14l-128 -161q-5 -6 -13 -6h-15zM261 107q-15 0 -6 12l127 159q2 3 0 6l-127 159q-9 12 6 12h15q8 0 13 -6l128 -161q7 -7 0 -14l-128 -161q-5 -6 -13 -6h-15z" />
<glyph unicode="&#xbc;" horiz-adv-x="711" d="M93 280q-10 0 -10 10v371q0 7 -5 4l-30 -10q-11 -3 -11 8v6q0 9 7 12l33 16q6 3 13 3h16q10 0 10 -10v-400q0 -10 -10 -10h-13zM529 693q5 7 12 7h13q13 0 6 -12l-439 -681q-5 -7 -12 -7h-13q-13 0 -6 12zM675 147q10 0 10 -10v-10q0 -10 -10 -10h-16q-4 0 -4 -4v-103 q0 -10 -10 -10h-12q-10 0 -10 10v103q0 4 -4 4h-151q-10 0 -10 10v10q0 7 2 12l108 263q3 8 11 8h13q13 0 8 -12l-104 -256q-2 -5 3 -5h120q4 0 4 4v94q0 10 10 10h12q10 0 10 -10v-94q0 -4 4 -4h16z" />
<glyph unicode="&#xbd;" horiz-adv-x="716" d="M93 280q-10 0 -10 10v371q0 7 -5 4l-30 -10q-11 -3 -11 8v6q0 9 7 12l33 16q6 3 13 3h16q10 0 10 -10v-400q0 -10 -10 -10h-13zM529 693q5 7 12 7h13q13 0 6 -12l-439 -681q-5 -7 -12 -7h-13q-13 0 -6 12zM515 33q-3 -5 3 -5h160q10 0 10 -10v-8q0 -10 -10 -10h-197 q-10 0 -10 10v11q0 8 4 13q85 123 119 172q48 71 48 115q0 34 -19.5 54.5t-51.5 20.5q-31 0 -49.5 -20.5t-18.5 -54.5v-17q0 -10 -10 -10h-13q-10 0 -10 10v20q1 46 29 73.5t73 27.5q46 0 74 -28.5t28 -75.5q0 -53 -48 -127q-32 -48 -111 -161z" />
<glyph unicode="&#xbe;" horiz-adv-x="795" d="M231 337q-25 -60 -93 -60q-39 0 -65 22.5t-35 60.5q-4 16 -4 37q0 10 10 10h13q10 0 10 -10q0 -12 2 -28q5 -28 23.5 -45t45.5 -17q44 0 62 40q11 27 11 63q0 39 -10 63q-17 45 -63 45q-8 0 -12 -1q-10 -2 -14 3l-5 6q-6 6 -1 14l93 129q5 5 -3 5h-150q-10 0 -10 10v8 q0 10 10 10h184q10 0 10 -10v-11q0 -8 -4 -13l-85 -121q-5 -5 3 -5q56 -5 77 -61q12 -30 12 -73q0 -41 -12 -71zM613 693q5 7 12 7h13q13 0 6 -12l-439 -681q-5 -7 -12 -7h-13q-13 0 -6 12zM759 147q10 0 10 -10v-10q0 -10 -10 -10h-16q-4 0 -4 -4v-103q0 -10 -10 -10h-12 q-10 0 -10 10v103q0 4 -4 4h-151q-10 0 -10 10v10q0 7 2 12l108 263q3 8 11 8h13q13 0 8 -12l-104 -256q-2 -5 3 -5h120q4 0 4 4v94q0 10 10 10h12q10 0 10 -10v-94q0 -4 4 -4h16z" />
<glyph unicode="&#xbf;" horiz-adv-x="386" d="M207 496q18 0 30.5 -13.5t12.5 -33.5q0 -19 -13 -32t-31 -13t-31 13t-13 32t13.5 33t31.5 14zM219 310q10 0 10 -10v-70q0 -29 -11 -53.5t-27.5 -40.5t-35.5 -35t-35.5 -36.5t-27.5 -45.5t-11 -62q0 -59 31 -94.5t81 -35.5q52 0 83.5 35.5t31.5 93.5v37q0 10 10 10l19 -1 q10 0 10 -10v-36q0 -74 -42.5 -119.5t-111.5 -45.5q-68 0 -109.5 45.5t-41.5 121.5q0 47 15 83t37 58t43.5 40.5t36.5 41.5t15 50v69q0 10 10 10h20z" />
<glyph unicode="&#xc0;" horiz-adv-x="506" d="M262 789q7 -12 -7 -12h-14q-7 0 -12 7l-66 111q-7 12 7 12h18q7 0 12 -7zM437 0q-9 0 -11 8l-38 138q-1 3 -5 3h-262q-4 0 -5 -3l-37 -137q-2 -9 -11 -9h-19q-12 0 -9 11l188 681q2 8 11 8h26q9 0 11 -8l189 -681q3 -11 -9 -11h-19zM127 186q-2 -4 4 -4h242q6 0 4 4 l-123 451q-2 6 -4 0z" />
<glyph unicode="&#xc1;" horiz-adv-x="506" d="M314 907q14 0 7 -12l-66 -111q-5 -7 -12 -7h-14q-14 0 -7 12l62 111q5 7 12 7h18zM437 0q-9 0 -11 8l-38 138q-1 3 -5 3h-262q-4 0 -5 -3l-37 -137q-2 -9 -11 -9h-19q-12 0 -9 11l188 681q2 8 11 8h26q9 0 11 -8l189 -681q3 -11 -9 -11h-19zM127 186q-2 -4 4 -4h242 q6 0 4 4l-123 451q-2 6 -4 0z" />
<glyph unicode="&#xc2;" horiz-adv-x="506" d="M255 860q-1 2 -3 2t-3 -2l-60 -86q-4 -6 -12 -6h-18q-6 0 -8 4t2 8l74 105q4 6 12 6h24q8 0 12 -6l75 -105q4 -4 2 -8t-8 -4h-18q-8 0 -12 6zM437 0q-9 0 -11 8l-38 138q-1 3 -5 3h-262q-4 0 -5 -3l-37 -137q-2 -9 -11 -9h-19q-12 0 -9 11l188 681q2 8 11 8h26q9 0 11 -8 l189 -681q3 -11 -9 -11h-19zM127 186q-2 -4 4 -4h242q6 0 4 4l-123 451q-2 6 -4 0z" />
<glyph unicode="&#xc3;" horiz-adv-x="506" d="M210 843q-30 0 -50 -28q-7 -9 -14 -3l-7 5q-7 6 -3 14q28 44 73 44q21 0 57 -23q32 -22 48 -22q30 0 50 30q5 10 14 4l6 -3q10 -6 4 -14q-26 -49 -75 -49q-23 0 -56 24q-30 21 -47 21zM437 0q-9 0 -11 8l-38 138q-1 3 -5 3h-262q-4 0 -5 -3l-37 -137q-2 -9 -11 -9h-19 q-12 0 -9 11l188 681q2 8 11 8h26q9 0 11 -8l189 -681q3 -11 -9 -11h-19zM127 186q-2 -4 4 -4h242q6 0 4 4l-123 451q-2 6 -4 0z" />
<glyph unicode="&#xc4;" horiz-adv-x="506" d="M185 807q-15 0 -25 10.5t-10 25.5t10 25t25 10t24.5 -10t9.5 -25t-9.5 -25.5t-24.5 -10.5zM321 807q-15 0 -25 10.5t-10 25.5t10 25t25 10q14 0 24 -10t10 -25t-10 -25.5t-24 -10.5zM437 0q-9 0 -11 8l-38 138q-1 3 -5 3h-262q-4 0 -5 -3l-37 -137q-2 -9 -11 -9h-19 q-12 0 -9 11l188 681q2 8 11 8h26q9 0 11 -8l189 -681q3 -11 -9 -11h-19zM127 186q-2 -4 4 -4h242q6 0 4 4l-123 451q-2 6 -4 0z" />
<glyph unicode="&#xc5;" horiz-adv-x="506" d="M252 773q-41 0 -69.5 29t-28.5 70t28.5 70t69.5 29q42 0 70.5 -29t28.5 -70t-28.5 -70t-70.5 -29zM252 944q-30 0 -50.5 -21t-20.5 -51t20.5 -51t50.5 -21t50.5 21t20.5 51t-20.5 51t-50.5 21zM437 0q-9 0 -11 8l-38 138q-1 3 -5 3h-262q-4 0 -5 -3l-37 -137 q-2 -9 -11 -9h-19q-12 0 -9 11l188 681q2 8 11 8h26q9 0 11 -8l189 -681q3 -11 -9 -11h-19zM127 186q-2 -4 4 -4h242q6 0 4 4l-123 451q-2 6 -4 0z" />
<glyph unicode="&#xc6;" horiz-adv-x="803" d="M746 675q0 -10 -10 -10h-296q-4 0 -4 -4v-289q0 -4 4 -4h199q10 0 10 -10v-15q0 -10 -10 -10h-199q-4 0 -4 -4v-290q0 -4 4 -4h296q10 0 10 -10v-15q0 -10 -10 -10h-329q-10 0 -10 10v135q0 4 -4 4h-238q-3 0 -4 -3l-68 -139q-3 -7 -12 -7h-21q-12 0 -7 12l334 681 q3 7 12 7h347q10 0 10 -10v-15zM170 187q-2 -5 3 -5h220q4 0 4 4v455q-1 4 -5 1z" />
<glyph unicode="&#xc7;" horiz-adv-x="522" d="M455 513q0 -10 -10 -10l-20 -1q-10 0 -10 9v13q0 67 -41.5 108t-109.5 41t-109.5 -41t-41.5 -108v-348q0 -67 41.5 -108t109.5 -41t109.5 41t41.5 108v12q0 9 10 9l20 -1q10 0 10 -9v-9q0 -84 -52.5 -135t-138.5 -51q2 -2 4 -5q59 -53 46 -115q-8 -38 -38.5 -50.5 t-66.5 -4.5q-9 1 -7 12l2 7q2 9 12 8q25 -6 44 3.5t23 35.5q9 53 -53 110q-1 2 -5 2q-69 11 -110 60.5t-41 123.5v344q0 83 52 134t138 51t138.5 -50.5t52.5 -134.5v-10z" />
<glyph unicode="&#xc8;" horiz-adv-x="520" d="M287 799q7 -12 -7 -12h-14q-7 0 -12 7l-66 111q-7 12 7 12h18q7 0 12 -7zM463 675q0 -10 -10 -10h-313q-4 0 -4 -4v-289q0 -4 4 -4h216q10 0 10 -10v-15q0 -10 -10 -10h-216q-4 0 -4 -4v-290q0 -4 4 -4h313q10 0 10 -10v-15q0 -10 -10 -10h-346q-10 0 -10 10v680 q0 10 10 10h346q10 0 10 -10v-15z" />
<glyph unicode="&#xc9;" horiz-adv-x="520" d="M339 917q14 0 7 -12l-66 -111q-5 -7 -12 -7h-14q-14 0 -7 12l62 111q5 7 12 7h18zM463 675q0 -10 -10 -10h-313q-4 0 -4 -4v-289q0 -4 4 -4h216q10 0 10 -10v-15q0 -10 -10 -10h-216q-4 0 -4 -4v-290q0 -4 4 -4h313q10 0 10 -10v-15q0 -10 -10 -10h-346q-10 0 -10 10v680 q0 10 10 10h346q10 0 10 -10v-15z" />
<glyph unicode="&#xca;" horiz-adv-x="520" d="M280 870q-1 2 -3 2t-3 -2l-60 -86q-4 -6 -12 -6h-18q-6 0 -8 4t2 8l74 105q4 6 12 6h24q8 0 12 -6l75 -105q4 -4 2 -8t-8 -4h-18q-8 0 -12 6zM463 675q0 -10 -10 -10h-313q-4 0 -4 -4v-289q0 -4 4 -4h216q10 0 10 -10v-15q0 -10 -10 -10h-216q-4 0 -4 -4v-290q0 -4 4 -4 h313q10 0 10 -10v-15q0 -10 -10 -10h-346q-10 0 -10 10v680q0 10 10 10h346q10 0 10 -10v-15z" />
<glyph unicode="&#xcb;" horiz-adv-x="520" d="M210 817q-15 0 -25 10.5t-10 25.5t10 25t25 10t24.5 -10t9.5 -25t-9.5 -25.5t-24.5 -10.5zM346 817q-15 0 -25 10.5t-10 25.5t10 25t25 10q14 0 24 -10t10 -25t-10 -25.5t-24 -10.5zM463 675q0 -10 -10 -10h-313q-4 0 -4 -4v-289q0 -4 4 -4h216q10 0 10 -10v-15 q0 -10 -10 -10h-216q-4 0 -4 -4v-290q0 -4 4 -4h313q10 0 10 -10v-15q0 -10 -10 -10h-346q-10 0 -10 10v680q0 10 10 10h346q10 0 10 -10v-15z" />
<glyph unicode="&#xcc;" horiz-adv-x="232" d="M126 799q7 -12 -7 -12h-14q-7 0 -12 7l-66 111q-7 12 7 12h18q7 0 12 -7zM107 0q-10 0 -10 10v680q0 10 10 10h19q10 0 10 -10v-680q0 -10 -10 -10h-19z" />
<glyph unicode="&#xcd;" horiz-adv-x="232" d="M93 787q-14 0 -7 12l62 111q5 7 12 7h18q14 0 7 -12l-66 -111q-5 -7 -12 -7h-14zM107 0q-10 0 -10 10v680q0 10 10 10h19q10 0 10 -10v-680q0 -10 -10 -10h-19z" />
<glyph unicode="&#xce;" horiz-adv-x="232" d="M23 778q-6 0 -8 4t2 8l74 105q4 6 12 6h24q8 0 12 -6l75 -105q4 -4 2 -8t-8 -4h-18q-8 0 -12 6l-59 86q-1 2 -3 2t-3 -2l-60 -86q-4 -6 -12 -6h-18zM107 0q-10 0 -10 10v680q0 10 10 10h19q10 0 10 -10v-680q0 -10 -10 -10h-19z" />
<glyph unicode="&#xcf;" horiz-adv-x="232" d="M49 817q-15 0 -25 10.5t-10 25.5t10 25t25 10t24.5 -10t9.5 -25t-9.5 -25.5t-24.5 -10.5zM185 817q-15 0 -25 10.5t-10 25.5t10 25t25 10q14 0 24 -10t10 -25t-10 -25.5t-24 -10.5zM107 0q-10 0 -10 10v680q0 10 10 10h19q10 0 10 -10v-680q0 -10 -10 -10h-19z" />
<glyph unicode="&#xd0;" horiz-adv-x="600" d="M352 700q82 0 129.5 -49t47.5 -134v-334q0 -85 -47.5 -134t-129.5 -49h-185q-10 0 -10 10v336q0 4 -4 4h-46q-10 0 -10 10v11q0 10 10 10h46q4 0 4 4v305q0 10 10 10h185zM489 185v329q0 70 -36.5 110.5t-99.5 40.5h-153q-4 0 -4 -4v-276q0 -4 4 -4h113q10 0 10 -10v-11 q0 -10 -10 -10h-113q-4 0 -4 -4v-307q0 -4 4 -4h153q63 0 99.5 40t36.5 110z" />
<glyph unicode="&#xd1;" horiz-adv-x="582" d="M353 808q-23 0 -56 24q-30 21 -47 21q-30 0 -50 -28q-7 -9 -14 -3l-7 5q-7 6 -3 14q28 44 73 44q21 0 57 -23q32 -22 48 -22q30 0 50 30q5 10 14 4l6 -3q10 -6 1 -20q-28 -43 -72 -43zM107 0q-10 0 -10 10v680q0 10 10 10h20q9 0 12 -7l303 -599q3 -2 5 2v594q0 10 10 10 h19q10 0 10 -10v-680q0 -10 -10 -10h-21q-9 0 -12 7l-303 599q-3 2 -5 -2l1 -594q0 -10 -10 -10h-19z" />
<glyph unicode="&#xd2;" horiz-adv-x="535" d="M277 793q7 -12 -7 -12h-14q-7 0 -12 7l-66 111q-7 12 7 12h18q7 0 12 -7zM267 -8q-86 0 -139.5 53.5t-53.5 139.5v329q0 87 53.5 140.5t139.5 53.5t140 -53.5t54 -140.5v-329q0 -86 -54 -139.5t-140 -53.5zM267 27q69 0 112 43.5t43 113.5v331q0 70 -43 114t-112 44 t-111.5 -43.5t-42.5 -114.5v-331q0 -70 42.5 -113.5t111.5 -43.5z" />
<glyph unicode="&#xd3;" horiz-adv-x="535" d="M244 781q-14 0 -7 12l62 111q5 7 12 7h18q14 0 7 -12l-66 -111q-5 -7 -12 -7h-14zM267 -8q-86 0 -139.5 53.5t-53.5 139.5v329q0 87 53.5 140.5t139.5 53.5t140 -53.5t54 -140.5v-329q0 -86 -54 -139.5t-140 -53.5zM267 27q69 0 112 43.5t43 113.5v331q0 70 -43 114 t-112 44t-111.5 -43.5t-42.5 -114.5v-331q0 -70 42.5 -113.5t111.5 -43.5z" />
<glyph unicode="&#xd4;" horiz-adv-x="535" d="M174 772q-6 0 -8 4t2 8l74 105q4 6 12 6h24q8 0 12 -6l75 -105q4 -4 2 -8t-8 -4h-18q-8 0 -12 6l-59 86q-1 2 -3 2t-3 -2l-60 -86q-4 -6 -12 -6h-18zM267 -8q-86 0 -139.5 53.5t-53.5 139.5v329q0 87 53.5 140.5t139.5 53.5t140 -53.5t54 -140.5v-329q0 -86 -54 -139.5 t-140 -53.5zM267 27q69 0 112 43.5t43 113.5v331q0 70 -43 114t-112 44t-111.5 -43.5t-42.5 -114.5v-331q0 -70 42.5 -113.5t111.5 -43.5z" />
<glyph unicode="&#xd5;" horiz-adv-x="535" d="M328 802q-23 0 -56 24q-30 21 -47 21q-30 0 -50 -28q-7 -9 -14 -3l-7 5q-7 6 -3 14q27 44 73 44q21 0 57 -23q32 -22 48 -22q30 0 50 30q5 10 14 4l6 -3q10 -6 1 -20q-28 -43 -72 -43zM267 -8q-86 0 -139.5 53.5t-53.5 139.5v329q0 87 53.5 140.5t139.5 53.5t140 -53.5 t54 -140.5v-329q0 -86 -54 -139.5t-140 -53.5zM267 27q69 0 112 43.5t43 113.5v331q0 70 -43 114t-112 44t-111.5 -43.5t-42.5 -114.5v-331q0 -70 42.5 -113.5t111.5 -43.5z" />
<glyph unicode="&#xd6;" horiz-adv-x="535" d="M200 811q-15 0 -25 10.5t-10 25.5t10 25t25 10t24.5 -10t9.5 -25t-9.5 -25.5t-24.5 -10.5zM336 811q-15 0 -25 10.5t-10 25.5t10 25t25 10q14 0 24 -10t10 -25t-10 -25.5t-24 -10.5zM267 -8q-86 0 -139.5 53.5t-53.5 139.5v329q0 87 53.5 140.5t139.5 53.5t140 -53.5 t54 -140.5v-329q0 -86 -54 -139.5t-140 -53.5zM267 27q69 0 112 43.5t43 113.5v331q0 70 -43 114t-112 44t-111.5 -43.5t-42.5 -114.5v-331q0 -70 42.5 -113.5t111.5 -43.5z" />
<glyph unicode="&#xd7;" horiz-adv-x="384" d="M338 452q7 -7 0 -14l-118 -118q-3 -3 0 -6l116 -117q7 -7 0 -14l-9 -9q-7 -7 -14 0l-116 117q-3 3 -6 0l-119 -119q-7 -7 -14 0l-9 10q-6 8 0 14l118 118q3 3 0 6l-119 119q-7 7 0 14l9 9q7 7 14 0l119 -119q3 -3 6 0l118 118q7 7 14 0z" />
<glyph unicode="&#xd8;" horiz-adv-x="550" d="M413 659q-1 -3 1 -5q53 -53 53 -140v-329q0 -86 -54 -139.5t-140 -53.5q-71 0 -122 38q-4 3 -6 -1l-23 -54q-3 -8 -11 -8h-14q-13 0 -8 12l32 75q1 3 -1 5q-40 51 -40 126v329q0 87 53.5 140.5t139.5 53.5q63 0 109 -29q4 -1 6 2l22 52q3 8 11 8h14q13 0 8 -12zM119 184 q0 -46 18 -80q3 -5 5 1l228 534q1 3 -2 5q-38 29 -95 29q-69 0 -111.5 -43.5t-42.5 -114.5v-331zM428 184v331q0 57 -30 98q-4 3 -5 -1l-230 -540q-1 -3 1 -5q42 -40 109 -40q69 0 112 43.5t43 113.5z" />
<glyph unicode="&#xd9;" horiz-adv-x="566" d="M292 800q7 -12 -7 -12h-14q-7 0 -12 7l-66 111q-7 12 7 12h18q7 0 12 -7zM282 -8q-87 0 -140 55.5t-53 146.5v496q0 10 10 10h19q10 0 10 -10v-500q0 -73 42.5 -118t111.5 -45q70 0 112.5 45t42.5 118v500q0 10 10 10h19q10 0 10 -10v-496q0 -91 -53 -146.5t-141 -55.5z " />
<glyph unicode="&#xda;" horiz-adv-x="566" d="M259 788q-14 0 -7 12l62 111q5 7 12 7h18q14 0 7 -12l-66 -111q-5 -7 -12 -7h-14zM282 -8q-87 0 -140 55.5t-53 146.5v496q0 10 10 10h19q10 0 10 -10v-500q0 -73 42.5 -118t111.5 -45q70 0 112.5 45t42.5 118v500q0 10 10 10h19q10 0 10 -10v-496q0 -91 -53 -146.5 t-141 -55.5z" />
<glyph unicode="&#xdb;" horiz-adv-x="566" d="M189 779q-6 0 -8 3.5t2 8.5l74 105q4 6 12 6h24q8 0 12 -6l75 -105q4 -5 2 -8.5t-8 -3.5h-18q-8 0 -12 6l-59 86q-1 1 -3 1t-3 -1l-60 -86q-4 -6 -12 -6h-18zM282 -8q-87 0 -140 55.5t-53 146.5v496q0 10 10 10h19q10 0 10 -10v-500q0 -73 42.5 -118t111.5 -45 q70 0 112.5 45t42.5 118v500q0 10 10 10h19q10 0 10 -10v-496q0 -91 -53 -146.5t-141 -55.5z" />
<glyph unicode="&#xdc;" horiz-adv-x="566" d="M215 818q-15 0 -25 10.5t-10 25.5t10 25t25 10t24.5 -10t9.5 -25t-9.5 -25.5t-24.5 -10.5zM351 818q-15 0 -25 10.5t-10 25.5t10 25t25 10q14 0 24 -10t10 -25t-10 -25.5t-24 -10.5zM282 -8q-87 0 -140 55.5t-53 146.5v496q0 10 10 10h19q10 0 10 -10v-500 q0 -73 42.5 -118t111.5 -45q70 0 112.5 45t42.5 118v500q0 10 10 10h19q10 0 10 -10v-496q0 -91 -53 -146.5t-141 -55.5z" />
<glyph unicode="&#xdd;" horiz-adv-x="473" d="M214 777q-14 0 -7 12l62 111q5 7 12 7h18q14 0 7 -12l-66 -111q-5 -7 -12 -7h-14zM227 0q-10 0 -10 10v316q0 4 -1 5l-173 357q-5 12 7 12h20q9 0 12 -7l152 -319q1 -2 3 -2t3 2l150 319q3 7 12 7h20q12 0 7 -12l-172 -357q-1 -1 -1 -5v-316q0 -10 -10 -10h-19z" />
<glyph unicode="&#xde;" horiz-adv-x="496" d="M289 536q75 0 121 -51.5t46 -134.5t-46 -133.5t-121 -50.5h-154q-4 0 -4 -4v-152q0 -10 -10 -10h-19q-10 0 -10 10v680q0 10 10 10h19q10 0 10 -10v-150q0 -4 4 -4h154zM286 200q59 0 95 41t36 108q0 69 -36 110.5t-95 41.5h-151q-4 0 -4 -4v-293q0 -4 4 -4h151z" />
<glyph unicode="&#xdf;" horiz-adv-x="498" d="M92 0q-10 0 -10 10v512q0 87 46 137t121 50q82 0 128.5 -48t48.5 -133q1 -58 -20.5 -99t-61.5 -58q-5 -2 0 -5q40 -18 63.5 -64.5t23.5 -111.5q0 -89 -49 -139.5t-141 -50.5h-62q-10 0 -10 10v14q0 10 10 10l63 1q75 0 112.5 40.5t37.5 116.5q0 156 -128 161h-61 q-10 0 -10 10v13q0 10 10 10h62q62 0 93 36.5t29 104.5q-2 70 -37 108.5t-100 38.5q-58 0 -93.5 -39.5t-35.5 -110.5v-514q0 -10 -10 -10h-19z" />
<glyph unicode="&#xe0;" horiz-adv-x="449" d="M236 599q7 -12 -7 -12h-14q-7 0 -12 7l-66 111q-7 12 7 12h18q7 0 12 -7zM226 510q76 0 116 -45t40 -121v-334q0 -10 -10 -10h-19q-10 0 -10 10v45q0 2 -1.5 3t-3.5 -1q-45 -65 -142 -65q-61 0 -103 32.5t-42 105.5q0 77 49.5 117.5t134.5 40.5h104q4 0 4 4v52 q0 60 -29.5 95.5t-88.5 35.5q-46 0 -77.5 -23t-38.5 -61q-2 -11 -11 -9l-20 2q-10 2 -9 10q7 52 50.5 84t106.5 32zM202 27q57 0 99 31.5t42 89.5v103q0 4 -4 4h-102q-66 0 -106 -31.5t-40 -90.5q0 -53 31 -79.5t80 -26.5z" />
<glyph unicode="&#xe1;" horiz-adv-x="449" d="M288 717q14 0 7 -12l-66 -111q-5 -7 -12 -7h-14q-14 0 -7 12l62 111q5 7 12 7h18zM226 510q76 0 116 -45t40 -121v-334q0 -10 -10 -10h-19q-10 0 -10 10v45q0 2 -1.5 3t-3.5 -1q-45 -65 -142 -65q-61 0 -103 32.5t-42 105.5q0 77 49.5 117.5t134.5 40.5h104q4 0 4 4v52 q0 60 -29.5 95.5t-88.5 35.5q-46 0 -77.5 -23t-38.5 -61q-2 -11 -11 -9l-20 2q-10 2 -9 10q7 52 50.5 84t106.5 32zM202 27q57 0 99 31.5t42 89.5v103q0 4 -4 4h-102q-66 0 -106 -31.5t-40 -90.5q0 -53 31 -79.5t80 -26.5z" />
<glyph unicode="&#xe2;" horiz-adv-x="449" d="M229 670q-1 2 -3 2t-3 -2l-60 -86q-4 -6 -12 -6h-18q-6 0 -8 4t2 8l74 105q4 6 12 6h24q8 0 12 -6l75 -105q4 -4 2 -8t-8 -4h-18q-8 0 -12 6zM226 510q76 0 116 -45t40 -121v-334q0 -10 -10 -10h-19q-10 0 -10 10v45q0 2 -1.5 3t-3.5 -1q-45 -65 -142 -65 q-61 0 -103 32.5t-42 105.5q0 77 49.5 117.5t134.5 40.5h104q4 0 4 4v52q0 60 -29.5 95.5t-88.5 35.5q-46 0 -77.5 -23t-38.5 -61q-2 -11 -11 -9l-20 2q-10 2 -9 10q7 52 50.5 84t106.5 32zM202 27q57 0 99 31.5t42 89.5v103q0 4 -4 4h-102q-66 0 -106 -31.5t-40 -90.5 q0 -53 31 -79.5t80 -26.5z" />
<glyph unicode="&#xe3;" horiz-adv-x="449" d="M184 653q-30 0 -50 -28q-7 -9 -14 -3l-7 5q-7 6 -3 14q28 44 73 44q21 0 57 -23q32 -22 48 -22q30 0 50 30q5 10 14 4l6 -3q10 -6 4 -14q-26 -49 -75 -49q-23 0 -56 24q-30 21 -47 21zM226 510q76 0 116 -45t40 -121v-334q0 -10 -10 -10h-19q-10 0 -10 10v45q0 2 -1.5 3 t-3.5 -1q-45 -65 -142 -65q-61 0 -103 32.5t-42 105.5q0 77 49.5 117.5t134.5 40.5h104q4 0 4 4v52q0 60 -29.5 95.5t-88.5 35.5q-46 0 -77.5 -23t-38.5 -61q-2 -11 -11 -9l-20 2q-10 2 -9 10q7 52 50.5 84t106.5 32zM202 27q57 0 99 31.5t42 89.5v103q0 4 -4 4h-102 q-66 0 -106 -31.5t-40 -90.5q0 -53 31 -79.5t80 -26.5z" />
<glyph unicode="&#xe4;" horiz-adv-x="449" d="M159 617q-15 0 -25 10.5t-10 25.5t10 25t25 10t24.5 -10t9.5 -25t-9.5 -25.5t-24.5 -10.5zM295 617q-15 0 -25 10.5t-10 25.5t10 25t25 10q14 0 24 -10t10 -25t-10 -25.5t-24 -10.5zM226 510q76 0 116 -45t40 -121v-334q0 -10 -10 -10h-19q-10 0 -10 10v45q0 2 -1.5 3 t-3.5 -1q-45 -65 -142 -65q-61 0 -103 32.5t-42 105.5q0 77 49.5 117.5t134.5 40.5h104q4 0 4 4v52q0 60 -29.5 95.5t-88.5 35.5q-46 0 -77.5 -23t-38.5 -61q-2 -11 -11 -9l-20 2q-10 2 -9 10q7 52 50.5 84t106.5 32zM202 27q57 0 99 31.5t42 89.5v103q0 4 -4 4h-102 q-66 0 -106 -31.5t-40 -90.5q0 -53 31 -79.5t80 -26.5z" />
<glyph unicode="&#xe5;" horiz-adv-x="449" d="M226 583q-41 0 -69.5 29t-28.5 70t28.5 70t69.5 29q42 0 70.5 -29t28.5 -70t-28.5 -70t-70.5 -29zM226 754q-30 0 -50.5 -21t-20.5 -51t20.5 -51t50.5 -21t50.5 21t20.5 51t-20.5 51t-50.5 21zM226 510q76 0 116 -45t40 -121v-334q0 -10 -10 -10h-19q-10 0 -10 10v45 q0 2 -1.5 3t-3.5 -1q-45 -65 -142 -65q-61 0 -103 32.5t-42 105.5q0 77 49.5 117.5t134.5 40.5h104q4 0 4 4v52q0 60 -29.5 95.5t-88.5 35.5q-46 0 -77.5 -23t-38.5 -61q-2 -11 -11 -9l-20 2q-10 2 -9 10q7 52 50.5 84t106.5 32zM202 27q57 0 99 31.5t42 89.5v103q0 4 -4 4 h-102q-66 0 -106 -31.5t-40 -90.5q0 -53 31 -79.5t80 -26.5z" />
<glyph unicode="&#xe6;" horiz-adv-x="733" d="M198 -8q-62 0 -104.5 31.5t-42.5 105.5q0 76 48.5 113.5t134.5 37.5h105q4 0 4 4v59q0 60 -30 96t-89 36q-46 0 -78.5 -23t-38.5 -61q-2 -11 -11 -9l-19 3q-10 2 -9 11q7 51 51 82.5t106 31.5q104 0 138 -85q2 -5 5 0q17 38 54.5 61.5t85.5 23.5q65 0 109 -39t51 -101 q4 -41 4 -114q0 -10 -10 -10h-275q-4 0 -4 -4v-97q1 -53 36.5 -84.5t89.5 -31.5q44 0 75.5 22.5t43.5 60.5q3 9 12 8l17 -2q10 -2 8 -12q-15 -52 -56.5 -83t-100.5 -31q-53 0 -91.5 23.5t-53.5 64.5q-2 6 -4 0q-16 -42 -60.5 -65t-100.5 -23zM383 284q0 -4 4 -4h242q4 0 4 4 q0 34 -2 78q-5 50 -39 81.5t-85 31.5t-84 -31.5t-38 -81.5q-2 -22 -2 -78zM202 26q57 0 99 30.5t42 89.5v95q0 4 -4 4h-103q-67 0 -106.5 -28.5t-39.5 -85.5q0 -52 31 -78.5t81 -26.5z" />
<glyph unicode="&#xe7;" horiz-adv-x="450" d="M359 121q1 4 1 12q0 1 1 2.5t4 3.5t6 2l19 -1q9 0 9 -11l-1 -10q-6 -50 -46 -85.5t-100 -41.5q-8 0 -2 -4q60 -53 46 -116q-8 -38 -38.5 -50.5t-66.5 -4.5q-9 1 -7 12l2 7q2 9 12 8q25 -6 44 3.5t23 35.5q9 52 -52 108q-1 2 -5 2q-55 7 -91.5 45t-43.5 94q-6 42 -6 120 q0 67 6 118q8 62 51.5 101t109.5 39t111 -36.5t52 -89.5l3 -15q0 -11 -9 -11l-19 -1q-10 0 -11 9q0 7 -1 9q-5 41 -39.5 70.5t-86.5 29.5t-85.5 -31.5t-38.5 -81.5q-4 -58 -4 -111t4 -111q5 -51 38.5 -82t85.5 -31q49 0 84 27.5t41 66.5z" />
<glyph unicode="&#xe8;" horiz-adv-x="461" d="M242 599q7 -12 -7 -12h-14q-7 0 -12 7l-66 111q-7 12 7 12h18q7 0 12 -7zM234 27q45 0 77.5 23t44.5 62q3 9 12 7l16 -2q10 -2 7 -12q-15 -51 -56.5 -82t-101.5 -31q-66 0 -109 38t-51 100q-6 35 -6 122q0 83 4 117q7 63 51 102t110 39q70 0 114 -40.5t50 -105.5 q4 -43 4 -114q0 -10 -10 -10h-280q-4 0 -4 -4q0 -70 2 -96q5 -51 39.5 -82t86.5 -31zM232 475q-51 0 -85 -31.5t-39 -81.5q-2 -23 -2 -85q0 -4 4 -4h247q4 0 4 4q0 49 -3 85q-5 50 -39.5 81.5t-86.5 31.5z" />
<glyph unicode="&#xe9;" horiz-adv-x="461" d="M294 717q14 0 7 -12l-66 -111q-5 -7 -12 -7h-14q-14 0 -7 12l62 111q5 7 12 7h18zM234 27q45 0 77.5 23t44.5 62q3 9 12 7l16 -2q10 -2 7 -12q-15 -51 -56.5 -82t-101.5 -31q-66 0 -109 38t-51 100q-6 35 -6 122q0 83 4 117q7 63 51 102t110 39q70 0 114 -40.5t50 -105.5 q4 -43 4 -114q0 -10 -10 -10h-280q-4 0 -4 -4q0 -70 2 -96q5 -51 39.5 -82t86.5 -31zM232 475q-51 0 -85 -31.5t-39 -81.5q-2 -23 -2 -85q0 -4 4 -4h247q4 0 4 4q0 49 -3 85q-5 50 -39.5 81.5t-86.5 31.5z" />
<glyph unicode="&#xea;" horiz-adv-x="461" d="M235 670q-1 2 -3 2t-3 -2l-60 -86q-4 -6 -12 -6h-18q-6 0 -8 4t2 8l74 105q4 6 12 6h24q8 0 12 -6l75 -105q4 -4 2 -8t-8 -4h-18q-8 0 -12 6zM234 27q45 0 77.5 23t44.5 62q3 9 12 7l16 -2q10 -2 7 -12q-15 -51 -56.5 -82t-101.5 -31q-66 0 -109 38t-51 100q-6 35 -6 122 q0 83 4 117q7 63 51 102t110 39q70 0 114 -40.5t50 -105.5q4 -43 4 -114q0 -10 -10 -10h-280q-4 0 -4 -4q0 -70 2 -96q5 -51 39.5 -82t86.5 -31zM232 475q-51 0 -85 -31.5t-39 -81.5q-2 -23 -2 -85q0 -4 4 -4h247q4 0 4 4q0 49 -3 85q-5 50 -39.5 81.5t-86.5 31.5z" />
<glyph unicode="&#xeb;" horiz-adv-x="461" d="M165 617q-15 0 -25 10.5t-10 25.5t10 25t25 10t24.5 -10t9.5 -25t-9.5 -25.5t-24.5 -10.5zM301 617q-15 0 -25 10.5t-10 25.5t10 25t25 10q14 0 24 -10t10 -25t-10 -25.5t-24 -10.5zM234 27q45 0 77.5 23t44.5 62q3 9 12 7l16 -2q10 -2 7 -12q-15 -51 -56.5 -82 t-101.5 -31q-66 0 -109 38t-51 100q-6 35 -6 122q0 83 4 117q7 63 51 102t110 39q70 0 114 -40.5t50 -105.5q4 -43 4 -114q0 -10 -10 -10h-280q-4 0 -4 -4q0 -70 2 -96q5 -51 39.5 -82t86.5 -31zM232 475q-51 0 -85 -31.5t-39 -81.5q-2 -23 -2 -85q0 -4 4 -4h247q4 0 4 4 q0 49 -3 85q-5 50 -39.5 81.5t-86.5 31.5z" />
<glyph unicode="&#xec;" horiz-adv-x="193" d="M105 600q7 -12 -7 -12h-14q-7 0 -12 7l-66 111q-7 12 7 12h18q7 0 12 -7zM86 0q-10 0 -10 10v482q0 10 10 10h19q10 0 10 -10v-482q0 -10 -10 -10h-19z" />
<glyph unicode="&#xed;" horiz-adv-x="193" d="M72 588q-14 0 -7 12l62 111q5 7 12 7h18q14 0 7 -12l-66 -111q-5 -7 -12 -7h-14zM86 0q-10 0 -10 10v482q0 10 10 10h19q10 0 10 -10v-482q0 -10 -10 -10h-19z" />
<glyph unicode="&#xee;" horiz-adv-x="193" d="M2 579q-6 0 -8 3.5t2 8.5l74 105q4 6 12 6h24q8 0 12 -6l75 -105q4 -5 2 -8.5t-8 -3.5h-18q-8 0 -12 6l-59 86q-1 1 -3 1t-3 -1l-60 -86q-4 -6 -12 -6h-18zM86 0q-10 0 -10 10v482q0 10 10 10h19q10 0 10 -10v-482q0 -10 -10 -10h-19z" />
<glyph unicode="&#xef;" horiz-adv-x="193" d="M28 618q-15 0 -25 10.5t-10 25.5t10 25t25 10t24.5 -10t9.5 -25t-9.5 -25.5t-24.5 -10.5zM164 618q-15 0 -25 10.5t-10 25.5t10 25t25 10q14 0 24 -10t10 -25t-10 -25.5t-24 -10.5zM86 0q-10 0 -10 10v482q0 10 10 10h19q10 0 10 -10v-482q0 -10 -10 -10h-19z" />
<glyph unicode="&#xf0;" horiz-adv-x="472" d="M392 355q1 -17 1 -107q0 -91 -3 -117q-7 -62 -51 -100.5t-110 -38.5q-65 0 -108 38.5t-51 100.5q-4 28 -4 118q0 82 4 117q6 60 47 97.5t102 38.5q77 3 118 -43q4 -4 4 1q-14 66 -62 131q-2 4 -5 2l-79 -26q-10 -3 -13 7l-2 7q-2 9 7 12l67 21q6 2 2 6q-30 34 -69 68 q-5 4 -3.5 8t8.5 4h19q7 0 12 -5q47 -42 67 -65q2 -4 5 -2l75 24q10 3 13 -7l2 -7q2 -9 -7 -12l-63 -21q-4 -2 -3 -3q72 -99 80 -247zM352 139q2 19 2 109t-2 109q-5 50 -38.5 81.5t-84.5 31.5q-50 0 -83.5 -31.5t-38.5 -81.5q-2 -29 -2 -109t2 -109q5 -51 38 -82t84 -31 t84.5 31.5t38.5 81.5z" />
<glyph unicode="&#xf1;" d="M202 648q-27 0 -46 -27q-6 -9 -14 -3l-5 4q-8 5 -4 14q26 44 68 44q21 0 52 -23q30 -22 45 -22q28 0 45 30q5 10 14 4l5 -3q8 -5 4 -14q-25 -49 -69 -49q-21 0 -52 24q-28 21 -43 21zM252 509q68 0 108 -43.5t40 -117.5v-338q0 -10 -10 -10h-19q-10 0 -10 10v333 q0 60 -32 95.5t-86 35.5q-55 0 -88.5 -36.5t-33.5 -97.5v-330q0 -10 -10 -10h-19q-10 0 -10 10v482q0 10 10 10h19q10 0 10 -10v-48q0 -8 4 -2q40 67 127 67z" />
<glyph unicode="&#xf2;" horiz-adv-x="468" d="M243 599q7 -12 -7 -12h-14q-7 0 -12 7l-66 111q-7 12 7 12h18q7 0 12 -7zM234 -8q-67 0 -111 38.5t-52 101.5q-4 35 -4 120q0 84 4 118q8 63 52 101.5t111 38.5q66 0 110.5 -38.5t52.5 -101.5q4 -35 4 -119t-4 -119q-8 -63 -52.5 -101.5t-110.5 -38.5zM234 27 q51 0 85.5 31.5t39.5 81.5q3 30 3 111q0 82 -3 111q-5 50 -39.5 81.5t-86.5 31.5q-51 0 -85 -31.5t-39 -81.5q-3 -30 -3 -111t3 -111q5 -51 39 -82t86 -31z" />
<glyph unicode="&#xf3;" horiz-adv-x="468" d="M210 587q-14 0 -7 12l62 111q5 7 12 7h18q14 0 7 -12l-66 -111q-5 -7 -12 -7h-14zM234 -8q-67 0 -111 38.5t-52 101.5q-4 35 -4 120q0 84 4 118q8 63 52 101.5t111 38.5q66 0 110.5 -38.5t52.5 -101.5q4 -35 4 -119t-4 -119q-8 -63 -52.5 -101.5t-110.5 -38.5zM234 27 q51 0 85.5 31.5t39.5 81.5q3 30 3 111q0 82 -3 111q-5 50 -39.5 81.5t-86.5 31.5q-51 0 -85 -31.5t-39 -81.5q-3 -30 -3 -111t3 -111q5 -51 39 -82t86 -31z" />
<glyph unicode="&#xf4;" horiz-adv-x="468" d="M140 578q-6 0 -8 4t2 8l74 105q4 6 12 6h24q8 0 12 -6l75 -105q4 -4 2 -8t-8 -4h-18q-8 0 -12 6l-59 86q-1 2 -3 2t-3 -2l-60 -86q-4 -6 -12 -6h-18zM234 -8q-67 0 -111 38.5t-52 101.5q-4 35 -4 120q0 84 4 118q8 63 52 101.5t111 38.5q66 0 110.5 -38.5t52.5 -101.5 q4 -35 4 -119t-4 -119q-8 -63 -52.5 -101.5t-110.5 -38.5zM234 27q51 0 85.5 31.5t39.5 81.5q3 30 3 111q0 82 -3 111q-5 50 -39.5 81.5t-86.5 31.5q-51 0 -85 -31.5t-39 -81.5q-3 -30 -3 -111t3 -111q5 -51 39 -82t86 -31z" />
<glyph unicode="&#xf5;" horiz-adv-x="468" d="M294 608q-23 0 -56 24q-30 21 -47 21q-30 0 -50 -28q-7 -9 -14 -3l-7 5q-7 6 -3 14q28 44 73 44q21 0 57 -23q32 -22 48 -22q30 0 50 30q5 10 14 4l6 -3q10 -6 1 -20q-28 -43 -72 -43zM234 -8q-67 0 -111 38.5t-52 101.5q-4 35 -4 120q0 84 4 118q8 63 52 101.5t111 38.5 q66 0 110.5 -38.5t52.5 -101.5q4 -35 4 -119t-4 -119q-8 -63 -52.5 -101.5t-110.5 -38.5zM234 27q51 0 85.5 31.5t39.5 81.5q3 30 3 111q0 82 -3 111q-5 50 -39.5 81.5t-86.5 31.5q-51 0 -85 -31.5t-39 -81.5q-3 -30 -3 -111t3 -111q5 -51 39 -82t86 -31z" />
<glyph unicode="&#xf6;" horiz-adv-x="468" d="M166 617q-15 0 -25 10.5t-10 25.5t10 25t25 10t24.5 -10t9.5 -25t-9.5 -25.5t-24.5 -10.5zM302 617q-15 0 -25 10.5t-10 25.5t10 25t25 10q14 0 24 -10t10 -25t-10 -25.5t-24 -10.5zM234 -8q-67 0 -111 38.5t-52 101.5q-4 35 -4 120q0 84 4 118q8 63 52 101.5t111 38.5 q66 0 110.5 -38.5t52.5 -101.5q4 -35 4 -119t-4 -119q-8 -63 -52.5 -101.5t-110.5 -38.5zM234 27q51 0 85.5 31.5t39.5 81.5q3 30 3 111q0 82 -3 111q-5 50 -39.5 81.5t-86.5 31.5q-51 0 -85 -31.5t-39 -81.5q-3 -30 -3 -111t3 -111q5 -51 39 -82t86 -31z" />
<glyph unicode="&#xf7;" d="M237 441q-19 0 -32 13t-13 32t13 31.5t32 12.5q18 0 31.5 -13t13.5 -31q0 -19 -13.5 -32t-31.5 -13zM50 315q-10 0 -10 10v13q0 10 10 10h375q10 0 10 -10v-13q0 -10 -10 -10h-375zM237 143q-19 0 -32 13t-13 32q0 18 13 31t32 13q18 0 31.5 -13t13.5 -31 q0 -19 -13.5 -32t-31.5 -13z" />
<glyph unicode="&#xf8;" horiz-adv-x="472" d="M400 370q4 -35 4 -119t-4 -119q-8 -63 -52.5 -101.5t-110.5 -38.5q-59 0 -104 32q-3 3 -5 -1l-22 -40q-6 -10 -14 -4l-12 8q-8 5 -3 13l26 50q1 3 0 6q-23 32 -29 76q-4 35 -4 120q0 84 4 118q8 63 52 101.5t111 38.5q56 0 99 -30q3 -2 5 2l22 39q5 9 14 4l12 -7 q9 -5 4 -14l-26 -47q-2 -3 0 -5q27 -34 33 -82zM112 140q3 -27 11 -45q4 -6 6 0l190 347q2 4 -1 5q-33 28 -82 28q-51 0 -85 -31.5t-39 -81.5q-3 -30 -3 -111t3 -111zM362 140q3 30 3 111q0 82 -3 111q-3 25 -14 49q-4 6 -6 0l-191 -348q-2 -4 1 -5q31 -31 85 -31 q51 0 85.5 31.5t39.5 81.5z" />
<glyph unicode="&#xf9;" horiz-adv-x="474" d="M245 591q7 -12 -7 -12h-14q-7 0 -12 7l-66 111q-7 12 7 12h18q7 0 12 -7zM353 492q0 10 10 10h19q10 0 10 -10v-482q0 -10 -10 -10h-19q-10 0 -10 10v46q0 3 -1.5 3.5t-3.5 -1.5q-38 -65 -124 -65q-68 0 -109 40.5t-41 114.5v344q0 10 10 10h19q10 0 10 -10v-335 q0 -61 31.5 -95t86.5 -34t88.5 36.5t33.5 97.5v330z" />
<glyph unicode="&#xfa;" horiz-adv-x="474" d="M297 709q14 0 7 -12l-66 -111q-5 -7 -12 -7h-14q-14 0 -7 12l62 111q5 7 12 7h18zM353 492q0 10 10 10h19q10 0 10 -10v-482q0 -10 -10 -10h-19q-10 0 -10 10v46q0 3 -1.5 3.5t-3.5 -1.5q-38 -65 -124 -65q-68 0 -109 40.5t-41 114.5v344q0 10 10 10h19q10 0 10 -10v-335 q0 -61 31.5 -95t86.5 -34t88.5 36.5t33.5 97.5v330z" />
<glyph unicode="&#xfb;" horiz-adv-x="474" d="M238 662q-1 2 -3 2t-3 -2l-60 -86q-4 -6 -12 -6h-18q-6 0 -8 4t2 8l74 105q4 6 12 6h24q8 0 12 -6l75 -105q4 -4 2 -8t-8 -4h-18q-8 0 -12 6zM353 492q0 10 10 10h19q10 0 10 -10v-482q0 -10 -10 -10h-19q-10 0 -10 10v46q0 3 -1.5 3.5t-3.5 -1.5q-38 -65 -124 -65 q-68 0 -109 40.5t-41 114.5v344q0 10 10 10h19q10 0 10 -10v-335q0 -61 31.5 -95t86.5 -34t88.5 36.5t33.5 97.5v330z" />
<glyph unicode="&#xfc;" horiz-adv-x="474" d="M168 609q-15 0 -25 10.5t-10 25.5t10 25t25 10t24.5 -10t9.5 -25t-9.5 -25.5t-24.5 -10.5zM304 609q-15 0 -25 10.5t-10 25.5t10 25t25 10q14 0 24 -10t10 -25t-10 -25.5t-24 -10.5zM353 492q0 10 10 10h19q10 0 10 -10v-482q0 -10 -10 -10h-19q-10 0 -10 10v46 q0 3 -1.5 3.5t-3.5 -1.5q-38 -65 -124 -65q-68 0 -109 40.5t-41 114.5v344q0 10 10 10h19q10 0 10 -10v-335q0 -61 31.5 -95t86.5 -34t88.5 36.5t33.5 97.5v330z" />
<glyph unicode="&#xfd;" horiz-adv-x="391" d="M173 580q-14 0 -7 12l62 111q5 7 12 7h18q14 0 7 -12l-66 -111q-5 -7 -12 -7h-14zM54 -200q-7 0 -7 10v15q0 10 7 10h6q48 1 68 30t48 132v6l-151 488q-3 11 9 11h20q8 0 11 -8l129 -435q1 -2 3 -2t3 2l126 435q3 8 11 8h20q12 0 9 -11l-167 -547q-28 -91 -54.5 -117.5 t-84.5 -26.5h-6z" />
<glyph unicode="&#xfe;" horiz-adv-x="469" d="M400 370q4 -35 4 -120q0 -83 -5 -119q-8 -63 -49 -101t-104 -38q-85 0 -123 67q-3 2 -5 -2v-247q0 -10 -10 -10h-19q-10 0 -10 10v880q0 10 10 10h19q10 0 10 -10v-245q0 -3 2 -3.5t3 1.5q38 67 122 67q64 0 105.5 -38t49.5 -102zM361 137q4 40 4 114q0 79 -5 115 q-6 48 -39.5 78.5t-82.5 30.5t-80 -30.5t-36 -79.5q-2 -17 -4 -46v-136q2 -29 4 -46q5 -48 36 -79t80 -31q50 0 84 30.5t39 79.5z" />
<glyph unicode="&#xff;" horiz-adv-x="391" d="M129 610q-15 0 -25 10.5t-10 25.5t10 25t25 10t24.5 -10t9.5 -25t-9.5 -25.5t-24.5 -10.5zM265 610q-15 0 -25 10.5t-10 25.5t10 25t25 10q14 0 24 -10t10 -25t-10 -25.5t-24 -10.5zM54 -200q-7 0 -7 10v15q0 10 7 10h6q48 1 68 30t48 132v6l-151 488q-3 11 9 11h20 q8 0 11 -8l129 -435q1 -2 3 -2t3 2l126 435q3 8 11 8h20q12 0 9 -11l-167 -547q-28 -91 -54.5 -117.5t-84.5 -26.5h-6z" />
<glyph unicode="&#x152;" horiz-adv-x="800" d="M743 675q0 -10 -10 -10h-286q-4 0 -4 -4v-289q0 -4 4 -4h190q10 0 10 -10v-15q0 -10 -10 -10h-190q-4 0 -4 -4v-290q0 -4 4 -4h286q10 0 10 -10v-15q0 -10 -10 -10h-319q-10 0 -10 10v52q0 2 -2 3t-3 -1q-50 -72 -147 -72q-78 0 -128 51.5t-50 132.5v347q0 81 50 133 t128 52q98 0 147 -73q3 -2 5 2v53q0 10 10 10h319q10 0 10 -10v-15zM258 27q65 0 105.5 41.5t40.5 106.5v349q0 65 -40.5 107t-105.5 42q-64 0 -104.5 -42t-40.5 -107v-349q0 -65 40.5 -106.5t104.5 -41.5z" />
<glyph unicode="&#x153;" horiz-adv-x="747" d="M523 27q44 0 75.5 23t43.5 61q3 9 12 8l16 -2q10 -2 7 -12q-14 -52 -55.5 -82.5t-100.5 -30.5q-98 0 -142 88q-3 4 -6 0q-19 -40 -56.5 -64t-86.5 -24q-65 0 -108 39t-51 101q-4 35 -4 120q0 84 4 118q7 62 50.5 101t108.5 39q49 0 86.5 -24t56.5 -64q3 -4 6 0 q44 88 142 88q65 0 109 -39t52 -101q3 -32 3 -117q0 -10 -10 -10h-275q-4 0 -4 -4q0 -73 3 -99q5 -51 38.5 -82t85.5 -31zM353 140q2 20 2 111q0 92 -2 111q-5 50 -38.5 81.5t-84.5 31.5q-50 0 -83.5 -31.5t-38.5 -81.5q-2 -30 -2 -111q0 -82 2 -111q5 -50 38.5 -81.5 t83.5 -31.5q51 0 84.5 31.5t38.5 81.5zM521 475q-51 0 -84 -31.5t-38 -81.5q-3 -24 -3 -86q0 -4 4 -4h242q4 0 4 4q0 62 -2 86q-5 50 -38.5 81.5t-84.5 31.5z" />
<glyph unicode="&#x178;" horiz-adv-x="473" d="M170 807q-15 0 -25 10.5t-10 25.5t10 25t25 10t24.5 -10t9.5 -25t-9.5 -25.5t-24.5 -10.5zM306 807q-15 0 -25 10.5t-10 25.5t10 25t25 10q14 0 24 -10t10 -25t-10 -25.5t-24 -10.5zM227 0q-10 0 -10 10v316q0 4 -1 5l-173 357q-5 12 7 12h20q9 0 12 -7l152 -319 q1 -2 3 -2t3 2l150 319q3 7 12 7h20q12 0 7 -12l-172 -357q-1 -1 -1 -5v-316q0 -10 -10 -10h-19z" />
<glyph unicode="&#x2c6;" horiz-adv-x="215" d="M15 570q-6 0 -8 4t2 8l74 105q4 6 12 6h24q8 0 12 -6l75 -105q4 -4 2 -8t-8 -4h-18q-8 0 -12 6l-59 86q-1 2 -3 2t-3 -2l-60 -86q-4 -6 -12 -6h-18z" />
<glyph unicode="&#x2dc;" horiz-adv-x="321" d="M212 600q-23 0 -56 24q-30 21 -47 21q-30 0 -50 -28q-7 -9 -14 -3l-7 5q-7 6 -3 14q27 44 73 44q21 0 57 -23q32 -22 48 -22q30 0 50 30q5 10 14 4l6 -3q10 -6 1 -20q-28 -43 -72 -43z" />
<glyph unicode="&#x2000;" horiz-adv-x="485" />
<glyph unicode="&#x2001;" horiz-adv-x="971" />
<glyph unicode="&#x2002;" horiz-adv-x="485" />
<glyph unicode="&#x2003;" horiz-adv-x="971" />
<glyph unicode="&#x2004;" horiz-adv-x="323" />
<glyph unicode="&#x2005;" horiz-adv-x="242" />
<glyph unicode="&#x2006;" horiz-adv-x="161" />
<glyph unicode="&#x2007;" horiz-adv-x="161" />
<glyph unicode="&#x2008;" horiz-adv-x="121" />
<glyph unicode="&#x2009;" horiz-adv-x="194" />
<glyph unicode="&#x200a;" horiz-adv-x="53" />
<glyph unicode="&#x2010;" horiz-adv-x="346" d="M50 300q-10 0 -10 10v15q0 10 10 10h247q10 0 10 -10v-15q0 -10 -10 -10h-247z" />
<glyph unicode="&#x2011;" horiz-adv-x="346" d="M50 300q-10 0 -10 10v15q0 10 10 10h247q10 0 10 -10v-15q0 -10 -10 -10h-247z" />
<glyph unicode="&#x2012;" horiz-adv-x="346" d="M50 300q-10 0 -10 10v15q0 10 10 10h247q10 0 10 -10v-15q0 -10 -10 -10h-247z" />
<glyph unicode="&#x2013;" horiz-adv-x="403" d="M50 264q-10 0 -10 10v16q0 10 10 10h303q10 0 10 -10v-16q0 -10 -10 -10h-303z" />
<glyph unicode="&#x2014;" horiz-adv-x="645" d="M50 264q-10 0 -10 10v16q0 10 10 10h545q10 0 10 -10v-16q0 -10 -10 -10h-545z" />
<glyph unicode="&#x2018;" horiz-adv-x="103" d="M12 505q-11 0 -8 11l63 176q3 8 12 8h12q11 0 8 -11l-54 -176q-3 -8 -12 -8h-21z" />
<glyph unicode="&#x2019;" horiz-adv-x="103" d="M91 700q11 0 8 -11l-63 -176q-3 -8 -12 -8h-12q-11 0 -8 11l54 176q3 8 12 8h21z" />
<glyph unicode="&#x201a;" horiz-adv-x="600" d="M69 -71q-11 0 -9 11l43 205q1 9 11 9h16q11 0 9 -11l-47 -205q-2 -9 -11 -9h-12z" />
<glyph unicode="&#x201c;" horiz-adv-x="213" d="M12 505q-11 0 -8 12l66 175q3 8 11 8h12q11 0 8 -11l-57 -176q-3 -8 -12 -8h-20zM120 505q-11 0 -8 12l66 175q3 8 11 8h12q11 0 8 -11l-56 -176q-3 -8 -12 -8h-21z" />
<glyph unicode="&#x201d;" horiz-adv-x="213" d="M93 700q11 0 8 -12l-66 -175q-3 -8 -11 -8h-12q-11 0 -8 11l56 176q3 8 12 8h21zM201 700q11 0 8 -12l-66 -175q-3 -8 -11 -8h-12q-11 0 -8 11l57 176q3 8 12 8h20z" />
<glyph unicode="&#x201e;" horiz-adv-x="206" d="M93 127q11 0 8 -12l-66 -175q-3 -8 -11 -8h-12q-11 0 -8 11l56 176q3 8 12 8h21zM201 127q11 0 8 -12l-66 -175q-3 -8 -11 -8h-12q-11 0 -8 11l57 176q3 8 12 8h20z" />
<glyph unicode="&#x2022;" horiz-adv-x="297" d="M149 154q-45 0 -77 32t-32 77t32 76.5t77 31.5t77 -31.5t32 -76.5t-32.5 -77t-76.5 -32z" />
<glyph unicode="&#x2026;" horiz-adv-x="678" d="M113 5q-19 0 -32 14t-13 34q0 19 13.5 33t31.5 14t31.5 -14t13.5 -33q0 -20 -13.5 -34t-31.5 -14zM340 5q-19 0 -32 14t-13 34q0 19 13.5 33t31.5 14t31.5 -14t13.5 -33q0 -20 -13.5 -34t-31.5 -14zM563 5q-19 0 -32 14t-13 34q0 19 13.5 33t31.5 14t31.5 -14t13.5 -33 q0 -20 -13.5 -34t-31.5 -14z" />
<glyph unicode="&#x202f;" horiz-adv-x="194" />
<glyph unicode="&#x2039;" horiz-adv-x="346" d="M239 119q9 -12 -6 -12h-15q-8 0 -13 6l-128 161q-7 7 0 14l128 161q5 6 13 6h15q15 0 6 -12l-127 -159q-2 -3 0 -6z" />
<glyph unicode="&#x203a;" horiz-adv-x="371" d="M113 107q-15 0 -6 12l127 159q2 3 0 6l-127 159q-9 12 6 12h15q8 0 13 -6l128 -161q7 -7 0 -14l-128 -161q-5 -6 -13 -6h-15z" />
<glyph unicode="&#x205f;" horiz-adv-x="242" />
<glyph unicode="&#x20ac;" horiz-adv-x="558" d="M321 27q55 0 90 32.5t40 87.5q2 11 11 9l19 -3q10 -2 9 -11q-8 -69 -53 -109.5t-116 -40.5q-77 0 -123 48.5t-46 128.5v104q0 4 -4 4h-64q-10 0 -10 10v8q0 10 10 10h64q4 0 4 4v78q0 4 -4 4h-64q-10 0 -10 10v9q0 10 10 10h64q4 0 4 4v109q0 79 46 127t123 48 q72 0 117.5 -41t51.5 -111q1 -9 -9 -11l-19 -3q-9 -2 -11 9q-5 56 -40 89t-90 33q-59 0 -94.5 -38t-35.5 -101v-110q0 -4 4 -4h221q13 0 8 -12l-5 -10q-3 -7 -11 -7h-213q-4 0 -4 -4v-78q0 -4 4 -4h188q13 0 8 -12l-4 -9q-3 -7 -12 -7h-180q-4 0 -4 -4v-107q0 -62 36 -100.5 t94 -38.5z" />
<glyph unicode="&#x2122;" horiz-adv-x="577" d="M32 673q-10 0 -10 10v7q0 10 10 10h194q10 0 10 -10v-7q0 -10 -10 -10h-81q-4 0 -4 -4v-310q0 -10 -10 -10h-9q-10 0 -10 10v310q0 4 -4 4h-76zM495 693q5 7 12 7h12q10 0 10 -10v-331q0 -10 -10 -10h-10q-10 0 -10 10v277q0 3 -1.5 4t-3.5 -2l-66 -117q-5 -7 -10 -7 q-6 0 -11 7l-66 117q-1 3 -3 2t-2 -4v-277q0 -10 -10 -10h-10q-10 0 -10 10v331q0 10 10 10h12q7 0 12 -7l74 -132q1 -1 3 -1t3 1z" />
<glyph unicode="&#x25fc;" horiz-adv-x="500" d="M0 500h500v-500h-500v500z" />
</font>
</defs>
</svg>
