<?xml version="1.0" standalone="no"?>
<!DOCTYPE svg PUBLIC "-//W3C//DTD SVG 1.1//EN" "http://www.w3.org/Graphics/SVG/1.1/DTD/svg11.dtd" >
<svg xmlns="http://www.w3.org/2000/svg" xmlns:xlink="http://www.w3.org/1999/xlink" version="1.1">
<metadata></metadata>
<defs>
<font id="barlow_semi_condensedregular" horiz-adv-x="471" >
<font-face units-per-em="1000" ascent="800" descent="-200" />
<missing-glyph horiz-adv-x="200" />
<glyph horiz-adv-x="0" />
<glyph horiz-adv-x="333" />
<glyph unicode="&#xd;" horiz-adv-x="200" />
<glyph unicode=" "  horiz-adv-x="200" />
<glyph unicode="&#x09;" horiz-adv-x="200" />
<glyph unicode="&#xa0;" horiz-adv-x="200" />
<glyph unicode="!" horiz-adv-x="289" d="M125 228q-10 0 -10 10l-6 452q0 10 10 10h51q10 0 10 -10l-6 -452q0 -10 -10 -10h-39zM142 4q-25 0 -41.5 17t-16.5 42q0 24 17.5 41.5t40.5 17.5q24 0 41.5 -17.5t17.5 -41.5q0 -25 -17 -42t-42 -17z" />
<glyph unicode="&#x22;" horiz-adv-x="249" d="M44 488q-10 0 -10 10l-8 186q0 10 10 10h50q10 0 10 -10l-8 -186q0 -10 -10 -10h-34zM170 488q-10 0 -10 10l-8 186q0 10 10 10h51q10 0 10 -10l-8 -186q0 -10 -10 -10h-35z" />
<glyph unicode="#" horiz-adv-x="624" d="M560 439q0 -10 -10 -10h-69q-5 0 -5 -4l-24 -159q0 -4 3 -4h61q10 0 10 -10v-42q0 -10 -10 -10h-70q-5 0 -5 -4l-26 -171q-1 -9 -10 -9l-51 2q-11 0 -9 11l24 167q0 4 -3 4h-152q-5 0 -5 -4l-26 -171q-1 -9 -10 -9l-51 2q-11 0 -9 11l25 167q0 4 -3 4h-61q-10 0 -10 10 v42q0 10 10 10h70q5 0 5 4l23 159q0 4 -3 4h-61q-10 0 -10 10l1 43q0 10 10 10h70q5 0 5 4l26 171q1 9 10 9l51 -2q11 0 9 -11l-25 -167q0 -4 3 -4h152q5 0 5 4l26 171q1 9 10 9l52 -2q11 0 9 -11l-25 -167q0 -4 3 -4h60q10 0 10 -10v-43zM376 262q5 0 5 4l23 159q0 4 -3 4 h-152q-5 0 -5 -4l-24 -159q0 -4 3 -4h153z" />
<glyph unicode="$" horiz-adv-x="486" d="M438 176q0 -79 -44.5 -127.5t-124.5 -55.5q-4 0 -4 -4l1 -61q0 -10 -10 -10h-30q-10 0 -10 10l1 62q0 4 -4 4q-73 10 -115.5 56.5t-42.5 118.5v33q0 10 10 10h49q10 0 10 -10v-24q0 -56 33.5 -90t90.5 -34q56 0 87.5 32t31.5 84q0 12 -2 23t-7.5 21.5t-10.5 18.5t-16 18 t-18 15.5t-23.5 16.5t-24.5 16t-29 18t-31 19q-52 32 -79 54t-47.5 59t-20.5 85q0 74 40 119t112 54q4 0 4 4l-1 67q0 10 10 10h29q10 0 10 -10l-1 -67q0 -4 4 -4q79 -7 123.5 -55t44.5 -125v-28q0 -10 -10 -10h-50q-10 0 -10 10v22q0 56 -33 90.5t-90 34.5q-52 0 -82 -29 t-30 -81q0 -25 6.5 -43t29 -37t36.5 -28t57 -34q11 -7 17 -10q89 -53 126.5 -97t37.5 -111z" />
<glyph unicode="%" horiz-adv-x="815" d="M225 425q-59 0 -100.5 41.5t-41.5 100.5t41.5 100.5t100.5 41.5t100 -41.5t41 -100.5t-41 -100.5t-100 -41.5zM202 0q-5 0 -7.5 3.5t0.5 8.5l372 681q3 7 12 7h32q5 0 7.5 -3.5t-0.5 -8.5l-372 -681q-3 -7 -12 -7h-32zM225 467q40 0 68.5 29.5t28.5 70.5q0 42 -28 71 t-69 29t-69.5 -29t-28.5 -71t28.5 -71t69.5 -29zM592 -9q-59 0 -100.5 41.5t-41.5 101.5q0 59 41.5 100t100.5 41q58 0 99.5 -41.5t41.5 -99.5q0 -60 -41 -101.5t-100 -41.5zM592 33q40 0 68.5 29.5t28.5 71.5q0 41 -28.5 70t-68.5 29q-41 0 -69.5 -29t-28.5 -70 q0 -43 28.5 -72t69.5 -29z" />
<glyph unicode="&#x26;" horiz-adv-x="607" d="M550 12q9 -12 -6 -12h-57q-6 0 -12 6q-31 37 -51 64q-3 3 -6 0q-79 -78 -183 -78q-83 0 -132.5 42t-49.5 121q0 68 35.5 117t99.5 97q3 2 0 5q-55 75 -71.5 108.5t-16.5 69.5q0 71 43 113.5t114 42.5q70 0 115.5 -42.5t45.5 -110.5q0 -61 -34 -104.5t-98 -90.5 q-3 -1 -1 -5l88 -113l49 -62q3 -4 6 0q35 49 56 82q5 8 13 3l38 -22q8 -5 4 -14q-41 -65 -71 -102q-2 -3 0 -6q6 -9 36.5 -48.5t45.5 -60.5zM258 643q-39 0 -63 -25t-24 -67q0 -26 13 -52t57 -86q3 -3 6 -1q50 39 75 71t25 72q0 39 -25 63.5t-64 24.5zM245 53q69 3 133 68 q3 3 1 6q-14 18 -61 80q-42 53 -85 109q-2 3 -5 0q-49 -39 -75.5 -75t-27.5 -82q-1 -50 31 -78.5t89 -27.5z" />
<glyph unicode="'" horiz-adv-x="125" d="M44 493q-10 0 -10 10l-8 185q0 10 10 10h53q10 0 10 -10l-8 -185q0 -10 -10 -10h-37z" />
<glyph unicode="(" horiz-adv-x="241" d="M107 -104q-8 0 -12 7q-44 74 -71.5 186t-27.5 236q0 126 28 240.5t73 190.5q4 7 12 7h48q12 0 7 -12q-38 -78 -62.5 -190.5t-24.5 -234.5q0 -119 24.5 -230t62.5 -188q5 -12 -7 -12h-50z" />
<glyph unicode=")" horiz-adv-x="241" d="M146 -97q-4 -7 -12 -7h-50q-12 0 -7 12q38 77 62.5 188t24.5 230q0 122 -24.5 234.5t-62.5 190.5q-5 12 7 12h48q8 0 12 -7q45 -76 73 -190.5t28 -240.5q0 -124 -27.5 -236t-71.5 -186z" />
<glyph unicode="*" horiz-adv-x="379" d="M176 394q-10 0 -10 10l1 120q0 6 -5 3l-105 -62q-8 -6 -14 4l-12 23q-5 9 3 14l106 61q2 1 2 3t-2 3l-106 61q-8 5 -3 14l12 24q5 10 14 4l105 -63q5 -3 5 3l-1 121q0 10 10 10h27q10 0 10 -10l-1 -121q0 -6 5 -3l105 63q9 6 14 -4l13 -24q5 -9 -4 -14l-106 -61 q-1 -1 -1 -3t1 -3l106 -61q8 -5 3 -14l-12 -24q-5 -10 -14 -4l-105 63q-5 3 -5 -3l1 -120q0 -10 -10 -10h-27z" />
<glyph unicode="+" d="M425 345q10 0 10 -10v-38q0 -10 -10 -10h-156q-4 0 -4 -4v-155q0 -10 -10 -10h-39q-10 0 -10 10v155q0 4 -4 4h-156q-10 0 -10 10v38q0 10 10 10h156q4 0 4 4v159q0 10 10 10h39q10 0 10 -10v-159q0 -4 4 -4h156z" />
<glyph unicode="," horiz-adv-x="221" d="M62 -79q-11 0 -9 11l37 214q2 9 11 9h45q12 0 8 -11l-50 -214q-2 -9 -11 -9h-31z" />
<glyph unicode="-" horiz-adv-x="354" d="M46 280q-10 0 -10 10v42q0 10 10 10h262q10 0 10 -10v-42q0 -10 -10 -10h-262z" />
<glyph unicode="." horiz-adv-x="241" d="M119 3q-25 0 -42 17t-17 42q0 24 17.5 41.5t41.5 17.5q23 0 40.5 -17.5t17.5 -41.5q0 -25 -17 -42t-41 -17z" />
<glyph unicode="/" horiz-adv-x="329" d="M38 0q-12 0 -9 11l202 681q3 8 11 8h49q12 0 9 -11l-201 -681q-3 -8 -11 -8h-50z" />
<glyph unicode="0" horiz-adv-x="488" d="M243 -10q-86 0 -138 52t-52 139v338q0 86 52 138t138 52q87 0 139.5 -52t52.5 -138v-338q0 -87 -52.5 -139t-139.5 -52zM243 52q55 0 88 34t33 90v347q0 56 -33 90t-88 34q-53 0 -86 -34t-33 -90v-347q0 -55 33 -89.5t86 -34.5z" />
<glyph unicode="1" horiz-adv-x="296" d="M145 697q5 3 13 3h54q10 0 10 -10v-680q0 -10 -10 -10h-51q-10 0 -10 10v613q0 5 -5 3l-96 -41q-12 -5 -12 8v36q0 7 7 12z" />
<glyph unicode="2" horiz-adv-x="469" d="M60 0q-10 0 -10 10v44q0 6 4 13q90 122 201 280q79 115 79 184q0 52 -30 83.5t-79 31.5q-48 0 -77 -31.5t-28 -83.5v-34q0 -10 -10 -10h-52q-10 0 -10 10v40q2 77 51.5 124t127.5 47q80 0 129 -49t49 -128q0 -88 -82 -208q-45 -66 -182 -256q-2 -5 3 -5h272q10 0 10 -10 v-42q0 -10 -10 -10h-356z" />
<glyph unicode="3" horiz-adv-x="463" d="M384 336q20 -49 20 -123q0 -63 -17 -109q-40 -112 -163 -112q-67 0 -112.5 36t-59.5 98q-7 28 -9 76q0 10 10 10h51q10 0 10 -10q2 -39 7 -59q9 -42 35.5 -65.5t67.5 -23.5q76 0 100 78q10 38 10 85q0 60 -15 99q-26 71 -95 71q-16 0 -29 -7q-8 -3 -14 3l-25 28 q-6 6 -1 14l155 208q2 1 1 3t-3 2h-249q-10 0 -10 10v42q0 10 10 10h332q10 0 10 -10v-45q0 -8 -4 -13l-146 -199q-2 -1 -1 -3t3 -2q97 0 131 -92z" />
<glyph unicode="4" horiz-adv-x="476" d="M425 256q10 0 10 -10v-44q0 -10 -10 -10h-37q-4 0 -4 -4v-178q0 -10 -10 -10h-51q-10 0 -10 10v178q0 4 -4 4h-264q-10 0 -10 10v38q0 7 2 12l178 440q3 8 11 8h56q12 0 7 -12l-171 -427q-2 -5 3 -5h188q4 0 4 4v158q0 10 10 10h51q10 0 10 -10v-158q0 -4 4 -4h37z" />
<glyph unicode="5" horiz-adv-x="461" d="M399 334q19 -56 19 -119q0 -58 -17 -105q-17 -56 -59.5 -87t-103.5 -31q-68 0 -113 36t-59 101q-5 18 -6 37q-2 10 9 10h52q9 0 10 -8v-4l4 -20q19 -89 103 -89q40 0 66.5 23.5t35.5 66.5q7 28 7 69q0 38 -8 78q-18 81 -101 81q-81 0 -104 -68q0 -1 -1 -2l-1 -2 q-1 -7 -10 -7h-53q-10 0 -10 10v386q0 10 10 10h317q10 0 10 -10v-42q0 -10 -10 -10h-252q-4 0 -4 -4v-245q0 -6 5 -1q42 47 116 47q115 0 148 -101z" />
<glyph unicode="6" horiz-adv-x="462" d="M398 329q21 -40 21 -115q0 -63 -17 -103q-40 -119 -162 -119q-60 0 -102 30t-60 85q-19 47 -19 106v320q0 80 49.5 127.5t128.5 47.5q75 0 122 -47t47 -124v-15q0 -10 -10 -10h-51q-10 0 -10 10v11q0 50 -28 81t-71 31q-46 0 -76 -31.5t-30 -84.5v-152q0 -3 2 -3.5t3 2.5 q39 59 117 59q108 0 146 -106zM342 147q6 34 6 69q0 45 -9 79q-9 38 -35.5 60t-65.5 22t-65 -22.5t-35 -61.5q-8 -28 -8 -77q0 -44 6 -72q20 -89 103 -89q39 0 66 23.5t37 68.5z" />
<glyph unicode="7" horiz-adv-x="419" d="M131 0q-11 0 -8 11l201 622q2 5 -4 5h-226q-4 0 -4 -4v-43q0 -10 -10 -10h-40q-10 0 -10 10v99q0 10 10 10h350q10 0 10 -10v-46q0 -4 -2 -12l-200 -624q-3 -8 -12 -8h-55z" />
<glyph unicode="8" d="M332 376q-4 -3 0 -6q43 -24 61 -67q21 -43 21 -108q0 -59 -21 -106q-45 -97 -159 -97t-159 100q-20 46 -20 104q0 61 20 104q21 47 62 70q5 3 0 6q-34 18 -56 53q-26 44 -26 100q0 58 25 100q46 81 154 81q113 0 157 -84q23 -43 23 -98q0 -56 -25 -97q-22 -35 -57 -55z M141 593q-16 -32 -16 -70q0 -42 19 -74q28 -50 90 -50q66 0 93 54q17 27 17 71q0 42 -16 70q-29 54 -94 54q-66 0 -93 -55zM327 117q16 35 16 83t-13 78q-24 66 -96 66q-68 0 -95 -66q-13 -32 -13 -78q0 -48 15 -83q26 -63 93 -63q68 0 93 63z" />
<glyph unicode="9" horiz-adv-x="464" d="M386 593q19 -47 19 -106v-320q0 -80 -49.5 -127.5t-128.5 -47.5q-75 0 -122 47t-47 124v15q0 10 10 10h51q10 0 10 -10v-11q0 -50 28 -81t71 -31q46 0 76 31.5t30 84.5v152q0 3 -2 3.5t-3 -2.5q-39 -59 -117 -59q-108 0 -146 106q-21 40 -21 115q0 63 17 103 q40 119 162 119q60 0 102 -30t60 -85zM226 323q39 0 65 22.5t35 61.5q8 28 8 77q0 44 -6 72q-20 89 -103 89q-39 0 -66 -23.5t-37 -68.5q-6 -34 -6 -69q0 -45 9 -79q9 -38 35.5 -60t65.5 -22z" />
<glyph unicode=":" horiz-adv-x="275" d="M138 346q-25 0 -42 17.5t-17 42.5q0 24 18 41.5t41 17.5t41 -17.5t18 -41.5q0 -25 -17 -42.5t-42 -17.5zM138 10q-25 0 -42 17t-17 42q0 24 18 41.5t41 17.5t41 -17.5t18 -41.5q0 -25 -17 -42t-42 -17z" />
<glyph unicode=";" horiz-adv-x="252" d="M127 347q-25 0 -41.5 17t-16.5 43q0 24 17.5 41t40.5 17q24 0 41.5 -17t17.5 -41q0 -25 -17 -42.5t-42 -17.5zM82 -75q-5 0 -8 3.5t-2 7.5l25 206q1 9 10 9h46q11 0 9 -11l-38 -206q-2 -9 -11 -9h-31z" />
<glyph unicode="&#x3c;" d="M435 63q0 -5 -3.5 -7.5t-8.5 0.5l-380 181q-7 4 -7 12v48q0 8 7 12l380 181q12 5 12 -7v-49q0 -7 -7 -11l-317 -147q-5 -3 0 -6l317 -147q7 -4 7 -11v-49z" />
<glyph unicode="=" d="M46 398q-10 0 -10 10v38q0 10 10 10h379q10 0 10 -10v-38q0 -10 -10 -10h-379zM46 191q-10 0 -10 10v38q0 10 10 10h379q10 0 10 -10v-38q0 -10 -10 -10h-379z" />
<glyph unicode="&#x3e;" d="M48 56q-5 -3 -8.5 -0.5t-3.5 7.5v49q0 7 7 11l317 147q4 3 0 6l-317 147q-7 4 -7 11v49q0 5 3.5 7.5t8.5 -0.5l380 -181q7 -4 7 -12v-48q0 -8 -7 -12z" />
<glyph unicode="?" horiz-adv-x="415" d="M166 200q-10 0 -10 10v59q0 36 15.5 64t37.5 48t44.5 39.5t38 48t15.5 64.5q0 50 -27.5 80.5t-71.5 30.5q-46 0 -74.5 -31t-28.5 -81v-31q0 -10 -10 -10l-51 3q-10 0 -10 10v28q0 79 48.5 128t126.5 49q77 0 123.5 -48t46.5 -128q0 -46 -15.5 -82t-37.5 -57.5t-44.5 -40 t-38 -40.5t-15.5 -48v-55q0 -10 -10 -10h-52zM195 2q-23 0 -39 16.5t-16 40.5q0 23 16.5 40t39.5 17q22 0 39 -17t17 -40q0 -24 -17 -40.5t-40 -16.5z" />
<glyph unicode="@" horiz-adv-x="794" d="M439 617q148 0 231.5 -95t63.5 -244q-12 -93 -58 -145t-115 -52q-72 0 -100 50q-3 5 -6 0q-33 -51 -105 -51q-46 0 -73 27.5t-28 73.5q-1 28 6 82q6 45 14 80q11 47 43.5 74.5t77.5 27.5q52 0 77 -35q3 -2 5 2l2 19q1 9 10 9h32q5 0 8 -3.5t2 -7.5l-27 -206 q-5 -42 14 -68t55 -26q42 0 72 39t40 108q18 133 -51.5 212.5t-194.5 79.5q-123 0 -217.5 -86t-105.5 -230q-11 -132 56.5 -212t184.5 -80q103 0 162 44q8 7 14 -2l15 -22q5 -9 -1 -14q-33 -25 -86.5 -40.5t-111.5 -15.5q-139 0 -219 97t-66 248q14 165 125 263.5t255 98.5z M441 191q6 28 9 51l5 38l4 54q2 29 -15 47t-46 18t-50.5 -18.5t-28.5 -46.5q-6 -20 -12 -72q-7 -50 -7 -71q-1 -29 16.5 -47.5t47.5 -18.5q29 0 49.5 18.5t27.5 47.5z" />
<glyph unicode="A" horiz-adv-x="531" d="M434 0q-9 0 -11 9l-33 125q-1 3 -5 3h-239q-4 0 -5 -3l-33 -125q-2 -9 -11 -9h-52q-12 0 -9 11l186 680q2 9 11 9h64q9 0 11 -9l187 -680q3 -11 -9 -11h-52zM158 199q-2 -4 4 -4h207q6 0 4 4l-105 400q-2 6 -4 0z" />
<glyph unicode="B" horiz-adv-x="538" d="M386 365q-5 -2 0 -5q98 -47 99 -170q0 -90 -53.5 -140t-141.5 -50h-197q-10 0 -10 10v680q0 10 10 10h189q92 0 144 -47.5t52 -135.5q0 -111 -92 -152zM158 638q-4 0 -4 -4v-241q0 -4 4 -4h125q58 0 91.5 33t33.5 89q0 59 -33.5 93t-91.5 34h-125zM288 63q58 0 92 36 t34 98q0 63 -34.5 99t-93.5 36h-128q-4 0 -4 -4v-261q0 -4 4 -4h130z" />
<glyph unicode="C" horiz-adv-x="526" d="M266 -8q-91 0 -146.5 54t-55.5 143v323q0 89 55.5 142.5t146.5 53.5q92 0 147.5 -53t55.5 -141v-9q0 -10 -10 -10l-51 -2q-10 0 -10 9v14q0 58 -36.5 94t-95.5 36t-95 -35.5t-36 -94.5v-332q0 -59 36 -94.5t95 -35.5t95.5 36t36.5 94v14q0 9 10 9l51 -3q10 0 10 -8v-9 q0 -88 -55.5 -141.5t-147.5 -53.5z" />
<glyph unicode="D" horiz-adv-x="542" d="M93 0q-10 0 -10 10v680q0 10 10 10h195q89 0 140.5 -51t51.5 -139v-320q0 -88 -51.5 -139t-140.5 -51h-195zM154 66q0 -4 4 -4h131q55 1 87 36.5t33 97.5v308q0 62 -32 98t-88 36h-131q-4 0 -4 -4v-568z" />
<glyph unicode="E" horiz-adv-x="517" d="M468 648q0 -10 -10 -10h-300q-4 0 -4 -4v-248q0 -4 4 -4h202q10 0 10 -10v-42q0 -10 -10 -10h-202q-4 0 -4 -4v-250q0 -4 4 -4h300q10 0 10 -10v-42q0 -10 -10 -10h-365q-10 0 -10 10v680q0 10 10 10h365q10 0 10 -10v-42z" />
<glyph unicode="F" horiz-adv-x="486" d="M467 648q0 -10 -10 -10h-299q-4 0 -4 -4v-248q0 -4 4 -4h201q10 0 10 -10v-42q0 -10 -10 -10h-201q-4 0 -4 -4v-306q0 -10 -10 -10h-51q-10 0 -10 10v680q0 10 10 10h364q10 0 10 -10v-42z" />
<glyph unicode="G" horiz-adv-x="525" d="M266 -8q-91 0 -146.5 53t-55.5 141v328q0 88 55.5 141t146.5 53t146.5 -52.5t55.5 -137.5v-28q0 -10 -10 -10h-51q-10 0 -10 10v28q0 57 -36 92.5t-95 35.5t-95 -35.5t-36 -94.5v-332q0 -58 36.5 -94t95.5 -36t94.5 34t35.5 92v109q0 4 -4 4h-117q-10 0 -10 10v42 q0 10 10 10h182q10 0 10 -10v-156q0 -91 -55 -144t-147 -53z" />
<glyph unicode="H" horiz-adv-x="563" d="M410 690q0 10 10 10h51q10 0 10 -10v-680q0 -10 -10 -10h-51q-10 0 -10 10v306q0 4 -4 4h-248q-4 0 -4 -4v-306q0 -10 -10 -10h-51q-10 0 -10 10v680q0 10 10 10h51q10 0 10 -10v-304q0 -4 4 -4h248q4 0 4 4v304z" />
<glyph unicode="I" horiz-adv-x="237" d="M93 0q-10 0 -10 10v680q0 10 10 10h51q10 0 10 -10v-680q0 -10 -10 -10h-51z" />
<glyph unicode="J" horiz-adv-x="503" d="M222 -8q-89 0 -142.5 52t-53.5 137v66q0 10 10 10h51q10 0 10 -10v-67q0 -56 34.5 -91t90.5 -35q57 0 92 35t35 91v510q0 10 10 10h51q10 0 10 -10v-509q0 -85 -54.5 -137t-143.5 -52z" />
<glyph unicode="K" horiz-adv-x="531" d="M93 0q-10 0 -10 10v680q0 10 10 10h51q10 0 10 -10v-332q0 -2 2 -2.5t3 1.5l254 337q4 6 13 6h56q6 0 8 -4t-2 -8l-200 -274q-2 -3 0 -6l218 -396q7 -12 -7 -12h-58q-9 0 -12 7l-190 345q-2 5 -5 0l-78 -99q-2 -2 -2 -5v-238q0 -10 -10 -10h-51z" />
<glyph unicode="L" horiz-adv-x="482" d="M93 0q-10 0 -10 10v680q0 10 10 10h51q10 0 10 -10v-624q0 -4 4 -4h291q10 0 10 -10v-42q0 -10 -10 -10h-356z" />
<glyph unicode="M" horiz-adv-x="615" d="M93 0q-10 0 -10 10v680q0 10 10 10h51q9 0 12 -7l148 -296q1 -2 3 -2t3 2l149 296q3 7 12 7h52q10 0 10 -10v-680q0 -10 -10 -10h-51q-10 0 -10 10v529q0 3 -2 3.5t-3 -1.5l-125 -247q-3 -7 -12 -7h-23q-9 0 -12 7l-126 248q-3 3 -5 -1v-531q0 -10 -10 -10h-51z" />
<glyph unicode="N" horiz-adv-x="583" d="M93 0q-10 0 -10 10v680q0 10 10 10h51q9 0 12 -7l269 -527q3 -3 5 1v523q0 10 10 10h51q10 0 10 -10v-680q0 -10 -10 -10h-52q-9 0 -12 7l-269 529q-3 2 -5 -2l1 -524q0 -10 -10 -10h-51z" />
<glyph unicode="O" horiz-adv-x="539" d="M269 -8q-92 0 -148.5 56t-56.5 147v309q0 92 56.5 148t148.5 56t149 -56.5t57 -147.5v-309q0 -91 -57 -147t-149 -56zM269 54q61 0 98 38t37 100v314q0 63 -37 101.5t-98 38.5q-60 0 -97 -38.5t-37 -101.5v-314q0 -62 37 -100t97 -38z" />
<glyph unicode="P" horiz-adv-x="517" d="M303 701q80 0 129.5 -53.5t49.5 -141.5q0 -87 -49.5 -139.5t-129.5 -52.5h-149q-4 0 -4 -4v-300q0 -10 -10 -10h-51q-10 0 -10 10v681q0 10 10 10h214zM294 373q53 0 85 36t32 96q0 61 -32 97.5t-85 36.5h-140q-4 0 -4 -4v-258q0 -4 4 -4h140z" />
<glyph unicode="Q" horiz-adv-x="510" d="M255 708q89 0 143.5 -55.5t54.5 -146.5v-314q0 -79 -42.5 -132t-115.5 -64q-4 -1 -4 -5v-96q0 -10 -10 -10h-52q-10 0 -10 10v96q0 4 -4 5q-72 11 -115 64t-43 132v314q0 91 54.5 146.5t143.5 55.5zM382 189v322q0 60 -35 97.5t-92 37.5t-92 -37.5t-35 -97.5v-322 q0 -60 35 -97.5t92 -37.5t92 37.5t35 97.5z" />
<glyph unicode="R" horiz-adv-x="528" d="M426 0q-8 0 -11 8l-125 311q-1 3 -4 3h-128q-4 0 -4 -4v-308q0 -10 -10 -10h-51q-10 0 -10 10v681q0 10 10 10h212q80 0 129 -53t49 -139q0 -69 -33.5 -117t-90.5 -63q-4 -2 -2 -5l130 -312q5 -12 -8 -12h-53zM158 639q-4 0 -4 -4v-252q0 -4 4 -4h138q52 0 84 35.5 t32 93.5q0 59 -32 95t-84 36h-138z" />
<glyph unicode="S" horiz-adv-x="506" d="M257 -8q-92 0 -147.5 49.5t-55.5 132.5v28q0 10 10 10h49q10 0 10 -10v-24q0 -56 37.5 -90t99.5 -34q59 0 93 32t34 84q0 49 -33 80.5t-118 77.5q-37 20 -57.5 32t-47.5 32t-40 38.5t-23 45.5t-10 59q0 81 52 127t139 46q93 0 148 -51t55 -135v-23q0 -10 -10 -10h-50 q-10 0 -10 10v22q0 56 -36 90.5t-98 34.5q-56 0 -88 -29t-32 -82q0 -49 30 -76.5t116 -73.5q52 -29 78 -46t54.5 -42.5t40 -54.5t11.5 -67q0 -83 -54.5 -133t-146.5 -50z" />
<glyph unicode="T" horiz-adv-x="496" d="M447 700q10 0 10 -10v-42q0 -10 -10 -10h-163q-4 0 -4 -4v-624q0 -10 -10 -10h-51q-10 0 -10 10v624q0 4 -4 4h-157q-10 0 -10 10v42q0 10 10 10h399z" />
<glyph unicode="U" horiz-adv-x="562" d="M281 -8q-92 0 -148.5 57t-56.5 151v490q0 10 10 10h51q10 0 10 -10v-494q0 -64 37 -103t97 -39t97 39t37 103v494q0 10 10 10h51q10 0 10 -10v-490q0 -94 -56.5 -151t-148.5 -57z" />
<glyph unicode="V" horiz-adv-x="514" d="M229 0q-9 0 -11 9l-182 680q-3 11 9 11h54q9 0 11 -9l146 -572q2 -6 4 0l146 572q2 9 11 9h52q12 0 9 -11l-182 -680q-2 -9 -11 -9h-56z" />
<glyph unicode="W" horiz-adv-x="748" d="M200 0q-9 0 -11 9l-161 680q-4 11 8 11h54q9 0 11 -9l122 -537q1 -3 2.5 -3t2.5 3l110 537q2 9 11 9h50q9 0 11 -9l116 -537q2 -8 4 0l119 537q1 9 11 9h52q10 0 8 -11l-156 -680q-2 -9 -11 -9h-51q-10 0 -11 9l-115 545q-2 8 -4 0l-112 -545q-2 -9 -11 -9h-49z" />
<glyph unicode="X" horiz-adv-x="511" d="M46 0q-12 0 -7 12l176 335q1 3 0 6l-176 335q-5 12 7 12h55q9 0 12 -7l140 -277q1 -2 3 -2t3 2l140 277q3 7 12 7h55q12 0 7 -12l-177 -336q-2 -3 0 -6l177 -334q5 -12 -7 -12h-55q-9 0 -12 7l-140 276q-1 2 -3 2t-3 -2l-140 -276q-3 -7 -12 -7h-55z" />
<glyph unicode="Y" horiz-adv-x="496" d="M222 1q-10 0 -10 10v298q0 4 -1 5l-173 374q-5 12 8 12h54q8 0 11 -8l134 -299q1 -2 3 -2t3 2l134 299q3 8 11 8h54q13 0 8 -12l-174 -374q-1 -1 -1 -5v-298q0 -10 -10 -10h-51z" />
<glyph unicode="Z" horiz-adv-x="472" d="M49 0q-10 0 -10 10v47q0 5 3 13l304 563q2 5 -2 5h-295q-10 0 -10 10v42q0 10 10 10h367q10 0 10 -10v-47q0 -5 -3 -13l-304 -563q-2 -5 2 -5h295q10 0 10 -10v-42q0 -10 -10 -10h-367z" />
<glyph unicode="[" horiz-adv-x="341" d="M39 -121q-10 0 -10 10v875q0 10 10 10h174q10 0 10 -10v-42q0 -10 -10 -10h-109q-4 0 -4 -4v-763q0 -4 4 -4h110q10 0 10 -10v-42q0 -10 -10 -10h-175z" />
<glyph unicode="\" horiz-adv-x="329" d="M300 11q3 -11 -9 -11h-50q-8 0 -11 8l-201 681q-3 11 9 11h49q8 0 11 -8z" />
<glyph unicode="]" horiz-adv-x="341" d="M312 -111q0 -10 -10 -10h-175q-10 0 -10 10v42q0 10 10 10h110q4 0 4 4v763q0 4 -4 4h-109q-10 0 -10 10v42q0 10 10 10h174q10 0 10 -10v-875z" />
<glyph unicode="^" horiz-adv-x="423" d="M48 307q-11 0 -8 11l137 374q3 8 12 8h45q8 0 11 -8l139 -373q3 -12 -8 -12h-42q-9 0 -12 8l-107 306q-1 2 -3 2t-3 -2l-108 -306q-3 -8 -12 -8h-41z" />
<glyph unicode="_" horiz-adv-x="430" d="M36 0q-10 0 -10 10v37q0 10 10 10h359q10 0 10 -10v-37q0 -10 -10 -10h-359z" />
<glyph unicode="`" horiz-adv-x="193" d="M161 589q7 -12 -7 -12h-39q-7 0 -12 7l-69 109q-7 12 6 12h48q7 0 12 -7z" />
<glyph unicode="a" horiz-adv-x="461" d="M231 514q80 0 126 -46t46 -122v-336q0 -10 -10 -10h-51q-10 0 -10 10v36q0 7 -5 2q-46 -56 -134 -56q-63 0 -107 34t-44 111q0 80 52 121.5t141 41.5h93q4 0 4 4v38q0 51 -26 80.5t-75 29.5q-39 0 -65.5 -19.5t-30.5 -51.5q-1 -9 -11 -9l-55 3q-11 0 -9 10q7 58 54 93.5 t117 35.5zM209 54q50 0 86.5 27.5t36.5 76.5v81q0 4 -4 4h-89q-56 0 -90.5 -26.5t-34.5 -75.5q0 -44 26.5 -65.5t68.5 -21.5z" />
<glyph unicode="b" horiz-adv-x="482" d="M420 368q7 -41 7 -116q0 -74 -8 -116q-14 -70 -53.5 -107t-101.5 -37q-79 0 -117 58q-1 3 -3 2.5t-2 -3.5v-39q0 -10 -10 -10h-51q-10 0 -10 10v680q0 10 10 10h51q10 0 10 -10v-233q1 -4 5 -1q34 58 114 58q66 0 106.5 -38t52.5 -108zM347 142q9 39 9 111t-11 115 q-9 38 -35 61t-65 23t-63 -23t-31 -63q-9 -39 -9 -113q0 -72 8 -112t32.5 -63.5t63.5 -23.5q41 0 67 23.5t34 64.5z" />
<glyph unicode="c" horiz-adv-x="461" d="M239 -8q-72 0 -119 39.5t-57 106.5q-6 51 -6 116q0 51 6 115q9 65 57 105t119 40t119.5 -38t56.5 -95l3 -21q2 -11 -9 -11l-51 -3q-10 0 -11 9q0 9 -1 12q-5 35 -34.5 60t-72.5 25q-44 0 -72.5 -27t-33.5 -70t-5 -102q0 -60 5 -103q5 -44 33.5 -70t72.5 -26t73.5 25 t33.5 61q0 2 0.5 4t0.5 4q2 11 11 9l50 -4q9 -2 9 -9v-4q0 -4 -2 -12q-7 -59 -55.5 -97.5t-120.5 -38.5z" />
<glyph unicode="d" horiz-adv-x="482" d="M340 690q0 10 10 10h51q10 0 10 -10v-680q0 -10 -10 -10h-51q-10 0 -10 10v39q0 3 -2 3.5t-3 -2.5q-38 -58 -117 -58q-62 0 -101.5 37t-53.5 107q-8 42 -8 116q0 75 7 116q12 70 52.5 108t106.5 38q80 0 114 -58q3 -3 5 1v233zM332 141q8 40 8 112q0 74 -9 113 q-7 40 -31 63t-63 23t-65 -23t-35 -61q-11 -43 -11 -115t9 -111q8 -41 34 -64.5t67 -23.5q39 0 63.5 23.5t32.5 63.5z" />
<glyph unicode="e" d="M242 54q39 0 67 20t40 53q3 10 12 7l41 -11q10 -3 7 -12q-15 -54 -60 -86.5t-110 -32.5q-70 0 -115.5 37.5t-56.5 101.5q-9 46 -9 123q0 79 4 112q8 67 55.5 107.5t119.5 40.5q79 0 125 -44t53 -118q4 -47 4 -114q0 -10 -10 -10h-277q-4 0 -4 -4q0 -43 3 -73 q5 -44 35.5 -70.5t75.5 -26.5zM237 452q-44 0 -72 -26t-33 -69q-2 -21 -4 -68q0 -4 4 -4h212q4 0 4 4q-2 48 -4 66q-5 43 -34 70t-73 27z" />
<glyph unicode="f" horiz-adv-x="316" d="M251 642q-46 0 -64 -25t-18 -82v-25q0 -4 4 -4h94q10 0 10 -10v-39q0 -10 -10 -10h-94q-4 0 -4 -4v-433q0 -10 -10 -10h-51q-10 0 -10 10v433q0 4 -4 4h-53q-10 0 -10 10v39q0 10 10 10h53q4 0 4 4v28q0 89 33.5 127t116.5 38h21q10 0 10 -10v-41q0 -10 -10 -10h-18z" />
<glyph unicode="g" horiz-adv-x="474" d="M342 496q0 10 10 10h51q10 0 10 -10v-482q0 -226 -247 -215q-10 1 -10 11l1 45q0 11 10 9q94 -3 134.5 34.5t40.5 119.5v33q0 7 -5 2q-39 -56 -116 -56q-64 0 -107 38.5t-53 104.5q-6 44 -6 113q0 75 7 118q8 65 50.5 104t106.5 39q78 0 118 -55q5 -5 5 1v36zM339 154 q3 39 3 100q0 60 -3 102q-4 42 -31.5 69t-70.5 27t-71.5 -27t-34.5 -69q-4 -36 -4 -102q0 -50 4 -100q5 -42 34 -69t72 -27t70.5 27t31.5 69z" />
<glyph unicode="h" horiz-adv-x="482" d="M265 513q70 0 110.5 -44.5t40.5 -121.5v-337q0 -10 -10 -10h-51q-10 0 -10 10v327q0 52 -27 83t-73 31q-47 0 -75.5 -31.5t-28.5 -84.5v-325q0 -10 -10 -10h-51q-10 0 -10 10v680q0 10 10 10h51q10 0 10 -10v-231q0 -7 5 -2q40 56 119 56z" />
<glyph unicode="i" horiz-adv-x="224" d="M112 597q-23 0 -37.5 14.5t-14.5 37.5q0 22 14.5 36.5t37.5 14.5q22 0 36.5 -14t14.5 -37t-14 -37.5t-37 -14.5zM87 0q-10 0 -10 10v486q0 10 10 10h51q10 0 10 -10v-486q0 -10 -10 -10h-51z" />
<glyph unicode="j" horiz-adv-x="213" d="M107 596q-22 0 -36.5 14.5t-14.5 37.5t15 37.5t36 14.5q22 0 37.5 -14.5t15.5 -37.5t-15 -37.5t-38 -14.5zM-22 -208q-10 0 -10 10v42q0 10 10 10q94 1 94 102v540q0 10 10 10h51q10 0 10 -10v-540q0 -84 -37.5 -124t-127.5 -40z" />
<glyph unicode="k" horiz-adv-x="453" d="M80 0q-10 0 -10 10v680q0 10 10 10h51q10 0 10 -10v-406q0 -2 1.5 -3t3.5 1l181 218q5 6 12 6h57q15 0 6 -12l-114 -142q-2 -4 -1 -5l135 -335q5 -12 -8 -12h-53q-8 0 -11 8l-109 286q-2 7 -6 1l-92 -111q-2 -4 -2 -5v-169q0 -10 -10 -10h-51z" />
<glyph unicode="l" horiz-adv-x="207" d="M78 0q-10 0 -10 10v680q0 10 10 10h51q10 0 10 -10v-680q0 -10 -10 -10h-51z" />
<glyph unicode="m" horiz-adv-x="737" d="M529 513q67 0 105.5 -44.5t38.5 -122.5v-336q0 -10 -10 -10h-50q-10 0 -10 10v326q0 53 -26.5 84t-69.5 31q-45 0 -72.5 -30.5t-27.5 -82.5v-328q0 -10 -10 -10h-51q-10 0 -10 10v326q0 53 -26.5 84t-69.5 31q-45 0 -72 -30.5t-27 -82.5v-328q0 -10 -10 -10h-51 q-10 0 -10 10v486q0 10 10 10h51q10 0 10 -10v-35q0 -6 5 -1q40 53 117 53q91 0 127 -76q2 -5 5 0q39 76 134 76z" />
<glyph unicode="n" horiz-adv-x="482" d="M265 513q70 0 110.5 -44.5t40.5 -121.5v-337q0 -10 -10 -10h-51q-10 0 -10 10v327q0 52 -27 83t-73 31q-47 0 -75.5 -31.5t-28.5 -84.5v-325q0 -10 -10 -10h-51q-10 0 -10 10v486q0 10 10 10h51q10 0 10 -10v-37q0 -7 5 -2q40 56 119 56z" />
<glyph unicode="o" horiz-adv-x="480" d="M240 -8q-72 0 -119 39.5t-57 106.5q-7 46 -7 116q0 69 7 114q9 67 56.5 106.5t120.5 39.5q71 0 118.5 -39.5t56.5 -105.5q7 -48 7 -115q0 -68 -7 -116q-10 -67 -57 -106.5t-119 -39.5zM240 54q43 0 72.5 26.5t35.5 70.5q4 39 4 102q0 65 -4 102q-6 44 -35.5 70.5 t-72.5 26.5t-72.5 -26.5t-35.5 -70.5q-4 -37 -4 -102t4 -102q6 -44 35.5 -70.5t72.5 -26.5z" />
<glyph unicode="p" horiz-adv-x="488" d="M425 370q8 -42 8 -116q0 -75 -7 -116q-12 -70 -52.5 -108t-106.5 -38q-80 0 -114 58q-3 3 -5 -1v-233q0 -10 -10 -10h-51q-10 0 -10 10v680q0 10 10 10h51q10 0 10 -10v-39q0 -3 2 -3.5t3 2.5q38 58 117 58q62 0 101.5 -37t53.5 -107zM351 138q11 43 11 115t-9 111 q-8 41 -34 64.5t-67 23.5q-39 0 -63.5 -23.5t-32.5 -63.5t-8 -112q0 -74 9 -113q7 -40 31 -63t63 -23t65 23t35 61z" />
<glyph unicode="q" horiz-adv-x="488" d="M340 496q0 10 10 10h51q10 0 10 -10v-680q0 -10 -10 -10h-51q-10 0 -10 10v233q-1 4 -5 1q-34 -58 -114 -58q-66 0 -106.5 38t-52.5 108q-7 41 -7 116q0 74 8 116q14 70 53.5 107t101.5 37q79 0 117 -58q1 -3 3 -2.5t2 3.5v39zM331 140q9 39 9 113q0 72 -8 112 t-32.5 63.5t-63.5 23.5q-41 0 -67 -23.5t-34 -64.5q-9 -39 -9 -111t11 -115q9 -38 35 -61t65 -23t63 23t31 63z" />
<glyph unicode="r" horiz-adv-x="328" d="M258 511q29 0 51 -12q7 -3 5 -12l-12 -51q-3 -9 -13 -6q-17 8 -47 5q-44 -2 -72.5 -38t-28.5 -89v-298q0 -10 -10 -10h-51q-10 0 -10 10v486q0 10 10 10h51q10 0 10 -10v-63q1 -4 4 -1q37 79 113 79z" />
<glyph unicode="s" horiz-adv-x="428" d="M220 -5q-77 0 -124 37t-47 95v9q0 10 10 10h48q10 0 10 -8v-9q0 -32 29 -55.5t74 -23.5q44 0 70.5 23t26.5 58q0 19 -8 33.5t-27.5 25.5t-34 17t-43.5 16q-34 12 -55 21t-46.5 26t-38 42.5t-12.5 59.5q0 64 45.5 101.5t119.5 37.5q76 0 121.5 -39t45.5 -100v-2 q0 -10 -10 -10h-47q-10 0 -10 7v7q0 34 -27.5 56.5t-72.5 22.5q-44 0 -70 -21.5t-26 -55.5q0 -19 7.5 -33t26 -25t33 -17t43.5 -16q36 -12 56 -21t47.5 -26.5t40.5 -43t13 -59.5q0 -64 -45.5 -102t-122.5 -38z" />
<glyph unicode="t" horiz-adv-x="315" d="M273 460q0 -10 -10 -10h-95q-4 0 -4 -4v-299q0 -47 18.5 -65.5t59.5 -18.5h17q10 0 10 -10v-42q0 -10 -10 -10q-5 0 -15 -0.5t-16 -0.5q-65 0 -99 26.5t-34 98.5v321q0 4 -4 4h-50q-10 0 -10 10v36q0 10 10 10h50q4 0 4 4v114q0 10 10 10h49q10 0 10 -10v-114q0 -4 4 -4 h95q10 0 10 -10v-36z" />
<glyph unicode="u" horiz-adv-x="480" d="M339 496q0 10 10 10h51q10 0 10 -10v-486q0 -10 -10 -10h-51q-10 0 -10 10v39q-1 4 -5 1q-35 -57 -116 -57q-68 0 -111 40t-43 116v347q0 10 10 10h51q10 0 10 -10v-329q0 -53 26 -82.5t73 -29.5q49 0 77 31.5t28 84.5v325z" />
<glyph unicode="v" horiz-adv-x="427" d="M185 0q-8 0 -11 8l-145 487q-3 11 9 11h56q9 0 11 -9l106 -391q1 -2 2.5 -2t2.5 2l106 391q2 9 11 9l57 -1q12 0 9 -11l-145 -486q-3 -8 -11 -8h-58z" />
<glyph unicode="w" horiz-adv-x="638" d="M163 0q-9 0 -11 9l-123 486q-3 11 8 11h50q9 0 11 -9l90 -392q2 -8 4 0l91 392q2 9 11 9h46q9 0 11 -9l93 -393q2 -8 4 0l92 393q2 9 11 9l50 -1q12 0 8 -11l-125 -485q-2 -9 -11 -9h-52q-9 0 -11 9l-91 370q-1 3 -2.5 3t-2.5 -3l-88 -370q-2 -9 -11 -9h-52z" />
<glyph unicode="x" horiz-adv-x="426" d="M33 0q-14 0 -7 12l144 238q2 3 0 6l-144 238q-7 12 7 12h56q7 0 12 -7l109 -183q1 -2 3 -2t3 2l108 183q5 7 12 7h57q14 0 7 -12l-144 -238q-2 -3 0 -6l144 -238q7 -12 -7 -12h-55q-7 0 -12 7l-109 184q-1 1 -3 1t-3 -1l-109 -184q-5 -7 -12 -7h-57z" />
<glyph unicode="y" horiz-adv-x="414" d="M51 -200q-7 0 -7 10v41q0 10 6 10h6q50 0 72 26t43 110v6l-149 492q-3 11 9 11h54q9 0 11 -8l109 -396q1 -2 2.5 -2t2.5 2l108 395q2 9 11 9h54q12 0 9 -11l-163 -539q-29 -97 -61.5 -126.5t-110.5 -29.5h-6z" />
<glyph unicode="z" horiz-adv-x="403" d="M43 0q-10 0 -10 10v48q0 8 4 13l245 365q5 5 -3 5h-232q-10 0 -10 10v45q0 10 10 10h311q10 0 10 -10v-48q0 -8 -4 -13l-247 -365q-5 -5 3 -5h239q10 0 10 -10v-45q0 -10 -10 -10h-316z" />
<glyph unicode="{" horiz-adv-x="288" d="M191 -121q-52 0 -76.5 28t-24.5 86v217q0 81 -52 90q-9 2 -9 10v40q0 8 9 10q52 9 52 89v212q0 58 24.5 85.5t76.5 27.5h58q10 0 10 -10v-42q0 -10 -10 -10h-32q-56 0 -56 -74v-194q0 -88 -49 -112q-5 -2 0 -5q49 -25 49 -112v-199q0 -75 56 -75h32q10 0 10 -10v-42 q0 -10 -10 -10h-58z" />
<glyph unicode="|" horiz-adv-x="155" d="M52 -80q-10 0 -10 10v820q0 10 10 10h51q10 0 10 -10v-820q0 -10 -10 -10h-51z" />
<glyph unicode="}" horiz-adv-x="288" d="M97 -121h-58q-10 0 -10 10v42q0 10 10 10h32q56 0 56 75v199q0 87 49 112q5 3 0 5q-49 24 -49 112v194q0 74 -56 74h-32q-10 0 -10 10v42q0 10 10 10h58q52 0 76.5 -27.5t24.5 -85.5v-212q0 -80 52 -89q9 -2 9 -10v-40q0 -8 -9 -10q-52 -9 -52 -90v-217q0 -58 -24.5 -86 t-76.5 -28z" />
<glyph unicode="~" horiz-adv-x="481" d="M332 232q-41 0 -99 33q-44 26 -75 26q-45 0 -73 -38l-2 -4q-5 -7 -12 -2l-27 18q-8 6 -5 13q15 34 46 55t69 21q41 0 84 -26q56 -33 91 -33q32 0 64 39q6 8 14 3l30 -20q8 -6 4 -13q-43 -72 -109 -72z" />
<glyph unicode="&#xa1;" horiz-adv-x="289" d="M142 708q25 0 42 -17t17 -42q0 -24 -17.5 -41.5t-41.5 -17.5q-23 0 -40.5 17.5t-17.5 41.5q0 25 16.5 42t41.5 17zM115 474q0 10 10 10h39q10 0 10 -10l6 -452q0 -10 -10 -10h-51q-10 0 -10 10z" />
<glyph unicode="&#xa2;" horiz-adv-x="461" d="M346 230q0 2 0.5 4t0.5 4q2 11 11 9l50 -4q9 -2 9 -9v-4q0 -4 -2 -12q-6 -53 -46.5 -90t-102.5 -45q-4 0 -4 -4l2 -68q0 -10 -10 -10h-42q-10 0 -10 10l2 70q0 4 -4 5q-57 10 -93 47.5t-44 94.5q-6 51 -6 116q0 51 6 115q8 56 44.5 93.5t92.5 47.5q4 1 4 5l-2 70 q0 10 10 10h42q10 0 10 -10l-2 -68q0 -4 4 -4q61 -8 101 -44t48 -88l3 -21q2 -11 -9 -11l-51 -3q-10 0 -11 9q0 9 -1 12q-5 35 -34.5 60t-72.5 25q-44 0 -72.5 -27t-33.5 -70t-5 -102q0 -60 5 -103q5 -44 33.5 -70t72.5 -26t73.5 25t33.5 61z" />
<glyph unicode="&#xa3;" horiz-adv-x="555" d="M195 67q-3 -5 3 -5h313q10 0 10 -10v-42q0 -10 -10 -10h-389q-10 0 -10 10v44q0 8 7 12q45 34 45 121v117q0 4 -4 4h-67q-10 0 -10 10v39q0 10 10 10h67q4 0 4 4v141q0 89 46.5 141t127.5 55q136 6 173 -134q3 -10 -7 -12l-48 -8q-9 -2 -12 7q-24 88 -103 85 q-51 -2 -79 -35.5t-28 -96.5v-143q0 -4 4 -4h168q10 0 10 -10v-39q0 -10 -10 -10h-168q-4 0 -4 -4v-115q0 -80 -39 -122z" />
<glyph unicode="&#xa4;" horiz-adv-x="516" d="M453 301q0 -63 -36 -113q-2 -3 1 -6l65 -64q7 -6 -1 -14l-31 -28q-7 -6 -14 1l-63 62q-3 3 -6 1q-50 -36 -114 -36q-60 0 -109 33q-3 2 -6 -1l-59 -59q-8 -7 -14 -1l-32 28q-8 8 -1 14l61 60q3 3 1 6q-40 53 -40 117q0 65 37 114q2 3 -1 6l-65 64q-6 7 1 14l32 28 q7 7 14 -1l62 -62q3 -3 6 -1q50 36 113 36q67 0 118 -39q3 -2 6 1l65 65q7 8 14 1l32 -28q7 -7 1 -14l-69 -68q-3 -3 -1 -6q33 -49 33 -110zM118 301q0 -56 40 -96t96 -40q57 0 97 40t40 96t-40.5 96.5t-96.5 40.5t-96 -40t-40 -97z" />
<glyph unicode="&#xa5;" horiz-adv-x="606" d="M504 700q13 0 8 -12l-160 -343q-2 -5 3 -5h121q10 0 10 -10v-24q0 -10 -10 -10h-135q-4 0 -4 -4v-74q0 -4 4 -4h135q10 0 10 -10v-24q0 -10 -10 -10h-135q-4 0 -4 -4v-155q0 -10 -10 -10h-51q-10 0 -10 10v155q0 4 -4 4h-134q-10 0 -10 10v24q0 10 10 10h134q4 0 4 4v74 q0 4 -4 4h-134q-10 0 -10 10v24q0 10 10 10h120q6 0 3 5l-159 343q-5 12 8 12h54q8 0 11 -8l134 -299q1 -2 3 -2t3 2l134 299q3 8 11 8h54z" />
<glyph unicode="&#xa6;" horiz-adv-x="155" d="M52 391q-10 0 -10 10v349q0 10 10 10h51q10 0 10 -10v-349q0 -10 -10 -10h-51zM52 -80q-10 0 -10 10v345q0 10 10 10h51q10 0 10 -10v-345q0 -10 -10 -10h-51z" />
<glyph unicode="&#xa7;" horiz-adv-x="427" d="M216 -207q-70 0 -111.5 44t-42.5 117v18q0 10 10 10h51q10 0 10 -10v-12q0 -47 23 -76t61 -29t62 28.5t24 71.5q0 27 -10 47t-31 34.5t-36 21.5t-42 17q-42 16 -68.5 34.5t-42.5 49.5q-19 39 -19 86q0 52 26 95q25 42 71 57q5 2 0 5q-41 20 -66.5 58.5t-25.5 89.5 q0 67 44 112.5t114 45.5q68 0 110.5 -44.5t43.5 -115.5v-14q0 -10 -10 -10h-51q-10 0 -10 10v10q0 45 -23.5 73.5t-60.5 28.5q-38 0 -62 -29.5t-24 -72.5q0 -46 28.5 -72.5t84.5 -47.5q25 -10 37.5 -15.5t34 -20.5t34.5 -33q30 -38 30 -100q0 -54 -22 -96q-26 -49 -72 -61 q-6 0 0 -4q89 -44 89 -144q0 -68 -44 -112.5t-114 -44.5zM216 139q54 0 78 45q15 30 15 66q0 43 -21 72q-27 36 -72 36q-51 0 -77 -49q-13 -27 -13 -63q0 -38 14 -63q24 -44 76 -44z" />
<glyph unicode="&#xa8;" horiz-adv-x="292" d="M72 597q-20 0 -33 13t-13 34q0 20 13 33t33 13q19 0 32 -13t13 -33q0 -21 -12.5 -34t-32.5 -13zM222 597q-20 0 -33 13t-13 34q0 20 13 33t33 13q19 0 32 -13t13 -33q0 -21 -12.5 -34t-32.5 -13z" />
<glyph unicode="&#xa9;" horiz-adv-x="852" d="M425 -8q-155 0 -258 102.5t-103 255.5t103 255.5t258 102.5q156 0 259.5 -102.5t103.5 -255.5t-103.5 -255.5t-259.5 -102.5zM425 36q136 0 226.5 90t90.5 224t-90.5 224t-226.5 90t-226 -90t-90 -224t90 -224t226 -90zM426 176q-44 0 -71 25t-27 67v162q0 41 27 66 t71 25q45 0 72 -24.5t27 -65.5v-3q0 -10 -10 -10h-23q-10 0 -10 8v7q0 22 -15.5 36t-40.5 14t-39.5 -13.5t-14.5 -36.5v-169q0 -23 14.5 -36.5t39.5 -13.5t40.5 14t15.5 36v6q0 10 10 10l23 -1q10 0 10 -6v-7q0 -40 -27.5 -65t-71.5 -25z" />
<glyph unicode="&#xaa;" horiz-adv-x="299" d="M149 563h59q4 0 4 4v26q0 34 -17.5 54t-50.5 20q-23 0 -41 -12t-23 -32q-2 -10 -11 -8l-28 2q-11 0 -9 11q6 36 37 58t76 22q53 0 84 -30t31 -80v-219q0 -10 -10 -10h-28q-10 0 -10 10v17q0 7 -5 2q-28 -34 -83 -34q-43 0 -72.5 22t-29.5 72q0 52 34 78.5t93 26.5z M132 403q33 0 56.5 18t23.5 51v48q0 4 -4 4h-57q-37 0 -59 -16.5t-22 -47.5q0 -57 62 -57zM21 298q0 10 10 10h228q10 0 10 -10v-29q0 -10 -10 -10h-228q-10 0 -10 10v29z" />
<glyph unicode="&#xab;" horiz-adv-x="506" d="M261 119q4 -5 2 -8.5t-8 -3.5h-46q-9 0 -13 6l-117 161q-4 7 0 14l117 161q4 6 13 6h46q6 0 8 -3.5t-2 -8.5l-116 -159q-1 -3 0 -6zM415 119q4 -5 2 -8.5t-8 -3.5h-46q-9 0 -13 6l-117 161q-4 7 0 14l117 161q4 6 13 6h46q6 0 8 -3.5t-2 -8.5l-116 -159q-1 -3 0 -6z" />
<glyph unicode="&#xac;" d="M36 334q0 10 10 10h379q10 0 10 -10v-155q0 -10 -10 -10h-40q-10 0 -10 10v103q0 4 -4 4h-325q-10 0 -10 10v38z" />
<glyph unicode="&#xad;" horiz-adv-x="354" d="M46 280q-10 0 -10 10v42q0 10 10 10h262q10 0 10 -10v-42q0 -10 -10 -10h-262z" />
<glyph unicode="&#xae;" horiz-adv-x="444" d="M222 714q82 0 139.5 -56.5t57.5 -137.5q0 -82 -57 -139t-140 -57q-82 0 -139 57t-57 139q0 81 57 137.5t139 56.5zM222 359q68 0 114.5 46.5t46.5 114.5q0 66 -47 112.5t-114 46.5t-113.5 -46.5t-46.5 -112.5q0 -68 46.5 -114.5t113.5 -46.5zM286 555q0 -35 -27 -46 q-3 -2 -2 -6l26 -62q5 -12 -8 -12h-13q-8 0 -11 8l-26 64q-1 3 -4 3h-15q-4 0 -4 -4v-61q0 -10 -10 -10h-11q-10 0 -10 10v159q0 10 10 10h52q24 0 38.5 -15t14.5 -38zM206 581q-4 0 -4 -4v-45q0 -4 4 -4h23q11 0 18.5 7.5t7.5 18.5q0 27 -26 27h-23z" />
<glyph unicode="&#xaf;" horiz-adv-x="380" d="M82 595q-10 0 -10 10v31q0 10 10 10h215q10 0 10 -10v-31q0 -10 -10 -10h-215z" />
<glyph unicode="&#xb0;" horiz-adv-x="370" d="M185 488q-67 0 -113 46.5t-46 113.5t46 113.5t113 46.5t113 -46.5t46 -113.5t-46 -113.5t-113 -46.5zM185 539q45 0 76.5 31.5t31.5 77.5t-31.5 78t-76.5 32q-46 0 -77.5 -32t-31.5 -78t31.5 -77.5t77.5 -31.5z" />
<glyph unicode="&#xb1;" d="M265 384q0 -4 4 -4h156q10 0 10 -10v-38q0 -10 -10 -10h-156q-4 0 -4 -4v-155q0 -10 -10 -10h-39q-10 0 -10 10v155q0 4 -4 4h-156q-10 0 -10 10v38q0 10 10 10h156q4 0 4 4v159q0 10 10 10h39q10 0 10 -10v-159zM46 14q-10 0 -10 10v38q0 10 10 10h379q10 0 10 -10v-38 q0 -10 -10 -10h-379z" />
<glyph unicode="&#xb2;" horiz-adv-x="285" d="M39 442q-10 0 -10 10v27q0 6 4 13q54 70 120 160q46 67 46 106q0 30 -17 47t-44 17q-26 0 -42.5 -17.5t-16.5 -45.5v-17q0 -10 -10 -10h-31q-10 0 -10 10v21q1 47 32 75.5t79 28.5q50 0 80.5 -29.5t30.5 -80.5q0 -50 -45 -120q-18 -27 -55.5 -78t-49.5 -68q-3 -5 2 -5 h149q10 0 10 -10v-24q0 -10 -10 -10h-212z" />
<glyph unicode="&#xb3;" horiz-adv-x="293" d="M245 639q11 -30 11 -69q0 -37 -11 -65q-24 -69 -102 -69q-42 0 -70.5 23.5t-36.5 62.5q-3 11 -5 38q0 10 10 10h31q10 0 10 -10q0 -16 3 -26q10 -53 58 -53q37 0 54 35q9 22 9 57t-9 58q-15 38 -54 38q-7 0 -15 -3q-9 -3 -14 3l-15 16q-6 6 0 14l89 113q2 2 1 3.5t-3 1.5 h-141q-10 0 -10 10v24q0 10 10 10h198q10 0 10 -10v-27q0 -7 -4 -12l-81 -104q-2 -2 -1 -3.5t3 -1.5q54 -6 75 -64z" />
<glyph unicode="&#xb4;" horiz-adv-x="193" d="M39 577q-14 0 -7 12l61 109q5 7 12 7h48q13 0 6 -12l-69 -109q-5 -7 -12 -7h-39z" />
<glyph unicode="&#xb5;" horiz-adv-x="488" d="M345 496q0 10 10 10h51q10 0 10 -10v-486q0 -10 -10 -10h-51q-10 0 -10 10v39q-1 4 -5 1q-35 -57 -116 -57q-44 0 -78 18q-5 2 -5 -3v-198q0 -10 -10 -10h-51q-10 0 -10 10v686q0 10 10 10h51q10 0 10 -10v-329q0 -53 26 -82.5t73 -29.5q49 0 77 31.5t28 84.5v325z" />
<glyph unicode="&#xb6;" horiz-adv-x="523" d="M230 700h202q10 0 10 -10v-880q0 -10 -10 -10h-37q-10 0 -10 10v830q0 4 -4 4h-104q-4 0 -4 -4v-830q0 -10 -10 -10h-38q-10 0 -10 10v436q0 4 -4 4q-78 7 -127 70t-49 155q0 96 54.5 160.5t140.5 64.5z" />
<glyph unicode="&#xb7;" horiz-adv-x="117" d="M50 3q-25 0 -42 17t-17 42q0 24 17.5 41.5t41.5 17.5q23 0 40.5 -17.5t17.5 -41.5q0 -25 -17 -42t-41 -17z" />
<glyph unicode="&#xb8;" horiz-adv-x="130" d="M10 -182q-8 3 -7 12l3 22q2 11 12 8q23 -6 39.5 2.5t20.5 31.5q8 45 -44 94q-5 4 -4 8t8 4h26q8 0 13 -4q65 -55 51 -122q-9 -42 -44.5 -53.5t-73.5 -2.5z" />
<glyph unicode="&#xb9;" horiz-adv-x="165" d="M70 859q6 3 13 3h34q10 0 10 -10v-400q0 -10 -10 -10h-31q-10 0 -10 10v357q0 2 -1.5 3.5t-2.5 0.5l-29 -8q-11 -3 -11 9v18q0 9 7 12z" />
<glyph unicode="&#xba;" horiz-adv-x="314" d="M157 365q-47 0 -77.5 26t-37.5 71q-5 26 -5 75q0 47 4 75q7 44 38 70t78 26t77.5 -26t37.5 -70q5 -37 5 -75t-5 -75q-6 -44 -37 -70.5t-78 -26.5zM157 408q26 0 44.5 17t22.5 45q3 28 3 67q0 37 -3 66q-4 28 -22 45t-45 17t-45 -17t-22 -45q-3 -29 -3 -66q0 -39 3 -67 q4 -28 22 -45t45 -17zM39 260q-10 0 -10 10v30q0 10 10 10h236q10 0 10 -10v-30q0 -10 -10 -10h-236z" />
<glyph unicode="&#xbb;" horiz-adv-x="506" d="M98 107q-6 0 -8 3.5t2 8.5l116 159q2 3 0 6l-116 159q-4 5 -2 8.5t8 3.5h46q9 0 13 -6l117 -161q4 -7 0 -14l-117 -161q-4 -6 -13 -6h-46zM252 107q-6 0 -8 3.5t2 8.5l116 159q2 3 0 6l-116 159q-4 5 -2 8.5t8 3.5h46q9 0 13 -6l117 -161q4 -7 0 -14l-117 -161 q-4 -6 -13 -6h-46z" />
<glyph unicode="&#xbc;" horiz-adv-x="729" d="M127 290q0 -10 -10 -10h-31q-10 0 -10 10v357q0 2 -1.5 3.5t-2.5 0.5l-29 -8q-11 -3 -11 9v18q0 9 7 12l31 15q6 3 13 3h34q10 0 10 -10v-400zM517 693q5 7 12 7h33q13 0 6 -12l-428 -681q-5 -7 -12 -7h-33q-13 0 -6 12zM696 159q10 0 10 -10v-26q0 -10 -10 -10h-17 q-4 0 -4 -4v-99q0 -10 -10 -10h-31q-10 0 -10 10v99q0 4 -4 4h-154q-10 0 -10 10v23q0 7 2 12l102 254q3 8 11 8h34q12 0 7 -12l-96 -244q-2 -5 3 -5h101q4 0 4 4v84q0 10 10 10h31q10 0 10 -10v-84q0 -4 4 -4h17z" />
<glyph unicode="&#xbd;" horiz-adv-x="725" d="M127 290q0 -10 -10 -10h-31q-10 0 -10 10v357q0 2 -1.5 3.5t-2.5 0.5l-29 -8q-11 -3 -11 9v18q0 9 7 12l31 15q6 3 13 3h34q10 0 10 -10v-400zM517 693q5 7 12 7h33q13 0 6 -12l-428 -681q-5 -7 -12 -7h-33q-13 0 -6 12zM540 49q-3 -5 2 -5h149q10 0 10 -10v-24 q0 -10 -10 -10h-212q-10 0 -10 10v27q0 6 4 13q54 70 120 160q46 67 46 106q0 30 -17 47t-44 17q-26 0 -42.5 -17.5t-16.5 -45.5v-17q0 -10 -10 -10h-31q-10 0 -10 10v21q1 47 32 75.5t79 28.5q50 0 80.5 -29.5t30.5 -80.5q0 -50 -45 -120q-18 -27 -55.5 -78t-49.5 -68z" />
<glyph unicode="&#xbe;" horiz-adv-x="813" d="M245 346q-24 -69 -102 -69q-42 0 -70.5 23.5t-36.5 62.5q-3 11 -5 38q0 10 10 10h31q10 0 10 -10q0 -15 3 -26q10 -53 58 -53q37 0 54 35q9 23 9 57q0 36 -9 58q-15 38 -54 38q-7 0 -15 -3q-9 -3 -14 3l-15 16q-6 6 0 14l89 113q2 1 1 3t-3 2h-141q-10 0 -10 10v24 q0 10 10 10h198q10 0 10 -10v-27q0 -7 -4 -12l-81 -104q-5 -5 3 -5q53 -6 74 -64q11 -30 11 -69q0 -37 -11 -65zM601 693q5 7 12 7h33q13 0 6 -12l-428 -681q-5 -7 -12 -7h-33q-13 0 -6 12zM780 159q10 0 10 -10v-26q0 -10 -10 -10h-17q-4 0 -4 -4v-99q0 -10 -10 -10h-31 q-10 0 -10 10v99q0 4 -4 4h-154q-10 0 -10 10v23q0 7 2 12l102 254q3 8 11 8h34q12 0 7 -12l-96 -244q-2 -5 3 -5h101q4 0 4 4v84q0 10 10 10h31q10 0 10 -10v-84q0 -4 4 -4h17z" />
<glyph unicode="&#xbf;" horiz-adv-x="415" d="M220 498q23 0 39 -16.5t16 -40.5q0 -23 -16.5 -40t-39.5 -17q-22 0 -39 17t-17 40q0 24 17 40.5t40 16.5zM249 300q10 0 10 -10v-59q0 -36 -15.5 -64t-37.5 -48t-44.5 -39.5t-38 -48t-15.5 -64.5q0 -50 27.5 -80.5t71.5 -30.5q46 0 74.5 31t28.5 81v31q0 10 10 10l51 -3 q10 0 10 -10v-28q0 -79 -48.5 -128t-126.5 -49q-77 0 -123.5 48t-46.5 128q0 46 15.5 82t38 57.5t44.5 40t37.5 40.5t15.5 48v55q0 10 10 10h52z" />
<glyph unicode="&#xc0;" horiz-adv-x="531" d="M288 783q7 -12 -7 -12h-39q-7 0 -12 7l-69 109q-7 12 6 12h48q7 0 12 -7zM434 0q-9 0 -11 9l-33 125q-1 3 -5 3h-239q-4 0 -5 -3l-33 -125q-2 -9 -11 -9h-52q-12 0 -9 11l186 680q2 9 11 9h64q9 0 11 -9l187 -680q3 -11 -9 -11h-52zM158 199q-2 -4 4 -4h207q6 0 4 4 l-105 400q-2 6 -4 0z" />
<glyph unicode="&#xc1;" horiz-adv-x="531" d="M344 899q13 0 6 -12l-69 -109q-5 -7 -12 -7h-39q-14 0 -7 12l61 109q5 7 12 7h48zM434 0q-9 0 -11 9l-33 125q-1 3 -5 3h-239q-4 0 -5 -3l-33 -125q-2 -9 -11 -9h-52q-12 0 -9 11l186 680q2 9 11 9h64q9 0 11 -9l187 -680q3 -11 -9 -11h-52zM158 199q-2 -4 4 -4h207 q6 0 4 4l-105 400q-2 6 -4 0z" />
<glyph unicode="&#xc2;" horiz-adv-x="531" d="M267 849q-1 1 -3 1t-3 -1l-52 -79q-5 -6 -12 -6h-41q-6 0 -8 4t2 8l74 106q4 6 12 6h54q8 0 12 -6l76 -106q4 -4 2 -8t-8 -4h-41q-7 0 -12 6zM434 0q-9 0 -11 9l-33 125q-1 3 -5 3h-239q-4 0 -5 -3l-33 -125q-2 -9 -11 -9h-52q-12 0 -9 11l186 680q2 9 11 9h64q9 0 11 -9 l187 -680q3 -11 -9 -11h-52zM158 199q-2 -4 4 -4h207q6 0 4 4l-105 400q-2 6 -4 0z" />
<glyph unicode="&#xc3;" horiz-adv-x="531" d="M226 830q-28 0 -47 -26q-6 -9 -14 -3l-18 13q-9 5 -4 13q28 53 79 53q21 0 59 -23q31 -21 47 -21q27 0 46 28q5 10 14 4l19 -12q8 -6 4 -14q-30 -55 -83 -55q-24 0 -57 23q-31 20 -45 20zM434 0q-9 0 -11 9l-33 125q-1 3 -5 3h-239q-4 0 -5 -3l-33 -125q-2 -9 -11 -9h-52 q-12 0 -9 11l186 680q2 9 11 9h64q9 0 11 -9l187 -680q3 -11 -9 -11h-52zM158 199q-2 -4 4 -4h207q6 0 4 4l-105 400q-2 6 -4 0z" />
<glyph unicode="&#xc4;" horiz-adv-x="531" d="M191 791q-20 0 -33 13t-13 34q0 20 13.5 33t32.5 13t32 -13t13 -33q0 -21 -12.5 -34t-32.5 -13zM341 791q-20 0 -33 13t-13 34q0 20 13 33t33 13q19 0 32 -13t13 -33q0 -21 -12.5 -34t-32.5 -13zM434 0q-9 0 -11 9l-33 125q-1 3 -5 3h-239q-4 0 -5 -3l-33 -125 q-2 -9 -11 -9h-52q-12 0 -9 11l186 680q2 9 11 9h64q9 0 11 -9l187 -680q3 -11 -9 -11h-52zM158 199q-2 -4 4 -4h207q6 0 4 4l-105 400q-2 6 -4 0z" />
<glyph unicode="&#xc5;" horiz-adv-x="531" d="M265 765q-43 0 -73 29.5t-30 72.5t30 73t73 30t72.5 -30t29.5 -73t-29.5 -72.5t-72.5 -29.5zM265 932q-27 0 -45.5 -19t-18.5 -46t19 -45.5t45 -18.5t44.5 18.5t18.5 45.5t-18.5 46t-44.5 19zM434 0q-9 0 -11 9l-33 125q-1 3 -5 3h-239q-4 0 -5 -3l-33 -125q-2 -9 -11 -9 h-52q-12 0 -9 11l186 680q2 9 11 9h64q9 0 11 -9l187 -680q3 -11 -9 -11h-52zM158 199q-2 -4 4 -4h207q6 0 4 4l-105 400q-2 6 -4 0z" />
<glyph unicode="&#xc6;" horiz-adv-x="821" d="M772 648q0 -10 -10 -10h-286q-4 0 -4 -4v-248q0 -4 4 -4h188q10 0 10 -10v-42q0 -10 -10 -10h-188q-4 0 -4 -4v-250q0 -4 4 -4h286q10 0 10 -10v-42q0 -10 -10 -10h-352q-10 0 -10 10v123q0 4 -4 4h-219q-3 0 -4 -3l-60 -127q-3 -7 -12 -7h-55q-12 0 -7 12l327 681 q3 7 12 7h384q10 0 10 -10v-42zM204 200q-2 -5 3 -5h189q4 0 4 4l1 404q-1 4 -5 1z" />
<glyph unicode="&#xc7;" horiz-adv-x="526" d="M469 505q0 -10 -10 -10l-51 -2q-10 0 -10 9v14q0 58 -36.5 94t-95.5 36t-95 -35.5t-36 -94.5v-332q0 -59 36 -94.5t95 -35.5t95.5 36t36.5 94v14q0 9 10 9l51 -3q10 0 10 -8v-9q0 -84 -50.5 -136.5t-134.5 -58.5q-7 0 -2 -5q55 -50 43 -113q-9 -42 -44.5 -53.5 t-73.5 -2.5q-8 3 -7 12l3 22q2 11 12 8q23 -6 39.5 2.5t20.5 31.5q10 48 -51 100q-1 2 -5 2q-71 13 -113 64.5t-42 128.5v323q0 89 55.5 142.5t146.5 53.5q92 0 147.5 -53t55.5 -141v-9z" />
<glyph unicode="&#xc8;" horiz-adv-x="517" d="M296 794q7 -12 -7 -12h-39q-7 0 -12 7l-69 109q-7 12 6 12h48q7 0 12 -7zM468 648q0 -10 -10 -10h-300q-4 0 -4 -4v-248q0 -4 4 -4h202q10 0 10 -10v-42q0 -10 -10 -10h-202q-4 0 -4 -4v-250q0 -4 4 -4h300q10 0 10 -10v-42q0 -10 -10 -10h-365q-10 0 -10 10v680 q0 10 10 10h365q10 0 10 -10v-42z" />
<glyph unicode="&#xc9;" horiz-adv-x="517" d="M352 910q13 0 6 -12l-69 -109q-5 -7 -12 -7h-39q-14 0 -7 12l61 109q5 7 12 7h48zM468 648q0 -10 -10 -10h-300q-4 0 -4 -4v-248q0 -4 4 -4h202q10 0 10 -10v-42q0 -10 -10 -10h-202q-4 0 -4 -4v-250q0 -4 4 -4h300q10 0 10 -10v-42q0 -10 -10 -10h-365q-10 0 -10 10v680 q0 10 10 10h365q10 0 10 -10v-42z" />
<glyph unicode="&#xca;" horiz-adv-x="517" d="M275 860q-1 2 -3 2t-3 -2l-52 -79q-5 -6 -12 -6h-41q-6 0 -8 3.5t2 8.5l74 106q4 6 12 6h54q8 0 12 -6l76 -106q4 -5 2 -8.5t-8 -3.5h-41q-7 0 -12 6zM468 648q0 -10 -10 -10h-300q-4 0 -4 -4v-248q0 -4 4 -4h202q10 0 10 -10v-42q0 -10 -10 -10h-202q-4 0 -4 -4v-250 q0 -4 4 -4h300q10 0 10 -10v-42q0 -10 -10 -10h-365q-10 0 -10 10v680q0 10 10 10h365q10 0 10 -10v-42z" />
<glyph unicode="&#xcb;" horiz-adv-x="517" d="M199 802q-20 0 -33 13t-13 34q0 19 13.5 32.5t32.5 13.5t32 -13t13 -33q0 -21 -12.5 -34t-32.5 -13zM349 802q-20 0 -33 13t-13 34q0 20 13 33t33 13q19 0 32 -13t13 -33q0 -21 -12.5 -34t-32.5 -13zM468 648q0 -10 -10 -10h-300q-4 0 -4 -4v-248q0 -4 4 -4h202 q10 0 10 -10v-42q0 -10 -10 -10h-202q-4 0 -4 -4v-250q0 -4 4 -4h300q10 0 10 -10v-42q0 -10 -10 -10h-365q-10 0 -10 10v680q0 10 10 10h365q10 0 10 -10v-42z" />
<glyph unicode="&#xcc;" horiz-adv-x="237" d="M141 794q7 -12 -7 -12h-39q-7 0 -12 7l-69 109q-7 12 6 12h48q7 0 12 -7zM93 0q-10 0 -10 10v680q0 10 10 10h51q10 0 10 -10v-680q0 -10 -10 -10h-51z" />
<glyph unicode="&#xcd;" horiz-adv-x="237" d="M83 782q-14 0 -7 12l61 109q5 7 12 7h48q13 0 6 -12l-69 -109q-5 -7 -12 -7h-39zM93 0q-10 0 -10 10v680q0 10 10 10h51q10 0 10 -10v-680q0 -10 -10 -10h-51z" />
<glyph unicode="&#xce;" horiz-adv-x="237" d="M9 775q-6 0 -8 3.5t2 8.5l74 106q4 6 12 6h54q8 0 12 -6l76 -106q4 -5 2 -8.5t-8 -3.5h-41q-8 0 -12 6l-52 79q-1 2 -3 2t-3 -2l-52 -79q-4 -6 -12 -6h-41zM93 0q-10 0 -10 10v680q0 10 10 10h51q10 0 10 -10v-680q0 -10 -10 -10h-51z" />
<glyph unicode="&#xcf;" horiz-adv-x="237" d="M44 802q-20 0 -33 13t-13 34q0 19 13 32.5t33 13.5q19 0 32 -13t13 -33q0 -21 -12.5 -34t-32.5 -13zM194 802q-20 0 -33 13t-13 34q0 20 13 33t33 13q19 0 32 -13t13 -33q0 -21 -12.5 -34t-32.5 -13zM93 0q-10 0 -10 10v680q0 10 10 10h51q10 0 10 -10v-680 q0 -10 -10 -10h-51z" />
<glyph unicode="&#xd0;" horiz-adv-x="596" d="M342 700q89 0 140.5 -51t51.5 -139v-320q0 -88 -51.5 -139t-140.5 -51h-195q-10 0 -10 10v327q0 4 -4 4h-40q-10 0 -10 10v28q0 10 10 10h40q4 0 4 4v297q0 10 10 10h195zM463 196v308q0 62 -32 98t-88 36h-131q-4 0 -4 -4v-241q0 -4 4 -4h97q10 0 10 -10v-28 q0 -10 -10 -10h-97q-4 0 -4 -4v-271q0 -4 4 -4h131q55 1 87 36.5t33 97.5z" />
<glyph unicode="&#xd1;" horiz-adv-x="583" d="M354 798q-24 0 -57 23q-31 20 -45 20q-28 0 -47 -26q-6 -9 -14 -3l-18 13q-9 5 -4 13q28 53 79 53q21 0 59 -23q32 -21 47 -21q27 0 46 28q5 10 14 4l19 -12q9 -6 0 -20q-29 -49 -79 -49zM93 0q-10 0 -10 10v680q0 10 10 10h51q9 0 12 -7l269 -527q3 -3 5 1v523 q0 10 10 10h51q10 0 10 -10v-680q0 -10 -10 -10h-52q-9 0 -12 7l-269 529q-3 2 -5 -2l1 -524q0 -10 -10 -10h-51z" />
<glyph unicode="&#xd2;" horiz-adv-x="539" d="M292 788q7 -12 -7 -12h-39q-7 0 -12 7l-69 109q-7 12 6 12h48q7 0 12 -7zM269 -8q-92 0 -148.5 56t-56.5 147v309q0 92 56.5 148t148.5 56t149 -56.5t57 -147.5v-309q0 -91 -57 -147t-149 -56zM269 54q61 0 98 38t37 100v314q0 63 -37 101.5t-98 38.5q-60 0 -97 -38.5 t-37 -101.5v-314q0 -62 37 -100t97 -38z" />
<glyph unicode="&#xd3;" horiz-adv-x="539" d="M234 776q-14 0 -7 12l61 109q5 7 12 7h48q13 0 6 -12l-69 -109q-5 -7 -12 -7h-39zM269 -8q-92 0 -148.5 56t-56.5 147v309q0 92 56.5 148t148.5 56t149 -56.5t57 -147.5v-309q0 -91 -57 -147t-149 -56zM269 54q61 0 98 38t37 100v314q0 63 -37 101.5t-98 38.5 q-60 0 -97 -38.5t-37 -101.5v-314q0 -62 37 -100t97 -38z" />
<glyph unicode="&#xd4;" horiz-adv-x="539" d="M160 769q-6 0 -8 3.5t2 8.5l74 106q4 6 12 6h54q8 0 12 -6l76 -106q4 -5 2 -8.5t-8 -3.5h-41q-7 0 -12 6l-52 79q-1 2 -3 2t-3 -2l-52 -79q-5 -6 -12 -6h-41zM269 -8q-92 0 -148.5 56t-56.5 147v309q0 92 56.5 148t148.5 56t149 -56.5t57 -147.5v-309q0 -91 -57 -147 t-149 -56zM269 54q61 0 98 38t37 100v314q0 63 -37 101.5t-98 38.5q-60 0 -97 -38.5t-37 -101.5v-314q0 -62 37 -100t97 -38z" />
<glyph unicode="&#xd5;" horiz-adv-x="539" d="M332 792q-24 0 -57 23q-31 20 -45 20q-28 0 -47 -26q-6 -9 -14 -3l-18 13q-9 5 -4 13q28 53 79 53q21 0 59 -23q31 -21 47 -21q27 0 46 28q5 10 14 4l19 -12q9 -6 0 -20q-29 -49 -79 -49zM269 -8q-92 0 -148.5 56t-56.5 147v309q0 92 56.5 148t148.5 56t149 -56.5 t57 -147.5v-309q0 -91 -57 -147t-149 -56zM269 54q61 0 98 38t37 100v314q0 63 -37 101.5t-98 38.5q-60 0 -97 -38.5t-37 -101.5v-314q0 -62 37 -100t97 -38z" />
<glyph unicode="&#xd6;" horiz-adv-x="539" d="M195 796q-20 0 -33 13t-13 34q0 19 13.5 32.5t32.5 13.5t32 -13t13 -33q0 -21 -12.5 -34t-32.5 -13zM345 796q-20 0 -33 13t-13 34q0 20 13 33t33 13q19 0 32 -13t13 -33q0 -21 -12.5 -34t-32.5 -13zM269 -8q-92 0 -148.5 56t-56.5 147v309q0 92 56.5 148t148.5 56 t149 -56.5t57 -147.5v-309q0 -91 -57 -147t-149 -56zM269 54q61 0 98 38t37 100v314q0 63 -37 101.5t-98 38.5q-60 0 -97 -38.5t-37 -101.5v-314q0 -62 37 -100t97 -38z" />
<glyph unicode="&#xd7;" horiz-adv-x="396" d="M354 443q7 -7 0 -14l-110 -111q-3 -3 0 -6l109 -109q7 -7 0 -14l-28 -28q-7 -7 -14 0l-109 109q-3 3 -6 0l-110 -110q-7 -7 -14 0l-27 27q-7 7 0 14l110 110q3 3 0 6l-113 113q-7 7 0 14l28 28q7 7 14 0l113 -113q3 -3 6 0l110 111q7 7 14 0z" />
<glyph unicode="&#xd8;" horiz-adv-x="559" d="M430 650q-1 -3 1 -5q51 -54 51 -141v-309q0 -91 -57 -147t-149 -56q-69 0 -119 33q-5 2 -6 -2l-25 -54q-3 -8 -11 -8h-34q-13 0 -8 12l39 87q1 2 -1 6q-40 51 -40 129v309q0 92 56.5 148t148.5 56q62 0 108 -26q5 -2 6 2l24 53q3 8 11 8h35q13 0 8 -12zM142 192 q0 -26 5 -42q1 -2 2.5 -2t2.5 2l208 466q1 3 -2 5q-33 25 -82 25q-60 0 -97 -38.5t-37 -101.5v-314zM411 192v314q0 34 -11 62q-4 6 -6 0l-212 -475q-1 -3 1 -5q36 -34 93 -34q61 0 98 38t37 100z" />
<glyph unicode="&#xd9;" horiz-adv-x="562" d="M304 795q7 -12 -7 -12h-39q-7 0 -12 7l-69 109q-7 12 6 12h48q7 0 12 -7zM281 -8q-92 0 -148.5 57t-56.5 151v490q0 10 10 10h51q10 0 10 -10v-494q0 -64 37 -103t97 -39t97 39t37 103v494q0 10 10 10h51q10 0 10 -10v-490q0 -94 -56.5 -151t-148.5 -57z" />
<glyph unicode="&#xda;" horiz-adv-x="562" d="M246 783q-14 0 -7 12l61 109q5 7 12 7h48q13 0 6 -12l-69 -109q-5 -7 -12 -7h-39zM281 -8q-92 0 -148.5 57t-56.5 151v490q0 10 10 10h51q10 0 10 -10v-494q0 -64 37 -103t97 -39t97 39t37 103v494q0 10 10 10h51q10 0 10 -10v-490q0 -94 -56.5 -151t-148.5 -57z" />
<glyph unicode="&#xdb;" horiz-adv-x="562" d="M172 776q-6 0 -8 4t2 8l74 106q4 6 12 6h54q8 0 12 -6l76 -106q4 -4 2 -8t-8 -4h-41q-7 0 -12 6l-52 79q-1 1 -3 1t-3 -1l-52 -79q-5 -6 -12 -6h-41zM281 -8q-92 0 -148.5 57t-56.5 151v490q0 10 10 10h51q10 0 10 -10v-494q0 -64 37 -103t97 -39t97 39t37 103v494 q0 10 10 10h51q10 0 10 -10v-490q0 -94 -56.5 -151t-148.5 -57z" />
<glyph unicode="&#xdc;" horiz-adv-x="562" d="M207 803q-20 0 -33 13t-13 34q0 20 13.5 33t32.5 13t32 -13t13 -33q0 -21 -12.5 -34t-32.5 -13zM357 803q-20 0 -33 13t-13 34q0 20 13 33t33 13q19 0 32 -13t13 -33q0 -21 -12.5 -34t-32.5 -13zM281 -8q-92 0 -148.5 57t-56.5 151v490q0 10 10 10h51q10 0 10 -10v-494 q0 -64 37 -103t97 -39t97 39t37 103v494q0 10 10 10h51q10 0 10 -10v-490q0 -94 -56.5 -151t-148.5 -57z" />
<glyph unicode="&#xdd;" horiz-adv-x="496" d="M213 771q-14 0 -7 12l61 109q5 7 12 7h48q13 0 6 -12l-69 -109q-5 -7 -12 -7h-39zM222 1q-10 0 -10 10v298q0 4 -1 5l-173 374q-5 12 8 12h54q8 0 11 -8l134 -299q1 -2 3 -2t3 2l134 299q3 8 11 8h54q13 0 8 -12l-174 -374q-1 -1 -1 -5v-298q0 -10 -10 -10h-51z" />
<glyph unicode="&#xde;" horiz-adv-x="505" d="M291 544q80 0 129.5 -54t49.5 -141q0 -86 -50 -138.5t-129 -52.5h-137q-4 0 -4 -4v-144q0 -10 -10 -10h-51q-10 0 -10 10v680q0 10 10 10h51q10 0 10 -10v-142q0 -4 4 -4h137zM282 216q53 0 85 36t32 96q0 61 -32 97t-85 36h-128q-4 0 -4 -4v-257q0 -4 4 -4h128z" />
<glyph unicode="&#xdf;" horiz-adv-x="510" d="M81 0q-10 0 -10 10v500q0 93 49 146t133 53q90 0 140 -49t52 -136q3 -112 -77 -150q-4 -2 -1 -5q40 -19 62.5 -64.5t22.5 -109.5q0 -92 -52.5 -143.5t-153.5 -51.5h-50q-10 0 -10 10v41q0 10 10 10l54 1q65 0 98.5 36t33.5 103t-29 104t-86 38h-52q-10 0 -10 10v37 q0 10 10 10h53q53 0 81 32t26 90q-2 59 -32 92t-87 33q-50 0 -82 -34.5t-32 -95.5v-507q0 -10 -10 -10h-51z" />
<glyph unicode="&#xe0;" horiz-adv-x="461" d="M254 597q7 -12 -7 -12h-39q-7 0 -12 7l-69 109q-7 12 6 12h48q7 0 12 -7zM231 514q80 0 126 -46t46 -122v-336q0 -10 -10 -10h-51q-10 0 -10 10v36q0 7 -5 2q-46 -56 -134 -56q-63 0 -107 34t-44 111q0 80 52 121.5t141 41.5h93q4 0 4 4v38q0 51 -26 80.5t-75 29.5 q-39 0 -65.5 -19.5t-30.5 -51.5q-1 -9 -11 -9l-55 3q-11 0 -9 10q7 58 54 93.5t117 35.5zM209 54q50 0 86.5 27.5t36.5 76.5v81q0 4 -4 4h-89q-56 0 -90.5 -26.5t-34.5 -75.5q0 -44 26.5 -65.5t68.5 -21.5z" />
<glyph unicode="&#xe1;" horiz-adv-x="461" d="M310 713q13 0 6 -12l-69 -109q-5 -7 -12 -7h-39q-14 0 -7 12l61 109q5 7 12 7h48zM231 514q80 0 126 -46t46 -122v-336q0 -10 -10 -10h-51q-10 0 -10 10v36q0 7 -5 2q-46 -56 -134 -56q-63 0 -107 34t-44 111q0 80 52 121.5t141 41.5h93q4 0 4 4v38q0 51 -26 80.5 t-75 29.5q-39 0 -65.5 -19.5t-30.5 -51.5q-1 -9 -11 -9l-55 3q-11 0 -9 10q7 58 54 93.5t117 35.5zM209 54q50 0 86.5 27.5t36.5 76.5v81q0 4 -4 4h-89q-56 0 -90.5 -26.5t-34.5 -75.5q0 -44 26.5 -65.5t68.5 -21.5z" />
<glyph unicode="&#xe2;" horiz-adv-x="461" d="M233 663q-1 1 -3 1t-3 -1l-52 -79q-5 -6 -12 -6h-41q-6 0 -8 4t2 8l74 106q4 6 12 6h54q8 0 12 -6l76 -106q4 -4 2 -8t-8 -4h-41q-7 0 -12 6zM231 514q80 0 126 -46t46 -122v-336q0 -10 -10 -10h-51q-10 0 -10 10v36q0 7 -5 2q-46 -56 -134 -56q-63 0 -107 34t-44 111 q0 80 52 121.5t141 41.5h93q4 0 4 4v38q0 51 -26 80.5t-75 29.5q-39 0 -65.5 -19.5t-30.5 -51.5q-1 -9 -11 -9l-55 3q-11 0 -9 10q7 58 54 93.5t117 35.5zM209 54q50 0 86.5 27.5t36.5 76.5v81q0 4 -4 4h-89q-56 0 -90.5 -26.5t-34.5 -75.5q0 -44 26.5 -65.5t68.5 -21.5z " />
<glyph unicode="&#xe3;" horiz-adv-x="461" d="M192 644q-28 0 -47 -26q-6 -9 -14 -3l-18 13q-9 5 -4 13q28 53 79 53q21 0 59 -23q31 -21 47 -21q27 0 46 28q5 10 14 4l19 -12q8 -6 4 -14q-30 -55 -83 -55q-24 0 -57 23q-31 20 -45 20zM231 514q80 0 126 -46t46 -122v-336q0 -10 -10 -10h-51q-10 0 -10 10v36q0 7 -5 2 q-46 -56 -134 -56q-63 0 -107 34t-44 111q0 80 52 121.5t141 41.5h93q4 0 4 4v38q0 51 -26 80.5t-75 29.5q-39 0 -65.5 -19.5t-30.5 -51.5q-1 -9 -11 -9l-55 3q-11 0 -9 10q7 58 54 93.5t117 35.5zM209 54q50 0 86.5 27.5t36.5 76.5v81q0 4 -4 4h-89q-56 0 -90.5 -26.5 t-34.5 -75.5q0 -44 26.5 -65.5t68.5 -21.5z" />
<glyph unicode="&#xe4;" horiz-adv-x="461" d="M157 605q-20 0 -33 13t-13 34q0 20 13.5 33t32.5 13t32 -13t13 -33q0 -21 -12.5 -34t-32.5 -13zM307 605q-20 0 -33 13t-13 34q0 20 13 33t33 13q19 0 32 -13t13 -33q0 -21 -12.5 -34t-32.5 -13zM231 514q80 0 126 -46t46 -122v-336q0 -10 -10 -10h-51q-10 0 -10 10v36 q0 7 -5 2q-46 -56 -134 -56q-63 0 -107 34t-44 111q0 80 52 121.5t141 41.5h93q4 0 4 4v38q0 51 -26 80.5t-75 29.5q-39 0 -65.5 -19.5t-30.5 -51.5q-1 -9 -11 -9l-55 3q-11 0 -9 10q7 58 54 93.5t117 35.5zM209 54q50 0 86.5 27.5t36.5 76.5v81q0 4 -4 4h-89 q-56 0 -90.5 -26.5t-34.5 -75.5q0 -44 26.5 -65.5t68.5 -21.5z" />
<glyph unicode="&#xe5;" horiz-adv-x="461" d="M231 579q-43 0 -73 29.5t-30 72.5t30 73t73 30t72.5 -30t29.5 -73t-29.5 -72.5t-72.5 -29.5zM231 746q-27 0 -45.5 -19t-18.5 -46t19 -45.5t45 -18.5t44.5 18.5t18.5 45.5t-18.5 46t-44.5 19zM231 514q80 0 126 -46t46 -122v-336q0 -10 -10 -10h-51q-10 0 -10 10v36 q0 7 -5 2q-46 -56 -134 -56q-63 0 -107 34t-44 111q0 80 52 121.5t141 41.5h93q4 0 4 4v38q0 51 -26 80.5t-75 29.5q-39 0 -65.5 -19.5t-30.5 -51.5q-1 -9 -11 -9l-55 3q-11 0 -9 10q7 58 54 93.5t117 35.5zM209 54q50 0 86.5 27.5t36.5 76.5v81q0 4 -4 4h-89 q-56 0 -90.5 -26.5t-34.5 -75.5q0 -44 26.5 -65.5t68.5 -21.5z" />
<glyph unicode="&#xe6;" horiz-adv-x="742" d="M198 -8q-67 0 -111.5 32t-44.5 109q0 79 50 118t139 39h96q4 0 4 4v46q0 51 -26 81.5t-77 30.5q-39 0 -66.5 -19.5t-33.5 -51.5q-2 -11 -11 -9l-51 5q-10 2 -9 11q7 56 55 91t116 35q100 0 139 -78q2 -5 5 0q19 34 56.5 56t84.5 22q68 0 116 -40.5t56 -105.5 q5 -52 5 -129q0 -10 -10 -10h-272q-4 0 -4 -4q0 -14 0.5 -35.5t0.5 -33.5q1 -45 32.5 -71t79.5 -26q79 0 104 70q3 9 12 6l43 -12q9 -3 7 -12q-15 -54 -59.5 -86.5t-108.5 -32.5q-52 0 -92 22t-55 57q-2 6 -4 2q-18 -38 -63 -59.5t-103 -21.5zM404 294q0 -4 4 -4h207 q4 0 4 4q0 25 -2 61q-5 43 -33.5 70t-72.5 27q-43 0 -71.5 -27t-33.5 -70q-2 -38 -2 -61zM210 50q49 0 85 26.5t36 75.5v73q0 4 -4 4h-89q-57 0 -90.5 -23t-33.5 -69q0 -43 26.5 -65t69.5 -22z" />
<glyph unicode="&#xe7;" horiz-adv-x="461" d="M346 140q0 2 0.5 4t0.5 4q2 11 11 9l50 -4q9 -2 9 -9v-4q0 -4 -2 -12q-6 -53 -46.5 -90t-102.5 -44q-6 -2 -1 -5q56 -53 43 -115q-9 -42 -44.5 -53.5t-73.5 -2.5q-8 3 -7 12l3 22q2 11 12 8q23 -6 39.5 2.5t20.5 31.5q10 47 -49 98q-1 2 -5 2q-58 10 -95 48t-46 96 q-6 51 -6 116q0 51 6 115q9 65 57 105t119 40t119.5 -38t56.5 -95l3 -21q2 -11 -9 -11l-51 -3q-10 0 -11 9q0 9 -1 12q-5 35 -34.5 60t-72.5 25q-44 0 -72.5 -27t-33.5 -70t-5 -102q0 -60 5 -103q5 -44 33.5 -70t72.5 -26t73.5 25t33.5 61z" />
<glyph unicode="&#xe8;" d="M260 597q7 -12 -7 -12h-39q-7 0 -12 7l-69 109q-7 12 6 12h48q7 0 12 -7zM242 54q39 0 67 20t40 53q3 10 12 7l41 -11q10 -3 7 -12q-15 -54 -60 -86.5t-110 -32.5q-70 0 -115.5 37.5t-56.5 101.5q-9 46 -9 123q0 79 4 112q8 67 55.5 107.5t119.5 40.5q79 0 125 -44 t53 -118q4 -47 4 -114q0 -10 -10 -10h-277q-4 0 -4 -4q0 -43 3 -73q5 -44 35.5 -70.5t75.5 -26.5zM237 452q-44 0 -72 -26t-33 -69q-2 -21 -4 -68q0 -4 4 -4h212q4 0 4 4q-2 48 -4 66q-5 43 -34 70t-73 27z" />
<glyph unicode="&#xe9;" d="M316 713q13 0 6 -12l-69 -109q-5 -7 -12 -7h-39q-14 0 -7 12l61 109q5 7 12 7h48zM242 54q39 0 67 20t40 53q3 10 12 7l41 -11q10 -3 7 -12q-15 -54 -60 -86.5t-110 -32.5q-70 0 -115.5 37.5t-56.5 101.5q-9 46 -9 123q0 79 4 112q8 67 55.5 107.5t119.5 40.5 q79 0 125 -44t53 -118q4 -47 4 -114q0 -10 -10 -10h-277q-4 0 -4 -4q0 -43 3 -73q5 -44 35.5 -70.5t75.5 -26.5zM237 452q-44 0 -72 -26t-33 -69q-2 -21 -4 -68q0 -4 4 -4h212q4 0 4 4q-2 48 -4 66q-5 43 -34 70t-73 27z" />
<glyph unicode="&#xea;" d="M239 663q-1 1 -3 1t-3 -1l-52 -79q-5 -6 -12 -6h-41q-6 0 -8 4t2 8l74 106q4 6 12 6h54q8 0 12 -6l76 -106q4 -4 2 -8t-8 -4h-41q-7 0 -12 6zM242 54q39 0 67 20t40 53q3 10 12 7l41 -11q10 -3 7 -12q-15 -54 -60 -86.5t-110 -32.5q-70 0 -115.5 37.5t-56.5 101.5 q-9 46 -9 123q0 79 4 112q8 67 55.5 107.5t119.5 40.5q79 0 125 -44t53 -118q4 -47 4 -114q0 -10 -10 -10h-277q-4 0 -4 -4q0 -43 3 -73q5 -44 35.5 -70.5t75.5 -26.5zM237 452q-44 0 -72 -26t-33 -69q-2 -21 -4 -68q0 -4 4 -4h212q4 0 4 4q-2 48 -4 66q-5 43 -34 70t-73 27 z" />
<glyph unicode="&#xeb;" d="M163 605q-20 0 -33 13t-13 34q0 20 13.5 33t32.5 13t32 -13t13 -33q0 -21 -12.5 -34t-32.5 -13zM313 605q-20 0 -33 13t-13 34q0 20 13 33t33 13q19 0 32 -13t13 -33q0 -21 -12.5 -34t-32.5 -13zM242 54q39 0 67 20t40 53q3 10 12 7l41 -11q10 -3 7 -12 q-15 -54 -60 -86.5t-110 -32.5q-70 0 -115.5 37.5t-56.5 101.5q-9 46 -9 123q0 79 4 112q8 67 55.5 107.5t119.5 40.5q79 0 125 -44t53 -118q4 -47 4 -114q0 -10 -10 -10h-277q-4 0 -4 -4q0 -43 3 -73q5 -44 35.5 -70.5t75.5 -26.5zM237 452q-44 0 -72 -26t-33 -69 q-2 -21 -4 -68q0 -4 4 -4h212q4 0 4 4q-2 48 -4 66q-5 43 -34 70t-73 27z" />
<glyph unicode="&#xec;" horiz-adv-x="204" d="M123 599q7 -12 -7 -12h-39q-7 0 -12 7l-69 109q-7 12 6 12h48q7 0 12 -7zM75 0q-10 0 -10 10v486q0 10 10 10h51q10 0 10 -10v-486q0 -10 -10 -10h-51z" />
<glyph unicode="&#xed;" horiz-adv-x="204" d="M65 587q-14 0 -7 12l61 109q5 7 12 7h48q13 0 6 -12l-69 -109q-5 -7 -12 -7h-39zM75 0q-10 0 -10 10v486q0 10 10 10h51q10 0 10 -10v-486q0 -10 -10 -10h-51z" />
<glyph unicode="&#xee;" horiz-adv-x="204" d="M-9 580q-6 0 -8 4t2 8l74 106q4 6 12 6h54q8 0 12 -6l76 -106q4 -4 2 -8t-8 -4h-41q-8 0 -12 6l-52 79q-1 1 -3 1t-3 -1l-52 -79q-4 -6 -12 -6h-41zM75 0q-10 0 -10 10v486q0 10 10 10h51q10 0 10 -10v-486q0 -10 -10 -10h-51z" />
<glyph unicode="&#xef;" horiz-adv-x="204" d="M26 607q-20 0 -33 13t-13 34q0 20 13 33t33 13q19 0 32 -13t13 -33q0 -21 -12.5 -34t-32.5 -13zM176 607q-20 0 -33 13t-13 34q0 20 13 33t33 13q19 0 32 -13t13 -33q0 -21 -12.5 -34t-32.5 -13zM75 0q-10 0 -10 10v486q0 10 10 10h51q10 0 10 -10v-486q0 -10 -10 -10 h-51z" />
<glyph unicode="&#xf0;" horiz-adv-x="479" d="M409 352q3 -33 3 -107q0 -78 -5 -110q-8 -64 -55.5 -103.5t-118.5 -39.5t-117.5 39t-55.5 104q-5 33 -5 110q0 78 5 110q6 59 46 96.5t99 39.5q76 7 117 -33q3 -2 3 -1v3q-14 57 -53 114q-2 4 -5 2l-83 -24q-10 -3 -13 7l-5 18q-3 10 7 13l66 20q5 2 2 5q-28 35 -68 73 q-5 4 -3.5 8t8.5 4h51q5 0 12 -5q6 -7 18 -19.5t22 -23.5t18 -21q2 -4 5 -2l80 24q10 3 13 -7l5 -20q2 -9 -7 -12l-62 -19q-4 -2 -3 -4q71 -101 79 -239zM338 147q3 41 3 97q0 58 -3 97q-5 43 -33.5 69.5t-71.5 26.5t-71 -26.5t-33 -69.5q-3 -27 -3 -97q0 -56 3 -97 q5 -43 33 -69.5t71 -26.5t71.5 26.5t33.5 69.5z" />
<glyph unicode="&#xf1;" horiz-adv-x="482" d="M207 638q-26 0 -43 -26q-6 -9 -14 -3l-17 13q-8 5 -3 13q26 53 74 53q19 0 55 -23q29 -21 44 -21q26 0 43 28q4 9 14 3l17 -11q8 -6 4 -14q-27 -55 -78 -55q-22 0 -53 23q-29 20 -43 20zM265 513q70 0 110.5 -44.5t40.5 -121.5v-337q0 -10 -10 -10h-51q-10 0 -10 10v327 q0 52 -27 83t-73 31q-47 0 -75.5 -31.5t-28.5 -84.5v-325q0 -10 -10 -10h-51q-10 0 -10 10v486q0 10 10 10h51q10 0 10 -10v-37q0 -7 5 -2q40 56 119 56z" />
<glyph unicode="&#xf2;" horiz-adv-x="480" d="M263 597q7 -12 -7 -12h-39q-7 0 -12 7l-69 109q-7 12 6 12h48q7 0 12 -7zM240 -8q-72 0 -119 39.5t-57 106.5q-7 46 -7 116q0 69 7 114q9 67 56.5 106.5t120.5 39.5q71 0 118.5 -39.5t56.5 -105.5q7 -48 7 -115q0 -68 -7 -116q-10 -67 -57 -106.5t-119 -39.5zM240 54 q43 0 72.5 26.5t35.5 70.5q4 39 4 102q0 65 -4 102q-6 44 -35.5 70.5t-72.5 26.5t-72.5 -26.5t-35.5 -70.5q-4 -37 -4 -102t4 -102q6 -44 35.5 -70.5t72.5 -26.5z" />
<glyph unicode="&#xf3;" horiz-adv-x="480" d="M205 585q-14 0 -7 12l61 109q5 7 12 7h48q13 0 6 -12l-69 -109q-5 -7 -12 -7h-39zM240 -8q-72 0 -119 39.5t-57 106.5q-7 46 -7 116q0 69 7 114q9 67 56.5 106.5t120.5 39.5q71 0 118.5 -39.5t56.5 -105.5q7 -48 7 -115q0 -68 -7 -116q-10 -67 -57 -106.5t-119 -39.5z M240 54q43 0 72.5 26.5t35.5 70.5q4 39 4 102q0 65 -4 102q-6 44 -35.5 70.5t-72.5 26.5t-72.5 -26.5t-35.5 -70.5q-4 -37 -4 -102t4 -102q6 -44 35.5 -70.5t72.5 -26.5z" />
<glyph unicode="&#xf4;" horiz-adv-x="480" d="M131 578q-6 0 -8 4t2 8l74 106q4 6 12 6h54q8 0 12 -6l76 -106q4 -4 2 -8t-8 -4h-41q-8 0 -12 6l-52 79q-1 1 -3 1t-3 -1l-52 -79q-4 -6 -12 -6h-41zM240 -8q-72 0 -119 39.5t-57 106.5q-7 46 -7 116q0 69 7 114q9 67 56.5 106.5t120.5 39.5q71 0 118.5 -39.5 t56.5 -105.5q7 -48 7 -115q0 -68 -7 -116q-10 -67 -57 -106.5t-119 -39.5zM240 54q43 0 72.5 26.5t35.5 70.5q4 39 4 102q0 65 -4 102q-6 44 -35.5 70.5t-72.5 26.5t-72.5 -26.5t-35.5 -70.5q-4 -37 -4 -102t4 -102q6 -44 35.5 -70.5t72.5 -26.5z" />
<glyph unicode="&#xf5;" horiz-adv-x="480" d="M303 601q-24 0 -57 23q-31 20 -45 20q-28 0 -47 -26q-6 -9 -14 -3l-18 13q-9 5 -4 13q28 53 79 53q21 0 59 -23q31 -21 47 -21q27 0 46 28q5 10 14 4l19 -12q9 -6 0 -20q-29 -49 -79 -49zM240 -8q-72 0 -119 39.5t-57 106.5q-7 46 -7 116q0 69 7 114q9 67 56.5 106.5 t120.5 39.5q71 0 118.5 -39.5t56.5 -105.5q7 -48 7 -115q0 -68 -7 -116q-10 -67 -57 -106.5t-119 -39.5zM240 54q43 0 72.5 26.5t35.5 70.5q4 39 4 102q0 65 -4 102q-6 44 -35.5 70.5t-72.5 26.5t-72.5 -26.5t-35.5 -70.5q-4 -37 -4 -102t4 -102q6 -44 35.5 -70.5 t72.5 -26.5z" />
<glyph unicode="&#xf6;" horiz-adv-x="480" d="M166 605q-20 0 -33 13t-13 34q0 20 13 33t33 13q19 0 32 -13t13 -33q0 -21 -12.5 -34t-32.5 -13zM316 605q-20 0 -33 13t-13 34q0 20 13 33t33 13q19 0 32 -13t13 -33q0 -21 -12.5 -34t-32.5 -13zM240 -8q-72 0 -119 39.5t-57 106.5q-7 46 -7 116q0 69 7 114 q9 67 56.5 106.5t120.5 39.5q71 0 118.5 -39.5t56.5 -105.5q7 -48 7 -115q0 -68 -7 -116q-10 -67 -57 -106.5t-119 -39.5zM240 54q43 0 72.5 26.5t35.5 70.5q4 39 4 102q0 65 -4 102q-6 44 -35.5 70.5t-72.5 26.5t-72.5 -26.5t-35.5 -70.5q-4 -37 -4 -102t4 -102 q6 -44 35.5 -70.5t72.5 -26.5z" />
<glyph unicode="&#xf7;" d="M235 433q-22 0 -37.5 15.5t-15.5 37.5q0 21 15.5 36t37.5 15q21 0 37 -15t16 -36q0 -22 -16 -37.5t-37 -15.5zM46 296q-10 0 -10 10v38q0 10 10 10h379q10 0 10 -10v-38q0 -10 -10 -10h-379zM235 123q-22 0 -37.5 15t-15.5 37q0 21 15.5 36.5t37.5 15.5q21 0 37 -15.5 t16 -36.5t-16 -36.5t-37 -15.5z" />
<glyph unicode="&#xf8;" horiz-adv-x="491" d="M424 369q7 -48 7 -115q0 -68 -7 -116q-10 -67 -57 -106.5t-119 -39.5q-59 0 -104 28q-3 2 -5 -2l-26 -44q-4 -9 -14 -3l-32 21q-8 5 -3 13l33 57q1 3 0 6q-19 29 -25 70q-7 46 -7 116q0 69 7 114q9 67 56.5 106.5t120.5 39.5q53 0 94 -23q4 -2 5 1l24 41q5 10 14 4 l32 -21q8 -5 3 -13l-28 -50q-2 -3 0 -5q25 -34 31 -79zM140 151q0 -1 0.5 -2t0.5 -2q0 -3 1.5 -3.5t3.5 2.5l165 283q1 4 -1 5q-27 18 -62 18q-43 0 -72.5 -26.5t-35.5 -70.5q-4 -37 -4 -102t4 -102zM356 151q4 39 4 102q0 65 -4 102q-2 12 -4 19q-2 5 -5 0l-170 -290 q-2 -4 1 -5q28 -25 70 -25q43 0 72.5 26.5t35.5 70.5z" />
<glyph unicode="&#xf9;" horiz-adv-x="480" d="M261 589q7 -12 -7 -12h-39q-7 0 -12 7l-69 109q-7 12 6 12h48q7 0 12 -7zM339 496q0 10 10 10h51q10 0 10 -10v-486q0 -10 -10 -10h-51q-10 0 -10 10v39q-1 4 -5 1q-35 -57 -116 -57q-68 0 -111 40t-43 116v347q0 10 10 10h51q10 0 10 -10v-329q0 -53 26 -82.5t73 -29.5 q49 0 77 31.5t28 84.5v325z" />
<glyph unicode="&#xfa;" horiz-adv-x="480" d="M317 705q13 0 6 -12l-69 -109q-5 -7 -12 -7h-39q-14 0 -7 12l61 109q5 7 12 7h48zM339 496q0 10 10 10h51q10 0 10 -10v-486q0 -10 -10 -10h-51q-10 0 -10 10v39q-1 4 -5 1q-35 -57 -116 -57q-68 0 -111 40t-43 116v347q0 10 10 10h51q10 0 10 -10v-329q0 -53 26 -82.5 t73 -29.5q49 0 77 31.5t28 84.5v325z" />
<glyph unicode="&#xfb;" horiz-adv-x="480" d="M240 655q-1 1 -3 1t-3 -1l-52 -79q-4 -6 -12 -6h-41q-6 0 -8 4t2 8l74 106q4 6 12 6h54q8 0 12 -6l76 -106q4 -4 2 -8t-8 -4h-41q-8 0 -12 6zM339 496q0 10 10 10h51q10 0 10 -10v-486q0 -10 -10 -10h-51q-10 0 -10 10v39q-1 4 -5 1q-35 -57 -116 -57q-68 0 -111 40 t-43 116v347q0 10 10 10h51q10 0 10 -10v-329q0 -53 26 -82.5t73 -29.5q49 0 77 31.5t28 84.5v325z" />
<glyph unicode="&#xfc;" horiz-adv-x="480" d="M164 597q-20 0 -33 13t-13 34q0 20 13 33t33 13q19 0 32 -13t13 -33q0 -21 -12.5 -34t-32.5 -13zM314 597q-20 0 -33 13t-13 34q0 20 13 33t33 13q19 0 32 -13t13 -33q0 -21 -12.5 -34t-32.5 -13zM339 496q0 10 10 10h51q10 0 10 -10v-486q0 -10 -10 -10h-51 q-10 0 -10 10v39q-1 4 -5 1q-35 -57 -116 -57q-68 0 -111 40t-43 116v347q0 10 10 10h51q10 0 10 -10v-329q0 -53 26 -82.5t73 -29.5q49 0 77 31.5t28 84.5v325z" />
<glyph unicode="&#xfd;" horiz-adv-x="414" d="M172 579q-14 0 -7 12l61 109q5 7 12 7h48q13 0 6 -12l-69 -109q-5 -7 -12 -7h-39zM51 -200q-7 0 -7 10v41q0 10 6 10h6q50 0 72 26t43 110v6l-149 492q-3 11 9 11h54q9 0 11 -8l109 -396q1 -2 2.5 -2t2.5 2l108 395q2 9 11 9h54q12 0 9 -11l-163 -539 q-29 -97 -61.5 -126.5t-110.5 -29.5h-6z" />
<glyph unicode="&#xfe;" horiz-adv-x="477" d="M415 368q7 -41 7 -116q0 -74 -8 -116q-14 -70 -53.5 -107t-101.5 -37q-77 0 -115 56q-3 2 -5 -2v-236q0 -10 -10 -10h-51q-10 0 -10 10v880q0 10 10 10h51q10 0 10 -10v-229q0 -3 1.5 -3.5t3.5 2.5q36 54 112 54q66 0 106.5 -38t52.5 -108zM342 142q9 39 9 111t-11 115 q-9 38 -35 61t-65 23t-63 -23t-31 -63q-6 -30 -7 -47v-133q1 -24 6 -45q8 -40 32.5 -63.5t63.5 -23.5q41 0 67 23.5t34 64.5z" />
<glyph unicode="&#xff;" horiz-adv-x="414" d="M133 599q-20 0 -33 13t-13 34q0 20 13.5 33t32.5 13t32 -13t13 -33q0 -21 -12.5 -34t-32.5 -13zM283 599q-20 0 -33 13t-13 34q0 20 13 33t33 13q19 0 32 -13t13 -33q0 -21 -12.5 -34t-32.5 -13zM51 -200q-7 0 -7 10v41q0 10 6 10h6q50 0 72 26t43 110v6l-149 492 q-3 11 9 11h54q9 0 11 -8l109 -396q1 -2 2.5 -2t2.5 2l108 395q2 9 11 9h54q12 0 9 -11l-163 -539q-29 -97 -61.5 -126.5t-110.5 -29.5h-6z" />
<glyph unicode="&#x152;" horiz-adv-x="804" d="M754 648q0 -10 -10 -10h-279q-4 0 -4 -4v-248q0 -4 4 -4h181q10 0 10 -10v-42q0 -10 -10 -10h-181q-4 0 -4 -4v-250q0 -4 4 -4h279q10 0 10 -10v-42q0 -10 -10 -10h-344q-10 0 -10 10v39q0 6 -5 1q-53 -58 -138 -58q-79 0 -131 55t-52 141v323q0 86 52 141.5t131 55.5 q85 0 138 -59q5 -5 5 2v39q0 10 10 10h344q10 0 10 -10v-42zM262 54q57 0 92.5 37t35.5 94v328q0 58 -35.5 95.5t-92.5 37.5t-92 -37.5t-35 -95.5v-328q0 -57 35 -94t92 -37z" />
<glyph unicode="&#x153;" horiz-adv-x="758" d="M532 53q36 0 64 20t40 53q3 9 12 6l40 -10q10 -3 7 -13q-15 -54 -58.5 -85.5t-107.5 -31.5q-96 0 -144 79q-3 3 -6 0q-51 -79 -144 -79q-71 0 -117.5 40t-55.5 106q-5 34 -5 116t5 115q8 65 55 105t118 40q93 0 144 -79q3 -3 6 0q49 79 141 79q72 0 119.5 -40.5 t55.5 -105.5q5 -43 5 -126q0 -10 -10 -10h-273q-4 0 -4 -4q0 -46 3 -77q5 -44 34.5 -71t75.5 -27zM340 151q3 27 3 102t-3 102q-5 43 -33.5 70t-71.5 27t-71 -27t-33 -70q-3 -27 -3 -102q0 -61 3 -102q5 -43 33 -70t71 -27t71.5 27t33.5 70zM527 452q-44 0 -72 -27t-33 -70 l-3 -69q0 -4 4 -4h208q4 0 4 4q0 39 -3 69q-5 43 -33.5 70t-71.5 27z" />
<glyph unicode="&#x178;" horiz-adv-x="496" d="M174 791q-20 0 -33 13t-13 34q0 20 13 33t33 13q19 0 32 -13t13 -33q0 -21 -12.5 -34t-32.5 -13zM324 791q-20 0 -33 13t-13 34q0 20 13 33t33 13q19 0 32 -13t13 -33q0 -21 -12.5 -34t-32.5 -13zM222 1q-10 0 -10 10v298q0 4 -1 5l-173 374q-5 12 8 12h54q8 0 11 -8 l134 -299q1 -2 3 -2t3 2l134 299q3 8 11 8h54q13 0 8 -12l-174 -374q-1 -1 -1 -5v-298q0 -10 -10 -10h-51z" />
<glyph unicode="&#x2c6;" horiz-adv-x="246" d="M15 570q-6 0 -8 4t2 8l74 106q4 6 12 6h54q8 0 12 -6l76 -106q4 -4 2 -8t-8 -4h-41q-8 0 -12 6l-52 79q-1 1 -3 1t-3 -1l-52 -79q-4 -6 -12 -6h-41z" />
<glyph unicode="&#x2dc;" horiz-adv-x="327" d="M215 593q-24 0 -57 23q-31 20 -45 20q-28 0 -47 -26q-6 -9 -14 -3l-18 13q-9 5 -4 13q28 53 79 53q21 0 59 -23q32 -21 47 -21q27 0 46 28q5 10 14 4l19 -12q9 -6 0 -20q-29 -49 -79 -49z" />
<glyph unicode="&#x2000;" horiz-adv-x="485" />
<glyph unicode="&#x2001;" horiz-adv-x="970" />
<glyph unicode="&#x2002;" horiz-adv-x="485" />
<glyph unicode="&#x2003;" horiz-adv-x="970" />
<glyph unicode="&#x2004;" horiz-adv-x="323" />
<glyph unicode="&#x2005;" horiz-adv-x="242" />
<glyph unicode="&#x2006;" horiz-adv-x="161" />
<glyph unicode="&#x2007;" horiz-adv-x="161" />
<glyph unicode="&#x2008;" horiz-adv-x="121" />
<glyph unicode="&#x2009;" horiz-adv-x="194" />
<glyph unicode="&#x200a;" horiz-adv-x="53" />
<glyph unicode="&#x2010;" horiz-adv-x="354" d="M46 280q-10 0 -10 10v42q0 10 10 10h262q10 0 10 -10v-42q0 -10 -10 -10h-262z" />
<glyph unicode="&#x2011;" horiz-adv-x="354" d="M46 280q-10 0 -10 10v42q0 10 10 10h262q10 0 10 -10v-42q0 -10 -10 -10h-262z" />
<glyph unicode="&#x2012;" horiz-adv-x="354" d="M46 280q-10 0 -10 10v42q0 10 10 10h262q10 0 10 -10v-42q0 -10 -10 -10h-262z" />
<glyph unicode="&#x2013;" horiz-adv-x="411" d="M46 252q-10 0 -10 10v42q0 10 10 10h320q10 0 10 -10v-42q0 -10 -10 -10h-320z" />
<glyph unicode="&#x2014;" horiz-adv-x="639" d="M46 252q-10 0 -10 10v42q0 10 10 10h547q10 0 10 -10v-42q0 -10 -10 -10h-547z" />
<glyph unicode="&#x2018;" horiz-adv-x="132" d="M12 495q-11 0 -8 11l67 186q3 8 12 8h37q12 0 9 -11l-53 -186q-3 -8 -11 -8h-53z" />
<glyph unicode="&#x2019;" horiz-adv-x="132" d="M120 700q11 0 8 -11l-67 -186q-3 -8 -12 -8h-37q-12 0 -9 11l53 186q3 8 11 8h53z" />
<glyph unicode="&#x201a;" horiz-adv-x="600" d="M62 -79q-11 0 -9 11l37 214q2 9 11 9h45q12 0 8 -11l-50 -214q-2 -9 -11 -9h-31z" />
<glyph unicode="&#x201c;" horiz-adv-x="259" d="M12 495q-11 0 -8 11l68 186q3 8 12 8h35q12 0 9 -11l-55 -186q-3 -8 -11 -8h-50zM140 495q-11 0 -8 11l68 186q3 8 12 8h35q12 0 9 -11l-54 -186q-3 -8 -11 -8h-51z" />
<glyph unicode="&#x201d;" horiz-adv-x="259" d="M119 700q11 0 8 -11l-68 -186q-3 -8 -12 -8h-35q-12 0 -9 11l54 186q3 8 11 8h51zM247 700q11 0 8 -11l-68 -186q-3 -8 -12 -8h-35q-12 0 -9 11l55 186q3 8 11 8h50z" />
<glyph unicode="&#x201e;" horiz-adv-x="256" d="M119 128q11 0 8 -11l-68 -186q-3 -8 -12 -8h-35q-12 0 -9 11l54 186q3 8 11 8h51zM247 128q11 0 8 -11l-68 -186q-3 -8 -12 -8h-35q-12 0 -9 11l55 186q3 8 11 8h50z" />
<glyph unicode="&#x2022;" horiz-adv-x="302" d="M152 151q-48 0 -82 34.5t-34 81.5q0 48 34 81.5t82 33.5q47 0 80.5 -33.5t33.5 -81.5q0 -47 -34 -81.5t-80 -34.5z" />
<glyph unicode="&#x2026;" horiz-adv-x="717" d="M119 3q-25 0 -42 17t-17 42q0 24 17.5 41.5t41.5 17.5q23 0 40.5 -17.5t17.5 -41.5q0 -25 -17 -42t-41 -17zM358 3q-25 0 -42 17t-17 42q0 24 17.5 41.5t41.5 17.5q23 0 40.5 -17.5t17.5 -41.5q0 -25 -17 -42t-41 -17zM595 3q-25 0 -42 17t-17 42q0 24 17.5 41.5 t41.5 17.5q23 0 40.5 -17.5t17.5 -41.5q0 -25 -17 -42t-41 -17z" />
<glyph unicode="&#x202f;" horiz-adv-x="194" />
<glyph unicode="&#x2039;" horiz-adv-x="336" d="M244 119q4 -5 2 -8.5t-8 -3.5h-46q-9 0 -13 6l-117 161q-4 7 0 14l117 161q4 6 13 6h46q6 0 8 -3.5t-2 -8.5l-116 -159q-2 -3 0 -6z" />
<glyph unicode="&#x203a;" horiz-adv-x="360" d="M98 107q-6 0 -8 3.5t2 8.5l116 159q2 3 0 6l-116 159q-4 5 -2 8.5t8 3.5h46q9 0 13 -6l117 -161q4 -7 0 -14l-117 -161q-4 -6 -13 -6h-46z" />
<glyph unicode="&#x205f;" horiz-adv-x="242" />
<glyph unicode="&#x20ac;" horiz-adv-x="561" d="M322 54q46 0 75.5 28t34.5 75q2 10 11 8l50 -8q10 -2 9 -11q-10 -71 -58 -112.5t-122 -41.5q-82 0 -132 51t-50 136v87q0 4 -4 4h-62q-10 0 -10 10v23q0 10 10 10h62q4 0 4 4v64q0 4 -4 4h-62q-10 0 -10 10v22q0 10 10 10h62q4 0 4 4v91q0 85 49.5 135.5t132.5 50.5 q75 0 123.5 -42.5t57.5 -114.5q1 -9 -9 -11l-52 -7q-9 -2 -11 9q-4 47 -33.5 75.5t-75.5 28.5q-50 0 -80.5 -33t-30.5 -87v-95q0 -4 4 -4h206q11 0 8 -11l-8 -23q-3 -8 -12 -8h-194q-4 0 -4 -4v-64q0 -4 4 -4h174q11 0 8 -12l-9 -23q-3 -8 -11 -8h-162q-4 0 -4 -4v-92 q0 -54 30.5 -87t80.5 -33z" />
<glyph unicode="&#x2122;" horiz-adv-x="586" d="M29 661q-10 0 -10 10v19q0 10 10 10h206q10 0 10 -10v-19q0 -10 -10 -10h-79q-4 0 -4 -4v-298q0 -10 -10 -10h-24q-10 0 -10 10v298q0 4 -4 4h-75zM497 693q5 7 12 7h26q10 0 10 -10v-331q0 -10 -10 -10h-25q-10 0 -10 10v258q0 3 -2 4t-3 -2l-57 -100q-5 -7 -11 -7 q-7 0 -12 7l-59 100q-2 3 -3.5 2.5t-1.5 -3.5v-259q0 -10 -10 -10h-24q-10 0 -10 10v331q0 10 10 10h26q7 0 12 -7l67 -117q1 -2 3 -2t3 2z" />
<glyph unicode="&#x25fc;" horiz-adv-x="505" d="M0 505h505v-505h-505v505z" />
</font>
</defs>
</svg>
